<svg xmlns="http://www.w3.org/2000/svg" viewBox="0 0 962.03 129.17">
  <path d="M19.19 128.12C8.61 128.12 0 119.51 0 108.93V19.19C0 8.61 8.61 0 19.19 0s19.19 8.61 19.19 19.19v89.74c0 10.58-8.61 19.19-19.19 19.19Zm0-121.98c-7.2 0-13.05 5.85-13.05 13.05v89.74c0 7.2 5.85 13.05 13.05 13.05s13.05-5.85 13.05-13.05V19.19c0-7.2-5.85-13.05-13.05-13.05Z" fill="#ff313c"/>
  <path d="M74.65 128.12c-10.58 0-19.19-8.61-19.19-19.19V19.19C55.46 8.61 64.07 0 74.65 0s19.19 8.61 19.19 19.19v89.74c0 10.58-8.61 19.19-19.19 19.19Zm0-121.98c-7.2 0-13.05 5.85-13.05 13.05v89.74c0 7.2 5.85 13.05 13.05 13.05s13.05-5.85 13.05-13.05V19.19c0-7.2-5.85-13.05-13.05-13.05Z" fill="#00a5a1"/>
  <path d="M74.65 93.84c-5.13 0-9.95-2-13.57-5.62L5.62 32.76c-7.48-7.48-7.48-19.66 0-27.14C9.25 2 14.06 0 19.19 0c5.13 0 9.95 2 13.57 5.62l55.46 55.46c7.48 7.48 7.48 19.66 0 27.14a19.069 19.069 0 0 1-13.57 5.62ZM19.19 6.14c-3.49 0-6.76 1.36-9.23 3.82-5.09 5.09-5.09 13.37 0 18.46l55.46 55.46c2.46 2.46 5.74 3.82 9.23 3.82s6.76-1.36 9.23-3.82c5.09-5.09 5.09-13.37 0-18.46L28.42 9.96a12.972 12.972 0 0 0-9.23-3.82Z" fill="#ffb300"/>
  <path d="M19.19 28.47c-5.12 0-9.28-4.16-9.28-9.28s4.16-9.28 9.28-9.28 9.28 4.16 9.28 9.28-4.16 9.28-9.28 9.28Zm0-12.43c-1.73 0-3.14 1.41-3.14 3.14s1.41 3.14 3.14 3.14 3.14-1.41 3.14-3.14-1.41-3.14-3.14-3.14Z" fill="#ff313c"/>
  <path d="M74.65 83.93c-5.12 0-9.28-4.16-9.28-9.28s4.16-9.28 9.28-9.28 9.28 4.16 9.28 9.28-4.16 9.28-9.28 9.28Zm0-12.43c-1.73 0-3.14 1.41-3.14 3.14s1.41 3.14 3.14 3.14 3.14-1.41 3.14-3.14-1.41-3.14-3.14-3.14Z" fill="#00a5a1"/>
  <path d="M185.78 38.95h-55.06c-10.51 0-19.05-8.55-19.05-19.05S120.22.85 130.72.85h55.06c10.51 0 19.05 8.55 19.05 19.05s-8.55 19.05-19.05 19.05ZM130.72 6.94c-7.14 0-12.96 5.81-12.96 12.96s5.81 12.96 12.96 12.96h55.06c7.14 0 12.96-5.81 12.96-12.96s-5.81-12.96-12.96-12.96h-55.06Z" fill="#ffb300"/>
  <path d="M185.78 128.03h-55.06c-10.51 0-19.05-8.55-19.05-19.05s8.55-19.05 19.05-19.05h55.06c10.51 0 19.05 8.55 19.05 19.05s-8.55 19.05-19.05 19.05Zm-55.06-32.01c-7.14 0-12.96 5.81-12.96 12.96s5.81 12.96 12.96 12.96h55.06c7.14 0 12.96-5.81 12.96-12.96s-5.81-12.96-12.96-12.96h-55.06Z" fill="#ff313c"/>
  <path d="M130.72 128.03c-10.51 0-19.05-8.55-19.05-19.05V19.9c0-10.51 8.55-19.05 19.05-19.05s19.05 8.55 19.05 19.05v89.08c0 10.51-8.55 19.05-19.05 19.05Zm0-121.09c-7.14 0-12.96 5.81-12.96 12.96v89.08c0 7.14 5.81 12.96 12.96 12.96s12.96-5.81 12.96-12.96V19.9c0-7.14-5.81-12.96-12.96-12.96Z" fill="#00a5a1"/>
  <path d="M164.75 83.6h-34.03c-10.51 0-19.05-8.55-19.05-19.05s8.55-19.05 19.05-19.05h34.03c10.51 0 19.05 8.55 19.05 19.05s-8.55 19.05-19.05 19.05Zm-34.03-32.01c-7.14 0-12.96 5.81-12.96 12.96s5.81 12.96 12.96 12.96h34.03c7.14 0 12.96-5.81 12.96-12.96s-5.81-12.96-12.96-12.96h-34.03Z" fill="#ff313c"/>
  <path d="M130.72 73.77c-5.08 0-9.22-4.13-9.22-9.22s4.13-9.22 9.22-9.22 9.22 4.13 9.22 9.22-4.13 9.22-9.22 9.22Zm0-12.34c-1.72 0-3.12 1.4-3.12 3.12s1.4 3.12 3.12 3.12 3.12-1.4 3.12-3.12-1.4-3.12-3.12-3.12Z" fill="#ffb300"/>
  <path d="M130.72 29.11c-5.08 0-9.22-4.13-9.22-9.22s4.13-9.22 9.22-9.22 9.22 4.13 9.22 9.22-4.13 9.22-9.22 9.22Zm0-12.34c-1.72 0-3.12 1.4-3.12 3.12s1.4 3.12 3.12 3.12 3.12-1.4 3.12-3.12-1.4-3.12-3.12-3.12ZM130.72 118.2c-5.08 0-9.22-4.13-9.22-9.22s4.13-9.22 9.22-9.22 9.22 4.13 9.22 9.22-4.13 9.22-9.22 9.22Zm0-12.34c-1.72 0-3.12 1.4-3.12 3.12s1.4 3.12 3.12 3.12 3.12-1.4 3.12-3.12-1.4-3.12-3.12-3.12Z" fill="#00a5a1"/>
  <g>
    <path d="M239.94 94.4c-10.61 0-19.23-8.63-19.23-19.23s8.63-19.23 19.23-19.23c20.04 0 36.35-16.31 36.35-36.35 0-10.61 8.63-19.23 19.23-19.23s19.23 8.63 19.23 19.23c0 41.26-33.56 74.82-74.82 74.82Zm55.58-87.9c-7.21 0-13.08 5.87-13.08 13.08 0 23.44-19.07 42.5-42.5 42.5-7.21 0-13.08 5.87-13.08 13.08s5.87 13.08 13.08 13.08c37.86 0 68.66-30.8 68.66-68.66 0-7.21-5.87-13.08-13.08-13.08Z" fill="#00a5a1"/>
    <path d="M258.04 73.75c-3.05-4.93-2.41-11.1 1.14-15.31V19.58c0-10.61-8.63-19.23-19.23-19.23s-19.23 8.63-19.23 19.23v89.94c0 10.61 8.63 19.23 19.23 19.23s19.23-8.63 19.23-19.23V75.58l-1.14-1.84Zm-5.02 35.78c0 7.21-5.87 13.08-13.08 13.08s-13.08-5.87-13.08-13.08V19.58c0-7.21 5.87-13.08 13.08-13.08s13.08 5.87 13.08 13.08v89.94Z" fill="#ff313c"/>
    <path d="M295.52 38.82h-55.58c-10.61 0-19.23-8.63-19.23-19.23S229.33.35 239.94.35h55.58c10.61 0 19.23 8.63 19.23 19.23s-8.63 19.23-19.23 19.23ZM239.94 6.5c-7.21 0-13.08 5.87-13.08 13.08s5.87 13.08 13.08 13.08h55.58c7.21 0 13.08-5.87 13.08-13.08S302.73 6.5 295.52 6.5h-55.58ZM239.94 84.47c-5.13 0-9.3-4.17-9.3-9.3s4.17-9.3 9.3-9.3 9.3 4.17 9.3 9.3-4.17 9.3-9.3 9.3Zm0-12.45a3.15 3.15 0 1 0 0 6.3 3.15 3.15 0 0 0 0-6.3Z" fill="#00a5a1"/>
    <path d="M239.94 28.89c-5.13 0-9.3-4.17-9.3-9.3s4.17-9.3 9.3-9.3 9.3 4.17 9.3 9.3-4.17 9.3-9.3 9.3Zm0-12.45a3.15 3.15 0 1 0 0 6.3 3.15 3.15 0 0 0 0-6.3Z" fill="#ffb300"/>
    <path d="M295.37 28.89c-5.13 0-9.3-4.17-9.3-9.3s4.17-9.3 9.3-9.3 9.3 4.17 9.3 9.3-4.17 9.3-9.3 9.3Zm0-12.45a3.15 3.15 0 1 0 0 6.3 3.15 3.15 0 0 0 0-6.3Z" fill="#ff313c"/>
    <path d="M269.21 76.24c-5.13 0-9.3-4.17-9.3-9.3s4.17-9.3 9.3-9.3 9.3 4.17 9.3 9.3-4.17 9.3-9.3 9.3Zm0-12.45a3.15 3.15 0 1 0 0 6.3 3.15 3.15 0 0 0 0-6.3Z" fill="#00a5a1"/>
    <path d="M295.54 128.76c-6.72 0-12.85-3.41-16.38-9.12L252.8 76.99c-5.58-9.02-2.77-20.9 6.25-26.47 4.37-2.7 9.53-3.54 14.53-2.36 5 1.18 9.24 4.24 11.94 8.61l26.36 42.65c2.7 4.37 3.54 9.53 2.36 14.53-1.18 5-4.24 9.24-8.61 11.94a19.19 19.19 0 0 1-10.1 2.88Zm-26.4-74.97c-2.4 0-4.76.67-6.85 1.96-6.13 3.79-8.04 11.87-4.25 18l26.36 42.65c2.4 3.89 6.57 6.21 11.14 6.21 2.42 0 4.79-.68 6.86-1.96 2.97-1.84 5.05-4.72 5.85-8.12.8-3.4.23-6.91-1.6-9.88L280.29 60a12.993 12.993 0 0 0-8.12-5.85c-1.01-.24-2.02-.36-3.03-.36Z" fill="#ffb300"/>
  </g>
  <g>
    <path d="M812.53 109.44V20.27c0-9.11-6.05-17.44-14.95-19.39C785.09-1.85 774 7.64 774 19.67v90.08-.14c.05 4.99 1.99 9.52 5.15 12.92 3.52 3.79 8.54 6.16 14.11 6.16s10.59-2.38 14.11-6.16c3.19-3.43 5.15-8.03 5.16-13.07s0-.01 0-.02Zm-6.16 0c0 9.05-9.24 15.98-18.78 11.88-4.64-1.99-7.41-6.83-7.41-11.88V20.19c0-6.29 4.2-12.08 10.36-13.33 8.42-1.72 15.84 4.7 15.84 12.82v89.76Z" fill="#ffb300"/>
    <path d="M836.89 90.17h-43.63c-5.06 0-9.66 1.96-13.1 5.16-3.79 3.52-6.16 8.54-6.16 14.11 0 10.62 8.64 19.26 19.26 19.26h43.63c10.62 0 19.26-8.64 19.26-19.26s-8.64-19.26-19.26-19.26Zm0 32.36h-43.63c-7.22 0-13.1-5.88-13.1-13.1s5.88-13.1 13.1-13.1h43.63c7.22 0 13.1 5.88 13.1 13.1s-5.88 13.1-13.1 13.1Z" fill="#00a5a1"/>
    <path d="M793.27 100.12c-5.14 0-9.32 4.18-9.32 9.32s4.18 9.32 9.32 9.32 9.32-4.18 9.32-9.32-4.18-9.32-9.32-9.32Zm0 12.47a3.15 3.15 0 1 1 0-6.3c1.73 0 3.15 1.42 3.15 3.15s-1.42 3.15-3.15 3.15Z" fill="#ff313c"/>
  </g>
  <g>
    <g fill="#ffb300">
      <path d="M887.1 62.4h13.1v-6.16h-13.1c-5.06 0-9.66 1.96-13.1 5.16-3.79 3.52-6.16 8.54-6.16 14.11s2.38 10.59 6.16 14.11c3.44 3.2 8.04 5.16 13.1 5.16h13.1v-6.16h-13.1c-7.22 0-13.1-5.88-13.1-13.1s5.88-13.1 13.1-13.1ZM942.77 62.4h-36.4v-6.16h36.4c5.06 0 9.66 1.96 13.1 5.16 3.79 3.52 6.16 8.54 6.16 14.11s-2.38 10.59-6.16 14.11c-3.44 3.2-8.04 5.16-13.1 5.16h-36.4v-6.16h36.4c7.22 0 13.1-5.88 13.1-13.1s-5.88-13.1-13.1-13.1Z"/>
    </g>
    <path d="M933.45 75.5c0 5.14 4.18 9.32 9.32 9.32s9.32-4.18 9.32-9.32c0-5.14-4.18-9.32-9.32-9.32-5.14 0-9.32 4.18-9.32 9.32Zm6.16 0c0-1.74 1.42-3.15 3.15-3.15 1.74 0 3.15 1.42 3.15 3.15 0 1.74-1.42 3.15-3.15 3.15-1.74 0-3.15-1.42-3.15-3.15Z" fill="#ff313c"/>
    <path d="M877.78 75.5c0 5.14 4.18 9.32 9.32 9.32 5.14 0 9.32-4.18 9.32-9.32 0-5.14-4.18-9.32-9.32-9.32-5.14 0-9.32 4.18-9.32 9.32Zm6.16 0a3.15 3.15 0 1 1 6.3 0 3.15 3.15 0 0 1-6.3 0Z" fill="#ffb300"/>
    <path d="M905.59 19.83c0 5.14 4.18 9.32 9.32 9.32s9.32-4.18 9.32-9.32c0-5.14-4.18-9.32-9.32-9.32-5.14 0-9.32 4.18-9.32 9.32Zm6.16 0a3.15 3.15 0 1 1 6.3 0c0 1.73-1.42 3.15-3.15 3.15-1.74 0-3.15-1.42-3.15-3.15Z" fill="#00a5a1"/>
    <g fill="#ff313c">
      <path d="M942.77 129.17c-10.62 0-19.26-8.64-19.26-19.26V94.77h6.16v15.14c0 7.22 5.88 13.1 13.1 13.1s13.1-5.88 13.1-13.1v-20.3c3.79-3.52 6.16-8.54 6.16-14.11v34.41c0 10.62-8.64 19.26-19.26 19.26ZM929.67 47.66v8.57h-6.16v-8.57c0-4.73-3.85-8.57-8.57-8.57v-6.16c8.13 0 14.74 6.61 14.74 14.74ZM962.03 47.66v27.83c0-5.57-2.38-10.59-6.16-14.11V47.65c0-22.57-18.36-40.93-40.93-40.93V.56c25.97 0 47.1 21.13 47.1 47.1Z"/>
    </g>
    <path d="M867.83 47.66V109.9c0 10.62 8.64 19.26 19.26 19.26 10.62 0 19.26-8.64 19.26-19.26V47.67c0-4.73 3.85-8.57 8.57-8.57 5.04 0 9.64-1.97 13.07-5.16 3.79-3.52 6.16-8.54 6.16-14.11s-2.38-10.59-6.16-14.11A19.205 19.205 0 0 0 914.92.56s0 0-.01 0h-.01c-25.96.02-47.07 21.14-47.07 47.1Zm6.16 0c0-22.57 18.36-40.92 40.92-40.93 7.22 0 13.09 5.88 13.09 13.1s-5.88 13.1-13.1 13.1c-8.11.02-14.71 6.62-14.71 14.74V109.9c0 7.22-5.88 13.1-13.1 13.1s-13.1-5.88-13.1-13.1V47.65Z" fill="#00a5a1"/>
  </g>
  <g>
    <path d="M681.97 94.65c-10.61 0-19.23-8.63-19.23-19.23s8.63-19.23 19.23-19.23c20.04 0 36.35-16.31 36.35-36.35 0-10.61 8.63-19.23 19.23-19.23s19.23 8.63 19.23 19.23c0 41.26-33.56 74.82-74.82 74.82Zm55.59-87.9c-7.21 0-13.08 5.87-13.08 13.08 0 23.44-19.07 42.5-42.5 42.5-7.21 0-13.08 5.87-13.08 13.08s5.87 13.08 13.08 13.08c37.86 0 68.66-30.8 68.66-68.66 0-7.21-5.87-13.08-13.08-13.08Z" fill="#ff313c"/>
    <path d="M700.07 73.99c-3.05-4.93-2.41-11.1 1.14-15.31V19.83C701.21 9.22 692.58.6 681.98.6s-19.23 8.63-19.23 19.23v89.94c0 10.61 8.63 19.23 19.23 19.23s19.23-8.63 19.23-19.23V75.83l-1.14-1.84Zm-5.02 35.78c0 7.21-5.87 13.08-13.08 13.08s-13.08-5.87-13.08-13.08V19.83c0-7.21 5.87-13.08 13.08-13.08s13.08 5.87 13.08 13.08v89.94Z" fill="#ffb300"/>
    <path d="M737.56 39.06h-55.58c-10.61 0-19.23-8.63-19.23-19.23S671.38.6 681.98.6h55.58c10.61 0 19.23 8.63 19.23 19.23s-8.63 19.23-19.23 19.23ZM681.98 6.75c-7.21 0-13.08 5.87-13.08 13.08s5.87 13.08 13.08 13.08h55.58c7.21 0 13.08-5.87 13.08-13.08s-5.87-13.08-13.08-13.08h-55.58ZM681.97 84.72c-5.13 0-9.3-4.17-9.3-9.3s4.17-9.3 9.3-9.3 9.3 4.17 9.3 9.3-4.17 9.3-9.3 9.3Zm0-12.45a3.15 3.15 0 1 0 0 6.3 3.15 3.15 0 0 0 0-6.3Z" fill="#ff313c"/>
    <path d="M681.97 29.13c-5.13 0-9.3-4.17-9.3-9.3s4.17-9.3 9.3-9.3 9.3 4.17 9.3 9.3-4.17 9.3-9.3 9.3Zm0-12.45a3.15 3.15 0 1 0 0 6.3 3.15 3.15 0 0 0 0-6.3Z" fill="#00a5a1"/>
    <path d="M737.41 29.13c-5.13 0-9.3-4.17-9.3-9.3s4.17-9.3 9.3-9.3 9.3 4.17 9.3 9.3-4.17 9.3-9.3 9.3Zm0-12.45a3.15 3.15 0 1 0 0 6.3 3.15 3.15 0 0 0 0-6.3ZM711.24 76.48c-5.13 0-9.3-4.17-9.3-9.3s4.17-9.3 9.3-9.3 9.3 4.17 9.3 9.3-4.17 9.3-9.3 9.3Zm0-12.45a3.15 3.15 0 1 0 0 6.3 3.15 3.15 0 0 0 0-6.3Z" fill="#ffb300"/>
    <path d="M737.58 129c-6.72 0-12.85-3.41-16.38-9.12l-26.36-42.65c-5.58-9.02-2.77-20.9 6.25-26.47 4.37-2.7 9.53-3.54 14.53-2.36 5 1.18 9.24 4.24 11.94 8.61l26.36 42.65c2.7 4.37 3.54 9.53 2.36 14.53-1.18 5-4.24 9.24-8.61 11.94a19.19 19.19 0 0 1-10.1 2.88Zm-26.4-74.97c-2.4 0-4.76.67-6.85 1.96-6.13 3.79-8.04 11.87-4.25 18l26.36 42.65c2.4 3.89 6.57 6.21 11.14 6.21 2.42 0 4.79-.68 6.86-1.96 2.97-1.84 5.05-4.72 5.85-8.12.8-3.4.23-6.91-1.6-9.88l-26.36-42.65a12.993 12.993 0 0 0-8.12-5.85c-1.01-.24-2.02-.36-3.03-.36Z" fill="#00a5a1"/>
  </g>
  <g>
    <path d="M350.95 128.26c-10.57 0-19.16-8.6-19.16-19.16V19.51c0-10.57 8.6-19.16 19.16-19.16s19.16 8.6 19.16 19.16v89.59c0 10.57-8.6 19.16-19.16 19.16Zm0-121.78c-7.18 0-13.03 5.84-13.03 13.03v89.59c0 7.18 5.84 13.03 13.03 13.03s13.03-5.84 13.03-13.03V19.51c0-7.18-5.84-13.03-13.03-13.03Z" fill="#ffb300"/>
    <path d="M350.95 28.78c-5.11 0-9.27-4.16-9.27-9.27s4.16-9.27 9.27-9.27 9.27 4.16 9.27 9.27-4.16 9.27-9.27 9.27Zm0-12.41c-1.73 0-3.14 1.41-3.14 3.14s1.41 3.14 3.14 3.14 3.14-1.41 3.14-3.14-1.41-3.14-3.14-3.14Z" fill="#00a5a1"/>
    <path d="M350.95 118.37c-5.11 0-9.27-4.16-9.27-9.27s4.16-9.27 9.27-9.27 9.27 4.16 9.27 9.27-4.16 9.27-9.27 9.27Zm0-12.41c-1.73 0-3.14 1.41-3.14 3.14s1.41 3.14 3.14 3.14 3.14-1.41 3.14-3.14-1.41-3.14-3.14-3.14Z" fill="#ff313c"/>
    <path d="M406.32 72.56c-5.11 0-9.27-4.16-9.27-9.27s4.16-9.27 9.27-9.27 9.27 4.16 9.27 9.27-4.16 9.27-9.27 9.27Zm0-12.41c-1.73 0-3.14 1.41-3.14 3.14s1.41 3.14 3.14 3.14 3.14-1.41 3.14-3.14-1.41-3.14-3.14-3.14Z" fill="#ffb300"/>
    <path d="M378.64.35h-27.69c-10.57 0-19.16 8.6-19.16 19.16s8.6 19.16 19.16 19.16h27.69c4.7 0 8.53 3.82 8.53 8.53v16.09c0 10.57 8.6 19.16 19.16 19.16s19.16-8.6 19.16-19.16v-16.1c0-25.83-21.02-46.84-46.85-46.84Zm40.71 46.85v16.09c0 7.18-5.84 13.03-13.03 13.03s-13.03-5.84-13.03-13.03V47.2c0-8.08-6.58-14.66-14.66-14.66h-27.69c-7.18 0-13.03-5.84-13.03-13.03s5.84-13.03 13.03-13.03h27.69c22.45 0 40.71 18.26 40.71 40.71Z" fill="#ff313c"/>
    <path d="M406.32 44.13c-10.57 0-19.16 8.6-19.16 19.16v18.13c0 4.7-3.82 8.53-8.53 8.53h-27.69c-10.57 0-19.16 8.6-19.16 19.16s8.6 19.16 19.16 19.16h27.69c25.83 0 46.85-21.01 46.85-46.85V63.29c0-10.57-8.6-19.16-19.16-19.16Zm13.03 37.29c0 22.45-18.26 40.71-40.71 40.71h-27.69c-7.18 0-13.03-5.84-13.03-13.03s5.84-13.03 13.03-13.03h27.69c8.08 0 14.66-6.58 14.66-14.66V63.28c0-7.18 5.84-13.03 13.03-13.03s13.03 5.84 13.03 13.03v18.13Z" fill="#00a5a1"/>
  </g>
  <g>
    <path d="M624.58 62.12h-13.1v-6.16h13.1c5.06 0 9.66 1.96 13.1 5.16 3.79 3.52 6.16 8.54 6.16 14.11s-2.38 10.59-6.16 14.11c-3.44 3.2-8.04 5.16-13.1 5.16h-13.1v-6.16h13.1c7.22 0 13.1-5.88 13.1-13.1s-5.88-13.1-13.1-13.1ZM568.91 62.12h36.41v-6.16h-36.41c-5.06 0-9.66 1.96-13.1 5.16-3.79 3.52-6.16 8.54-6.16 14.11s2.38 10.59 6.16 14.11c3.44 3.2 8.04 5.16 13.1 5.16h36.41v-6.16h-36.41c-7.22 0-13.1-5.88-13.1-13.1s5.88-13.1 13.1-13.1Z" fill="#ff313c"/>
    <path d="M568.91 65.9c-5.14 0-9.32 4.18-9.32 9.32s4.18 9.32 9.32 9.32 9.32-4.18 9.32-9.32-4.18-9.32-9.32-9.32Zm0 12.47c-1.74 0-3.15-1.42-3.15-3.15s1.42-3.15 3.15-3.15 3.15 1.42 3.15 3.15-1.42 3.15-3.15 3.15Z" fill="#00a5a1"/>
    <path d="M624.58 65.9c-5.14 0-9.32 4.18-9.32 9.32s4.18 9.32 9.32 9.32 9.32-4.18 9.32-9.32-4.18-9.32-9.32-9.32Zm0 12.47c-1.74 0-3.15-1.42-3.15-3.15s1.42-3.15 3.15-3.15 3.15 1.42 3.15 3.15-1.41 3.15-3.15 3.15ZM596.77 10.23c-5.14 0-9.32 4.18-9.32 9.32s4.18 9.32 9.32 9.32 9.32-4.18 9.32-9.32-4.18-9.32-9.32-9.32Zm0 12.47c-1.74 0-3.15-1.42-3.15-3.15s1.42-3.15 3.15-3.15 3.15 1.42 3.15 3.15-1.41 3.15-3.15 3.15Z" fill="#ffb300"/>
    <g fill="#00a5a1">
      <path d="M568.91 128.89c10.62 0 19.26-8.64 19.26-19.26V94.49h-6.16v15.14c0 7.22-5.88 13.1-13.1 13.1s-13.1-5.88-13.1-13.1v-20.3c-3.79-3.52-6.16-8.54-6.16-14.11v34.41c0 10.62 8.64 19.26 19.26 19.26ZM582.01 47.38v8.57h6.16v-8.57c0-4.73 3.85-8.57 8.57-8.57v-6.16c-8.13 0-14.74 6.61-14.74 14.74ZM549.65 47.38v27.83c0-5.57 2.38-10.59 6.16-14.11V47.37c0-22.57 18.36-40.93 40.93-40.93V.28c-25.97 0-47.1 21.13-47.1 47.1Z"/>
    </g>
    <path d="M596.77.29h-.02c-5.04 0-9.64 1.97-13.07 5.16-3.79 3.52-6.16 8.54-6.16 14.11s2.38 10.59 6.16 14.11c3.43 3.19 8.03 5.15 13.07 5.16 4.73 0 8.57 3.85 8.57 8.57v62.24c0 10.62 8.64 19.26 19.26 19.26s19.26-8.64 19.26-19.26V47.38c0-25.96-21.12-47.08-47.07-47.1Zm40.91 60.82v48.51c0 7.22-5.88 13.1-13.1 13.1s-13.1-5.88-13.1-13.1V47.38c0-8.12-6.6-14.72-14.71-14.73-7.22 0-13.1-5.88-13.1-13.1s5.87-13.09 13.09-13.1c22.56 0 40.92 18.37 40.92 40.93v13.73Z" fill="#ffb300"/>
  </g>
  <g>
    <path d="M515.84 38.68h-55.06c-10.51 0-19.05-8.55-19.05-19.05S450.28.57 460.79.57h55.06c10.51 0 19.05 8.55 19.05 19.05s-8.55 19.05-19.05 19.05ZM460.79 6.67c-7.14 0-12.96 5.81-12.96 12.96s5.81 12.96 12.96 12.96h55.06c7.14 0 12.96-5.81 12.96-12.96S523 6.67 515.85 6.67h-55.06Z" fill="#ff313c"/>
    <path d="M515.84 127.76h-55.06c-10.51 0-19.05-8.55-19.05-19.05s8.55-19.05 19.05-19.05h55.06c10.51 0 19.05 8.55 19.05 19.05s-8.55 19.05-19.05 19.05Zm-55.06-32.01c-7.14 0-12.96 5.81-12.96 12.96s5.81 12.96 12.96 12.96h55.06c7.14 0 12.96-5.81 12.96-12.96s-5.81-12.96-12.96-12.96h-55.06Z" fill="#00a5a1"/>
    <path d="M460.79 127.76c-10.51 0-19.05-8.55-19.05-19.05V19.62c0-10.51 8.55-19.05 19.05-19.05s19.05 8.55 19.05 19.05v89.09c0 10.51-8.55 19.05-19.05 19.05Zm0-121.09c-7.14 0-12.96 5.81-12.96 12.96v89.08c0 7.14 5.81 12.96 12.96 12.96s12.96-5.81 12.96-12.96V19.62c0-7.14-5.81-12.96-12.96-12.96Z" fill="#ffb300"/>
    <path d="M494.81 83.33h-34.03c-10.51 0-19.05-8.55-19.05-19.05s8.55-19.05 19.05-19.05h34.03c10.51 0 19.05 8.55 19.05 19.05s-8.55 19.05-19.05 19.05Zm-34.03-32.01c-7.14 0-12.96 5.81-12.96 12.96s5.81 12.96 12.96 12.96h34.03c7.14 0 12.96-5.81 12.96-12.96s-5.81-12.96-12.96-12.96h-34.03Z" fill="#00a5a1"/>
    <path d="M460.79 73.49c-5.08 0-9.22-4.13-9.22-9.22s4.13-9.22 9.22-9.22 9.22 4.13 9.22 9.22-4.13 9.22-9.22 9.22Zm0-12.34c-1.72 0-3.12 1.4-3.12 3.12s1.4 3.12 3.12 3.12 3.12-1.4 3.12-3.12-1.4-3.12-3.12-3.12Z" fill="#ff313c"/>
    <path d="M460.79 28.84c-5.08 0-9.22-4.13-9.22-9.22s4.13-9.22 9.22-9.22 9.22 4.13 9.22 9.22-4.13 9.22-9.22 9.22Zm0-12.34c-1.72 0-3.12 1.4-3.12 3.12s1.4 3.12 3.12 3.12 3.12-1.4 3.12-3.12-1.4-3.12-3.12-3.12ZM460.79 117.92c-5.08 0-9.22-4.13-9.22-9.22s4.13-9.22 9.22-9.22 9.22 4.13 9.22 9.22-4.13 9.22-9.22 9.22Zm0-12.34c-1.72 0-3.12 1.4-3.12 3.12s1.4 3.12 3.12 3.12 3.12-1.4 3.12-3.12-1.4-3.12-3.12-3.12Z" fill="#ffb300"/>
  </g>
</svg>