<?xml version="1.0" encoding="UTF-8" standalone="no"?>
<svg
   id="Layer_1"
   data-name="Layer 1"
   width="64.911484"
   height="64.271011"
   viewBox="0 0 64.911482 64.271013"
   version="1.1"
   sodipodi:docname="icon_core.svg"
   inkscape:version="1.2.2 (b0a8486541, 2022-12-01)"
   xmlns:inkscape="http://www.inkscape.org/namespaces/inkscape"
   xmlns:sodipodi="http://sodipodi.sourceforge.net/DTD/sodipodi-0.dtd"
   xmlns="http://www.w3.org/2000/svg"
   xmlns:svg="http://www.w3.org/2000/svg">
  <sodipodi:namedview
     id="namedview19"
     pagecolor="#ffffff"
     bordercolor="#000000"
     borderopacity="0.25"
     inkscape:showpageshadow="2"
     inkscape:pageopacity="0.0"
     inkscape:pagecheckerboard="0"
     inkscape:deskcolor="#d1d1d1"
     showgrid="false"
     inkscape:zoom="4.654485"
     inkscape:cx="35.449679"
     inkscape:cy="28.789436"
     inkscape:window-width="1920"
     inkscape:window-height="979"
     inkscape:window-x="0"
     inkscape:window-y="0"
     inkscape:window-maximized="1"
     inkscape:current-layer="Layer_1" />
  <defs
     id="defs4">
    <style
       id="style2">.cls-1{fill:#102441;}.cls-2{fill:#fff;}</style>
  </defs>
  <g
     id="Group_27"
     data-name="Group 27"
     transform="translate(-31.680781,-55.229071)">
    <path
       id="Path_34"
       data-name="Path 34"
       class="cls-1"
       d="m 73.36,98.51 -2.19,-0.75 a 19.87,19.87 0 0 0 -0.24,-3.93 l 2.07,-1 a 4.7004494,4.7004494 0 1 0 -4.12,-8.45 l -2.07,1 a 18.26,18.26 0 0 0 -3,-2.61 l 0.71,-2.08 A 4.7036847,4.7036847 0 0 0 55.67,77.5 c 0,0 0,0.08 0,0.13 l -0.75,2.19 a 17.24,17.24 0 0 0 -3.93,0.24 L 50,78 A 4.72,4.72 0 0 0 43.71,75.83 4.65,4.65 0 0 0 41.47,82 v 0 l 0.06,0.11 1,2.07 a 20.41,20.41 0 0 0 -2.61,3 l -2.19,-0.76 a 4.71,4.71 0 0 0 -3.06,8.9 l 2.19,0.75 a 19,19 0 0 0 0.21,4 L 35,101 a 4.64,4.64 0 0 0 -2.22,6.18 v 0 l 0.06,0.11 a 4.84,4.84 0 0 0 2.69,2.38 5,5 0 0 0 3.6,-0.22 l 2.07,-1 a 17,17 0 0 0 2.95,2.61 l -0.74,2.13 a 4.7100849,4.7100849 0 0 0 8.86,3.2 c 0,0 0,-0.09 0,-0.13 l 0.74,-2.14 A 18.5,18.5 0 0 0 57,113.9 l 1,2.1 a 4.7026429,4.7026429 0 0 0 8.45,-4.13 l -1,-2.07 a 18.86,18.86 0 0 0 2.63,-3 l 2.19,0.76 a 4.71,4.71 0 0 0 3.06,-8.9 v 0 z m -21.88,5.74 a 7.84,7.84 0 1 1 10,-4.86 v 0 0.12 a 7.85,7.85 0 0 1 -9.93,4.74 z" />
    <path
       id="Path_35"
       data-name="Path 35"
       class="cls-1"
       d="M 93.77,69.14 92.22,69 a 14.22,14.22 0 0 0 -0.75,-2.54 l 1.21,-1 a 3.1665478,3.1665478 0 0 0 -4,-4.91 l -1.21,1 A 12.82,12.82 0 0 0 85.14,60.28 L 85.3,58.81 A 3.175929,3.175929 0 1 0 79,58 a 0.41,0.41 0 0 1 0,0.11 l -0.16,1.55 a 11.77,11.77 0 0 0 -2.54,0.75 l -1,-1.21 a 3.18,3.18 0 0 0 -4.45,-0.47 3.13,3.13 0 0 0 -0.52,4.39 v 0 0.06 l 1,1.21 a 13.47,13.47 0 0 0 -1.26,2.33 l -1.56,-0.16 a 3.1622658,3.1622658 0 0 0 -0.66,6.29 v 0 l 1.55,0.16 a 12.82,12.82 0 0 0 0.75,2.59 l -1.21,1 A 3.11,3.11 0 0 0 68.49,81 v 0 l 0.05,0.07 A 3.21,3.21 0 0 0 70.67,82.22 3.3,3.3 0 0 0 73,81.5 l 1.21,-1 a 11.14,11.14 0 0 0 2.33,1.26 l -0.16,1.51 a 3.1635147,3.1635147 0 1 0 6.28,0.77 c 0,0 0,-0.07 0,-0.11 l 0.16,-1.51 a 12.55,12.55 0 0 0 2.54,-0.75 l 1,1.21 a 3.1704258,3.1704258 0 0 0 4.92,-4 v 0 l -1,-1.21 a 13.16,13.16 0 0 0 1.27,-2.37 l 1.55,0.16 a 3.1622658,3.1622658 0 1 0 0.66,-6.29 z M 80.3,76.2 a 5.27,5.27 0 1 1 5.8,-4.69 v 0.09 a 5.28,5.28 0 0 1 -5.79,4.6 z" />
  </g>
</svg>
