<?xml version="1.0" encoding="UTF-8" standalone="no"?>
<svg
   id="bc3c1cd3-6b2a-4059-9646-3e00a8aa8554"
   data-name="Icon"
   viewBox="0 0 36 36"
   version="1.1"
   sodipodi:docname="calendar-cyan.svg"
   inkscape:version="1.3 (0e150ed6c4, 2023-07-21)"
   xmlns:inkscape="http://www.inkscape.org/namespaces/inkscape"
   xmlns:sodipodi="http://sodipodi.sourceforge.net/DTD/sodipodi-0.dtd"
   xmlns="http://www.w3.org/2000/svg"
   xmlns:svg="http://www.w3.org/2000/svg">
  <defs
     id="defs1" />
  <sodipodi:namedview
     id="namedview1"
     pagecolor="#ffffff"
     bordercolor="#111111"
     borderopacity="1"
     inkscape:showpageshadow="0"
     inkscape:pageopacity="0"
     inkscape:pagecheckerboard="1"
     inkscape:deskcolor="#d1d1d1"
     inkscape:zoom="18.25"
     inkscape:cx="18"
     inkscape:cy="18"
     inkscape:window-width="1920"
     inkscape:window-height="979"
     inkscape:window-x="0"
     inkscape:window-y="0"
     inkscape:window-maximized="1"
     inkscape:current-layer="bc3c1cd3-6b2a-4059-9646-3e00a8aa8554" />
  <path
     d="M31,4.38H5A.62.62,0,0,0,4.38,5V25a.76.76,0,0,0,.18.44l6,6a.67.67,0,0,0,.44.18H31a.62.62,0,0,0,.62-.62V5A.62.62,0,0,0,31,4.38Zm-.62,1.24V9.38H25.62V8a.62.62,0,0,0-1.24,0V9.38H11.62V8a.62.62,0,1,0-1.24,0V9.38H5.62V5.62Zm-20,23.87L6.51,25.62h3.87Zm1.24.89V25a.62.62,0,0,0-.62-.62H5.62V10.62h4.76V12a.62.62,0,0,0,1.24,0V10.62H24.38V12a.62.62,0,1,0,1.24,0V10.62h4.76V30.38Z"
     id="path1"
     style="fill:#004080;fill-opacity:1" />
</svg>
