<?xml version="1.0" encoding="UTF-8" standalone="no"?>
<svg
   id="aec3a132-0036-4f01-a979-aab95a3db394"
   data-name="Icon"
   viewBox="0 0 36 36"
   version="1.1"
   sodipodi:docname="cloud-automation-cyan.svg"
   inkscape:version="1.3 (0e150ed6c4, 2023-07-21)"
   xmlns:inkscape="http://www.inkscape.org/namespaces/inkscape"
   xmlns:sodipodi="http://sodipodi.sourceforge.net/DTD/sodipodi-0.dtd"
   xmlns="http://www.w3.org/2000/svg"
   xmlns:svg="http://www.w3.org/2000/svg">
  <defs
     id="defs2" />
  <sodipodi:namedview
     id="namedview2"
     pagecolor="#ffffff"
     bordercolor="#111111"
     borderopacity="1"
     inkscape:showpageshadow="0"
     inkscape:pageopacity="0"
     inkscape:pagecheckerboard="1"
     inkscape:deskcolor="#d1d1d1"
     inkscape:zoom="18.25"
     inkscape:cx="18"
     inkscape:cy="18"
     inkscape:window-width="1920"
     inkscape:window-height="979"
     inkscape:window-x="0"
     inkscape:window-y="0"
     inkscape:window-maximized="1"
     inkscape:current-layer="aec3a132-0036-4f01-a979-aab95a3db394" />
  <path
     d="M28.62,15.52c-.05-9.6-12.95-12.64-17.28-4.09a7.12,7.12,0,1,0-.84,14.19H11a.62.62,0,0,0,0-1.24h-.5C2,23.92,3.15,11.59,11.59,12.73a.64.64,0,0,0,.69-.36c3.59-8,15.4-5.21,15.08,3.52V16a.63.63,0,0,0,.56.66,3.87,3.87,0,0,1-.41,7.71H27a.62.62,0,0,0,0,1.24h.5A5.12,5.12,0,0,0,28.62,15.52Z"
     id="path1"
     style="fill:#004080;fill-opacity:1" />
  <path
     d="M24,24.38H22.9a4,4,0,0,0-.7-1.69l.78-.78a.63.63,0,0,0-.89-.89l-.78.78a4,4,0,0,0-1.69-.69V20a.62.62,0,0,0-1.24,0v1.11a4,4,0,0,0-1.69.69L15.91,21a.63.63,0,0,0-.89.89l.78.78a4,4,0,0,0-.7,1.69H14a.62.62,0,0,0,0,1.24h1.1a4,4,0,0,0,.7,1.69l-.78.78a.63.63,0,0,0,.89.89l.78-.78a4,4,0,0,0,1.69.69V30a.62.62,0,0,0,1.24,0V28.89a4,4,0,0,0,1.69-.69l.78.78a.63.63,0,0,0,.89-.89l-.78-.78a4,4,0,0,0,.7-1.69H24A.62.62,0,0,0,24,24.38Zm-5,3.33a2.71,2.71,0,0,1,0-5.42A2.71,2.71,0,0,1,19,27.71Z"
     id="path2"
     style="fill:#004080;fill-opacity:1" />
</svg>
