<?xml version="1.0" encoding="UTF-8" standalone="no"?>
<svg
   id="a9d42e01-d00a-4273-bbb2-e2a9cab75860"
   data-name="Icon"
   viewBox="0 0 36 36"
   version="1.1"
   sodipodi:docname="collaboration-cyan.svg"
   inkscape:version="1.3 (0e150ed6c4, 2023-07-21)"
   xmlns:inkscape="http://www.inkscape.org/namespaces/inkscape"
   xmlns:sodipodi="http://sodipodi.sourceforge.net/DTD/sodipodi-0.dtd"
   xmlns="http://www.w3.org/2000/svg"
   xmlns:svg="http://www.w3.org/2000/svg">
  <defs
     id="defs3" />
  <sodipodi:namedview
     id="namedview3"
     pagecolor="#ffffff"
     bordercolor="#111111"
     borderopacity="1"
     inkscape:showpageshadow="0"
     inkscape:pageopacity="0"
     inkscape:pagecheckerboard="1"
     inkscape:deskcolor="#d1d1d1"
     inkscape:zoom="18.25"
     inkscape:cx="18"
     inkscape:cy="18"
     inkscape:window-width="1920"
     inkscape:window-height="979"
     inkscape:window-x="0"
     inkscape:window-y="0"
     inkscape:window-maximized="1"
     inkscape:current-layer="a9d42e01-d00a-4273-bbb2-e2a9cab75860" />
  <g
     id="g3"
     style="fill:#004080;fill-opacity:1">
    <path
       d="M13.29,22.79a3.61,3.61,0,1,0-4.58,0A6.64,6.64,0,0,0,4.37,29a.63.63,0,0,0,.63.62H17a.62.62,0,0,0,.62-.62A6.63,6.63,0,0,0,13.29,22.79ZM8.62,20a2.38,2.38,0,0,1,4.75,0A2.38,2.38,0,0,1,8.62,20Zm-3,8.38a5.38,5.38,0,0,1,10.68,0Z"
       id="path1"
       style="fill:#004080;fill-opacity:1" />
    <path
       d="M27.29,22.79a3.61,3.61,0,1,0-4.58,0A6.64,6.64,0,0,0,18.37,29a.63.63,0,0,0,.63.62H31a.62.62,0,0,0,.62-.62A6.63,6.63,0,0,0,27.29,22.79ZM22.62,20a2.38,2.38,0,0,1,4.75,0A2.38,2.38,0,0,1,22.62,20Zm-3,8.38a5.38,5.38,0,0,1,10.68,0Z"
       id="path2"
       style="fill:#004080;fill-opacity:1" />
    <path
       d="M31,6.38H5A.63.63,0,0,0,4.37,7v6a.63.63,0,0,0,.63.62H8.74c2.73,2.67,1.79,2.66,4.52,0h9.48c2.73,2.67,1.8,2.66,4.52,0H31a.62.62,0,0,0,.62-.62V7A.62.62,0,0,0,31,6.38Zm-.63,6H27a.6.6,0,0,0-.44.18L25,14.12c-.55-.48-1.63-1.84-2-1.75H13c-.4-.08-1.38,1.19-2,1.74L9.44,12.56A.6.6,0,0,0,9,12.38H5.62V7.62H30.37Z"
       id="path3"
       style="fill:#004080;fill-opacity:1" />
  </g>
</svg>
