<?xml version="1.0" encoding="UTF-8" standalone="no"?>
<svg
   id="af6f4e5c-4205-43ce-8998-c06f61e962b3"
   data-name="Icon"
   viewBox="0 0 36 36"
   version="1.1"
   sodipodi:docname="communities-cyan.svg"
   inkscape:version="1.3 (0e150ed6c4, 2023-07-21)"
   xmlns:inkscape="http://www.inkscape.org/namespaces/inkscape"
   xmlns:sodipodi="http://sodipodi.sourceforge.net/DTD/sodipodi-0.dtd"
   xmlns="http://www.w3.org/2000/svg"
   xmlns:svg="http://www.w3.org/2000/svg">
  <defs
     id="defs6" />
  <sodipodi:namedview
     id="namedview6"
     pagecolor="#ffffff"
     bordercolor="#111111"
     borderopacity="1"
     inkscape:showpageshadow="0"
     inkscape:pageopacity="0"
     inkscape:pagecheckerboard="1"
     inkscape:deskcolor="#d1d1d1"
     inkscape:zoom="18.25"
     inkscape:cx="18"
     inkscape:cy="18"
     inkscape:window-width="1920"
     inkscape:window-height="979"
     inkscape:window-x="0"
     inkscape:window-y="0"
     inkscape:window-maximized="1"
     inkscape:current-layer="af6f4e5c-4205-43ce-8998-c06f61e962b3" />
  <g
     id="g6"
     style="fill:#004080;fill-opacity:1">
    <path
       d="M21.69,17.07a6.48,6.48,0,0,0,6.47-6.48c-.27-8.56-12.7-8.54-12.95,0A6.48,6.48,0,0,0,21.69,17.07ZM18.55,6.41a5.23,5.23,0,1,1,3.14,9.41A5.26,5.26,0,0,1,18.55,6.41Z"
       id="path1"
       style="fill:#004080;fill-opacity:1" />
    <path
       d="M9.85,12.72A6.5,6.5,0,0,0,3.38,19.2c.3,8.57,12.64,8.57,13,0A6.49,6.49,0,0,0,9.85,12.72Zm0,11.71C2.94,24.2,3,14.18,9.85,14,16.76,14.19,16.76,24.21,9.85,24.43Z"
       id="path2"
       style="fill:#004080;fill-opacity:1" />
    <path
       d="M23.21,18.67a6.5,6.5,0,0,0-6.47,6.48c.3,8.57,12.64,8.57,13,0A6.49,6.49,0,0,0,23.21,18.67Zm0,11.71c-6.91-.23-6.9-10.25,0-10.46C30.12,20.14,30.12,30.16,23.21,30.38Z"
       id="path3"
       style="fill:#004080;fill-opacity:1" />
    <path
       d="M31.1,14.63A2.58,2.58,0,0,0,29,19.34,2.58,2.58,0,0,0,31.1,14.63Zm.16,2.9a1.33,1.33,0,0,1-2.42-1.08A1.33,1.33,0,0,1,31.26,17.53Z"
       id="path4"
       style="fill:#004080;fill-opacity:1" />
    <path
       d="M10.29,11a2.58,2.58,0,0,0,2.1-4.71A2.58,2.58,0,0,0,10.29,11Zm-.16-2.89A1.33,1.33,0,0,1,12.55,9.2,1.33,1.33,0,0,1,10.13,8.12Z"
       id="path5"
       style="fill:#004080;fill-opacity:1" />
    <path
       d="M14.6,26.5a2.58,2.58,0,0,0-2.09,4.71A2.58,2.58,0,0,0,14.6,26.5Zm.17,2.9a1.33,1.33,0,0,1-2.42-1.08A1.33,1.33,0,0,1,14.77,29.4Z"
       id="path6"
       style="fill:#004080;fill-opacity:1" />
  </g>
</svg>
