<?xml version="1.0" encoding="UTF-8" standalone="no"?>
<svg
   id="Layer_1"
   data-name="Layer 1"
   width="65.879997"
   height="65.879997"
   viewBox="0 0 65.879999 65.879999"
   version="1.1"
   sodipodi:docname="icon_collections.svg"
   inkscape:version="1.2.2 (b0a8486541, 2022-12-01)"
   xmlns:inkscape="http://www.inkscape.org/namespaces/inkscape"
   xmlns:sodipodi="http://sodipodi.sourceforge.net/DTD/sodipodi-0.dtd"
   xmlns="http://www.w3.org/2000/svg"
   xmlns:svg="http://www.w3.org/2000/svg">
  <sodipodi:namedview
     id="namedview19"
     pagecolor="#ffffff"
     bordercolor="#000000"
     borderopacity="0.25"
     inkscape:showpageshadow="2"
     inkscape:pageopacity="0.0"
     inkscape:pagecheckerboard="0"
     inkscape:deskcolor="#d1d1d1"
     showgrid="false"
     inkscape:zoom="4.6522697"
     inkscape:cx="33.961917"
     inkscape:cy="29.877889"
     inkscape:window-width="1920"
     inkscape:window-height="979"
     inkscape:window-x="0"
     inkscape:window-y="0"
     inkscape:window-maximized="1"
     inkscape:current-layer="Layer_1" />
  <defs
     id="defs4">
    <style
       id="style2">.cls-1{fill:#102441;}.cls-2{fill:#fff;}</style>
  </defs>
  <g
     id="Group_28"
     data-name="Group 28"
     transform="translate(-33.120029,-54.184059)">
    <path
       id="Path_36"
       data-name="Path 36"
       class="cls-1"
       d="M 89.29,63.77 A 32.94,32.94 0 1 0 99,87.08 32.93,32.93 0 0 0 89.29,63.77 Z M 36.86,87.08 a 29,29 0 0 1 0.46,-5 29.08,29.08 0 0 1 40.12,0.24 1.9412689,1.9412689 0 0 0 2.7,-2.79 v 0 A 33,33 0 0 0 41.9,74.08 c -0.93,0.49 -1.84,1 -2.72,1.6 a 29.11,29.11 0 0 1 32.6,-17.12 c -0.8,0.34 -1.59,0.68 -2.37,1.09 a 33,33 0 0 0 -6,4.05 1.9557671,1.9557671 0 0 0 2.51,3 28.54,28.54 0 0 1 12.08,-6.11 29.11,29.11 0 0 1 8.57,5.91 c 0.09,0.58 0.19,1.16 0.25,1.75 a 29.15,29.15 0 0 1 -47.66,25 C 38.51,92.7 37.89,92.12 37.28,91.51 a 28.47,28.47 0 0 1 -0.42,-4.43 z m 52.45,8.42 a 1.9403157,1.9403157 0 1 0 -3.77,0.92 28.92,28.92 0 0 1 0.4,11.79 29.09,29.09 0 0 1 -13.27,7.18 29.21,29.21 0 0 1 -9.67,-7.16 1.9589793,1.9589793 0 0 0 -3,2.52 l 0.07,0.07 a 32.67,32.67 0 0 0 6.18,5.37 H 66 A 29.11,29.11 0 0 1 39,98 a 33.14,33.14 0 0 0 13.85,5.48 32.56,32.56 0 0 0 12.78,-0.58 33,33 0 0 0 25.1,-31.07 28.9,28.9 0 0 1 -0.52,31.28 32.78,32.78 0 0 0 -0.9,-7.61 z" />
    <path
       id="Path_37"
       data-name="Path 37"
       class="cls-1"
       d="m 52.83,95.36 a 1.91,1.91 0 0 0 1.25,0.46 h 0.16 a 0.3,0.3 0 0 0 0.16,0 1.94,1.94 0 0 0 1.6,-2.24 v 0 a 28.64,28.64 0 0 1 -0.32,-6.41 29.11,29.11 0 0 1 1.09,-6.35 1.95,1.95 0 0 0 -3.71,-1.17 v 0.08 a 33.34,33.34 0 0 0 -0.87,14.46 1.91,1.91 0 0 0 0.64,1.17 z" />
  </g>
</svg>
