<?xml version="1.0" encoding="UTF-8" standalone="no"?>
<svg
   id="b78b51e8-c7cb-48a0-964e-61a9fa1f2f61"
   data-name="Layer 1"
   viewBox="0 0 36 36"
   version="1.1"
   sodipodi:docname="extensible-cyan.svg"
   inkscape:version="1.3 (0e150ed6c4, 2023-07-21)"
   xmlns:inkscape="http://www.inkscape.org/namespaces/inkscape"
   xmlns:sodipodi="http://sodipodi.sourceforge.net/DTD/sodipodi-0.dtd"
   xmlns="http://www.w3.org/2000/svg"
   xmlns:svg="http://www.w3.org/2000/svg">
  <defs
     id="defs1" />
  <sodipodi:namedview
     id="namedview1"
     pagecolor="#ffffff"
     bordercolor="#111111"
     borderopacity="1"
     inkscape:showpageshadow="0"
     inkscape:pageopacity="0"
     inkscape:pagecheckerboard="1"
     inkscape:deskcolor="#d1d1d1"
     inkscape:zoom="18.25"
     inkscape:cx="18"
     inkscape:cy="18"
     inkscape:window-width="1920"
     inkscape:window-height="979"
     inkscape:window-x="0"
     inkscape:window-y="0"
     inkscape:window-maximized="1"
     inkscape:current-layer="b78b51e8-c7cb-48a0-964e-61a9fa1f2f61" />
  <path
     d="M15,23.38a.62.62,0,0,0,0,1.24A.62.62,0,0,0,15,23.38Zm0-12a.62.62,0,0,0,0,1.24A.62.62,0,0,0,15,11.38Zm3,12a.62.62,0,0,0,0,1.24A.62.62,0,0,0,18,23.38ZM12.44,11.56c-.57-.56-1.47.3-.88.88S13,12.12,12.44,11.56ZM12,20.37a.63.63,0,0,0,0,1.25A.63.63,0,0,0,12,20.37Zm0-3a.62.62,0,0,0,0,1.24A.62.62,0,0,0,12,17.38Zm0-3a.63.63,0,0,0,0,1.25A.63.63,0,0,0,12,14.38Zm6-3a.62.62,0,0,0,0,1.24A.62.62,0,0,0,18,11.38Zm3,12a.62.62,0,0,0,0,1.24A.62.62,0,0,0,21,23.38ZM23.37,15a.63.63,0,0,0,1.26,0A.63.63,0,0,0,23.37,15ZM31,11.38H24.62V5a.63.63,0,0,0-.18-.44A.59.59,0,0,0,24,4.38H5A.61.61,0,0,0,4.38,5V24a.63.63,0,0,0,.18.44.59.59,0,0,0,.44.18h6.38V31a.63.63,0,0,0,.62.63H31a.61.61,0,0,0,.62-.62c0-4.73,0-14.27,0-19A.61.61,0,0,0,31,11.38Zm-.62,19H12.62c0-1.59,0-4.77,0-6.36a.46.46,0,0,0-.09-.34.6.6,0,0,0-.53-.3H5.62V5.62H23.38c0,1.59,0,4.77,0,6.36a.54.54,0,0,0,.17.44.62.62,0,0,0,.47.21h6.36ZM24,17.37a.63.63,0,0,0,0,1.25A.63.63,0,0,0,24,17.37Zm-3-6a.62.62,0,0,0,0,1.24A.62.62,0,0,0,21,11.38Zm3,9a.62.62,0,0,0,0,1.24A.62.62,0,0,0,24,20.38Zm-.44,3.18a.62.62,0,0,0,.88.88A.62.62,0,0,0,23.56,23.56Z"
     id="path1"
     style="fill:#004080;fill-opacity:1" />
</svg>
