<?xml version="1.0" encoding="UTF-8" standalone="no"?>
<svg
   id="Layer_1"
   data-name="Layer 1"
   width="57.582756"
   height="79.150002"
   viewBox="0 0 57.582756 79.15"
   version="1.1"
   sodipodi:docname="icon_automation.svg"
   inkscape:version="1.2.2 (b0a8486541, 2022-12-01)"
   xmlns:inkscape="http://www.inkscape.org/namespaces/inkscape"
   xmlns:sodipodi="http://sodipodi.sourceforge.net/DTD/sodipodi-0.dtd"
   xmlns="http://www.w3.org/2000/svg"
   xmlns:svg="http://www.w3.org/2000/svg">
  <sodipodi:namedview
     id="namedview23"
     pagecolor="#ffffff"
     bordercolor="#000000"
     borderopacity="0.25"
     inkscape:showpageshadow="2"
     inkscape:pageopacity="0.0"
     inkscape:pagecheckerboard="0"
     inkscape:deskcolor="#d1d1d1"
     showgrid="false"
     inkscape:zoom="4.6464646"
     inkscape:cx="28.408696"
     inkscape:cy="38.954349"
     inkscape:window-width="1920"
     inkscape:window-height="979"
     inkscape:window-x="0"
     inkscape:window-y="0"
     inkscape:window-maximized="1"
     inkscape:current-layer="Layer_1" />
  <defs
     id="defs4">
    <style
       id="style2">.cls-1{fill:#5cbec1;}.cls-2{fill:#fff;}</style>
  </defs>
  <g
     id="Group_26"
     data-name="Group 26"
     transform="translate(-38.679805,-45.25)">
    <path
       id="Path_29"
       data-name="Path 29"
       class="cls-1"
       d="M 59.64,45.25 H 41 a 2.36,2.36 0 0 0 -2.32,2.39 v 0 18.63 A 2.32,2.32 0 0 0 41,68.59 H 59.64 A 2.33,2.33 0 0 0 62,66.27 v 0 -18.63 a 2.37,2.37 0 0 0 -2.33,-2.39 z m -2.33,18.63 h -14 v -14 h 14 z" />
    <path
       id="Path_30"
       data-name="Path 30"
       class="cls-1"
       d="M 59.64,73.19 H 41 a 2.35,2.35 0 0 0 -2.32,2.32 V 94.14 A 2.34,2.34 0 0 0 41,96.47 H 59.64 A 2.34,2.34 0 0 0 62,94.14 V 75.58 a 2.36,2.36 0 0 0 -2.33,-2.39 z m -2.33,18.62 h -14 v -14 h 14 z" />
    <rect
       id="Rectangle_22"
       data-name="Rectangle 22"
       class="cls-1"
       x="38.689999"
       y="101.12"
       width="23.280001"
       height="23.280001"
       rx="2.0899999" />
    <path
       id="Path_31"
       data-name="Path 31"
       class="cls-1"
       d="m 84.47,101.19 a 2.35,2.35 0 0 0 -2.33,2.35 6.9,6.9 0 0 1 -6.88,6.9 h -0.78 l 2.23,-2.24 a 2.33,2.33 0 0 0 -3.29,-3.29 l -6.21,6.21 a 2.55,2.55 0 0 0 -0.46,0.71 0.81,0.81 0 0 0 0,0.22 1.94,1.94 0 0 0 0,0.59 v 0.22 a 1.84,1.84 0 0 0 0,0.74 v 0 a 1.79,1.79 0 0 0 0.43,0.68 v 0 l 6.21,6.21 a 2.33,2.33 0 0 0 3.29,-3.29 L 74.45,115 h 0.71 A 11.59,11.59 0 0 0 86.8,103.51 v 0 a 2.28,2.28 0 0 0 -2.26,-2.32 z" />
    <path
       id="Path_32"
       data-name="Path 32"
       class="cls-1"
       d="m 69,59.22 h 6.2 a 6.92,6.92 0 0 1 7,6.86 v 0.19 a 2.3,2.3 0 0 0 2.3,2.3 v 0 A 2.36,2.36 0 0 0 86.83,66.21 11.57,11.57 0 0 0 75.28,54.57 H 69 a 2.33,2.33 0 1 0 0,4.65 z" />
    <path
       id="Path_33"
       data-name="Path 33"
       class="cls-1"
       d="M 93.78,82.5 H 92.63 A 10.48,10.48 0 0 0 91.89,80.7 L 92.7,79.89 A 2.33,2.33 0 0 0 89.41,76.6 l -0.81,0.81 a 9.77,9.77 0 0 0 -1.8,-0.75 v -1.08 a 2.33,2.33 0 1 0 -4.66,0 v 1.14 a 8.35,8.35 0 0 0 -1.8,0.75 l -0.81,-0.81 a 2.33,2.33 0 0 0 -3.33,3.25 v 0 l 0.81,0.81 a 8.85,8.85 0 0 0 -0.74,1.8 h -1.11 a 2.33,2.33 0 1 0 0,4.65 h 1.15 A 9.11,9.11 0 0 0 77.05,89 l -0.81,0.81 a 2.31,2.31 0 0 0 0,3.25 v 0 a 2.36,2.36 0 0 0 1.65,0.68 2.4,2.4 0 0 0 1.64,-0.68 l 0.81,-0.81 a 8.35,8.35 0 0 0 1.8,0.75 v 1.2 a 2.33,2.33 0 0 0 4.66,0 v -1.12 a 10.07,10.07 0 0 0 1.8,-0.75 l 0.81,0.81 a 2.3228485,2.3228485 0 1 0 3.28,-3.29 v 0 l -0.8,-0.81 a 9.11,9.11 0 0 0 0.74,-1.83 h 1.15 a 2.33,2.33 0 1 0 0,-4.65 v 0 z m -9.31,6.21 a 3.88,3.88 0 1 1 3.88,-3.88 v 0.06 a 3.88,3.88 0 0 1 -3.88,3.82 z" />
  </g>
</svg>
