<?xml version="1.0" encoding="UTF-8" standalone="no"?>
<svg
   id="Layer_1"
   data-name="Layer 1"
   width="72.550003"
   height="56.7304"
   viewBox="0 0 72.550002 56.730402"
   version="1.1"
   sodipodi:docname="icon_galaxy.svg"
   inkscape:version="1.2.2 (b0a8486541, 2022-12-01)"
   xmlns:inkscape="http://www.inkscape.org/namespaces/inkscape"
   xmlns:sodipodi="http://sodipodi.sourceforge.net/DTD/sodipodi-0.dtd"
   xmlns="http://www.w3.org/2000/svg"
   xmlns:svg="http://www.w3.org/2000/svg">
  <sodipodi:namedview
     id="namedview25"
     pagecolor="#ffffff"
     bordercolor="#000000"
     borderopacity="0.25"
     inkscape:showpageshadow="2"
     inkscape:pageopacity="0.0"
     inkscape:pagecheckerboard="0"
     inkscape:deskcolor="#d1d1d1"
     showgrid="false"
     inkscape:zoom="4.6536541"
     inkscape:cx="36.100664"
     inkscape:cy="24.496879"
     inkscape:window-width="1920"
     inkscape:window-height="979"
     inkscape:window-x="0"
     inkscape:window-y="0"
     inkscape:window-maximized="1"
     inkscape:current-layer="Layer_1" />
  <defs
     id="defs4">
    <style
       id="style2">.cls-1{fill:#5cbec1;}.cls-2{fill:#fff;}</style>
  </defs>
  <g
     id="Group_30"
     data-name="Group 30"
     transform="translate(-31,-59.529598)">
    <path
       id="Path_39"
       data-name="Path 39"
       class="cls-1"
       d="M 101.51,59.53 H 33 a 2,2 0 0 0 -2,2 v 52.73 a 2,2 0 0 0 2,2 h 68.55 a 2,2 0 0 0 2,-2 V 61.51 a 2,2 0 0 0 -2.04,-1.98 z m -2,52.73 H 34.94 V 63.48 h 64.6 z" />
    <path
       id="Path_40"
       data-name="Path 40"
       class="cls-1"
       d="m 44.75,70.82 a 1.79,1.79 0 0 0 0.63,0.42 2,2 0 0 0 2.74,-1.82 1.9,1.9 0 0 0 -0.16,-0.77 2,2 0 0 0 -3.64,0 1.94,1.94 0 0 0 0,1.53 1.85,1.85 0 0 0 0.43,0.64 z" />
    <path
       id="Path_41"
       data-name="Path 41"
       class="cls-1"
       d="m 39.48,70.82 a 1.95,1.95 0 0 0 2.16,0.42 1.7,1.7 0 0 0 0.63,-0.42 1.91,1.91 0 0 0 0.58,-1.4 1.83,1.83 0 0 0 -0.15,-0.77 2,2 0 0 0 -2.6,-1 2,2 0 0 0 -1,1 1.94,1.94 0 0 0 0,1.53 1.7,1.7 0 0 0 0.38,0.64 z" />
    <path
       id="Path_42"
       data-name="Path 42"
       class="cls-1"
       d="M 54.06,71.39 H 93.6 a 2,2 0 1 0 0,-4 H 54.06 a 2,2 0 1 0 0,4 z" />
    <path
       id="Path_43"
       data-name="Path 43"
       class="cls-1"
       d="m 41.53,82.6 v 21.09 a 2,2 0 0 0 2,2 h 23.71 a 2,2 0 0 0 2,-2 V 82.6 a 2,2 0 0 0 -2,-2 H 43.51 a 2,2 0 0 0 -1.98,2 z m 3.95,2 h 19.78 v 17.14 H 45.48 Z" />
    <path
       id="Path_44"
       data-name="Path 44"
       class="cls-1"
       d="M 91,83.26 H 74.36 a 2,2 0 1 0 0,3.95 H 91 a 2,2 0 1 0 0,-3.95 z" />
    <path
       id="Path_45"
       data-name="Path 45"
       class="cls-1"
       d="M 91,91.17 H 74.36 a 2,2 0 1 0 0,4 H 91 a 2,2 0 1 0 0,-4 z" />
    <path
       id="Path_46"
       data-name="Path 46"
       class="cls-1"
       d="m 83.85,99.08 h -9.49 a 2,2 0 1 0 0,4 h 9.49 a 2,2 0 0 0 0,-4 z" />
  </g>
</svg>
