<svg width="139" height="18" viewBox="0 0 139 18" fill="none" xmlns="http://www.w3.org/2000/svg">
<g clip-path="url(#clip0_221_6967)">
<path d="M36.7264 17.3838C36.4342 17.3838 36.1194 17.3095 35.9005 17.0118L26.5295 4.61464V17.2602H24.3926V1.68848C24.3926 1.06865 24.9026 0.572998 25.4859 0.572998C25.8255 0.572998 26.1171 0.672236 26.3349 0.96995L35.6822 13.3427V0.746529H37.8191V16.2927C37.8185 16.9375 37.3086 17.3838 36.7264 17.3838Z" fill="#4D4D4D"/>
<path d="M54.4017 17.5324C52.2654 17.5324 50.0315 17.0861 47.9437 16.2927L48.4537 14.507C50.3717 15.1268 52.4595 15.5731 54.4017 15.5731C57.097 15.5731 58.5051 14.6062 58.5051 13.2424C58.5051 12.0022 57.4124 11.3823 53.6492 9.59714C49.886 7.81194 48.4057 6.67152 48.4057 4.43948C48.4057 1.63804 50.542 0.49707 54.5715 0.49707C56.2469 0.49707 58.8204 0.844675 60.3018 1.29097L59.9616 3.12552C58.3347 2.72911 56.2954 2.45634 54.62 2.45634C51.7802 2.45634 50.6143 3.00134 50.6143 4.36573C50.6143 5.70408 51.4638 6.27457 55.4453 8.1346C59.6457 10.0933 60.7136 11.0852 60.7136 13.1182C60.7141 16.0699 57.946 17.5324 54.4017 17.5324Z" fill="#4D4D4D"/>
<path d="M70.8388 0.746582H73.0479V17.2597H70.8388V0.746582Z" fill="#4D4D4D"/>
<path d="M91.8407 9.77182H86.353V15.3758H91.8407C93.7096 15.3758 94.8508 14.1855 94.8508 12.5239C94.8508 10.9616 93.6616 9.77182 91.8407 9.77182ZM90.7717 2.63048H86.353V7.91178H90.7717C92.5442 7.91178 93.8309 6.77082 93.8309 5.18409C93.8309 3.62286 92.714 2.63048 90.7717 2.63048ZM91.8649 17.2597H85.2614C84.6296 17.2597 84.1445 16.7635 84.1445 16.1442V1.86206C84.1445 1.26663 84.6302 0.746582 85.2614 0.746582H90.7237C94.074 0.746582 96.0648 2.4076 96.0648 5.01111C96.0648 6.4243 95.2395 7.73825 93.9764 8.50721C95.8465 9.0777 97.1084 10.6395 97.1084 12.5239C97.1084 15.1518 94.9484 17.2597 91.8649 17.2597Z" fill="#4D4D4D"/>
<path d="M107.718 17.2597C107.112 17.2597 106.627 16.7391 106.627 16.1442V0.746582H108.836V15.2516H117.625V17.2597H107.718Z" fill="#4D4D4D"/>
<path d="M132.684 17.5325C128.169 17.5325 125.45 15.8466 125.45 12.4497C125.45 10.838 126.348 9.30065 128.096 8.58158C126.688 7.68898 125.96 6.42437 125.96 5.03613C125.96 1.96192 128.316 0.498291 132.734 0.498291C134.215 0.498291 136.303 0.672364 138.051 1.06932L137.808 2.90386C135.963 2.60615 134.239 2.43316 132.564 2.43316C129.699 2.43316 128.17 3.22598 128.17 5.13536C128.17 6.6478 129.578 7.83811 131.448 7.83811H135.235C135.769 7.83811 136.181 8.25946 136.181 8.78006C136.181 9.3256 135.769 9.74695 135.235 9.74695H131.157C129.019 9.74695 127.661 10.8131 127.661 12.4497C127.661 14.8547 129.87 15.5738 132.637 15.5738C134.143 15.5738 136.181 15.3759 137.832 14.9789L138.149 16.7885C136.569 17.2354 134.505 17.5325 132.684 17.5325Z" fill="#4D4D4D"/>
<path d="M7.95177 3.84354L11.8212 13.596L5.97718 8.89492L7.95177 3.84354ZM14.8254 15.8427L8.87464 1.21509C8.70484 0.793734 8.36469 0.570312 7.95177 0.570312C7.53885 0.570312 7.17498 0.793734 7.00518 1.21509L0.472816 17.2597H2.70723L5.29365 10.6449L13.0093 17.0118C13.3198 17.2678 13.5435 17.3838 13.8351 17.3838C14.4173 17.3838 14.9272 16.9375 14.9272 16.2933C14.9272 16.1881 14.8906 16.0222 14.8254 15.8427Z" fill="#4D4D4D"/>
</g>
<defs>
<clipPath id="clip0_221_6967">
<rect width="138" height="17.9084" fill="white" transform="translate(0.330505 0.0915527)"/>
</clipPath>
</defs>
</svg>
