<svg width="458" height="274" viewBox="0 0 458 274" fill="none" xmlns="http://www.w3.org/2000/svg">
<mask id="mask0_209_4486" style="mask-type:luminance" maskUnits="userSpaceOnUse" x="0" y="0" width="458" height="274">
<path d="M457.661 0.299438H0V273.701H457.661V0.299438Z" fill="white"/>
</mask>
<g mask="url(#mask0_209_4486)">
<mask id="mask1_209_4486" style="mask-type:luminance" maskUnits="userSpaceOnUse" x="0" y="0" width="458" height="274">
<path d="M457.661 0.299438H0V273.701H457.661V0.299438Z" fill="white"/>
</mask>
<g mask="url(#mask1_209_4486)">
<path d="M451.252 162.193C451.252 162.907 450.673 163.486 449.959 163.486C449.245 163.486 448.666 162.907 448.666 162.193C448.666 161.479 449.245 160.9 449.959 160.9C450.673 160.9 451.252 161.479 451.252 162.193Z" fill="#3B5744"/>
<path d="M451.252 166.772C451.252 167.486 450.673 168.065 449.959 168.065C449.245 168.065 448.666 167.486 448.666 166.772C448.666 166.058 449.245 165.479 449.959 165.479C450.673 165.479 451.252 166.058 451.252 166.772Z" fill="#3B5744"/>
<path d="M451.252 171.349C451.252 172.063 450.673 172.642 449.959 172.642C449.245 172.642 448.666 172.063 448.666 171.349C448.666 170.635 449.245 170.056 449.959 170.056C450.673 170.056 451.252 170.635 451.252 171.349Z" fill="#3B5744"/>
<path d="M100.656 143.357C100.656 83.6575 167.173 60.3875 282.109 60.3875C386.703 60.3875 404.958 105.202 404.958 143.279C404.958 186.349 332.878 258.999 255.941 258.999C193.89 258.999 100.656 214.105 100.656 143.357Z" fill="#ED9491"/>
<path d="M317.836 229.852H210.447V232.179H317.836V229.852Z" fill="#6A0000"/>
<path d="M331.861 219.371L331.937 224.087L317.837 232.178V229.852L331.861 219.371Z" fill="#F15B55"/>
<path d="M224.074 219.371H331.86L317.836 229.852H210.447L224.074 219.371Z" fill="#FDDEE0"/>
<path d="M170.617 181.346H123.288C119.601 181.342 116.614 178.354 116.61 174.667V129.427H98.321C94.635 129.423 91.647 126.436 91.643 122.75V83.8104C91.647 80.1244 94.635 77.1364 98.321 77.1324H170.621C174.307 77.1364 177.295 80.1244 177.299 83.8104V110.952H195.373C198.869 110.948 201.702 108.115 201.706 104.619V70.6005C201.71 66.9145 204.698 63.9265 208.384 63.9225H240.184C243.87 63.9265 246.858 66.9145 246.862 70.6005V106.656C246.866 110.152 249.7 112.985 253.196 112.989H288.296C291.982 112.994 294.97 115.981 294.974 119.667V138.558C294.97 142.244 291.982 145.232 288.296 145.236H233.15C229.463 145.232 226.475 142.245 226.471 138.558V135.758C226.467 132.262 223.634 129.43 220.138 129.426H177.296V174.665C177.292 178.352 174.305 181.34 170.618 181.344M116.956 129.426V174.665C116.96 178.161 119.793 180.994 123.289 180.998H170.618C174.114 180.994 176.947 178.161 176.951 174.665V129.426H116.956ZM177.297 129.08H220.139C223.825 129.084 226.813 132.072 226.817 135.758V138.558C226.821 142.054 229.655 144.887 233.151 144.891H288.29C291.786 144.887 294.62 142.054 294.624 138.558V119.668C294.62 116.172 291.786 113.339 288.29 113.335H253.19C249.503 113.331 246.515 110.344 246.511 106.657V70.6005C246.507 67.1045 243.673 64.2715 240.177 64.2675H208.377C204.881 64.2715 202.048 67.1045 202.044 70.6005V104.619C202.04 108.306 199.053 111.293 195.366 111.297H177.296L177.297 129.08ZM116.956 129.08H176.956V111.297H123.288C119.792 111.301 116.959 114.134 116.955 117.63L116.956 129.08ZM98.323 77.4745C94.827 77.4785 91.994 80.3115 91.99 83.8075V122.746C91.994 126.242 94.827 129.075 98.323 129.079H116.611V117.63C116.615 113.944 119.603 110.957 123.289 110.953H176.951V83.8104C176.947 80.3144 174.114 77.4814 170.618 77.4774L98.323 77.4745Z" fill="#EE0000"/>
<path d="M335.049 56.9265C331.75 56.9265 329.076 54.2525 329.076 50.9535C329.076 47.6545 331.75 44.9805 335.049 44.9805C338.347 44.9805 341.021 47.6545 341.022 50.9525C341.019 54.2505 338.347 56.9225 335.049 56.9265ZM335.049 45.3265C331.941 45.3265 329.421 47.8465 329.421 50.9545C329.421 54.0625 331.941 56.5825 335.049 56.5825C338.157 56.5825 340.677 54.0625 340.677 50.9545C340.673 47.8475 338.156 45.3305 335.049 45.3265Z" fill="#EE0000"/>
<path d="M134.294 273.7C130.02 273.7 126.555 270.235 126.555 265.961C126.555 261.687 130.02 258.222 134.294 258.222C138.568 258.222 142.033 261.687 142.033 265.961C142.028 270.233 138.566 273.695 134.294 273.7ZM134.294 258.568C130.21 258.567 126.9 261.877 126.899 265.961C126.898 270.045 130.208 273.355 134.292 273.356C138.376 273.357 141.686 270.047 141.687 265.963V265.961C141.683 261.88 138.375 258.572 134.294 258.568Z" fill="#EE0000"/>
<path d="M275.44 201.717H195.799V201.372H275.44C278.936 201.368 281.769 198.535 281.773 195.039V167.425C281.777 163.738 284.765 160.751 288.452 160.747H308.272C311.768 160.743 314.601 157.91 314.605 154.414V81.6255H314.95V154.412C314.946 158.098 311.958 161.086 308.272 161.09H288.45C284.954 161.094 282.121 163.927 282.117 167.423V195.035C282.113 198.721 279.125 201.71 275.439 201.714" fill="#EE0000"/>
<path d="M96.686 83.9595C95.668 83.9595 94.842 83.1335 94.842 82.1155C94.842 81.0975 95.668 80.2715 96.686 80.2715C97.704 80.2715 98.53 81.0975 98.53 82.1155C98.529 83.1335 97.704 83.9585 96.686 83.9595ZM96.686 80.6165C95.858 80.6165 95.186 81.2885 95.186 82.1165C95.186 82.9445 95.858 83.6165 96.686 83.6165C97.514 83.6165 98.186 82.9445 98.186 82.1165C98.186 81.2875 97.514 80.6165 96.686 80.6165Z" fill="#EE0000"/>
<path d="M121.549 118.954C120.531 118.954 119.705 118.128 119.705 117.11C119.705 116.092 120.531 115.266 121.549 115.266C122.567 115.266 123.393 116.092 123.393 117.11C123.392 118.128 122.567 118.953 121.549 118.954ZM121.549 115.611C120.721 115.611 120.049 116.283 120.049 117.111C120.049 117.939 120.721 118.611 121.549 118.611C122.377 118.611 123.049 117.939 123.049 117.111C123.049 116.283 122.377 115.611 121.549 115.611Z" fill="#EE0000"/>
<path d="M251.919 110.127C250.901 110.127 250.075 109.301 250.075 108.283C250.075 107.265 250.901 106.439 251.919 106.439C252.937 106.439 253.763 107.265 253.763 108.283C253.762 109.301 252.937 110.126 251.919 110.127ZM251.919 106.784C251.091 106.784 250.419 107.456 250.419 108.284C250.419 109.112 251.091 109.784 251.919 109.784C252.747 109.784 253.419 109.112 253.419 108.284C253.419 107.456 252.747 106.784 251.919 106.784Z" fill="#EE0000"/>
<path d="M289.526 120.574C288.508 120.574 287.682 119.748 287.682 118.73C287.682 117.712 288.508 116.886 289.526 116.886C290.544 116.886 291.37 117.712 291.37 118.73C291.369 119.748 290.544 120.573 289.526 120.574ZM289.526 117.231C288.698 117.231 288.026 117.903 288.026 118.731C288.026 119.559 288.698 120.231 289.526 120.231C290.354 120.231 291.026 119.559 291.026 118.731C291.026 117.903 290.354 117.231 289.526 117.231Z" fill="#EE0000"/>
<path d="M284.512 203.309C283.494 203.309 282.668 202.483 282.668 201.465C282.668 200.447 283.494 199.621 284.512 199.621C285.53 199.621 286.356 200.447 286.356 201.465C286.355 202.483 285.53 203.308 284.512 203.309ZM284.512 199.966C283.684 199.966 283.012 200.638 283.012 201.466C283.012 202.294 283.684 202.966 284.512 202.966C285.34 202.966 286.012 202.294 286.012 201.466C286.012 200.638 285.34 199.966 284.512 199.966Z" fill="#EE0000"/>
<path d="M276.573 197.982C275.555 197.983 274.729 197.156 274.728 196.138C274.727 195.12 275.553 194.294 276.571 194.293C277.589 194.292 278.415 195.118 278.416 196.136C278.415 197.154 277.59 197.981 276.573 197.982ZM276.572 194.638C275.744 194.638 275.072 195.31 275.072 196.138C275.072 196.966 275.744 197.638 276.572 197.638C277.4 197.638 278.072 196.966 278.072 196.138C278.072 195.31 277.4 194.638 276.572 194.638Z" fill="#EE0000"/>
<path d="M93.049 88.9824C93.049 89.6644 92.497 90.2164 91.815 90.2164C91.133 90.2164 90.581 89.6644 90.581 88.9824C90.581 88.3004 91.133 87.7485 91.815 87.7485C92.497 87.7485 93.049 88.3004 93.049 88.9824Z" fill="#3B5744"/>
<path d="M93.049 93.3524C93.049 94.0344 92.497 94.5864 91.815 94.5864C91.133 94.5864 90.581 94.0344 90.581 93.3524C90.581 92.6704 91.133 92.1185 91.815 92.1185C92.497 92.1185 93.049 92.6704 93.049 93.3524Z" fill="#3B5744"/>
<path d="M93.049 97.7225C93.049 98.4045 92.497 98.9564 91.815 98.9564C91.133 98.9564 90.581 98.4045 90.581 97.7225C90.581 97.0405 91.133 96.4885 91.815 96.4885C92.497 96.4885 93.049 97.0405 93.049 97.7225Z" fill="#3B5744"/>
<path d="M327.139 27.0895C327.139 27.6625 326.674 28.1274 326.101 28.1274C325.528 28.1274 325.063 27.6625 325.063 27.0895C325.063 26.5165 325.528 26.0515 326.101 26.0515C326.674 26.0515 327.139 26.5165 327.139 27.0895Z" fill="#3B5744"/>
<path d="M327.139 30.7655C327.139 31.3385 326.674 31.8035 326.101 31.8035C325.528 31.8035 325.063 31.3385 325.063 30.7655C325.063 30.1925 325.528 29.7274 326.101 29.7274C326.674 29.7274 327.139 30.1925 327.139 30.7655Z" fill="#3B5744"/>
<path d="M327.139 34.4415C327.139 35.0145 326.674 35.4795 326.101 35.4795C325.528 35.4795 325.063 35.0145 325.063 34.4415C325.063 33.8685 325.528 33.4034 326.101 33.4034C326.674 33.4034 327.139 33.8685 327.139 34.4415Z" fill="#3B5744"/>
<path d="M202.401 191.742C202.401 217.657 181.393 238.665 155.478 238.665C129.563 238.665 108.555 217.657 108.555 191.742C108.555 165.827 129.563 144.819 155.478 144.819H155.48C181.395 144.819 202.403 165.827 202.403 191.742" fill="#F15B55"/>
<path d="M155.478 210.135C145.32 210.135 137.085 201.9 137.085 191.742C137.085 181.584 145.32 173.349 155.478 173.349C165.636 173.349 173.871 181.584 173.871 191.742C173.859 201.895 165.631 210.123 155.478 210.135ZM155.478 173.924C145.637 173.924 137.66 181.901 137.66 191.742C137.66 201.583 145.637 209.56 155.478 209.56C165.319 209.56 173.296 201.583 173.296 191.742C173.285 181.906 165.314 173.935 155.478 173.924Z" fill="white"/>
<path d="M155.478 223.298C138.051 223.297 123.923 209.169 123.924 191.742C123.925 174.315 138.053 160.187 155.48 160.188C172.907 160.189 187.034 174.316 187.034 191.743C187.014 209.162 172.897 223.279 155.478 223.298ZM155.478 160.762C138.368 160.762 124.498 174.632 124.498 191.742C124.498 208.852 138.368 222.722 155.478 222.722C172.588 222.722 186.458 208.852 186.458 191.742C186.439 174.64 172.58 160.781 155.478 160.762Z" fill="white"/>
<path d="M204.676 110.268H144.975V130.744H204.676V110.268Z" fill="#E3E2E2"/>
<path d="M221.521 110.268H204.676V130.744H221.521V110.268Z" fill="#FEFFFF"/>
<path d="M236.328 110.268H221.52V130.744H236.328V110.268Z" fill="#102441"/>
<path d="M152.444 115.752H150.459V124.945H152.444V115.752Z" fill="#DB3821"/>
<path d="M156.257 115.752H154.272V124.945H156.257V115.752Z" fill="#DB3821"/>
<path d="M192.766 120.245C192.569 121.153 191.674 121.729 190.765 121.533C189.857 121.336 189.279 120.441 189.476 119.532C189.644 118.758 190.329 118.205 191.121 118.205C192.132 118.324 192.862 119.229 192.766 120.242" fill="#690000"/>
<path d="M198.303 120.245C198.106 121.153 197.211 121.729 196.302 121.533C195.394 121.336 194.816 120.441 195.013 119.532C195.181 118.758 195.866 118.205 196.658 118.205C197.669 118.324 198.399 119.229 198.303 120.242" fill="#DB3821"/>
<path d="M215.452 120.245C215.18 121.509 213.934 122.312 212.671 122.039C211.407 121.767 210.603 120.521 210.876 119.258C211.108 118.18 212.061 117.411 213.164 117.411C214.569 117.577 215.586 118.835 215.452 120.245Z" fill="#5CBEC1"/>
<path d="M204.676 130.744H144.975V151.219H204.676V130.744Z" fill="#102441"/>
<path d="M221.521 130.744H204.676V151.219H221.521V130.744Z" fill="#F15B55"/>
<path d="M236.328 130.744H221.52V151.219H236.328V130.744Z" fill="#6A0100"/>
<path d="M188.641 139.674H151.713V141.972H188.641V139.674Z" fill="#DB3821"/>
<path d="M198.303 140.719C198.108 141.628 197.212 142.206 196.304 142.01C195.396 141.814 194.817 140.919 195.013 140.011C195.18 139.235 195.865 138.682 196.659 138.682C197.669 138.801 198.399 139.706 198.303 140.719Z" fill="#DB3821"/>
<path d="M215.452 140.719C215.18 141.983 213.934 142.787 212.671 142.514C211.407 142.242 210.603 140.997 210.876 139.734C211.108 138.656 212.061 137.885 213.164 137.885C214.569 138.051 215.586 139.309 215.452 140.719Z" fill="#FEFFFF"/>
<path d="M204.676 151.219H144.975V171.693H204.676V151.219Z" fill="white"/>
<path d="M221.521 151.219H204.676V171.693H221.521V151.219Z" fill="#5CBEC1"/>
<path d="M236.328 151.219H221.52V171.693H236.328V151.219Z" fill="#102441"/>
<path d="M152.444 156.702H150.459V165.895H152.444V156.702Z" fill="#DB3821"/>
<path d="M156.257 156.702H154.272V165.895H156.257V156.702Z" fill="#DB3821"/>
<path d="M192.766 161.194C192.571 162.103 191.675 162.681 190.767 162.485C189.859 162.289 189.28 161.394 189.476 160.486C189.643 159.71 190.328 159.157 191.122 159.157C192.132 159.276 192.862 160.181 192.766 161.194Z" fill="#6A0100"/>
<path d="M198.303 161.194C198.108 162.103 197.212 162.681 196.304 162.485C195.396 162.289 194.817 161.394 195.013 160.486C195.18 159.71 195.865 159.157 196.659 159.157C197.669 159.276 198.399 160.181 198.303 161.194Z" fill="#DB3821"/>
<path d="M215.452 161.194C215.18 162.458 213.934 163.262 212.671 162.99C211.408 162.718 210.603 161.472 210.875 160.209C211.107 159.131 212.06 158.361 213.163 158.361C214.569 158.526 215.586 159.784 215.452 161.194Z" fill="#FEFFFF"/>
<path d="M204.676 171.693H144.975V192.168H204.676V171.693Z" fill="#5CBEC1"/>
<path d="M221.521 171.693H204.676V192.168H221.521V171.693Z" fill="#E3E2E2"/>
<path d="M236.328 171.693H221.52V192.168H236.328V171.693Z" fill="#3F0907"/>
<path d="M152.444 177.177H150.459V186.37H152.444V177.177Z" fill="#DB3821"/>
<path d="M156.257 177.177H154.272V186.37H156.257V177.177Z" fill="#DB3821"/>
<path d="M192.766 181.67C192.571 182.579 191.675 183.157 190.767 182.961C189.859 182.765 189.28 181.87 189.476 180.962C189.643 180.186 190.328 179.633 191.122 179.633C192.132 179.752 192.862 180.657 192.766 181.67Z" fill="#6A0100"/>
<path d="M198.303 181.67C198.108 182.579 197.212 183.157 196.304 182.961C195.396 182.765 194.817 181.87 195.013 180.962C195.18 180.186 195.865 179.633 196.659 179.633C197.669 179.752 198.399 180.657 198.303 181.67Z" fill="#DB3821"/>
<path d="M215.452 181.669C215.18 182.933 213.934 183.737 212.671 183.465C211.408 183.193 210.603 181.947 210.875 180.684C211.107 179.606 212.06 178.836 213.163 178.836C214.569 179.001 215.586 180.259 215.452 181.669Z" fill="#DB3821"/>
<path d="M204.676 192.168H144.975V212.643H204.676V192.168Z" fill="#102441"/>
<path d="M221.521 192.168H204.676V212.643H221.521V192.168Z" fill="#F15B55"/>
<path d="M236.328 192.168H221.52V212.643H236.328V192.168Z" fill="#6A0100"/>
<path d="M215.452 202.145C215.18 203.409 213.934 204.213 212.671 203.941C211.408 203.669 210.603 202.423 210.875 201.16C211.107 200.082 212.06 199.312 213.163 199.312C214.569 199.477 215.586 200.735 215.452 202.145Z" fill="#FEFFFF"/>
<path d="M188.641 201.099H151.713V203.397H188.641V201.099Z" fill="#DB3821"/>
<path d="M198.303 202.144C198.108 203.053 197.212 203.631 196.304 203.435C195.396 203.239 194.817 202.344 195.013 201.436C195.18 200.66 195.865 200.107 196.659 200.107C197.669 200.226 198.399 201.131 198.303 202.144Z" fill="#DB3821"/>
<path d="M236.328 171.657H221.52V171.729H236.328V171.657Z" fill="#6A0100"/>
<path d="M99.154 134.724C99.154 162.105 76.958 184.301 49.577 184.301C22.196 184.301 0 162.105 0 134.724C0 107.343 22.196 85.1475 49.577 85.1475C76.958 85.1475 99.154 107.343 99.154 134.724Z" fill="#F5F4F4"/>
<path d="M13.058 143.647C10.812 149.272 8.94899 155.043 7.48199 160.92C8.58599 162.69 9.801 164.388 11.118 166.006C11.399 149.881 14.906 142.313 17.477 138.652C14.371 139.743 13.901 141.621 13.058 143.647Z" fill="#B3B3B3"/>
<path d="M23.141 176.663C26.023 178.487 29.086 180.007 32.282 181.199C28.036 176.77 23.628 168.921 22.721 166.891C22.721 166.891 22.915 171.767 23.141 176.663Z" fill="#B3B3B3"/>
<path d="M89.781 163.734C88.222 158.31 84.855 152.563 84.615 151.796C84.144 149.612 83.515 147.465 82.735 145.371C80.577 140.878 76.476 137.624 71.61 136.544C68.147 135.781 64.603 135.448 61.059 135.552C58.03 135.5 43.039 132.366 39.226 132.366C36.623 132.298 34.161 133.551 32.684 135.696C32.091 136.66 31.174 137.382 30.098 137.733C27.579 137.618 25.056 137.631 22.538 137.772C20.82 137.84 19.118 138.136 17.478 138.654C14.906 142.315 11.399 149.883 11.119 166.008C14.524 170.187 18.584 173.786 23.141 176.665C22.915 171.765 22.721 166.892 22.721 166.892C23.628 168.922 28.036 176.772 32.282 181.201C46.921 186.634 63.262 184.864 76.399 176.424C76.679 171.135 77.064 161.514 77.069 161.396C77.07 161.242 77.196 161.118 77.35 161.119C77.356 161.119 77.363 161.119 77.369 161.12C77.527 161.126 77.651 161.259 77.645 161.417V161.42C77.645 161.535 77.276 170.659 76.997 176.031C81.959 172.729 86.289 168.564 89.781 163.734Z" fill="#E2E3E2"/>
<path d="M77.367 161.119C77.213 161.107 77.079 161.223 77.068 161.376C77.068 161.382 77.067 161.389 77.067 161.395C77.067 161.513 76.678 171.135 76.397 176.423C76.597 176.294 76.797 176.161 76.997 176.029C77.276 170.658 77.64 161.529 77.645 161.418C77.652 161.26 77.53 161.125 77.372 161.118H77.369" fill="#B3B3B3"/>
<path d="M39.736 135.068C38.906 134.064 38.322 132.88 38.03 131.611L37.817 132.678L49.417 160.609L55.665 144.971C46.532 144.81 42.141 138.126 39.741 135.072" fill="#7D4538"/>
<path d="M65.511 129.466C65.446 130.066 65.314 130.657 65.12 131.229C64.708 132.539 64.129 133.791 63.396 134.952C63.096 135.326 62.948 135.799 62.984 136.277C62.964 136.575 62.707 136.801 62.409 136.781C62.364 136.778 62.32 136.77 62.277 136.756C62.232 136.747 62.187 136.747 62.142 136.756C61.721 136.861 61.414 137.223 61.378 137.656C61.278 138.165 61.025 139.322 60.732 139.322C59.556 138.598 58.196 138.229 56.815 138.263C54.073 138.263 53.615 139.584 53.054 139.477C50.586 139.007 48.099 135.971 47.805 135.971C47.511 135.971 47.08 136.697 46.297 136.697C45.905 136.697 45.788 135.638 45.788 135.306C45.788 134.974 45.827 132.368 45.827 131.761C45.289 129.544 44.204 127.498 42.673 125.807C40.573 123.456 39.911 122.751 39.911 120.577C39.911 118.403 41.224 116.759 42.621 115.236C42.963 113.356 43.208 111.46 43.354 109.555C43.371 109.391 43.468 109.245 43.613 109.166C45.287 108.266 49.225 108.028 51.369 108.028C53.622 108.028 54.287 108.002 54.914 108.002C55.541 108.002 59.863 108.08 61.763 108.342C62.238 108.412 62.708 108.508 63.172 108.63C63.29 108.662 63.411 108.681 63.533 108.687C63.649 108.674 63.762 108.64 63.867 108.587C64.338 108.376 65.06 107.854 65.06 107.239C65.088 106.808 64.915 106.388 64.59 106.103C65.058 105.732 65.138 105.051 64.767 104.583C64.666 104.455 64.537 104.352 64.39 104.281C64.429 103.459 64.155 102.401 62.49 102.558C62.396 101.95 61.89 101.491 61.276 101.458C61.237 100.636 60.688 100.009 59.709 100.479C59.435 100.401 59.219 99.9704 58.964 99.8524C58.562 99.7264 58.125 99.7835 57.769 100.009C57.795 99.3965 57.319 98.8795 56.706 98.8545C56.24 98.8355 55.812 99.1084 55.634 99.5394C55.36 99.1344 54.81 99.0285 54.405 99.3025C54.361 99.3325 54.32 99.3654 54.282 99.4024C53.708 99.0534 52.975 99.1084 52.46 99.5394C52.26 98.6584 51.324 98.4815 50.384 99.1085C50.012 97.6985 48.131 97.9534 47.584 99.2264C46.977 98.4434 45.508 99.2264 45.469 99.7354C44.921 99.5784 44.569 99.8524 44.314 100.46C43.863 100.46 43.28 99.9604 42.767 100.147C41.667 100.539 41.709 101.028 41.667 101.753C39.61 102.4 36.986 103.966 36.359 106.787C35.78 109.393 34.392 112.211 35.489 120.218C37.209 120.826 38.601 122.118 39.336 123.788L40.394 131.27C39.533 131.202 38.687 131.004 37.885 130.683C37.911 130.995 37.957 131.306 38.022 131.613C38.314 132.882 38.898 134.065 39.728 135.069C42.128 138.127 46.518 144.812 55.652 144.969C55.764 144.969 55.873 144.977 55.986 144.977C58.336 144.977 62.959 144.077 62.686 140.002C63.861 138.902 63.586 137.22 64.175 136.202C64.73 135.24 66.644 131.347 65.506 129.464" fill="#000100"/>
<path d="M55.659 144.971C55.771 144.971 55.88 144.978 55.992 144.978C58.343 144.978 62.965 144.078 62.692 140.003C62.828 139.876 62.951 139.736 63.058 139.583C63.166 144.886 62.882 150.19 62.208 155.451C60.328 153.518 57.194 151.795 55.522 151.795C53.85 151.795 52.075 155.242 49.411 160.609L55.659 144.971Z" fill="#B4B3B4"/>
<path d="M39.344 123.786C38.609 122.116 37.217 120.824 35.497 120.216C35.347 120.173 35.191 120.148 35.035 120.143C34.408 120.143 33.115 121.279 33.115 123.943C33.257 126.929 35.122 129.56 37.893 130.682C38.695 131.003 39.541 131.202 40.402 131.27L39.344 123.786Z" fill="#7C4D39"/>
<path d="M48.889 161.171C48.801 161.171 48.719 161.131 48.664 161.063L42.691 153.61L34.38 157.282C34.235 157.347 34.064 157.282 34 157.136C33.991 157.116 33.985 157.095 33.98 157.074C32.647 150.204 31.67 139.909 31.886 136.942C31.904 136.784 32.047 136.67 32.205 136.687C32.354 136.704 32.465 136.834 32.46 136.984C32.25 139.867 33.186 149.783 34.477 156.61L42.66 152.995C42.779 152.943 42.918 152.977 43 153.078L49.111 160.704C49.21 160.829 49.189 161.01 49.064 161.109C49.014 161.149 48.951 161.171 48.887 161.171" fill="#B3B3B3"/>
<path d="M64.768 122.729C65.861 119.698 66.068 112.577 63.868 108.583C63.764 108.636 63.65 108.67 63.534 108.683C63.412 108.677 63.291 108.658 63.173 108.626C62.709 108.504 62.239 108.409 61.765 108.339C59.865 108.078 55.543 108 54.916 108C54.289 108 53.623 108.026 51.371 108.026C49.226 108.026 45.289 108.262 43.615 109.163C43.47 109.242 43.373 109.387 43.356 109.552C43.209 111.457 42.964 113.354 42.622 115.234C41.222 116.757 39.913 118.4 39.913 120.574C39.913 122.748 40.579 123.453 42.674 125.804C44.205 127.495 45.289 129.542 45.828 131.758C45.828 132.365 45.789 134.97 45.789 135.303C45.789 135.636 45.907 136.694 46.298 136.694C47.081 136.694 47.512 135.969 47.806 135.969C48.1 135.969 50.587 139.005 53.055 139.475C53.613 139.581 54.073 138.261 56.816 138.261C58.197 138.227 59.557 138.594 60.733 139.319C61.027 139.319 61.281 138.163 61.379 137.654C61.415 137.222 61.722 136.861 62.143 136.755C62.188 136.746 62.233 136.746 62.278 136.755C62.563 136.847 62.868 136.689 62.96 136.404C62.974 136.362 62.982 136.32 62.985 136.276C62.949 135.798 63.096 135.323 63.397 134.949C64.13 133.788 64.709 132.537 65.121 131.227C65.315 130.656 65.447 130.065 65.512 129.465C65.79 127.192 65.536 124.885 64.769 122.727" fill="#7B4D39"/>
<path d="M51.271 121.527C51.271 122.063 50.837 122.497 50.301 122.497C49.765 122.497 49.331 122.063 49.331 121.527C49.331 120.991 49.765 120.557 50.301 120.557C50.837 120.557 51.271 120.991 51.271 121.527Z" fill="#050302"/>
<path d="M62.733 121.945C62.733 122.537 62.253 123.016 61.662 123.016C61.071 123.016 60.591 122.536 60.591 121.945C60.591 121.353 61.071 120.875 61.662 120.875C62.253 120.875 62.733 121.353 62.733 121.945Z" fill="#050302"/>
<path d="M47.428 121.786C47.23 121.786 47.069 121.626 47.068 121.428C47.068 121.322 47.114 121.221 47.195 121.153C48.712 119.965 50.788 119.785 52.487 120.695C52.66 120.792 52.722 121.011 52.625 121.185C52.528 121.358 52.309 121.42 52.135 121.323C50.697 120.566 48.951 120.715 47.66 121.702C47.595 121.758 47.512 121.787 47.427 121.787" fill="#000101"/>
<path d="M58.684 122.408C58.486 122.409 58.324 122.249 58.324 122.05C58.324 121.951 58.364 121.857 58.435 121.789C59.863 120.407 62.048 120.175 63.735 121.225C63.906 121.326 63.962 121.546 63.861 121.717C63.76 121.888 63.54 121.944 63.369 121.843C63.36 121.838 63.351 121.832 63.342 121.825C61.934 120.96 60.119 121.158 58.93 122.306C58.863 122.37 58.774 122.406 58.681 122.406" fill="#000101"/>
<path d="M52.888 125.486H47.27C46.035 125.484 45.034 124.484 45.032 123.249V120.141C45.034 118.906 46.035 117.905 47.27 117.903H52.888C54.123 117.905 55.124 118.906 55.126 120.141V123.247C55.124 124.482 54.123 125.483 52.888 125.486ZM47.27 118.621C46.432 118.622 45.752 119.303 45.751 120.141V123.246C45.752 124.084 46.432 124.765 47.27 124.766H52.888C53.726 124.765 54.406 124.084 54.407 123.246V120.141C54.406 119.302 53.726 118.623 52.888 118.622L47.27 118.621Z" fill="#000101"/>
<path d="M65.032 125.642H60.067C58.832 125.64 57.831 124.639 57.829 123.404V120.298C57.831 119.063 58.832 118.062 60.067 118.06H65.032C66.267 118.062 67.268 119.063 67.27 120.298V123.404C67.268 124.639 66.267 125.64 65.032 125.642ZM60.067 118.778C59.229 118.779 58.549 119.459 58.548 120.297V123.403C58.549 124.242 59.228 124.922 60.067 124.923H65.032C65.871 124.922 66.55 124.242 66.551 123.403V120.297C66.55 119.458 65.87 118.779 65.032 118.778H60.067Z" fill="#000101"/>
<path d="M39.332 122.121C39.134 122.123 38.971 121.964 38.97 121.766C38.968 121.589 39.095 121.438 39.269 121.408L45.354 120.308C45.549 120.273 45.736 120.403 45.771 120.598C45.806 120.793 45.676 120.98 45.481 121.015L39.396 122.115C39.375 122.119 39.353 122.121 39.332 122.121Z" fill="#000101"/>
<path d="M56.795 129.495C56.023 129.48 55.255 129.373 54.507 129.179C54.389 129.16 54.309 129.05 54.328 128.933C54.347 128.815 54.458 128.734 54.575 128.753C54.586 128.755 54.596 128.757 54.607 128.761C57.075 129.361 58.089 128.939 58.474 128.636C58.699 128.474 58.834 128.213 58.836 127.935C58.81 127.407 58.565 126.915 58.16 126.575C57.125 125.5 56.608 124.028 56.744 122.542V118.625C56.736 118.506 56.826 118.404 56.945 118.396C57.064 118.388 57.167 118.477 57.175 118.596C57.176 118.606 57.176 118.616 57.175 118.625V122.542C57.045 123.922 57.523 125.29 58.483 126.289C58.958 126.708 59.242 127.302 59.268 127.935C59.264 128.343 59.069 128.727 58.741 128.97C58.169 129.358 57.483 129.542 56.794 129.491" fill="#542E1F"/>
<path d="M52.932 129.035C52.856 129.035 52.785 128.995 52.746 128.929C52.409 128.39 52.338 127.726 52.556 127.129L52.568 127.09C52.597 126.974 52.714 126.904 52.83 126.933C52.946 126.962 53.016 127.079 52.987 127.195C52.986 127.201 52.984 127.207 52.982 127.213L52.97 127.253C52.787 127.734 52.842 128.274 53.118 128.708C53.18 128.81 53.149 128.943 53.047 129.005C53.045 129.006 53.044 129.007 53.042 129.008C53.009 129.028 52.971 129.038 52.933 129.038" fill="#542E1F"/>
<path d="M48.819 133.128H48.814C48.695 133.125 48.6 133.027 48.603 132.908C48.603 132.189 48.894 131.499 49.41 130.997C49.481 130.901 49.616 130.882 49.712 130.953C49.808 131.024 49.828 131.159 49.757 131.255C49.745 131.271 49.731 131.286 49.715 131.298C49.276 131.72 49.03 132.304 49.034 132.913C49.031 133.03 48.935 133.124 48.818 133.124" fill="#542E1F"/>
<path d="M56.157 136.783C55.26 136.807 54.379 136.546 53.639 136.038C53.545 135.964 53.529 135.829 53.602 135.735C53.676 135.641 53.811 135.625 53.905 135.698L53.908 135.7C55.12 136.508 56.683 136.568 57.953 135.854C58.05 135.785 58.185 135.806 58.254 135.904C58.32 135.997 58.303 136.127 58.214 136.198C57.608 136.606 56.888 136.811 56.157 136.783Z" fill="#542E1F"/>
<path d="M50.813 132.461C51.813 133.127 56.571 135.556 60.744 133.029C59.275 133.166 59.059 132.069 56.944 132.069C55.144 132.069 52.557 132.657 50.813 132.461Z" fill="#542E1F"/>
<path d="M56.605 134.362C54.517 134.332 52.475 133.738 50.697 132.642C50.614 132.587 50.58 132.483 50.614 132.39C50.647 132.296 50.742 132.238 50.841 132.25C52.016 132.31 53.195 132.249 54.358 132.068C55.217 131.951 56.081 131.879 56.948 131.856C57.759 131.839 58.56 132.044 59.263 132.449C59.698 132.729 60.213 132.859 60.728 132.818C60.847 132.807 60.952 132.893 60.963 133.012C60.971 133.095 60.931 133.176 60.86 133.218C59.575 133.986 58.103 134.383 56.606 134.365M51.692 132.72C53.453 133.614 56.864 134.681 59.976 133.204C59.658 133.121 59.352 132.997 59.066 132.834C58.424 132.46 57.691 132.271 56.948 132.288C56.098 132.311 55.25 132.381 54.408 132.496C53.507 132.617 52.601 132.691 51.692 132.72Z" fill="#542E1F"/>
<path d="M44.507 117.465C46.18 116.349 50.263 114.701 53.077 117.059C49.958 117.236 47.828 115.817 44.507 117.465Z" fill="#000101"/>
<path d="M44.507 117.682C44.388 117.686 44.288 117.592 44.284 117.473C44.281 117.395 44.321 117.322 44.387 117.282C46.177 116.088 50.326 114.47 53.215 116.891C53.306 116.968 53.318 117.103 53.241 117.194C53.203 117.239 53.148 117.268 53.089 117.272C52.072 117.307 51.054 117.24 50.05 117.072C48.22 116.646 46.3 116.853 44.602 117.657C44.571 117.672 44.537 117.679 44.502 117.678M47.853 116.44C48.607 116.455 49.359 116.523 50.104 116.641C50.876 116.763 51.655 116.834 52.437 116.854C50.802 115.939 48.845 115.8 47.097 116.473C47.354 116.448 47.605 116.438 47.853 116.438" fill="#000101"/>
<path d="M57.819 117.162C58.402 116.021 62.129 114.828 64.589 117.261C62.307 115.689 59.366 117.617 57.819 117.162Z" fill="#000101"/>
<path d="M64.588 117.479C64.544 117.479 64.502 117.465 64.466 117.44C63.134 116.522 61.542 116.871 60.137 117.178C59.37 117.426 58.555 117.491 57.758 117.367C57.644 117.332 57.58 117.212 57.615 117.098C57.618 117.088 57.622 117.078 57.627 117.068C58.24 116.275 59.161 115.779 60.16 115.703C61.825 115.408 63.53 115.933 64.74 117.114C64.824 117.198 64.825 117.334 64.741 117.418C64.701 117.459 64.646 117.481 64.589 117.481M58.199 117.015C58.823 117.012 59.443 116.926 60.045 116.761C61.014 116.494 62.021 116.393 63.024 116.461C62.142 116.083 61.17 115.967 60.224 116.128C59.475 116.216 58.769 116.525 58.195 117.015" fill="#000101"/>
<path d="M54.767 122.33C54.747 122.33 54.727 122.329 54.707 122.325C54.511 122.292 54.379 122.108 54.412 121.913C54.519 120.95 55.21 120.153 56.149 119.912C57.075 119.741 58.009 120.168 58.485 120.981C58.595 121.147 58.551 121.371 58.385 121.481C58.219 121.591 57.995 121.548 57.885 121.382C57.569 120.818 56.935 120.511 56.297 120.611C55.649 120.793 55.18 121.353 55.116 122.023C55.087 122.196 54.937 122.324 54.762 122.324" fill="#000101"/>
<path d="M265.983 92.8234C280.976 92.8234 293.13 80.6695 293.13 65.6765C293.13 50.6835 280.976 38.5294 265.983 38.5294C259.794 38.5294 253.791 40.6444 248.968 44.5234C246.782 34.8714 237.185 28.8194 227.533 31.0054C226.203 31.3064 224.911 31.7585 223.684 32.3535C217.631 9.56647 194.251 -3.99958 171.464 2.05342C149.214 7.96342 135.658 30.4514 140.82 52.8864C140.32 52.8494 139.82 52.8244 139.314 52.8244C128.268 52.8244 119.314 61.7784 119.314 72.8244C119.314 83.8704 128.268 92.8244 139.314 92.8244L265.983 92.8234Z" fill="white"/>
<path d="M265.983 93.1105H139.314C128.111 93.1105 119.029 84.0285 119.029 72.8245C119.029 61.6205 128.111 52.5385 139.314 52.5385C139.672 52.5385 140.041 52.5505 140.455 52.5755C135.326 29.4005 149.956 6.45556 173.131 1.32656C195.503 -3.62444 217.825 9.84655 223.872 31.9466C226.261 30.8396 228.864 30.2685 231.497 30.2755C239.831 30.2775 247.099 35.9385 249.142 44.0185C261.103 34.7175 278.339 36.8745 287.639 48.8355C296.94 60.7965 294.783 78.0325 282.822 87.3325C278.008 91.0775 272.082 93.1105 265.983 93.1105ZM139.313 53.1105C128.427 53.1105 119.602 61.9354 119.602 72.8204C119.602 83.7064 128.427 92.5315 139.313 92.5315H265.983C280.817 92.5345 292.844 80.5115 292.847 65.6775C292.85 50.8435 280.827 38.8165 265.993 38.8135C259.865 38.8125 253.921 40.9066 249.148 44.7486C249.024 44.8476 248.843 44.8285 248.743 44.7035C248.716 44.6695 248.696 44.6295 248.687 44.5875C246.869 36.5555 239.732 30.8535 231.497 30.8515C228.834 30.8445 226.204 31.4464 223.809 32.6124C223.666 32.6804 223.495 32.6195 223.427 32.4755C223.42 32.4595 223.414 32.4435 223.409 32.4275C217.541 9.75751 194.406 -3.86249 171.736 2.00551C149.397 7.78851 135.784 30.3736 141.104 52.8266C141.14 52.9806 141.044 53.1356 140.889 53.1706C140.861 53.1766 140.832 53.1795 140.804 53.1775C140.242 53.1355 139.771 53.1155 139.32 53.1155" fill="#CBD8EA"/>
<path d="M148.147 93.1105C141.898 93.1695 136.785 88.1515 136.726 81.9025C136.667 75.6535 141.685 70.5405 147.934 70.4815C148.005 70.4805 148.076 70.4805 148.147 70.4815C148.306 70.4905 148.427 70.6275 148.418 70.7855C148.409 70.9315 148.293 71.0475 148.147 71.0565C142.216 70.9995 137.361 75.7605 137.303 81.6915C137.245 87.6225 142.007 92.4775 147.938 92.5355C148.007 92.5365 148.077 92.5365 148.146 92.5355C148.305 92.5265 148.441 92.6475 148.45 92.8065C148.459 92.9655 148.338 93.1015 148.179 93.1105C148.169 93.1115 148.158 93.1115 148.147 93.1105Z" fill="#CBD8EA"/>
<path d="M183.328 77.4645C183.226 77.4645 183.132 77.4115 183.08 77.3235C178.616 69.7975 181.097 60.0775 188.623 55.6135C194.87 51.9075 202.836 52.9245 207.952 58.0785C209.084 53.4545 213.749 50.6245 218.373 51.7555C220.454 52.2645 222.271 53.5315 223.469 55.3075C223.552 55.4425 223.51 55.6205 223.375 55.7035C223.247 55.7825 223.081 55.7495 222.992 55.6295C220.508 51.9475 215.509 50.9755 211.826 53.4595C210.02 54.6775 208.786 56.5765 208.405 58.7205C208.377 58.8775 208.228 58.9815 208.071 58.9535C208.01 58.9425 207.954 58.9125 207.911 58.8665C202.181 52.6795 192.52 52.3095 186.333 58.0405C181.054 62.9295 179.905 70.8404 183.575 77.0294C183.656 77.1664 183.611 77.3424 183.474 77.4244C183.43 77.4504 183.38 77.4645 183.328 77.4645Z" fill="#CBD8EA"/>
<g opacity="0.5">
<mask id="mask2_209_4486" style="mask-type:luminance" maskUnits="userSpaceOnUse" x="111" y="17" width="83" height="47">
<path d="M193.088 17.4225H111.763V63.9615H193.088V17.4225Z" fill="white"/>
</mask>
<g mask="url(#mask2_209_4486)">
<path d="M193.088 17.4225H111.763V63.9615H193.088V17.4225Z" fill="#000100"/>
</g>
</g>
<path d="M190.111 14.4454H108.786V60.9845H190.111V14.4454Z" fill="#E8EFFA"/>
<path d="M113.959 27.1675C113.482 27.1515 113.109 26.7515 113.125 26.2745C113.14 25.8205 113.505 25.4554 113.959 25.4404H130.585C131.062 25.4564 131.435 25.8565 131.419 26.3335C131.404 26.7875 131.039 27.1525 130.585 27.1675H113.959Z" fill="black"/>
<path d="M133.446 27.1675C132.969 27.1515 132.596 26.7515 132.612 26.2745C132.627 25.8205 132.992 25.4554 133.446 25.4404H183.703C184.18 25.4564 184.553 25.8565 184.537 26.3335C184.522 26.7875 184.157 27.1525 183.703 27.1675H133.446Z" fill="black"/>
<path d="M160.815 38.8275C160.338 38.8435 159.938 38.4705 159.922 37.9935C159.906 37.5165 160.279 37.1165 160.756 37.1005C160.776 37.0995 160.795 37.0995 160.815 37.1005H184.729C185.206 37.0845 185.606 37.4575 185.622 37.9345C185.638 38.4115 185.265 38.8115 184.788 38.8275C184.768 38.8285 184.749 38.8285 184.729 38.8275H160.815Z" fill="black"/>
<path d="M168.427 50.3795C167.95 50.3635 167.577 49.9635 167.593 49.4865C167.608 49.0325 167.973 48.6675 168.427 48.6525H182.948C183.425 48.6365 183.825 49.0095 183.841 49.4865C183.857 49.9635 183.484 50.3635 183.007 50.3795C182.987 50.3805 182.968 50.3805 182.948 50.3795H168.427Z" fill="#010000"/>
<path d="M116.55 50.3795C116.073 50.3635 115.7 49.9635 115.716 49.4865C115.731 49.0325 116.096 48.6675 116.55 48.6525H130.15C130.627 48.6365 131.027 49.0095 131.043 49.4865C131.059 49.9635 130.686 50.3635 130.209 50.3795C130.189 50.3805 130.17 50.3805 130.15 50.3795H116.55Z" fill="#5CBEC1"/>
<path d="M133.5 50.3795C133.023 50.3635 132.65 49.9635 132.666 49.4865C132.681 49.0325 133.046 48.6675 133.5 48.6525H146.671C147.148 48.6685 147.521 49.0685 147.505 49.5455C147.49 49.9995 147.125 50.3645 146.671 50.3795H133.5Z" fill="#5CBEC1"/>
<path d="M152.988 50.3795C152.511 50.3635 152.138 49.9635 152.154 49.4865C152.169 49.0325 152.534 48.6675 152.988 48.6525H164.918C165.395 48.6685 165.768 49.0685 165.752 49.5455C165.737 49.9995 165.372 50.3645 164.918 50.3795H152.988Z" fill="black"/>
<path d="M114.013 38.8275C113.536 38.8115 113.163 38.4114 113.179 37.9344C113.194 37.4804 113.559 37.1155 114.013 37.1005H134.256C134.733 37.1165 135.106 37.5165 135.09 37.9935C135.075 38.4475 134.71 38.8125 134.256 38.8275H114.013Z" fill="black"/>
<path d="M137.171 38.8275C136.694 38.8115 136.321 38.4114 136.337 37.9344C136.352 37.4804 136.717 37.1155 137.171 37.1005H157.628C158.105 37.1165 158.478 37.5165 158.462 37.9935C158.447 38.4475 158.082 38.8125 157.628 38.8275H137.171Z" fill="#000001"/>
<path d="M115.714 54.9034C115.615 54.9034 115.521 54.8644 115.451 54.7944C112.677 52.0094 112.677 47.5054 115.451 44.7204C115.596 44.5754 115.831 44.5745 115.976 44.7195C116.121 44.8645 116.122 45.0995 115.977 45.2445C113.495 47.7405 113.495 51.7735 115.977 54.2695C116.122 54.4145 116.123 54.6494 115.978 54.7944C115.908 54.8644 115.813 54.9034 115.714 54.9034Z" fill="black"/>
<path d="M147.777 54.9034C147.572 54.9044 147.405 54.7384 147.405 54.5334C147.405 54.4344 147.444 54.3395 147.514 54.2695C149.996 51.7735 149.996 47.7405 147.514 45.2445C147.369 45.0995 147.37 44.8645 147.515 44.7195C147.66 44.5745 147.895 44.5754 148.04 44.7204C150.814 47.5054 150.814 52.0094 148.04 54.7944C147.97 54.8644 147.876 54.9034 147.777 54.9034Z" fill="black"/>
<g opacity="0.5">
<mask id="mask3_209_4486" style="mask-type:luminance" maskUnits="userSpaceOnUse" x="76" y="205" width="80" height="46">
<path d="M155.003 205.305H76.029V250.747H155.003V205.305Z" fill="white"/>
</mask>
<g mask="url(#mask3_209_4486)">
<path d="M155.004 205.305H76.029V250.747H155.004V205.305Z" fill="#000100"/>
</g>
</g>
<path d="M151.947 202.014H72.973V247.456H151.947V202.014Z" fill="#FEF8F8"/>
<path d="M78.144 214.733C77.683 214.749 77.296 214.388 77.28 213.926C77.264 213.465 77.625 213.078 78.087 213.062C78.106 213.061 78.125 213.061 78.144 213.062H94.232C94.693 213.078 95.055 213.465 95.039 213.926C95.024 214.365 94.671 214.718 94.232 214.733H78.144Z" fill="black"/>
<path d="M97 214.733C96.539 214.749 96.152 214.388 96.136 213.926C96.12 213.465 96.481 213.078 96.943 213.062C96.962 213.061 96.981 213.061 97 213.062H145.628C146.089 213.078 146.451 213.465 146.435 213.926C146.42 214.365 146.067 214.718 145.628 214.733H97Z" fill="#9FB7E0"/>
<path d="M123.481 226.014C123.02 225.998 122.658 225.611 122.674 225.15C122.689 224.711 123.042 224.359 123.481 224.344H146.62C147.081 224.328 147.468 224.688 147.484 225.15C147.5 225.611 147.139 225.998 146.677 226.014C146.658 226.015 146.639 226.015 146.62 226.014H123.481Z" fill="black"/>
<path d="M130.846 237.193C130.384 237.192 130.011 236.816 130.012 236.354C130.013 235.894 130.386 235.521 130.846 235.521H144.896C145.358 235.522 145.731 235.896 145.73 236.358C145.729 236.818 145.356 237.193 144.896 237.193H130.846Z" fill="black"/>
<path d="M80.651 237.193C80.189 237.192 79.816 236.816 79.817 236.354C79.818 235.894 80.191 235.521 80.651 235.521H93.814C94.276 235.522 94.649 235.896 94.648 236.358C94.647 236.818 94.274 237.193 93.814 237.193H80.651Z" fill="black"/>
<path d="M97.052 237.193C96.59 237.192 96.217 236.816 96.218 236.354C96.219 235.894 96.592 235.521 97.052 235.521H109.797C110.259 235.522 110.632 235.896 110.631 236.358C110.63 236.818 110.257 237.193 109.797 237.193H97.052Z" fill="black"/>
<path d="M115.908 237.193C115.446 237.192 115.073 236.816 115.074 236.354C115.075 235.894 115.448 235.521 115.908 235.521H127.451C127.913 235.522 128.286 235.896 128.285 236.358C128.284 236.818 127.911 237.193 127.451 237.193H115.908Z" fill="black"/>
<path d="M78.196 226.014C77.735 225.998 77.373 225.611 77.389 225.15C77.404 224.711 77.757 224.359 78.196 224.344H97.783C98.244 224.328 98.631 224.688 98.647 225.15C98.663 225.611 98.302 225.998 97.84 226.014C97.821 226.015 97.802 226.015 97.783 226.014H78.196Z" fill="#9FB7E0"/>
<path d="M100.604 226.014C100.143 226.03 99.756 225.669 99.74 225.207C99.724 224.746 100.085 224.36 100.547 224.344C100.566 224.343 100.585 224.343 100.604 224.344H120.404C120.865 224.328 121.252 224.688 121.268 225.15C121.284 225.611 120.923 225.998 120.461 226.014C120.442 226.015 120.423 226.015 120.404 226.014H100.604Z" fill="black"/>
<path d="M79.843 241.571C79.747 241.571 79.655 241.533 79.588 241.465C76.905 238.77 76.905 234.413 79.588 231.718C79.721 231.57 79.949 231.559 80.096 231.692C80.244 231.825 80.255 232.053 80.122 232.2C80.114 232.209 80.106 232.217 80.097 232.225C77.693 234.639 77.693 238.543 80.097 240.957C80.237 241.097 80.237 241.324 80.097 241.465C80.029 241.533 79.937 241.571 79.842 241.57" fill="black"/>
<path d="M110.866 241.571C110.668 241.572 110.506 241.412 110.506 241.213C110.506 241.117 110.544 241.025 110.611 240.958C113.015 238.544 113.015 234.64 110.611 232.226C110.478 232.078 110.49 231.851 110.637 231.718C110.775 231.594 110.984 231.594 111.121 231.719C113.804 234.414 113.804 238.771 111.121 241.466C111.054 241.534 110.962 241.571 110.866 241.571Z" fill="black"/>
<path d="M290.334 108.1C267.193 108.066 248.461 89.2805 248.495 66.1395C248.529 42.9985 267.315 24.2665 290.456 24.3005C313.597 24.3345 332.329 43.1204 332.295 66.2614C332.27 83.0814 322.19 98.2575 306.694 104.8C301.518 106.989 295.954 108.112 290.334 108.1ZM290.334 24.1114C267.233 24.1374 248.527 42.8864 248.554 65.9874C248.581 89.0884 267.329 107.794 290.43 107.767C313.531 107.74 332.237 88.9924 332.21 65.8914C332.191 49.1004 322.133 33.9484 306.666 27.4114C301.499 25.2234 295.945 24.1014 290.334 24.1114Z" fill="#01D000"/>
<path d="M272.497 91.4805C272.597 93.9125 272.772 100.007 272.897 104.281C277.619 106.439 282.701 107.696 287.884 107.991C287.683 106.577 287.556 105.154 287.503 103.727L279.448 101.352C277.777 98.0094 279.239 93.5695 279.814 91.0105L277.725 91.7944C279.725 86.6884 276.432 75.1945 274.434 71.3585C274.241 70.9835 274.067 70.5984 273.913 70.2054C267.696 70.3954 265.145 74.0955 264.562 76.6465C264.062 78.8345 261.915 91.2525 261.068 96.1785C263.73 98.7675 266.723 100.992 269.968 102.797C271.135 98.4255 272.268 93.1545 272.502 91.4805" fill="#8BD4D6"/>
<path d="M314.544 74.2175C313.73 71.6895 312.544 70.5455 311.285 69.9885C312.95 73.0795 315.161 78.5245 315.275 87.0885C315.431 91.6865 314.997 96.2845 313.982 100.771C315.686 99.6075 317.303 98.3204 318.819 96.9194C318.877 87.5134 315.946 78.5695 314.544 74.2145" fill="#56B2B5"/>
<path d="M269.963 102.797C270.918 103.33 271.894 103.826 272.893 104.281C272.772 100.008 272.593 93.9125 272.493 91.4805C272.259 93.1545 271.126 98.4265 269.959 102.797" fill="#56B2B5"/>
<path d="M296.113 107.667C299.784 107.163 303.371 106.172 306.78 104.72C307.38 98.2845 307.702 90.1744 307.702 90.1744C305.465 96.4984 300.96 102.397 296.113 107.667Z" fill="#56B2B5"/>
<path d="M290.334 24.0754C267.142 24.0764 248.343 42.8775 248.344 66.0695C248.344 77.4105 252.933 88.2695 261.064 96.1755C261.911 91.2495 264.058 78.8324 264.558 76.6434C265.141 74.0924 267.692 70.3925 273.909 70.2025C272.585 66.3105 271.914 62.2255 271.923 58.1145C272.04 56.0775 271.863 52.2465 272.529 49.5265C273.226 46.7045 274.45 44.0395 276.137 41.6715C277.318 39.8705 278.759 38.2525 280.412 36.8715C281.966 35.2725 284.083 34.3445 286.312 34.2855C289.124 34.2655 291.875 35.1034 294.199 36.6854C299.605 35.8854 302.084 39.5855 303.163 42.2705C303.429 42.9335 303.645 43.6155 303.809 44.3115C304.279 46.3225 305.977 49.0905 305.977 55.8025C305.977 62.5145 304.227 64.6555 302.686 66.8495C302.332 67.3715 301.923 67.8535 301.466 68.2875L302.947 69.5134C304.639 69.3054 306.345 69.2484 308.047 69.3414L308.2 69.3564C309.256 69.4014 310.298 69.6135 311.287 69.9845C312.543 70.5425 313.732 71.6845 314.546 74.2135C315.946 78.5685 318.879 87.5134 318.821 96.9194C335.862 81.1894 336.925 54.6224 321.195 37.5814C313.245 28.9684 302.057 24.0705 290.336 24.0715" fill="#5CBEC1"/>
<path d="M315.275 87.0925C315.161 78.5245 312.95 73.0784 311.285 69.9924C310.295 69.6214 309.254 69.4095 308.198 69.3645L308.045 69.3495C306.343 69.2565 304.637 69.3135 302.945 69.5215L301.464 68.2955C300.918 68.8055 300.265 69.1875 299.553 69.4125C299.614 71.4815 299.384 73.5494 298.871 75.5544C298.453 77.0404 297.893 78.4835 297.199 79.8635C296.781 80.7255 295.815 81.7695 295.999 82.8925C296.016 82.9985 296.029 83.1114 296.039 83.2264C296.1 84.3234 296.008 85.4245 295.764 86.4955C293.888 93.4495 293.607 100.737 294.944 107.814C295.335 107.771 295.723 107.724 296.11 107.671C300.957 102.402 305.462 96.5025 307.699 90.1785C307.699 90.1785 307.381 98.2875 306.777 104.724C309.3 103.648 311.712 102.326 313.977 100.779C314.992 96.2924 315.426 91.6945 315.27 87.0975" fill="#8BD4D6"/>
<path d="M303.811 54.6305C303.334 54.0385 302.781 53.5115 302.166 53.0635C301.991 54.0055 301.674 54.9164 301.226 55.7634C300.913 56.3904 300.756 56.5474 300.638 55.4504C300.52 54.3534 300.09 51.1025 299.816 49.6915C299.575 48.4515 298.016 46.7535 297.309 46.0485C297.04 45.7795 296.349 44.9735 295.509 43.9705C296.129 45.3195 296.933 46.8895 297.231 47.4205C297.717 48.7375 297.969 50.1294 297.975 51.5334C298.048 52.8864 298.205 54.2345 298.445 55.5685C298.602 56.7045 298.915 61.8754 297.23 65.2054C296.864 65.9294 296.506 66.6244 296.13 67.2894C295.84 67.8094 295.54 68.3094 295.219 68.7894C294.049 70.6244 292.368 72.0755 290.382 72.9655C290.072 73.1065 289.445 73.3595 289.494 73.6705C289.572 74.1705 291.194 73.5925 292.445 72.9135C292.398 74.8715 292.978 79.8235 296.036 83.2245C296.026 83.1085 296.014 82.9955 295.996 82.8905C295.813 81.7675 296.779 80.7235 297.196 79.8615C297.89 78.4815 298.449 77.0385 298.867 75.5525C299.381 73.5475 299.61 71.4795 299.549 69.4105C298.601 69.6855 297.621 69.8405 296.634 69.8715C297.195 69.3065 297.683 68.7874 298.112 68.3054C298.491 67.8814 298.824 67.4855 299.112 67.1185C301.412 64.2005 301.126 62.9285 301.373 61.2925C304.973 59.8045 304.037 56.3564 303.802 54.6334" fill="#E8ACAC"/>
<path d="M303.811 44.3144C303.647 43.6184 303.43 42.9364 303.164 42.2734C302.084 39.5864 299.606 35.8905 294.2 36.6885C291.876 35.1055 289.125 34.2684 286.313 34.2884C284.084 34.3474 281.967 35.2755 280.413 36.8745C278.76 38.2555 277.32 39.8734 276.139 41.6744C274.452 44.0424 273.228 46.7074 272.531 49.5294C271.865 52.2494 272.043 56.0804 271.925 58.1174C271.916 62.2284 272.588 66.3134 273.911 70.2054C274.065 70.5984 274.239 70.9835 274.432 71.3585C276.432 75.1975 279.72 86.6884 277.722 91.7944L279.811 91.0115C279.236 93.5705 277.774 98.0115 279.445 101.354L287.5 103.729L288.481 104.017C288.033 101.144 288.284 98.2065 289.212 95.4515C290.256 92.5785 290.256 90.5415 290.256 86.8335C290.159 83.7925 289.336 80.8195 287.856 78.1625C286.864 76.1775 285.61 73.9835 285.506 73.7755C284.676 72.7045 283.613 71.3185 282.689 70.0945C282.132 69.3565 281.627 68.6784 281.253 68.1644C281.038 67.8644 280.864 67.6234 280.753 67.4554C280.126 66.5154 277.985 63.4335 277.828 61.3965C277.671 59.3595 277.567 57.8185 277.541 56.8265C277.595 55.8115 277.708 54.7995 277.88 53.7975C277.762 52.8535 277.718 51.9014 277.749 50.9504C277.88 49.6964 278.036 40.3995 291.408 38.9635C292.393 40.1995 294.147 42.3484 295.508 43.9754C296.348 44.9754 297.04 45.7845 297.308 46.0535C298.013 46.7585 299.574 48.4535 299.815 49.6965C300.089 51.1065 300.52 54.3584 300.638 55.4554C300.756 56.5524 300.912 56.3954 301.226 55.7684C301.674 54.9214 301.991 54.0105 302.166 53.0685C302.781 53.5165 303.334 54.0435 303.811 54.6355C304.046 56.3595 304.986 59.8065 301.382 61.2955C301.135 62.9315 301.421 64.2034 299.121 67.1214C298.831 67.4894 298.498 67.8855 298.121 68.3085C297.691 68.7905 297.204 69.3085 296.643 69.8745C297.63 69.8435 298.609 69.6884 299.558 69.4134C300.27 69.1884 300.923 68.8065 301.469 68.2965C301.926 67.8625 302.335 67.3805 302.689 66.8585C304.23 64.6645 305.98 62.5235 305.98 55.8115C305.98 49.0995 304.28 46.3314 303.813 44.3204" fill="#020000"/>
<path d="M294.988 89.7625C295.353 87.8625 295.712 86.7044 295.767 86.4924C296.011 85.4204 296.103 84.3205 296.042 83.2235C292.984 79.8235 292.404 74.8705 292.45 72.9125C291.196 73.5915 289.577 74.1664 289.499 73.6694C289.45 73.3584 290.077 73.1055 290.387 72.9645C292.373 72.0755 294.054 70.6235 295.224 68.7885C295.544 68.3115 295.844 67.8115 296.135 67.2885C296.506 66.6235 296.864 65.9295 297.235 65.2045C298.919 61.8745 298.606 56.7045 298.449 55.5675C298.209 54.2335 298.052 52.8855 297.979 51.5325C297.973 50.1285 297.721 48.7364 297.235 47.4194C296.935 46.8884 296.135 45.3195 295.513 43.9695C294.151 42.3425 292.397 40.1935 291.413 38.9575C278.042 40.3935 277.885 49.6915 277.754 50.9445C277.723 51.8955 277.767 52.8475 277.885 53.7915C277.713 54.7935 277.6 55.8054 277.546 56.8204C277.572 57.8124 277.677 59.3535 277.833 61.3905C277.989 63.4275 280.133 66.5095 280.758 67.4495C280.87 67.6165 281.043 67.8614 281.258 68.1584C281.632 68.6724 282.137 69.3505 282.694 70.0885C283.618 71.3125 284.681 72.6985 285.511 73.7695C285.611 73.9785 286.869 76.1695 287.861 78.1565C289.341 80.8135 290.164 83.7865 290.261 86.8275C290.261 87.6565 290.261 88.3995 290.249 89.0895C291.776 89.6015 293.384 89.8284 294.993 89.7584" fill="#F3C0BF"/>
<path d="M288.48 104.016L287.499 103.727C287.551 105.154 287.678 106.577 287.879 107.991C288.691 108.038 289.51 108.064 290.334 108.064C291.875 108.064 293.414 107.98 294.946 107.812C293.863 101.843 293.877 95.7265 294.987 89.7625C293.378 89.8325 291.769 89.6055 290.242 89.0935C290.289 91.2575 289.94 93.4124 289.21 95.4504C288.282 98.2054 288.032 101.143 288.48 104.016Z" fill="#F3E1D4"/>
<path d="M282.221 54.6895C282.221 55.1435 281.853 55.5125 281.398 55.5125C280.943 55.5125 280.575 55.1435 280.575 54.6895C280.575 54.2345 280.943 53.8665 281.398 53.8665C281.853 53.8665 282.221 54.2345 282.221 54.6895Z" fill="#050002"/>
<path d="M294.326 53.8265C294.326 54.2815 293.958 54.6495 293.503 54.6495C293.048 54.6495 292.68 54.2815 292.68 53.8265C292.68 53.3725 293.048 53.0034 293.503 53.0034C293.958 53.0034 294.326 53.3715 294.326 53.8265Z" fill="#050002"/>
<path d="M278.3 55.1925C278.181 55.1965 278.081 55.1025 278.077 54.9835C278.074 54.9055 278.114 54.8325 278.18 54.7925C279.721 53.6025 281.831 53.4695 283.508 54.4575C283.613 54.5145 283.652 54.6455 283.596 54.7505C283.539 54.8555 283.408 54.8945 283.303 54.8385C283.294 54.8335 283.285 54.8275 283.276 54.8215C281.741 53.9315 279.819 54.0625 278.419 55.1525C278.384 55.1755 278.342 55.1885 278.3 55.1885" fill="#050002"/>
<path d="M290.53 54.2195C290.411 54.2175 290.315 54.1195 290.317 54.0005C290.318 53.9265 290.357 53.8585 290.42 53.8195C291.214 53.3485 293.979 51.9415 296.22 53.5965C296.311 53.6735 296.324 53.8096 296.247 53.9006C296.177 53.9846 296.055 54.0025 295.964 53.9435C293.936 52.4435 291.376 53.7545 290.64 54.1905C290.607 54.2105 290.569 54.2205 290.53 54.2195Z" fill="#050002"/>
<path d="M285.02 61.9366H285.008C284.181 61.9466 283.498 61.2936 283.471 60.4676C283.484 59.8446 283.656 59.2355 283.971 58.6985C284.059 58.5255 284.141 58.3625 284.207 58.1985C284.498 57.0005 284.599 55.7635 284.507 54.5345C284.497 54.4155 284.586 54.3115 284.705 54.3015C284.824 54.2915 284.928 54.3805 284.938 54.4995C285.04 55.7945 284.929 57.0975 284.61 58.3565C284.536 58.5435 284.445 58.7235 284.357 58.8975C284.072 59.3745 283.915 59.9165 283.9 60.4715C283.9 61.4395 284.982 61.5076 285.028 61.5096C285.147 61.5206 285.235 61.6246 285.224 61.7436C285.214 61.8516 285.126 61.9365 285.017 61.9405" fill="#E69F9F"/>
<path d="M289.042 61.0014C288.923 61.0004 288.827 60.9034 288.827 60.7844C288.828 60.6814 288.901 60.5935 289.002 60.5735C289.353 60.5715 289.662 60.3424 289.767 60.0084C289.817 59.9004 289.946 59.8534 290.054 59.9034C290.162 59.9534 290.209 60.0824 290.159 60.1904C289.994 60.6504 289.571 60.9684 289.083 60.9974C289.069 60.9984 289.056 60.9984 289.042 60.9974" fill="#E69F9F"/>
<path d="M284.321 65.1885C285.326 66.1995 286.66 66.8175 288.082 66.9315C289.837 66.9585 291.484 66.0865 292.45 64.6205C291.235 65.5205 289.77 66.0205 288.258 66.0505C287.35 66.0945 286.441 66.0085 285.558 65.7955C285.058 65.6185 284.716 65.3255 284.324 65.1885" fill="#DA8580"/>
<path d="M287.951 67.0784C286.535 66.9244 285.215 66.2894 284.212 65.2784C284.161 65.2174 284.168 65.1264 284.229 65.0754C284.268 65.0424 284.321 65.0324 284.369 65.0494C284.567 65.1264 284.759 65.2204 284.94 65.3314C285.151 65.4594 285.373 65.5694 285.603 65.6574C286.471 65.8674 287.366 65.9504 288.258 65.9034C289.739 65.8644 291.174 65.3745 292.369 64.4985C292.435 64.4545 292.525 64.4724 292.569 64.5384C292.599 64.5834 292.601 64.6404 292.575 64.6874C291.462 66.6954 289.067 67.0245 288.088 67.0725C288.042 67.0725 287.996 67.0725 287.95 67.0725M285.477 65.9144C286.24 66.4524 287.144 66.7534 288.077 66.7814C289.54 66.7644 290.935 66.1594 291.947 65.1024C290.839 65.7924 289.565 66.1674 288.26 66.1884C287.335 66.2384 286.408 66.1505 285.509 65.9255L285.48 65.9155" fill="#DA8580"/>
<path d="M298.11 50.2235C296.935 49.4005 295.779 48.7745 292.782 48.7745C289.785 48.7745 289.864 49.2175 289.864 49.3545C289.864 49.5765 290.155 49.5465 290.687 49.5465C291.177 49.5465 292.254 49.3465 292.998 49.3225C294.749 49.2085 296.503 49.5175 298.11 50.2235Z" fill="#050002"/>
<path d="M298.111 50.3695C298.091 50.3695 298.072 50.3654 298.054 50.3574C296.514 49.6784 294.835 49.3715 293.154 49.4625L293.004 49.4685C292.622 49.4785 292.137 49.5395 291.704 49.5935C291.366 49.6445 291.026 49.6785 290.684 49.6935H290.519C290.152 49.6935 289.929 49.6935 289.802 49.5715C289.746 49.5145 289.715 49.4364 289.718 49.3564C289.711 49.2474 289.752 49.1405 289.83 49.0635C289.93 48.9565 290.255 48.6324 292.781 48.6324C295.84 48.6324 296.997 49.2714 298.191 50.1074C298.256 50.1534 298.272 50.2425 298.226 50.3085C298.199 50.3475 298.155 50.3705 298.108 50.3705M293.75 49.1605C294.759 49.1605 295.764 49.3005 296.734 49.5785C295.48 49.0725 294.13 48.8474 292.78 48.9194C290.687 48.9194 290.161 49.1355 290.034 49.2645C290.011 49.2845 290 49.3135 290.005 49.3435C290.048 49.4085 290.305 49.4065 290.517 49.4055H290.684C291.013 49.3895 291.342 49.3554 291.668 49.3054C292.103 49.2504 292.595 49.1875 292.991 49.1775L293.138 49.1725C293.291 49.1665 293.497 49.1575 293.749 49.1575" fill="#050002"/>
<path d="M277.316 51.3535C278.428 50.5065 279.761 49.9995 281.155 49.8905C281.73 49.8905 282.448 50.0085 282.448 50.2435C282.448 50.3435 282.388 50.4135 282.148 50.4135C281.874 50.4135 281.234 50.2825 280.648 50.2825C279.46 50.3255 278.308 50.6965 277.318 51.3535" fill="#050002"/>
<path d="M277.316 51.4965C277.236 51.4965 277.172 51.4314 277.173 51.3514C277.173 51.3044 277.196 51.2605 277.234 51.2345C278.375 50.3785 279.734 49.8635 281.155 49.7465C281.395 49.7465 282.591 49.7705 282.591 50.2465C282.591 50.4545 282.441 50.5594 282.147 50.5594C281.98 50.5524 281.813 50.5365 281.647 50.5115C281.316 50.4635 280.982 50.4355 280.647 50.4285C279.487 50.4685 278.361 50.8305 277.396 51.4755C277.373 51.4915 277.345 51.4995 277.317 51.4995M280.647 50.1415C280.993 50.1485 281.338 50.1774 281.68 50.2264C281.835 50.2494 281.992 50.2655 282.149 50.2725C282.279 50.2725 282.311 50.2495 282.311 50.2495C281.952 50.0765 281.554 50.0035 281.157 50.0375C280.793 50.0405 280.43 50.0895 280.078 50.1815C280.267 50.1565 280.457 50.1435 280.648 50.1415" fill="#050002"/>
<path d="M301.617 85.3625C301.569 85.3625 301.523 85.3466 301.485 85.3176L297.401 82.1616L296.646 84.0146C296.603 84.1256 296.477 84.1805 296.366 84.1375C296.255 84.0945 296.2 83.9685 296.243 83.8575C296.244 83.8555 296.244 83.8535 296.245 83.8515L297.107 81.7365C297.152 81.6265 297.278 81.5736 297.389 81.6186C297.407 81.6256 297.424 81.6355 297.439 81.6475L301.429 84.7305C302.014 76.2945 302.176 71.2306 301.913 69.6716C301.886 69.5556 301.957 69.4396 302.074 69.4116C302.191 69.3836 302.306 69.4556 302.334 69.5726C302.336 69.5816 302.338 69.5905 302.339 69.5995C302.617 71.2385 302.45 76.3295 301.832 85.1635C301.824 85.2765 301.73 85.3635 301.617 85.3625Z" fill="#56B2B5"/>
<path d="M280.309 86.2445C280.299 86.2455 280.288 86.2455 280.278 86.2445C280.2 86.2275 280.152 86.1505 280.169 86.0725C281.05 82.1395 278.969 77.0034 278.283 75.3154C278.247 75.2444 278.276 75.1574 278.347 75.1224C278.418 75.0864 278.505 75.1155 278.54 75.1865C278.543 75.1935 278.546 75.2005 278.549 75.2075C279.242 76.9155 281.349 82.1145 280.449 86.1345C280.434 86.1995 280.376 86.2464 280.309 86.2464" fill="#252425"/>
<path d="M285.242 101.813C285.162 101.813 285.098 101.747 285.098 101.668C285.085 99.2085 285.543 96.7685 286.447 94.4815C286.64 93.9365 286.822 93.4215 286.982 92.8815C287.827 89.8705 287.811 86.6835 286.937 83.6815C286.004 80.4765 284.721 77.3845 283.113 74.4595C283.07 74.3925 283.09 74.3035 283.157 74.2605C283.22 74.2205 283.303 74.2345 283.348 74.2935C284.972 77.2465 286.268 80.3685 287.213 83.6035C288.102 86.6595 288.117 89.9035 287.257 92.9675C287.095 93.5135 286.912 94.0315 286.718 94.5805C285.82 96.8355 285.367 99.2435 285.386 101.672C285.386 101.751 285.322 101.815 285.242 101.815" fill="#252425"/>
<path d="M275.801 53.9915H275.782C275.703 53.9815 275.648 53.9085 275.658 53.8305L275.691 53.5825C276.222 49.5355 277.829 37.2235 289.6 37.9965C289.68 37.9975 289.743 38.0635 289.742 38.1425C289.741 38.2225 289.675 38.2855 289.596 38.2845C289.591 38.2845 289.586 38.2845 289.581 38.2835C278.1 37.5215 276.499 49.6385 275.981 53.6195L275.949 53.8675C275.94 53.9385 275.879 53.9925 275.807 53.9925" fill="#252425"/>
<path d="M301.97 49.0155C301.936 49.0155 301.904 49.0044 301.878 48.9824C298.836 46.4544 295.647 41.7235 294.446 39.9425C294.402 39.8765 294.419 39.7864 294.485 39.7424C294.551 39.6984 294.641 39.7155 294.685 39.7815C295.879 41.5525 299.051 46.2584 302.061 48.7614C302.122 48.8114 302.132 48.9015 302.082 48.9625C302.054 48.9965 302.014 49.0155 301.97 49.0155Z" fill="#252425"/>
<path d="M284.321 65.1885C284.892 64.6565 285.641 64.3564 286.421 64.3464C287.221 64.3264 287.498 64.7184 287.929 64.6594C288.56 64.3934 289.226 64.2225 289.907 64.1505C290.784 64.0365 291.675 64.2005 292.453 64.6205C290.436 64.8945 288.771 65.1884 288.105 65.2474C286.849 65.1204 285.584 65.1005 284.325 65.1885" fill="#CE4637"/>
<path d="M287.936 65.3974C287.708 65.3974 287.421 65.3695 287.078 65.3375C286.171 65.2165 285.252 65.2144 284.345 65.3304C284.283 65.3414 284.222 65.3105 284.194 65.2545C284.165 65.1985 284.176 65.1314 284.22 65.0864C284.816 64.5284 285.598 64.2135 286.414 64.2025C286.763 64.1955 287.109 64.2664 287.428 64.4094C287.575 64.4874 287.74 64.5244 287.906 64.5164C288.045 64.4894 288.179 64.4435 288.306 64.3805C288.805 64.1545 289.343 64.0274 289.891 64.0064C290.796 63.8894 291.714 64.0605 292.517 64.4945C292.586 64.5335 292.611 64.6214 292.572 64.6904C292.55 64.7294 292.511 64.7564 292.466 64.7624C291.513 64.8914 290.625 65.0274 289.911 65.1374C289.104 65.2604 288.466 65.3585 288.111 65.3895C288.056 65.3895 287.997 65.3965 287.932 65.3965M285.514 64.9535C286.1 64.9535 286.65 65.0064 287.102 65.0534C287.428 65.0964 287.757 65.1134 288.086 65.1064C288.433 65.0764 289.066 64.9784 289.868 64.8564C290.468 64.7654 291.182 64.6565 291.958 64.5455C291.306 64.2985 290.603 64.2125 289.91 64.2965C289.395 64.3155 288.889 64.4344 288.42 64.6474C288.269 64.7224 288.107 64.7744 287.941 64.8044C287.725 64.8204 287.51 64.7764 287.317 64.6784C287.035 64.5484 286.727 64.4844 286.417 64.4924C285.839 64.5044 285.276 64.6754 284.79 64.9874C285.034 64.9664 285.277 64.9575 285.513 64.9575" fill="#CE4637"/>
<path d="M245.186 195.368C243.943 195.368 242.079 194.985 242.079 193.408C242.079 191.831 242.748 190.588 243.465 188.628C244.182 186.668 265.214 130.36 265.214 130.36C265.644 129.26 266.266 127.539 268.704 127.539H368.723C370.525 127.45 372.063 128.83 372.17 130.631C372.17 131.885 371.021 135.331 369.87 138.57C368.719 141.809 349.92 190.562 349.043 192.735C348.514 194.462 346.841 195.577 345.043 195.399C340.969 195.399 245.181 195.368 245.181 195.368" fill="#D63E38"/>
<path d="M296.982 193.047V201.505C296.982 210.672 292.359 211.925 288.282 211.925H268.15V212.943H304.815C308.889 212.943 313.515 211.689 313.515 202.523V194.062L296.982 193.047Z" fill="#600E08"/>
<path d="M304.895 214.242H268.227C267.512 214.242 266.933 213.663 266.933 212.948C266.933 212.233 267.512 211.654 268.227 211.654H304.894C308.739 211.654 312.294 210.548 312.294 202.528V194.054C312.294 193.339 312.873 192.76 313.588 192.76C314.303 192.76 314.882 193.339 314.882 194.054V202.528C314.882 214.242 307.362 214.242 304.891 214.242" fill="#D63E38"/>
<path d="M457.661 211.075C457.661 240.041 434.179 263.523 405.213 263.523C376.247 263.523 352.765 240.041 352.765 211.075C352.765 182.109 376.247 158.627 405.213 158.627C434.179 158.627 457.661 182.109 457.661 211.075Z" fill="#17335C"/>
<path d="M392.044 216.5C389.955 215.56 386.664 212.948 386.351 204.173C386.166 198.857 386.658 193.539 387.813 188.347C386.181 186.819 385.554 185.057 386.651 183.373C385.919 182.454 385.969 181.137 386.769 180.277C385.946 179.767 385.537 178.792 385.75 177.848C386.07 176.847 387.135 176.289 388.14 176.594C387.082 175.066 386.926 172.951 389.158 172.167C389.589 170.404 390.49 169.386 392.527 169.66C392.807 169.334 393.241 169.185 393.663 169.269C394.251 167.859 395.857 166.918 398.012 167.975C398.739 167.524 399.631 167.424 400.44 167.701C401.186 166.689 402.485 166.251 403.692 166.602C404.392 165.153 407.292 163.586 410.508 164.839C412.459 164.604 414.391 165.405 415.601 166.953C416.484 166.95 417.291 167.452 417.677 168.246C418.695 168.285 420.341 168.481 420.577 170.401C423.006 169.853 426.022 170.794 425.317 174.633C426.001 175.049 426.418 175.792 426.417 176.592C427.25 176.769 427.781 177.586 427.605 178.418C427.523 178.807 427.293 179.149 426.965 179.373C427.709 179.961 428.219 180.473 427.748 181.373C428.481 181.95 428.636 182.998 428.1 183.762C428.942 185.202 428.457 187.054 427.017 187.896C426.839 188 426.651 188.085 426.455 188.15C427.826 190.971 427.474 193.987 423.595 195.084C422.616 196.455 422.576 198.376 422.459 199.394C422.063 202.946 421.488 206.476 420.736 209.97C419.952 212.87 418.503 219.098 413.45 219.332L392.044 216.5Z" fill="#020002"/>
<path d="M395.034 218.315C393.114 215.181 391.744 212.674 392.253 208.091C392.446 206.362 392.802 203.038 392.998 200.648C393.194 198.258 392.293 194.89 393.468 192.539C394.689 190.235 396.277 188.144 398.168 186.349C402.381 189.012 407.294 190.356 412.276 190.208C410.9 189.734 409.792 188.697 409.229 187.355C404.58 187.329 401.237 184.796 399.775 183.755C398.193 185.448 395.981 186.412 393.664 186.419C393.391 188.512 392.167 190.363 390.347 191.433C390.347 192.164 390.321 193.94 390.321 195.089C390.321 200.989 389.538 203.889 388.832 203.789C388.126 203.689 388.127 200.917 387.996 199.167C387.134 198.122 384.653 198.121 384.653 200.966C384.653 208.592 387.604 210.107 388.753 211.021C389.136 213.832 390.263 216.49 392.017 218.721C392.582 222.379 392.668 226.095 392.271 229.775C392.196 231.24 391.739 232.66 390.946 233.894C389.086 234.283 387.25 234.776 385.446 235.371C386.236 238.425 388.268 242.949 395.033 245.006C397.483 240.317 398.844 235.136 399.015 229.848C399.097 228.318 399.107 226.696 399.027 224.977C401.103 225.956 405.765 227.013 408.742 224.859C405.02 224.937 398.942 224.7 395.031 218.318" fill="#9E573A"/>
<path d="M422.1 233.452C420.298 238.991 415.952 243.332 410.41 245.126C408.334 245.754 406.179 246.078 404.01 246.089C400.982 246.191 397.956 245.825 395.04 245.004C388.276 242.947 386.24 238.424 385.453 235.369C378.453 237.669 371.688 241.569 366.885 246.869C386.648 268.041 419.832 269.183 441.004 249.42C442.611 247.92 444.121 246.321 445.527 244.632C439.94 236.923 430.001 234.572 422.105 233.455" fill="#F8E1E0"/>
<path d="M418.421 213.182C423.07 211.197 423.827 206.082 424.062 204.329C424.297 202.576 423.775 201.874 422.756 201.874C421.737 201.874 421.267 202.631 420.823 204.355C420.379 206.079 420.092 206.523 419.778 206.523C419.464 206.523 419.465 205.948 419.465 205.4C419.465 204.852 419.465 199.21 419.491 197.565C419.562 195.827 419.393 194.087 418.991 192.394C417.15 192.756 415.298 191.82 414.499 190.122C413.777 190.348 413.008 190.377 412.271 190.207C407.289 190.355 402.376 189.011 398.163 186.348C396.272 188.143 394.684 190.234 393.463 192.538C392.288 194.888 393.189 198.257 392.993 200.647C392.797 203.037 392.441 206.361 392.249 208.09C391.74 212.673 393.111 215.18 395.03 218.314C398.939 224.697 405.02 224.934 408.741 224.856C405.764 227.011 401.102 225.956 399.026 224.974C399.105 226.693 399.095 228.316 399.013 229.846C398.842 235.134 397.481 240.315 395.031 245.004C397.947 245.825 400.973 246.191 404.001 246.089C406.17 246.078 408.325 245.754 410.401 245.126C415.943 243.332 420.289 238.991 422.091 233.452C419.716 233.116 417.526 232.891 415.696 232.665C415.124 231.848 414.671 230.955 414.351 230.011C413.571 227.276 413.24 224.433 413.371 221.592C415.82 219.328 417.569 216.41 418.411 213.183" fill="#BA7152"/>
<path d="M388.009 210.566C388.009 211.339 387.382 211.966 386.609 211.966C385.836 211.966 385.209 211.339 385.209 210.566C385.209 209.793 385.836 209.167 386.609 209.167C387.382 209.167 388.009 209.793 388.009 210.566Z" fill="#F4E2D4"/>
<path d="M421.663 213.531C421.663 214.334 421.012 214.985 420.209 214.985C419.406 214.985 418.755 214.334 418.755 213.531C418.755 212.728 419.406 212.077 420.209 212.077C421.012 212.077 421.663 212.728 421.663 213.531Z" fill="#F4E2D4"/>
<path d="M404.579 211.719C404.363 211.719 404.136 211.719 403.895 211.707C399.919 211.576 399.804 209.161 399.804 208.886C399.814 208.727 399.95 208.606 400.109 208.616C400.254 208.625 400.37 208.741 400.379 208.886C400.379 209.104 400.479 211.018 403.914 211.132C407.43 211.248 407.825 210.488 408.141 209.877C408.206 209.732 408.377 209.667 408.522 209.732C408.667 209.797 408.732 209.968 408.667 210.113C408.663 210.123 408.658 210.132 408.653 210.141C408.223 210.974 407.576 211.719 404.581 211.719" fill="#A35B3E"/>
<path d="M409.567 214.723C407.008 216.055 401.001 216.211 398.367 213.965C399.516 218.065 407.325 219.423 409.567 214.723Z" fill="#A35941"/>
<path d="M404.363 217.835C404.148 217.835 403.937 217.826 403.731 217.808C401.009 217.573 398.797 216.045 398.225 214.008C398.204 213.931 398.249 213.852 398.326 213.831C398.372 213.818 398.421 213.829 398.457 213.86C401.067 216.083 407.007 215.897 409.501 214.6C409.57 214.561 409.658 214.585 409.697 214.655C409.72 214.696 409.722 214.747 409.701 214.789C408.675 216.764 406.589 217.956 404.367 217.838M398.667 214.379C399.687 216.257 401.626 217.454 403.762 217.525C405.921 217.857 408.072 216.882 409.246 215.04C406.63 216.14 401.376 216.253 398.667 214.379Z" fill="#A35941"/>
<path d="M391.494 201.85C391.441 201.85 391.388 201.834 391.343 201.806C391.27 201.761 389.561 200.696 388.985 200.312C388.87 200.2 388.701 200.164 388.55 200.217C388.4 200.271 388.235 200.193 388.181 200.044C388.127 199.895 388.205 199.729 388.354 199.675C388.363 199.672 388.371 199.669 388.38 199.667C388.691 199.562 389.034 199.622 389.292 199.825C389.871 200.212 391.628 201.305 391.646 201.316C391.781 201.401 391.821 201.578 391.737 201.713C391.685 201.797 391.593 201.848 391.494 201.848" fill="#991409"/>
<path d="M407.347 203.233C407.285 203.233 407.224 203.213 407.174 203.175C405.827 202.425 404.245 202.218 402.751 202.595C402.6 202.644 402.437 202.561 402.388 202.41C402.339 202.259 402.422 202.096 402.573 202.047C402.58 202.045 402.587 202.043 402.595 202.041C403.619 201.752 406.115 201.654 407.521 202.715C407.647 202.811 407.672 202.992 407.575 203.119C407.521 203.19 407.437 203.232 407.347 203.233Z" fill="#991409"/>
<path d="M418.317 204.408C418.159 204.409 418.029 204.282 418.028 204.123C418.027 204.014 418.088 203.914 418.185 203.865C418.427 203.74 418.663 203.605 418.892 203.474C419.433 203.082 420.067 202.837 420.731 202.763C420.89 202.763 421.019 202.891 421.02 203.05C421.021 203.209 420.892 203.338 420.733 203.339C420.725 203.339 420.717 203.339 420.708 203.338C420.156 203.429 419.632 203.646 419.178 203.973C418.942 204.109 418.698 204.249 418.448 204.373C418.407 204.394 418.363 204.405 418.317 204.405" fill="#991409"/>
<path d="M397.037 209.004C393.707 209.049 390.971 206.386 390.927 203.056C390.883 199.726 393.545 196.99 396.875 196.946C400.205 196.901 402.941 199.564 402.986 202.894C402.986 202.921 402.986 202.948 402.986 202.975C403.002 206.28 400.342 208.976 397.037 209.004ZM397.037 197.521C394.025 197.476 391.546 199.882 391.502 202.894C391.457 205.906 393.863 208.384 396.875 208.428C399.887 208.473 402.366 206.067 402.41 203.055C402.41 203.028 402.411 203.002 402.411 202.975C402.429 199.986 400.026 197.547 397.037 197.521Z" fill="#991409"/>
<path d="M412.68 210.963C409.35 211.007 406.615 208.344 406.571 205.014C406.527 201.684 409.19 198.949 412.52 198.904C415.85 198.86 418.585 201.523 418.63 204.853C418.63 204.88 418.63 204.907 418.63 204.934C418.646 208.24 415.986 210.935 412.68 210.963ZM412.68 199.479C409.668 199.434 407.189 201.84 407.145 204.852C407.1 207.864 409.506 210.343 412.518 210.387C415.53 210.432 418.009 208.026 418.053 205.014C418.053 204.987 418.054 204.96 418.054 204.933C418.072 201.944 415.669 199.505 412.68 199.479Z" fill="#991409"/>
<path d="M393.428 195.83C395.74 194.266 398.763 194.235 401.106 195.752C400.006 196.007 397.206 194.381 393.428 195.83Z" fill="#020200"/>
<path d="M393.427 196.044C393.308 196.046 393.21 195.95 393.208 195.831C393.207 195.755 393.246 195.684 393.311 195.644C395.694 194.026 398.815 193.997 401.227 195.57C401.325 195.638 401.35 195.772 401.282 195.87C401.252 195.914 401.206 195.945 401.154 195.958C400.605 196.007 400.052 195.951 399.525 195.792C397.541 195.25 395.439 195.332 393.504 196.028C393.479 196.037 393.453 196.042 393.427 196.042M396.698 195.002C397.68 195.02 398.658 195.144 399.614 195.37C399.855 195.421 400.078 195.47 400.277 195.501C398.876 194.778 397.252 194.617 395.737 195.051C396.056 195.018 396.377 195.002 396.698 195.002Z" fill="#020200"/>
<path d="M408.98 196.613C411.84 195.313 415.203 195.879 417.48 198.043C414.444 195.771 410.135 196.985 408.98 196.613Z" fill="#020200"/>
<path d="M417.481 198.259C417.434 198.259 417.389 198.243 417.352 198.215C415.276 196.661 412.54 196.789 410.729 196.873C410.125 196.943 409.513 196.926 408.914 196.819C408.8 196.782 408.738 196.659 408.775 196.546C408.791 196.496 408.825 196.455 408.87 196.428C411.816 195.088 415.281 195.667 417.632 197.891C417.716 197.975 417.717 198.112 417.633 198.196C417.593 198.237 417.538 198.258 417.48 198.259M412.229 196.399C413.208 196.384 414.185 196.492 415.137 196.719C413.458 196.039 411.597 195.952 409.863 196.475C410.116 196.475 410.403 196.458 410.708 196.444C411.166 196.422 411.681 196.399 412.229 196.399Z" fill="#020200"/>
<path d="M395.427 202.483C395.268 202.482 395.14 202.353 395.141 202.193C395.141 202.123 395.167 202.056 395.214 202.004C395.951 201.12 397.031 200.595 398.181 200.561C399.069 200.625 399.875 201.102 400.36 201.848C400.446 201.982 400.408 202.16 400.274 202.246C400.152 202.325 399.991 202.301 399.898 202.19C399.513 201.586 398.868 201.196 398.154 201.135C397.178 201.179 396.265 201.634 395.642 202.387C395.588 202.45 395.51 202.486 395.428 202.487" fill="#020200"/>
<path d="M414.699 204.285C414.6 204.285 414.507 204.233 414.454 204.149C414.023 203.271 413.202 202.649 412.24 202.472C411.401 202.434 410.592 202.789 410.05 203.43C409.947 203.552 409.766 203.566 409.644 203.464C409.522 203.361 409.507 203.18 409.609 203.058C409.615 203.05 409.622 203.044 409.629 203.037C410.292 202.264 411.277 201.843 412.294 201.899C413.438 202.083 414.423 202.808 414.94 203.845C415.024 203.98 414.982 204.157 414.847 204.241C414.802 204.269 414.749 204.285 414.696 204.285" fill="#020200"/>
<path d="M399.082 202.116C399.082 202.689 398.618 203.154 398.045 203.154C397.472 203.154 397.008 202.689 397.008 202.116C397.008 201.543 397.472 201.079 398.045 201.079C398.618 201.079 399.082 201.543 399.082 202.116Z" fill="#020200"/>
<path d="M413.054 203.468C413.054 204.041 412.59 204.505 412.017 204.505C411.444 204.505 410.98 204.041 410.98 203.468C410.98 202.895 411.444 202.431 412.017 202.431C412.59 202.431 413.054 202.895 413.054 203.468Z" fill="#020200"/>
<path d="M399.187 183.352C399.14 183.352 399.094 183.337 399.057 183.308C397.673 182.291 396.856 180.677 396.857 178.959C396.858 178.84 396.956 178.744 397.075 178.745C397.182 178.746 397.273 178.825 397.287 178.931C397.284 180.522 398.037 182.019 399.317 182.964C399.412 183.036 399.431 183.172 399.358 183.267C399.318 183.32 399.254 183.352 399.187 183.352Z" fill="#303030"/>
<path d="M422.573 174.616C422.466 174.616 422.376 174.538 422.36 174.433C422.186 173.463 421.411 172.713 420.436 172.571C420.324 172.531 420.265 172.408 420.305 172.295C420.342 172.191 420.45 172.132 420.557 172.157C421.697 172.342 422.592 173.231 422.786 174.369C422.804 174.487 422.723 174.597 422.605 174.615L422.573 174.616Z" fill="#303030"/>
<path d="M420.027 192.441C419.908 192.439 419.812 192.343 419.814 192.223C419.815 192.145 419.858 192.072 419.927 192.035C420.914 191.615 421.685 190.807 422.059 189.801C422.118 189.697 422.249 189.661 422.353 189.72C422.434 189.766 422.477 189.858 422.459 189.949C422.049 191.054 421.207 191.945 420.126 192.415C420.095 192.432 420.061 192.441 420.027 192.441Z" fill="#303030"/>
<path d="M398.364 213.967C400.036 213.445 402.49 213.366 404.031 214.723C405.793 213.936 407.806 213.936 409.568 214.723C407.009 216.055 401.002 216.213 398.368 213.967" fill="#753F29"/>
<path d="M404.544 215.831C402.188 215.831 399.728 215.316 398.271 214.075C398.21 214.023 398.203 213.933 398.255 213.872C398.273 213.851 398.296 213.836 398.321 213.828C399.97 213.312 402.447 213.2 404.057 214.556C405.835 213.786 407.855 213.799 409.623 214.59C409.696 214.621 409.73 214.705 409.699 214.779C409.686 214.81 409.663 214.835 409.634 214.85C408.03 215.548 406.292 215.883 404.544 215.831ZM398.669 214.026C401.269 215.99 406.642 215.872 409.208 214.736C407.555 214.085 405.708 214.128 404.087 214.855C404.036 214.877 403.977 214.868 403.935 214.831C402.498 213.564 400.263 213.595 398.668 214.031" fill="#753F29"/>
<path d="M264.559 129.177L240.428 193.421L341.497 194.048L367.352 128.236L264.559 129.177Z" fill="white"/>
<path d="M243.823 190.306C244.069 189.032 244.477 187.795 245.037 186.624C245.703 184.9 264.474 134.434 264.859 133.308C265.368 131.82 265.682 130.565 268.11 130.565H360.391C362.741 130.565 363.838 131.936 362.585 135.383C361.332 138.83 341.875 188.739 341.562 189.561C341.249 190.383 340.462 192.46 338.35 192.46H246.787C245.377 192.46 243.823 191.899 243.823 190.306ZM341.053 195.398C342.851 195.576 344.524 194.461 345.053 192.734C345.93 190.562 364.732 141.808 365.88 138.57C367.028 135.332 368.18 131.884 368.18 130.631C368.073 128.83 366.535 127.45 364.733 127.539H264.707C262.269 127.539 261.648 129.261 261.217 130.36C261.217 130.36 240.185 186.668 239.468 188.627C238.751 190.586 238.082 191.827 238.082 193.407C238.082 194.987 239.946 195.367 241.189 195.367C241.189 195.367 336.977 195.398 341.051 195.398" fill="#102441"/>
<g opacity="0.5">
<mask id="mask4_209_4486" style="mask-type:luminance" maskUnits="userSpaceOnUse" x="346" y="99" width="82" height="48">
<path d="M427.81 99.6394H346.485V146.178H427.81V99.6394Z" fill="white"/>
</mask>
<g mask="url(#mask4_209_4486)">
<path d="M427.81 99.6394H346.485V146.178H427.81V99.6394Z" fill="#000100"/>
</g>
</g>
<path d="M424.833 96.6625H343.508V143.201H424.833V96.6625Z" fill="#FEF8F8"/>
<path d="M348.68 109.383C348.203 109.382 347.817 108.995 347.818 108.517C347.819 108.041 348.204 107.657 348.68 107.656H365.306C365.783 107.655 366.171 108.04 366.172 108.517C366.173 108.994 365.787 109.382 365.31 109.383H365.307H348.68Z" fill="black"/>
<path d="M368.168 109.383C367.691 109.382 367.305 108.995 367.306 108.517C367.307 108.041 367.692 107.657 368.168 107.656H418.425C418.902 107.657 419.288 108.043 419.287 108.521C419.286 108.997 418.901 109.382 418.425 109.383H368.168Z" fill="black"/>
<path d="M395.537 121.044C395.06 121.043 394.674 120.656 394.675 120.178C394.676 119.702 395.061 119.318 395.537 119.317H419.451C419.928 119.318 420.314 119.705 420.313 120.182C420.312 120.658 419.927 121.043 419.451 121.044H395.537Z" fill="black"/>
<path d="M403.149 132.596C402.672 132.58 402.299 132.18 402.315 131.703C402.331 131.249 402.695 130.886 403.149 130.87H417.67C418.147 130.854 418.547 131.226 418.563 131.703C418.579 132.18 418.206 132.58 417.729 132.596C417.709 132.597 417.69 132.597 417.67 132.596H403.149Z" fill="#5CBEC1"/>
<path d="M351.271 132.596C350.794 132.58 350.421 132.18 350.437 131.703C350.453 131.249 350.817 130.886 351.271 130.87H364.871C365.348 130.886 365.721 131.285 365.705 131.762C365.689 132.216 365.325 132.58 364.871 132.596H351.271Z" fill="black"/>
<path d="M368.222 132.596C367.745 132.58 367.372 132.18 367.388 131.703C367.404 131.249 367.768 130.886 368.222 130.87H381.394C381.871 130.886 382.244 131.285 382.228 131.762C382.212 132.216 381.848 132.58 381.394 132.596H368.222Z" fill="black"/>
<path d="M387.71 132.596C387.233 132.58 386.86 132.18 386.876 131.703C386.892 131.249 387.256 130.886 387.71 130.87H399.64C400.117 130.854 400.517 131.226 400.533 131.703C400.549 132.18 400.176 132.58 399.699 132.596C399.679 132.597 399.66 132.597 399.64 132.596H387.71Z" fill="black"/>
<path d="M348.735 121.044C348.258 121.043 347.872 120.656 347.873 120.178C347.874 119.702 348.259 119.318 348.735 119.317H368.978C369.455 119.318 369.841 119.705 369.84 120.182C369.839 120.658 369.454 121.043 368.978 121.044H348.735Z" fill="black"/>
<path d="M371.893 121.044C371.416 121.045 371.028 120.659 371.027 120.182C371.026 119.705 371.412 119.318 371.889 119.317H371.892H392.351C392.828 119.318 393.214 119.705 393.213 120.182C393.212 120.658 392.827 121.043 392.351 121.044H371.893Z" fill="#5CBEC1"/>
<path d="M350.436 137.12C350.337 137.12 350.243 137.081 350.173 137.011C347.399 134.226 347.399 129.722 350.173 126.937C350.318 126.792 350.553 126.792 350.698 126.937C350.843 127.082 350.844 127.316 350.699 127.461C348.217 129.957 348.217 133.99 350.699 136.486C350.844 136.63 350.845 136.865 350.7 137.011C350.63 137.081 350.535 137.12 350.436 137.12Z" fill="black"/>
<path d="M382.499 137.12C382.294 137.119 382.128 136.952 382.128 136.747C382.128 136.649 382.167 136.555 382.236 136.486C384.718 133.99 384.718 129.957 382.236 127.461C382.091 127.316 382.092 127.082 382.237 126.937C382.382 126.792 382.617 126.792 382.762 126.937C385.536 129.722 385.536 134.226 382.762 137.011C382.692 137.081 382.598 137.12 382.499 137.12Z" fill="black"/>
<path d="M307.19 139.357C317.69 139.357 328.883 144.914 328.883 157.51C328.883 172.041 313.776 184.019 298.175 184.019C285.332 184.019 277.017 175.786 277.017 165.578C277.017 150.389 294.182 139.357 307.19 139.357Z" fill="#5CBEC1"/>
<path d="M279.075 165.701C279.075 154.628 291.465 141.501 307.396 141.501C323.327 141.501 326.825 153.068 326.825 156.855C326.825 172.827 309.825 181.841 298.957 181.841C283.891 181.841 279.075 172.498 279.075 165.706" fill="black"/>
<path d="M310 167.994L306.872 150.431C306.872 150.431 306.68 149.196 305.72 149.196C304.76 149.196 304.403 149.717 303.881 150.458C303.359 151.199 291.203 168.049 290.846 168.515C290.489 168.981 289.832 170.182 290.572 170.655C291.258 171.094 292.109 170.984 293.015 169.694C293.441 169.088 296.003 165.537 298.598 161.946L307.285 170.298C307.285 170.298 308.355 171.098 309.179 170.627C309.279 170.571 310.606 170.353 310.002 167.992M300.387 159.472C302.619 156.385 304.487 153.804 304.487 153.804L306.545 165.275L300.387 159.472Z" fill="white"/>
</g>
</g>
</svg>
