<svg width="490" height="480" viewBox="0 0 490 480" fill="none" xmlns="http://www.w3.org/2000/svg">
<g filter="url(#filter0_d_209_4811)">
<g clip-path="url(#clip0_209_4811)">
<mask id="mask0_209_4811" style="mask-type:luminance" maskUnits="userSpaceOnUse" x="4" y="7" width="406" height="473">
<path d="M409.593 7.77881H4.3418V479.737H409.593V7.77881Z" fill="white"/>
</mask>
<g mask="url(#mask0_209_4811)">
<path d="M194.066 495.547L370.523 628.032L252.313 366.228L194.066 495.539V495.547ZM57.9835 753.941C53.808 753.941 49.582 753.091 45.5159 751.239C30.203 744.361 23.4009 726.37 30.2787 711.073L224.566 279.878C234.382 258.032 270.134 258.015 279.975 279.853L474.624 710.888C480.324 723.516 476.746 738.425 465.928 747.122C455.035 755.768 439.747 755.961 428.686 747.711L168.474 552.348L85.7051 736.035C80.6289 747.29 69.5672 753.941 57.9835 753.949V753.941Z" fill="#1A0000" stroke="#EE0000" stroke-width="0.14" stroke-miterlimit="10"/>
<path d="M193.426 465.653L369.883 598.137L251.673 336.334L193.426 465.644V465.653ZM57.3437 724.046C53.1682 724.046 48.9422 723.188 44.8761 721.344C29.58 714.424 22.7611 696.475 29.6389 681.179L223.926 249.984C233.742 228.137 269.495 228.12 279.336 249.958L473.985 680.993C479.684 693.621 476.131 708.565 465.289 717.227C454.446 725.89 439.107 726.067 428.046 717.817L167.835 522.453L85.0653 706.14C79.9891 717.396 68.9274 724.046 57.3437 724.055V724.046Z" fill="#350000" stroke="#EE0000" stroke-width="0.28" stroke-miterlimit="10"/>
<path d="M192.778 435.758L369.235 568.242L251.025 306.439L192.778 435.75V435.758ZM56.7039 694.152C52.5284 694.152 48.3024 693.293 44.2363 691.449C28.9402 684.529 22.1213 666.581 28.9991 651.284L223.286 220.089C233.102 198.242 268.855 198.226 278.696 220.064L473.345 651.099C479.044 663.727 475.492 678.67 464.649 687.333C453.806 695.995 438.468 696.172 427.406 687.922L167.195 492.559L84.4255 676.245C79.3492 687.501 68.2875 694.152 56.7039 694.16V694.152Z" fill="#4F0000" stroke="#EE0000" stroke-width="0.43" stroke-miterlimit="10"/>
<path d="M192.138 405.872L368.595 538.356L250.385 276.553L192.138 405.863V405.872ZM56.0557 664.266C51.8802 664.266 47.6542 663.407 43.5881 661.563C28.292 654.643 21.4731 636.694 28.3509 621.398L222.646 190.203C232.462 168.356 268.215 168.339 278.056 190.177L472.705 621.213C478.404 633.841 474.852 648.784 464.009 657.446C453.166 666.109 437.828 666.286 426.766 658.036L166.555 462.672L83.7857 646.359C78.7095 657.615 67.6478 664.266 56.0641 664.274L56.0557 664.266Z" fill="#6A0000" stroke="#EE0000" stroke-width="0.57" stroke-miterlimit="10"/>
<path d="M191.499 375.977L367.956 508.461L249.745 246.658L191.499 375.969V375.977ZM55.4159 634.371C51.2404 634.371 47.0144 633.512 42.9483 631.669C27.6522 624.748 20.8333 606.8 27.7111 591.503L222.007 160.308C231.822 138.462 267.575 138.445 277.416 160.283L472.065 591.318C477.765 603.946 474.212 618.889 463.369 627.552C452.501 636.231 437.188 636.391 426.126 628.141L165.915 432.778L83.146 616.464C78.0697 627.72 67.008 634.371 55.4243 634.379L55.4159 634.371Z" fill="#840000" stroke="#EE0000" stroke-width="0.71" stroke-miterlimit="10"/>
<path d="M190.859 346.082L367.316 478.567L249.105 216.764L190.859 346.074V346.082ZM54.7761 604.476C50.6006 604.476 46.3746 603.618 42.3085 601.774C27.0124 594.854 20.1935 576.905 27.0713 561.608L221.367 130.422C231.183 108.575 266.935 108.559 276.776 130.397L471.426 561.432C477.125 574.06 473.572 589.003 462.729 597.666C451.861 606.345 436.548 606.505 425.487 598.255L165.275 402.892L82.5061 586.578C77.4299 597.834 66.3682 604.485 54.7845 604.493L54.7761 604.476Z" fill="#9F0000" stroke="#EE0000" stroke-width="0.85" stroke-miterlimit="10"/>
<path d="M190.211 316.188L366.668 448.672L248.457 186.869L190.211 316.179V316.188ZM54.1363 574.582C49.9608 574.582 45.7348 573.723 41.6687 571.879C26.3726 564.959 19.5537 547.011 26.4315 531.714L220.719 100.527C230.534 78.6807 266.287 78.6639 276.128 100.502L470.777 531.537C476.476 544.165 472.924 559.108 462.081 567.771C451.238 576.434 435.9 576.611 424.838 568.36L164.627 372.997L81.8579 556.684C76.7817 567.939 65.72 574.59 54.1363 574.599V574.582Z" fill="#B90000" stroke="#EE0000" stroke-miterlimit="10"/>
<path d="M189.571 286.293L366.028 418.778L247.817 156.974L189.571 286.285V286.293ZM53.4881 544.687C49.3126 544.687 45.0866 543.837 41.0205 541.985C25.7075 535.106 18.9055 517.116 25.7833 501.819L220.079 70.6325C229.895 48.7861 265.647 48.7693 275.488 70.6072L470.137 501.642C475.837 514.27 472.259 529.18 461.441 537.876C450.548 546.522 435.26 546.716 424.199 538.466L163.987 343.102L81.2181 526.789C76.1419 538.045 65.0802 544.695 53.4965 544.704L53.4881 544.687Z" fill="#D40000" stroke="#EE0000" stroke-width="1.14" stroke-miterlimit="10"/>
<path d="M50.8027 508.099C46.6272 508.099 42.4012 507.249 38.3351 505.397C23.0221 498.519 16.2201 480.528 23.0979 465.232L217.393 34.0366C227.209 12.1902 262.962 12.1734 272.803 34.0114L467.452 465.047C473.151 477.674 469.574 492.584 458.756 501.28C447.863 509.926 432.575 510.12 421.513 501.87L161.302 306.506L78.5327 490.193C73.4565 501.449 62.3947 508.099 50.8111 508.108L50.8027 508.099ZM186.885 249.706L363.342 382.19L245.132 120.387L186.885 249.697V249.706Z" fill="white"/>
</g>
<mask id="mask1_209_4811" style="mask-type:luminance" maskUnits="userSpaceOnUse" x="-13" y="0" width="505" height="480">
<path d="M-13 479.729H492L289.589 25.9042L260.74 0L205.406 7.06325L-13 479.729Z" fill="white"/>
</mask>
<g mask="url(#mask1_209_4811)">
<g filter="url(#filter1_d_209_4811)">
<path d="M50.8027 508.099C46.6272 508.099 42.4012 507.249 38.3351 505.397C23.0221 498.519 16.2201 480.528 23.0979 465.232L217.393 34.0366C227.209 12.1902 262.962 12.1734 272.803 34.0114L467.452 465.047C473.151 477.674 469.574 492.584 458.756 501.28C447.863 509.926 432.575 510.12 421.513 501.87L161.302 306.506L78.5327 490.193C73.4565 501.449 62.3947 508.099 50.8111 508.108L50.8027 508.099ZM186.885 249.706L363.342 382.19L245.132 120.387L186.885 249.697V249.706Z" fill="white"/>
</g>
</g>
</g>
</g>
<defs>
<filter id="filter0_d_209_4811" x="0" y="0" width="490" height="488" filterUnits="userSpaceOnUse" color-interpolation-filters="sRGB">
<feFlood flood-opacity="0" result="BackgroundImageFix"/>
<feColorMatrix in="SourceAlpha" type="matrix" values="0 0 0 0 0 0 0 0 0 0 0 0 0 0 0 0 0 0 127 0" result="hardAlpha"/>
<feOffset dy="4"/>
<feGaussianBlur stdDeviation="2"/>
<feComposite in2="hardAlpha" operator="out"/>
<feColorMatrix type="matrix" values="0 0 0 0 0 0 0 0 0 0 0 0 0 0 0 0 0 0 0.25 0"/>
<feBlend mode="normal" in2="BackgroundImageFix" result="effect1_dropShadow_209_4811"/>
<feBlend mode="normal" in="SourceGraphic" in2="effect1_dropShadow_209_4811" result="shape"/>
</filter>
<filter id="filter1_d_209_4811" x="7.41583" y="4.64233" width="469.724" height="510.466" filterUnits="userSpaceOnUse" color-interpolation-filters="sRGB">
<feFlood flood-opacity="0" result="BackgroundImageFix"/>
<feColorMatrix in="SourceAlpha" type="matrix" values="0 0 0 0 0 0 0 0 0 0 0 0 0 0 0 0 0 0 127 0" result="hardAlpha"/>
<feOffset dx="-3" dy="-3"/>
<feGaussianBlur stdDeviation="5"/>
<feColorMatrix type="matrix" values="0 0 0 0 0 0 0 0 0 0 0 0 0 0 0 0 0 0 0.4 0"/>
<feBlend mode="normal" in2="BackgroundImageFix" result="effect1_dropShadow_209_4811"/>
<feBlend mode="normal" in="SourceGraphic" in2="effect1_dropShadow_209_4811" result="shape"/>
</filter>
<clipPath id="clip0_209_4811">
<rect width="482" height="480" fill="white" transform="translate(4)"/>
</clipPath>
</defs>
</svg>
