<?xml version="1.0" encoding="UTF-8" standalone="no"?>
<!-- Generator: Adobe Illustrator 26.5.0, SVG Export Plug-In . SVG Version: 6.00 Build 0)  -->

<svg
   version="1.1"
   x="0px"
   y="0px"
   viewBox="0 0 1386.6366 1189.3557"
   enable-background="new 0 0 1296 1728"
   xml:space="preserve"
   id="svg50"
   sodipodi:docname="bullito.svg"
   width="1386.6366"
   height="1189.3557"
   xmlns:inkscape="http://www.inkscape.org/namespaces/inkscape"
   xmlns:sodipodi="http://sodipodi.sourceforge.net/DTD/sodipodi-0.dtd"
   xmlns="http://www.w3.org/2000/svg"
   xmlns:svg="http://www.w3.org/2000/svg"><defs
   id="defs50" /><sodipodi:namedview
   id="namedview50"
   pagecolor="#ffffff"
   bordercolor="#111111"
   borderopacity="1"
   inkscape:showpageshadow="0"
   inkscape:pageopacity="0"
   inkscape:pagecheckerboard="1"
   inkscape:deskcolor="#d1d1d1"
   showgrid="false"
   inkscape:zoom="0.44733796"
   inkscape:cx="532.03622"
   inkscape:cy="635.98448"
   inkscape:window-width="1920"
   inkscape:window-height="979"
   inkscape:window-x="0"
   inkscape:window-y="0"
   inkscape:window-maximized="1"
   inkscape:current-layer="layer1" />&#10;&#10;<g
   id="Layer_2"
   transform="translate(361.11887,-183.66724)">&#10;	<g
   id="g50">&#10;		<g
   id="g1">&#10;			<ellipse
   fill="#006bb6"
   cx="630"
   cy="373.01401"
   rx="18"
   ry="13.5"
   id="ellipse1" />&#10;			<path
   d="m 630,391.015 c -12.406,0 -22.5,-8.075 -22.5,-18 0,-9.925 10.094,-18 22.5,-18 12.406,0 22.5,8.075 22.5,18 0,9.925 -10.094,18 -22.5,18 z m 0,-27 c -7.317,0 -13.5,4.121 -13.5,9 0,4.879 6.183,9 13.5,9 7.317,0 13.5,-4.121 13.5,-9 0,-4.879 -6.183,-9 -13.5,-9 z"
   id="path1" />&#10;		</g>&#10;		<g
   id="g3">&#10;			<path
   fill="#565656"
   d="m 965.456,1072.705 c 0,-86.76 -147.493,-198.169 -329.435,-198.169 -181.942,0 -329.435,111.409 -329.435,198.169 0,44.191 38.281,84.113 99.873,112.657 l 18.705,174.568 c 0,0 130.862,-52.512 207,-54.459 147.19,-3.765 216,54.459 216,54.459 l 11.619,-171.944 c 64.981,-28.694 105.673,-69.719 105.673,-115.281 z"
   id="path2" />&#10;			<path
   d="m 852.054,1369.115 -6.797,-5.75 c -0.165,-0.14 -17.352,-14.43 -52.031,-28.082 -32.025,-12.606 -85.956,-27.251 -160.946,-25.313 -74.449,1.903 -204.138,53.614 -205.439,54.137 l -5.517,2.213 -19.068,-177.956 c -64.623,-30.517 -100.169,-71.526 -100.169,-115.658 0,-44.729 36.837,-95.343 98.539,-135.395 31.099,-20.187 67.709,-36.896 105.874,-48.322 42.003,-12.575 85.581,-18.952 129.521,-18.952 43.94,0 87.519,6.377 129.521,18.952 38.165,11.427 74.776,28.136 105.875,48.322 61.702,40.052 98.539,90.666 98.539,135.395 0,23.451 -9.987,46.008 -29.684,67.042 -18.199,19.436 -43.818,36.667 -76.183,51.245 z M 636.021,879.036 c -43.065,0 -85.774,6.249 -126.94,18.574 -37.355,11.185 -73.165,27.522 -103.555,47.25 -28.928,18.776 -52.935,40.543 -69.427,62.946 -16.363,22.229 -25.013,44.67 -25.013,64.898 0,20.451 8.639,40.36 25.675,59.176 16.792,18.546 40.879,35.166 71.591,49.398 l 2.311,1.071 18.349,171.241 c 11.114,-4.294 37.858,-14.356 69.743,-24.451 56.449,-17.873 101.297,-27.351 133.295,-28.169 76.804,-1.949 132.096,13.126 164.967,26.132 23.452,9.278 39.032,18.724 47.213,24.324 l 11.248,-166.459 2.489,-1.099 c 32.425,-14.318 57.906,-31.233 75.736,-50.274 18.085,-19.312 27.254,-39.799 27.254,-60.891 0,-20.229 -8.649,-42.67 -25.013,-64.898 -16.492,-22.403 -40.5,-44.17 -69.427,-62.946 -30.391,-19.728 -66.199,-36.065 -103.556,-47.25 -41.166,-12.324 -83.875,-18.573 -126.94,-18.573 z"
   id="path3" />&#10;		</g>&#10;		<g
   id="g5">&#10;			<path
   fill="#333233"
   d="m 983.164,954.93 c 0,0 -9,27 -18,36 -9,9 -36,27 -36,27 l -18,-27 c 0,0 27,-9 36,-18 9,-9 36,-36 36,-36 z"
   id="path4" />&#10;			<path
   d="m 927.916,1024.17 -23.764,-35.645 5.588,-1.864 c 7.233,-2.413 27.484,-10.156 34.242,-16.913 l 43.682,-43.683 v 29.595 l -0.23,0.692 c -0.382,1.144 -9.447,28.119 -19.088,37.759 -9.209,9.21 -35.568,26.817 -36.686,27.562 z m -9.812,-30.941 12.29,18.435 c 7.65,-5.224 24.957,-17.285 31.588,-23.915 6.555,-6.556 14.036,-25.808 16.682,-33.558 v -6.396 l -28.318,28.317 c -7.094,7.093 -23.574,13.876 -32.242,17.117 z"
   id="path5" />&#10;		</g>&#10;		<path
   fill="#333233"
   d="m 840.852,1195.739 c 75.918,-28.779 124.604,-73.193 124.604,-123.034 0,-62.732 -77.118,-138.338 -188.604,-175.412 L 524.164,936.93 c 0,0 180,72 270,90 90,18 81,54 81,90 0,31.295 -27.201,69.385 -34.312,78.809 z"
   id="path6" />&#10;		<path
   d="m 636.021,1234.298 c -88.651,0 -172.067,-16.496 -234.882,-46.449 -63.875,-30.46 -99.053,-71.352 -99.053,-115.144 0,-44.729 36.837,-95.343 98.539,-135.395 31.099,-20.187 67.71,-36.896 105.874,-48.322 42.004,-12.575 85.581,-18.952 129.521,-18.952 43.94,0 87.519,6.377 129.521,18.952 38.165,11.427 74.776,28.136 105.875,48.322 61.702,40.052 98.539,90.666 98.539,135.395 0,43.792 -35.178,84.684 -99.053,115.144 -62.813,29.953 -146.229,46.449 -234.881,46.449 z m 0,-355.262 c -43.065,0 -85.774,6.249 -126.94,18.574 -37.355,11.185 -73.164,27.522 -103.555,47.25 -28.927,18.776 -52.935,40.543 -69.427,62.946 -16.363,22.229 -25.013,44.67 -25.013,64.898 0,40.13 33.356,78.137 93.926,107.02 61.63,29.389 143.67,45.573 231.009,45.573 87.339,0 169.38,-16.185 231.009,-45.573 60.569,-28.883 93.927,-66.89 93.927,-107.02 0,-20.229 -8.649,-42.67 -25.013,-64.898 -16.492,-22.403 -40.5,-44.17 -69.427,-62.946 -30.391,-19.728 -66.199,-36.065 -103.556,-47.25 -41.166,-12.325 -83.875,-18.574 -126.94,-18.574 z"
   id="path7" />&#10;		<g
   id="g10">&#10;			<g
   id="g8">&#10;				&#10;					<ellipse
   transform="matrix(0.9741,-0.226,0.226,0.9741,-132.0623,222.4025)"
   fill="#333233"
   cx="905.117"
   cy="687.867"
   rx="46.521"
   ry="28.575001"
   id="ellipse7" />&#10;				<path
   d="m 895.128,722.136 c -6.749,0 -13.18,-0.964 -18.915,-2.882 -11.318,-3.786 -18.704,-10.838 -20.797,-19.854 v 0 c -2.092,-9.017 1.434,-18.6 9.929,-26.983 7.923,-7.819 19.393,-13.775 32.295,-16.77 27.873,-6.468 52.985,2.619 57.178,20.687 2.092,9.017 -1.434,18.6 -9.929,26.983 -7.923,7.819 -19.393,13.775 -32.295,16.77 -5.894,1.367 -11.792,2.049 -17.466,2.049 z m 19.848,-59.507 c -4.897,0 -10.071,0.572 -15.301,1.786 -11.306,2.623 -21.253,7.74 -28.008,14.408 -6.185,6.104 -8.842,12.688 -7.483,18.542 v 0 c 1.358,5.854 6.645,10.597 14.884,13.354 9.003,3.011 20.184,3.226 31.491,0.601 11.306,-2.623 21.253,-7.74 28.008,-14.408 6.185,-6.104 8.842,-12.688 7.483,-18.542 -2.254,-9.718 -15.196,-15.741 -31.074,-15.741 z"
   id="path8" />&#10;			</g>&#10;			<g
   id="g9">&#10;				&#10;					<ellipse
   transform="matrix(0.226,-0.9741,0.9741,0.226,-385.8548,889.6263)"
   fill="#333233"
   cx="366.92499"
   cy="687.63599"
   rx="28.575001"
   ry="46.521"
   id="ellipse8" />&#10;				<path
   d="m 377.089,721.936 c -5.624,0 -11.566,-0.671 -17.641,-2.08 -12.903,-2.994 -24.373,-8.95 -32.296,-16.77 -8.494,-8.384 -12.02,-17.967 -9.928,-26.983 2.093,-9.016 9.479,-16.066 20.797,-19.853 10.556,-3.531 23.476,-3.828 36.381,-0.833 27.868,6.467 46.415,25.686 42.223,43.753 v 0 c -3.279,14.128 -19.355,22.766 -39.536,22.766 z M 356.918,662.36 c -5.764,0 -11.216,0.811 -16.042,2.425 -8.239,2.756 -13.525,7.498 -14.884,13.353 -1.358,5.854 1.299,12.439 7.482,18.543 6.756,6.667 16.702,11.784 28.009,14.407 22.186,5.152 43.422,-1.241 46.374,-13.953 v 0 c 2.95,-12.712 -13.303,-27.802 -35.49,-32.95 -5.244,-1.218 -10.463,-1.825 -15.449,-1.825 z"
   id="path9" />&#10;			</g>&#10;		</g>&#10;		<g
   id="g13">&#10;			<g
   id="g12">&#10;				<path
   fill="#565656"
   d="m 926.918,731.415 c 11.398,54.284 20.679,132.47 -5.97,174.358 -51.65,81.184 -181.846,104.493 -289.484,104.493 -110.823,0 -229.933,0.967 -280.492,-84.232 -23.884,-40.247 -19.736,-148.694 -6.316,-194.619 42.597,-145.767 77.497,-249.489 283.215,-245.806 216.594,3.879 267.64,96.223 299.047,245.806 z"
   id="path10" />&#10;				<g
   id="g11">&#10;					<path
   fill="#333233"
   d="M 926.918,731.415 C 895.511,581.832 844.465,489.488 627.871,485.61 c -46.843,-0.839 -84.826,3.893 -116.063,13.421 199.909,10.324 249.525,94.269 280.579,226.611 11.793,50.258 21.396,122.644 -6.177,161.425 -53.439,75.163 -188.147,96.742 -299.515,96.742 -23.462,0 -47.282,0.036 -70.781,-0.58 59.075,27.492 139.275,27.036 215.55,27.036 107.638,0 237.834,-23.309 289.484,-104.493 26.649,-41.887 17.368,-120.073 5.97,-174.357 z"
   id="path11" />&#10;				</g>&#10;			</g>&#10;			<path
   d="m 624.085,1014.766 c -53.941,0 -109.479,-0.227 -158.066,-10.617 -56.973,-12.184 -95.87,-36.983 -118.916,-75.818 -15.042,-25.348 -17.595,-71.932 -17.776,-97.444 -0.268,-37.387 4.055,-76.927 11.012,-100.733 22.996,-78.692 42.298,-137.719 81.429,-180.713 44.003,-48.349 109.507,-70.079 206.187,-68.329 104.292,1.867 174.838,23.96 222.014,69.526 48.056,46.416 67.502,113.877 81.355,179.854 v 0 c 21.838,104 8.477,154.036 -6.577,177.698 -24.158,37.972 -66.629,66.429 -126.232,84.579 -59.704,18.181 -123.795,21.997 -167.048,21.997 h -3.692 c -1.23,-10e-4 -2.461,0 -3.69,0 z m -6.681,-524.751 c -88.206,0 -148.422,20.917 -188.982,65.482 -37.831,41.567 -56.791,99.655 -79.445,177.181 -13.686,46.83 -16.556,153.276 5.866,191.059 21.694,36.558 58.676,59.981 113.058,71.611 48.765,10.428 105.24,10.419 159.871,10.417 h 3.693 c 42.642,0 105.782,-3.749 164.427,-21.607 57.489,-17.507 98.287,-44.691 121.26,-80.801 27,-42.438 14.949,-125.363 5.362,-171.017 v 0 c -13.558,-64.575 -32.488,-130.498 -78.8,-175.229 -45.437,-43.887 -114.047,-65.178 -215.923,-67.002 -3.501,-0.063 -6.971,-0.094 -10.387,-0.094 z"
   id="path12" />&#10;		</g>&#10;		<ellipse
   fill="#707070"
   cx="639"
   cy="1156.014"
   rx="126"
   ry="130.5"
   id="ellipse13" />&#10;		<g
   id="g16">&#10;			<g
   id="g14">&#10;				<ellipse
   fill="#f6bdc0"
   cx="861.28497"
   cy="836.03101"
   rx="47.747002"
   ry="38.505001"
   id="ellipse14" />&#10;				<path
   fill="#ffffff"
   d="m 826.789,828.923 c -0.666,0 -1.341,-0.167 -1.96,-0.518 -1.914,-1.084 -2.6,-3.499 -1.528,-5.419 0.269,-0.479 2.794,-4.836 8.936,-9.971 6.065,-5.072 12.979,-6.303 13.27,-6.353 2.169,-0.37 4.244,1.09 4.618,3.267 0.372,2.173 -1.082,4.235 -3.251,4.615 -0.121,0.022 -5.179,0.99 -9.506,4.607 -5.018,4.196 -7.072,7.719 -7.093,7.754 -0.742,1.291 -2.095,2.017 -3.486,2.018 z"
   id="path14" />&#10;			</g>&#10;			<g
   id="g15">&#10;				<ellipse
   fill="#f6bdc0"
   cx="410.75699"
   cy="836.03101"
   rx="47.747002"
   ry="38.505001"
   id="ellipse15" />&#10;				<path
   fill="#ffffff"
   d="m 376.261,828.923 c -0.666,0 -1.341,-0.167 -1.96,-0.518 -1.914,-1.084 -2.6,-3.499 -1.528,-5.419 0.269,-0.479 2.794,-4.836 8.936,-9.971 6.065,-5.072 12.979,-6.303 13.27,-6.353 2.175,-0.37 4.245,1.09 4.618,3.267 0.372,2.173 -1.082,4.235 -3.251,4.615 -0.121,0.022 -5.179,0.99 -9.506,4.607 -5.018,4.196 -7.072,7.719 -7.093,7.754 -0.742,1.291 -2.096,2.017 -3.486,2.018 z"
   id="path15" />&#10;			</g>&#10;		</g>&#10;		<g
   id="g20">&#10;			<g
   id="g17">&#10;				<circle
   cx="477.172"
   cy="762.68298"
   r="47.922001"
   id="circle16" />&#10;				<circle
   fill="#ffffff"
   cx="493.43799"
   cy="743.77502"
   r="13.778"
   id="circle17" />&#10;				<path
   d="m 443.056,734.679 c -0.214,0 -0.43,-0.018 -0.647,-0.053 -0.371,-0.061 -3.791,-0.664 -9.713,-3.201 -6.345,-2.72 -10.578,-7.208 -10.755,-7.397 -1.508,-1.615 -1.421,-4.146 0.194,-5.653 1.615,-1.509 4.146,-1.421 5.653,0.194 0.024,0.025 3.313,3.47 8.059,5.503 5.012,2.147 7.844,2.657 7.871,2.662 2.168,0.379 3.634,2.439 3.267,4.608 -0.331,1.952 -2.013,3.337 -3.929,3.337 z"
   id="path17" />&#10;			</g>&#10;			<g
   id="g19">&#10;				<circle
   cx="794.87"
   cy="762.68298"
   r="47.922001"
   id="circle18" />&#10;				<circle
   fill="#ffffff"
   cx="806.604"
   cy="743.77502"
   r="13.778"
   id="circle19" />&#10;				<path
   d="m 828.985,734.679 c -1.926,0 -3.623,-1.395 -3.943,-3.357 -0.354,-2.173 1.115,-4.223 3.284,-4.588 0.092,-0.017 2.916,-0.54 7.87,-2.662 4.744,-2.033 8.033,-5.478 8.066,-5.512 1.513,-1.602 4.043,-1.682 5.649,-0.172 1.606,1.509 1.693,4.028 0.189,5.64 -0.177,0.189 -4.41,4.678 -10.754,7.397 -5.923,2.537 -9.343,3.141 -9.714,3.201 -0.216,0.035 -0.433,0.053 -0.647,0.053 z"
   id="path19" />&#10;			</g>&#10;		</g>&#10;		<g
   id="g25">&#10;			<ellipse
   fill="#f6bdc0"
   cx="636.021"
   cy="894.10602"
   rx="165.985"
   ry="107.396"
   id="ellipse20" />&#10;			<g
   id="g22">&#10;				&#10;					<ellipse
   transform="matrix(0.9709,-0.2394,0.2394,0.9709,-188.4865,161.8097)"
   cx="571.69702"
   cy="856.63599"
   rx="23.982"
   ry="13.851"
   id="ellipse21" />&#10;				&#10;					<ellipse
   transform="matrix(0.2394,-0.9709,0.9709,0.2394,-299.066,1331.4897)"
   cx="700.34399"
   cy="856.63599"
   rx="13.851"
   ry="23.982"
   id="ellipse22" />&#10;			</g>&#10;			<g
   id="g23">&#10;				<path
   fill="#dd9099"
   d="m 727.341,804.419 c 19.246,20.034 30.687,45.064 30.687,72.222 0,74.77 -97.025,109.752 -179.736,109.752 -12.5,0 -23.951,-1.011 -34.396,-2.943 26.358,11.401 58.039,18.052 92.124,18.052 91.671,0 165.985,-48.083 165.985,-107.396 0,-37.483 -29.684,-70.474 -74.664,-89.687 z"
   id="path22" />&#10;			</g>&#10;			<g
   id="g24">&#10;				<path
   fill="#ffffff"
   d="m 652.681,787.246 c -5.479,-0.353 -11.036,-0.537 -16.66,-0.537 -90.123,0 -163.467,46.474 -165.917,104.403 22.805,-52.996 101.352,-99.93 182.577,-103.866 z"
   id="path23" />&#10;			</g>&#10;			<path
   d="m 636.021,1006.002 c -45.193,0 -87.743,-11.428 -119.813,-32.178 -32.676,-21.142 -50.671,-49.453 -50.671,-79.719 0,-30.265 17.995,-58.576 50.671,-79.718 32.07,-20.75 74.62,-32.178 119.813,-32.178 45.193,0 87.743,11.428 119.813,32.178 32.676,21.142 50.671,49.453 50.671,79.718 0,30.266 -17.995,58.577 -50.671,79.719 -32.07,20.75 -74.62,32.178 -119.813,32.178 z m 0,-214.792 c -89.043,0 -161.484,46.159 -161.484,102.896 0,56.737 72.441,102.896 161.484,102.896 89.043,0 161.484,-46.159 161.484,-102.896 0,-56.737 -72.442,-102.896 -161.484,-102.896 z"
   id="path24" />&#10;		</g>&#10;		<path
   d="m 779.779,1218.039 -12.31,-16.147 3.107,-2.773 c 0.275,-0.246 27.667,-24.837 38.926,-47.372 11.149,-22.315 9.827,-77.243 9.812,-77.795 l 8.996,-0.24 c 0.063,2.346 1.396,57.733 -10.758,82.059 -9.831,19.677 -30.157,39.907 -37.919,47.234 l 3.917,5.138 c 10.723,-2.195 51.027,-11.009 80.698,-25.03 l 3.846,8.137 c -35.4,16.729 -83.556,25.896 -85.589,26.278 z"
   id="path25" />&#10;		<path
   d="m 492.261,1218.039 -2.727,-0.513 c -2.033,-0.382 -50.188,-9.549 -85.589,-26.278 l 3.846,-8.137 c 29.671,14.021 69.976,22.835 80.698,25.03 l 3.918,-5.138 c -7.762,-7.327 -28.088,-27.558 -37.919,-47.234 -12.153,-24.325 -10.821,-79.713 -10.758,-82.059 l 8.996,0.24 c -0.015,0.552 -1.337,55.479 9.812,77.795 11.259,22.535 38.65,47.126 38.926,47.372 l 3.107,2.773 z"
   id="path26" />&#10;		<g
   id="g28">&#10;			<path
   fill="#333233"
   d="m 784.743,1202.056 c -11.552,-17.227 -37.788,-19.88 -58.6,-5.924 -15.609,10.466 -23.724,27.299 -21.937,42.33 0.214,1.804 1.711,3.181 3.527,3.181 h 16.927 c 1.474,0 2.466,1.511 1.879,2.864 l -6.261,14.421 c -0.756,1.742 -10e-4,3.763 1.702,4.604 13.113,6.477 30.968,5.063 45.996,-5.014 20.812,-13.956 28.319,-39.235 16.767,-56.462 z"
   id="path27" />&#10;			<path
   d="m 739.658,1272.018 c -6.911,0 -13.628,-1.467 -19.672,-4.452 -3.861,-1.906 -5.547,-6.487 -3.837,-10.429 l 4.772,-10.994 h -13.188 c -4.075,0 -7.513,-3.074 -7.996,-7.15 -2.045,-17.201 7.336,-35.492 23.9,-46.598 22.839,-15.314 51.928,-12.105 64.843,7.155 v 0 c 12.915,19.261 4.841,47.39 -17.999,62.705 -9.62,6.451 -20.44,9.763 -30.823,9.763 z m -14.887,-12.141 c 11.966,5.489 27.831,3.529 40.698,-5.097 18.717,-12.551 25.685,-35.079 15.536,-50.219 v 0 c -10.151,-15.139 -33.638,-17.243 -52.356,-4.692 -13.523,9.067 -21.326,23.62 -20.059,37.273 h 16.069 c 2.214,0 4.262,1.105 5.476,2.957 1.214,1.853 1.412,4.17 0.529,6.201 z"
   id="path28" />&#10;		</g>&#10;		<g
   id="g30">&#10;			<path
   fill="#333233"
   d="m 490.906,1202.056 c 11.552,-17.227 37.788,-19.88 58.6,-5.924 15.609,10.466 23.724,27.299 21.937,42.33 -0.214,1.804 -1.711,3.181 -3.527,3.181 H 550.99 c -1.474,0 -2.466,1.511 -1.879,2.864 l 6.261,14.421 c 0.756,1.742 0.001,3.763 -1.702,4.604 -13.113,6.477 -30.968,5.063 -45.996,-5.014 -20.812,-13.956 -28.319,-39.235 -16.768,-56.462 z"
   id="path29" />&#10;			<path
   d="m 535.991,1272.019 c -10.384,0 -21.202,-3.312 -30.823,-9.764 -22.84,-15.315 -30.914,-43.445 -17.999,-62.705 v 0 c 12.915,-19.261 42.005,-22.471 64.844,-7.155 16.563,11.105 25.944,29.396 23.899,46.599 -0.483,4.075 -3.921,7.149 -7.996,7.149 h -13.188 l 4.772,10.993 c 1.71,3.941 0.025,8.522 -3.836,10.43 -6.043,2.985 -12.762,4.453 -19.673,4.453 z m -41.347,-67.457 c -10.15,15.139 -3.182,37.667 15.536,50.219 12.865,8.627 28.727,10.589 40.699,5.097 l -5.896,-13.578 c -0.882,-2.029 -0.684,-4.347 0.53,-6.198 1.215,-1.853 3.262,-2.958 5.476,-2.958 h 16.069 c 1.268,-13.654 -6.535,-28.206 -20.058,-37.273 -18.718,-12.553 -42.205,-10.447 -52.356,4.691 z"
   id="path30" />&#10;		</g>&#10;		<path
   fill="#333233"
   d="m 971.108,1181.126 -18.155,4.915 c -7.113,1.926 -14.44,-2.28 -16.366,-9.393 l -4.994,-18.449 c -1.128,-4.168 -4.763,-7.229 -9.073,-7.484 -37.201,-2.209 -78.06,20.541 -102.672,61.031 -32.865,54.068 -24.316,119.29 19.096,145.678 43.412,26.388 105.246,3.949 138.112,-50.119 25.303,-41.628 26.052,-89.862 5.247,-121.899 -2.407,-3.705 -6.931,-5.434 -11.195,-4.28 z"
   id="path31" />&#10;		<path
   fill="#1e1f1e"
   d="m 994.049,1213.104 c -6.025,23.297 -22.532,71.639 -61.541,106.165 -25.399,22.48 -68.539,33.702 -92.955,38.513 43.379,25.813 104.79,3.34 137.502,-50.477 18.764,-30.869 24.012,-65.365 16.994,-94.201 z"
   id="path32" />&#10;		<path
   fill="#333233"
   d="m 300.934,1181.126 18.155,4.915 c 7.113,1.926 14.44,-2.28 16.366,-9.393 l 4.994,-18.449 c 1.128,-4.168 4.763,-7.229 9.073,-7.484 37.201,-2.209 78.06,20.541 102.672,61.031 32.865,54.068 24.316,119.29 -19.096,145.678 -43.412,26.388 -105.246,3.949 -138.112,-50.119 -25.303,-41.628 -26.052,-89.862 -5.247,-121.899 2.407,-3.705 6.931,-5.434 11.195,-4.28 z"
   id="path33" />&#10;		<path
   fill="#1e1f1e"
   d="m 461.49,1229.799 c 10e-4,0.013 3.993,78.53 -52.402,104.131 -25.877,11.748 -54.56,13.995 -78.03,12.991 32.197,23.512 71.636,28.985 102.041,10.503 38.669,-23.506 49.676,-77.824 28.391,-127.625 z"
   id="path34" />&#10;		<path
   d="m 879.344,1373.023 c -15.312,10e-4 -29.884,-3.94 -42.737,-11.754 -22.186,-13.485 -36.489,-36.825 -40.276,-65.72 -3.739,-28.527 3.247,-59.12 19.672,-86.142 24.779,-40.765 66.693,-65.562 106.784,-63.187 6.217,0.369 11.502,4.71 13.15,10.801 l 4.994,18.449 c 1.273,4.706 6.138,7.503 10.847,6.226 l 18.155,-4.915 1.176,4.344 -1.176,-4.344 c 6.168,-1.67 12.659,0.81 16.143,6.172 10.862,16.726 16.184,37.461 15.391,59.963 -0.805,22.843 -7.916,45.915 -20.565,66.726 -16.426,27.021 -40.366,47.309 -67.412,57.123 -11.523,4.181 -23.03,6.258 -34.146,6.258 z m 38.087,-217.96 c -35.325,0 -71.674,22.722 -93.737,59.02 -15.365,25.277 -21.914,53.794 -18.44,80.297 3.426,26.136 16.221,47.159 36.027,59.198 19.808,12.04 44.36,13.719 69.139,4.728 25.126,-9.118 47.426,-28.061 62.79,-53.338 11.852,-19.496 18.512,-41.062 19.263,-62.367 0.728,-20.646 -4.094,-39.577 -13.944,-54.744 -1.347,-2.073 -3.856,-3.035 -6.243,-2.387 l -18.155,4.915 c -9.502,2.575 -19.314,-3.066 -21.886,-12.562 l -4.994,-18.449 c -0.637,-2.354 -2.645,-4.028 -4.996,-4.168 -1.606,-0.096 -3.215,-0.143 -4.824,-0.143 z"
   id="path35" />&#10;		<path
   d="m 392.798,1372.933 c -37.396,10e-4 -77.323,-23.259 -101.657,-63.291 -12.648,-20.81 -19.761,-43.883 -20.565,-66.725 -0.793,-22.503 4.529,-43.237 15.391,-59.963 3.482,-5.363 9.97,-7.847 16.144,-6.172 l 18.155,4.915 c 4.704,1.277 9.571,-1.519 10.846,-6.226 l 4.994,-18.449 c 1.65,-6.092 6.935,-10.432 13.151,-10.801 40.079,-2.397 82.004,22.421 106.784,63.186 34.102,56.103 24.858,124.228 -20.604,151.862 -13.023,7.916 -27.627,11.664 -42.639,11.664 z m -94.534,-187.662 c -1.887,0 -3.683,0.942 -4.749,2.586 -9.851,15.167 -14.672,34.098 -13.945,54.744 0.751,21.305 7.412,42.871 19.263,62.367 31.523,51.861 90.709,73.669 131.93,48.61 41.222,-25.057 49.111,-87.634 17.587,-139.496 -23.068,-37.951 -61.763,-61.069 -98.56,-58.876 -2.352,0.14 -4.359,1.814 -4.997,4.169 l -4.994,18.448 c -2.571,9.497 -12.386,15.133 -21.885,12.562 l -18.155,-4.915 c -0.497,-0.135 -0.999,-0.199 -1.495,-0.199 z"
   id="path36" />&#10;		<g
   id="g38">&#10;			<path
   fill="#333233"
   d="m 1001.164,864.93 c 0,0 27,36 18,72 -9,36 -36,27 -54,18 -18,-9 -18,-36 0,-54 18,-18 36,-36 36,-36 z"
   id="path37" />&#10;			<path
   d="m 992.27,967.492 c -10.484,0 -21.141,-4.549 -29.118,-8.537 -8.414,-4.207 -13.926,-11.939 -15.522,-21.773 -2.159,-13.311 3.34,-28.421 14.354,-39.434 l 39.669,-39.669 3.112,4.15 c 1.155,1.54 28.178,38.146 18.766,75.792 -3.42,13.682 -9.731,22.724 -18.759,26.875 -4.011,1.845 -8.243,2.596 -12.502,2.596 z m 8.202,-95.506 -32.126,32.125 c -9.003,9.004 -13.537,21.123 -11.832,31.629 1.119,6.9 4.906,12.286 10.663,15.164 14.983,7.493 26.052,9.394 33.833,5.816 6.424,-2.955 11.063,-9.98 13.789,-20.883 6.613,-26.454 -7.862,-53.525 -14.327,-63.851 z"
   id="path38" />&#10;		</g>&#10;		<g
   id="g40">&#10;			<path
   fill="#1569b5"
   d="m 909.982,584.514 c 0,0 -2.5,-218.13 -306,-208.438 -272.896,8.715 -234,261 -234,261 l 342,-27 z"
   id="path39" />&#10;			<path
   d="m 366.172,641.891 -0.637,-4.129 c -0.173,-1.117 -4.173,-27.773 -0.287,-64.342 3.596,-33.833 14.969,-82.699 48.733,-123.365 40.983,-49.358 104.86,-75.762 189.857,-78.477 108.246,-3.469 190.847,21.304 245.459,73.597 33.208,31.798 49.156,67.895 56.688,92.577 8.177,26.8 8.486,45.911 8.496,46.711 l 0.046,4.002 -202.191,26.098 z m 257.301,-261.63 c -6.357,0 -12.794,0.104 -19.347,0.313 -82.276,2.627 -143.904,27.919 -183.172,75.172 -32.295,38.862 -43.235,85.804 -46.726,118.339 -2.931,27.318 -1.252,49.357 -0.307,58.166 l 337.595,-26.652 193.749,-25.013 c -0.518,-6.826 -2.249,-21.851 -8.001,-40.578 -7.246,-23.592 -22.552,-58.088 -54.315,-88.452 -49.528,-47.345 -123.313,-71.295 -219.476,-71.295 z"
   id="path40" />&#10;		</g>&#10;		<g
   id="g42">&#10;			<path
   fill="#4a8bc9"
   d="m 371.896,642.514 c 0,0 63,-54 270,-63 207,-9 270,0 270,0 0,0 135,72 99,99 -36,27 -225,-54 -315,-27 -90,27 -143.656,74.182 -206.828,73.091 -63.172,-1.091 -117.172,-82.091 -117.172,-82.091 z"
   id="path41" />&#10;			<path
   d="m 491.222,729.124 c -0.743,0 -1.485,-0.007 -2.231,-0.02 -26.978,-0.466 -56.475,-15.229 -85.302,-42.695 -21.511,-20.496 -34.974,-40.555 -35.536,-41.398 l -2.212,-3.317 3.027,-2.596 c 0.669,-0.573 16.873,-14.219 58.812,-28.953 69.328,-24.358 154.598,-32.546 213.922,-35.126 205.062,-8.916 268.243,-0.328 270.832,0.041 l 0.783,0.112 0.697,0.372 c 0.259,0.138 26.164,13.998 52.023,31.602 36.138,24.601 54.261,43.791 55.405,58.667 0.495,6.443 -2.218,12.081 -7.846,16.302 -18.347,13.761 -66.46,3.367 -127.377,-9.788 -66.509,-14.362 -141.893,-30.643 -189.03,-16.501 -36.97,11.091 -68.221,25.837 -95.792,38.848 -39.12,18.458 -73.01,34.45 -110.175,34.45 z M 378.11,643.513 c 11.131,15.312 58.337,75.684 111.036,76.594 35.918,0.603 69.526,-15.225 108.41,-33.573 27.857,-13.146 59.432,-28.044 97.047,-39.329 49.359,-14.809 125.945,1.732 193.517,16.325 54.007,11.662 105.018,22.678 120.076,11.386 3.173,-2.38 4.53,-5.053 4.272,-8.412 -0.511,-6.641 -7.872,-22.211 -51.438,-51.878 -23.073,-15.712 -46.205,-28.406 -50.534,-30.752 -7.788,-0.94 -76.301,-8.216 -268.405,0.138 -58.389,2.538 -142.3,10.554 -210.465,34.322 -30.418,10.605 -47.005,20.696 -53.516,25.179 z"
   id="path42" />&#10;		</g>&#10;		<g
   id="g47">&#10;			<g
   id="g44">&#10;				<path
   fill="#ffffff"
   d="m 805.3,471.088 c 0,0 9.249,17.788 21.898,27.593 12.65,9.805 32.965,13.642 36.454,12.044 3.489,-1.598 18.778,-41.256 24.089,-55.396 5.311,-14.141 7.155,-42.397 -3.631,-39.687 -10.786,2.71 -9.572,23.034 -38.812,37.621 -29.238,14.586 -39.998,17.825 -39.998,17.825 z"
   id="path43" />&#10;				<path
   d="m 861.09,515.019 c -8.737,0 -25.771,-4.982 -36.342,-13.176 -13.191,-10.225 -22.603,-28.151 -22.996,-28.91 l -2.228,-4.283 4.62,-1.391 c 0.247,-0.076 11.157,-3.501 39.37,-17.575 16.479,-8.221 22.706,-18.419 27.254,-25.866 3.463,-5.671 6.454,-10.569 12.368,-12.056 3.356,-0.84 6.451,0.081 8.704,2.604 7.191,8.055 3.592,31.864 -0.354,42.369 -20.705,55.125 -24.395,56.814 -26.167,57.627 -0.966,0.443 -2.421,0.657 -4.229,0.657 z m 0.161,-7.444 z M 811.138,473.24 c 3.393,5.619 10.249,15.876 18.511,22.28 10.618,8.229 27.548,11.905 31.987,11.568 2.999,-4.264 12.18,-26.059 22.362,-53.166 4.398,-11.71 5.415,-30.264 1.875,-34.229 -0.219,-0.244 -0.27,-0.303 -0.787,-0.173 -2.619,0.657 -4.369,3.355 -7.49,8.466 -4.768,7.808 -11.974,19.607 -30.511,28.854 -18.971,9.466 -30.248,14.204 -35.947,16.4 z"
   id="path44" />&#10;			</g>&#10;			<g
   id="g46">&#10;				<path
   fill="#ffffff"
   d="m 487.856,471.088 c 0,0 -9.249,17.788 -21.898,27.593 -12.65,9.805 -32.965,13.642 -36.454,12.044 -3.489,-1.598 -18.778,-41.256 -24.089,-55.396 -5.311,-14.141 -7.155,-42.397 3.631,-39.687 10.786,2.71 9.572,23.034 38.812,37.621 29.239,14.586 39.998,17.825 39.998,17.825 z"
   id="path45" />&#10;				<path
   d="m 432.126,515.063 c -1.68,0 -3.186,-0.196 -4.287,-0.701 -1.774,-0.812 -5.464,-2.503 -26.169,-57.627 -3.946,-10.506 -7.544,-34.315 -0.354,-42.369 2.251,-2.523 5.34,-3.445 8.703,-2.604 5.915,1.486 8.905,6.385 12.369,12.057 4.547,7.446 10.774,17.645 27.253,25.865 28.399,14.167 39.268,17.544 39.374,17.576 l 4.603,1.402 -2.213,4.271 c -0.394,0.759 -9.806,18.686 -22.997,28.91 -7.982,6.188 -17.858,9.541 -23.035,10.989 -2.251,0.629 -8.455,2.231 -13.247,2.231 z m -0.22,-7.488 z m -0.385,-0.486 c 4.432,0.339 21.368,-3.339 31.986,-11.568 8.262,-6.404 15.119,-16.661 18.511,-22.28 -5.698,-2.195 -16.977,-6.935 -35.947,-16.398 -18.537,-9.247 -25.742,-21.046 -30.51,-28.854 -3.121,-5.11 -4.872,-7.809 -7.491,-8.466 -0.517,-0.13 -0.568,-0.072 -0.786,0.172 -3.54,3.965 -2.523,22.519 1.875,34.229 10.182,27.105 19.362,48.9 22.362,53.165 z"
   id="path46" />&#10;			</g>&#10;		</g>&#10;		<g
   id="g49">&#10;			<g
   id="g48">&#10;				<path
   fill="#f15b52"
   d="m 729.042,494.515 c 0,44.975 -36.456,81.429 -81.431,81.429 -44.97,0 -81.431,-36.454 -81.431,-81.429 0,-44.97 36.461,-81.431 81.431,-81.431 44.975,0 81.431,36.461 81.431,81.431"
   id="path47" />&#10;				<path
   fill="#ffffff"
   d="M 686.419,527.986 654.004,449.98 c -0.924,-2.252 -2.774,-3.442 -5.021,-3.442 -2.249,0 -4.233,1.19 -5.159,3.442 l -35.576,85.563 h 12.171 l 14.082,-35.28 42.028,33.955 c 1.692,1.367 2.91,1.986 4.496,1.986 3.173,0 5.95,-2.382 5.95,-5.817 -10e-4,-0.56 -0.199,-1.447 -0.556,-2.401 m -37.436,-63.992 21.075,52.01 -31.831,-25.072 z"
   id="path48" />&#10;			</g>&#10;			<path
   d="m 648,580.015 c -47.145,0 -85.5,-38.355 -85.5,-85.5 0,-47.145 38.355,-85.5 85.5,-85.5 47.145,0 85.5,38.355 85.5,85.5 0,47.145 -38.355,85.5 -85.5,85.5 z m 0,-162 c -42.183,0 -76.5,34.317 -76.5,76.5 0,42.183 34.317,76.5 76.5,76.5 42.183,0 76.5,-34.317 76.5,-76.5 0,-42.183 -34.317,-76.5 -76.5,-76.5 z"
   id="path49" />&#10;		</g>&#10;		<path
   fill="#abd9f3"
   d="m 405,646.614 c 0,0 35.118,53.983 81,54.88 45,0.88 90,-27 126,-45 36,-18 99,-27.88 99,-27.88 0,0 -36,-8.12 -99,9.88 -63,18 -90,36 -126,36 -36,0 -81,-27.88 -81,-27.88 z"
   id="path50" />&#10;	</g>&#10;</g>&#10;<g
   inkscape:groupmode="layer"
   id="layer1"
   inkscape:label="bubble"
   transform="translate(-114.4374,-227.06633)"><g
     inkscape:label="Layer 1"
     id="layer1-3"
     transform="matrix(5.5725956,0,0,6.1310961,-221.61941,-303.42829)"><g
       id="use1"
       style="fill:#000000;stroke:#000000"
       transform="matrix(-0.44618895,0,0,0.45120942,207.54761,64.754395)"><title
         id="title2">Circle Balloon</title><ellipse
         cx="205"
         cy="125"
         rx="125"
         ry="70"
         style="stroke:none"
         id="ellipse2" /><path
         d="m 110,166 c 11,21 -10,30 -22,43 32,-3 59,-7 70,-26"
         style="stroke:none"
         id="path2-6" /><ellipse
         cx="200"
         cy="120"
         rx="125"
         ry="70"
         style="fill:#eeeeee;stroke-width:3.5"
         id="ellipse3" /><path
         d="m 106,162 c 11,21 -10,30 -22,43 32,-3 59,-7 70,-26"
         style="fill:#eeeeee;stroke-width:3.5"
         id="path3-7" /><ellipse
         cx="197"
         cy="117"
         rx="117"
         ry="63"
         style="fill:#ffffff;stroke:none"
         id="ellipse4" /><path
         d="m 103,149 c 14,25 9,34 -6,47 30,-3 50,-10 58,-31"
         style="fill:#ffffff;stroke:none"
         id="path4-5" /></g><text
       xml:space="preserve"
       style="font-style:normal;font-variant:normal;font-weight:normal;font-stretch:normal;font-size:12.7px;font-family:'Open Sans';-inkscape-font-specification:'Open Sans';fill:#000000;stroke-width:0.264583"
       x="116.78679"
       y="115.22617"
       id="text1"><tspan
         sodipodi:role="line"
         id="tspan1"
         style="font-style:normal;font-variant:normal;font-weight:normal;font-stretch:normal;font-size:12.7px;font-family:'Open Sans';-inkscape-font-specification:'Open Sans';text-align:center;text-anchor:middle;stroke-width:0.264583"
         x="116.78679"
         y="115.22617">Welcome to</tspan><tspan
         sodipodi:role="line"
         style="font-style:normal;font-variant:normal;font-weight:normal;font-stretch:normal;font-size:12.7px;font-family:'Open Sans';-inkscape-font-specification:'Open Sans';text-align:center;text-anchor:middle;stroke-width:0.264583"
         x="116.78679"
         y="131.10117"
         id="tspan2">Ansible!</tspan></text></g></g></svg>
