<?xml version="1.0" encoding="UTF-8"?>
<svg width="357px" height="302px" viewBox="0 0 357 302" version="1.1" xmlns="http://www.w3.org/2000/svg" xmlns:xlink="http://www.w3.org/1999/xlink">
    <title>Ansibull-Contribute</title>
    <defs>
        <path d="M27.3757102,24.8975837 C27.3757102,24.8975837 24.0648758,24.0375255 22.0378343,22.6923062 C20.0333155,21.3470868 18.9071814,19.2079676 18.9071814,19.2079676 C18.9071814,19.2079676 18.1414101,20.6634508 18.9071814,22.0527757 C19.6729526,23.4421005 21.0468363,24.8975837 21.0468363,24.8975837 C21.0468363,24.8975837 14.1774179,22.6482006 15.0558026,15.1502569 C16.2720274,4.85161065 24.7856017,0 24.7856017,0 C24.7856017,0 15.8440965,0.242580532 9.31251837,4.76339954 C2.78094027,9.28421856 1.24939782,12.1290266 0.190831711,16.8924262 C-0.867734394,21.6558257 2.62328149,26.0663808 7.06025006,28.3378167 C11.4972186,30.6092526 21.9927889,32.9247941 21.9927889,32.9247941 L27.3757102,24.8975837 Z" id="path-1"></path>
        <path d="M0,24.8975837 C0,24.8975837 3.31083442,24.0375255 5.33787589,22.6923062 C7.34239469,21.3470868 8.46852884,19.2079676 8.46852884,19.2079676 C8.46852884,19.2079676 9.23430007,20.6634508 8.46852884,22.0527757 C7.70275762,23.4421005 6.32887395,24.8975837 6.32887395,24.8975837 C6.32887395,24.8975837 13.1982923,22.6482006 12.3199077,15.1502569 C11.1036828,4.85161065 2.59010856,0 2.59010856,0 C2.59010856,0 11.5316137,0.242580532 18.0631918,4.76339954 C24.5947699,9.28421856 26.1263124,12.1290266 27.1848785,16.8924262 C28.2434446,21.6558257 24.7524287,26.0663808 20.3154602,28.3378167 C15.8784916,30.6092526 5.38292126,32.9247941 5.38292126,32.9247941 L0,24.8975837 Z" id="path-3"></path>
        <path d="M177.992263,27.4921301 C167.478945,10.290102 144.553128,0 144.553128,0 L43.3991789,0 C43.3991789,0 20.4733621,10.2678772 9.96004378,27.4921301 C-0.553274585,44.6941581 -4.37424405,63.7630729 6.59126004,84.6322 C18.9585399,108.146083 39.465163,116.34705 39.465163,116.34705 C39.465163,116.34705 25.6508888,85.3211701 39.8495209,79.4760365 C54.2516366,76.5645822 66.9806651,104.679008 67.8624273,115.858104 C68.7441894,127.037199 69.8520445,145.839416 69.8520445,145.839416 L71.1633831,145.839416 C71.1407738,145.439369 71.1407738,145.039322 71.1407738,144.61705 C71.1407738,132.215588 81.3827808,122.147734 93.9987628,122.147734 C106.614745,122.147734 116.856752,132.215588 116.856752,144.61705 C116.856752,145.017097 116.834142,145.439369 116.834142,145.839416 L118.145481,145.839416 C118.145481,145.839416 119.275945,127.037199 120.135098,115.858104 C121.016861,104.679008 133.745889,76.5645822 148.148005,79.4760365 C162.324028,85.3211701 148.532363,116.34705 148.532363,116.34705 C148.532363,116.34705 169.061595,108.168308 181.406266,84.6322 C192.34916,63.7630729 188.505582,44.6941581 177.992263,27.4921301 Z" id="path-5"></path>
    </defs>
    <g id="Ansibull-Contribute" stroke="none" stroke-width="1" fill="none" fill-rule="evenodd">
        <g id="Group-25" transform="translate(16, 16)">
            <ellipse id="Oval" fill="#616161" opacity="0.749562" cx="220.5" cy="258" rx="57.5" ry="12"></ellipse>
            <g id="bull-builder" transform="translate(126, 40)">
                <circle id="Oval" fill="#FFFFFF" fill-rule="nonzero" cx="93.1751825" cy="150.70073" r="13.7737226"></circle>
                <g id="Group" transform="translate(80.2117, 136.927)" fill="#231F20" fill-rule="nonzero">
                    <path d="M14.4067876,8.63625695 L18.0084845,17.2503697 L12.5831436,13.1093952 L14.4067876,8.63625695 L14.4067876,8.63625695 Z M20.7895416,19.2212078 L15.2730185,6.31111085 C15.1134497,5.93465862 14.794312,5.73536039 14.4067876,5.73536039 C14.0192633,5.73536039 13.67733,5.93465862 13.5177612,6.31111085 L7.45414486,20.48343 L9.52853991,20.48343 L11.9220727,14.6373483 L19.0798754,20.2619875 C19.3762175,20.48343 19.5813775,20.5941512 19.8549241,20.5941512 C20.4020173,20.5941512 20.8579283,20.1955547 20.8579283,19.6419485 C20.8807238,19.5312273 20.8579283,19.3762175 20.7895416,19.2212078 L20.7895416,19.2212078 Z" id="Shape"></path>
                    <path d="M14.1788321,0.575750464 C6.70189171,0.575750464 0.615479851,6.48826484 0.615479851,13.7515784 C0.615479851,21.0148919 6.70189171,26.9274063 14.1788321,26.9274063 C21.6557725,26.9274063 27.7421844,21.0148919 27.7421844,13.7515784 C27.7421844,6.48826484 21.6557725,0.575750464 14.1788321,0.575750464 L14.1788321,0.575750464 Z M14.1788321,27.5474453 C6.35995846,27.5474453 0,21.3691999 0,13.7737226 C0,6.17824536 6.35995846,0 14.1788321,0 C21.9977058,0 28.3576642,6.17824536 28.3576642,13.7737226 C28.3576642,21.3470556 21.9977058,27.5474453 14.1788321,27.5474453 L14.1788321,27.5474453 Z" id="Shape"></path>
                </g>
                <g id="Group" transform="translate(33.219, 0)">
                    <path d="M23.5489781,40.5109489 C23.5489781,40.5109489 16.589469,40.3124739 8.66148455,35.879866 C0.733500102,31.4472581 -1.29354138,27.2572307 0.733500102,21.5896674 C2.76054158,15.9000513 4.81010574,11.0263878 13.32368,6.28504107 C21.7471634,1.60985262 36.4995209,0 36.4995209,0 C36.4995209,0 30.4634418,4.65313567 27.8733332,8.95342692 C25.3057474,13.1875599 22.9633883,17.7083789 29.3598303,22.3394618 C35.7337496,26.9705446 43.7518248,24.4124227 43.7518248,24.4124227 L23.5489781,40.5109489 Z" id="Path" fill="#010101" fill-rule="nonzero"></path>
                    <g transform="translate(5.4526, 2.4038)">
                        <g id="XMLID_00000016786572442136032720000001766681984825574545_-link" fill="#FFFFFF" fill-rule="nonzero">
                            <path d="M27.3757102,24.8975837 C27.3757102,24.8975837 24.0648758,24.0375255 22.0378343,22.6923062 C20.0333155,21.3470868 18.9071814,19.2079676 18.9071814,19.2079676 C18.9071814,19.2079676 18.1414101,20.6634508 18.9071814,22.0527757 C19.6729526,23.4421005 21.0468363,24.8975837 21.0468363,24.8975837 C21.0468363,24.8975837 14.1774179,22.6482006 15.0558026,15.1502569 C16.2720274,4.85161065 24.7856017,0 24.7856017,0 C24.7856017,0 15.8440965,0.242580532 9.31251837,4.76339954 C2.78094027,9.28421856 1.24939782,12.1290266 0.190831711,16.8924262 C-0.867734394,21.6558257 2.62328149,26.0663808 7.06025006,28.3378167 C11.4972186,30.6092526 21.9927889,32.9247941 21.9927889,32.9247941 L27.3757102,24.8975837 Z" id="XMLID_00000016786572442136032720000001766681984825574545_"></path>
                        </g>
                        <g id="Clipped">
                            <mask id="mask-2" fill="white">
                                <use xlink:href="#path-1"></use>
                            </mask>
                            <g id="XMLID_00000016786572442136032720000001766681984825574545_"></g>
                            <path d="M22.8036055,35.7034438 L4.78545906,28.6245028 L-2.01639123,20.2003425 L-0.484848782,18.3479094 C-0.484848782,18.3479094 0.168309028,21.4132452 6.92511396,24.9637421 C13.6819189,28.5142389 20.3261104,28.3819223 20.3261104,28.3819223 C20.3261104,28.3819223 12.5557847,25.7796948 9.1323369,21.0162952 C5.68636639,16.2528957 10.6638794,10.916124 10.6638794,10.916124 C10.6638794,10.916124 8.59179251,17.1791122 12.1503764,20.442923 C15.7089604,23.6846811 18.6819545,25.1401643 18.6819545,25.1401643 C18.6819545,25.1401643 14.8981438,21.6558257 14.4026447,18.3479094 C13.9296684,15.039993 18.3215916,10.916124 18.3215916,10.916124 L17.7810472,21.4132452 L19.8080887,23.9713672 L21.0468363,24.8975837 C21.0468363,24.8975837 24.5153295,26.3089614 27.2630968,26.6618058 C29.9883414,27.036703 22.8036055,35.7034438 22.8036055,35.7034438 Z" id="Path" fill="#DDDDDD" fill-rule="nonzero" mask="url(#mask-2)"></path>
                        </g>
                    </g>
                </g>
                <g id="Group" transform="translate(110.1898, 0)">
                    <path d="M20.2028467,40.5109489 C20.2028467,40.5109489 27.1623558,40.3124739 35.0903403,35.879866 C43.0183247,31.4472581 45.0453662,27.2572307 43.0183247,21.5896674 C40.9912832,15.9000513 38.9417191,11.0263878 30.4281449,6.28504107 C22.0046614,1.60985262 7.25230396,0 7.25230396,0 C7.25230396,0 13.288383,4.65313567 15.8784916,8.95342692 C18.4460775,13.1875599 20.7884365,17.7083789 14.3919945,22.3394618 C8.01807518,26.9705446 0,24.4124227 0,24.4124227 L20.2028467,40.5109489 Z" id="Path" fill="#010101" fill-rule="nonzero"></path>
                    <g transform="translate(10.901, 2.4038)">
                        <g id="XMLID_00000142857179771692959280000001035502138155132576_-link" fill="#FFFFFF" fill-rule="nonzero">
                            <path d="M0,24.8975837 C0,24.8975837 3.31083442,24.0375255 5.33787589,22.6923062 C7.34239469,21.3470868 8.46852884,19.2079676 8.46852884,19.2079676 C8.46852884,19.2079676 9.23430007,20.6634508 8.46852884,22.0527757 C7.70275762,23.4421005 6.32887395,24.8975837 6.32887395,24.8975837 C6.32887395,24.8975837 13.1982923,22.6482006 12.3199077,15.1502569 C11.1036828,4.85161065 2.59010856,0 2.59010856,0 C2.59010856,0 11.5316137,0.242580532 18.0631918,4.76339954 C24.5947699,9.28421856 26.1263124,12.1290266 27.1848785,16.8924262 C28.2434446,21.6558257 24.7524287,26.0663808 20.3154602,28.3378167 C15.8784916,30.6092526 5.38292126,32.9247941 5.38292126,32.9247941 L0,24.8975837 Z" id="XMLID_00000142857179771692959280000001035502138155132576_"></path>
                        </g>
                        <g id="Clipped">
                            <mask id="mask-4" fill="white">
                                <use xlink:href="#path-3"></use>
                            </mask>
                            <g id="XMLID_00000142857179771692959280000001035502138155132576_"></g>
                            <path d="M4.57210467,35.7034438 L22.5902511,28.6245028 L29.4146241,20.2003425 L27.8830817,18.3479094 C27.8830817,18.3479094 27.2299239,21.4132452 20.4731189,24.9637421 C13.716314,28.5142389 7.07212249,28.3819223 7.07212249,28.3819223 C7.07212249,28.3819223 14.8424482,25.7796948 18.265896,21.0162952 C21.7118665,16.2528957 16.7343535,10.916124 16.7343535,10.916124 C16.7343535,10.916124 18.8064404,17.1791122 15.2478565,20.442923 C11.6892725,23.7067338 8.71627836,25.1401643 8.71627836,25.1401643 C8.71627836,25.1401643 12.5000891,21.6558257 12.9955881,18.3479094 C13.4910872,15.039993 9.07664129,10.916124 9.07664129,10.916124 L9.61718568,21.4132452 L7.5901442,23.9713672 L6.35139663,24.8975837 C6.35139663,24.8975837 2.88290344,26.3089614 0.135136099,26.6618058 C-2.61263124,27.036703 4.57210467,35.7034438 4.57210467,35.7034438 Z" id="Path" fill="#DDDDDD" fill-rule="nonzero" mask="url(#mask-4)"></path>
                        </g>
                    </g>
                </g>
                <path d="M187.970803,79.6012159 C187.970803,79.6012159 187.091111,82.357247 185.850519,84.1721943 C184.609928,85.9871416 184.271585,86.4352767 182.895656,86.4800903 C181.519728,86.5249038 178.76787,83.7464659 176.760368,83.5672118 C174.752865,83.3879578 173.196487,83.7464659 172.04612,85.673447 C170.91831,87.6004281 170.579967,89.1240876 170.579967,89.1240876 L167.715328,84.6875497 C167.715328,84.6875497 168.640133,82.7605686 169.880724,80.8559942 C171.121316,78.9514199 172.835588,78.1895902 174.504747,78.7945726 C176.196463,79.4219618 178.339302,81.3713497 179.963349,82.0435524 C181.587396,82.7157551 182.421976,82.9174159 183.640011,82.2452132 C184.858046,81.5730105 186.662543,78.7497591 186.662543,78.7497591 L187.970803,79.6012159 Z" id="Path" fill="#323133" fill-rule="nonzero"></path>
                <g id="Group" transform="translate(131.2555, 172.5766)" fill-rule="nonzero">
                    <path d="M18.4903548,10.4495856 C18.4903548,10.4495856 20.7846983,2.13592339 18.4903548,0.543945508 C16.1960113,-1.04803237 11.8097663,1.0746048 7.35604072,4.05956333 C2.87982153,7.06663265 0.428023077,9.10082661 0.0906196204,11.0244665 C-0.786629367,15.9109542 4.99421652,23.1854087 4.99421652,23.1854087 L8.66066742,23.1854087 L8.63817385,25.6839295 C8.63817385,25.6839295 9.62789066,27.541237 10.6625946,28.8899961 C11.6972985,30.2387551 12.7769896,31.7422898 13.631745,31.5875142 C14.4865004,31.4327385 18.580329,26.0598132 20.9646468,22.2788657 L22.9215869,19.205464 C23.2140032,18.7190263 23.4389388,18.2104778 23.5739002,17.6577077 C24.0012779,15.7561786 24.8560333,11.2897962 23.7988358,9.69781831 C22.4267284,7.68573516 18.4903548,10.4495856 18.4903548,10.4495856 Z" id="Path" fill="#010101"></path>
                    <polygon id="Path" fill="#FFFFFF" points="22.2467799 11.2897962 11.6972985 25.5291539 14.1041099 28.8899961 21.1895824 17.2376024"></polygon>
                </g>
                <g id="Group" transform="translate(32.4088, 172.5766)" fill-rule="nonzero">
                    <path d="M5.81621456,10.4495856 C5.81621456,10.4495856 3.52187105,2.13592339 5.81621456,0.543945508 C8.11055806,-1.04803237 12.496803,1.0746048 16.9505286,4.05956333 C21.4267478,7.06663265 23.8785463,9.10082661 24.2159497,11.0244665 C25.0931987,15.9109542 19.3123528,23.1854087 19.3123528,23.1854087 L15.6459019,23.1854087 L15.6683955,25.6839295 C15.6683955,25.6839295 14.6786787,27.541237 13.6439747,28.8899961 C12.6092708,30.2387551 11.5295798,31.7422898 10.6748243,31.5875142 C9.82006891,31.4327385 5.7262403,26.0598132 3.34192254,22.2788657 L1.38498249,19.205464 C1.09256616,18.7190263 0.867630525,18.2104778 0.732669142,17.6577077 C0.30529143,15.7561786 -0.549463993,11.2897962 0.507733504,9.69781831 C1.87984089,7.68573516 5.81621456,10.4495856 5.81621456,10.4495856 Z" id="Path" fill="#010101"></path>
                    <polygon id="Path" fill="#FFFFFF" points="22.4164646 10.6928045 21.1343315 15.9772866 9.52765258 2.42336384"></polygon>
                </g>
                <g id="Group" transform="translate(0, 68.0584)">
                    <g id="XMLID_00000132810157011928972590000014050002531829369482_-link" fill="#323133" fill-rule="nonzero">
                        <path d="M177.992263,27.4921301 C167.478945,10.290102 144.553128,0 144.553128,0 L43.3991789,0 C43.3991789,0 20.4733621,10.2678772 9.96004378,27.4921301 C-0.553274585,44.6941581 -4.37424405,63.7630729 6.59126004,84.6322 C18.9585399,108.146083 39.465163,116.34705 39.465163,116.34705 C39.465163,116.34705 25.6508888,85.3211701 39.8495209,79.4760365 C54.2516366,76.5645822 66.9806651,104.679008 67.8624273,115.858104 C68.7441894,127.037199 69.8520445,145.839416 69.8520445,145.839416 L71.1633831,145.839416 C71.1407738,145.439369 71.1407738,145.039322 71.1407738,144.61705 C71.1407738,132.215588 81.3827808,122.147734 93.9987628,122.147734 C106.614745,122.147734 116.856752,132.215588 116.856752,144.61705 C116.856752,145.017097 116.834142,145.439369 116.834142,145.839416 L118.145481,145.839416 C118.145481,145.839416 119.275945,127.037199 120.135098,115.858104 C121.016861,104.679008 133.745889,76.5645822 148.148005,79.4760365 C162.324028,85.3211701 148.532363,116.34705 148.532363,116.34705 C148.532363,116.34705 169.061595,108.168308 181.406266,84.6322 C192.34916,63.7630729 188.505582,44.6941581 177.992263,27.4921301 Z" id="XMLID_00000132810157011928972590000014050002531829369482_"></path>
                    </g>
                    <g id="Clipped">
                        <mask id="mask-6" fill="white">
                            <use xlink:href="#path-5"></use>
                        </mask>
                        <g id="XMLID_00000132810157011928972590000014050002531829369482_"></g>
                        <path d="M159.543085,89.6994641 C157.869998,77.853623 152.918564,74.053175 145.4575,72.7641341 C135.554632,71.0305964 126.171778,83.0542362 124.249989,85.4989688 C122.328199,87.9437015 119.411601,94.8778524 118.642885,96.6558397 C117.85156,98.4116023 117.467202,102.545423 110.232231,106.145847 C103.517273,109.479574 94.6996507,109.257325 94.0213721,109.235101 L94.0213721,109.235101 C94.0213721,109.235101 94.0213721,109.235101 93.9987628,109.235101 C93.9761535,109.235101 93.9761535,109.235101 93.9761535,109.235101 L93.9761535,109.235101 C93.2752656,109.257325 84.4576438,109.479574 77.7652949,106.145847 C70.5077138,102.545423 70.1233559,98.4116023 69.3546402,96.6558397 C68.5633152,94.9000772 65.6467172,87.9437015 63.7475371,85.4989688 C61.848357,83.0542362 52.465503,71.0528213 42.5400261,72.7641341 C35.0563521,74.053175 30.1275276,77.853623 28.4544404,89.6994641 C26.7813532,101.545305 32.2528006,115.835879 32.2528006,115.835879 L33.157172,157.24076 L93.9761535,157.24076 L94.0213721,157.24076 L154.840354,157.24076 L155.744725,115.835879 C155.744725,115.835879 161.216172,101.545305 159.543085,89.6994641 Z" id="Path" fill="#565656" fill-rule="nonzero" mask="url(#mask-6)"></path>
                    </g>
                </g>
                <path d="M136.116788,75.787438 C136.116788,75.787438 159.002384,86.0725419 169.497257,103.325692 C179.676156,120.066814 183.60327,138.588906 173.762916,158.80292 C174.440004,157.667551 175.094523,156.487658 175.726473,155.285503 C186.672739,134.381363 182.835903,115.280456 172.363599,98.0273056 C161.868726,80.7964172 138.98313,70.4890511 138.98313,70.4890511 L136.116788,75.787438 Z" id="Path" fill="#565656" fill-rule="nonzero"></path>
                <path d="M43.3208391,68.0583942 C43.3208391,68.0583942 32.5423128,70.1291154 19.5856259,83.8893917 C14.645468,89.1441251 30.2743312,95.7348076 36.2923417,125.682335 C37.684568,132.562473 37.684568,148.883318 37.684568,148.883318 C37.684568,148.883318 48.9121996,153.069292 53.8299023,160.172089 C60.7461234,170.169442 59.5335392,180.478516 59.5335392,180.478516 C59.5335392,180.478516 71.2327313,180.857035 76.0381576,181.369149 C80.843584,181.903528 91.5547445,180.478516 91.5547445,180.478516 L90.7688103,68.1251916 L43.3208391,68.0583942 Z" id="Path" fill="#F47521" fill-rule="nonzero"></path>
                <g id="Group" transform="translate(43.7518, 104.5182)" fill="#DDDDDD" fill-rule="nonzero">
                    <polygon id="Rectangle" transform="translate(23.8147, 25.1364) rotate(-90) translate(-23.8147, -25.1364)" points="-1.32164479 20.6150986 48.9511199 20.6150986 48.9511199 29.6576661 -1.32164479 29.6576661"></polygon>
                    <path d="M47.6665996,55.4776121 L11.4508895,55.4776121 L11.4508895,55.4776121 C9.01984749,51.9997623 5.63456468,49.1907298 1.61312134,47.3626293 L0,46.6269303 L47.6665996,46.6269303 L47.6665996,55.4776121 Z" id="Path"></path>
                    <path d="M47.8029197,69.6788321 L16.4265736,69.6788321 L16.4265736,69.6788321 C16.1993735,66.75833 15.4268928,63.8824158 14.1545718,61.2517345 L13.9500916,60.8058564 L47.7574797,60.8058564 L47.8029197,69.6788321 Z" id="Path"></path>
                </g>
                <path d="M144.649964,68.0583942 C144.649964,68.0583942 155.42849,70.1291154 168.385177,83.8893917 C173.325335,89.1441251 157.696472,95.7348076 151.678461,125.682335 C150.286235,132.562473 150.286235,148.883318 150.286235,148.883318 C150.286235,148.883318 139.058603,153.069292 134.140901,160.172089 C127.22468,170.169442 128.437264,180.478516 128.437264,180.478516 C128.437264,180.478516 116.738072,180.857035 111.932645,181.369149 C107.127219,181.903528 96.4160584,180.478516 96.4160584,180.478516 L97.2019926,68.1251916 L144.649964,68.0583942 Z" id="Path" fill="#F47521" fill-rule="nonzero"></path>
                <g id="Group" transform="translate(96.4161, 104.5182)" fill="#DDDDDD" fill-rule="nonzero">
                    <polygon id="Rectangle" transform="translate(23.9773, 25.1336) rotate(-90) translate(-23.9773, -25.1336)" points="-1.15626462 20.6101663 49.1109353 20.6101663 49.1109353 29.6570336 -1.15626462 29.6570336"></polygon>
                    <path d="M0.136384935,55.4791841 L36.3465852,55.4791841 L36.3465852,55.4791841 C38.7787832,52.0017192 42.1656757,49.1929977 46.1890313,47.3650995 L47.8029197,46.6294819 L0.136384935,46.6294819 L0.136384935,55.4791841 Z" id="Path"></path>
                    <path d="M0,69.6788321 L31.3912659,69.6788321 L31.3912659,69.6788321 C31.6185741,66.7586533 32.3914221,63.8830574 33.6643481,61.2526673 L33.8689255,60.8068385 L0.045461645,60.8068385 L0,69.6788321 Z" id="Path"></path>
                </g>
                <g id="Group" transform="translate(33.219, 13.7737)" fill-rule="nonzero">
                    <ellipse id="Oval" fill="#010101" cx="60.7664234" cy="81.3507632" rx="60.7664234" ry="47.4740544"></ellipse>
                    <ellipse id="Oval" fill="#323133" cx="60.7664234" cy="36.8604133" rx="38.7865981" ry="33.9921302"></ellipse>
                    <ellipse id="Oval" fill="#323133" cx="60.7664234" cy="75.3612526" rx="54.960858" ry="44.5124513"></ellipse>
                    <g transform="translate(16.1065, 51.4695)" fill="#565656" id="Oval">
                        <ellipse cx="44.6599327" cy="35.8707589" rx="44.6599327" ry="32.5334302"></ellipse>
                        <g transform="translate(16.6261, 0)">
                            <ellipse cx="35.7143923" cy="17.6591105" rx="20.3533634" ry="17.6591105"></ellipse>
                            <ellipse cx="20.3533634" cy="17.6591105" rx="20.3533634" ry="17.6591105"></ellipse>
                        </g>
                    </g>
                    <g transform="translate(26.6021, 76.0772)" fill="#010101" id="Oval">
                        <ellipse transform="translate(56.3855, 13.3366) rotate(-62.6585) translate(-56.3855, -13.3366)" cx="56.3855075" cy="13.3366024" rx="11.0138324" ry="7.73620222"></ellipse>
                        <ellipse transform="translate(11.9305, 13.3523) rotate(-27.3415) translate(-11.9305, -13.3523)" cx="11.9305225" cy="13.3522812" rx="7.73620215" ry="11.0138324"></ellipse>
                    </g>
                    <path d="M59.185141,4.48169378 C59.0721922,2.91248621 60.6534746,1.52009076 62.686552,1.40958318 C63.7030907,1.34327864 64.6292703,1.60849682 65.3295525,2.07262864 C64.8551678,0.768639247 62.8898597,-0.13752287 60.6082951,0.0171877351 C58.0330638,0.171898341 56.0451659,1.5863953 56.1581147,3.15560287 C56.2484737,4.43749075 57.6942176,5.43205893 59.6143462,5.67517559 C59.365859,5.32155135 59.2077307,4.92372408 59.185141,4.48169378 Z" id="Path" fill="#323133"></path>
                    <g transform="translate(1.2517, 29.8828)" id="Oval">
                        <g transform="translate(95.8314, -0)">
                            <ellipse fill="#323133" transform="translate(11.6038, 6.3876) rotate(-78.7788) translate(-11.6038, -6.3876)" cx="11.6038187" cy="6.38762284" rx="4.335825" ry="10.9697872"></ellipse>
                            <ellipse fill="#010101" transform="translate(11.4349, 7.3466) rotate(-78.7788) translate(-11.4349, -7.3466)" cx="11.4349035" cy="7.34664515" rx="3.36255718" ry="10.2475357"></ellipse>
                        </g>
                        <g transform="translate(-0, 0.0202)">
                            <ellipse fill="#323133" transform="translate(11.6039, 6.3876) rotate(-11.2212) translate(-11.6039, -6.3876)" cx="11.6038643" cy="6.38763209" rx="10.9698336" ry="4.33582522"></ellipse>
                            <ellipse fill="#010101" transform="translate(11.7598, 7.3382) rotate(-11.2212) translate(-11.7598, -7.3382)" cx="11.7598262" cy="7.3382293" rx="10.2475357" ry="3.36255742"></ellipse>
                        </g>
                    </g>
                    <g transform="translate(44.2089, 30.2202)" id="Oval">
                        <g transform="translate(23.1446, -0)">
                            <ellipse fill="#010101" transform="translate(4.9968, 8.9291) rotate(-86.0007) translate(-4.9968, -8.9291)" cx="4.99675066" cy="8.92910545" rx="8.6429502" ry="4.40467901"></ellipse>
                            <ellipse fill="#FFFFFF" cx="5.3403085" cy="6.10974342" rx="3.07220579" ry="3.00580605"></ellipse>
                        </g>
                        <g transform="translate(-0, 0.0134)">
                            <ellipse fill="#010101" transform="translate(4.9968, 8.9291) rotate(-3.9993) translate(-4.9968, -8.9291)" cx="4.99678133" cy="8.92906898" rx="4.40471248" ry="8.64291129"></ellipse>
                            <ellipse fill="#FFFFFF" cx="4.63012353" cy="6.09630727" rx="3.07220579" ry="3.00580605"></ellipse>
                        </g>
                    </g>
                </g>
                <path d="M121.932785,203.973079 C123.591148,203.777613 125.877,206.079763 127.288849,208.838 C128.633468,211.487645 131.255474,217.959728 131.255474,218.285504 C131.255474,218.61128 130.672806,220.175005 129.574701,220.739683 C128.454185,221.304362 123.389455,219.892666 123.389455,219.892666 C123.389455,219.892666 122.560273,222.042787 117.921339,221.999351 C113.282404,221.955914 112.27394,220.261879 111.310297,219.480016 C110.346653,218.676435 110.189781,217.981447 110.189781,217.699107 C110.189781,217.416768 110.391474,209.771891 110.391474,209.011747 C110.391474,208.251603 111.108604,203.364964 113.999534,203.364964 C116.890464,203.364964 117.585184,208.512224 117.719646,209.315805 C117.854108,210.119386 118.01098,212.63872 118.504007,212.682157 C118.997034,212.725594 118.795341,210.814375 119.086675,208.924874 C119.378009,207.057091 119.983087,204.211981 121.932785,203.973079 Z" id="Path" fill="#010101" fill-rule="nonzero"></path>
                <path d="M66.8482373,203.973079 C65.1898742,203.777613 62.9040224,206.079763 61.4921727,208.838 C60.147554,211.487645 57.5255474,217.959728 57.5255474,218.285504 C57.5255474,218.61128 58.1082156,220.175005 59.2063209,220.739683 C60.3268365,221.304362 65.391567,219.892666 65.391567,219.892666 C65.391567,219.892666 66.2207486,222.042787 70.8596832,221.999351 C75.4986178,221.955914 76.5070818,220.261879 77.4707253,219.480016 C78.4343687,218.676435 78.5912409,217.981447 78.5912409,217.699107 C78.5912409,217.416768 78.3895481,209.771891 78.3895481,209.011747 C78.3895481,208.251603 77.6724181,203.364964 74.7814878,203.364964 C71.8905575,203.364964 71.1958379,208.512224 71.061376,209.315805 C70.9269141,210.119386 70.7700419,212.63872 70.2770151,212.682157 C69.7839882,212.725594 69.985681,210.814375 69.6943469,208.924874 C69.4254232,207.057091 68.7979345,204.211981 66.8482373,203.973079 Z" id="Path" fill="#010101" fill-rule="nonzero"></path>
                <polygon id="Path" fill="#FFFFFF" fill-rule="nonzero" points="77.088653 206.605839 77.7810219 218.301344 76.1605839 220.379562"></polygon>
                <polygon id="Path" fill="#FFFFFF" fill-rule="nonzero" points="130.445255 216.682085 129.292461 218.759124 123.963504 204.175182"></polygon>
                <path d="M187.0288,79.6351519 C188.158448,80.6060327 189.149772,80.385378 190.694393,78.708402 C192.239014,77.031426 193.483933,75.0896644 193.115068,74.0305216 C192.723149,72.9713789 192.561771,72.8389861 192.561771,72.8389861 C192.561771,72.8389861 192.838419,74.4277002 192.008474,74.6704204 C191.178528,74.9352061 191.178528,73.4568193 191.178528,73.1037717 C191.178528,72.7507242 191.616555,71.3826648 193.045906,70.3235221 C194.475256,69.2643794 195.789337,68.9995937 197.011201,68.0949093 C198.233066,67.1902248 198.25612,66.0207547 198.25612,66.0207547 C198.25612,66.0207547 197.241742,66.8592427 196.527066,67.1902248 C195.789337,67.5432724 195.420472,67.6977307 195.259094,67.4329451 C195.074662,67.1902248 196.803715,66.0869512 197.587553,65.005743 C198.37139,63.9245348 199.132174,62.7329992 199.293552,60.9236304 C199.45493,59.1142615 198.60193,57.5255474 198.60193,57.5255474 C198.60193,57.5255474 198.648039,59.8865531 197.679769,61.651791 C196.711499,63.4390943 195.766283,64.5644335 194.867175,64.542368 C193.991122,64.5203026 195.604905,63.2405051 195.789337,61.5193982 C195.973769,59.7982912 195.259094,58.9377378 195.259094,58.9377378 C195.259094,58.9377378 195.443526,60.6809102 193.829743,62.3799516 C192.469555,63.8142074 190.233312,64.7850882 189.241988,65.380856 C188.250664,65.9986893 187.974016,66.0428202 187.766529,65.7780345 C187.559043,65.5132489 187.858746,64.9174811 188.273718,64.5644335 C188.688691,64.2113859 188.873124,64.1451895 188.873124,64.1451895 C188.873124,64.1451895 187.512935,63.7259455 186.360233,65.1381358 C185.20753,66.5503261 185.000044,68.2934985 184.907828,69.5070996 C184.815612,70.7207006 185.20753,72.2432183 184.930882,72.2873492 C184.631179,72.3314802 184.12399,72.1549564 183.89345,71.625385 C183.662909,71.1178791 183.685964,70.367653 183.685964,70.367653 C183.685964,70.367653 182.740748,71.1399446 183.270991,73.2140991 C183.801234,75.2661882 184.054828,76.1708726 185.09226,77.5389319 C186.106638,78.9511222 187.0288,79.6351519 187.0288,79.6351519 Z" id="Path" fill="#010101" fill-rule="nonzero"></path>
                <g id="Group" transform="translate(51.854, 4.0511)" fill-rule="nonzero">
                    <g transform="translate(0, 23.428)">
                        <path d="M7.78241988,0.554640593 L2.86792742,3.19472982 C0.342424347,4.57023849 -0.24913493,7.80933955 1.66205658,9.89478818 L6.59930132,15.2858947 C7.32737428,16.0845772 8.39673144,16.5504753 9.51159315,16.5504753 L71.193024,16.5504753 C72.3078857,16.5504753 73.3772429,16.0845772 74.1053158,15.2858947 L79.2700834,9.69511756 C81.272284,7.54311206 80.5669633,4.17089726 77.859442,2.88413108 L72.9449496,0.554640593 L7.78241988,0.554640593 Z" id="Path" fill="#FCBA49"></path>
                        <path d="M71.2385286,17.0829303 L9.55709771,17.0829303 C8.28297004,17.0829303 7.05434692,16.5504753 6.21251257,15.6408647 L1.27526782,10.2497582 C0.251415228,9.14047697 -0.180878091,7.65404018 0.0693969884,6.18978902 C0.319672067,4.70335223 1.25251554,3.43877168 2.61765234,2.70664609 L7.6459062,0 L73.1269678,0 L78.1552217,2.39604736 C79.6113676,3.0838017 80.6352202,4.37056787 80.9309998,5.87919028 C81.2267794,7.3878127 80.7944861,8.91862073 79.725129,10.0722732 L74.5603614,15.6630503 C73.7185271,16.5726609 72.5126562,17.0829303 71.2385286,17.0829303 Z M7.94168584,1.10928119 L3.16370706,3.68281354 C2.0943499,4.25963975 1.38902922,5.2358072 1.1842587,6.38945963 C0.979488185,7.52092644 1.32077238,8.65239325 2.11710218,9.51763257 L7.05434692,14.9087391 C7.69141076,15.5964935 8.60150196,15.9958347 9.55709771,15.9958347 L71.2385286,15.9958347 C72.1941243,15.9958347 73.1042155,15.5964935 73.7412794,14.9309248 L78.9060469,9.34014758 C79.725129,8.45272264 80.0664132,7.27688458 79.8388904,6.10104652 C79.6113676,4.92520846 78.8150378,3.9268554 77.6774238,3.39440043 L72.8766927,1.10928119 L7.94168584,1.10928119 Z" id="Shape" fill="#000000"></path>
                    </g>
                    <g transform="translate(6.0006, 2.1076)">
                        <path d="M2.46440998,27.1108322 L33.5212721,29.5068795 L66.5348302,27.1108322 C67.5359305,27.0442753 68.3095081,26.4452635 68.3777649,25.6909523 C68.8328105,20.3442169 68.2867558,0.465898098 34.5223724,0.554640593 C0.757988991,0.643383088 0.211934273,20.3885882 0.666979872,25.6909523 C0.712484431,26.4230778 1.48606195,27.0220897 2.46440998,27.1108322 Z" id="Path" fill="#FCBA49"></path>
                        <path d="M33.5212721,30.0615201 L33.4757675,30.0615201 L2.41890543,27.6654728 C1.14477775,27.5767303 0.166429713,26.7558622 0.0754205938,25.7353235 C-0.174854485,22.8290068 -0.129349925,15.3968229 5.62697689,9.27359071 C11.3605514,3.17254419 21.075775,0.0443712474 34.4996201,0 C34.5906292,0 34.6588861,0 34.7498952,0 C47.9917221,0 57.5931842,3.06161607 63.3040065,9.09610572 C69.1285901,15.2415235 69.1740947,22.7846356 68.9238196,25.7131379 C68.8328105,26.7336766 67.8544625,27.5545447 66.5575825,27.6432871 L33.5212721,30.0615201 Z M2.50991454,26.5561916 L33.5212721,28.9522389 L66.4893257,26.5561916 C67.1946463,26.5118203 67.7634533,26.1124791 67.8089579,25.646581 C68.059233,22.8511924 68.0137284,15.7074216 62.5076767,9.87260255 C56.9788727,4.03778352 47.5594288,1.08709556 34.5223724,1.13146681 C21.4398114,1.17583806 11.9976153,4.17089726 6.49156353,10.0279019 C1.03101635,15.8405353 1.00826407,22.8955637 1.23578687,25.646581 C1.25853915,26.1124791 1.80459387,26.4896347 2.50991454,26.5561916 Z" id="Shape" fill="#000000"></path>
                    </g>
                    <g transform="translate(31.3765, 0)">
                        <path d="M0.773577517,9.65074632 C0.773577517,9.65074632 1.82018239,6.25634589 2.13871431,4.72553785 C2.45724623,3.19472982 2.41174167,1.90796364 2.41174167,1.90796364 L9.6242144,0.576826217 L16.1086142,2.04107738 C16.1086142,2.04107738 16.2451279,3.88248415 16.5181552,4.59242411 C16.7911826,5.30236407 17.4965033,9.65074632 17.4965033,9.65074632 L0.773577517,9.65074632 L0.773577517,9.65074632 Z" id="Path" fill="#FCBA49"></path>
                        <path d="M18.1335671,10.2053869 L0,10.2053869 L0.227522799,9.49544695 C0.227522799,9.4510757 1.27412768,6.12323215 1.59265959,4.61460973 C1.91119151,3.17254419 1.84293467,1.95233489 1.84293467,1.95233489 L1.82018239,1.46425117 L9.6242144,0 L16.6319166,1.59736491 L16.6546689,1.99670613 C16.7001735,2.48478986 16.8366871,3.88248415 17.0187054,4.3927535 C17.2917327,5.12487908 17.9515489,9.09610572 18.0198057,9.5398182 L18.1335671,10.2053869 Z M1.52440275,9.09610572 L16.7911826,9.09610572 C16.5181552,7.43218394 16.1086142,5.21362157 15.9493482,4.79209472 C15.7445777,4.23745413 15.608064,3.10598732 15.5398072,2.50697548 L9.57870984,1.15365243 L2.95779639,2.39604736 C2.95779639,2.92850233 2.88953955,3.8381129 2.68476903,4.85865159 C2.45724623,5.96793278 1.86568695,8.00901016 1.52440275,9.09610572 Z" id="Shape" fill="#000000"></path>
                    </g>
                    <path d="M26.9625918,6.61131587 C26.9625918,6.61131587 17.5203957,8.36398014 13.1064534,14.6868829 C8.69251108,21.0097857 8.8972816,26.9111616 8.8972816,26.9111616 C8.8972816,26.9111616 12.5376464,28.1091852 12.8106737,27.4879878 C13.0837011,26.8667903 12.6969123,19.101822 17.1563592,13.9769429 C21.5930538,8.82987824 26.9625918,6.61131587 26.9625918,6.61131587 Z" id="Path" fill="#FFFFFF"></path>
                    <g transform="translate(26.6668, 5.2358)">
                        <ellipse id="Oval" fill="#F15D56" cx="14.2656795" cy="13.9103861" rx="13.6968725" ry="13.3557455"></ellipse>
                        <path d="M14.2656795,27.8207721 C6.39339066,27.8207721 0,21.5866119 0,13.9103861 C0,6.23416026 6.39339066,0 14.2656795,0 C22.1379684,0 28.531359,6.23416026 28.531359,13.9103861 C28.531359,21.5866119 22.1152161,27.8207721 14.2656795,27.8207721 Z M14.2656795,1.10928119 C7.03045449,1.10928119 1.137614,6.85535773 1.137614,13.9103861 C1.137614,20.9654144 7.03045449,26.711491 14.2656795,26.711491 C21.5009045,26.711491 27.393745,20.9654144 27.393745,13.9103861 C27.393745,6.85535773 21.5009045,1.10928119 14.2656795,1.10928119 Z" id="Shape" fill="#000000"></path>
                    </g>
                    <g transform="translate(32.463, 10.9747)" fill="#FFFFFF">
                        <path d="M2.50843886,16.3358105 C1.84862274,16.3358105 1.21155891,16.0917686 0.733761027,15.6258705 C-0.244587009,14.6718887 -0.244587009,13.118895 0.733761027,12.1649132 L7.01339028,6.04168105 C6.8768766,5.46485483 6.83137204,4.86584299 6.92238116,4.24464553 C7.2181608,2.02608316 9.0383432,0.295604508 11.3135712,0.0293770235 C11.9961396,-0.0371798476 12.678708,0.0071913998 13.3385241,0.18467639 C13.5660469,0.251233261 13.7480651,0.42871825 13.816322,0.650574488 C13.8845788,0.872430725 13.816322,1.11647259 13.6343037,1.27177195 L11.4045803,3.42377745 L11.5183417,5.1542561 L12.9972399,5.44266921 L15.5454953,2.95787935 C15.7047612,2.80257999 15.9550363,2.73602312 16.1825591,2.78039436 C16.4100819,2.82476561 16.5921001,2.98006498 16.660357,3.20192121 C16.910632,3.88967555 17.0016412,4.59961551 16.9333843,5.33174109 C16.7058615,7.74997408 14.6581563,9.65793772 12.1781578,9.76886583 C11.5865985,9.79105146 11.0177915,9.72449459 10.4489846,9.56919522 L4.28311669,15.5814992 C3.80531882,16.069583 3.16825498,16.3358105 2.50843886,16.3358105 Z M11.9051305,0.894616348 C11.7458645,0.894616348 11.5865985,0.894616348 11.4045803,0.916801972 C9.53889335,1.13865821 8.05999516,2.5363525 7.80972008,4.37775927 C7.74146324,4.95458549 7.7869678,5.50922608 7.94623376,6.06386667 L8.0144906,6.30790854 L1.37082486,12.7861107 C0.756513307,13.3851225 0.756513307,14.3834756 1.37082486,14.9824874 C1.6666045,15.2709005 2.07614554,15.4483855 2.50843886,15.4483855 C2.94073218,15.4483855 3.32752094,15.2930861 3.64605286,14.9824874 L10.2214618,8.57084215 L10.4944891,8.65958465 C11.0177915,8.85925526 11.5865985,8.92581213 12.1326533,8.90362651 C14.1576062,8.79269839 15.8412749,7.23970473 16.0232931,5.26518422 C16.0687977,4.79928612 16.0232931,4.33338802 15.9095317,3.86748993 L13.2930195,6.41883665 L10.6537551,5.88638168 L10.4717368,3.06880747 L12.7014603,0.916801972 C12.4056806,0.916801972 12.1554055,0.894616348 11.9051305,0.894616348 Z" id="Shape"></path>
                        <ellipse id="Oval" cx="2.5766957" cy="14.0285056" rx="1" ry="1"></ellipse>
                    </g>
                </g>
                <path d="M47.7808198,195.74286 L47.8029197,198.24708 C47.8029197,198.24708 46.8305253,200.108624 45.8139312,201.46046 C44.7973371,202.812296 43.7365433,204.31926 42.8967482,204.164131 C42.056953,204.009003 38.0347763,198.623821 35.6921899,194.834249 L33.7695011,191.753836 C33.4822027,191.266289 33.261204,190.75658 33.1286048,190.202549 C32.7087072,188.296683 31.8689121,183.820112 32.9076061,182.224503 C34.2556982,180.20783 38.101076,182.977985 38.101076,182.977985 L47.7808198,195.74286 Z" id="Path" fill="#010101" fill-rule="nonzero"></path>
                <g id="Group" transform="translate(140.1679, 181.4891)" fill-rule="nonzero">
                    <path d="M0.0220998719,14.2538086 L0,16.7580288 C0,16.7580288 0.972394363,18.6195731 1.98898847,19.9714088 C3.00558258,21.3232445 4.06637643,22.8302089 4.90617156,22.6750802 C5.74596669,22.5199516 9.76814337,17.1347699 12.1107298,13.3451977 L14.0334186,10.2647852 C14.320717,9.77723788 14.5417157,9.26752933 14.6743149,8.7134983 C15.0942125,6.80763156 15.9340076,2.33106084 14.8953136,0.735451475 C13.5472215,-1.28122147 9.70184376,1.48893368 9.70184376,1.48893368 L0.0220998719,14.2538086 Z" id="Path" fill="#010101"></path>
                    <polygon id="Path" fill="#FFFFFF" points="13.3704225 2.3088996 3.00558258 16.5807389 5.37026887 19.9492476 12.3317285 8.27027348"></polygon>
                </g>
                <g id="Group" transform="translate(80.2117, 8.9124)" fill-rule="nonzero">
                    <path d="M0.0125302121,13.7180911 C-0.238791284,5.99917658 6.34126244,-0.043630822 14.2007711,0.000237333177 C22.0374323,0.0225313028 28.7088756,6.02123062 28.3433171,14.4679286 C28.0463008,21.5472759 22.1745167,27.6562454 13.7666703,27.5459752 C6.40980467,27.413651 -0.33018092,21.4370057 0.0125302121,13.7180911 Z M27.4751156,13.8283613 C27.6350474,6.55052762 21.3291626,0.904692967 14.3835503,0.8164768 C6.7525158,0.728260634 0.743647293,6.61668974 0.697693552,13.6739831 C0.652257658,20.7312764 6.66112616,26.4653272 13.6524332,26.6858676 C21.4890945,26.9505161 27.7035896,20.4666279 27.4751156,13.8283613 Z" id="Shape" fill="#FFFFFF"></path>
                    <path d="M27.4751156,13.8283613 C27.7035896,20.4666279 21.5119419,26.9505161 13.6524332,26.7079216 C6.68397357,26.4873812 0.652257658,20.7312764 0.697694524,13.6960371 C0.743647293,6.61668974 6.7525158,0.750314676 14.3835503,0.838530842 C21.3291626,0.882638925 27.6350474,6.55052762 27.4751156,13.8283613 Z M9.6084419,20.4886819 C10.3624064,18.6581965 11.1163709,16.849765 11.9388776,14.8869553 C12.7385369,15.4824145 13.469654,16.0117115 14.2007711,16.5630625 C15.8000897,17.7980888 17.3537135,19.0772232 18.9987269,20.2460874 C19.3185906,20.4886819 20.0497077,20.4886819 20.4152662,20.2901955 C20.6894352,20.1358172 20.7808248,19.49625 20.7808248,19.0772232 C20.8036722,18.7905207 20.5523507,18.4817641 20.4381137,18.1950616 C19.5699121,16.1440357 18.724558,14.0930098 17.8563565,12.041984 C17.0795446,10.2335526 16.3027327,8.40306711 15.4573785,6.63874378 C15.2517519,6.21971699 14.7262615,5.73452808 14.3378555,5.71247404 C13.9951444,5.69041999 13.583891,6.26382508 13.2411799,6.5946357 C13.1040954,6.74901399 13.0584006,6.96955441 12.967011,7.16804078 C11.7560983,10.0130121 10.5451857,12.8359295 9.33427299,15.6809008 C8.67169814,17.2467378 8.00912328,18.8346288 7.32370102,20.4666279 C8.16905514,20.4886819 8.87732482,20.4886819 9.6084419,20.4886819 Z" id="Shape" fill="#000000"></path>
                    <path d="M9.6084419,20.4886819 C8.87732482,20.4886819 8.16905514,20.4886819 7.30085361,20.4886819 C7.98627587,18.8566828 8.64885073,17.2687918 9.31142558,15.7029549 C10.5223382,12.8579835 11.7332509,10.0350662 12.9441636,7.19009482 C13.0355532,6.99160845 13.081248,6.74901399 13.2183325,6.61668974 C13.5610436,6.26382508 13.972297,5.71247404 14.3150081,5.73452808 C14.7262615,5.75658212 15.2517519,6.24177103 15.4345311,6.66079782 C16.2798853,8.44717519 17.0566972,10.2556066 17.8335091,12.064038 C18.7017106,14.1150639 19.5470647,16.1660898 20.4152662,18.2171156 C20.5295033,18.5038182 20.7808248,18.8125747 20.7579774,19.0992773 C20.73513,19.5183041 20.6665877,20.1578713 20.3924188,20.3122496 C20.0268603,20.5107359 19.2957432,20.5107359 18.9758795,20.2681415 C17.3308661,19.0992773 15.7772423,17.8201429 14.1779237,16.5851165 C13.469654,16.0337655 12.7385369,15.5044685 11.9160302,14.9090094 C11.1163709,16.8718191 10.3624064,18.6802505 9.6084419,20.4886819 Z M17.605035,16.7394948 C16.4626645,14.0268477 15.4345311,11.6450112 14.3607029,9.0867424 C13.8352125,10.3217687 13.3325695,11.4244708 12.9441636,12.571281 C12.8527739,12.8359295 13.0584006,13.3431724 13.2868747,13.5196048 C14.6120244,14.5561447 15.9828689,15.5265225 17.605035,16.7394948 Z" id="Shape" fill="#FFFFFF"></path>
                    <path d="M17.605035,16.7394948 C15.9828689,15.5265225 14.6120244,14.5561447 13.2868747,13.5196048 C13.0584006,13.3431724 12.8527739,12.8359295 12.9441636,12.571281 C13.3325695,11.4244708 13.8580599,10.3217687 14.3607029,9.0867424 C15.4573785,11.6450112 16.4626645,14.0268477 17.605035,16.7394948 Z" id="Path" fill="#000000"></path>
                </g>
                <g id="Group" transform="translate(51.854, 25.927)" fill-rule="nonzero">
                    <path d="M77.8612172,2.68298532 L74.3593328,1.00611949 C74.4275514,2.30289573 74.3820723,3.39844807 74.3138538,4.18098545 C74.2456353,4.94116462 73.472492,5.54483632 72.4719536,5.61191095 L39.4769265,8.02659773 L8.43749722,5.61191095 C7.45969835,5.54483632 6.68655505,4.94116462 6.61833653,4.18098545 C6.550118,3.39844807 6.50463899,2.28053752 6.59559702,0.983761282 L2.8663176,3.01835848 C0.342232139,4.40456756 -0.248995087,7.66886636 1.66112364,9.77053819 L6.59559702,15.2035835 C7.3232613,16.008479 8.3920182,16.4780015 9.50625413,16.4780015 L71.1530621,16.4780015 C72.267298,16.4780015 73.3360549,16.008479 74.0637192,15.2035835 L79.2255877,9.56931429 C81.249404,7.37820962 80.5672187,3.97976155 77.8612172,2.68298532 Z" id="Path" fill="#FCBA49"></path>
                    <path d="M71.1985411,17.0145985 L9.55173315,17.0145985 C8.27832066,17.0145985 7.05038719,16.4780015 6.20902537,15.5613148 L1.27455199,10.1282696 C0.251274104,9.01035902 -0.180776561,7.51235888 0.0693580346,6.03671696 C0.31949263,4.53871682 1.25181248,3.2642988 2.616183,2.52647784 L7.25504277,0 L7.18682425,1.00611949 C7.09586621,2.34761215 7.16408474,3.44316449 7.20956375,4.13626903 C7.25504277,4.60579146 7.80079098,5.00823925 8.50571575,5.05295568 L39.4996661,7.46764246 L72.4492141,5.05295568 C73.1541389,5.00823925 73.7226266,4.60579146 73.7681056,4.13626903 C73.8363241,3.4655227 73.8818031,2.36997036 73.8135846,1.05083592 L73.7681056,0.0894328438 L78.1568308,2.19110467 C79.6121593,2.88420921 80.6354372,4.18098545 80.9310508,5.70134379 C81.2266644,7.22170214 80.7946138,8.7644187 79.7258569,9.92704567 L74.5639884,15.5613148 C73.6771476,16.4780015 72.4719536,17.0145985 71.1985411,17.0145985 Z M6.0043698,1.94516435 L3.16193121,3.48788091 C2.09317431,4.06919439 1.38824954,5.05295568 1.18359396,6.21558265 C0.978938381,7.35585141 1.32003101,8.49612016 2.11591381,9.36809039 L7.05038719,14.8011357 C7.68709344,15.4942402 8.59667378,15.896688 9.55173315,15.896688 L71.1985411,15.896688 C72.1536005,15.896688 73.0631808,15.4942402 73.6998871,14.8234939 L78.8617555,9.1892247 C79.6803779,8.29489627 80.0214705,7.10991109 79.7940754,5.9249259 C79.5666803,4.73994072 78.7707975,3.73382123 77.6338221,3.19722417 L74.9732996,1.92280614 C74.9960391,2.88420921 74.9505601,3.68910481 74.905081,4.22570187 C74.814123,5.25417958 73.8363241,6.08143338 72.5401721,6.17086622 L39.4996661,8.58555301 L39.454187,8.58555301 L8.41475771,6.17086622 C7.14134523,6.08143338 6.16354636,5.25417958 6.07258832,4.22570187 C6.0271093,3.68910481 5.98163029,2.90656742 6.0043698,1.94516435 Z" id="Shape" fill="#000000"></path>
                </g>
            </g>
            <g id="Group-21">
                <path d="M72.0664584,5 C32.2840115,5 0,25.7194247 0,51.2520058 C0,65.1128205 9.52636986,77.5488448 24.5904475,86.028664 C23.4666435,89.8798263 21.7654389,96.203605 19.4868337,105 C31.4283485,99.5711549 39.2153211,95.7478676 42.8477517,93.5301379 C51.7823799,96.079619 61.6634523,97.5093277 72.0664584,97.5093277 C111.848905,97.5093277 144.137931,76.78457 144.137931,51.2520058 C144.137931,25.7194298 111.848909,5 72.0664584,5 Z" id="path595" fill-opacity="0.75" fill="#616161" transform="translate(72.069, 55) scale(-1, 1) translate(-72.069, -55)"></path>
                <path d="M76.0664584,0 C36.2840115,0 4,20.7194247 4,46.2520058 C4,60.1128205 13.5263699,72.5488448 28.5904475,81.028664 C27.4666435,84.8798263 25.7654389,91.203605 23.4868337,100 C35.4283485,94.5711549 43.2153211,90.7478676 46.8477517,88.5301379 C55.7823799,91.079619 65.6634523,92.5093277 76.0664584,92.5093277 C115.848905,92.5093277 148.137931,71.78457 148.137931,46.2520058 C148.137931,20.7194298 115.848909,0 76.0664584,0 Z" id="path595" fill="#FFFFFF" transform="translate(76.069, 50) scale(-1, 1) translate(-76.069, -50)"></path>
                <g id="Learn-how-to-contrib" transform="translate(23.584, 29.404)" fill="#151515" fill-rule="nonzero">
                    <polygon id="Path" points="0 12.996 0 0.396 1.89 0.396 1.89 11.322 9.144 11.322 9.144 12.996"></polygon>
                    <path d="M10.422,8.406 C10.422,7.758 10.539,7.146 10.773,6.57 C11.007,5.994 11.331,5.493 11.745,5.067 C12.159,4.641 12.645,4.305 13.203,4.059 C13.761,3.813 14.364,3.69 15.012,3.69 C15.636,3.69 16.221,3.813 16.767,4.059 C17.313,4.305 17.781,4.641 18.171,5.067 C18.561,5.493 18.87,6 19.098,6.588 C19.326,7.176 19.44,7.806 19.44,8.478 L19.44,9 L12.204,9 C12.324,9.756 12.672,10.383 13.248,10.881 C13.824,11.379 14.508,11.628 15.3,11.628 C15.744,11.628 16.17,11.556 16.578,11.412 C16.986,11.268 17.334,11.07 17.622,10.818 L18.774,11.952 C18.234,12.372 17.679,12.678 17.109,12.87 C16.539,13.062 15.912,13.158 15.228,13.158 C14.556,13.158 13.926,13.035 13.338,12.789 C12.75,12.543 12.24,12.21 11.808,11.79 C11.376,11.37 11.037,10.869 10.791,10.287 C10.545,9.705 10.422,9.078 10.422,8.406 Z M14.976,5.202 C14.28,5.202 13.68,5.43 13.176,5.886 C12.672,6.342 12.354,6.93 12.222,7.65 L17.658,7.65 C17.538,6.954 17.226,6.372 16.722,5.904 C16.218,5.436 15.636,5.202 14.976,5.202 Z" id="Shape"></path>
                    <path d="M24.048,13.158 C23.052,13.158 22.242,12.897 21.618,12.375 C20.994,11.853 20.682,11.184 20.682,10.368 C20.682,9.456 21.033,8.763 21.735,8.289 C22.437,7.815 23.322,7.578 24.39,7.578 C24.834,7.578 25.269,7.623 25.695,7.713 C26.121,7.803 26.52,7.926 26.892,8.082 L26.892,7.11 C26.892,6.462 26.7,5.976 26.316,5.652 C25.932,5.328 25.38,5.166 24.66,5.166 C24.216,5.166 23.763,5.232 23.301,5.364 C22.839,5.496 22.344,5.688 21.816,5.94 L21.15,4.59 C21.798,4.29 22.428,4.059 23.04,3.897 C23.652,3.735 24.276,3.654 24.912,3.654 C26.088,3.654 27.006,3.936 27.666,4.5 C28.326,5.064 28.656,5.874 28.656,6.93 L28.656,12.996 L26.892,12.996 L26.892,12.204 C26.496,12.528 26.061,12.768 25.587,12.924 C25.113,13.08 24.6,13.158 24.048,13.158 Z M22.41,10.332 C22.41,10.776 22.602,11.136 22.986,11.412 C23.37,11.688 23.862,11.826 24.462,11.826 C24.942,11.826 25.386,11.754 25.794,11.61 C26.202,11.466 26.568,11.25 26.892,10.962 L26.892,9.36 C26.556,9.18 26.196,9.045 25.812,8.955 C25.428,8.865 25.002,8.82 24.534,8.82 C23.91,8.82 23.4,8.952 23.004,9.216 C22.608,9.48 22.41,9.852 22.41,10.332 Z" id="Shape"></path>
                    <path d="M30.726,12.996 L30.726,3.834 L32.526,3.834 L32.526,4.968 C32.826,4.512 33.198,4.176 33.642,3.96 C34.086,3.744 34.548,3.636 35.028,3.636 C35.232,3.636 35.409,3.648 35.559,3.672 C35.709,3.696 35.844,3.732 35.964,3.78 L35.964,5.4 C35.82,5.352 35.652,5.307 35.46,5.265 C35.268,5.223 35.076,5.202 34.884,5.202 C34.404,5.202 33.954,5.331 33.534,5.589 C33.114,5.847 32.778,6.27 32.526,6.858 L32.526,12.996 L30.726,12.996 Z" id="Path"></path>
                    <path d="M37.422,12.996 L37.422,3.834 L39.222,3.834 L39.222,4.752 C39.582,4.392 39.993,4.119 40.455,3.933 C40.917,3.747 41.424,3.654 41.976,3.654 C43.02,3.654 43.875,3.99 44.541,4.662 C45.207,5.334 45.54,6.192 45.54,7.236 L45.54,12.996 L43.758,12.996 L43.758,7.542 C43.758,6.834 43.554,6.27 43.146,5.85 C42.738,5.43 42.18,5.22 41.472,5.22 C40.992,5.22 40.56,5.322 40.176,5.526 C39.792,5.73 39.474,6.024 39.222,6.408 L39.222,12.996 L37.422,12.996 Z" id="Path"></path>
                    <path d="M51.39,12.996 L51.39,3.834 L53.19,3.834 L53.19,4.752 C53.55,4.392 53.961,4.119 54.423,3.933 C54.885,3.747 55.392,3.654 55.944,3.654 C56.988,3.654 57.843,3.99 58.509,4.662 C59.175,5.334 59.508,6.192 59.508,7.236 L59.508,12.996 L57.726,12.996 L57.726,7.542 C57.726,6.834 57.522,6.27 57.114,5.85 C56.706,5.43 56.148,5.22 55.44,5.22 C54.96,5.22 54.528,5.322 54.144,5.526 C53.76,5.73 53.442,6.024 53.19,6.408 L53.19,12.996 L51.39,12.996 Z M53.19,0 L53.19,12.996 L51.39,12.996 L51.39,0.396 L53.19,0 Z" id="Shape"></path>
                    <path d="M61.2,8.406 C61.2,7.746 61.323,7.125 61.569,6.543 C61.815,5.961 62.154,5.457 62.586,5.031 C63.018,4.605 63.525,4.269 64.107,4.023 C64.689,3.777 65.31,3.654 65.97,3.654 C66.63,3.654 67.251,3.777 67.833,4.023 C68.415,4.269 68.919,4.605 69.345,5.031 C69.771,5.457 70.107,5.961 70.353,6.543 C70.599,7.125 70.722,7.746 70.722,8.406 C70.722,9.078 70.599,9.705 70.353,10.287 C70.107,10.869 69.771,11.373 69.345,11.799 C68.919,12.225 68.415,12.561 67.833,12.807 C67.251,13.053 66.63,13.176 65.97,13.176 C65.31,13.176 64.689,13.053 64.107,12.807 C63.525,12.561 63.018,12.225 62.586,11.799 C62.154,11.373 61.815,10.869 61.569,10.287 C61.323,9.705 61.2,9.078 61.2,8.406 Z M68.976,8.406 C68.976,7.518 68.682,6.768 68.094,6.156 C67.506,5.544 66.798,5.238 65.97,5.238 C65.142,5.238 64.434,5.544 63.846,6.156 C63.258,6.768 62.964,7.518 62.964,8.406 C62.964,9.294 63.255,10.047 63.837,10.665 C64.419,11.283 65.13,11.592 65.97,11.592 C66.798,11.592 67.506,11.283 68.094,10.665 C68.682,10.047 68.976,9.294 68.976,8.406 Z" id="Shape"></path>
                    <polygon id="Path" points="75.888 12.996 74.142 12.996 71.586 3.834 73.332 3.834 75.096 10.566 77.202 3.834 78.75 3.834 80.838 10.566 82.62 3.834 84.312 3.834 81.738 12.996 80.01 12.996 77.958 6.282"></polygon>
                    <path d="M90.54,10.728 L90.54,5.346 L88.596,5.346 L88.596,3.834 L90.54,3.834 L90.54,1.494 L92.322,1.062 L92.322,3.834 L95.022,3.834 L95.022,5.346 L92.322,5.346 L92.322,10.314 C92.322,10.782 92.427,11.112 92.637,11.304 C92.847,11.496 93.192,11.592 93.672,11.592 C93.936,11.592 94.164,11.577 94.356,11.547 C94.548,11.517 94.758,11.46 94.986,11.376 L94.986,12.888 C94.734,12.972 94.452,13.038 94.14,13.086 C93.828,13.134 93.54,13.158 93.276,13.158 C92.388,13.158 91.71,12.951 91.242,12.537 C90.774,12.123 90.54,11.52 90.54,10.728 Z" id="Path"></path>
                    <path d="M95.94,8.406 C95.94,7.746 96.063,7.125 96.309,6.543 C96.555,5.961 96.894,5.457 97.326,5.031 C97.758,4.605 98.265,4.269 98.847,4.023 C99.429,3.777 100.05,3.654 100.71,3.654 C101.37,3.654 101.991,3.777 102.573,4.023 C103.155,4.269 103.659,4.605 104.085,5.031 C104.511,5.457 104.847,5.961 105.093,6.543 C105.339,7.125 105.462,7.746 105.462,8.406 C105.462,9.078 105.339,9.705 105.093,10.287 C104.847,10.869 104.511,11.373 104.085,11.799 C103.659,12.225 103.155,12.561 102.573,12.807 C101.991,13.053 101.37,13.176 100.71,13.176 C100.05,13.176 99.429,13.053 98.847,12.807 C98.265,12.561 97.758,12.225 97.326,11.799 C96.894,11.373 96.555,10.869 96.309,10.287 C96.063,9.705 95.94,9.078 95.94,8.406 Z M103.716,8.406 C103.716,7.518 103.422,6.768 102.834,6.156 C102.246,5.544 101.538,5.238 100.71,5.238 C99.882,5.238 99.174,5.544 98.586,6.156 C97.998,6.768 97.704,7.518 97.704,8.406 C97.704,9.294 97.995,10.047 98.577,10.665 C99.159,11.283 99.87,11.592 100.71,11.592 C101.538,11.592 102.246,11.283 102.834,10.665 C103.422,10.047 103.716,9.294 103.716,8.406 Z" id="Shape"></path>
                    <path d="M12.69,38.574 C13.158,38.574 13.596,38.481 14.004,38.295 C14.412,38.109 14.796,37.83 15.156,37.458 L16.236,38.628 C15.756,39.108 15.204,39.483 14.58,39.753 C13.956,40.023 13.302,40.158 12.618,40.158 C11.958,40.158 11.34,40.035 10.764,39.789 C10.188,39.543 9.69,39.21 9.27,38.79 C8.85,38.37 8.517,37.869 8.271,37.287 C8.025,36.705 7.902,36.078 7.902,35.406 C7.902,34.746 8.025,34.125 8.271,33.543 C8.517,32.961 8.85,32.457 9.27,32.031 C9.69,31.605 10.188,31.269 10.764,31.023 C11.34,30.777 11.958,30.654 12.618,30.654 C13.314,30.654 13.983,30.789 14.625,31.059 C15.267,31.329 15.828,31.704 16.308,32.184 L15.174,33.408 C14.826,33.036 14.436,32.751 14.004,32.553 C13.572,32.355 13.122,32.256 12.654,32.256 C11.826,32.256 11.124,32.562 10.548,33.174 C9.972,33.786 9.684,34.53 9.684,35.406 C9.684,36.306 9.975,37.059 10.557,37.665 C11.139,38.271 11.85,38.574 12.69,38.574 Z" id="Path"></path>
                    <path d="M17.298,35.406 C17.298,34.746 17.421,34.125 17.667,33.543 C17.913,32.961 18.252,32.457 18.684,32.031 C19.116,31.605 19.623,31.269 20.205,31.023 C20.787,30.777 21.408,30.654 22.068,30.654 C22.728,30.654 23.349,30.777 23.931,31.023 C24.513,31.269 25.017,31.605 25.443,32.031 C25.869,32.457 26.205,32.961 26.451,33.543 C26.697,34.125 26.82,34.746 26.82,35.406 C26.82,36.078 26.697,36.705 26.451,37.287 C26.205,37.869 25.869,38.373 25.443,38.799 C25.017,39.225 24.513,39.561 23.931,39.807 C23.349,40.053 22.728,40.176 22.068,40.176 C21.408,40.176 20.787,40.053 20.205,39.807 C19.623,39.561 19.116,39.225 18.684,38.799 C18.252,38.373 17.913,37.869 17.667,37.287 C17.421,36.705 17.298,36.078 17.298,35.406 Z M25.074,35.406 C25.074,34.518 24.78,33.768 24.192,33.156 C23.604,32.544 22.896,32.238 22.068,32.238 C21.24,32.238 20.532,32.544 19.944,33.156 C19.356,33.768 19.062,34.518 19.062,35.406 C19.062,36.294 19.353,37.047 19.935,37.665 C20.517,38.283 21.228,38.592 22.068,38.592 C22.896,38.592 23.604,38.283 24.192,37.665 C24.78,37.047 25.074,36.294 25.074,35.406 Z" id="Shape"></path>
                    <path d="M28.512,39.996 L28.512,30.834 L30.312,30.834 L30.312,31.752 C30.672,31.392 31.083,31.119 31.545,30.933 C32.007,30.747 32.514,30.654 33.066,30.654 C34.11,30.654 34.965,30.99 35.631,31.662 C36.297,32.334 36.63,33.192 36.63,34.236 L36.63,39.996 L34.848,39.996 L34.848,34.542 C34.848,33.834 34.644,33.27 34.236,32.85 C33.828,32.43 33.27,32.22 32.562,32.22 C32.082,32.22 31.65,32.322 31.266,32.526 C30.882,32.73 30.564,33.024 30.312,33.408 L30.312,39.996 L28.512,39.996 Z" id="Path"></path>
                    <path d="M39.924,37.728 L39.924,32.346 L37.98,32.346 L37.98,30.834 L39.924,30.834 L39.924,28.494 L41.706,28.062 L41.706,30.834 L44.406,30.834 L44.406,32.346 L41.706,32.346 L41.706,37.314 C41.706,37.782 41.811,38.112 42.021,38.304 C42.231,38.496 42.576,38.592 43.056,38.592 C43.32,38.592 43.548,38.577 43.74,38.547 C43.932,38.517 44.142,38.46 44.37,38.376 L44.37,39.888 C44.118,39.972 43.836,40.038 43.524,40.086 C43.212,40.134 42.924,40.158 42.66,40.158 C41.772,40.158 41.094,39.951 40.626,39.537 C40.158,39.123 39.924,38.52 39.924,37.728 Z" id="Path"></path>
                    <path d="M45.72,39.996 L45.72,30.834 L47.52,30.834 L47.52,31.968 C47.82,31.512 48.192,31.176 48.636,30.96 C49.08,30.744 49.542,30.636 50.022,30.636 C50.226,30.636 50.403,30.648 50.553,30.672 C50.703,30.696 50.838,30.732 50.958,30.78 L50.958,32.4 C50.814,32.352 50.646,32.307 50.454,32.265 C50.262,32.223 50.07,32.202 49.878,32.202 C49.398,32.202 48.948,32.331 48.528,32.589 C48.108,32.847 47.772,33.27 47.52,33.858 L47.52,39.996 L45.72,39.996 Z" id="Path"></path>
                    <path d="M53.316,29.358 C53.016,29.358 52.755,29.247 52.533,29.025 C52.311,28.803 52.2,28.542 52.2,28.242 C52.2,27.942 52.311,27.681 52.533,27.459 C52.755,27.237 53.016,27.126 53.316,27.126 C53.616,27.126 53.874,27.237 54.09,27.459 C54.306,27.681 54.414,27.942 54.414,28.242 C54.414,28.542 54.306,28.803 54.09,29.025 C53.874,29.247 53.616,29.358 53.316,29.358 Z M54.216,30.834 L54.216,39.996 L52.416,39.996 L52.416,30.834 L54.216,30.834 Z" id="Shape"></path>
                    <path d="M65.52,35.406 C65.52,36.066 65.4,36.684 65.16,37.26 C64.92,37.836 64.593,38.337 64.179,38.763 C63.765,39.189 63.27,39.525 62.694,39.771 C62.118,40.017 61.5,40.14 60.84,40.14 C60.324,40.14 59.832,40.062 59.364,39.906 C58.896,39.75 58.47,39.522 58.086,39.222 L58.086,39.996 L56.304,39.996 L56.304,27.396 L58.104,27 L58.104,31.68 C58.488,31.356 58.917,31.11 59.391,30.942 C59.865,30.774 60.366,30.69 60.894,30.69 C61.542,30.69 62.148,30.813 62.712,31.059 C63.276,31.305 63.765,31.641 64.179,32.067 C64.593,32.493 64.92,32.994 65.16,33.57 C65.4,34.146 65.52,34.758 65.52,35.406 Z M60.642,32.256 C60.114,32.256 59.634,32.352 59.202,32.544 C58.77,32.736 58.404,33 58.104,33.336 L58.104,37.512 C58.392,37.836 58.758,38.094 59.202,38.286 C59.646,38.478 60.126,38.574 60.642,38.574 C61.53,38.574 62.271,38.271 62.865,37.665 C63.459,37.059 63.756,36.312 63.756,35.424 C63.756,34.524 63.453,33.771 62.847,33.165 C62.241,32.559 61.506,32.256 60.642,32.256 Z" id="Shape"></path>
                    <path d="M68.994,30.834 L68.994,36.288 C68.994,36.996 69.198,37.56 69.606,37.98 C70.014,38.4 70.572,38.61 71.28,38.61 C71.76,38.61 72.192,38.508 72.576,38.304 C72.96,38.1 73.278,37.806 73.53,37.422 L73.53,30.834 L75.33,30.834 L75.33,39.996 L73.53,39.996 L73.53,39.078 C73.17,39.438 72.759,39.711 72.297,39.897 C71.835,40.083 71.328,40.176 70.776,40.176 C69.732,40.176 68.877,39.84 68.211,39.168 C67.545,38.496 67.212,37.638 67.212,36.594 L67.212,30.834 L68.994,30.834 Z" id="Path"></path>
                    <path d="M78.624,37.728 L78.624,32.346 L76.68,32.346 L76.68,30.834 L78.624,30.834 L78.624,28.494 L80.406,28.062 L80.406,30.834 L83.106,30.834 L83.106,32.346 L80.406,32.346 L80.406,37.314 C80.406,37.782 80.511,38.112 80.721,38.304 C80.931,38.496 81.276,38.592 81.756,38.592 C82.02,38.592 82.248,38.577 82.44,38.547 C82.632,38.517 82.842,38.46 83.07,38.376 L83.07,39.888 C82.818,39.972 82.536,40.038 82.224,40.086 C81.912,40.134 81.624,40.158 81.36,40.158 C80.472,40.158 79.794,39.951 79.326,39.537 C78.858,39.123 78.624,38.52 78.624,37.728 Z" id="Path"></path>
                    <path d="M84.024,35.406 C84.024,34.758 84.141,34.146 84.375,33.57 C84.609,32.994 84.933,32.493 85.347,32.067 C85.761,31.641 86.247,31.305 86.805,31.059 C87.363,30.813 87.966,30.69 88.614,30.69 C89.238,30.69 89.823,30.813 90.369,31.059 C90.915,31.305 91.383,31.641 91.773,32.067 C92.163,32.493 92.472,33 92.7,33.588 C92.928,34.176 93.042,34.806 93.042,35.478 L93.042,36 L85.806,36 C85.926,36.756 86.274,37.383 86.85,37.881 C87.426,38.379 88.11,38.628 88.902,38.628 C89.346,38.628 89.772,38.556 90.18,38.412 C90.588,38.268 90.936,38.07 91.224,37.818 L92.376,38.952 C91.836,39.372 91.281,39.678 90.711,39.87 C90.141,40.062 89.514,40.158 88.83,40.158 C88.158,40.158 87.528,40.035 86.94,39.789 C86.352,39.543 85.842,39.21 85.41,38.79 C84.978,38.37 84.639,37.869 84.393,37.287 C84.147,36.705 84.024,36.078 84.024,35.406 Z M88.578,32.202 C87.882,32.202 87.282,32.43 86.778,32.886 C86.274,33.342 85.956,33.93 85.824,34.65 L91.26,34.65 C91.14,33.954 90.828,33.372 90.324,32.904 C89.82,32.436 89.238,32.202 88.578,32.202 Z" id="Shape"></path>
                    <path d="M96.336,36.396 L94.932,36.396 L94.698,26.946 L96.552,26.946 L96.336,36.396 Z M95.634,37.854 C95.946,37.854 96.213,37.965 96.435,38.187 C96.657,38.409 96.768,38.676 96.768,38.988 C96.768,39.3 96.657,39.57 96.435,39.798 C96.213,40.026 95.946,40.14 95.634,40.14 C95.322,40.14 95.052,40.026 94.824,39.798 C94.596,39.57 94.482,39.3 94.482,38.988 C94.482,38.676 94.596,38.409 94.824,38.187 C95.052,37.965 95.322,37.854 95.634,37.854 Z" id="Shape"></path>
                </g>
            </g>
        </g>
    </g>
</svg>