<?xml version="1.0" encoding="UTF-8" standalone="no"?>
<!-- Generator: Adobe Illustrator 26.5.0, SVG Export Plug-In . SVG Version: 6.00 Build 0)  -->

<svg
   version="1.1"
   id="bull-builder"
   width="878.98303"
   height="1000.637"
   x="0px"
   y="0px"
   viewBox="0 0 878.84351 1000.703"
   enable-background="new 0 0 1259.8 1516.1"
   xml:space="preserve"
   sodipodi:docname="bull-builder.svg"
   inkscape:version="1.3 (0e150ed6c4, 2023-07-21)"
   xmlns:inkscape="http://www.inkscape.org/namespaces/inkscape"
   xmlns:sodipodi="http://sodipodi.sourceforge.net/DTD/sodipodi-0.dtd"
   xmlns:xlink="http://www.w3.org/1999/xlink"
   xmlns="http://www.w3.org/2000/svg"
   xmlns:svg="http://www.w3.org/2000/svg"><defs
   id="defs52" /><sodipodi:namedview
   id="namedview52"
   pagecolor="#ffffff"
   bordercolor="#111111"
   borderopacity="1"
   inkscape:showpageshadow="0"
   inkscape:pageopacity="0"
   inkscape:pagecheckerboard="1"
   inkscape:deskcolor="#d1d1d1"
   inkscape:zoom="0.50989446"
   inkscape:cx="423.61708"
   inkscape:cy="510.89004"
   inkscape:window-width="1920"
   inkscape:window-height="979"
   inkscape:window-x="0"
   inkscape:window-y="0"
   inkscape:window-maximized="1"
   inkscape:current-layer="bull-builder" />&#10;<circle
   fill="#ffffff"
   cx="415.31131"
   cy="682.20001"
   r="61.400002"
   id="circle1" />&#10;<g
   id="g2"
   transform="translate(-205.48867,-247.5)">&#10;	<path
   fill="#231f20"
   d="m 621.4,906.6 15.8,38.9 -23.8,-18.7 z m 28,47.8 -24.2,-58.3 c -0.7,-1.7 -2.1,-2.6 -3.8,-2.6 -1.7,0 -3.2,0.9 -3.9,2.6 l -26.6,64 h 9.1 l 10.5,-26.4 31.4,25.4 c 1.3,1 2.2,1.5 3.4,1.5 2.4,0 4.4,-1.8 4.4,-4.3 0.1,-0.5 0,-1.2 -0.3,-1.9 z"
   id="path1" />&#10;	<path
   fill="#231f20"
   d="m 620.4,870.2 c -32.8,0 -59.5,26.7 -59.5,59.5 0,32.8 26.7,59.5 59.5,59.5 32.8,0 59.5,-26.7 59.5,-59.5 0,-32.8 -26.7,-59.5 -59.5,-59.5 z m 0,121.8 c -34.3,0 -62.2,-27.9 -62.2,-62.2 0,-34.3 27.9,-62.2 62.2,-62.2 34.3,0 62.2,27.9 62.2,62.2 0,34.2 -27.9,62.2 -62.2,62.2 z"
   id="path2" />&#10;</g>&#10;<g
   id="g5"
   transform="translate(-205.48867,-247.5)">&#10;	<path
   fill="#010101"
   d="m 455,431.2 c 0,0 -30.9,-0.9 -66.1,-21 -35.2,-20.1 -44.2,-39.1 -35.2,-64.8 9,-25.8 18.1,-47.9 55.9,-69.4 37.4,-21.2 102.9,-28.5 102.9,-28.5 0,0 -26.8,21.1 -38.3,40.6 -11.4,19.2 -21.8,39.7 6.6,60.7 28.3,21 63.9,9.4 63.9,9.4 z"
   id="path3" />&#10;	<g
   id="g4">&#10;		<defs
   id="defs3">&#10;			<path
   id="XMLID_00000016786572442136032720000001766681984825574545_"
   d="m 496.2,371.3 c 0,0 -14.7,-3.9 -23.7,-10 -8.9,-6.1 -13.9,-15.8 -13.9,-15.8 0,0 -3.4,6.6 0,12.9 3.4,6.3 9.5,12.9 9.5,12.9 0,0 -30.5,-10.2 -26.6,-44.2 5.4,-46.7 43.2,-68.7 43.2,-68.7 0,0 -39.7,1.1 -68.7,21.6 -29,20.5 -35.8,33.4 -40.5,55 -4.7,21.6 10.8,41.6 30.5,51.9 19.7,10.3 66.3,20.8 66.3,20.8 z" />&#10;		</defs>&#10;		<use
   xlink:href="#XMLID_00000016786572442136032720000001766681984825574545_"
   overflow="visible"
   fill="#ffffff"
   id="use3" />&#10;		<clipPath
   id="XMLID_00000127006008445929754870000017183362683249444255_">&#10;			<use
   xlink:href="#XMLID_00000016786572442136032720000001766681984825574545_"
   overflow="visible"
   id="use4" />&#10;		</clipPath>&#10;		<path
   clip-path="url(#XMLID_00000127006008445929754870000017183362683249444255_)"
   fill="#dddddd"
   d="m 475.9,420.3 -80,-32.1 -30.2,-38.2 6.8,-8.4 c 0,0 2.9,13.9 32.9,30 30,16.1 59.5,15.5 59.5,15.5 0,0 -34.5,-11.8 -49.7,-33.4 -15.3,-21.6 6.8,-45.8 6.8,-45.8 0,0 -9.2,28.4 6.6,43.2 15.8,14.7 29,21.3 29,21.3 0,0 -16.8,-15.8 -19,-30.8 -2.1,-15 17.4,-33.7 17.4,-33.7 l -2.4,47.6 9,11.6 5.5,4.2 c 0,0 15.4,6.4 27.6,8 12.1,1.7 -19.8,41 -19.8,41 z"
   id="path4" />&#10;	</g>&#10;</g>&#10;<g
   id="g7"
   transform="translate(-205.48867,-247.5)">&#10;	<path
   fill="#010101"
   d="m 780.6,431.2 c 0,0 30.9,-0.9 66.1,-21 35.2,-20.1 44.2,-39.1 35.2,-64.8 -9,-25.8 -18.1,-47.9 -55.9,-69.4 -37.4,-21.2 -102.9,-28.5 -102.9,-28.5 0,0 26.8,21.1 38.3,40.6 11.4,19.2 21.8,39.7 -6.6,60.7 -28.3,21 -63.9,9.4 -63.9,9.4 z"
   id="path5" />&#10;	<g
   id="g6">&#10;		<defs
   id="defs5">&#10;			<path
   id="XMLID_00000142857179771692959280000001035502138155132576_"
   d="m 739.3,371.3 c 0,0 14.7,-3.9 23.7,-10 8.9,-6.1 13.9,-15.8 13.9,-15.8 0,0 3.4,6.6 0,12.9 -3.4,6.3 -9.5,12.9 -9.5,12.9 0,0 30.5,-10.2 26.6,-44.2 -5.4,-46.7 -43.2,-68.7 -43.2,-68.7 0,0 39.7,1.1 68.7,21.6 29,20.5 35.8,33.4 40.5,55 4.7,21.6 -10.8,41.6 -30.5,51.9 -19.7,10.3 -66.3,20.8 -66.3,20.8 z" />&#10;		</defs>&#10;		<use
   xlink:href="#XMLID_00000142857179771692959280000001035502138155132576_"
   overflow="visible"
   fill="#ffffff"
   id="use5" />&#10;		<clipPath
   id="XMLID_00000181772430081298345130000001373069936607559570_">&#10;			<use
   xlink:href="#XMLID_00000142857179771692959280000001035502138155132576_"
   overflow="visible"
   id="use6" />&#10;		</clipPath>&#10;		<path
   clip-path="url(#XMLID_00000181772430081298345130000001373069936607559570_)"
   fill="#dddddd"
   d="m 759.6,420.3 80,-32.1 30.3,-38.2 -6.8,-8.4 c 0,0 -2.9,13.9 -32.9,30 -30,16.1 -59.5,15.5 -59.5,15.5 0,0 34.5,-11.8 49.7,-33.4 15.3,-21.6 -6.8,-45.8 -6.8,-45.8 0,0 9.2,28.4 -6.6,43.2 -15.8,14.8 -29,21.3 -29,21.3 0,0 16.8,-15.8 19,-30.8 2.2,-15 -17.4,-33.7 -17.4,-33.7 l 2.4,47.6 -9,11.6 -5.5,4.2 c 0,0 -15.4,6.4 -27.6,8 -12.2,1.7 19.7,41 19.7,41 z"
   id="path6" />&#10;	</g>&#10;</g>&#10;<path
   fill="#323133"
   d="m 832.01133,357.8 c 0,0 -3.9,12.3 -9.4,20.4 -5.5,8.1 -7,10.1 -13.1,10.3 -6.1,0.2 -18.3,-12.2 -27.2,-13 -8.9,-0.8 -15.8,0.8 -20.9,9.4 -5,8.6 -6.5,15.4 -6.5,15.4 l -12.7,-19.8 c 0,0 4.1,-8.6 9.6,-17.1 5.5,-8.5 13.1,-11.9 20.5,-9.2 7.5,2.8 17,11.5 24.2,14.5 7.2,3 10.9,3.9 16.3,0.9 5.4,-3 13.4,-15.6 13.4,-15.6 z"
   id="path7" />&#10;<g
   id="g8"
   transform="translate(-205.48867,-247.5)">&#10;	<path
   fill="#010101"
   d="m 868.6,1071.8 c 0,0 10.2,-37.6 0,-44.8 -10.2,-7.2 -29.7,2.4 -49.5,15.9 -19.9,13.6 -30.8,22.8 -32.3,31.5 -3.9,22.1 21.8,55 21.8,55 h 16.3 l -0.1,11.3 c 0,0 4.4,8.4 9,14.5 4.6,6.1 9.4,12.9 13.2,12.2 3.8,-0.7 22,-25 32.6,-42.1 l 8.7,-13.9 c 1.3,-2.2 2.3,-4.5 2.9,-7 1.9,-8.6 5.7,-28.8 1,-36 -6.1,-9.1 -23.6,3.4 -23.6,3.4 z"
   id="path8" />&#10;	<polygon
   fill="#ffffff"
   points="849.1,1155.2 880.6,1102.5 885.3,1075.6 838.4,1140 "
   id="polygon8" />&#10;</g>&#10;<g
   id="g9"
   transform="translate(-205.48867,-247.5)">&#10;	<path
   fill="#010101"
   d="m 374.1,1071.8 c 0,0 -10.2,-37.6 0,-44.8 10.2,-7.2 29.7,2.4 49.5,15.9 19.9,13.6 30.8,22.8 32.3,31.5 3.9,22.1 -21.8,55 -21.8,55 h -16.3 l 0.1,11.3 c 0,0 -4.4,8.4 -9,14.5 -4.6,6.1 -9.4,12.9 -13.2,12.2 -3.8,-0.7 -22,-25 -32.6,-42.1 l -8.7,-13.9 c -1.3,-2.2 -2.3,-4.5 -2.9,-7 -1.9,-8.6 -5.7,-28.8 -1,-36 6.1,-9.1 23.6,3.4 23.6,3.4 z"
   id="path9" />&#10;	<polygon
   fill="#ffffff"
   points="390.6,1035.5 447.9,1072.9 442.2,1096.8 "
   id="polygon9" />&#10;</g>&#10;<g
   id="g10"
   transform="translate(-205.48867,-247.5)">&#10;	<defs
   id="defs9">&#10;		<path
   id="XMLID_00000132810157011928972590000014050002531829369482_"
   d="M 992.6,679.8 C 946.1,602.4 844.7,556.1 844.7,556.1 H 397.3 c 0,0 -101.4,46.2 -147.9,123.7 -46.5,77.4 -63.4,163.2 -14.9,257.1 54.7,105.8 145.4,142.7 145.4,142.7 0,0 -61.1,-139.6 1.7,-165.9 63.7,-13.1 120,113.4 123.9,163.7 3.9,50.3 8.8,134.9 8.8,134.9 h 5.8 c -0.1,-1.8 -0.1,-3.6 -0.1,-5.5 0,-55.8 45.3,-101.1 101.1,-101.1 55.8,0 101.1,45.3 101.1,101.1 0,1.8 -0.1,3.7 -0.1,5.5 h 5.8 c 0,0 5,-84.6 8.8,-134.9 3.9,-50.3 60.2,-176.8 123.9,-163.7 62.7,26.3 1.7,165.9 1.7,165.9 0,0 90.8,-36.8 145.4,-142.7 48.4,-93.9 31.4,-179.7 -15.1,-257.1 z" />&#10;	</defs>&#10;	<use
   xlink:href="#XMLID_00000132810157011928972590000014050002531829369482_"
   overflow="visible"
   fill="#323133"
   id="use9" />&#10;	<clipPath
   id="XMLID_00000008862669150710430680000002945719654731040130_">&#10;		<use
   xlink:href="#XMLID_00000132810157011928972590000014050002531829369482_"
   overflow="visible"
   id="use10" />&#10;	</clipPath>&#10;	<path
   clip-path="url(#XMLID_00000008862669150710430680000002945719654731040130_)"
   fill="#565656"
   d="m 911,959.7 c -7.4,-53.3 -29.3,-70.4 -62.3,-76.2 -43.8,-7.8 -85.3,46.3 -93.8,57.3 -8.5,11 -21.4,42.2 -24.8,50.2 -3.5,7.9 -5.2,26.5 -37.2,42.7 -29.7,15 -68.7,14 -71.7,13.9 v 0 c 0,0 0,0 -0.1,0 -0.1,0 -0.1,0 -0.1,0 v 0 c -3.1,0.1 -42.1,1.1 -71.7,-13.9 -32.1,-16.2 -33.8,-34.8 -37.2,-42.7 -3.5,-7.9 -16.4,-39.2 -24.8,-50.2 -8.4,-11 -49.9,-65 -93.8,-57.3 -33.1,5.8 -54.9,22.9 -62.3,76.2 -7.4,53.3 16.8,117.6 16.8,117.6 l 4,186.3 h 269 0.2 269 l 4,-186.3 c 0,0 24.2,-64.3 16.8,-117.6 z"
   id="path10" />&#10;</g>&#10;<g
   id="g11"
   transform="translate(-205.48867,-247.5)">&#10;	<path
   fill="#565656"
   d="m 808.6,586.8 c 0,0 101.4,46.2 147.9,123.7 45.1,75.2 62.5,158.4 18.9,249.2 3,-5.1 5.9,-10.4 8.7,-15.8 C 1032.6,850 1015.6,764.2 969.2,686.7 922.7,609.3 821.3,563 821.3,563 Z"
   id="path11" />&#10;</g>&#10;<path
   fill="#f47521"
   d="m 191.31133,308.6 c 0,0 -48,9.3 -105.699999,71.1 -22,23.6 47.599999,53.2 74.399999,187.7 6.2,30.9 6.2,104.2 6.2,104.2 0,0 50,18.8 71.9,50.7 30.8,44.9 25.4,91.2 25.4,91.2 0,0 52.1,1.7 73.5,4 21.4,2.4 69.1,-4 69.1,-4 l -3.5,-504.6 z"
   id="path12" />&#10;<g
   id="g14"
   transform="translate(-205.48867,-247.5)">&#10;	&#10;		<rect
   x="393.20001"
   y="813.5"
   transform="rotate(-90,505.9359,833.4176)"
   fill="#dddddd"
   width="225.5"
   height="39.799999"
   id="rect12" />&#10;	<path
   fill="#dddddd"
   d="M 610.9,969.5 H 451.5 v 0 c -10.7,-15.6 -25.6,-28.2 -43.3,-36.4 l -7.1,-3.3 h 209.8 z"
   id="path13" />&#10;	<path
   fill="#dddddd"
   d="M 611.5,1033.2 H 473.4 v 0 c -1,-13.1 -4.4,-26 -10,-37.8 l -0.9,-2 h 148.8 z"
   id="path14" />&#10;</g>&#10;<path
   fill="#f47521"
   d="m 639.31133,308.6 c 0,0 48,9.3 105.7,71.1 22,23.6 -47.6,53.2 -74.4,187.7 -6.2,30.9 -6.2,104.2 -6.2,104.2 0,0 -50,18.8 -71.9,50.7 -30.8,44.9 -25.4,91.2 -25.4,91.2 0,0 -52.1,1.7 -73.5,4 -21.4,2.4 -69.1,-4 -69.1,-4 l 3.5,-504.6 z"
   id="path15" />&#10;<g
   id="g17"
   transform="translate(-205.48867,-247.5)">&#10;	&#10;		<rect
   x="622.90002"
   y="813.5"
   transform="rotate(-90,735.60135,833.41755)"
   fill="#dddddd"
   width="225.5"
   height="39.799999"
   id="rect15" />&#10;	<path
   fill="#dddddd"
   d="M 630.7,969.5 H 790 v 0 c 10.7,-15.6 25.6,-28.2 43.3,-36.4 l 7.1,-3.3 H 630.7 Z"
   id="path16" />&#10;	<path
   fill="#dddddd"
   d="m 630.1,1033.2 h 138.1 v 0 c 1,-13.1 4.4,-26 10,-37.8 l 0.9,-2 H 630.3 Z"
   id="path17" />&#10;</g>&#10;<g
   id="g33"
   transform="translate(-205.48867,-247.5)">&#10;	<ellipse
   fill="#010101"
   cx="621"
   cy="676.29999"
   rx="269"
   ry="214.8"
   id="ellipse17" />&#10;	<ellipse
   fill="#323133"
   cx="621"
   cy="475"
   rx="171.7"
   ry="153.8"
   id="ellipse18" />&#10;	<ellipse
   fill="#323133"
   cx="621"
   cy="649.20001"
   rx="243.3"
   ry="201.39999"
   id="ellipse19" />&#10;	<g
   id="g23">&#10;		<ellipse
   fill="#565656"
   cx="621"
   cy="703.40002"
   rx="197.7"
   ry="147.2"
   id="ellipse20" />&#10;		<g
   id="g22">&#10;			<ellipse
   fill="#565656"
   cx="655"
   cy="621"
   rx="90.099998"
   ry="79.900002"
   id="ellipse21" />&#10;			<ellipse
   fill="#565656"
   cx="587"
   cy="621"
   rx="90.099998"
   ry="79.900002"
   id="ellipse22" />&#10;		</g>&#10;	</g>&#10;	<g
   id="g24">&#10;		&#10;			<ellipse
   transform="matrix(0.4593,-0.8883,0.8883,0.4593,-244.232,1024.436)"
   fill="#010101"
   cx="719.40002"
   cy="712.79999"
   rx="49.599998"
   ry="34.400002"
   id="ellipse23" />&#10;		&#10;			<ellipse
   transform="matrix(0.8883,-0.4593,0.4593,0.8883,-269.0387,319.7029)"
   fill="#010101"
   cx="522.59998"
   cy="712.79999"
   rx="34.400002"
   ry="49.599998"
   id="ellipse24" />&#10;	</g>&#10;	<path
   fill="#323133"
   d="m 614,328.5 c -0.5,-7.1 6.5,-13.4 15.5,-13.9 4.5,-0.3 8.6,0.9 11.7,3 -2.1,-5.9 -10.8,-10 -20.9,-9.3 -11.4,0.7 -20.2,7.1 -19.7,14.2 0.4,5.8 6.8,10.3 15.3,11.4 -1.1,-1.6 -1.8,-3.4 -1.9,-5.4 z"
   id="path24" />&#10;	<g
   id="g29">&#10;		<g
   id="g26">&#10;			&#10;				<ellipse
   transform="matrix(0.1946,-0.9809,0.9809,0.1946,207.6349,1197.5894)"
   fill="#323133"
   cx="833.09998"
   cy="472.39999"
   rx="19.6"
   ry="48.599998"
   id="ellipse25" />&#10;			&#10;				<ellipse
   transform="matrix(0.1946,-0.9809,0.9809,0.1946,202.8057,1200.4052)"
   fill="#010101"
   cx="832.40002"
   cy="476.70001"
   rx="15.2"
   ry="45.400002"
   id="ellipse26" />&#10;		</g>&#10;		<g
   id="g28">&#10;			&#10;				<ellipse
   transform="matrix(0.9809,-0.1946,0.1946,0.9809,-84.1104,88.6171)"
   fill="#323133"
   cx="408.89999"
   cy="472.39999"
   rx="48.599998"
   ry="19.6"
   id="ellipse27" />&#10;			&#10;				<ellipse
   transform="matrix(0.9809,-0.1946,0.1946,0.9809,-84.9434,88.8365)"
   fill="#010101"
   cx="409.60001"
   cy="476.70001"
   rx="45.400002"
   ry="15.2"
   id="ellipse28" />&#10;		</g>&#10;	</g>&#10;	<g
   id="g32">&#10;		<g
   id="g30">&#10;			&#10;				<ellipse
   transform="matrix(0.06974687,-0.9976,0.9976,0.06974687,141.1601,1122.0881)"
   fill="#010101"
   cx="672.20001"
   cy="485.39999"
   rx="39.099998"
   ry="19.5"
   id="ellipse29" />&#10;			<circle
   fill="#ffffff"
   cx="673.79999"
   cy="472.60001"
   r="13.6"
   id="circle29" />&#10;		</g>&#10;		<g
   id="g31">&#10;			&#10;				<ellipse
   transform="matrix(0.9976,-0.06974687,0.06974687,0.9976,-32.4645,40.9237)"
   fill="#010101"
   cx="569.79999"
   cy="485.39999"
   rx="19.5"
   ry="39.099998"
   id="ellipse30" />&#10;			<circle
   fill="#ffffff"
   cx="568.20001"
   cy="472.60001"
   r="13.6"
   id="circle30" />&#10;		</g>&#10;	</g>&#10;</g>&#10;<path
   fill="#010101"
   d="m 536.31133,917.7 c 7.4,-0.9 17.6,9.7 23.9,22.4 6,12.2 17.7,42 17.7,43.5 0,1.5 -2.6,8.7 -7.5,11.3 -5,2.6 -27.6,-3.9 -27.6,-3.9 0,0 -3.7,9.9 -24.4,9.7 -20.7,-0.2 -25.2,-8 -29.5,-11.6 -4.3,-3.7 -5,-6.9 -5,-8.2 0,-1.3 0.9,-36.5 0.9,-40 0,-3.5 3.2,-26 16.1,-26 12.9,0 16,23.7 16.6,27.4 0.6,3.7 1.3,15.3 3.5,15.5 2.2,0.2 1.3,-8.6 2.6,-17.3 1.3,-8.6 4,-21.7 12.7,-22.8 z"
   id="path33" />&#10;<path
   fill="#010101"
   d="m 297.11133,917.7 c -7.4,-0.9 -17.6,9.7 -23.9,22.4 -6,12.2 -17.7,42 -17.7,43.5 0,1.5 2.6,8.7 7.5,11.3 5,2.6 27.6,-3.9 27.6,-3.9 0,0 3.7,9.9 24.4,9.7 20.7,-0.2 25.2,-8 29.5,-11.6 4.3,-3.7 5,-6.9 5,-8.2 0,-1.3 -0.9,-36.5 -0.9,-40 0,-3.5 -3.2,-26 -16.1,-26 -12.9,0 -16,23.7 -16.6,27.4 -0.6,3.7 -1.3,15.3 -3.5,15.5 -2.2,0.2 -1.3,-8.6 -2.6,-17.3 -1.2,-8.6 -4,-21.7 -12.7,-22.8 z"
   id="path34" />&#10;<polygon
   fill="#ffffff"
   points="537.8,1238.6 544.1,1176.3 548.8,1229.2 "
   id="polygon34"
   transform="translate(-205.48867,-247.5)" />&#10;<polygon
   fill="#ffffff"
   points="749.1,1173.3 778.9,1229.3 773.6,1238.6 "
   id="polygon35"
   transform="translate(-205.48867,-247.5)" />&#10;<path
   fill="#010101"
   d="m 825.61133,357.7 c 4.9,4.4 9.2,3.4 15.9,-4.2 6.7,-7.6 12.1,-16.4 10.5,-21.2 -1.7,-4.8 -2.4,-5.4 -2.4,-5.4 0,0 1.2,7.2 -2.4,8.3 -3.6,1.2 -3.6,-5.5 -3.6,-7.1 0,-1.6 1.9,-7.8 8.1,-12.6 6.2,-4.8 11.9,-6 17.2,-10.1 5.3,-4.1 5.4,-9.4 5.4,-9.4 0,0 -4.4,3.8 -7.5,5.3 -3.2,1.6 -4.8,2.3 -5.5,1.1 -0.8,-1.1 6.7,-6.1 10.1,-11 3.4,-4.9 6.7,-10.3 7.4,-18.5 0.7,-8.2 -3,-15.4 -3,-15.4 0,0 0.2,10.7 -4,18.7 -4.2,8.1 -8.3,13.2 -12.2,13.1 -3.8,-0.1 3.2,-5.9 4,-13.7 0.8,-7.8 -2.3,-11.7 -2.3,-11.7 0,0 0.8,7.9 -6.2,15.6 -5.9,6.5 -15.6,10.9 -19.9,13.6 -4.3,2.8 -5.5,3 -6.4,1.8 -0.9,-1.2 0.4,-3.9 2.2,-5.5 1.8,-1.6 2.6,-1.9 2.6,-1.9 0,0 -5.9,-1.9 -10.9,4.5 -5,6.4 -5.9,14.3 -6.3,19.8 -0.4,5.5 1.3,12.4 0.1,12.6 -1.3,0.2 -3.5,-0.6 -4.5,-3 -1,-2.3 -0.9,-5.7 -0.9,-5.7 0,0 -4.1,3.5 -1.8,12.9 2.3,9.3 3.4,13.4 7.9,19.6 4.4,6.4 8.4,9.5 8.4,9.5 z"
   id="path35" />&#10;<g
   id="g45"
   transform="translate(-205.48867,-247.5)">&#10;	<g
   id="g37">&#10;		<path
   fill="#fcba49"
   d="m 472.8,369.8 -21.6,11.9 c -11.1,6.2 -13.7,20.8 -5.3,30.2 l 21.7,24.3 c 3.2,3.6 7.9,5.7 12.8,5.7 h 271.1 c 4.9,0 9.6,-2.1 12.8,-5.7 L 787,411 c 8.8,-9.7 5.7,-24.9 -6.2,-30.7 l -21.6,-10.5 z"
   id="path36" />&#10;		<path
   d="M 751.7,444.3 H 480.6 c -5.6,0 -11,-2.4 -14.7,-6.5 l -21.7,-24.3 c -4.5,-5 -6.4,-11.7 -5.3,-18.3 1.1,-6.7 5.2,-12.4 11.2,-15.7 l 22.1,-12.2 H 760 l 22.1,10.8 c 6.4,3.1 10.9,8.9 12.2,15.7 1.3,6.8 -0.6,13.7 -5.3,18.9 l -22.7,25.2 c -3.7,4.1 -9,6.4 -14.6,6.4 z m -278.2,-72 -21,11.6 c -4.7,2.6 -7.8,7 -8.7,12.2 -0.9,5.1 0.6,10.2 4.1,14.1 l 21.7,24.3 c 2.8,3.1 6.8,4.9 11,4.9 h 271.1 c 4.2,0 8.2,-1.8 11,-4.8 l 22.7,-25.2 c 3.6,-4 5.1,-9.3 4.1,-14.6 -1,-5.3 -4.5,-9.8 -9.5,-12.2 l -21.1,-10.3 z"
   id="path37" />&#10;	</g>&#10;	<g
   id="g39">&#10;		<path
   fill="#fcba49"
   d="m 475.8,393.4 136.5,10.8 145.1,-10.8 c 4.4,-0.3 7.8,-3 8.1,-6.4 2,-24.1 -0.4,-113.7 -148.8,-113.3 -148.4,0.4 -150.8,89.4 -148.8,113.3 0.2,3.3 3.6,6 7.9,6.4 z"
   id="path38" />&#10;		<path
   d="m 612.3,406.7 h -0.2 L 475.6,395.9 c -5.6,-0.4 -9.9,-4.1 -10.3,-8.7 -1.1,-13.1 -0.9,-46.6 24.4,-74.2 25.2,-27.5 67.9,-41.6 126.9,-41.8 0.4,0 0.7,0 1.1,0 58.2,0 100.4,13.8 125.5,41 25.6,27.7 25.8,61.7 24.7,74.9 -0.4,4.6 -4.7,8.3 -10.4,8.7 z M 476,390.9 612.3,401.7 757.2,390.9 c 3.1,-0.2 5.6,-2 5.8,-4.1 1.1,-12.6 0.9,-44.8 -23.3,-71.1 -24.3,-26.3 -65.7,-39.6 -123,-39.4 -57.5,0.2 -99,13.7 -123.2,40.1 -24,26.2 -24.1,58 -23.1,70.4 0.1,2.1 2.5,3.8 5.6,4.1 z"
   id="path39" />&#10;	</g>&#10;	<g
   id="g41">&#10;		<path
   fill="#fcba49"
   d="m 579.9,305.2 c 0,0 4.6,-15.3 6,-22.2 1.4,-6.9 1.2,-12.7 1.2,-12.7 l 31.7,-6 28.5,6.6 c 0,0 0.6,8.3 1.8,11.5 1.2,3.2 4.3,22.8 4.3,22.8 z"
   id="path40" />&#10;		<path
   d="m 656.2,307.7 h -79.7 l 1,-3.2 c 0,-0.2 4.6,-15.2 6,-22 1.4,-6.5 1.1,-12 1.1,-12 l -0.1,-2.2 34.3,-6.6 30.8,7.2 0.1,1.8 c 0.2,2.2 0.8,8.5 1.6,10.8 1.2,3.3 4.1,21.2 4.4,23.2 z m -73,-5 h 67.1 c -1.2,-7.5 -3,-17.5 -3.7,-19.4 -0.9,-2.5 -1.5,-7.6 -1.8,-10.3 l -26.2,-6.1 -29.1,5.6 c 0,2.4 -0.3,6.5 -1.2,11.1 -1,5 -3.6,14.2 -5.1,19.1 z"
   id="path41" />&#10;	</g>&#10;	<path
   fill="#ffffff"
   d="m 557.1,291.5 c 0,0 -41.5,7.9 -60.9,36.4 -19.4,28.5 -18.5,55.1 -18.5,55.1 0,0 16,5.4 17.2,2.6 1.2,-2.8 -0.5,-37.8 19.1,-60.9 19.5,-23.2 43.1,-33.2 43.1,-33.2 z"
   id="path42" />&#10;	<g
   id="g43">&#10;		<circle
   fill="#f15d56"
   cx="618.5"
   cy="348"
   r="60.200001"
   id="circle42" />&#10;		<path
   d="m 618.5,410.7 c -34.6,0 -62.7,-28.1 -62.7,-62.7 0,-34.6 28.1,-62.7 62.7,-62.7 34.6,0 62.7,28.1 62.7,62.7 0,34.6 -28.2,62.7 -62.7,62.7 z m 0,-120.4 c -31.8,0 -57.7,25.9 -57.7,57.7 0,31.8 25.9,57.7 57.7,57.7 31.8,0 57.7,-25.9 57.7,-57.7 0,-31.8 -25.9,-57.7 -57.7,-57.7 z"
   id="path43" />&#10;	</g>&#10;	<g
   id="g44">&#10;		<path
   fill="#ffffff"
   d="m 592.3,384.8 c -2.9,0 -5.7,-1.1 -7.8,-3.2 -4.3,-4.3 -4.3,-11.3 0,-15.6 l 27.6,-27.6 c -0.6,-2.6 -0.8,-5.3 -0.4,-8.1 1.3,-10 9.3,-17.8 19.3,-19 3,-0.3 6,-0.1 8.9,0.7 1,0.3 1.8,1.1 2.1,2.1 0.3,1 0,2.1 -0.8,2.8 l -9.8,9.7 0.5,7.8 6.5,1.3 11.2,-11.2 c 0.7,-0.7 1.8,-1 2.8,-0.8 1,0.2 1.8,0.9 2.1,1.9 1.1,3.1 1.5,6.3 1.2,9.6 -1,10.9 -10,19.5 -20.9,20 -2.6,0.1 -5.1,-0.2 -7.6,-0.9 l -27.1,27.1 c -2.1,2.2 -4.9,3.4 -7.8,3.4 z m 41.3,-69.6 c -0.7,0 -1.4,0 -2.2,0.1 -8.2,1 -14.7,7.3 -15.8,15.6 -0.3,2.6 -0.1,5.1 0.6,7.6 l 0.3,1.1 -29.2,29.2 c -2.7,2.7 -2.7,7.2 0,9.9 1.3,1.3 3.1,2.1 5,2.1 1.9,0 3.6,-0.7 5,-2.1 l 28.9,-28.9 1.2,0.4 c 2.3,0.9 4.8,1.2 7.2,1.1 8.9,-0.5 16.3,-7.5 17.1,-16.4 0.2,-2.1 0,-4.2 -0.5,-6.3 l -11.5,11.5 -11.6,-2.4 -0.8,-12.7 9.8,-9.7 c -1.3,0 -2.4,-0.1 -3.5,-0.1 z"
   id="path44" />&#10;		<circle
   fill="#ffffff"
   cx="592.59998"
   cy="374.39999"
   r="2.4000001"
   id="circle44" />&#10;	</g>&#10;</g>&#10;<g
   id="g46"
   transform="translate(-205.48867,-247.5)">&#10;	<path
   fill="#010101"
   d="m 417.8,1129.5 0.1,11.3 c 0,0 -4.4,8.4 -9,14.5 -4.6,6.1 -9.4,12.9 -13.2,12.2 -3.8,-0.7 -22,-25 -32.6,-42.1 l -8.7,-13.9 c -1.3,-2.2 -2.3,-4.5 -2.9,-7 -1.9,-8.6 -5.7,-28.8 -1,-36 6.1,-9.1 23.5,3.4 23.5,3.4 z"
   id="path45" />&#10;</g>&#10;<g
   id="g47"
   transform="translate(-205.48867,-247.5)">&#10;	<path
   fill="#010101"
   d="m 824.9,1129.5 -0.1,11.3 c 0,0 4.4,8.4 9,14.5 4.6,6.1 9.4,12.9 13.2,12.2 3.8,-0.7 22,-25 32.6,-42.1 l 8.7,-13.9 c 1.3,-2.2 2.3,-4.5 2.9,-7 1.9,-8.6 5.7,-28.8 1,-36 -6.1,-9.1 -23.5,3.4 -23.5,3.4 z"
   id="path46" />&#10;	<polygon
   fill="#ffffff"
   points="849.1,1155.2 880.6,1102.5 885.3,1075.6 838.4,1140 "
   id="polygon46" />&#10;</g>&#10;<g
   id="g50"
   transform="translate(-205.48867,-247.5)">&#10;	<path
   fill="#ffffff"
   d="m 556.5,348.8 c -1.1,-35 27.7,-62.4 62.1,-62.2 34.3,0.1 63.5,27.3 61.9,65.6 -1.3,32.1 -27,59.8 -63.8,59.3 -32.2,-0.6 -61.7,-27.7 -60.2,-62.7 z m 120.2,0.5 c 0.7,-33 -26.9,-58.6 -57.3,-59 -33.4,-0.4 -59.7,26.3 -59.9,58.3 -0.2,32 26.1,58 56.7,59 34.3,1.2 61.5,-28.2 60.5,-58.3 z"
   id="path47" />&#10;	<path
   d="m 676.7,349.3 c 1,30.1 -26.1,59.5 -60.5,58.4 -30.5,-1 -56.9,-27.1 -56.7,-59 0.2,-32.1 26.5,-58.7 59.9,-58.3 30.4,0.2 58,25.9 57.3,58.9 z m -78.2,30.2 c 3.3,-8.3 6.6,-16.5 10.2,-25.4 3.5,2.7 6.7,5.1 9.9,7.6 7,5.6 13.8,11.4 21,16.7 1.4,1.1 4.6,1.1 6.2,0.2 1.2,-0.7 1.6,-3.6 1.6,-5.5 0.1,-1.3 -1,-2.7 -1.5,-4 -3.8,-9.3 -7.5,-18.6 -11.3,-27.9 -3.4,-8.2 -6.8,-16.5 -10.5,-24.5 -0.9,-1.9 -3.2,-4.1 -4.9,-4.2 -1.5,-0.1 -3.3,2.5 -4.8,4 -0.6,0.7 -0.8,1.7 -1.2,2.6 -5.3,12.9 -10.6,25.7 -15.9,38.6 -2.9,7.1 -5.8,14.3 -8.8,21.7 3.7,0.1 6.8,0.1 10,0.1 z"
   id="path48" />&#10;	<path
   fill="#ffffff"
   d="m 598.5,379.5 c -3.2,0 -6.3,0 -10.1,0 3,-7.4 5.9,-14.6 8.8,-21.7 5.3,-12.9 10.6,-25.7 15.9,-38.6 0.4,-0.9 0.6,-2 1.2,-2.6 1.5,-1.6 3.3,-4.1 4.8,-4 1.8,0.1 4.1,2.3 4.9,4.2 3.7,8.1 7.1,16.3 10.5,24.5 3.8,9.3 7.5,18.6 11.3,27.9 0.5,1.3 1.6,2.7 1.5,4 -0.1,1.9 -0.4,4.8 -1.6,5.5 -1.6,0.9 -4.8,0.9 -6.2,-0.2 -7.2,-5.3 -14,-11.1 -21,-16.7 -3.1,-2.5 -6.3,-4.9 -9.9,-7.6 -3.5,8.9 -6.8,17.1 -10.1,25.3 z m 35,-17 c -5,-12.3 -9.5,-23.1 -14.2,-34.7 -2.3,5.6 -4.5,10.6 -6.2,15.8 -0.4,1.2 0.5,3.5 1.5,4.3 5.8,4.7 11.8,9.1 18.9,14.6 z"
   id="path49" />&#10;	<path
   d="m 633.5,362.5 c -7.1,-5.5 -13.1,-9.9 -18.9,-14.6 -1,-0.8 -1.9,-3.1 -1.5,-4.3 1.7,-5.2 4,-10.2 6.2,-15.8 4.8,11.6 9.2,22.4 14.2,34.7 z"
   id="path50" />&#10;</g>&#10;<g
   id="g52"
   transform="translate(-205.48867,-247.5)">&#10;	<path
   fill="#fcba49"
   d="m 781,378.8 -15.4,-7.5 c 0.3,5.8 0.1,10.7 -0.2,14.2 -0.3,3.4 -3.7,6.1 -8.1,6.4 L 612.2,402.7 475.7,391.9 c -4.3,-0.3 -7.7,-3 -8,-6.4 -0.3,-3.5 -0.5,-8.5 -0.1,-14.3 l -16.4,9.1 c -11.1,6.2 -13.7,20.8 -5.3,30.2 l 21.7,24.3 c 3.2,3.6 7.9,5.7 12.8,5.7 h 271.1 c 4.9,0 9.6,-2.1 12.8,-5.7 L 787,409.6 c 8.9,-9.8 5.9,-25 -6,-30.8 z"
   id="path51" />&#10;	<path
   d="M 751.7,442.9 H 480.6 c -5.6,0 -11,-2.4 -14.7,-6.5 l -21.7,-24.3 c -4.5,-5 -6.4,-11.7 -5.3,-18.3 1.1,-6.7 5.2,-12.4 11.2,-15.7 l 20.4,-11.3 -0.3,4.5 c -0.4,6 -0.1,10.9 0.1,14 0.2,2.1 2.6,3.9 5.7,4.1 l 136.3,10.8 144.9,-10.8 c 3.1,-0.2 5.6,-2 5.8,-4.1 0.3,-3 0.5,-7.9 0.2,-13.8 l -0.2,-4.3 19.3,9.4 c 6.4,3.1 10.9,8.9 12.2,15.7 1.3,6.8 -0.6,13.7 -5.3,18.9 l -22.7,25.2 c -3.9,4.1 -9.2,6.5 -14.8,6.5 z M 465,375.5 l -12.5,6.9 c -4.7,2.6 -7.8,7 -8.7,12.2 -0.9,5.1 0.6,10.2 4.1,14.1 l 21.7,24.3 c 2.8,3.1 6.8,4.9 11,4.9 h 271.1 c 4.2,0 8.2,-1.8 11,-4.8 l 22.7,-25.2 c 3.6,-4 5.1,-9.3 4.1,-14.6 -1,-5.3 -4.5,-9.8 -9.5,-12.2 l -11.7,-5.7 c 0.1,4.3 -0.1,7.9 -0.3,10.3 -0.4,4.6 -4.7,8.3 -10.4,8.7 l -145.3,10.8 h -0.2 L 475.6,394.4 c -5.6,-0.4 -9.9,-4.1 -10.3,-8.7 -0.2,-2.4 -0.4,-5.9 -0.3,-10.2 z"
   id="path52" />&#10;</g>&#10;</svg>
