<?xml version="1.0" encoding="UTF-8" standalone="no"?>
<svg
   id="bullhorn-subscribe"
   width="904.82153"
   height="675.87903"
   data-name="Layer 2"
   viewBox="0 0 1679.9804 1136.4076"
   version="1.1"
   sodipodi:docname="bullhorn_subscribe.svg"
   inkscape:version="1.3 (0e150ed6c4, 2023-07-21)"
   xmlns:inkscape="http://www.inkscape.org/namespaces/inkscape"
   xmlns:sodipodi="http://sodipodi.sourceforge.net/DTD/sodipodi-0.dtd"
   xmlns="http://www.w3.org/2000/svg"
   xmlns:svg="http://www.w3.org/2000/svg">
  <sodipodi:namedview
     id="namedview50"
     pagecolor="#ffffff"
     bordercolor="#111111"
     borderopacity="1"
     inkscape:showpageshadow="0"
     inkscape:pageopacity="0"
     inkscape:pagecheckerboard="1"
     inkscape:deskcolor="#d1d1d1"
     inkscape:zoom="0.68867925"
     inkscape:cx="445.05479"
     inkscape:cy="339.05479"
     inkscape:window-width="1920"
     inkscape:window-height="979"
     inkscape:window-x="0"
     inkscape:window-y="0"
     inkscape:window-maximized="1"
     inkscape:current-layer="bullhorn-subscribe" />
  <defs
     id="defs3">
    <style
       id="style1">&#10;      .cls-1 {&#10;        clip-path: url(#clippath);&#10;      }&#10;&#10;      .cls-2 {&#10;        fill: #fff;&#10;      }&#10;&#10;      .cls-3 {&#10;        fill: #323133;&#10;      }&#10;&#10;      .cls-4 {&#10;        fill: #ddd;&#10;      }&#10;&#10;      .cls-5 {&#10;        fill: #dcdcdc;&#10;      }&#10;&#10;      .cls-6 {&#10;        fill: #231f20;&#10;      }&#10;&#10;      .cls-7 {&#10;        fill: #555;&#10;      }&#10;&#10;      .cls-8 {&#10;        clip-path: url(#clippath-1);&#10;      }&#10;&#10;      .cls-9 {&#10;        clip-path: url(#clippath-2);&#10;      }&#10;    </style>
    <clipPath
       id="clippath">
      <path
         class="cls-3"
         d="m 699.12,611.38 c 0,0 36.78,28.26 85.95,24 49.17,-4.26 120.39,-29.89 178.89,-111.13 37.88,-52.6 49.08,-62.6 49.08,-62.6 0,0 -23.25,141.89 -59.95,222.43 -37.6,82.51 -128.4,180.09 -188.64,230.53 -41.8,35 -45.82,41.58 -45.82,41.58 -39.48,34.75 -123.83,126.14 -127.7,176.47 -3.87,50.32 -8.85,134.94 -8.85,134.94 h -5.76 c 0.1,-1.82 0.15,-3.64 0.15,-5.49 0,-55.84 -45.27,-101.11 -101.11,-101.11 -55.84,0 -101.11,45.27 -101.11,101.11 0,1.84 0.05,3.67 0.15,5.49 h -5.76 c 0,0 -4.98,-84.61 -8.85,-134.94 -3.87,-50.32 -60.16,-176.81 -123.88,-163.69 -62.71,26.31 -1.66,165.9 -1.66,165.9 0,0 -90.77,-36.83 -145.44,-142.68 C 40.3,898.27 57.29,812.46 103.74,735.04 150.19,657.62 251.61,611.38 251.61,611.38 h 446.34"
         id="path1" />
    </clipPath>
    <clipPath
       id="clippath-1">
      <path
         class="cls-2"
         d="m 350.58,426.58 c 0,0 -14.74,-3.95 -23.69,-10 -8.95,-6.05 -13.95,-15.79 -13.95,-15.79 0,0 -3.42,6.58 0,12.9 3.42,6.32 9.48,12.9 9.48,12.9 0,0 -30.52,-10.22 -26.58,-44.22 5.41,-46.66 43.16,-68.7 43.16,-68.7 0,0 -39.74,1.05 -68.7,21.58 -28.96,20.53 -35.8,33.43 -40.53,55.01 -4.73,21.58 10.79,41.59 30.53,51.85 19.74,10.26 66.33,20.79 66.33,20.79 z"
         id="path2" />
    </clipPath>
    <clipPath
       id="clippath-2">
      <path
         class="cls-2"
         d="m 593.68,426.58 c 0,0 14.74,-3.95 23.69,-10 8.95,-6.05 13.95,-15.79 13.95,-15.79 0,0 3.42,6.58 0,12.9 -3.42,6.32 -9.48,12.9 -9.48,12.9 0,0 30.52,-10.22 26.58,-44.22 -5.41,-46.66 -43.16,-68.7 -43.16,-68.7 0,0 39.74,1.05 68.7,21.58 28.96,20.53 35.8,33.43 40.53,55.01 4.73,21.58 -10.79,41.59 -30.53,51.85 -19.74,10.26 -66.33,20.79 -66.33,20.79 z"
         id="path3" />
    </clipPath>
  </defs>
  <path
     class="cls-3"
     d="m 679.73048,961.51476 c 0,0 -2.25,-14.83692 -7.15,-25.22374 -4.9,-10.38683 -6.28,-12.90724 -13.34,-14.29543 -7.06,-1.38819 -23.73,10.59358 -34.2,9.88472 -10.47,-0.70887 -18.34,-3.84953 -22.63,-14.67939 -4.28,-10.82987 -4.75,-18.8932 -4.75,-18.8932 l -18.61,20.46845 c 0,0 3.21,10.66249 8.05,21.44313 4.84,10.78064 13.04,16.14635 22.27,14.3545 9.23,-1.79185 21.99,-10.05209 31,-12.14914 9,-2.09706 13.47,-2.47118 19.2,1.95922 5.74,4.4304 12.75,20.42906 12.75,20.42906 z"
     id="path4"
     style="stroke-width:0.992236" />
  <g
     id="g7"
     transform="matrix(1,0,0,0.98453324,-59.679522,-99.083519)">
    <path
       class="cls-3"
       d="m 699.12,611.38 c 0,0 36.78,28.26 85.95,24 49.17,-4.26 120.39,-29.89 178.89,-111.13 37.88,-52.6 49.08,-62.6 49.08,-62.6 0,0 -23.25,141.89 -59.95,222.43 -37.6,82.51 -128.4,180.09 -188.64,230.53 -41.8,35 -45.82,41.58 -45.82,41.58 -39.48,34.75 -123.83,126.14 -127.7,176.47 -3.87,50.32 -8.85,134.94 -8.85,134.94 h -5.76 c 0.1,-1.82 0.15,-3.64 0.15,-5.49 0,-55.84 -45.27,-101.11 -101.11,-101.11 -55.84,0 -101.11,45.27 -101.11,101.11 0,1.84 0.05,3.67 0.15,5.49 h -5.76 c 0,0 -4.98,-84.61 -8.85,-134.94 -3.87,-50.32 -60.16,-176.81 -123.88,-163.69 -62.71,26.31 -1.66,165.9 -1.66,165.9 0,0 -90.77,-36.83 -145.44,-142.68 C 40.3,898.27 57.29,812.46 103.74,735.04 150.19,657.62 251.61,611.38 251.61,611.38 h 446.34"
       id="path5" />
    <g
       class="cls-1"
       clip-path="url(#clippath)"
       id="g6">
      <path
         class="cls-7"
         d="m 765.36,1014.92 c 7.37,53.3 -16.82,117.58 -16.82,117.58 l -4.02,186.28 H 206.22 L 202.2,1132.5 c 0,0 -24.19,-64.28 -16.82,-117.58 7.37,-53.3 29.26,-70.38 62.31,-76.23 43.83,-7.75 85.32,46.33 93.76,57.26 8.44,10.93 21.35,42.21 24.83,50.15 3.48,7.95 5.15,26.49 37.24,42.71 29.67,15 68.66,14.01 71.74,13.91 v 0 c 0,0 0.04,0 0.1,0 0.06,0 0.1,0 0.1,0 v 0 c 3.08,0.11 42.07,1.09 71.74,-13.9 32.09,-16.22 33.77,-34.76 37.24,-42.71 3.48,-7.95 15.1,-40.36 24.83,-50.15 35.59,-35.84 120.79,-87.82 178.56,-139.81 57.77,-51.99 146.89,-147.66 172.49,-224.48 25.6,-76.82 52.71,-170 52.71,-170 l -4.05,284.59 -243.63,268.67 z"
         id="path6" />
    </g>
  </g>
  <g
     id="g8"
     transform="matrix(1,0,0,0.98453324,-59.679522,-99.083519)">
    <rect
       class="cls-2"
       x="1002.78"
       y="374.23001"
       width="24.98"
       height="53.790001"
       transform="rotate(-9.8,1015.201,401.11696)"
       id="rect7" />
    <path
       d="m 1018.92,378.27 7.45,43.15 -14.76,2.55 -7.45,-43.15 14.76,-2.55 m 4.08,-5.78 -24.61,4.25 9.16,53.01 24.61,-4.25 z"
       id="path7" />
  </g>
  <g
     id="g9"
     transform="matrix(1,0,0,0.98453324,-59.679522,-99.083519)">
    <ellipse
       cx="965.64001"
       cy="356.64999"
       rx="15.15"
       ry="30.74"
       transform="rotate(-8.17,965.51935,356.61835)"
       id="ellipse8" />
    <path
       d="m 962.36,331.14 c 4.12,0 11.19,9.16 13.33,24.07 2.23,15.55 -2.29,26.33 -6.39,26.92 -0.12,0.02 -0.25,0.03 -0.37,0.03 -4.12,0 -11.19,-9.16 -13.33,-24.07 -1.04,-7.28 -0.64,-14.53 1.11,-19.89 1.32,-4.06 3.35,-6.76 5.28,-7.04 0.12,-0.02 0.25,-0.03 0.37,-0.03 m 0,-5 c -0.36,0 -0.72,0.03 -1.08,0.08 -8.28,1.19 -13.04,15.78 -10.63,32.58 2.31,16.07 10.34,28.35 18.28,28.35 0.36,0 0.72,-0.03 1.08,-0.08 8.28,-1.19 13.04,-15.78 10.63,-32.58 -2.31,-16.07 -10.34,-28.35 -18.28,-28.35 z"
       id="path8" />
  </g>
  <g
     id="g10"
     transform="matrix(1,0,0,0.98453324,-59.679522,-99.083519)">
    <path
       class="cls-2"
       d="m 1220.11,143.66 c 0,0 -119.01,116.56 -145.75,133.73 -26.95,17.31 -113.94,47.93 -113.94,47.93 0,0 2.71,18.99 5.88,34.36 3.17,15.37 3.81,29.06 3.81,29.06 0,0 87.58,-9.94 122.8,-9.94 31.65,0 197.74,59.51 197.74,59.51 l -70.53,-294.66 z"
       id="path9" />
    <path
       d="m 1216.17,157.28 64.66,270.14 c -15.69,-5.52 -44.59,-15.56 -75.02,-25.51 -61.06,-19.97 -99.05,-30.1 -112.92,-30.1 -29.67,0 -94.55,6.8 -116.37,9.18 -0.54,-5.63 -1.55,-13.87 -3.37,-22.72 -2.05,-9.94 -3.92,-21.55 -4.96,-28.29 19.72,-7.08 86.28,-31.5 109.95,-46.7 23.01,-14.78 109.72,-98.48 138.03,-126 m 3.94,-13.62 c 0,0 -119.01,116.56 -145.75,133.73 -26.95,17.31 -113.94,47.93 -113.94,47.93 0,0 2.71,18.99 5.88,34.36 3.17,15.37 3.81,29.06 3.81,29.06 0,0 87.58,-9.94 122.8,-9.94 31.65,0 197.74,59.51 197.74,59.51 l -70.53,-294.66 v 0 z"
       id="path10" />
  </g>
  <ellipse
     class="cls-2"
     cx="415.53046"
     cy="870.6424"
     id="circle10"
     rx="61.389999"
     ry="60.440495"
     style="stroke-width:0.992236" />
  <path
     class="cls-7"
     d="m 655.67048,532.44533 c 0,0 82.21,12.99584 110.41,5.31648 28.2,-7.67936 98.4,-63.20704 114.6,-78.56576 16.2,-15.35872 24,-25.21389 24,-25.21389 0,0 -81.61,105.54196 -124.5,120.30996 -42.89,14.768 -131.09,-4.72576 -131.09,-4.72576 l 6.59,-17.13088 z"
     id="path11"
     style="stroke-width:0.992236" />
  <g
     id="g16"
     transform="matrix(1,0,0,0.98453324,-59.679522,-99.083519)">
    <path
       d="m 309.32,486.47 c 0,0 -30.9,-0.86 -66.1,-21.03 -35.19,-20.17 -44.21,-39.06 -35.19,-64.81 9.01,-25.75 18.06,-47.88 55.91,-69.37 37.39,-21.22 102.89,-28.49 102.89,-28.49 0,0 -26.76,21.09 -38.32,40.58 -11.37,19.17 -21.76,39.68 6.56,60.71 28.33,21.03 63.95,9.44 63.95,9.44 l -89.7,72.96 z"
       id="path12" />
    <g
       id="g15">
      <path
         class="cls-2"
         d="m 350.58,426.58 c 0,0 -14.74,-3.95 -23.69,-10 -8.95,-6.05 -13.95,-15.79 -13.95,-15.79 0,0 -3.42,6.58 0,12.9 3.42,6.32 9.48,12.9 9.48,12.9 0,0 -30.52,-10.22 -26.58,-44.22 5.41,-46.66 43.16,-68.7 43.16,-68.7 0,0 -39.74,1.05 -68.7,21.58 -28.96,20.53 -35.8,33.43 -40.53,55.01 -4.73,21.58 10.79,41.59 30.53,51.85 19.74,10.26 66.33,20.79 66.33,20.79 z"
         id="path13" />
      <g
         class="cls-8"
         clip-path="url(#clippath-1)"
         id="g14">
        <path
           class="cls-5"
           d="m 330.31,475.53 -80.01,-32.11 -30.27,-38.16 6.84,-8.42 c 0,0 2.9,13.95 32.9,30 30,16.06 59.48,15.53 59.48,15.53 0,0 -34.48,-11.84 -49.74,-33.43 -15.26,-21.59 6.84,-45.8 6.84,-45.8 0,0 -9.21,28.43 6.58,43.16 15.79,14.74 28.95,21.32 28.95,21.32 0,0 -16.84,-15.79 -18.95,-30.79 -2.11,-15 17.37,-33.69 17.37,-33.69 l -2.37,47.64 8.99,11.63 5.49,4.16 c 0,0 15.41,6.36 27.6,8.02 12.18,1.67 -19.7,40.93 -19.7,40.93 z"
           id="path14" />
      </g>
    </g>
  </g>
  <g
     id="g20"
     transform="matrix(1,0,0,0.98453324,-59.679522,-99.083519)">
    <path
       d="m 634.94,486.47 c 0,0 30.9,-0.86 66.1,-21.03 35.2,-20.17 44.21,-39.06 35.19,-64.81 -9.01,-25.75 -18.06,-47.88 -55.91,-69.37 -37.39,-21.22 -102.89,-28.49 -102.89,-28.49 0,0 26.76,21.09 38.32,40.58 11.37,19.17 21.76,39.68 -6.56,60.71 -28.33,21.03 -63.95,9.44 -63.95,9.44 l 89.7,72.96 z"
       id="path16" />
    <g
       id="g19">
      <path
         class="cls-2"
         d="m 593.68,426.58 c 0,0 14.74,-3.95 23.69,-10 8.95,-6.05 13.95,-15.79 13.95,-15.79 0,0 3.42,6.58 0,12.9 -3.42,6.32 -9.48,12.9 -9.48,12.9 0,0 30.52,-10.22 26.58,-44.22 -5.41,-46.66 -43.16,-68.7 -43.16,-68.7 0,0 39.74,1.05 68.7,21.58 28.96,20.53 35.8,33.43 40.53,55.01 4.73,21.58 -10.79,41.59 -30.53,51.85 -19.74,10.26 -66.33,20.79 -66.33,20.79 z"
         id="path17" />
      <g
         class="cls-9"
         clip-path="url(#clippath-2)"
         id="g18">
        <path
           class="cls-5"
           d="m 613.95,475.53 80.01,-32.11 30.27,-38.16 -6.84,-8.42 c 0,0 -2.9,13.95 -32.9,30 -30,16.06 -59.48,15.53 -59.48,15.53 0,0 34.48,-11.84 49.74,-33.43 15.26,-21.59 -6.84,-45.8 -6.84,-45.8 0,0 9.21,28.43 -6.58,43.16 -15.79,14.74 -28.95,21.32 -28.95,21.32 0,0 16.84,-15.79 18.95,-30.79 2.11,-15 -17.37,-33.69 -17.37,-33.69 l 2.37,47.64 -8.99,11.63 -5.49,4.16 c 0,0 -15.41,6.36 -27.6,8.02 -12.18,1.67 19.7,40.93 19.7,40.93 z"
           id="path18" />
      </g>
    </g>
  </g>
  <g
     id="g21"
     transform="matrix(1,0,0,0.98453324,-59.679522,-99.083519)">
    <path
       d="m 1010.82,471.48 c 0,0 -14.92,36.19 -5.51,44.65 9.41,8.46 30.13,1.32 51.72,-9.74 21.65,-11.09 33.79,-18.92 36.4,-27.4 6.64,-21.58 -15.11,-57.57 -15.11,-57.57 l -16.4,-2.02 1.48,-11.27 c 0,0 -3.42,-8.92 -7.25,-15.54 -3.83,-6.62 -7.9,-14.06 -11.81,-13.78 -3.91,0.29 -25.2,22.24 -37.98,37.95 l -10.44,12.83 c -1.62,1.99 -2.88,4.22 -3.74,6.63 -2.96,8.3 -9.3,28.06 -5.41,35.74 4.98,9.83 24.07,-0.49 24.07,-0.49 z"
       id="path20" />
    <polygon
       class="cls-2"
       points="1002.6,439.36 994.57,465.65 1049.68,407.16 1040.74,390.73 "
       id="polygon20" />
  </g>
  <g
     id="g22"
     transform="matrix(1,0,0,0.98453324,-59.679522,-99.083519)">
    <path
       d="m 228.43,1127.04 c 0,0 -10.24,-37.55 0,-44.76 10.24,-7.21 29.67,2.37 49.49,15.93 19.86,13.59 30.81,22.8 32.34,31.49 3.89,22.12 -21.77,55 -21.77,55 h -16.31 l 0.09,11.31 c 0,0 -4.43,8.39 -8.98,14.46 -4.55,6.07 -9.44,12.92 -13.23,12.16 -3.79,-0.76 -22,-25.04 -32.62,-42.11 l -8.68,-13.95 c -1.34,-2.16 -2.31,-4.52 -2.86,-7 -1.9,-8.55 -5.72,-28.84 -0.98,-35.95 6.07,-9.1 23.52,3.41 23.52,3.41 z"
       id="path21" />
    <polygon
       class="cls-2"
       points="302.3,1128.16 296.58,1152.07 244.97,1090.75 "
       id="polygon21" />
  </g>
  <g
     id="g38"
     transform="matrix(1,0,0,0.98453324,-59.679522,-99.083519)">
    <ellipse
       cx="475.37"
       cy="731.57001"
       rx="269.04999"
       ry="214.8"
       id="ellipse22" />
    <ellipse
       class="cls-3"
       cx="475.37"
       cy="530.27002"
       rx="171.74001"
       ry="153.81"
       id="ellipse23" />
    <ellipse
       class="cls-3"
       cx="475.37"
       cy="704.47998"
       rx="243.27"
       ry="201.39999"
       id="ellipse24" />
    <g
       id="g28">
      <ellipse
         class="cls-7"
         cx="475.37"
         cy="758.63"
         rx="197.64999"
         ry="147.25"
         id="ellipse25" />
      <g
         id="g27">
        <ellipse
           class="cls-7"
           cx="509.38"
           cy="676.26001"
           rx="90.110001"
           ry="79.940002"
           id="ellipse26" />
        <ellipse
           class="cls-7"
           cx="441.37"
           cy="676.26001"
           rx="90.110001"
           ry="79.940002"
           id="ellipse27" />
      </g>
    </g>
    <g
       id="g29">
      <ellipse
         cx="573.77002"
         cy="768.09003"
         rx="49.650002"
         ry="34.349998"
         transform="rotate(-62.66,573.71312,768.05859)"
         id="ellipse28" />
      <ellipse
         cx="376.97"
         cy="768.09003"
         rx="34.349998"
         ry="49.650002"
         transform="rotate(-27.34,377.05567,768.194)"
         id="ellipse29" />
    </g>
    <path
       class="cls-3"
       d="m 468.36,383.78 c -0.45,-7.13 6.49,-13.37 15.5,-13.94 4.47,-0.28 8.6,0.89 11.69,3 -2.1,-5.93 -10.78,-9.99 -20.9,-9.35 -11.36,0.72 -20.2,7.08 -19.75,14.21 0.37,5.82 6.81,10.35 15.34,11.43 -1.08,-1.59 -1.76,-3.4 -1.88,-5.35 z"
       id="path29" />
    <g
       id="g34">
      <g
         id="g31">
        <ellipse
           class="cls-3"
           cx="687.46002"
           cy="527.59998"
           rx="19.610001"
           ry="48.630001"
           transform="rotate(-78.78,687.4304,527.59621)"
           id="ellipse30" />
        <ellipse
           cx="686.76001"
           cy="531.95001"
           rx="15.2"
           ry="45.349998"
           transform="rotate(-78.78,686.73257,531.94733)"
           id="ellipse31" />
      </g>
      <g
         id="g33">
        <ellipse
           class="cls-3"
           cx="263.29001"
           cy="527.59998"
           rx="48.630001"
           ry="19.610001"
           transform="rotate(-11.22,263.35981,527.72757)"
           id="ellipse32" />
        <ellipse
           cx="263.98999"
           cy="531.95001"
           rx="45.349998"
           ry="15.2"
           transform="rotate(-11.22,264.06467,532.06247)"
           id="ellipse33" />
      </g>
    </g>
    <g
       id="g37">
      <g
         id="g35">
        <ellipse
           cx="526.58002"
           cy="540.59998"
           rx="39.110001"
           ry="19.52"
           transform="rotate(-86,526.58975,540.60359)"
           id="ellipse34" />
        <circle
           class="cls-2"
           cx="528.20001"
           cy="527.79999"
           r="13.65"
           id="circle34" />
      </g>
      <g
         id="g36">
        <ellipse
           cx="424.16"
           cy="540.59998"
           rx="19.52"
           ry="39.110001"
           transform="rotate(-4,424.09511,540.4957)"
           id="ellipse35" />
        <circle
           class="cls-2"
           cx="422.54999"
           cy="527.79999"
           r="13.65"
           id="circle35" />
      </g>
    </g>
  </g>
  <path
     d="m 536.48048,1102.4901 c 7.36,-0.9058 17.62,9.5303 23.87,22.0831 6,12.0507 17.74,41.3307 17.74,42.8173 0,1.4867 -2.55,8.5556 -7.51,11.1056 -4.96,2.5499 -27.62,-3.8102 -27.62,-3.8102 0,0 -3.67,9.7666 -24.37,9.5599 -20.7,-0.2166 -25.23,-7.8566 -29.55,-11.4699 -4.31,-3.6132 -4.96,-6.7932 -4.96,-8.0731 0,-1.2799 0.93,-35.9453 0.93,-39.342 0,-3.3966 3.17,-25.6372 16.11,-25.6372 12.94,0 15.96,23.3531 16.61,26.9663 0.65,3.6133 1.29,15.0831 3.45,15.2898 2.16,0.2068 1.29,-8.4965 2.59,-16.993 1.3,-8.4965 4.03,-21.4431 12.72,-22.5064 z"
     id="path38"
     style="stroke-width:0.992236" />
  <path
     d="m 297.33048,1102.4901 c -7.36,-0.9058 -17.62,9.5303 -23.87,22.0831 -6,12.0507 -17.74,41.3307 -17.74,42.8173 0,1.4867 2.55,8.5556 7.51,11.1056 4.96,2.5499 27.62,-3.8102 27.62,-3.8102 0,0 3.67,9.7666 24.37,9.5599 20.7,-0.2166 25.23,-7.8566 29.55,-11.4699 4.31,-3.6132 4.96,-6.7932 4.96,-8.0731 0,-1.2799 -0.93,-35.9453 -0.93,-39.342 0,-3.3966 -3.17,-25.6372 -16.11,-25.6372 -12.94,0 -15.96,23.3531 -16.61,26.9663 -0.65,3.6133 -1.29,15.0831 -3.45,15.2898 -2.16,0.2068 -1.29,-8.4965 -2.59,-16.993 -1.29,-8.4965 -4.03,-21.4431 -12.72,-22.5064 z"
     id="path39"
     style="stroke-width:0.992236" />
  <polygon
     class="cls-2"
     points="398.45,1231.51 403.16,1284.49 392.18,1293.89 "
     id="polygon39"
     transform="matrix(1,0,0,0.98453324,-59.679522,-99.083519)" />
  <polygon
     class="cls-2"
     points="633.26,1284.57 627.97,1293.8 603.43,1228.5 "
     id="polygon40"
     transform="matrix(1,0,0,0.98453324,-59.679522,-99.083519)" />
  <path
     d="m 670.72048,963.02109 c 5.98,-5.30663 11.42,-4.20395 19.76,4.84391 8.34,9.03801 15.25,19.52329 13.24,25.23358 -2.01,5.7103 -2.95,6.48808 -2.95,6.48808 0,0 1.34,-8.62451 -3.13,-9.96348 -4.47,-1.33896 -4.39,6.65545 -4.37,8.50637 0.02,1.85092 2.49,9.34325 10.2,15.03385 7.7,5.6906 14.88,7 21.47,11.8439 6.58,4.8538 6.81,11.1548 6.81,11.1548 0,0 -5.46,-4.4599 -9.42,-6.2813 -3.96,-1.8214 -5.93,-2.6484 -6.88,-1.2799 -0.95,1.3685 8.36,7.2462 12.63,13.0451 4.27,5.7989 8.45,12.2672 9.44,22.0732 0.98,9.8158 -3.48,18.4994 -3.48,18.4994 0,0 0.11,-12.7793 -5.26,-22.3686 -5.37,-9.5992 -10.5,-15.7329 -15.23,-15.5163 -4.73,0.2166 4.08,7.0788 5.15,16.3334 1.08,9.3433 -2.66,14.0789 -2.66,14.0789 0,0 0.94,-9.5008 -7.89,-18.5979 -7.44,-7.6695 -19.43,-12.8284 -24.81,-16.0676 -5.38,-3.2489 -6.86,-3.4852 -7.99,-2.0379 -1.13,1.4472 0.51,4.6273 2.81,6.5471 2.3,1.9199 3.23,2.1955 3.23,2.1955 0,0 -7.25,2.3629 -13.56,-5.2771 -6.31,-7.64 -7.47,-16.9832 -8.07,-23.6583 -0.6,-6.685 1.51,-14.8763 -0.07,-15.1126 -1.58,-0.2363 -4.38,0.8073 -5.57,3.6132 -1.19,2.806 -1.07,6.7835 -1.07,6.7835 0,0 -5.13,-4.1843 -2.36,-15.38832 2.77,-11.20399 4.03,-16.12665 9.56,-23.55003 5.53,-7.42339 10.48,-11.16461 10.48,-11.16461 z"
     id="path40"
     style="stroke-width:0.992236" />
  <path
     d="m 212.50048,1067.2832 0.09,11.1351 c 0,0 -4.43,8.2602 -8.98,14.2363 -4.55,5.9761 -9.44,12.7202 -13.23,11.9719 -3.79,-0.7482 -22,-24.6527 -32.62,-41.4586 l -8.68,-13.7343 c -1.34,-2.1266 -2.31,-4.4501 -2.86,-6.8917 -1.9,-8.4178 -5.72,-28.394 -0.98,-35.394 6.07,-8.95928 23.52,3.3573 23.52,3.3573 l 43.75,56.7682 z"
     id="path41"
     style="stroke-width:0.992236" />
  <g
     id="g42"
     transform="matrix(1,0,0,0.98453324,-59.679522,-99.083519)">
    <path
       d="m 1061.91,419.4 1.48,-11.27 c 0,0 -3.42,-8.92 -7.25,-15.54 -3.83,-6.62 -7.9,-14.06 -11.81,-13.78 -3.91,0.29 -25.2,22.24 -37.98,37.95 l -10.44,12.83 c -1.62,1.99 -2.88,4.22 -3.74,6.63 -2.96,8.3 -9.3,28.06 -5.41,35.74 4.98,9.83 24.07,-0.49 24.07,-0.49 l 51.09,-52.08 z"
       id="path42" />
    <polygon
       class="cls-2"
       points="1002.6,439.36 994.57,465.65 1049.68,407.16 1040.74,390.73 "
       id="polygon42" />
  </g>
  <ellipse
     class="cls-2"
     cx="415.53046"
     cy="870.6424"
     id="circle42"
     rx="61.389999"
     ry="60.440495"
     style="stroke-width:0.992236" />
  <g
     id="g44"
     transform="matrix(1,0,0,0.98453324,-59.679522,-99.083519)">
    <path
       class="cls-6"
       d="m 475.76,961.8 15.76,38.89 -23.8,-18.75 z m 27.99,47.85 -24.24,-58.33 c -0.69,-1.68 -2.08,-2.57 -3.75,-2.57 -1.67,0 -3.17,0.89 -3.86,2.57 l -26.6,63.98 h 9.1 l 10.53,-26.38 31.43,25.39 c 1.26,1.02 2.18,1.48 3.36,1.48 2.37,0 4.45,-1.78 4.45,-4.35 0,-0.42 -0.15,-1.08 -0.41,-1.8 v 0 z"
       id="path43" />
    <path
       class="cls-6"
       d="m 474.74,925.41 c -32.83,0 -59.55,26.71 -59.55,59.55 0,32.84 26.71,59.55 59.55,59.55 32.84,0 59.55,-26.71 59.55,-59.55 0,-32.84 -26.71,-59.55 -59.55,-59.55 z m 0,121.78 c -34.32,0 -62.23,-27.92 -62.23,-62.23 0,-34.31 27.92,-62.23 62.23,-62.23 34.31,0 62.23,27.92 62.23,62.23 0,34.31 -27.92,62.23 -62.23,62.23 z"
       id="path44" />
  </g>
  <ellipse
     cx="1124.2715"
     cy="453.77777"
     rx="39.647663"
     ry="150.73056"
     transform="matrix(0.97389218,-0.22701105,0.23381237,0.97228174,0,0)"
     id="ellipse44"
     style="stroke-width:0.992249" />
  <ellipse
     class="cls-2"
     cx="1124.2715"
     cy="453.77777"
     rx="36.380329"
     ry="138.28546"
     transform="matrix(0.97389218,-0.22701105,0.23381237,0.97228174,0,0)"
     id="ellipse45"
     style="stroke-width:0.992249" />
  <ellipse
     cx="1124.2715"
     cy="453.77777"
     rx="32.423557"
     ry="123.23901"
     transform="matrix(0.97389218,-0.22701105,0.23381237,0.97228174,0,0)"
     id="ellipse46"
     style="stroke-width:0.992249" />
  <path
     class="cls-4"
     d="m 1177.4205,151.7657 c -5.5,0 -10.74,1.11253 -15.5,3.12097 1.82,12.19837 4.33,25.12529 7.52,38.43618 3.05,12.68079 6.51,24.7807 10.23,36.02407 20.73,-1.1519 37.18,-18.05634 37.18,-38.75122 0,-20.69489 -17.65,-38.82015 -39.43,-38.82015 z"
     id="path46"
     style="stroke-width:0.992236" />
  <path
     class="cls-3"
     d="m 1187.1905,219.38345 c -2.1,-0.0689 -3.18,-0.71871 -3.21,-2.34319 l -0.09,-4.72576 c -0.02,-1.27989 0.95,-2.37273 2.24,-2.52041 6.3,-0.71871 10.38,-1.19128 16.31,-7.65967 1.15,-1.2602 3.25,-0.18706 2.85,1.45711 -1.12,4.63716 -3.02,10.36714 -5.88,12.27713 -5.06,3.3868 -12.22,3.50494 -12.22,3.50494 z"
     id="path47"
     style="stroke-width:0.992236" />
  <polygon
     points="1304.26,143.66 1314.62,161.1 1498.54,48.59 "
     id="polygon47"
     transform="matrix(1,0,0,0.98453324,-59.679522,-99.083519)" />
  <polygon
     points="1355.05,235.06 1359.49,254.79 1739.66,140.39 "
     id="polygon48"
     transform="matrix(1,0,0,0.98453324,-59.679522,-99.083519)" />
  <polygon
     points="1367.87,341.57 1365.4,361.79 1637.59,374.61 "
     id="polygon49"
     transform="matrix(1,0,0,0.98453324,-59.679522,-99.083519)" />
  <path
     class="cls-4"
     d="m 1154.6905,197.83201 c 0,0 10.97,47.29698 16.67,64.57554 5.03,15.22088 19.27,39.7653 19.27,39.7653 l -57.44,-17.43609 c 0,0 18.53,-0.0788 24.83,0.6498 6.3,0.72855 10.82,0.89592 10.82,0.89592 0,0 -6.17,-16.91428 -10.3,-42.9158 -2.46,-15.51625 -3.85,-45.54451 -3.85,-45.54451 z"
     id="path49"
     style="stroke-width:0.992236" />
  <path
     class="cls-4"
     d="m 1025.0705,178.1315 c 0,0 -6.53,9.27431 -48.09002,26.15905 -16.78,6.82282 -62.44,23.53035 -62.44,23.53035 0,0 4.11,11.61749 5.91,20.47829 1.8,8.8608 2.9,22.60488 2.9,22.60488 0,0 44.53,-5.474 61.07,-6.71452 16.54002,-1.24051 44.95002,-2.95359 44.95002,-2.95359 0,0 -42.64002,-3.07175 -62.22002,-3.26866 -19.58,-0.1969 -35.29,1.94938 -35.29,1.94938 0,0 -0.65,-8.98879 -1.97,-15.5064 -1.42,-6.98034 -4.05,-13.64563 -4.05,-13.64563 0,0 33.84,-13.51764 54.58,-22.7821 27.45002,-12.27713 44.65002,-29.85105 44.65002,-29.85105 z"
     id="path50"
     style="stroke-width:0.992236" />
</svg>
