<?xml version="1.0" encoding="UTF-8"?>
<svg id="bullhorn-subscribe" width="954" height="806" data-name="Layer 2" xmlns="http://www.w3.org/2000/svg" xmlns:xlink="http://www.w3.org/1999/xlink" viewBox="0 0 1771.29 1355.19">
  <defs>
    <style>
      .cls-1 {
        clip-path: url(#clippath);
      }

      .cls-2 {
        fill: #fff;
      }

      .cls-3 {
        fill: #323133;
      }

      .cls-4 {
        fill: #ddd;
      }

      .cls-5 {
        fill: #dcdcdc;
      }

      .cls-6 {
        fill: #231f20;
      }

      .cls-7 {
        fill: #555;
      }

      .cls-8 {
        clip-path: url(#clippath-1);
      }

      .cls-9 {
        clip-path: url(#clippath-2);
      }
    </style>
    <clipPath id="clippath">
      <path class="cls-3" d="M699.12,611.38s36.78,28.26,85.95,24,120.39-29.89,178.89-111.13c37.88-52.6,49.08-62.6,49.08-62.6,0,0-23.25,141.89-59.95,222.43-37.6,82.51-128.4,180.09-188.64,230.53-41.8,35-45.82,41.58-45.82,41.58-39.48,34.75-123.83,126.14-127.7,176.47-3.87,50.32-8.85,134.94-8.85,134.94h-5.76c.1-1.82,.15-3.64,.15-5.49,0-55.84-45.27-101.11-101.11-101.11s-101.11,45.27-101.11,101.11c0,1.84,.05,3.67,.15,5.49h-5.76s-4.98-84.61-8.85-134.94c-3.87-50.32-60.16-176.81-123.88-163.69-62.71,26.31-1.66,165.9-1.66,165.9,0,0-90.77-36.83-145.44-142.68-48.51-93.92-31.52-179.73,14.93-257.15,46.45-77.42,147.87-123.66,147.87-123.66h446.34"/>
    </clipPath>
    <clipPath id="clippath-1">
      <path class="cls-2" d="M350.58,426.58s-14.74-3.95-23.69-10c-8.95-6.05-13.95-15.79-13.95-15.79,0,0-3.42,6.58,0,12.9s9.48,12.9,9.48,12.9c0,0-30.52-10.22-26.58-44.22,5.41-46.66,43.16-68.7,43.16-68.7,0,0-39.74,1.05-68.7,21.58s-35.8,33.43-40.53,55.01,10.79,41.59,30.53,51.85,66.33,20.79,66.33,20.79l23.95-36.32Z"/>
    </clipPath>
    <clipPath id="clippath-2">
      <path class="cls-2" d="M593.68,426.58s14.74-3.95,23.69-10c8.95-6.05,13.95-15.79,13.95-15.79,0,0,3.42,6.58,0,12.9s-9.48,12.9-9.48,12.9c0,0,30.52-10.22,26.58-44.22-5.41-46.66-43.16-68.7-43.16-68.7,0,0,39.74,1.05,68.7,21.58s35.8,33.43,40.53,55.01-10.79,41.59-30.53,51.85-66.33,20.79-66.33,20.79l-23.95-36.32Z"/>
    </clipPath>
  </defs>
  <path class="cls-3" d="M739.41,1077.26s-2.25-15.07-7.15-25.62c-4.9-10.55-6.28-13.11-13.34-14.52-7.06-1.41-23.73,10.76-34.2,10.04s-18.34-3.91-22.63-14.91c-4.28-11-4.75-19.19-4.75-19.19l-18.61,20.79s3.21,10.83,8.05,21.78c4.84,10.95,13.04,16.4,22.27,14.58,9.23-1.82,21.99-10.21,31-12.34,9-2.13,13.47-2.51,19.2,1.99,5.74,4.5,12.75,20.75,12.75,20.75l7.41-3.35Z"/>
  <g>
    <path class="cls-3" d="M699.12,611.38s36.78,28.26,85.95,24,120.39-29.89,178.89-111.13c37.88-52.6,49.08-62.6,49.08-62.6,0,0-23.25,141.89-59.95,222.43-37.6,82.51-128.4,180.09-188.64,230.53-41.8,35-45.82,41.58-45.82,41.58-39.48,34.75-123.83,126.14-127.7,176.47-3.87,50.32-8.85,134.94-8.85,134.94h-5.76c.1-1.82,.15-3.64,.15-5.49,0-55.84-45.27-101.11-101.11-101.11s-101.11,45.27-101.11,101.11c0,1.84,.05,3.67,.15,5.49h-5.76s-4.98-84.61-8.85-134.94c-3.87-50.32-60.16-176.81-123.88-163.69-62.71,26.31-1.66,165.9-1.66,165.9,0,0-90.77-36.83-145.44-142.68-48.51-93.92-31.52-179.73,14.93-257.15,46.45-77.42,147.87-123.66,147.87-123.66h446.34"/>
    <g class="cls-1">
      <path class="cls-7" d="M765.36,1014.92c7.37,53.3-16.82,117.58-16.82,117.58l-4.02,186.28H206.22l-4.02-186.28s-24.19-64.28-16.82-117.58c7.37-53.3,29.26-70.38,62.31-76.23,43.83-7.75,85.32,46.33,93.76,57.26s21.35,42.21,24.83,50.15c3.48,7.95,5.15,26.49,37.24,42.71,29.67,15,68.66,14.01,71.74,13.91h0s.04,0,.1,0c.06,0,.1,0,.1,0h0c3.08,.11,42.07,1.09,71.74-13.9,32.09-16.22,33.77-34.76,37.24-42.71,3.48-7.95,15.1-40.36,24.83-50.15,35.59-35.84,120.79-87.82,178.56-139.81s146.89-147.66,172.49-224.48,52.71-170,52.71-170l-4.05,284.59-243.63,268.67Z"/>
    </g>
  </g>
  <g>
    <rect class="cls-2" x="1002.78" y="374.23" width="24.98" height="53.79" transform="translate(-53.46 178.65) rotate(-9.8)"/>
    <path d="M1018.92,378.27l7.45,43.15-14.76,2.55-7.45-43.15,14.76-2.55m4.08-5.78l-24.61,4.25,9.16,53.01,24.61-4.25-9.16-53.01h0Z"/>
  </g>
  <g>
    <ellipse cx="965.64" cy="356.65" rx="15.15" ry="30.74" transform="translate(-40.88 140.83) rotate(-8.17)"/>
    <path d="M962.36,331.14c4.12,0,11.19,9.16,13.33,24.07,2.23,15.55-2.29,26.33-6.39,26.92-.12,.02-.25,.03-.37,.03-4.12,0-11.19-9.16-13.33-24.07-1.04-7.28-.64-14.53,1.11-19.89,1.32-4.06,3.35-6.76,5.28-7.04,.12-.02,.25-.03,.37-.03m0-5c-.36,0-.72,.03-1.08,.08-8.28,1.19-13.04,15.78-10.63,32.58,2.31,16.07,10.34,28.35,18.28,28.35,.36,0,.72-.03,1.08-.08,8.28-1.19,13.04-15.78,10.63-32.58-2.31-16.07-10.34-28.35-18.28-28.35h0Z"/>
  </g>
  <g>
    <path class="cls-2" d="M1220.11,143.66s-119.01,116.56-145.75,133.73c-26.95,17.31-113.94,47.93-113.94,47.93,0,0,2.71,18.99,5.88,34.36s3.81,29.06,3.81,29.06c0,0,87.58-9.94,122.8-9.94,31.65,0,197.74,59.51,197.74,59.51l-70.53-294.66Z"/>
    <path d="M1216.17,157.28l64.66,270.14c-15.69-5.52-44.59-15.56-75.02-25.51-61.06-19.97-99.05-30.1-112.92-30.1-29.67,0-94.55,6.8-116.37,9.18-.54-5.63-1.55-13.87-3.37-22.72-2.05-9.94-3.92-21.55-4.96-28.29,19.72-7.08,86.28-31.5,109.95-46.7,23.01-14.78,109.72-98.48,138.03-126m3.94-13.62s-119.01,116.56-145.75,133.73c-26.95,17.31-113.94,47.93-113.94,47.93,0,0,2.71,18.99,5.88,34.36,3.17,15.37,3.81,29.06,3.81,29.06,0,0,87.58-9.94,122.8-9.94,31.65,0,197.74,59.51,197.74,59.51l-70.53-294.66h0Z"/>
  </g>
  <circle class="cls-2" cx="475.21" cy="984.96" r="61.39"/>
  <path class="cls-7" d="M715.35,641.45s82.21,13.2,110.41,5.4,98.4-64.2,114.6-79.8,24-25.61,24-25.61c0,0-81.61,107.2-124.5,122.2s-131.09-4.8-131.09-4.8l6.59-17.4Z"/>
  <g>
    <path d="M309.32,486.47s-30.9-.86-66.1-21.03c-35.19-20.17-44.21-39.06-35.19-64.81,9.01-25.75,18.06-47.88,55.91-69.37,37.39-21.22,102.89-28.49,102.89-28.49,0,0-26.76,21.09-38.32,40.58-11.37,19.17-21.76,39.68,6.56,60.71,28.33,21.03,63.95,9.44,63.95,9.44l-89.7,72.96Z"/>
    <g>
      <path class="cls-2" d="M350.58,426.58s-14.74-3.95-23.69-10c-8.95-6.05-13.95-15.79-13.95-15.79,0,0-3.42,6.58,0,12.9s9.48,12.9,9.48,12.9c0,0-30.52-10.22-26.58-44.22,5.41-46.66,43.16-68.7,43.16-68.7,0,0-39.74,1.05-68.7,21.58s-35.8,33.43-40.53,55.01,10.79,41.59,30.53,51.85,66.33,20.79,66.33,20.79l23.95-36.32Z"/>
      <g class="cls-8">
        <path class="cls-5" d="M330.31,475.53l-80.01-32.11-30.27-38.16,6.84-8.42s2.9,13.95,32.9,30c30,16.06,59.48,15.53,59.48,15.53,0,0-34.48-11.84-49.74-33.43s6.84-45.8,6.84-45.8c0,0-9.21,28.43,6.58,43.16,15.79,14.74,28.95,21.32,28.95,21.32,0,0-16.84-15.79-18.95-30.79-2.11-15,17.37-33.69,17.37-33.69l-2.37,47.64,8.99,11.63,5.49,4.16s15.41,6.36,27.6,8.02c12.18,1.67-19.7,40.93-19.7,40.93Z"/>
      </g>
    </g>
  </g>
  <g>
    <path d="M634.94,486.47s30.9-.86,66.1-21.03,44.21-39.06,35.19-64.81c-9.01-25.75-18.06-47.88-55.91-69.37-37.39-21.22-102.89-28.49-102.89-28.49,0,0,26.76,21.09,38.32,40.58,11.37,19.17,21.76,39.68-6.56,60.71-28.33,21.03-63.95,9.44-63.95,9.44l89.7,72.96Z"/>
    <g>
      <path class="cls-2" d="M593.68,426.58s14.74-3.95,23.69-10c8.95-6.05,13.95-15.79,13.95-15.79,0,0,3.42,6.58,0,12.9s-9.48,12.9-9.48,12.9c0,0,30.52-10.22,26.58-44.22-5.41-46.66-43.16-68.7-43.16-68.7,0,0,39.74,1.05,68.7,21.58s35.8,33.43,40.53,55.01-10.79,41.59-30.53,51.85-66.33,20.79-66.33,20.79l-23.95-36.32Z"/>
      <g class="cls-9">
        <path class="cls-5" d="M613.95,475.53l80.01-32.11,30.27-38.16-6.84-8.42s-2.9,13.95-32.9,30c-30,16.06-59.48,15.53-59.48,15.53,0,0,34.48-11.84,49.74-33.43s-6.84-45.8-6.84-45.8c0,0,9.21,28.43-6.58,43.16-15.79,14.74-28.95,21.32-28.95,21.32,0,0,16.84-15.79,18.95-30.79,2.11-15-17.37-33.69-17.37-33.69l2.37,47.64-8.99,11.63-5.49,4.16s-15.41,6.36-27.6,8.02c-12.18,1.67,19.7,40.93,19.7,40.93Z"/>
      </g>
    </g>
  </g>
  <g>
    <path d="M1010.82,471.48s-14.92,36.19-5.51,44.65c9.41,8.46,30.13,1.32,51.72-9.74,21.65-11.09,33.79-18.92,36.4-27.4,6.64-21.58-15.11-57.57-15.11-57.57l-16.4-2.02,1.48-11.27s-3.42-8.92-7.25-15.54-7.9-14.06-11.81-13.78c-3.91,.29-25.2,22.24-37.98,37.95l-10.44,12.83c-1.62,1.99-2.88,4.22-3.74,6.63-2.96,8.3-9.3,28.06-5.41,35.74,4.98,9.83,24.07-.49,24.07-.49Z"/>
    <polygon class="cls-2" points="994.57 465.65 1049.68 407.16 1040.74 390.73 1002.6 439.36 994.57 465.65"/>
  </g>
  <g>
    <path d="M228.43,1127.04s-10.24-37.55,0-44.76,29.67,2.37,49.49,15.93c19.86,13.59,30.81,22.8,32.34,31.49,3.89,22.12-21.77,55-21.77,55h-16.31l.09,11.31s-4.43,8.39-8.98,14.46c-4.55,6.07-9.44,12.92-13.23,12.16-3.79-.76-22-25.04-32.62-42.11l-8.68-13.95c-1.34-2.16-2.31-4.52-2.86-7-1.9-8.55-5.72-28.84-.98-35.95,6.07-9.1,23.52,3.41,23.52,3.41Z"/>
    <polygon class="cls-2" points="302.3 1128.16 296.58 1152.07 244.97 1090.75 302.3 1128.16"/>
  </g>
  <g>
    <ellipse cx="475.37" cy="731.57" rx="269.05" ry="214.8"/>
    <ellipse class="cls-3" cx="475.37" cy="530.27" rx="171.74" ry="153.81"/>
    <ellipse class="cls-3" cx="475.37" cy="704.48" rx="243.27" ry="201.4"/>
    <g>
      <ellipse class="cls-7" cx="475.37" cy="758.63" rx="197.65" ry="147.25"/>
      <g>
        <ellipse class="cls-7" cx="509.38" cy="676.26" rx="90.11" ry="79.94"/>
        <ellipse class="cls-7" cx="441.37" cy="676.26" rx="90.11" ry="79.94"/>
      </g>
    </g>
    <g>
      <ellipse cx="573.77" cy="768.09" rx="49.65" ry="34.35" transform="translate(-372.04 924.94) rotate(-62.66)"/>
      <ellipse cx="376.97" cy="768.09" rx="34.35" ry="49.65" transform="translate(-310.69 258.98) rotate(-27.34)"/>
    </g>
    <path class="cls-3" d="M468.36,383.78c-.45-7.13,6.49-13.37,15.5-13.94,4.47-.28,8.6,.89,11.69,3-2.1-5.93-10.78-9.99-20.9-9.35-11.36,.72-20.2,7.08-19.75,14.21,.37,5.82,6.81,10.35,15.34,11.43-1.08-1.59-1.76-3.4-1.88-5.35Z"/>
    <g>
      <g>
        <ellipse class="cls-3" cx="687.46" cy="527.6" rx="19.61" ry="48.63" transform="translate(36.16 1099.23) rotate(-78.78)"/>
        <ellipse cx="686.76" cy="531.95" rx="15.2" ry="45.35" transform="translate(31.33 1102.05) rotate(-78.78)"/>
      </g>
      <g>
        <ellipse class="cls-3" cx="263.29" cy="527.6" rx="48.63" ry="19.61" transform="translate(-97.65 61.33) rotate(-11.22)"/>
        <ellipse cx="263.99" cy="531.95" rx="45.35" ry="15.2" transform="translate(-98.48 61.55) rotate(-11.22)"/>
      </g>
    </g>
    <g>
      <g>
        <ellipse cx="526.58" cy="540.6" rx="39.11" ry="19.52" transform="translate(-49.43 1028.2) rotate(-86)"/>
        <circle class="cls-2" cx="528.2" cy="527.8" r="13.65"/>
      </g>
      <g>
        <ellipse cx="424.16" cy="540.6" rx="19.52" ry="39.11" transform="translate(-36.67 30.9) rotate(-4)"/>
        <circle class="cls-2" cx="422.55" cy="527.8" r="13.65"/>
      </g>
    </g>
  </g>
  <path d="M596.16,1220.45c7.36-.92,17.62,9.68,23.87,22.43,6,12.24,17.74,41.98,17.74,43.49s-2.55,8.69-7.51,11.28c-4.96,2.59-27.62-3.87-27.62-3.87,0,0-3.67,9.92-24.37,9.71-20.7-.22-25.23-7.98-29.55-11.65-4.31-3.67-4.96-6.9-4.96-8.2s.93-36.51,.93-39.96,3.17-26.04,16.11-26.04,15.96,23.72,16.61,27.39,1.29,15.32,3.45,15.53,1.29-8.63,2.59-17.26,4.03-21.78,12.72-22.86Z"/>
  <path d="M357.01,1220.45c-7.36-.92-17.62,9.68-23.87,22.43-6,12.24-17.74,41.98-17.74,43.49s2.55,8.69,7.51,11.28c4.96,2.59,27.62-3.87,27.62-3.87,0,0,3.67,9.92,24.37,9.71,20.7-.22,25.23-7.98,29.55-11.65,4.31-3.67,4.96-6.9,4.96-8.2s-.93-36.51-.93-39.96-3.17-26.04-16.11-26.04-15.96,23.72-16.61,27.39-1.29,15.32-3.45,15.53-1.29-8.63-2.59-17.26c-1.29-8.63-4.03-21.78-12.72-22.86Z"/>
  <polygon class="cls-2" points="398.45 1231.51 403.16 1284.49 392.18 1293.89 398.45 1231.51"/>
  <polygon class="cls-2" points="633.26 1284.57 627.97 1293.8 603.43 1228.5 633.26 1284.57"/>
  <path d="M730.4,1078.79c5.98-5.39,11.42-4.27,19.76,4.92,8.34,9.18,15.25,19.83,13.24,25.63-2.01,5.8-2.95,6.59-2.95,6.59,0,0,1.34-8.76-3.13-10.12s-4.39,6.76-4.37,8.64,2.49,9.49,10.2,15.27c7.7,5.78,14.88,7.11,21.47,12.03,6.58,4.93,6.81,11.33,6.81,11.33,0,0-5.46-4.53-9.42-6.38s-5.93-2.69-6.88-1.3,8.36,7.36,12.63,13.25c4.27,5.89,8.45,12.46,9.44,22.42,.98,9.97-3.48,18.79-3.48,18.79,0,0,.11-12.98-5.26-22.72-5.37-9.75-10.5-15.98-15.23-15.76-4.73,.22,4.08,7.19,5.15,16.59,1.08,9.49-2.66,14.3-2.66,14.3,0,0,.94-9.65-7.89-18.89-7.44-7.79-19.43-13.03-24.81-16.32-5.38-3.3-6.86-3.54-7.99-2.07s.51,4.7,2.81,6.65,3.23,2.23,3.23,2.23c0,0-7.25,2.4-13.56-5.36-6.31-7.76-7.47-17.25-8.07-24.03-.6-6.79,1.51-15.11-.07-15.35-1.58-.24-4.38,.82-5.57,3.67s-1.07,6.89-1.07,6.89c0,0-5.13-4.25-2.36-15.63s4.03-16.38,9.56-23.92c5.53-7.54,10.48-11.34,10.48-11.34Z"/>
  <path d="M272.18,1184.69l.09,11.31s-4.43,8.39-8.98,14.46c-4.55,6.07-9.44,12.92-13.23,12.16-3.79-.76-22-25.04-32.62-42.11l-8.68-13.95c-1.34-2.16-2.31-4.52-2.86-7-1.9-8.55-5.72-28.84-.98-35.95,6.07-9.1,23.52,3.41,23.52,3.41l43.75,57.66Z"/>
  <g>
    <path d="M1061.91,419.4l1.48-11.27s-3.42-8.92-7.25-15.54-7.9-14.06-11.81-13.78c-3.91,.29-25.2,22.24-37.98,37.95l-10.44,12.83c-1.62,1.99-2.88,4.22-3.74,6.63-2.96,8.3-9.3,28.06-5.41,35.74,4.98,9.83,24.07-.49,24.07-.49l51.09-52.08Z"/>
    <polygon class="cls-2" points="994.57 465.65 1049.68 407.16 1040.74 390.73 1002.6 439.36 994.57 465.65"/>
  </g>
  <circle class="cls-2" cx="475.21" cy="984.96" r="61.39"/>
  <g>
    <path class="cls-6" d="M475.76,961.8l15.76,38.89-23.8-18.75,8.04-20.14h0Zm27.99,47.85l-24.24-58.33c-.69-1.68-2.08-2.57-3.75-2.57s-3.17,.89-3.86,2.57l-26.6,63.98h9.1l10.53-26.38,31.43,25.39c1.26,1.02,2.18,1.48,3.36,1.48,2.37,0,4.45-1.78,4.45-4.35,0-.42-.15-1.08-.41-1.8h0Z"/>
    <path class="cls-6" d="M474.74,925.41c-32.83,0-59.55,26.71-59.55,59.55s26.71,59.55,59.55,59.55,59.55-26.71,59.55-59.55-26.71-59.55-59.55-59.55h0Zm0,121.78c-34.32,0-62.23-27.92-62.23-62.23s27.92-62.23,62.23-62.23,62.23,27.92,62.23,62.23-27.92,62.23-62.23,62.23h0Z"/>
  </g>
  <ellipse cx="1260.7" cy="289.52" rx="39.68" ry="152.97" transform="translate(-32.79 298.26) rotate(-13.32)"/>
  <ellipse class="cls-2" cx="1260.7" cy="289.52" rx="36.41" ry="140.34" transform="translate(-32.79 298.26) rotate(-13.32)"/>
  <ellipse cx="1260.7" cy="289.52" rx="32.45" ry="125.07" transform="translate(-32.79 298.26) rotate(-13.32)"/>
  <path class="cls-4" d="M1237.1,254.79c-5.5,0-10.74,1.13-15.5,3.17,1.82,12.39,4.33,25.52,7.52,39.04,3.05,12.88,6.51,25.17,10.23,36.59,20.73-1.17,37.18-18.34,37.18-39.36s-17.65-39.43-39.43-39.43Z"/>
  <path class="cls-3" d="M1246.87,323.47c-2.1-.07-3.18-.73-3.21-2.38l-.09-4.8c-.02-1.3,.95-2.41,2.24-2.56,6.3-.73,10.38-1.21,16.31-7.78,1.15-1.28,3.25-.19,2.85,1.48-1.12,4.71-3.02,10.53-5.88,12.47-5.06,3.44-12.22,3.56-12.22,3.56Z"/>
  <polygon points="1304.26 143.66 1314.62 161.1 1498.54 48.59 1304.26 143.66"/>
  <polygon points="1355.05 235.06 1359.49 254.79 1739.66 140.39 1355.05 235.06"/>
  <polygon points="1367.87 341.57 1365.4 361.79 1637.59 374.61 1367.87 341.57"/>
  <path class="cls-4" d="M1214.37,301.58s10.97,48.04,16.67,65.59c5.03,15.46,19.27,40.39,19.27,40.39l-57.44-17.71s18.53-.08,24.83,.66,10.82,.91,10.82,.91c0,0-6.17-17.18-10.3-43.59-2.46-15.76-3.85-46.26-3.85-46.26Z"/>
  <path class="cls-4" d="M1084.75,281.57s-6.53,9.42-48.09,26.57c-16.78,6.93-62.44,23.9-62.44,23.9,0,0,4.11,11.8,5.91,20.8s2.9,22.96,2.9,22.96c0,0,44.53-5.56,61.07-6.82s44.95-3,44.95-3c0,0-42.64-3.12-62.22-3.32s-35.29,1.98-35.29,1.98c0,0-.65-9.13-1.97-15.75-1.42-7.09-4.05-13.86-4.05-13.86,0,0,33.84-13.73,54.58-23.14,27.45-12.47,44.65-30.32,44.65-30.32Z"/>
</svg>