<?xml version="1.0" encoding="UTF-8"?>
<svg width="427px" height="390px" viewBox="0 0 427 390" version="1.1" xmlns="http://www.w3.org/2000/svg" xmlns:xlink="http://www.w3.org/1999/xlink">
    <title>Ansibull</title>
    <g id="Ansibull" stroke="none" stroke-width="1" fill="none" fill-rule="evenodd">
        <g id="Group-56" transform="translate(16, 16)">
            <g id="Group-36" transform="translate(195, 75)">
                <ellipse id="Oval" fill="#616161" opacity="0.749562" cx="100" cy="267" rx="100" ry="16"></ellipse>
                <g id="Ansibull-community" fill-rule="nonzero">
                    <g id="Group" transform="translate(88.2051, 0)">
                        <ellipse id="Oval" fill="#006BB6" cx="6.15384615" cy="4.61951521" rx="4.92307692" ry="3.4648289"></ellipse>
                        <path d="M6.15384615,9.23954373 C2.76075214,9.23954373 0,7.16706274 0,4.61977186 C0,2.07248099 2.76075214,0 6.15384615,0 C9.54694017,0 12.3076923,2.07248099 12.3076923,4.61977186 C12.3076923,7.16706274 9.54694017,9.23954373 6.15384615,9.23954373 Z M6.15384615,2.30988593 C4.15261538,2.30988593 2.46153846,3.36755703 2.46153846,4.61977186 C2.46153846,5.87198669 4.15261538,6.92965779 6.15384615,6.92965779 C8.15507692,6.92965779 9.84615385,5.87198669 9.84615385,4.61977186 C9.84615385,3.36755703 8.15507692,2.30988593 6.15384615,2.30988593 Z" id="Shape" fill="#000000"></path>
                    </g>
                    <g id="Group" transform="translate(8.2051, 136.5399)">
                        <path d="M176.240361,53.7792179 C176.240361,30.7569107 137.055202,1.19383771 88.7178159,1.19383771 C40.3804293,1.19383771 1.19527048,30.7569107 1.19527048,53.7792179 C1.19527048,65.5055753 11.3655637,76.099127 27.729,83.6734554 L32.6984453,129.996163 C32.6984453,129.996163 67.4651681,116.061776 87.6931086,115.545128 C126.797768,114.546061 145.078844,129.996163 145.078844,129.996163 L148.165719,84.3697502 C165.429526,76.7556183 176.240361,65.8693787 176.240361,53.7792179 Z" id="Path" fill="#565656"></path>
                        <path d="M146.112319,132.43346 L144.306528,130.907662 C144.262691,130.870512 139.69654,127.078571 130.483207,123.455928 C121.974975,120.110847 107.646873,116.224705 87.7239268,116.738965 C67.9447109,117.243938 33.4896245,130.965775 33.1439818,131.104556 L31.6782544,131.691789 L26.6123692,84.4700549 C9.44367295,76.3721786 0,65.4901847 0,53.7794832 C0,41.9103641 9.78665899,28.4796235 26.1793194,17.8515755 C34.441537,12.4948291 44.1678878,8.06099177 54.3073628,5.0290314 C65.4664973,1.69217672 77.0440695,0 88.7178159,0 C100.391562,0 111.9694,1.69217672 123.128269,5.0290314 C133.267744,8.06125713 142.99436,12.4950945 151.256578,17.8515755 C167.649238,28.4796235 177.435897,41.9103641 177.435897,53.7794832 C177.435897,60.0023523 174.782604,65.987993 169.54961,71.5694961 C164.714596,76.7269599 157.908276,81.2993132 149.309714,85.1676764 L146.112319,132.43346 Z M88.7178159,2.38794078 C77.2765348,2.38794078 65.929834,4.0461519 54.9930692,7.31666752 C45.0687907,10.284677 35.5549797,14.6198019 27.4811255,19.8547497 C19.7956877,24.8370784 13.4176351,30.6130876 9.03612796,36.5578634 C4.68889281,42.4564672 2.39080664,48.4113265 2.39080664,53.7789525 C2.39080664,59.2057529 4.68597039,64.4887302 9.21200461,69.4816732 C13.6732142,74.40297 20.0725207,78.8131906 28.2319222,82.5897406 L28.8458964,82.8739371 L33.7207615,128.313804 C36.6734702,127.174365 43.7786744,124.50435 52.2497123,121.825579 C67.2467835,117.082867 79.1617625,114.567821 87.6628216,114.350759 C108.067701,113.83358 122.757387,117.833825 131.49038,121.285048 C137.720983,123.747024 141.860195,126.253579 144.03368,127.739574 L147.021989,83.5686397 L147.683253,83.2770132 C156.297755,79.4776426 163.067413,74.9891419 167.804392,69.9364938 C172.609119,64.8119341 175.045091,59.3755809 175.045091,53.7786871 C175.045091,48.4107958 172.74727,42.4559365 168.399769,36.5575981 C164.018262,30.6128223 157.639944,24.8368131 149.954772,19.8544844 C141.880652,14.6195365 132.367372,10.2844117 122.442563,7.31640217 C111.505798,4.0461519 100.159097,2.38794078 88.7178159,2.38794078 Z" id="Shape" fill="#000000"></path>
                    </g>
                    <g id="Group" transform="translate(168.2051, 150.9125)">
                        <path d="M20.3778729,7.85347351 C20.3778729,7.85347351 18.0566957,15.1995253 15.7355184,17.6482092 C13.4143412,20.0968932 6.45080946,24.994261 6.45080946,24.994261 L1.80845498,17.6482092 C1.80845498,17.6482092 8.77198671,15.1995253 11.0931639,12.7508414 C13.4143412,10.3021574 20.3778729,2.95610565 20.3778729,2.95610565 L20.3778729,7.85347351 Z" id="Path" fill="#333233"></path>
                        <path d="M6.12893955,26.6920152 L0,16.9938665 L1.44119316,16.4867168 C3.30664594,15.8301975 8.52955264,13.723513 10.2724988,11.8850956 L21.5384615,0 L21.5384615,8.05208899 L21.4791426,8.24036557 C21.3806215,8.55162051 19.0426802,15.8908704 16.5561835,18.513683 C14.1811034,21.0195028 7.38289108,25.8099448 7.09454929,26.0126415 L6.12893955,26.6920152 Z M3.59834054,18.2737119 L6.76803702,23.2894329 C8.74103768,21.8681079 13.2046615,18.5865993 14.9148533,16.7827355 C16.6054441,14.9990053 18.5348582,9.76099829 19.2172843,7.65240935 L19.2172843,5.91221131 L11.9138291,13.6165872 C10.0842256,15.5464222 5.83389214,17.3919136 3.59834054,18.2737119 Z" id="Shape" fill="#000000"></path>
                    </g>
                    <path d="M150.575134,222.775665 C170.690083,215.152968 183.589744,203.389026 183.589744,190.187634 C183.589744,173.571802 163.156847,153.546031 133.617934,143.726236 L66.6666667,154.224893 C66.6666667,154.224893 114.358793,173.295542 138.204856,178.063204 C162.050919,182.830867 159.666313,192.366191 159.666313,201.901516 C159.666313,210.190626 152.459238,220.279529 150.575134,222.775665 Z" id="Path" fill="#333233"></path>
                    <path d="M96.9232098,233.041825 C73.3708818,233.041825 51.2093608,228.671632 34.5210044,220.73635 C17.5510329,212.666752 8.20512821,201.833463 8.20512821,190.231892 C8.20512821,178.382088 17.9917872,164.973203 34.3844476,154.36245 C42.6466652,149.01442 52.3732817,144.587798 62.512491,141.560772 C73.6718912,138.229347 85.2491977,136.539924 96.9229441,136.539924 C108.59669,136.539924 120.174528,138.229347 131.333397,141.560772 C141.472872,144.588063 151.199489,149.014685 159.461706,154.36245 C175.854367,164.973203 185.641026,178.382088 185.641026,190.231892 C185.641026,201.833463 176.295121,212.666752 159.325149,220.73635 C142.637324,228.671632 120.475803,233.041825 96.9232098,233.041825 Z M96.9232098,138.924244 C85.4819287,138.924244 74.1352279,140.579757 63.1984631,143.84495 C53.2741846,146.80813 43.7606392,151.1362 35.6865194,156.362629 C28.0013473,161.33685 21.623029,167.10346 17.2415218,173.038562 C12.8942867,178.927567 10.5962005,184.872736 10.5962005,190.231627 C10.5962005,200.863045 19.4580459,210.932027 35.5499626,218.583839 C51.9234944,226.369703 73.719447,230.65724 96.9232098,230.65724 C120.126973,230.65724 141.923191,226.369439 158.296457,218.583839 C174.388108,210.932027 183.250485,200.863045 183.250485,190.231627 C183.250485,184.872471 180.952664,178.927302 176.605163,173.038562 C172.223656,167.10346 165.845338,161.33685 158.160166,156.362629 C150.086046,151.1362 140.572766,146.80813 130.647956,143.84495 C119.711192,140.579757 108.364491,138.924244 96.9232098,138.924244 Z" id="Shape" fill="#000000"></path>
                    <g id="Group" transform="translate(12.3247, 78.0006)">
                        <g transform="translate(142.7131, 0.077)">
                            <ellipse id="Oval" fill="#333233" transform="translate(13.7546, 10.2498) rotate(-13.062) translate(-13.7546, -10.2498)" cx="13.7546464" cy="10.2498326" rx="12.3431814" ry="7.65835234"></ellipse>
                            <path d="M11.1181937,19.431628 C9.32849138,19.431628 7.62311647,19.173112 6.10230709,18.6587618 C3.10099575,17.6434697 1.14237359,15.752334 0.587351088,13.3345123 L0.587351088,13.3345123 C0.0325937696,10.9164223 0.967619728,8.34654812 3.22032691,6.09847804 C5.32135092,4.00165591 8.36296968,2.4044347 11.7843267,1.6012652 C19.175699,-0.133259111 25.8349082,2.30360273 26.9468095,7.14890038 C27.5015668,9.56699032 26.5665409,12.1368645 24.3138337,14.3849346 C22.2128097,16.4817568 19.1711909,18.078978 15.7498339,18.8821475 C14.1868608,19.248736 12.622827,19.431628 11.1181937,19.431628 Z M16.3814935,3.47362895 C15.0829053,3.47362895 13.7108621,3.62702225 12.3239688,3.95258077 C9.32583958,4.65599099 6.68809051,6.02821747 4.89679716,7.8163758 C3.25665662,9.45328619 2.5520724,11.2189182 2.91245251,12.7887861 L2.91245251,12.7887861 C3.27256744,14.3586539 4.67457602,15.6305848 6.85939703,16.3699298 C9.24681583,17.17739 12.2117975,17.2350466 15.2101918,16.5311001 C18.208321,15.8276898 20.8460701,14.4554634 22.6373634,12.667305 C24.277504,11.0303946 24.9820882,9.2647626 24.6217081,7.69489474 C24.0239915,5.08881755 20.5920273,3.47362895 16.3814935,3.47362895 Z" id="Shape" fill="#000000"></path>
                        </g>
                        <g transform="translate(0, 0)">
                            <ellipse id="Oval" fill="#333233" transform="translate(13.7547, 10.2499) rotate(-76.938) translate(-13.7547, -10.2499)" cx="13.75467" cy="10.2498858" rx="7.65840407" ry="12.3431936"></ellipse>
                            <path d="M16.4575268,19.4549876 C14.9661524,19.4549876 13.3904507,19.2750455 11.77948,18.8971938 C8.35785779,18.0942925 5.31623903,16.4970712 3.21521502,14.3999809 C0.962773019,12.1516427 0.0277470607,9.58176847 0.582504379,7.16394671 C1.13752688,4.74612494 3.09614904,2.85552562 6.09746038,1.8399654 C8.89670429,0.893056717 12.3228346,0.813410193 15.7449872,1.61657969 C23.1350335,3.35083583 28.0533337,8.50479728 26.9416976,13.3498268 L26.9416976,13.3498268 C26.0721712,17.1385342 21.8091317,19.4549876 16.4575268,19.4549876 Z M11.1085737,3.4784848 C9.58007408,3.4784848 8.13431075,3.69597077 6.85455032,4.12879733 C4.66972931,4.86787417 3.26798591,6.13953686 2.9076058,7.70967289 C2.54749087,9.27954075 3.25207509,11.045441 4.89168527,12.6823513 C6.6832438,14.4702415 9.32072769,15.842468 12.3191221,16.5458782 C18.2024136,17.9274906 23.8337838,16.2130791 24.6165962,12.8041006 L24.6165962,12.8041006 C25.3988783,9.39512207 21.0889018,5.34843502 15.2053451,3.96789527 C13.8147393,3.64126406 12.430763,3.4784848 11.1085737,3.4784848 Z" id="Shape" fill="#000000"></path>
                        </g>
                    </g>
                    <g id="Group" transform="translate(16.4103, 32.8517)">
                        <g transform="translate(1.1881, 1.1943)" id="Path">
                            <path d="M156.665439,65.2691939 C159.676159,79.6777249 162.127685,100.430532 155.088496,111.548809 C141.445428,133.097372 107.05486,139.284376 78.6228652,139.284376 C49.34957,139.284376 17.8873087,139.540919 4.5324227,116.92666 C-1.77640654,106.243952 -0.680734804,77.4590064 2.86408551,65.2691939 C14.1158523,26.5784501 23.3344983,-0.952344414 77.6737937,0.0252294491 C134.885926,1.05482734 148.36945,25.5655742 156.665439,65.2691939 Z" fill="#565656"></path>
                            <path d="M156.665439,65.2691939 C148.36945,25.5655742 134.885926,1.05482734 77.6737937,0.0254948778 C65.300469,-0.197199793 55.2674653,1.05880877 47.0163809,3.58781332 C99.8212605,6.32809911 112.927058,28.6095104 121.129804,63.7368741 C124.244861,77.0767891 126.781442,96.2901102 119.498183,106.5837 C105.382561,126.534117 69.800172,132.261803 40.382918,132.261803 C34.1855578,132.261803 27.8936338,132.271358 21.6865002,132.107854 C37.2908415,139.405019 58.4752371,139.284109 78.6228652,139.284109 C107.05486,139.284109 141.445428,133.097107 155.088496,111.548544 C162.127685,100.430532 159.676159,79.6777249 156.665439,65.2691939 Z" fill="#333233"></path>
                        </g>
                        <path d="M77.8618414,141.673004 C63.6136185,141.673004 48.9435566,141.612751 36.1095637,138.854947 C21.0604543,135.620964 10.7860225,129.038598 4.6985464,118.730675 C0.725283578,112.002589 0.0509224565,99.6378585 0.00311228685,92.8662418 C-0.0676784615,82.9426594 1.07421857,72.447609 2.91187244,66.1288136 C8.98614128,45.2416992 14.08466,29.57424 24.4209017,18.1623989 C36.0440558,5.32918718 53.3465826,-0.438578237 78.884081,0.0259219698 C106.432248,0.521477333 125.066592,6.38559337 137.527877,18.480117 C150.221609,30.8002551 155.358164,48.7063399 159.017359,66.2185285 L159.017359,66.2185285 C164.785749,93.8231122 161.256513,107.104102 157.28008,113.384676 C150.898875,123.463534 139.680391,131.016838 123.936581,135.834369 C108.166093,140.660128 91.2368024,141.673004 79.8117567,141.673004 L78.8365349,141.673004 C78.5116371,141.673004 78.1864751,141.673004 77.8618414,141.673004 Z M76.0970915,2.38903359 C52.7979543,2.38903359 36.8922241,7.94100549 26.1785198,19.769835 C16.1856661,30.8029094 11.1774847,46.2211311 5.19355335,66.7987557 C1.57847058,79.2287812 0.820375628,107.482603 6.74302548,117.511296 C12.4733781,127.214838 22.2419731,133.431974 36.6066838,136.51891 C49.4876944,139.2868 64.4052598,139.283882 78.8357425,139.283882 L79.8112285,139.283882 C91.0748818,139.283882 107.752971,138.288788 123.24373,133.548762 C138.429138,128.901902 149.205709,121.686489 155.273902,112.101859 C162.405806,100.837596 159.222599,78.8269221 156.690245,66.7090408 L156.690245,66.7090408 C153.108973,49.5689831 148.108716,32.0711276 135.875652,20.1982369 C123.873715,8.54936804 105.750755,2.89812582 78.8407613,2.41398389 C77.9159911,2.39726188 76.9994094,2.38903359 76.0970915,2.38903359 Z" id="Shape" fill="#000000"></path>
                    </g>
                    <ellipse id="Oval" fill="#707070" cx="97.9487179" cy="213.022814" rx="33.3333333" ry="34.391635"></ellipse>
                    <g id="Group" transform="translate(24.6154, 117.0342)">
                        <g transform="translate(119.3235, 0)">
                            <ellipse id="Oval" fill="#F6BDC0" cx="12.6459204" cy="10.2661597" rx="12.6459204" ry="10.2661597"></ellipse>
                            <path d="M3.50956273,8.37103275 C3.33317085,8.37103275 3.1543953,8.3265074 2.9904515,8.23292417 C2.48352349,7.94390931 2.30183456,7.30002474 2.58575662,6.7881165 C2.65700199,6.66040606 3.32575498,5.49874763 4.95248008,4.12965972 C6.55881152,2.7773688 8.39000288,2.44916097 8.46707501,2.43583002 C9.04154045,2.33718104 9.59110974,2.72644459 9.69016464,3.30687388 C9.78868983,3.88623669 9.40359405,4.43600481 8.82912861,4.53731998 C8.79708144,4.54318559 7.45745663,4.80127266 6.31143913,5.76563312 C4.98240843,6.88436591 4.43840104,7.8236642 4.43283914,7.83299586 C4.23631846,8.17720083 3.8779728,8.37076613 3.50956273,8.37103275 Z" id="Path" fill="#FFFFFF"></path>
                        </g>
                        <g>
                            <ellipse id="Oval" fill="#F6BDC0" cx="12.6459204" cy="10.2661597" rx="12.6459204" ry="10.2661597"></ellipse>
                            <path d="M3.50956273,8.37103275 C3.33317085,8.37103275 3.1543953,8.3265074 2.9904515,8.23292417 C2.48352349,7.94390931 2.30183456,7.30002474 2.58575662,6.7881165 C2.65700199,6.66040606 3.32575498,5.49874763 4.95248008,4.12965972 C6.55881152,2.7773688 8.39000288,2.44916097 8.46707501,2.43583002 C9.04312957,2.33718104 9.59137459,2.72644459 9.69016464,3.30687388 C9.78868983,3.88623669 9.40359405,4.43600481 8.82912861,4.53731998 C8.79708144,4.54318559 7.45745663,4.80127266 6.31143913,5.76563312 C4.98240843,6.88436591 4.43840104,7.8236642 4.43283914,7.83299586 C4.23631846,8.17720083 3.87770794,8.37076613 3.50956273,8.37103275 Z" id="Path" fill="#FFFFFF"></path>
                        </g>
                    </g>
                    <g id="Group" transform="translate(40, 95.4753)">
                        <g>
                            <ellipse id="Oval" fill="#000000" cx="14.8971638" cy="12.8326996" rx="12.6786299" ry="12.8326996"></ellipse>
                            <ellipse id="Oval" fill="#FFFFFF" cx="19.2006276" cy="7.76945759" rx="3.64521853" ry="3.68951495"></ellipse>
                            <path d="M5.87116034,5.33370291 C5.81454278,5.33370291 5.75739608,5.32888282 5.69998482,5.31951041 C5.60183007,5.30317565 4.69700736,5.14170246 3.13023539,4.46233685 C1.45155115,3.73396694 0.331634612,2.53215658 0.284806068,2.48154558 C-0.114162544,2.04907595 -0.0911451242,1.37131703 0.336132269,0.967767965 C0.763409662,0.563683333 1.43303138,0.587248242 1.83173543,1.01971788 C1.83808506,1.02641245 2.70824936,1.94892508 3.9638893,2.49332804 C5.28990435,3.06825826 6.03916105,3.20482762 6.04630439,3.20616653 C6.61988791,3.30765631 7.00774466,3.85928941 6.91064819,4.44011086 C6.82307617,4.96282338 6.37807272,5.33370291 5.87116034,5.33370291 Z" id="Path" fill="#000000"></path>
                        </g>
                        <g transform="translate(86.2713, 0)">
                            <ellipse id="Oval" fill="#000000" cx="12.6786299" cy="12.8326996" rx="12.6786299" ry="12.8326996"></ellipse>
                            <ellipse id="Oval" fill="#FFFFFF" cx="15.7830713" cy="7.76945759" rx="3.64521853" ry="3.68951495"></ellipse>
                            <path d="M21.7043687,5.33370291 C21.1948107,5.33370291 20.7458387,4.96014555 20.6611769,4.43475519 C20.5675198,3.85286261 20.9561703,3.30390735 21.5300184,3.20616653 C21.5543586,3.20161422 22.3014988,3.06156368 23.6121689,2.49332804 C24.8672797,1.94892508 25.737444,1.02641245 25.7461747,1.01730783 C26.1464662,0.588319374 26.8158234,0.56689673 27.2407196,0.971249145 C27.6656159,1.37533378 27.6886333,2.0498793 27.290723,2.48154558 C27.2438945,2.53215658 26.1239779,3.73423472 24.4455582,4.46233685 C22.8785217,5.14170246 21.973699,5.30344343 21.8755442,5.31951041 C21.8183975,5.32888282 21.7609863,5.33370291 21.7043687,5.33370291 Z" id="Path" fill="#000000"></path>
                        </g>
                    </g>
                    <g id="Group" transform="translate(52.3077, 112.9278)">
                        <ellipse id="Oval" fill="#F6BDC0" cx="45.1282051" cy="29.7719962" rx="43.9372911" ry="28.5744327"></ellipse>
                        <g transform="translate(21.0423, 14.6969)" fill="#000000" id="Oval">
                            <ellipse transform="translate(7.0473, 5.1102) rotate(-13.8514) translate(-7.0473, -5.1102)" cx="7.04726784" cy="5.11021987" rx="6.34992755" ry="3.68412409"></ellipse>
                            <ellipse transform="translate(41.1021, 5.0972) rotate(-76.1486) translate(-41.1021, -5.0972)" cx="41.1021348" cy="5.09719279" rx="3.68412409" ry="6.34992755"></ellipse>
                        </g>
                        <path d="M69.3011932,5.90932764 C74.3957325,11.2396955 77.4242383,17.8993295 77.4242383,25.1251521 C77.4242383,45.0189129 51.7411003,54.3264365 29.8469696,54.3264365 C26.5381397,54.3264365 23.5069867,54.0574437 20.7421284,53.543404 C27.7192596,56.5768234 36.1054229,58.3464289 45.1279404,58.3464289 C69.3938404,58.3464289 89.0652315,45.5531736 89.0652315,29.7719962 C89.0652315,19.7990413 81.2076868,11.0212552 69.3011932,5.90932764 Z" id="Path" fill="#DD9099"></path>
                        <path d="M49.5382137,1.34017484 C48.0878873,1.24625352 46.6169139,1.19729736 45.1282051,1.19729736 C21.2720706,1.19729736 1.85744478,13.5624524 1.20891411,28.9753943 C7.24554346,14.8749563 28.0374367,2.38741094 49.5382137,1.34017484 Z" id="Path" fill="#FFFFFF"></path>
                        <path d="M45.1282051,59.5437262 C33.165329,59.5437262 21.9020719,56.5031231 13.4129378,50.9822519 C4.76339159,45.3570829 0,37.8244861 0,29.7717301 C0,21.7192402 4.76339159,14.1866434 13.4129378,8.56147432 C21.9020719,3.04060316 33.165329,0 45.1282051,0 C57.0910813,0 68.3543384,3.04060316 76.8434725,8.56147432 C85.4930187,14.1866434 90.2564103,21.7192402 90.2564103,29.7717301 C90.2564103,37.8244861 85.4930187,45.3570829 76.8434725,50.9822519 C68.3543384,56.5031231 57.0910813,59.5437262 45.1282051,59.5437262 Z M45.1282051,2.39486079 C21.5579536,2.39486079 2.38235756,14.676205 2.38235756,29.7719962 C2.38235756,44.8677873 21.5579536,57.1491315 45.1282051,57.1491315 C68.6984567,57.1491315 87.8740527,44.8677873 87.8740527,29.7719962 C87.8740527,14.676205 68.698192,2.39486079 45.1282051,2.39486079 Z" id="Shape" fill="#000000"></path>
                    </g>
                    <path d="M135.56997,229.961977 L132.307692,225.597463 L133.131079,224.847925 C133.203957,224.781431 140.463121,218.134515 143.446872,212.043333 C146.401473,206.011616 146.051129,191.164647 146.047154,191.015442 L148.431187,190.95057 C148.447883,191.584691 148.801142,206.555728 145.580206,213.131015 C142.974889,218.449683 137.588289,223.917827 135.531278,225.898306 L136.569324,227.287101 C139.41103,226.693795 150.092007,224.311382 157.955129,220.521523 L158.974359,222.720944 C149.592993,227.242772 136.831154,229.7206 136.292388,229.823855 L135.56997,229.961977 Z" id="Path" fill="#000000"></path>
                    <path d="M59.3018576,229.961977 L58.5791815,229.823316 C58.0404208,229.720063 45.2789741,227.242269 35.8974359,222.720504 L36.9166556,220.521113 C44.7796996,224.31092 55.4608357,226.6933 58.3022484,227.286597 L59.3405487,225.897822 C57.2835588,223.91737 51.8970119,218.449032 49.291721,213.130708 C46.0710822,206.555782 46.4240725,191.584682 46.440768,190.95057 L48.8247774,191.015441 C48.8208023,191.164644 48.4704621,206.011137 51.4250331,212.043041 C54.408755,218.134138 61.6675815,224.780963 61.7407236,224.847455 L62.5641026,225.596983 L59.3018576,229.961977 Z" id="Path" fill="#000000"></path>
                    <g id="Group" transform="translate(112.8205, 219.6958)">
                        <path d="M22.9760333,5.11343926 C19.8638399,0.558429573 12.7956694,-0.143053024 7.18876427,3.54706802 C2.9835854,6.31439439 0.797344994,10.7652261 1.27877588,14.7395891 C1.33642904,15.2165867 1.7397318,15.5806807 2.2289755,15.5806807 L6.78923321,15.5806807 C7.1863396,15.5806807 7.45359166,15.9802059 7.29544957,16.3379541 L5.60869033,20.1510263 C5.4050184,20.6116304 5.60842093,21.1460051 6.06722159,21.3683749 C9.59995979,23.0809654 14.4102275,22.7070882 18.4588807,20.0426177 C24.0657859,16.3524967 26.0882266,9.66844895 22.9760333,5.11343926 Z" id="Path" fill="#333233"></path>
                        <path d="M10.8298042,23.6121673 C8.96793021,23.6121673 7.15832124,23.2242762 5.5300234,22.4350092 C4.48984173,21.9310416 4.03562099,20.7197745 4.49630751,19.677466 L5.78191924,16.7705306 L2.2289755,16.7705306 C1.13114066,16.7705306 0.204918296,15.9577309 0.0747945599,14.8799914 C-0.476143411,10.3318564 2.05116666,5.49551327 6.51362952,2.55896381 C12.6666233,-1.49022748 20.5034129,-0.641732323 23.9828084,4.45082509 L23.9828084,4.45082509 C27.462204,9.54364692 25.2870093,16.9812662 19.1337461,21.0307219 C16.5420476,22.7364378 13.6270604,23.6121673 10.8298042,23.6121673 Z M6.81913742,20.4019524 C10.0428654,21.8533048 14.3170126,21.3350591 17.7834766,19.0542491 C22.8259734,15.7356256 24.7032036,9.77897278 21.9689887,5.77578902 L21.9689887,5.77578902 C19.234235,1.77286967 12.9066652,1.21654875 7.86389901,4.53517223 C4.22070382,6.9325875 2.11851849,10.780562 2.45985757,14.3905664 L6.7889638,14.3905664 C7.38543161,14.3905664 7.93717781,14.6827407 8.26423829,15.17243 C8.59129878,15.6623837 8.64464143,16.2750242 8.40675477,16.8120431 L6.81913742,20.4019524 Z" id="Shape" fill="#000000"></path>
                    </g>
                    <g id="Group" transform="translate(55.3846, 219.6958)">
                        <path d="M2.66499236,5.11362119 C5.77718571,0.558721397 12.8453561,-0.142744275 18.4522612,3.54728774 C22.6574401,6.31454734 24.8436805,10.7652717 24.3622496,14.7395387 C24.3045964,15.2165248 23.9012937,15.5806101 23.41205,15.5806101 L18.8520617,15.5806101 C18.4549553,15.5806101 18.1877032,15.9801256 18.3458453,16.3378652 L20.0326046,20.1508454 C20.2362765,20.6114383 20.032874,21.1458002 19.5740733,21.3681646 C16.0413351,23.0807139 11.2310675,22.7068456 7.18241428,20.0424394 C1.57550917,16.3524074 -0.446931573,9.66852097 2.66499236,5.11362119 Z" id="Path" fill="#333233"></path>
                        <path d="M14.8112213,23.6121673 C12.0136957,23.6121673 9.09924735,22.7364589 6.50727954,21.0305198 C0.354016385,16.9811618 -1.8211783,9.54345755 1.65821721,4.451023 L1.65821721,4.451023 C5.13761273,-0.641675947 12.9746716,-1.49041504 19.1276654,2.55920737 C23.5898588,5.49542157 26.1171688,10.331648 25.5662309,14.880202 C25.4361071,15.9576512 24.5098848,16.7704313 23.41205,16.7704313 L19.8591062,16.7704313 L21.144718,19.6770321 C21.6054045,20.7190511 21.1514532,21.930289 20.1112715,22.4347732 C18.4832431,23.2240212 16.6730953,23.6121673 14.8112213,23.6121673 Z M3.67203692,5.77621937 C0.937552636,9.77904214 2.81478283,15.7355512 7.85754902,19.0543591 C11.3234742,21.3353784 15.5968131,21.8541404 18.8221575,20.4020298 L17.2337319,16.8119428 C16.9961147,16.2754656 17.0494573,15.6625756 17.3765178,15.1731625 C17.7038477,14.6832205 18.2553245,14.3910533 18.8517923,14.3910533 L23.1808985,14.3910533 C23.522507,10.7808716 21.4203217,6.93325434 17.7771265,4.53589691 C12.7343603,1.2168247 6.40679061,1.773661 3.67203692,5.77621937 L3.67203692,5.77621937 Z" id="Shape" fill="#000000"></path>
                    </g>
                    <path d="M185.940645,219.544673 L181.124643,220.841333 C179.237768,221.349444 177.294124,220.23983 176.783211,218.363301 L175.458446,213.496145 C175.15922,212.396557 174.194959,211.589013 173.051639,211.52174 C163.183278,210.938969 152.344554,216.940801 145.815694,227.622744 C137.09755,241.886791 139.365355,259.093451 150.881317,266.055049 C162.397279,273.016647 178.80007,267.096861 187.518479,252.832814 C194.230642,241.850648 194.42933,229.125708 188.910358,220.673809 C188.27185,219.696368 187.071762,219.240228 185.940645,219.544673 Z" id="Path" fill="#333233"></path>
                    <path d="M191.017788,227.908745 C189.448184,234.065951 185.14786,246.842345 174.985422,255.967284 C168.368596,261.908563 157.12997,264.874446 150.769231,266.145954 C162.07012,272.968118 178.068619,267.028688 186.590593,252.805297 C191.4789,244.646873 192.846084,235.529863 191.017788,227.908745 Z" id="Path" fill="#1E1F1E"></path>
                    <path d="M7.9055086,219.544673 L12.7215107,220.841333 C14.6083861,221.349444 16.5520296,220.23983 17.0629423,218.363301 L18.3877077,213.496145 C18.6869338,212.396557 19.6511953,211.589013 20.794515,211.52174 C30.6628761,210.938969 41.5016,216.940801 48.0304595,227.622744 C56.7486038,241.886791 54.4807987,259.093451 42.964837,266.055049 C31.4488752,273.016647 15.0460839,267.096861 6.32767435,252.832814 C-0.3844877,241.850648 -0.583175973,229.125708 4.93579535,220.673809 C5.5743036,219.696368 6.77439138,219.240228 7.9055086,219.544673 Z" id="Path" fill="#333233"></path>
                    <path d="M51.4832932,232.015209 C51.4835621,232.018673 52.557007,252.942515 37.3924468,259.764875 C30.4341469,262.895576 22.7213164,263.494375 16.4102564,263.226821 C25.0679981,269.492488 35.6731065,270.950977 43.8489812,266.025745 C54.2470373,259.761677 57.2068088,245.28658 51.4832932,232.015209 Z" id="Path" fill="#1E1F1E"></path>
                    <path d="M160.605421,270 C156.56879,270 152.727242,268.948504 149.338865,266.863126 C143.490073,263.264288 139.71944,257.035375 138.721091,249.32396 C137.735396,241.710755 139.577083,233.546182 143.907129,226.334628 C150.439501,215.455381 161.489093,208.837628 172.058097,209.471462 C173.697056,209.569939 175.090315,210.728453 175.52477,212.354002 L176.841315,217.277618 C177.17691,218.533542 178.459447,219.279997 179.700859,218.939195 L184.486977,217.627494 L184.797,218.786808 L184.486977,217.627494 C186.113018,217.181809 187.82421,217.843665 188.742681,219.27466 C191.606179,223.738447 193.009193,229.272145 192.800138,235.277414 C192.58792,241.373689 190.71328,247.531079 187.378683,253.085059 C183.048374,260.296347 176.737183,265.71075 169.607172,268.329883 C166.569417,269.445696 163.535881,270 160.605421,270 Z M170.64612,211.831456 C161.333554,211.831456 151.751037,217.895439 145.934671,227.582546 C141.884068,234.328399 140.157586,241.938935 141.07342,249.01198 C141.9766,255.987081 145.349687,261.59764 150.57105,264.810574 C155.792941,268.023775 162.26547,268.471861 168.797842,266.072369 C175.421693,263.638983 181.300538,258.583529 185.350877,251.837675 C188.475365,246.634639 190.23111,240.879166 190.429092,235.193348 C190.621011,229.683403 189.34981,224.631151 186.7531,220.583425 C186.397997,220.030189 185.736561,219.773453 185.107287,219.94639 L180.321169,221.258091 C177.816201,221.9453 175.22951,220.439846 174.551465,217.90558 L173.23492,212.981964 C173.066991,212.353735 172.537631,211.906982 171.917848,211.86962 C171.494466,211.843999 171.070293,211.831456 170.64612,211.831456 Z" id="Shape" fill="#000000"></path>
                    <path d="M32.2532519,270 C22.3910307,270 11.8613241,263.790288 5.44386524,253.102502 C2.10828459,247.546627 0.232416053,241.386573 0.0203819888,235.288192 C-0.188751112,229.280317 1.21478781,223.744732 4.07935747,219.279207 C4.9976443,217.847387 6.70868536,217.184207 8.33691709,217.6314 L13.1248256,218.943612 C14.3653831,219.284546 15.6489276,218.538067 15.9851757,217.281388 L17.3022131,212.355854 C17.7373577,210.729406 19.1311388,209.570708 20.770447,209.472192 C31.3402396,208.832238 42.3968666,215.458174 48.9319464,226.341657 C57.9254609,241.320095 55.4875966,259.508179 43.4981779,266.885933 C40.0637008,268.999355 36.212276,270 32.2532519,270 Z M7.32237102,219.897802 C6.8247239,219.897802 6.35107567,220.149298 6.06994593,220.588215 C3.47200119,224.637517 2.20058797,229.691735 2.39231529,235.203826 C2.59037199,240.891857 4.34703729,246.64957 7.47242995,251.854633 C15.7858004,265.700537 31.3945667,271.52286 42.2655321,264.832582 C53.1367612,258.142838 55.2172795,241.435964 46.9036454,227.589793 C40.8200611,217.457595 30.6152624,211.285527 20.9110118,211.871017 C20.2907331,211.908394 19.7614391,212.35532 19.5931832,212.984061 L18.2761457,217.909327 C17.5981114,220.444846 15.0096608,221.949551 12.5045468,221.263143 L7.71663834,219.950931 C7.58556753,219.914889 7.4531781,219.897802 7.32237102,219.897802 Z" id="Shape" fill="#000000"></path>
                    <g id="Group" transform="translate(179.4872, 132.4335)">
                        <path d="M14.136811,1.86419378 C14.136811,1.86419378 21.2056487,11.6599865 18.8493695,21.4557793 C16.4930902,31.251572 9.42425256,28.8026238 4.7116941,26.3536757 C-0.000864352442,23.9047275 -0.000864352442,16.5578829 4.7116941,11.6599865 C9.42425256,6.76209016 14.136811,1.86419378 14.136811,1.86419378 Z" id="Path" fill="#333233"></path>
                        <path d="M11.8082835,29.7718631 C9.06348003,29.7718631 6.27338361,28.5340559 4.18493479,27.4488997 C1.98207552,26.3041525 0.5389854,24.2002339 0.12113855,21.5243498 C-0.444106656,17.9023555 0.995579952,13.7908436 3.87914211,10.7941473 L14.2648355,0 L15.0795845,1.12923722 C15.3819737,1.54827947 22.456833,11.5089681 19.9926885,21.7526462 C19.0973024,25.4755917 17.4450271,27.9359683 15.0814172,29.0654776 C14.0313021,29.567512 12.9233272,29.7718631 11.8082835,29.7718631 Z M13.9556393,3.78416916 L5.54476971,12.5255537 C3.18770506,14.9755903 2.00066395,18.2732351 2.44704796,21.1319739 C2.74001201,23.0095009 3.73148194,24.4750603 5.23871522,25.2581795 C9.16139652,27.2970649 12.0593582,27.8143372 14.0964925,26.8407442 C15.7783522,26.0366729 16.9928832,24.1251328 17.706574,21.1583681 C19.4379157,13.9600931 15.6482332,6.59392905 13.9556393,3.78416916 Z" id="Shape" fill="#000000"></path>
                    </g>
                    <g id="Group" transform="translate(24.6154, 5.1331)">
                        <path d="M145.456803,56.6273779 C145.456803,56.6273779 144.791311,-1.29429741 64.0006189,1.27929117 C-8.64339009,3.5934497 1.71059595,70.5845552 1.71059595,70.5845552 L92.7498603,63.4150452 L145.456803,56.6273779 Z" id="Path" fill="#1569B5"></path>
                        <path d="M0.6963866,71.8631179 L0.526819315,70.7667139 C0.48076729,70.4701086 -0.584019427,63.3919434 0.450420868,53.6815059 C1.40766413,44.6975787 4.43511896,31.7218276 13.4229836,20.9234832 C24.3325221,7.81708775 41.3363674,0.805837967 63.9622866,0.0849038981 C92.7770123,-0.836245378 114.765124,5.74191289 129.302657,19.6276607 C138.142517,28.0712192 142.387821,37.6563231 144.392815,44.2103175 C146.569505,51.3267201 146.65176,56.4014055 146.654422,56.6138355 L146.666667,57.6765162 L92.8440939,64.6065115 L0.6963866,71.8631179 Z M69.1890584,2.39056523 C67.4968461,2.39056523 65.7833381,2.41818112 64.0389512,2.47367844 C42.1373532,3.17124522 25.7321843,9.8872174 15.2791731,22.4346566 C6.68235133,32.7539715 3.77015966,45.2188286 2.84086705,53.8580882 C2.06064458,61.1120392 2.50758881,66.9642182 2.75914467,69.3033372 L92.6258126,62.2262342 L144.201153,55.5843469 C144.063263,53.7717886 143.602477,49.782089 142.071313,44.8093699 C140.142452,38.5448113 136.068046,29.3848328 127.612841,21.3220549 C114.428652,8.75018621 94.7873296,2.39056523 69.1890584,2.39056523 Z" id="Shape" fill="#000000"></path>
                    </g>
                    <g id="Group" transform="translate(25.641, 57.4905)">
                        <path d="M1.57453549,18.5743823 C1.57453549,18.5743823 18.2320898,4.55205398 72.9640541,2.21499927 C127.696018,-0.122055443 144.353573,2.21499927 144.353573,2.21499927 C144.353573,2.21499927 180.048332,20.911437 170.52973,27.9226011 C161.011127,34.9337653 111.038464,13.9002728 87.2419578,20.911437 C63.4454516,27.9226011 49.2585034,40.1744806 32.5554713,39.8911776 C15.8524392,39.6078747 1.57453549,18.5743823 1.57453549,18.5743823 Z" id="Path" fill="#4A8BC9"></path>
                        <path d="M33.125001,41.0646388 C32.9285477,41.0646388 32.7323587,41.0628211 32.5351121,41.0594453 C25.4019771,40.9384378 17.6028044,37.1048891 9.98078351,29.9727174 C4.29315412,24.6504648 0.733461202,19.4416892 0.584865241,19.2227851 L0,18.3614506 L0.800355825,17.6873402 C0.977243188,17.5385477 5.26167193,13.9950534 16.3505794,10.1690351 C34.6812925,3.84392641 57.2271601,1.71772596 72.9127594,1.04777028 C127.132306,-1.26747192 143.837717,0.962597617 144.522263,1.05841686 L144.729293,1.08750021 L144.913584,1.18409847 C144.982065,1.21993331 151.831493,4.81899757 158.668758,9.39027658 C168.223848,15.7784858 173.015671,20.7616058 173.318151,24.6244976 C173.449032,26.2975691 172.7317,27.761604 171.243625,28.8576827 C166.392575,32.4310393 153.671227,29.7320008 137.564429,26.3160058 C119.979076,22.5865859 100.047122,18.3588539 87.5838343,22.0311459 C77.8087583,24.9111763 69.5458182,28.7403106 62.2558907,32.1189127 C51.9123427,36.9119522 42.9516361,41.0646388 33.125001,41.0646388 Z M3.21755204,18.8337953 C6.16065105,22.8099044 18.642183,38.4868674 32.576095,38.7231696 C42.0730162,38.8797523 50.9591604,34.7696521 61.2403087,30.0051765 C68.6058562,26.5915186 76.9544638,22.722914 86.9000813,19.7925071 C99.9508786,15.9470134 120.200648,20.2422603 138.067065,24.0316647 C152.346819,27.0599683 165.834414,29.9205232 169.815834,26.9882986 C170.654793,26.3702774 171.013592,25.6761722 170.945375,24.8039314 C170.810264,23.0794447 168.863974,19.0363401 157.344879,11.3326287 C151.244248,7.25265054 145.128017,3.9563647 143.983405,3.34717244 C141.924214,3.10308006 123.808991,1.21370116 73.0156132,3.38300728 C57.5772332,4.04205671 35.3906928,6.12359344 17.3674834,12.2954953 C9.32479316,15.0493247 4.93909706,17.6696824 3.21755204,18.8337953 Z" id="Shape" fill="#000000"></path>
                    </g>
                    <g id="Group" transform="translate(33.8462, 15.3992)">
                        <g transform="translate(106.7253, 0.0001)">
                            <path d="M1.53218034,15.9532849 C1.53218034,15.9532849 3.98563185,20.7123525 7.34099008,23.3356186 C10.6966136,25.9588847 16.0855061,26.9854499 17.0110216,26.5579151 C17.936537,26.1303802 21.9921993,15.5201316 23.4010306,11.7370635 C24.809862,7.95372783 25.2990137,0.394012635 22.4378473,1.1190561 C19.5766809,1.84409957 19.8987147,7.28165802 12.142317,11.1843182 C4.3864498,15.0867108 1.53218034,15.9532849 1.53218034,15.9532849 Z" id="Path" fill="#FFFFFF"></path>
                            <path d="M16.3314084,27.7067478 C14.0137734,27.7067478 9.49522078,26.373845 6.69108671,24.1815918 C3.19195395,21.4459573 0.695263966,16.6499687 0.591014161,16.446903 L0,15.3010133 L1.22553206,14.92886 C1.29105293,14.9085267 4.1851124,13.9921895 11.6690812,10.2267792 C16.0404108,8.02730235 17.6922264,5.29889155 18.8986593,3.30649351 C19.8172778,1.78925311 20.6106904,0.478823993 22.1794776,0.0809864895 C23.0697125,-0.143750231 23.8907129,0.10265753 24.4883587,0.777670321 C26.3958914,2.93273494 25.4411967,9.30268323 24.3944543,12.11323 C18.9021077,26.8615772 17.9232737,27.3134585 17.4532211,27.5309716 C17.1969735,27.6494934 16.8110105,27.7067478 16.3314084,27.7067478 Z M3.08080721,16.529039 C3.98085705,18.0323671 5.7995254,20.776563 7.99115871,22.4899129 C10.8077603,24.6915301 15.2987252,25.6750208 16.476244,25.5848586 C17.2717787,24.4440522 19.7071921,18.6129369 22.4081374,11.3606295 C23.5747803,8.22769259 23.8445565,3.26368651 22.9055125,2.20287569 C22.8474191,2.13759502 22.8338905,2.12180994 22.6967476,2.15659062 C22.0020142,2.33236685 21.5377975,3.05419979 20.7099002,4.42161571 C19.4451086,6.51059703 17.533597,9.66734532 12.6163485,12.141322 C7.58397435,14.6738908 4.59256201,15.941513 3.08080721,16.529039 Z" id="Shape" fill="#000000"></path>
                        </g>
                        <g>
                            <path d="M24.050132,15.9533963 C24.050132,15.9533963 21.5966805,20.7124639 18.2413222,23.3357301 C14.8856987,25.9589962 9.49680615,26.9855614 8.57129071,26.5580265 C7.64577527,26.1304917 3.59011301,15.5202431 2.18128168,11.7371749 C0.772450348,7.95383929 0.283298591,0.394124095 3.14446499,1.11916756 C6.00563139,1.84421103 5.68359764,7.28176948 13.4399953,11.1844296 C21.1961278,15.0868223 24.050132,15.9533963 24.050132,15.9533963 Z" id="Path" fill="#FFFFFF"></path>
                            <path d="M9.26681994,27.7186312 C8.82117192,27.7186312 8.4216803,27.6661926 8.12962169,27.531083 C7.6590386,27.3138375 6.68020456,26.8614211 1.18785797,12.1133414 C0.141115652,9.30252715 -0.81331386,2.93257886 1.09395356,0.777781781 C1.69106886,0.10276899 2.51047763,-0.143906314 3.40256947,0.0810979495 C4.97162188,0.478667909 5.76476925,1.78936457 6.68365302,3.30687251 C7.88982061,5.29900301 9.54163622,8.02768135 13.9129658,10.2268907 C21.4462742,14.0171825 24.3294578,14.9206776 24.357576,14.929239 L25.5785986,15.3043353 L24.9915634,16.4470145 C24.8870483,16.6500802 22.3903584,21.4463363 18.8912256,24.1817033 C16.773867,25.8372638 14.1540932,26.7343379 12.7808076,27.1217412 C12.1836923,27.2900261 10.5379779,27.7186312 9.26681994,27.7186312 Z M9.1063336,25.5852376 C10.2819955,25.6759349 14.774552,24.6919091 17.5911536,22.4902919 C19.7827869,20.776942 21.6017205,18.0327461 22.5015051,16.529418 C20.9900156,15.9421595 17.9980727,14.6740023 12.9659638,12.1422361 C8.04871535,9.66825941 6.13746893,6.51151112 4.87267741,4.4225298 C4.0447801,3.05538142 3.58029815,2.33328094 2.88556471,2.15750472 C2.74842184,2.12272403 2.73489324,2.13824157 2.6770651,2.20352223 C1.73802106,3.26433306 2.00779727,8.22833914 3.17444013,11.361276 C5.87538545,18.6130484 8.31053357,24.4441637 9.1063336,25.5852376 Z" id="Shape" fill="#000000"></path>
                        </g>
                    </g>
                    <g id="Group" transform="translate(76.9231, 14.3726)">
                        <g transform="translate(0.9712, 1.0749)">
                            <path d="M42.9805248,21.5106904 C42.9805248,33.3912187 33.3595082,43.0208525 21.4902624,43.0208525 C9.62233618,43.0208525 0,33.3912187 0,21.5106904 C0,9.63148289 9.62233618,0 21.4902624,0 C33.3595082,0 42.9805248,9.63148289 42.9805248,21.5106904" id="Path" fill="#F15B52"></path>
                            <path d="M31.7319898,30.3523394 L23.1774239,9.74639184 C22.9335732,9.1515069 22.4453441,8.83715829 21.8523437,8.83715829 C21.2588154,8.83715829 20.7352227,9.1515069 20.4908442,9.74639184 L11.1020663,32.3485852 L14.3140861,32.3485852 L18.0304333,23.0290734 L29.1219433,31.9985751 C29.568475,32.3596798 29.8899145,32.5231939 30.308472,32.5231939 C31.145851,32.5231939 31.8787224,31.8939684 31.8787224,30.986584 C31.8784585,30.8386552 31.8262048,30.6043466 31.7319898,30.3523394 M21.8523437,13.448309 L27.414197,27.1871923 L19.0137532,20.5642105 L21.8523437,13.448309 L21.8523437,13.448309 Z" id="Shape" fill="#FFFFFF"></path>
                        </g>
                        <path d="M22.5641026,45.1711027 C10.1221772,45.1711027 0,35.0393036 0,22.5855513 C0,10.1317991 10.1221772,0 22.5641026,0 C35.0060279,0 45.1282051,10.1317991 45.1282051,22.5855513 C45.1282051,35.0393036 35.0060279,45.1711027 22.5641026,45.1711027 Z M22.5641026,2.37742646 C11.4316869,2.37742646 2.37516869,11.4425535 2.37516869,22.5855513 C2.37516869,33.7285491 11.4316869,42.7936762 22.5641026,42.7936762 C33.6965182,42.7936762 42.7530364,33.7285491 42.7530364,22.5855513 C42.7530364,11.4425535 33.6965182,2.37742646 22.5641026,2.37742646 Z" id="Shape" fill="#000000"></path>
                    </g>
                    <path d="M35.8974359,77.0383978 C35.8974359,77.0383978 45.1963198,91.1293728 57.3453997,91.3635133 C69.2609351,91.5932163 81.1764706,84.3158071 90.7088989,79.6173363 C100.241327,74.9188655 116.923077,72.339927 116.923077,72.339927 C116.923077,72.339927 107.390649,70.2203947 90.7088989,74.9188655 C74.0271493,79.6173363 66.8778281,84.3158071 57.3453997,84.3158071 C47.8129713,84.3158071 35.8974359,77.0383978 35.8974359,77.0383978 Z" id="Path" fill="#ABD9F3"></path>
                </g>
            </g>
            <g id="Group-21">
                <path d="M104.496365,5 C46.8118167,5 0,35.0431658 0,72.0654084 C0,92.1635898 13.8132363,110.195825 35.6561489,122.491563 C34.0266331,128.075748 31.5598863,137.245227 28.2559088,150 C45.5711053,142.128175 56.8622156,136.584408 62.1292399,133.3687 C75.0844509,137.065448 89.4120059,139.138525 104.496365,139.138525 C162.180913,139.138525 209,109.087626 209,72.0654084 C209,35.0431732 162.180917,5 104.496365,5 Z" id="path595" fill-opacity="0.75" fill="#616161" transform="translate(104.5, 77.5) scale(-1, 1) translate(-104.5, -77.5)"></path>
                <path d="M108.496365,0 C50.8118167,0 4,30.0431658 4,67.0654084 C4,87.1635898 17.8132363,105.195825 39.6561489,117.491563 C38.0266331,123.075748 35.5598863,132.245227 32.2559088,145 C49.5711053,137.128175 60.8622156,131.584408 66.1292399,128.3687 C79.0844509,132.065448 93.4120059,134.138525 108.496365,134.138525 C166.180913,134.138525 213,104.087626 213,67.0654084 C213,30.0431732 166.180917,0 108.496365,0 Z" id="path595" fill="#FFFFFF" transform="translate(108.5, 72.5) scale(-1, 1) translate(-108.5, -72.5)"></path>
                <text id="Welcome-to-Ansible!" font-family="RedHatDisplay-Medium, Red Hat Display" font-size="28" font-weight="400" line-spacing="32" fill="#151515">
                    <tspan x="29.488" y="67.2598633">Welcome to </tspan>
                    <tspan x="56.228" y="99.2598633">Ansible!</tspan>
                </text>
            </g>
        </g>
    </g>
</svg>