<?xml version="1.0" encoding="utf-8"?>
<!-- Generator: Adobe Illustrator 26.5.0, SVG Export Plug-In . SVG Version: 6.00 Build 0)  -->
<svg version="1.1" xmlns="http://www.w3.org/2000/svg" xmlns:xlink="http://www.w3.org/1999/xlink" x="0px" y="0px"
	 viewBox="0 0 1296 1728" enable-background="new 0 0 1296 1728" xml:space="preserve">
<g id="Layer_1" display="none">
</g>
<g id="Layer_2">
	<g>
		<g>
			<ellipse fill="#006BB6" cx="630" cy="373.014" rx="18" ry="13.5"/>
			<path d="M630,391.015c-12.406,0-22.5-8.075-22.5-18s10.094-18,22.5-18s22.5,8.075,22.5,18S642.406,391.015,630,391.015z
				 M630,364.015c-7.317,0-13.5,4.121-13.5,9s6.183,9,13.5,9s13.5-4.121,13.5-9S637.317,364.015,630,364.015z"/>
		</g>
		<g>
			<path fill="#565656" d="M965.456,1072.705c0-86.76-147.493-198.169-329.435-198.169s-329.435,111.409-329.435,198.169
				c0,44.191,38.281,84.113,99.873,112.657l18.705,174.568c0,0,130.862-52.512,207-54.459c147.19-3.765,216,54.459,216,54.459
				l11.619-171.944C924.764,1159.292,965.456,1118.267,965.456,1072.705z"/>
			<path d="M852.054,1369.115l-6.797-5.75c-0.165-0.14-17.352-14.43-52.031-28.082c-32.025-12.606-85.956-27.251-160.946-25.313
				c-74.449,1.903-204.138,53.614-205.439,54.137l-5.517,2.213l-19.068-177.956c-64.623-30.517-100.169-71.526-100.169-115.658
				c0-44.729,36.837-95.343,98.539-135.395c31.099-20.187,67.709-36.896,105.874-48.322c42.003-12.575,85.581-18.952,129.521-18.952
				s87.519,6.377,129.521,18.952c38.165,11.427,74.776,28.136,105.875,48.322c61.702,40.052,98.539,90.666,98.539,135.395
				c0,23.451-9.987,46.008-29.684,67.042c-18.199,19.436-43.818,36.667-76.183,51.245L852.054,1369.115z M636.021,879.036
				c-43.065,0-85.774,6.249-126.94,18.574c-37.355,11.185-73.165,27.522-103.555,47.25c-28.928,18.776-52.935,40.543-69.427,62.946
				c-16.363,22.229-25.013,44.67-25.013,64.898c0,20.451,8.639,40.36,25.675,59.176c16.792,18.546,40.879,35.166,71.591,49.398
				l2.311,1.071l18.349,171.241c11.114-4.294,37.858-14.356,69.743-24.451c56.449-17.873,101.297-27.351,133.295-28.169
				c76.804-1.949,132.096,13.126,164.967,26.132c23.452,9.278,39.032,18.724,47.213,24.324l11.248-166.459l2.489-1.099
				c32.425-14.318,57.906-31.233,75.736-50.274c18.085-19.312,27.254-39.799,27.254-60.891c0-20.229-8.649-42.67-25.013-64.898
				c-16.492-22.403-40.5-44.17-69.427-62.946c-30.391-19.728-66.199-36.065-103.556-47.25
				C721.795,885.285,679.086,879.036,636.021,879.036z"/>
		</g>
		<g>
			<path fill="#333233" d="M983.164,954.93c0,0-9,27-18,36s-36,27-36,27l-18-27c0,0,27-9,36-18s36-36,36-36V954.93z"/>
			<path d="M927.916,1024.17l-23.764-35.645l5.588-1.864c7.233-2.413,27.484-10.156,34.242-16.913l43.682-43.683v29.595l-0.23,0.692
				c-0.382,1.144-9.447,28.119-19.088,37.759c-9.209,9.21-35.568,26.817-36.686,27.562L927.916,1024.17z M918.104,993.229
				l12.29,18.435c7.65-5.224,24.957-17.285,31.588-23.915c6.555-6.556,14.036-25.808,16.682-33.558v-6.396l-28.318,28.317
				C943.252,983.205,926.772,989.988,918.104,993.229z"/>
		</g>
		<path fill="#333233" d="M840.852,1195.739c75.918-28.779,124.604-73.193,124.604-123.034c0-62.732-77.118-138.338-188.604-175.412
			L524.164,936.93c0,0,180,72,270,90c90,18,81,54,81,90C875.164,1148.225,847.963,1186.315,840.852,1195.739z"/>
		<path d="M636.021,1234.298c-88.651,0-172.067-16.496-234.882-46.449c-63.875-30.46-99.053-71.352-99.053-115.144
			c0-44.729,36.837-95.343,98.539-135.395c31.099-20.187,67.71-36.896,105.874-48.322c42.004-12.575,85.581-18.952,129.521-18.952
			s87.519,6.377,129.521,18.952c38.165,11.427,74.776,28.136,105.875,48.322c61.702,40.052,98.539,90.666,98.539,135.395
			c0,43.792-35.178,84.684-99.053,115.144C808.089,1217.802,724.673,1234.298,636.021,1234.298z M636.021,879.036
			c-43.065,0-85.774,6.249-126.94,18.574c-37.355,11.185-73.164,27.522-103.555,47.25c-28.927,18.776-52.935,40.543-69.427,62.946
			c-16.363,22.229-25.013,44.67-25.013,64.898c0,40.13,33.356,78.137,93.926,107.02c61.63,29.389,143.67,45.573,231.009,45.573
			s169.38-16.185,231.009-45.573c60.569-28.883,93.927-66.89,93.927-107.02c0-20.229-8.649-42.67-25.013-64.898
			c-16.492-22.403-40.5-44.17-69.427-62.946c-30.391-19.728-66.199-36.065-103.556-47.25
			C721.795,885.285,679.086,879.036,636.021,879.036z"/>
		<g>
			<g>
				
					<ellipse transform="matrix(0.9741 -0.226 0.226 0.9741 -132.0623 222.4025)" fill="#333233" cx="905.117" cy="687.867" rx="46.521" ry="28.575"/>
				<path d="M895.128,722.136c-6.749,0-13.18-0.964-18.915-2.882c-11.318-3.786-18.704-10.838-20.797-19.854l0,0
					c-2.092-9.017,1.434-18.6,9.929-26.983c7.923-7.819,19.393-13.775,32.295-16.77c27.873-6.468,52.985,2.619,57.178,20.687
					c2.092,9.017-1.434,18.6-9.929,26.983c-7.923,7.819-19.393,13.775-32.295,16.77C906.7,721.454,900.802,722.136,895.128,722.136z
					 M914.976,662.629c-4.897,0-10.071,0.572-15.301,1.786c-11.306,2.623-21.253,7.74-28.008,14.408
					c-6.185,6.104-8.842,12.688-7.483,18.542l0,0c1.358,5.854,6.645,10.597,14.884,13.354c9.003,3.011,20.184,3.226,31.491,0.601
					c11.306-2.623,21.253-7.74,28.008-14.408c6.185-6.104,8.842-12.688,7.483-18.542
					C943.796,668.652,930.854,662.629,914.976,662.629z"/>
			</g>
			<g>
				
					<ellipse transform="matrix(0.226 -0.9741 0.9741 0.226 -385.8548 889.6263)" fill="#333233" cx="366.925" cy="687.636" rx="28.575" ry="46.521"/>
				<path d="M377.089,721.936c-5.624,0-11.566-0.671-17.641-2.08c-12.903-2.994-24.373-8.95-32.296-16.77
					c-8.494-8.384-12.02-17.967-9.928-26.983c2.093-9.016,9.479-16.066,20.797-19.853c10.556-3.531,23.476-3.828,36.381-0.833
					c27.868,6.467,46.415,25.686,42.223,43.753l0,0C413.346,713.298,397.27,721.936,377.089,721.936z M356.918,662.36
					c-5.764,0-11.216,0.811-16.042,2.425c-8.239,2.756-13.525,7.498-14.884,13.353c-1.358,5.854,1.299,12.439,7.482,18.543
					c6.756,6.667,16.702,11.784,28.009,14.407c22.186,5.152,43.422-1.241,46.374-13.953l0,0c2.95-12.712-13.303-27.802-35.49-32.95
					C367.123,662.967,361.904,662.36,356.918,662.36z"/>
			</g>
		</g>
		<g>
			<g>
				<path fill="#565656" d="M926.918,731.415c11.398,54.284,20.679,132.47-5.97,174.358
					c-51.65,81.184-181.846,104.493-289.484,104.493c-110.823,0-229.933,0.967-280.492-84.232
					c-23.884-40.247-19.736-148.694-6.316-194.619c42.597-145.767,77.497-249.489,283.215-245.806
					C844.465,489.488,895.511,581.832,926.918,731.415z"/>
				<g>
					<path fill="#333233" d="M926.918,731.415c-31.407-149.583-82.453-241.927-299.047-245.805
						c-46.843-0.839-84.826,3.893-116.063,13.421c199.909,10.324,249.525,94.269,280.579,226.611
						c11.793,50.258,21.396,122.644-6.177,161.425c-53.439,75.163-188.147,96.742-299.515,96.742
						c-23.462,0-47.282,0.036-70.781-0.58c59.075,27.492,139.275,27.036,215.55,27.036c107.638,0,237.834-23.309,289.484-104.493
						C947.597,863.885,938.316,785.699,926.918,731.415z"/>
				</g>
			</g>
			<path d="M624.085,1014.766c-53.941,0-109.479-0.227-158.066-10.617c-56.973-12.184-95.87-36.983-118.916-75.818
				c-15.042-25.348-17.595-71.932-17.776-97.444c-0.268-37.387,4.055-76.927,11.012-100.733
				c22.996-78.692,42.298-137.719,81.429-180.713c44.003-48.349,109.507-70.079,206.187-68.329
				c104.292,1.867,174.838,23.96,222.014,69.526c48.056,46.416,67.502,113.877,81.355,179.854l0,0
				c21.838,104,8.477,154.036-6.577,177.698c-24.158,37.972-66.629,66.429-126.232,84.579
				c-59.704,18.181-123.795,21.997-167.048,21.997h-3.692C626.545,1014.765,625.314,1014.766,624.085,1014.766z M617.404,490.015
				c-88.206,0-148.422,20.917-188.982,65.482c-37.831,41.567-56.791,99.655-79.445,177.181
				c-13.686,46.83-16.556,153.276,5.866,191.059c21.694,36.558,58.676,59.981,113.058,71.611
				c48.765,10.428,105.24,10.419,159.871,10.417h3.693c42.642,0,105.782-3.749,164.427-21.607
				c57.489-17.507,98.287-44.691,121.26-80.801c27-42.438,14.949-125.363,5.362-171.017l0,0
				c-13.558-64.575-32.488-130.498-78.8-175.229c-45.437-43.887-114.047-65.178-215.923-67.002
				C624.29,490.046,620.82,490.015,617.404,490.015z"/>
		</g>
		<ellipse fill="#707070" cx="639" cy="1156.014" rx="126" ry="130.5"/>
		<g>
			<g>
				<ellipse fill="#F6BDC0" cx="861.285" cy="836.031" rx="47.747" ry="38.505"/>
				<path fill="#FFFFFF" d="M826.789,828.923c-0.666,0-1.341-0.167-1.96-0.518c-1.914-1.084-2.6-3.499-1.528-5.419
					c0.269-0.479,2.794-4.836,8.936-9.971c6.065-5.072,12.979-6.303,13.27-6.353c2.169-0.37,4.244,1.09,4.618,3.267
					c0.372,2.173-1.082,4.235-3.251,4.615c-0.121,0.022-5.179,0.99-9.506,4.607c-5.018,4.196-7.072,7.719-7.093,7.754
					C829.533,828.196,828.18,828.922,826.789,828.923z"/>
			</g>
			<g>
				<ellipse fill="#F6BDC0" cx="410.757" cy="836.031" rx="47.747" ry="38.505"/>
				<path fill="#FFFFFF" d="M376.261,828.923c-0.666,0-1.341-0.167-1.96-0.518c-1.914-1.084-2.6-3.499-1.528-5.419
					c0.269-0.479,2.794-4.836,8.936-9.971c6.065-5.072,12.979-6.303,13.27-6.353c2.175-0.37,4.245,1.09,4.618,3.267
					c0.372,2.173-1.082,4.235-3.251,4.615c-0.121,0.022-5.179,0.99-9.506,4.607c-5.018,4.196-7.072,7.719-7.093,7.754
					C379.005,828.196,377.651,828.922,376.261,828.923z"/>
			</g>
		</g>
		<g>
			<g>
				<circle cx="477.172" cy="762.683" r="47.922"/>
				<circle fill="#FFFFFF" cx="493.438" cy="743.775" r="13.778"/>
				<path d="M443.056,734.679c-0.214,0-0.43-0.018-0.647-0.053c-0.371-0.061-3.791-0.664-9.713-3.201
					c-6.345-2.72-10.578-7.208-10.755-7.397c-1.508-1.615-1.421-4.146,0.194-5.653c1.615-1.509,4.146-1.421,5.653,0.194
					c0.024,0.025,3.313,3.47,8.059,5.503c5.012,2.147,7.844,2.657,7.871,2.662c2.168,0.379,3.634,2.439,3.267,4.608
					C446.654,733.294,444.972,734.679,443.056,734.679z"/>
			</g>
			<g>
				<circle cx="794.87" cy="762.683" r="47.922"/>
				<circle fill="#FFFFFF" cx="806.604" cy="743.775" r="13.778"/>
				<path d="M828.985,734.679c-1.926,0-3.623-1.395-3.943-3.357c-0.354-2.173,1.115-4.223,3.284-4.588
					c0.092-0.017,2.916-0.54,7.87-2.662c4.744-2.033,8.033-5.478,8.066-5.512c1.513-1.602,4.043-1.682,5.649-0.172
					c1.606,1.509,1.693,4.028,0.189,5.64c-0.177,0.189-4.41,4.678-10.754,7.397c-5.923,2.537-9.343,3.141-9.714,3.201
					C829.416,734.661,829.199,734.679,828.985,734.679z"/>
			</g>
		</g>
		<g>
			<ellipse fill="#F6BDC0" cx="636.021" cy="894.106" rx="165.985" ry="107.396"/>
			<g>
				
					<ellipse transform="matrix(0.9709 -0.2394 0.2394 0.9709 -188.4865 161.8097)" cx="571.697" cy="856.636" rx="23.982" ry="13.851"/>
				
					<ellipse transform="matrix(0.2394 -0.9709 0.9709 0.2394 -299.066 1331.4897)" cx="700.344" cy="856.636" rx="13.851" ry="23.982"/>
			</g>
			<g>
				<path fill="#DD9099" d="M727.341,804.419c19.246,20.034,30.687,45.064,30.687,72.222c0,74.77-97.025,109.752-179.736,109.752
					c-12.5,0-23.951-1.011-34.396-2.943c26.358,11.401,58.039,18.052,92.124,18.052c91.671,0,165.985-48.083,165.985-107.396
					C802.005,856.623,772.321,823.632,727.341,804.419z"/>
			</g>
			<g>
				<path fill="#FFFFFF" d="M652.681,787.246c-5.479-0.353-11.036-0.537-16.66-0.537c-90.123,0-163.467,46.474-165.917,104.403
					C492.909,838.116,571.456,791.182,652.681,787.246z"/>
			</g>
			<path d="M636.021,1006.002c-45.193,0-87.743-11.428-119.813-32.178c-32.676-21.142-50.671-49.453-50.671-79.719
				c0-30.265,17.995-58.576,50.671-79.718c32.07-20.75,74.62-32.178,119.813-32.178s87.743,11.428,119.813,32.178
				c32.676,21.142,50.671,49.453,50.671,79.718c0,30.266-17.995,58.577-50.671,79.719
				C723.764,994.574,681.214,1006.002,636.021,1006.002z M636.021,791.21c-89.043,0-161.484,46.159-161.484,102.896
				c0,56.737,72.441,102.896,161.484,102.896s161.484-46.159,161.484-102.896C797.505,837.369,725.063,791.21,636.021,791.21z"/>
		</g>
		<path d="M779.779,1218.039l-12.31-16.147l3.107-2.773c0.275-0.246,27.667-24.837,38.926-47.372
			c11.149-22.315,9.827-77.243,9.812-77.795l8.996-0.24c0.063,2.346,1.396,57.733-10.758,82.059
			c-9.831,19.677-30.157,39.907-37.919,47.234l3.917,5.138c10.723-2.195,51.027-11.009,80.698-25.03l3.846,8.137
			c-35.4,16.729-83.556,25.896-85.589,26.278L779.779,1218.039z"/>
		<path d="M492.261,1218.039l-2.727-0.513c-2.033-0.382-50.188-9.549-85.589-26.278l3.846-8.137
			c29.671,14.021,69.976,22.835,80.698,25.03l3.918-5.138c-7.762-7.327-28.088-27.558-37.919-47.234
			c-12.153-24.325-10.821-79.713-10.758-82.059l8.996,0.24c-0.015,0.552-1.337,55.479,9.812,77.795
			c11.259,22.535,38.65,47.126,38.926,47.372l3.107,2.773L492.261,1218.039z"/>
		<g>
			<path fill="#333233" d="M784.743,1202.056c-11.552-17.227-37.788-19.88-58.6-5.924c-15.609,10.466-23.724,27.299-21.937,42.33
				c0.214,1.804,1.711,3.181,3.527,3.181h16.927c1.474,0,2.466,1.511,1.879,2.864l-6.261,14.421
				c-0.756,1.742-0.001,3.763,1.702,4.604c13.113,6.477,30.968,5.063,45.996-5.014
				C788.788,1244.562,796.295,1219.283,784.743,1202.056z"/>
			<path d="M739.658,1272.018c-6.911,0-13.628-1.467-19.672-4.452c-3.861-1.906-5.547-6.487-3.837-10.429l4.772-10.994h-13.188
				c-4.075,0-7.513-3.074-7.996-7.15c-2.045-17.201,7.336-35.492,23.9-46.598c22.839-15.314,51.928-12.105,64.843,7.155l0,0
				c12.915,19.261,4.841,47.39-17.999,62.705C760.861,1268.706,750.041,1272.018,739.658,1272.018z M724.771,1259.877
				c11.966,5.489,27.831,3.529,40.698-5.097c18.717-12.551,25.685-35.079,15.536-50.219l0,0
				c-10.151-15.139-33.638-17.243-52.356-4.692c-13.523,9.067-21.326,23.62-20.059,37.273h16.069c2.214,0,4.262,1.105,5.476,2.957
				c1.214,1.853,1.412,4.17,0.529,6.201L724.771,1259.877z"/>
		</g>
		<g>
			<path fill="#333233" d="M490.906,1202.056c11.552-17.227,37.788-19.88,58.6-5.924c15.609,10.466,23.724,27.299,21.937,42.33
				c-0.214,1.804-1.711,3.181-3.527,3.181H550.99c-1.474,0-2.466,1.511-1.879,2.864l6.261,14.421
				c0.756,1.742,0.001,3.763-1.702,4.604c-13.113,6.477-30.968,5.063-45.996-5.014
				C486.862,1244.562,479.355,1219.283,490.906,1202.056z"/>
			<path d="M535.991,1272.019c-10.384,0-21.202-3.312-30.823-9.764c-22.84-15.315-30.914-43.445-17.999-62.705l0,0
				c12.915-19.261,42.005-22.471,64.844-7.155c16.563,11.105,25.944,29.396,23.899,46.599c-0.483,4.075-3.921,7.149-7.996,7.149
				h-13.188l4.772,10.993c1.71,3.941,0.025,8.522-3.836,10.43C549.621,1270.551,542.902,1272.019,535.991,1272.019z
				 M494.644,1204.562c-10.15,15.139-3.182,37.667,15.536,50.219c12.865,8.627,28.727,10.589,40.699,5.097l-5.896-13.578
				c-0.882-2.029-0.684-4.347,0.53-6.198c1.215-1.853,3.262-2.958,5.476-2.958h16.069c1.268-13.654-6.535-28.206-20.058-37.273
				C528.282,1187.318,504.795,1189.424,494.644,1204.562L494.644,1204.562z"/>
		</g>
		<path fill="#333233" d="M971.108,1181.126l-18.155,4.915c-7.113,1.926-14.44-2.28-16.366-9.393l-4.994-18.449
			c-1.128-4.168-4.763-7.229-9.073-7.484c-37.201-2.209-78.06,20.541-102.672,61.031c-32.865,54.068-24.316,119.29,19.096,145.678
			c43.412,26.388,105.246,3.949,138.112-50.119c25.303-41.628,26.052-89.862,5.247-121.899
			C979.896,1181.701,975.372,1179.972,971.108,1181.126z"/>
		<path fill="#1E1F1E" d="M994.049,1213.104c-6.025,23.297-22.532,71.639-61.541,106.165c-25.399,22.48-68.539,33.702-92.955,38.513
			c43.379,25.813,104.79,3.34,137.502-50.477C995.819,1276.436,1001.067,1241.94,994.049,1213.104z"/>
		<path fill="#333233" d="M300.934,1181.126l18.155,4.915c7.113,1.926,14.44-2.28,16.366-9.393l4.994-18.449
			c1.128-4.168,4.763-7.229,9.073-7.484c37.201-2.209,78.06,20.541,102.672,61.031c32.865,54.068,24.316,119.29-19.096,145.678
			c-43.412,26.388-105.246,3.949-138.112-50.119c-25.303-41.628-26.052-89.862-5.247-121.899
			C292.146,1181.701,296.67,1179.972,300.934,1181.126z"/>
		<path fill="#1E1F1E" d="M461.49,1229.799c0.001,0.013,3.993,78.53-52.402,104.131c-25.877,11.748-54.56,13.995-78.03,12.991
			c32.197,23.512,71.636,28.985,102.041,10.503C471.768,1333.918,482.775,1279.6,461.49,1229.799z"/>
		<path d="M879.344,1373.023c-15.312,0.001-29.884-3.94-42.737-11.754c-22.186-13.485-36.489-36.825-40.276-65.72
			c-3.739-28.527,3.247-59.12,19.672-86.142c24.779-40.765,66.693-65.562,106.784-63.187c6.217,0.369,11.502,4.71,13.15,10.801
			l4.994,18.449c1.273,4.706,6.138,7.503,10.847,6.226l18.155-4.915l1.176,4.344l-1.176-4.344c6.168-1.67,12.659,0.81,16.143,6.172
			c10.862,16.726,16.184,37.461,15.391,59.963c-0.805,22.843-7.916,45.915-20.565,66.726
			c-16.426,27.021-40.366,47.309-67.412,57.123C901.967,1370.946,890.46,1373.023,879.344,1373.023z M917.431,1155.063
			c-35.325,0-71.674,22.722-93.737,59.02c-15.365,25.277-21.914,53.794-18.44,80.297c3.426,26.136,16.221,47.159,36.027,59.198
			c19.808,12.04,44.36,13.719,69.139,4.728c25.126-9.118,47.426-28.061,62.79-53.338c11.852-19.496,18.512-41.062,19.263-62.367
			c0.728-20.646-4.094-39.577-13.944-54.744c-1.347-2.073-3.856-3.035-6.243-2.387l-18.155,4.915
			c-9.502,2.575-19.314-3.066-21.886-12.562l-4.994-18.449c-0.637-2.354-2.645-4.028-4.996-4.168
			C920.649,1155.11,919.04,1155.063,917.431,1155.063z"/>
		<path d="M392.798,1372.933c-37.396,0.001-77.323-23.259-101.657-63.291c-12.648-20.81-19.761-43.883-20.565-66.725
			c-0.793-22.503,4.529-43.237,15.391-59.963c3.482-5.363,9.97-7.847,16.144-6.172l18.155,4.915
			c4.704,1.277,9.571-1.519,10.846-6.226l4.994-18.449c1.65-6.092,6.935-10.432,13.151-10.801
			c40.079-2.397,82.004,22.421,106.784,63.186c34.102,56.103,24.858,124.228-20.604,151.862
			C422.414,1369.185,407.81,1372.933,392.798,1372.933z M298.264,1185.271c-1.887,0-3.683,0.942-4.749,2.586
			c-9.851,15.167-14.672,34.098-13.945,54.744c0.751,21.305,7.412,42.871,19.263,62.367c31.523,51.861,90.709,73.669,131.93,48.61
			c41.222-25.057,49.111-87.634,17.587-139.496c-23.068-37.951-61.763-61.069-98.56-58.876c-2.352,0.14-4.359,1.814-4.997,4.169
			l-4.994,18.448c-2.571,9.497-12.386,15.133-21.885,12.562l-18.155-4.915C299.262,1185.335,298.76,1185.271,298.264,1185.271z"/>
		<g>
			<path fill="#333233" d="M1001.164,864.93c0,0,27,36,18,72s-36,27-54,18s-18-36,0-54S1001.164,864.93,1001.164,864.93z"/>
			<path d="M992.27,967.492c-10.484,0-21.141-4.549-29.118-8.537c-8.414-4.207-13.926-11.939-15.522-21.773
				c-2.159-13.311,3.34-28.421,14.354-39.434l39.669-39.669l3.112,4.15c1.155,1.54,28.178,38.146,18.766,75.792
				c-3.42,13.682-9.731,22.724-18.759,26.875C1000.761,966.741,996.529,967.492,992.27,967.492z M1000.472,871.986l-32.126,32.125
				c-9.003,9.004-13.537,21.123-11.832,31.629c1.119,6.9,4.906,12.286,10.663,15.164c14.983,7.493,26.052,9.394,33.833,5.816
				c6.424-2.955,11.063-9.98,13.789-20.883C1021.412,909.383,1006.937,882.312,1000.472,871.986z"/>
		</g>
		<g>
			<path fill="#1569B5" d="M909.982,584.514c0,0-2.5-218.13-306-208.438c-272.896,8.715-234,261-234,261l342-27L909.982,584.514z"/>
			<path d="M366.172,641.891l-0.637-4.129c-0.173-1.117-4.173-27.773-0.287-64.342c3.596-33.833,14.969-82.699,48.733-123.365
				c40.983-49.358,104.86-75.762,189.857-78.477c108.246-3.469,190.847,21.304,245.459,73.597
				c33.208,31.798,49.156,67.895,56.688,92.577c8.177,26.8,8.486,45.911,8.496,46.711l0.046,4.002l-202.191,26.098L366.172,641.891z
				 M623.473,380.261c-6.357,0-12.794,0.104-19.347,0.313c-82.276,2.627-143.904,27.919-183.172,75.172
				c-32.295,38.862-43.235,85.804-46.726,118.339c-2.931,27.318-1.252,49.357-0.307,58.166l337.595-26.652l193.749-25.013
				c-0.518-6.826-2.249-21.851-8.001-40.578c-7.246-23.592-22.552-58.088-54.315-88.452
				C793.421,404.211,719.636,380.261,623.473,380.261z"/>
		</g>
		<g>
			<path fill="#4A8BC9" d="M371.896,642.514c0,0,63-54,270-63s270,0,270,0s135,72,99,99c-36,27-225-54-315-27
				s-143.656,74.182-206.828,73.091S371.896,642.514,371.896,642.514z"/>
			<path d="M491.222,729.124c-0.743,0-1.485-0.007-2.231-0.02c-26.978-0.466-56.475-15.229-85.302-42.695
				c-21.511-20.496-34.974-40.555-35.536-41.398l-2.212-3.317l3.027-2.596c0.669-0.573,16.873-14.219,58.812-28.953
				c69.328-24.358,154.598-32.546,213.922-35.126c205.062-8.916,268.243-0.328,270.832,0.041l0.783,0.112l0.697,0.372
				c0.259,0.138,26.164,13.998,52.023,31.602c36.138,24.601,54.261,43.791,55.405,58.667c0.495,6.443-2.218,12.081-7.846,16.302
				c-18.347,13.761-66.46,3.367-127.377-9.788c-66.509-14.362-141.893-30.643-189.03-16.501
				c-36.97,11.091-68.221,25.837-95.792,38.848C562.277,713.132,528.387,729.124,491.222,729.124z M378.11,643.513
				c11.131,15.312,58.337,75.684,111.036,76.594c35.918,0.603,69.526-15.225,108.41-33.573
				c27.857-13.146,59.432-28.044,97.047-39.329c49.359-14.809,125.945,1.732,193.517,16.325
				c54.007,11.662,105.018,22.678,120.076,11.386c3.173-2.38,4.53-5.053,4.272-8.412c-0.511-6.641-7.872-22.211-51.438-51.878
				c-23.073-15.712-46.205-28.406-50.534-30.752c-7.788-0.94-76.301-8.216-268.405,0.138c-58.389,2.538-142.3,10.554-210.465,34.322
				C401.208,628.939,384.621,639.03,378.11,643.513z"/>
		</g>
		<g>
			<g>
				<path fill="#FFFFFF" d="M805.3,471.088c0,0,9.249,17.788,21.898,27.593c12.65,9.805,32.965,13.642,36.454,12.044
					c3.489-1.598,18.778-41.256,24.089-55.396c5.311-14.141,7.155-42.397-3.631-39.687c-10.786,2.71-9.572,23.034-38.812,37.621
					C816.06,467.849,805.3,471.088,805.3,471.088z"/>
				<path d="M861.09,515.019c-8.737,0-25.771-4.982-36.342-13.176c-13.191-10.225-22.603-28.151-22.996-28.91l-2.228-4.283
					l4.62-1.391c0.247-0.076,11.157-3.501,39.37-17.575c16.479-8.221,22.706-18.419,27.254-25.866
					c3.463-5.671,6.454-10.569,12.368-12.056c3.356-0.84,6.451,0.081,8.704,2.604c7.191,8.055,3.592,31.864-0.354,42.369
					c-20.705,55.125-24.395,56.814-26.167,57.627C864.353,514.805,862.898,515.019,861.09,515.019z M861.251,507.575
					L861.251,507.575L861.251,507.575z M811.138,473.24c3.393,5.619,10.249,15.876,18.511,22.28
					c10.618,8.229,27.548,11.905,31.987,11.568c2.999-4.264,12.18-26.059,22.362-53.166c4.398-11.71,5.415-30.264,1.875-34.229
					c-0.219-0.244-0.27-0.303-0.787-0.173c-2.619,0.657-4.369,3.355-7.49,8.466c-4.768,7.808-11.974,19.607-30.511,28.854
					C828.114,466.306,816.837,471.044,811.138,473.24z"/>
			</g>
			<g>
				<path fill="#FFFFFF" d="M487.856,471.088c0,0-9.249,17.788-21.898,27.593c-12.65,9.805-32.965,13.642-36.454,12.044
					c-3.489-1.598-18.778-41.256-24.089-55.396c-5.311-14.141-7.155-42.397,3.631-39.687c10.786,2.71,9.572,23.034,38.812,37.621
					C477.097,467.849,487.856,471.088,487.856,471.088z"/>
				<path d="M432.126,515.063c-1.68,0-3.186-0.196-4.287-0.701c-1.774-0.812-5.464-2.503-26.169-57.627
					c-3.946-10.506-7.544-34.315-0.354-42.369c2.251-2.523,5.34-3.445,8.703-2.604c5.915,1.486,8.905,6.385,12.369,12.057
					c4.547,7.446,10.774,17.645,27.253,25.865c28.399,14.167,39.268,17.544,39.374,17.576l4.603,1.402l-2.213,4.271
					c-0.394,0.759-9.806,18.686-22.997,28.91c-7.982,6.188-17.858,9.541-23.035,10.989
					C443.122,513.461,436.918,515.063,432.126,515.063z M431.906,507.575L431.906,507.575L431.906,507.575z M431.521,507.089
					c4.432,0.339,21.368-3.339,31.986-11.568c8.262-6.404,15.119-16.661,18.511-22.28c-5.698-2.195-16.977-6.935-35.947-16.398
					c-18.537-9.247-25.742-21.046-30.51-28.854c-3.121-5.11-4.872-7.809-7.491-8.466c-0.517-0.13-0.568-0.072-0.786,0.172
					c-3.54,3.965-2.523,22.519,1.875,34.229C419.341,481.029,428.521,502.824,431.521,507.089z"/>
			</g>
		</g>
		<g>
			<g>
				<path fill="#F15B52" d="M729.042,494.515c0,44.975-36.456,81.429-81.431,81.429c-44.97,0-81.431-36.454-81.431-81.429
					c0-44.97,36.461-81.431,81.431-81.431C692.586,413.084,729.042,449.545,729.042,494.515"/>
				<path fill="#FFFFFF" d="M686.419,527.986l-32.415-78.006c-0.924-2.252-2.774-3.442-5.021-3.442c-2.249,0-4.233,1.19-5.159,3.442
					l-35.576,85.563h12.171l14.082-35.28l42.028,33.955c1.692,1.367,2.91,1.986,4.496,1.986c3.173,0,5.95-2.382,5.95-5.817
					C686.974,529.827,686.776,528.94,686.419,527.986 M648.983,463.994l21.075,52.01l-31.831-25.072L648.983,463.994
					L648.983,463.994z"/>
			</g>
			<path d="M648,580.015c-47.145,0-85.5-38.355-85.5-85.5s38.355-85.5,85.5-85.5s85.5,38.355,85.5,85.5S695.145,580.015,648,580.015
				z M648,418.015c-42.183,0-76.5,34.317-76.5,76.5s34.317,76.5,76.5,76.5s76.5-34.317,76.5-76.5S690.183,418.015,648,418.015z"/>
		</g>
		<path fill="#ABD9F3" d="M405,646.614c0,0,35.118,53.983,81,54.88c45,0.88,90-27,126-45s99-27.88,99-27.88s-36-8.12-99,9.88
			s-90,36-126,36S405,646.614,405,646.614z"/>
	</g>
</g>
</svg>
