<?xml version="1.0" encoding="UTF-8" standalone="no"?>
<svg
   width="213.58578"
   height="213.58578"
   id="community-logo"
   viewBox="0 0 213.58578 213.58578"
   version="1.1"
   sodipodi:docname="community_logo.svg"
   inkscape:version="1.3 (0e150ed6c4, 2023-07-21)"
   xmlns:inkscape="http://www.inkscape.org/namespaces/inkscape"
   xmlns:sodipodi="http://sodipodi.sourceforge.net/DTD/sodipodi-0.dtd"
   xmlns="http://www.w3.org/2000/svg"
   xmlns:svg="http://www.w3.org/2000/svg">
  <defs
     id="defs2" />
  <sodipodi:namedview
     id="namedview2"
     pagecolor="#ffffff"
     bordercolor="#111111"
     borderopacity="1"
     inkscape:showpageshadow="0"
     inkscape:pageopacity="0"
     inkscape:pagecheckerboard="1"
     inkscape:deskcolor="#d1d1d1"
     inkscape:zoom="2.5766667"
     inkscape:cx="103.62225"
     inkscape:cy="103.8163"
     inkscape:window-width="1920"
     inkscape:window-height="979"
     inkscape:window-x="0"
     inkscape:window-y="0"
     inkscape:window-maximized="1"
     inkscape:current-layer="community-logo" />
  <title
     id="title1">Ansible-Mark-RGB</title>
  <path
     d="M 213.58578,106.79288 A 106.79289,106.79289 0 1 1 106.79289,1.5751821e-7 106.78709,106.78709 0 0 1 213.58578,106.79288"
     fill="#5bbdbf"
     id="path1" />
  <path
     d="m 108.5922,66.76582 27.63843,68.20864 -41.74528,-32.8803 z m 49.09554,83.922 -42.5103,-102.3007 a 6.85642,6.85642 0 0 0 -6.58524,-4.51358 7.08778,7.08778 0 0 0 -6.76578,4.51358 L 55.16975,160.59936 H 71.131 l 18.46744,-46.268 55.11772,44.52993 c 2.21855,1.79319 3.81589,2.60411 5.89673,2.60411 a 7.62418,7.62418 0 0 0 7.80314,-7.62872 10.11356,10.11356 0 0 0 -0.72829,-3.1488"
     fill="#ffffff"
     id="path2" />
</svg>
