<svg id="Layer_1" data-name="Layer 1" xmlns="http://www.w3.org/2000/svg" viewBox="0 0 143.88 248.9"><defs><style>.cls-1{fill:#fdbb49;}.cls-2,.cls-7{fill:#565656;}.cls-3{fill:#1169b3;}.cls-4{fill:#abd7f1;}.cls-5{fill:#4d8bc8;}.cls-13,.cls-6,.cls-9{fill:none;}.cls-13,.cls-14,.cls-15,.cls-16,.cls-6,.cls-7,.cls-9{stroke:#010101;stroke-miterlimit:10;}.cls-6{stroke-width:1.71px;}.cls-13,.cls-7{stroke-linecap:round;}.cls-13,.cls-14,.cls-15,.cls-16,.cls-7,.cls-9{stroke-width:1.67px;}.cls-15,.cls-8{fill:#323133;}.cls-10{fill:#faf4ed;}.cls-11,.cls-14{fill:#f6bdc0;}.cls-12{fill:#010101;}.cls-16{fill:#f15b52;}.cls-17{fill:#fff;}.cls-18{fill:#fdf6ef;}.cls-19{fill:#de9098;}.cls-20{fill:#787878;}.cls-21{fill:#1e1e1e;}</style></defs><path class="cls-1" d="M130.78,3.41a4.24,4.24,0,0,1,2,.31,4.55,4.55,0,0,1,1.95,2.9,46.51,46.51,0,0,1,1.71,7.08c.44,2.68.61,5.56-.65,8a4.18,4.18,0,0,1-1.17,1.46,5,5,0,0,1-2.05.75,15.7,15.7,0,0,1-5.34,0A4.32,4.32,0,0,1,125,23a4.46,4.46,0,0,1-1.08-1.89,32.65,32.65,0,0,1-1.48-10.06c0-1.33-.49-3.73.53-4.7a15,15,0,0,1,2.54-2C127,3.52,129.11,3.45,130.78,3.41Z" transform="translate(-58.93 -2.56)"/><path class="cls-2" d="M169.17,114.4a39,39,0,0,0-9.65-.93l-60.8-.85a17.8,17.8,0,0,0-7.09.85c-2.68,1.1-4.68,3.45-7.3,4.68-1.21.58-2.7,1.08-3.08,2.36a3.78,3.78,0,0,0-.09,1.26,42.55,42.55,0,0,0,4.51,17.51,29.77,29.77,0,0,0,12.55,12.8c8.19,4.18,17.87,3.69,27,3.09l28.6-1.85a104.68,104.68,0,0,0,13.23-1.41c2.18-.42,4.56-1.12,5.74-3a8.88,8.88,0,0,0,1-3.41l3.06-19.9c.43-2.75,1.1-5-.75-7.19A13.85,13.85,0,0,0,169.17,114.4Z" transform="translate(-58.93 -2.56)"/><polygon class="cls-3" points="106.19 140.38 106.19 192.26 69.32 197.73 69.32 145.84 106.19 140.38"/><polygon class="cls-4" points="106.19 140.38 69.32 145.84 34.5 139.01 72.06 132.87 106.19 140.38"/><polygon class="cls-5" points="69.32 145.84 69.32 197.73 34.5 192.26 34.5 139.01 69.32 145.84"/><polyline class="cls-6" points="69.32 197.73 34.5 192.26 34.5 139.01"/><polyline class="cls-6" points="106.19 140.38 106.19 192.26 69.32 197.73 69.32 145.84"/><polygon class="cls-6" points="34.5 139.01 72.06 132.87 106.19 140.38 69.32 145.84 34.5 139.01"/><path class="cls-7" d="M93.46,139.41c-2.67,18.08,14.06,30.12,14.06,30.12-71.62-15.39-25.44-52.21-25.44-52.21" transform="translate(-58.93 -2.56)"/><path class="cls-7" d="M176.54,115.31s46.19,36.82-25.44,52.22c0,0,16.74-9.38,14.06-27.45" transform="translate(-58.93 -2.56)"/><path class="cls-8" d="M162.2,123.92s26.53,19.64,3.31,39.73c0,0,48.37-13.7,12.57-46.81Z" transform="translate(-58.93 -2.56)"/><path class="cls-8" d="M190.16,64.48c.23,2.79-2.82,5.35-6.92,5.91l-.66.06-.61.24A80.32,80.32,0,0,0,177.42,61a10.7,10.7,0,0,1,4.31-1.23C186.15,59.42,189.93,61.52,190.16,64.48Z" transform="translate(-58.93 -2.56)"/><path class="cls-8" d="M93.46,125.47s73.24-2.36,79,10.57L176,132.4l-8.52-10.27Z" transform="translate(-58.93 -2.56)"/><path class="cls-2" d="M177.42,61A80.32,80.32,0,0,1,182,70.69a73.47,73.47,0,0,1,5,29.18,23.07,23.07,0,0,1-1.14,7.26,19.6,19.6,0,0,1-5.62,7.67c-11.43,10.19-28,11.59-43.31,11.87-13.56.25-27.17,0-40.59-2-4.88-.73-9.85-1.74-14-4.38C65.63,109.74,71.68,86,78.36,69.82c.8-1.95,1.62-3.79,2.4-5.48.61-1.3,1.25-2.62,1.92-3.93.13-.27.27-.53.41-.79h0l.51.68,2.79,3.8a5.79,5.79,0,0,0,4.76,2.35H169.1a5.76,5.76,0,0,0,4.76-2.35l3-4.08C177.05,60.35,177.24,60.68,177.42,61Z" transform="translate(-58.93 -2.56)"/><path class="cls-1" d="M179.18,49.16a4,4,0,0,1,1.43,5.78L176.86,60l-3,4.08a5.76,5.76,0,0,1-4.76,2.35H91.15a5.79,5.79,0,0,1-4.76-2.35L83.6,60.3l-.51-.68-3.44-4.68a4,4,0,0,1,1.42-5.78l5.87-3.51.35,0-.15,3.56a2.52,2.52,0,0,0,2.45,2.45l24.12,2.11,1.17.1L128,55a25.1,25.1,0,0,0,4.42,0L145,53.93l1.65-.14,24.07-2.11a2.57,2.57,0,0,0,2.5-2.49l-.15-3.53h.22Z" transform="translate(-58.93 -2.56)"/><path class="cls-1" d="M173.24,49.19a2.57,2.57,0,0,1-2.5,2.49l-24.07,2.11,0-.45-2.15-20.8L139.7,8.21l.48-.09c18.38,2,31.27,13.82,32.6,30.5l.31,7Z" transform="translate(-58.93 -2.56)"/><path class="cls-1" d="M146.63,53.34l0,.45-1.65.14L132.4,55A25.1,25.1,0,0,1,128,55l-13.1-1.15-1.17-.1,0-.45,2.15-20.8h28.58Z" transform="translate(-58.93 -2.56)"/><polygon class="cls-1" points="80.78 5.65 85.55 29.98 76.65 29.98 74.65 2.22 75.05 2.19 80.15 2.47 80.78 5.65"/><polygon class="cls-1" points="67.87 2.21 65.87 29.98 56.97 29.98 61.83 5.73 61.87 5.5 62.37 2.47 67.58 2.19 67.87 2.21"/><path class="cls-8" d="M86.1,122.23s64.06,5.61,69.57-7,14-27.49-8.33-48.79l23.81-.34,5.79-6s20.47,40.16,3.15,55.13c0,0-13.83,12-40.39,11.51S92.13,126.08,86.1,122.23Z" transform="translate(-58.93 -2.56)"/><polygon class="cls-8" points="32.17 63.85 95.56 72.72 92.02 63.85 32.17 63.85"/><path class="cls-1" d="M120.75,8.29,115.9,32.54l-2.15,20.8,0,.45L89.59,51.68a2.52,2.52,0,0,1-2.45-2.45l.15-3.56.31-7.05c1.51-16,14.13-28.39,32.42-30.48Z" transform="translate(-58.93 -2.56)"/><path class="cls-8" d="M82.43,60.27l.25.14C82,61.72,81.37,63,80.76,64.34c-.78,1.69-1.6,3.53-2.4,5.48l-1,0c-4.42-.3-7.84-2.94-7.64-5.89s4-5.1,8.39-4.79A11.2,11.2,0,0,1,82.43,60.27Z" transform="translate(-58.93 -2.56)"/><path class="cls-9" d="M176.86,60c.19.33.38.66.56,1A80.32,80.32,0,0,1,182,70.69a73.47,73.47,0,0,1,5,29.18,23.07,23.07,0,0,1-1.14,7.26,19.6,19.6,0,0,1-5.62,7.67c-11.43,10.19-28,11.59-43.31,11.87-13.56.25-27.17,0-40.59-2-4.88-.73-9.85-1.74-14-4.38C65.63,109.74,71.68,86,78.36,69.82c.8-1.95,1.62-3.79,2.4-5.48.61-1.3,1.25-2.62,1.92-3.93.13-.27.27-.53.41-.79" transform="translate(-58.93 -2.56)"/><path class="cls-9" d="M176.77,61.38a5.79,5.79,0,0,1,.65-.37,10.7,10.7,0,0,1,4.31-1.23c4.42-.36,8.2,1.74,8.43,4.7.23,2.79-2.82,5.35-6.92,5.91l-.66.06" transform="translate(-58.93 -2.56)"/><path class="cls-9" d="M77.36,69.78c-4.42-.3-7.84-2.94-7.64-5.89s4-5.1,8.39-4.79a11.2,11.2,0,0,1,4.32,1.17" transform="translate(-58.93 -2.56)"/><path class="cls-9" d="M140.18,8.12c18.38,2,31.27,13.82,32.6,30.5l.31,7,.15,3.53a2.57,2.57,0,0,1-2.5,2.49l-24.07,2.11-1.65.14L132.4,55A25.1,25.1,0,0,1,128,55l-13.1-1.15-1.17-.1L89.59,51.68a2.52,2.52,0,0,1-2.45-2.45l.15-3.56.31-7.05c1.51-16,14.8-28.39,33.09-30.48" transform="translate(-58.93 -2.56)"/><path class="cls-9" d="M113.75,53.34" transform="translate(-58.93 -2.56)"/><path class="cls-9" d="M115.9,32.54" transform="translate(-58.93 -2.56)"/><path class="cls-9" d="M144.48,32.54" transform="translate(-58.93 -2.56)"/><path class="cls-9" d="M146.63,53.34" transform="translate(-58.93 -2.56)"/><polyline class="cls-9" points="65.87 29.98 56.97 29.98 61.83 5.73 61.87 5.5 62.37 2.47 67.58 1.52 71.2 0.85 75.05 1.52 80.15 2.47 80.78 5.65 85.55 29.98 76.65 29.98"/><path class="cls-9" d="M130.65,66.45H169.1a5.76,5.76,0,0,0,4.76-2.35l3-4.08,3.75-5.08a4,4,0,0,0-1.43-5.78l-5.87-3.51" transform="translate(-58.93 -2.56)"/><path class="cls-9" d="M130.65,66.45H91.15a5.79,5.79,0,0,1-4.76-2.35L83.6,60.3l-.51-.68-3.44-4.68a4,4,0,0,1,1.42-5.78l5.87-3.51" transform="translate(-58.93 -2.56)"/><path class="cls-10" d="M180.75,22c.43,2.8-5.61,13.31-7.73,15.08,0,0-6.69.07-10-9,0,0,10.29-1.58,15.58-7.67C178.59,20.42,180.31,19.2,180.75,22Z" transform="translate(-58.93 -2.56)"/><path class="cls-9" d="M163,28.09s10.29-1.58,15.58-7.67c0,0,1.72-1.22,2.16,1.59S175.14,35.32,173,37.09C173,37.09,166.33,37.16,163,28.09Z" transform="translate(-58.93 -2.56)"/><ellipse class="cls-11" cx="27.17" cy="91.33" rx="9.37" ry="7.36"/><ellipse class="cls-11" cx="113.52" cy="91.33" rx="9.37" ry="7.36"/><circle class="cls-12" cx="40.23" cy="77.28" r="9.04"/><circle class="cls-10" cx="43.24" cy="73.6" r="2.68"/><circle class="cls-12" cx="100.47" cy="77.28" r="9.04"/><circle class="cls-10" cx="103.48" cy="73.6" r="2.68"/><path class="cls-13" d="M165.09,73.73A13.15,13.15,0,0,0,169.44,72" transform="translate(-58.93 -2.56)"/><ellipse class="cls-14" cx="70.35" cy="102.38" rx="31.8" ry="20.42"/><path class="cls-13" d="M93.37,73.73A13.07,13.07,0,0,1,89,72" transform="translate(-58.93 -2.56)"/><ellipse class="cls-12" cx="117.9" cy="97.58" rx="4.64" ry="2.83" transform="translate(-80.89 32.89) rotate(-15.66)"/><ellipse class="cls-12" cx="142.66" cy="97.58" rx="2.83" ry="4.64" transform="translate(-48.73 206.04) rotate(-74.34)"/><path class="cls-15" d="M184.26,122.29s6.38-2.29,7.72-7h4s-3,11.67-8.21,11.86Z" transform="translate(-58.93 -2.56)"/><path class="cls-15" d="M198.37,99.74c-1.29,4.75-6.82,6.92-7.77,11.7-.42,2.12.49,5.1,2.67,5.83,1.58.53,3.63,1,5.22.22,3.22-1.5,3.41-6.42,3.48-9.43C202,105.46,201.37,100.76,198.37,99.74Z" transform="translate(-58.93 -2.56)"/><path class="cls-16" d="M151.56,33.35a21.44,21.44,0,1,1-21.44-21.44,21.43,21.43,0,0,1,21.44,21.44" transform="translate(-58.93 -2.56)"/><path class="cls-17" d="M130.49,25.31,136,39l-8.38-6.61Zm9.85,16.85-8.53-20.54a1.38,1.38,0,0,0-1.32-.9,1.41,1.41,0,0,0-1.36.9l-9.37,22.53H123l3.71-9.29,11.07,8.94a1.77,1.77,0,0,0,1.18.52,1.53,1.53,0,0,0,1.57-1.53,1.86,1.86,0,0,0-.15-.63" transform="translate(-58.93 -2.56)"/><path class="cls-18" d="M110.29,13S88.08,22.91,90,48.14l4.71.9S92.67,27.82,110.29,13Z" transform="translate(-58.93 -2.56)"/><path class="cls-10" d="M81.05,20.16c5.54,5.85,15.9,7,15.9,7-2.92,9.2-9.62,9.41-9.62,9.41C85.14,34.89,78.65,24.65,79,21.84S81.05,20.16,81.05,20.16Z" transform="translate(-58.93 -2.56)"/><path class="cls-9" d="M97,27.15s-10.36-1.14-15.9-7c0,0-1.78-1.15-2.09,1.68s6.18,13.05,8.37,14.72C87.33,36.56,94,36.35,97,27.15Z" transform="translate(-58.93 -2.56)"/><path class="cls-19" d="M114.3,123s54.76-.63,33.54-34.58c0,0,12.33,5.6,13.23,14.27s-4.67,17.29-21.57,21.64C139.5,124.28,123.33,127.52,114.3,123Z" transform="translate(-58.93 -2.56)"/><path class="cls-18" d="M127.5,85.42s-24.63-.36-29.31,17.22C98.19,102.64,106.06,89.25,127.5,85.42Z" transform="translate(-58.93 -2.56)"/><ellipse class="cls-9" cx="70.35" cy="102.38" rx="31.8" ry="20.42"/><path class="cls-18" d="M80,91.86a3,3,0,0,1,.24-.38l.12-.17c.06-.07-.12.15,0,0a.39.39,0,0,1,.08-.1,5,5,0,0,1,.61-.61l.16-.14c.07-.06-.15.12,0,0l.08-.06.37-.25L82,90,82.2,90l0,0,.12,0a.84.84,0,0,0,.47-.36.79.79,0,0,0-.89-1.16,6.25,6.25,0,0,0-3.18,2.66.79.79,0,0,0,1.36.8Z" transform="translate(-58.93 -2.56)"/><path class="cls-18" d="M166.65,91.88l.14-.2c.06-.08,0,0,0,0l.07-.1c.1-.12.2-.23.31-.34l.35-.33.17-.14c.08-.06-.14.11,0,0l.1-.08a5.62,5.62,0,0,1,.79-.46l.19-.09c-.21.11,0,0,.08,0l.46-.15a.79.79,0,0,0,.55-1,.81.81,0,0,0-1-.55,6.37,6.37,0,0,0-3.56,2.56.8.8,0,0,0,.28,1.08.81.81,0,0,0,1.08-.28Z" transform="translate(-58.93 -2.56)"/><path class="cls-20" d="M79.73,119.41s-25.54,21.25-2.56,39.06C77.17,158.47,60.1,143.66,79.73,119.41Z" transform="translate(-58.93 -2.56)"/><path class="cls-13" d="M93.46,139.41c-2.67,18.08,14.06,30.12,14.06,30.12-71.62-15.39-27-50.63-27-50.63" transform="translate(-58.93 -2.56)"/><path class="cls-13" d="M178.11,116.89s44.62,35.24-27,50.64c0,0,16.74-9.38,14.06-27.45" transform="translate(-58.93 -2.56)"/><path class="cls-15" d="M154.72,174.64c3.87-3,5.26-7.31,2.75-10.58s-7.69-3.53-11.55-.56c-3,2.32-4.54,5.49-3.84,8.33.19.78,4.71-.76,5.25-.05s-2.75,3.74-1.86,4.18A8.94,8.94,0,0,0,154.72,174.64Z" transform="translate(-58.93 -2.56)"/><path class="cls-15" d="M103.94,175.94c-3.87-3-5.26-7.31-2.75-10.59s7.68-3.52,11.55-.56c3,2.32,4.53,5.49,3.84,8.33-.19.79-4.71-.75-5.25,0s2.74,3.73,1.86,4.17A9,9,0,0,1,103.94,175.94Z" transform="translate(-58.93 -2.56)"/><path class="cls-15" d="M94.62,168.64c4.51,11.09,1.89,21.85-7.51,25.67s-20.68-2.07-25.19-13.17c-3.63-8.92-2.65-17.62,2.77-22.68,1.32-1.23,5,2.57,6.88,1.83s1.36-5.89,3.15-6C82.73,154,90.93,159.57,94.62,168.64Z" transform="translate(-58.93 -2.56)"/><path class="cls-21" d="M69.59,191.34s24.34,5.15,26.07-19.72C95.66,171.62,102.42,206.81,69.59,191.34Z" transform="translate(-58.93 -2.56)"/><path class="cls-9" d="M94.62,168.64c4.51,11.09,1.89,21.85-7.51,25.67s-20.68-2.07-25.19-13.17c-3.63-8.92-2.65-17.62,2.77-22.68,1.32-1.23,5,2.57,6.88,1.83s1.36-5.89,3.15-6C82.73,154,90.93,159.57,94.62,168.64Z" transform="translate(-58.93 -2.56)"/><path class="cls-15" d="M163.7,166.37c-6,10.37-5.06,21.56,3.73,26.63s20.77.78,26.76-9.59c4.68-8.13,5.13-16.74.89-22.54-1.18-1.6-5.8,1.19-7.7.09-2.18-1.26-1.47-6.12-3.9-6.28C176.1,154.2,168.2,158.57,163.7,166.37Z" transform="translate(-58.93 -2.56)"/><path class="cls-21" d="M167.49,193.2s24.92.14,29.78-27.89C197.27,165.31,200.56,201.07,167.49,193.2Z" transform="translate(-58.93 -2.56)"/><path class="cls-9" d="M163.7,166.37c-6,10.37-5.06,21.56,3.73,26.63s20.77.78,26.76-9.59c4.68-8.13,5.13-16.74.89-22.54-1.18-1.6-5.8,1.19-7.7.09-2.18-1.26-1.47-6.12-3.9-6.28C176.1,154.2,168.2,158.57,163.7,166.37Z" transform="translate(-58.93 -2.56)"/><path class="cls-12" d="M79.64,226.79H70.93l-1.45,3.15H64.7L72,215.42a2,2,0,0,1,1.79-1.11h3.07a2,2,0,0,1,1.79,1.11l7.24,14.52H81.1ZM78.32,224l-2-4.29c-.24-.55-.75-1.87-1-2.68h0c-.26.81-.77,2.13-1,2.68l-2,4.29Z" transform="translate(-58.93 -2.56)"/><path class="cls-12" d="M90.56,214.31h2.72l8.17,8.87a8.69,8.69,0,0,1,1.23,1.78h.09V214.31h4v13.62a2,2,0,0,1-2,2h-2.42l-8.47-9a8.14,8.14,0,0,1-1.23-1.78h-.09v10.76h-4V216.32A2,2,0,0,1,90.56,214.31Z" transform="translate(-58.93 -2.56)"/><path class="cls-12" d="M109.23,226.48l3.17-2.22c1.3,1.83,3.7,3.06,6.91,3.06,2.84,0,4.16-.57,4.16-1.81,0-1-.66-1.36-2.53-1.56l-4.8-.53c-3.83-.41-5.65-1.82-5.65-4.71,0-3.1,3-4.92,8.36-4.92,4,0,7,1,9,3.21l-2.8,2.35c-1.17-1.54-3.41-2.48-6.4-2.48-2.42,0-3.74.57-3.74,1.62s.66,1.35,2.66,1.57l4.31.42c4.31.43,6.1,1.71,6.1,4.62,0,3.45-3.24,5.36-8.87,5.36C114.47,230.46,110.84,229,109.23,226.48Z" transform="translate(-58.93 -2.56)"/><path class="cls-12" d="M131.12,229.94V214.31h4.45v15.63Z" transform="translate(-58.93 -2.56)"/><path class="cls-12" d="M158,225.49c0,2.29-1.56,4.45-5.87,4.45H142a2,2,0,0,1-2-2V216.31a2,2,0,0,1,2-2h10c3.87,0,5.57,1.72,5.57,4a3.48,3.48,0,0,1-3.08,3.46C156.86,222.08,158,223.44,158,225.49Zm-13.48-8.27v3.41h6.29c1.82,0,2.2-.93,2.2-1.81s-.44-1.6-2.2-1.6Zm8.89,7.92c0-1.08-.73-1.83-2.38-1.83h-6.51V227H151C152.66,227,153.37,226.22,153.37,225.14Z" transform="translate(-58.93 -2.56)"/><path class="cls-12" d="M161.37,214.31h4.45v12.15H176.4v3.48h-13a2,2,0,0,1-2-2Z" transform="translate(-58.93 -2.56)"/><path class="cls-12" d="M195.41,226.83v1.11a2,2,0,0,1-2,2H181.48a2,2,0,0,1-2-2V216.31a2,2,0,0,1,2-2h11.77a2,2,0,0,1,2,2v1.11H183.92v3.14h8v2.91h-8v3.36Z" transform="translate(-58.93 -2.56)"/><path class="cls-12" d="M84.44,246.49c0,2.29-1.56,4.45-5.87,4.45H68.51a2,2,0,0,1-2-2V237.31a2,2,0,0,1,2-2h10c3.87,0,5.56,1.72,5.56,4A3.47,3.47,0,0,1,81,242.73C83.34,243.08,84.44,244.44,84.44,246.49ZM71,238.22v3.41h6.29c1.83,0,2.21-.93,2.21-1.81s-.44-1.6-2.21-1.6Zm8.89,7.92c0-1.08-.72-1.83-2.37-1.83H71V248h6.49C79.14,248,79.84,247.22,79.84,246.14Z" transform="translate(-58.93 -2.56)"/><path class="cls-12" d="M91.59,235.31v8.17c0,2.64,1.67,4.51,4.75,4.51s4.73-1.89,4.73-4.51v-8.17h4.45v8.63c0,4.49-3.28,7.52-9.18,7.52s-9.2-3.05-9.2-7.57v-8.58Z" transform="translate(-58.93 -2.56)"/><path class="cls-12" d="M109.36,250.94V235.31h4.45v15.63Z" transform="translate(-58.93 -2.56)"/><path class="cls-12" d="M118.27,235.31h4.45v12.15H133.3v3.48h-13a2,2,0,0,1-2-2Z" transform="translate(-58.93 -2.56)"/><path class="cls-12" d="M136.38,237.32a2,2,0,0,1,2-2h7.92c5.75,0,9.42,2.67,9.42,7.55s-3.89,8.08-9.48,8.08h-7.86a2,2,0,0,1-2-2Zm9.28,10.6c3.35,0,5.4-1.85,5.4-5s-2.23-4.6-5.44-4.6h-4.8v9.59Z" transform="translate(-58.93 -2.56)"/><path class="cls-12" d="M174.58,247.83v1.11a2,2,0,0,1-2,2H160.64a2,2,0,0,1-2-2V237.31a2,2,0,0,1,2-2h11.78a2,2,0,0,1,2,2v1.11H163.09v3.14h8v2.91h-8v3.36Z" transform="translate(-58.93 -2.56)"/><path class="cls-12" d="M187.44,245.41h-4.55v5.53h-4.45V237.31a2,2,0,0,1,2-2h8.65c5,0,6.47,2.58,6.47,4.95a4.71,4.71,0,0,1-3.52,4.63l4.09,6.05h-5Zm-4.55-2.84h5.19c2.16,0,2.79-1.07,2.79-2.17s-.63-2.12-2.77-2.12h-5.21Z" transform="translate(-58.93 -2.56)"/></svg>