<svg width="144" height="249" id="runner-logo" data-name="Layer 1" xmlns="http://www.w3.org/2000/svg" xmlns:xlink="http://www.w3.org/1999/xlink" viewBox="0 0 249.46 237.23"><defs><style>.cls-1,.cls-6{fill:none;}.cls-2,.cls-8{fill:#4d8dcb;}.cls-2,.cls-3,.cls-40,.cls-41,.cls-6,.cls-7{stroke:#401f0f;}.cls-10,.cls-2,.cls-3,.cls-37,.cls-40,.cls-41,.cls-6,.cls-7,.cls-9{stroke-miterlimit:10;}.cls-2,.cls-3,.cls-40{stroke-width:1.56px;}.cls-3,.cls-41{fill:#f7eaa7;}.cls-4{fill:#fdbb49;}.cls-5{fill:#1969b3;}.cls-10,.cls-37,.cls-41,.cls-6,.cls-7,.cls-9{stroke-width:2.5px;}.cls-10,.cls-7{fill:#b6d8f1;}.cls-38,.cls-9{fill:#fdf6ef;}.cls-37,.cls-9{stroke:#3b1f13;}.cls-10{stroke:#4d8dcb;opacity:0.6;}.cls-11{clip-path:url(#clip-path);}.cls-12{fill:#323233;}.cls-13{fill:#565656;}.cls-14{fill:#080909;}.cls-15{fill:#010101;}.cls-16{fill:#010201;}.cls-17{fill:#030303;}.cls-18{fill:#bbb9b9;}.cls-19{fill:#b8b5b5;}.cls-20{fill:#c3c0c0;}.cls-21{fill:#fff;}.cls-22{fill:#080808;}.cls-23{fill:#232222;}.cls-24{fill:#282828;}.cls-25{fill:#484848;}.cls-26{fill:#393a3a;}.cls-27{fill:#969292;}.cls-28{fill:#928e8e;}.cls-29{fill:#dddedd;}.cls-30{fill:#fdfdfc;}.cls-31{fill:#4a4949;}.cls-32{fill:#fefefe;}.cls-33{fill:#fffffe;}.cls-34{fill:#fbfbfa;}.cls-35{fill:#fcfbfb;}.cls-36{fill:#faf9f9;}.cls-37{fill:#ef5d54;}.cls-39{fill:#f15b52;}.cls-40{fill:#401f0f;}.cls-42{fill:#441e0d;}</style><clipPath id="clip-path" transform="translate(-2.6 -10.9)"><path class="cls-1" d="M125.89,6.53C80.32,6.61,44.72,41.2,44.81,94.88c0,10,37,18,82.54,18s82.49-8.23,82.48-18.22C209.74,40.92,171.46,6.45,125.89,6.53Z"/></clipPath></defs><path class="cls-2" d="M126.86,127.64,22,127.81s35.33,48.95,105,66c69.61-17.31,104.77-66.37,104.77-66.37Z" transform="translate(-2.6 -10.9)"/><path class="cls-3" d="M148.15,170.12c.06,6.84-8.77,12.46-19.73,12.56s-19.89-5.36-20-12.19,8.77-12.45,19.74-12.56S148.09,163.3,148.15,170.12Z" transform="translate(-2.6 -10.9)"/><path class="cls-4" d="M147.23,170.08a8.29,8.29,0,0,0-1.89-5,6.93,6.93,0,0,1,.87,3.18c0,5.57-7.14,10.15-16.07,10.23s-16.21-4.37-16.27-9.94c-.05-4.85,5.39-8.94,12.69-10-9.66.61-17.2,5.74-17.14,11.9.07,6.51,8.58,11.7,19,11.61S147.29,176.59,147.23,170.08Z" transform="translate(-2.6 -10.9)"/><path class="cls-5" d="M127.17,193s32.73-22.57,3.39-48.79l101.59-16.07S191.68,177.92,127.17,193Z" transform="translate(-2.6 -10.9)"/><path class="cls-6" d="M22.49,127.44s35.33,49.94,105,67c69.61-17.31,105.7-68,105.7-68" transform="translate(-2.6 -10.9)"/><path class="cls-7" d="M250.81,108.19c0,19.42-55.22,35.26-123.41,35.37S3.88,128,3.85,108.61,59.08,73.36,127.28,73.24,250.78,88.78,250.81,108.19Z" transform="translate(-2.6 -10.9)"/><path class="cls-1" d="M247.92,107.05c0,18.52-53.93,33.63-120.53,33.74S6.78,126,6.74,107.45,60.68,73.82,127.28,73.71,247.88,88.52,247.92,107.05Z" transform="translate(-2.6 -10.9)"/><path class="cls-8" d="M127.51,74.07c-34.47.06-65.77,4.12-88,10.54C58.22,81,81,79.07,105.27,79c64.39-.1,116.63,14.55,116.66,32.74,0,12.71-25.75,24.2-63.07,29.76,52.18-4,91-17.27,91.18-33.31C250.31,89.45,195,74,127.51,74.07Z" transform="translate(-2.6 -10.9)"/><path class="cls-9" d="M209.83,100.22c0,10-36.92,18.15-82.48,18.23s-82.52-8-82.54-18,36.91-18.15,82.48-18.22S209.81,90.24,209.83,100.22Z" transform="translate(-2.6 -10.9)"/><path class="cls-8" d="M199.24,100.24c0,7.72-32.18,14-71.9,14.1S55.41,108.2,55.4,100.48s32.18-14,71.89-14.09S199.23,92.53,199.24,100.24Z" transform="translate(-2.6 -10.9)"/><path class="cls-10" d="M125.89,12.15c-45.57.07-81.17,34.67-81.08,88.35,0,10,37,18,82.54,18s82.49-8.23,82.48-18.23C209.74,46.54,171.46,12.07,125.89,12.15Z" transform="translate(-2.6 -10.9)"/><g class="cls-11"><path class="cls-12" d="M100.87,71a4.31,4.31,0,0,0,.39-.46,24.86,24.86,0,0,1,5.56-5.88.79.79,0,0,0,.33-1c-.13-.46-.16-1-.25-1.44-.05-.22,0-.5-.23-.64,0-.26.18-.35.3-.49.4-.49.34-.89-.22-1.19a5.09,5.09,0,0,0-2.62-.46,14.7,14.7,0,0,0-5.69,1.2,3.7,3.7,0,0,0-1.36.91c-.4.46-.35.81.14,1.17.16.12.45.15.39.46h-.06C96.8,63.08,96,62.88,95.8,62s.4-1.37,1-1.81a12.5,12.5,0,0,1,6.88-2.14,7.16,7.16,0,0,1,3.17.46c.16-.76.26-1.48.47-2.18.15-.49.05-.66-.45-.63a1.05,1.05,0,0,1-.35-.08c.29-.29.65-.17,1-.13a14.8,14.8,0,0,0,3.82.08,5.8,5.8,0,0,0,4.6-4.61,6.91,6.91,0,0,0,.08-2.9.82.82,0,0,0-.78-.71c-.32,0-.64-.11-1-.15a.75.75,0,0,1-.64-.3,23.31,23.31,0,0,1,11.56-4.71c.28,0,.51,0,.49-.42a.54.54,0,0,1,.14-.27,3,3,0,0,1,4.35-.22,8.83,8.83,0,0,0-1.28.07,1.68,1.68,0,0,0-1.15.63c1,.09,1.87.05,2.77.13A23.36,23.36,0,0,1,142,46.38a.78.78,0,0,0,.72.19c0,.29-.24.28-.41.35a7.09,7.09,0,0,1-2.08.44.91.91,0,0,0-.85.79,6.26,6.26,0,0,0,4,7.28,7,7,0,0,0,2.9.25c.67-.07,1.35-.06,2-.18a.68.68,0,0,1,.69.14c0,1,.47,1.83.47,2.75a13,13,0,0,1,9.24,1.39,4.21,4.21,0,0,1,1.27,1,1.26,1.26,0,0,1-.46,2.14,1.78,1.78,0,0,1-.87.27c0-.3.26-.34.42-.46a.67.67,0,0,0,.14-1.13,3.45,3.45,0,0,0-1.24-.87,14.81,14.81,0,0,0-4.76-1.19,11.82,11.82,0,0,0-2.79.09,3,3,0,0,0-.59.15c-.91.35-1,.82-.33,1.52.11.11.26.2.22.4-.37.25-.14.68-.28,1-.53,1.22,0,1.94,1,2.69a21.34,21.34,0,0,1,4.67,5.13,1.46,1.46,0,0,0,.57.53,50,50,0,0,1,12.95,8.83s.07,0,.14.07a12.19,12.19,0,0,1,1.39-2.18c.94-1.13,1.64-1.28,2.92-.56.68.39,1.33.86,2,1.27,1.54.92,2.19.79,3.31-.62.1-.13.22-.24.33-.36a1.36,1.36,0,0,0,.6,0l.16,0a.69.69,0,0,1,.33.19,15.55,15.55,0,0,1-1.33,2.6c-.73,1.05-1.31,1.19-2.43.57-.55-.31-1.06-.67-1.62-1a2.69,2.69,0,0,0-3.82,1.74c-.08.31.15.4.28.55a36.33,36.33,0,0,1,6.76,11,30,30,0,0,1,2,13.09,32.18,32.18,0,0,1-6.62,17.29,41.82,41.82,0,0,1-10.23,9.72c-.23.13-.3,0-.3-.2a1.81,1.81,0,0,1,.17-.59,24.72,24.72,0,0,0,1.55-9,15.27,15.27,0,0,0-1.78-7.18,7.55,7.55,0,0,0-5.68-4.19,9.1,9.1,0,0,0-6.18,1.49,19.65,19.65,0,0,0-6.62,7.23,27.87,27.87,0,0,0-2.22,5,7.37,7.37,0,0,1-3,3.8,16.51,16.51,0,0,1-6.82,2.56,22.1,22.1,0,0,1-9.8-.59A14.08,14.08,0,0,1,117,129a6.77,6.77,0,0,1-1.68-2.15c-.69-1.34-1.28-2.73-1.91-4.1a20.56,20.56,0,0,0-7.57-9.08,9,9,0,0,0-6.35-1.46,7.44,7.44,0,0,0-5.36,3.9,14.62,14.62,0,0,0-1.83,6.1,24.54,24.54,0,0,0,1.49,10.5,1.1,1.1,0,0,1,.13.47c0,.18-.07.33-.3.2-8.07-5.62-14-12.82-16.2-22.6a29.86,29.86,0,0,1,3-21.15c3.65-6.88,9.13-12,15.71-16a38,38,0,0,1,4.67-2.49c.06.21-.1.31-.21.44-.43.44-.73,1-1.2,1.41-.25,0-.41.18-.36.47a.62.62,0,0,1-.29.4c-.34,0-.35.26-.41.5a.57.57,0,0,1-.08.13.59.59,0,0,0-.3.6,1.38,1.38,0,0,1-.41.62c-.35.12-.33.42-.34.71a6.41,6.41,0,0,1-.63,1.22c-.39.12-.34.43-.31.73a1.12,1.12,0,0,1-.18.48c-.43.16-.29.53-.3.84a1.76,1.76,0,0,1-.16.49c-.15.22-.51.38-.23.74-.18,1-.39,2-.6,3-.35.35,0,.73,0,1.1q0,1.53,0,3.06c0,.37-.31.75,0,1.11.21,1,.43,2,.61,3-.27.35.06.52.23.74a1.6,1.6,0,0,1,.16.48c0,.31-.15.68.29.84a1.1,1.1,0,0,1,.19.48c0,.3-.1.62.31.74a7,7,0,0,1,.63,1.22c0,.28,0,.59.34.71a1.36,1.36,0,0,1,.4.62.56.56,0,0,0,.29.58.38.38,0,0,1,.09.13c.07.23.06.54.43.53a.65.65,0,0,1,.28.4.35.35,0,0,0,.33.44,2.46,2.46,0,0,1,.63.77c0,.25,0,.48.37.47a2.15,2.15,0,0,1,.8.89c.15.77.34,1,1.1,1.11a2.09,2.09,0,0,1,.9.79c0,.31.19.4.46.38a.63.63,0,0,1,.31.27c.06.23.25.3.46.33a4.27,4.27,0,0,1,1,.77c0,.43.37.33.61.41,1,.56,1.91,1.18,2.88,1.74.09.36.39.36.67.38a8.12,8.12,0,0,1,1.21.62c.12.16.23.37.5.25a1,1,0,0,1,.61.25c.12.4.44.32.73.31a1,1,0,0,1,.47.17c.16.45.54.29.86.32a.58.58,0,0,1,.29.17,1.31,1.31,0,0,0,1.43.48.84.84,0,0,1,.58.1c.21.14.36.5.72.25a5.8,5.8,0,0,1,1.83.46c.21.39.51.15.79.12,1,.19,2,.28,3,.55.15.28,0,.48-.19.65a7.42,7.42,0,0,0-1.43,6.29,1,1,0,0,1,0,.48.15.15,0,0,1-.21.1l-.13-.1c0,.1.07.15.07.24a.5.5,0,0,1,0,.17c-.19.62.23,1.08.45,1.57a7.92,7.92,0,0,0,4,3.8,2.14,2.14,0,0,0,1.88.14c.75,0,1.5,0,2.25,0,2.25.33,3.66-1,5-2.51a5.91,5.91,0,0,0,1.21-2.07c.09-.3.3-.59.1-.92-.06-.15-.18-.26-.21-.41.07-.75.16-1.49.18-2.24a7,7,0,0,0-1.45-4.38c-.16-.23-.46-.42-.35-.79,1-.29,2.09-.4,3.14-.59.27,0,.57.34.78-.1a4.91,4.91,0,0,1,1.85-.47c.36.29.5-.08.71-.24a.67.67,0,0,1,.58-.1,1.27,1.27,0,0,0,1.41-.49.44.44,0,0,1,.29-.17c.31,0,.71.18.87-.3a.84.84,0,0,1,.47-.19c.29,0,.63.14.74-.3a.7.7,0,0,1,.61-.26c.26.14.38,0,.49-.23a3.42,3.42,0,0,1,1.2-.65c.28,0,.6,0,.67-.36a31.35,31.35,0,0,1,2.89-1.76c.26,0,.63.07.6-.4a2.17,2.17,0,0,1,1-.78c.23,0,.42,0,.45-.32a.44.44,0,0,1,.3-.28c.27,0,.5,0,.46-.36a1.37,1.37,0,0,1,.91-.8c.78-.1,1-.32,1.1-1.1a1.41,1.41,0,0,1,.8-.92c.35,0,.41-.16.36-.44A1.44,1.44,0,0,1,157,100c.31,0,.4-.17.35-.45a.49.49,0,0,1,.28-.4c.34,0,.4-.21.44-.47a.42.42,0,0,1,.09-.14.53.53,0,0,0,.27-.61,1,1,0,0,1,.4-.64c.4-.09.35-.39.34-.68a3.33,3.33,0,0,1,.66-1.23c.43-.11.32-.44.28-.74a.6.6,0,0,1,.19-.47c.49-.15.31-.53.29-.86a.78.78,0,0,1,.17-.48c.19-.2.54-.35.23-.71a18.16,18.16,0,0,1,.61-3c.4-.33,0-.72.06-1.08q0-1.53,0-3.06c0-.36.33-.74-.06-1.09a4.11,4.11,0,0,1-.3-2c.31-.21.5,0,.69.2a36.32,36.32,0,0,1,8.27,9.08A32.33,32.33,0,0,1,175,103.78a30.46,30.46,0,0,1,.25,6.88,34.8,34.8,0,0,1-1.09,6.25c-.15.57-.38,1.12-.58,1.67a7.44,7.44,0,0,1-.55,1.18,4.29,4.29,0,0,0,.47-1,35.56,35.56,0,0,0,2.68-8.61,30.24,30.24,0,0,0,.41-6.51,32.56,32.56,0,0,0-2.79-11.51,35.06,35.06,0,0,0-8.26-11.33,36,36,0,0,0-6-4.49,1,1,0,0,0-.39-.17c-.46-.22-.53-.69-.71-1.09a.53.53,0,0,0-.26-.62.42.42,0,0,1-.09-.14c-.07-.24-.06-.54-.45-.49a.49.49,0,0,1-.28-.39c.08-.35-.14-.45-.42-.49a6.25,6.25,0,0,1-.87-1A17,17,0,0,1,158,76a19.38,19.38,0,0,1,1,6.92,20.56,20.56,0,0,1-1.85,7.66,24,24,0,0,1-4.73,6.86A28.56,28.56,0,0,1,148,101c-.18.12-.36.28-.61.17,0-.48.35-.66.61-.92a15.18,15.18,0,0,0,4-6.84,14.11,14.11,0,0,0-2.83-12.81,17.94,17.94,0,0,0-4.5-4.19,22.92,22.92,0,0,1-4-3.43,10.72,10.72,0,0,0-6.46-3.3,12.11,12.11,0,0,0-5.31.54,2.08,2.08,0,0,1-1.35,0c-3.82-1.15-7.42-.81-10.64,1.72-.94.74-1.74,1.66-2.63,2.47A19.23,19.23,0,0,1,112,76.2a19.83,19.83,0,0,0-6.11,6.32,13.87,13.87,0,0,0-2,8,15,15,0,0,0,4.25,9.52c.32.33.83.55.84,1.12-.28.13-.48-.06-.67-.19-4.93-3.39-8.56-7.77-10.18-13.61a19.38,19.38,0,0,1,1.18-13.6,9.79,9.79,0,0,1,1.2-2.2C100.66,71.4,100.89,71.29,100.87,71Z" transform="translate(-2.6 -10.9)"/><path class="cls-13" d="M93.58,133.33c.28,0,.19-.18.13-.35a24.22,24.22,0,0,1-1.57-6.42,17.27,17.27,0,0,1,1.6-10.2,7.74,7.74,0,0,1,5.8-4.39,8.67,8.67,0,0,1,5.21.89,18.32,18.32,0,0,1,7,6.59,36.25,36.25,0,0,1,2.58,5,12.47,12.47,0,0,0,2.23,3.89,13.12,13.12,0,0,0,5.59,3.11,20.93,20.93,0,0,0,7.29.85,17.66,17.66,0,0,0,9.31-2.88,7.42,7.42,0,0,0,2.92-3.86,24.56,24.56,0,0,1,4.59-8.41,14.44,14.44,0,0,1,6.91-4.92,7.47,7.47,0,0,1,8,2,11.81,11.81,0,0,1,2.81,5.94,17.82,17.82,0,0,1,.36,4.72,27.09,27.09,0,0,1-1.65,7.9c0,.14-.34.36.07.45-.52.46-1.22.66-1.68,1.2a11.86,11.86,0,0,1-2.76,1.59.3.3,0,0,1-.3-.31c.28-.94.68-1.84,1-2.75a1.56,1.56,0,0,0,.25-.54,1.17,1.17,0,0,1,.27-.53,24.91,24.91,0,0,0,1.48-11.05,8.54,8.54,0,0,0-1-3.19,3.87,3.87,0,0,0-4.72-2,10.13,10.13,0,0,0-4.31,2.69,29.7,29.7,0,0,0-6.62,10.24A32.8,32.8,0,0,0,142,141.29c0,2.24-.23,4.47-.36,6.71-.16.44.1.85.1,1.28,0,.67-.18,1.33-.17,2,0,.2,0,.43-.3.46s-.37-.22-.41-.44a17.37,17.37,0,0,0-.77-3.26c-.13-.36-.4-.67-.38-1.08a8.35,8.35,0,0,0-2-3.05,12.79,12.79,0,0,0-21,2.87c-.11.16,0,.37-.16.53a1.69,1.69,0,0,0-.16.66,13,13,0,0,0-.75,3c0,.08,0,0,0,.06s-.08.58-.44.54-.33-.32-.34-.57c0-.41-.11-.81-.11-1.21a15.56,15.56,0,0,1-.09-1.81c.14,0,.14-.13.13-.23-.41-4.17-.11-8.41-.91-12.54a32.66,32.66,0,0,0-7.89-16.1,12.65,12.65,0,0,0-3.76-2.89,5.57,5.57,0,0,0-2.53-.63,3.75,3.75,0,0,0-3.3,2,9.34,9.34,0,0,0-1.2,4.44,26.22,26.22,0,0,0,1.59,10,1.17,1.17,0,0,1,.27.53,1.62,1.62,0,0,0,.25.53c.36.92.76,1.81,1,2.75a.31.31,0,0,1-.3.32,11.25,11.25,0,0,1-2.77-1.59C94.8,134,94.1,133.79,93.58,133.33Z" transform="translate(-2.6 -10.9)"/><path class="cls-14" d="M149,55.64c-1.34,0-2.66.25-4,.25-2.36,0-5.34-2.19-5.61-4.43a7.94,7.94,0,0,1-.09-3.66c.1-.32.21-.46.53-.52a15.27,15.27,0,0,0,2.67-.56c.09,0,.19,0,.24-.15a13.31,13.31,0,0,0,2.46-1.34,4.11,4.11,0,0,0,1.52-5.08A14.24,14.24,0,0,0,143,35l-.52-.51c.06-.09.15-.18.24-.18,1.11,0,2.2-.45,3.32-.16a.83.83,0,0,1,.49.21c.05.23-.13.25-.25.24a8.53,8.53,0,0,1-1.53-.16,13,13,0,0,1,5,7.65,7.05,7.05,0,0,0,.11,1,1.38,1.38,0,0,1,0,.29,6,6,0,0,1-1.93,4.07,1.11,1.11,0,0,1-.73.41.25.25,0,0,1-.2-.16,1.55,1.55,0,0,1,.3-.84,1.9,1.9,0,0,0,.18-1.24,7.83,7.83,0,0,1-4.2,2.8c-.38.14-.8.25-.83.77a5,5,0,0,0,1,2.76,1.85,1.85,0,0,0,1.91.68,27.38,27.38,0,0,0,6.11-1.48,14,14,0,0,0,4.28-2.42,5.52,5.52,0,0,0,1.93-3.37,4.91,4.91,0,0,0-.34-2.63,10.53,10.53,0,0,0-1.76-3.2c-.14-.17-.32-.33-.3-.58a.38.38,0,0,1,.51-.18c.45.17.36-.16.41-.38a13.85,13.85,0,0,1,4.6,8.18,4.56,4.56,0,0,1-1.24,3.94,13.56,13.56,0,0,1-5.7,3.76A27.27,27.27,0,0,1,149,55.64Z" transform="translate(-2.6 -10.9)"/><path class="cls-14" d="M113.62,46.93l2,.37c.22,0,.39.09.44.34a6.93,6.93,0,0,1-.86,5.59,6,6,0,0,1-4.83,2.65,32.78,32.78,0,0,1-3.58-.26l-.3,0C103,55,99.68,54,96.91,51.6l-.5-.45a5.23,5.23,0,0,1-1.6-5.65,14.3,14.3,0,0,1,4.4-7.1c.15.19,0,.31-.09.47.35,0,.7-.27,1,.08,0,.3-.22.47-.38.68a10,10,0,0,0-2,4.64,2.67,2.67,0,0,0,0,1.09,6.09,6.09,0,0,0,3.18,4.33,20.71,20.71,0,0,0,7.74,2.72,13.82,13.82,0,0,0,1.81.25,1.72,1.72,0,0,0,1.53-.74,5,5,0,0,0,1-2.71c0-.4-.29-.55-.59-.69-.48-.21-1-.36-1.47-.57a6.44,6.44,0,0,1-3-2.32,1.78,1.78,0,0,0,.17,1.22,1.94,1.94,0,0,1,.31.85.25.25,0,0,1-.2.17,1.13,1.13,0,0,1-.77-.44,5.92,5.92,0,0,1-1.89-4,.94.94,0,0,1,0-.29,7.18,7.18,0,0,0,.1-1,13,13,0,0,1,4.88-7.58,6.18,6.18,0,0,0-1,.07c-.23,0-.53.16-.65-.21A3,3,0,0,1,111,34.1a5.25,5.25,0,0,0,1.31.13.61.61,0,0,1,.59.24,21.88,21.88,0,0,0-3.31,3.81,8.14,8.14,0,0,0-1.13,2.62A4,4,0,0,0,110,45,13.42,13.42,0,0,0,113.62,46.93Z" transform="translate(-2.6 -10.9)"/><path class="cls-15" d="M98.23,135.78l-1.08-2.69c-.15-.14,0-.37-.19-.51a3.61,3.61,0,0,1-.07-.73,1.15,1.15,0,0,0,0-.19c0-1.86.77-2.51,2.61-2.08a8.17,8.17,0,0,1,2.36.95,35.5,35.5,0,0,1,4.69,3.28,3,3,0,0,1,1,3.59,24.58,24.58,0,0,1-2.28,4.7.55.55,0,0,1-.54.31,5.43,5.43,0,0,0-.55.06c-.38,0-.86-.07-1.11.12s0,.69-.09,1a.76.76,0,0,1-.09.28,12.34,12.34,0,0,1-1.72,2.58c-.8.88-1.13.87-1.9,0a24.9,24.9,0,0,1-2.21-3.07c-.64-1-1.27-2-1.86-3a9,9,0,0,1-.84-5,.89.89,0,0,1,.89-.91c1,.37,1.79,1,2.72,1.49C98.27,136.15,98.36,136.07,98.23,135.78Z" transform="translate(-2.6 -10.9)"/><path class="cls-15" d="M158.43,136c.93-.45,1.74-1.12,2.72-1.49a.93.93,0,0,1,.91,1,9.21,9.21,0,0,1-1,5.17,53,53,0,0,1-3.77,5.62c-.05.06-.1.13-.16.19-.72.81-1,.82-1.78.05a12,12,0,0,1-1.8-2.67,2,2,0,0,1-.09-1c0-.33-.1-.39-.41-.4-1.75-.09-1.75-.09-2.58-1.61a15.25,15.25,0,0,1-1.72-4.08,2.23,2.23,0,0,1,.43-2.23,19.21,19.21,0,0,1,7.65-5,4,4,0,0,1,.84-.15A1.53,1.53,0,0,1,159.5,131c0,.29,0,.57,0,.86a3,3,0,0,1-.07.73c-.14.14,0,.37-.19.51l-1.07,2.69Q158,136.21,158.43,136Z" transform="translate(-2.6 -10.9)"/><path class="cls-15" d="M139.72,147a9.48,9.48,0,0,1,1.21,3.66c0,.23.08.48.11.72s0,.32.2.31.18-.2.17-.34a11.55,11.55,0,0,1,.23-2.11.49.49,0,0,1,.13-.59,7.68,7.68,0,0,1,.32-.79,1.27,1.27,0,0,1,2.17-.53,5.85,5.85,0,0,1,1.93,2.47c.68,1.6,1.34,3.22,2,4.83a1.51,1.51,0,0,1-1.33,2,7.56,7.56,0,0,1-2.22-.34,1.14,1.14,0,0,0-1.1.18,4.89,4.89,0,0,1-6.33-.68,2.24,2.24,0,0,1-.57-1.56c.07-1.64.06-3.3.14-4.94a3.54,3.54,0,0,1,1-2.29C138.36,146.4,138.93,146.42,139.72,147Z" transform="translate(-2.6 -10.9)"/><path class="cls-15" d="M114.63,148a11.64,11.64,0,0,1,.35,2.75,3.85,3.85,0,0,1,0,.48c0,.13.06.26.2.27s.17-.14.19-.25c.13-.63.2-1.28.36-1.9s.38-1.06.58-1.58c-.06-.15.08-.24.09-.37s.21-.31.41-.36c1-.76,1.78-.63,2.42.46a4.07,4.07,0,0,1,.65,2.12c0,1.47,0,2.94.12,4.4a2.56,2.56,0,0,1-1,2.22,5,5,0,0,1-5.9.18,1,1,0,0,0-1-.17,8.35,8.35,0,0,1-2.16.36,1.5,1.5,0,0,1-1.43-2.07l2-4.77a6.13,6.13,0,0,1,1.79-2.36C113.29,146.56,114.08,146.77,114.63,148Z" transform="translate(-2.6 -10.9)"/><path class="cls-16" d="M178.86,77.29a5.66,5.66,0,0,1-1.78-4.87c.25.23.35.55.67.73a1.67,1.67,0,0,0,.1-.91,5,5,0,0,1,.85-3,1.31,1.31,0,0,1,1.23-.62c-.12.35-.43.6-.36,1.07a16.43,16.43,0,0,0,3.16-2,2.45,2.45,0,0,0,.69-1.33c0-.13,0-.34.16-.34s.2.2.23.37a3.26,3.26,0,0,1-.36,2c-.07.13-.29.26-.11.41s.3,0,.42-.14a4.11,4.11,0,0,0,1.37-2.57c0-.2,0-.41.06-.61s0-.32.15-.35.22.19.26.34a4.31,4.31,0,0,1-.71,3.48,9.41,9.41,0,0,1-1.46,1.64,3.67,3.67,0,0,0,1.67-.88,1.18,1.18,0,0,1-.46,1.09,4.85,4.85,0,0,1-1.6,1,3.3,3.3,0,0,0-1.66,1.86.63.63,0,0,0,0,.41c0,.2.16.44.38.42s.31-.24.29-.47v-.4a1,1,0,0,1,.35,1,5.56,5.56,0,0,1-1.82,2.94.56.56,0,0,1-.45.12.86.86,0,0,1-.63,0h0C179.26,77.56,179,77.59,178.86,77.29Z" transform="translate(-2.6 -10.9)"/><path class="cls-15" d="M97.61,63.24c-.12-.22-.36-.25-.55-.36a.79.79,0,0,1-.21-1.28,5.05,5.05,0,0,1,2.22-1.33,17.24,17.24,0,0,1,4.21-.88,11.11,11.11,0,0,1,2.89.17c.88.13,1.33.62,1.23,1.22-.07.43-.49.57-.73.86a9.94,9.94,0,0,1-4,1.51,12.82,12.82,0,0,1-4.78.18A1.31,1.31,0,0,1,97.61,63.24Z" transform="translate(-2.6 -10.9)"/><path class="cls-15" d="M149.74,61.73a.38.38,0,0,0-.11-.14c-.45-.27-.87-.58-.73-1.19s.71-.71,1.17-.83a11.29,11.29,0,0,1,4.63,0,11.8,11.8,0,0,1,4,1.37,3,3,0,0,1,.82.73.8.8,0,0,1-.23,1.16c-.2.13-.46.16-.62.37a9.18,9.18,0,0,1-3.87.12,13.6,13.6,0,0,1-4.38-1.21C150.19,62,150,61.86,149.74,61.73Z" transform="translate(-2.6 -10.9)"/><path class="cls-17" d="M112.92,34.47c-1.27.07-2.51-.5-3.78-.13a2.21,2.21,0,0,0-.27.12c-.08.24-.3.24-.49.3a21,21,0,0,0-7.63,3.83c-.19.15-.36.34-.64.3a3.73,3.73,0,0,0-1.32.24c0-.34.43-.43.42-.73a24.49,24.49,0,0,1,9-4.31A58.94,58.94,0,0,1,114.05,33c.11,0,.24-.07.37.07C113.9,33.53,113.55,34.14,112.92,34.47Z" transform="translate(-2.6 -10.9)"/><path class="cls-17" d="M156.23,38.4c0,.27.31.36.34.67a5.54,5.54,0,0,0-1.24-.18c-.26,0-.42-.12-.6-.26A20.82,20.82,0,0,0,147,34.74c-.18,0-.37-.07-.44-.28a3.45,3.45,0,0,0-2.51-.05c-.49.2-1-.16-1.54.06-.64-.32-.95-1-1.46-1.48,1,.13,1.92.22,2.86.39a33.06,33.06,0,0,1,6.77,1.83A23.94,23.94,0,0,1,156.23,38.4Z" transform="translate(-2.6 -10.9)"/><path class="cls-12" d="M178.86,77.29a1.86,1.86,0,0,1,.62.37c-.26,0-.57.28-.74-.14Z" transform="translate(-2.6 -10.9)"/><path class="cls-18" d="M141.77,148.62l-.13.59a1.59,1.59,0,0,1,0-1.21C141.74,148.19,141.58,148.44,141.77,148.62Z" transform="translate(-2.6 -10.9)"/><path class="cls-19" d="M96.89,131.85a1.29,1.29,0,0,1,.12.75c0,.05-.08.05-.11,0s-.19-.38-.14-.6Z" transform="translate(-2.6 -10.9)"/><path class="cls-19" d="M159.4,132.6a1.29,1.29,0,0,1,.12-.75l.13.14c0,.22-.09.4-.14.6C159.48,132.64,159.44,132.65,159.4,132.6Z" transform="translate(-2.6 -10.9)"/><path class="cls-12" d="M100.87,71c.22.27,0,.38-.19.51a.15.15,0,0,1-.13-.13l.24-.35A.06.06,0,0,1,100.87,71Z" transform="translate(-2.6 -10.9)"/><path class="cls-20" d="M116.83,147l-.36.42a.14.14,0,0,1,0-.19l.26-.48C116.72,146.89,116.72,147,116.83,147Z" transform="translate(-2.6 -10.9)"/><path class="cls-12" d="M179.48,77.66h.63c-.05.14-.18.09-.28.11S179.56,77.8,179.48,77.66Z" transform="translate(-2.6 -10.9)"/><path class="cls-13" d="M109,101.16a34,34,0,0,1-2.53-3,14.39,14.39,0,0,1,.26-17.2,20.18,20.18,0,0,1,5.41-5,24.49,24.49,0,0,0,3.75-3.29A10.88,10.88,0,0,1,120,70.05a11.3,11.3,0,0,1,6.31-.3,5.74,5.74,0,0,1,1.57.44.88.88,0,0,0,.71,0,11.73,11.73,0,0,1,8,0,9.34,9.34,0,0,1,3.54,2.21,49.9,49.9,0,0,0,5.63,4.74,16.47,16.47,0,0,1,6.52,9.66,14.11,14.11,0,0,1-1.72,10.44,16.45,16.45,0,0,1-2.88,3.62,3.72,3.72,0,0,0-.3.37c0,.3-.23.41-.41.57a26.53,26.53,0,0,1-12,5.82,30.41,30.41,0,0,1-8,.73c-6.4-.3-12.27-2.08-17.3-6.2C109.49,101.82,109.06,101.65,109,101.16Z" transform="translate(-2.6 -10.9)"/><path class="cls-15" d="M109,101.16a26.88,26.88,0,0,0,13.83,6.5,31.35,31.35,0,0,0,6.56.45,28.66,28.66,0,0,0,16.52-5.66c.53-.4,1-.86,1.54-1.29a18.65,18.65,0,0,0,3.37-2.48,23.48,23.48,0,0,0,5-6,21,21,0,0,0,2.73-7.38,18.82,18.82,0,0,0,.24-3.82,20.5,20.5,0,0,0-2.58-9.11,5.58,5.58,0,0,1-.49-.77c0-.07,0-.14-.11-.34a20.55,20.55,0,0,1,1.47,1.62c.23.08.29.29.37.49l.24.36c.32.08.35.39.49.62h0a1.14,1.14,0,0,1,.37.61,4.77,4.77,0,0,0,.6,1.11c.26,0,.33.27.43.47a24.74,24.74,0,0,1,1.82,4.79.52.52,0,0,1,0,.47l.35,2.09c.29.25-.06.59.13.86v3.42c-.19.26.16.6-.13.86l-.61,3.18c.07.26-.12.42-.24.61a.84.84,0,0,0-.13.49c-.13.28,0,.68-.36.86a.81.81,0,0,0-.13.48c-.09.26-.1.56-.36.74l-.61,1.22c-.1.26-.11.56-.38.74a1.19,1.19,0,0,0-.36.61,1.18,1.18,0,0,1-.37.61h0c-.14.22-.17.53-.49.61l-.24.37c-.08.2-.14.4-.37.49a3.88,3.88,0,0,0-.61.73c-.05.22-.12.43-.37.49-.29.25-.63.44-.73.85a3.3,3.3,0,0,1-1.23,1.23c-.41.1-.61.44-.85.73-.07.26-.27.32-.49.38a.4.4,0,0,0-.25.24c-.08.23-.28.3-.48.37l-1,.73c-.08.32-.4.35-.62.49L147.54,108c-.1.3-.4.25-.61.36l-1.23.61a.55.55,0,0,1-.49.24l-.61.25c-.18.26-.47.28-.74.37l-.48.13c-.18.38-.58.23-.86.36a.27.27,0,0,0-.25.11,2.54,2.54,0,0,1-1.46.5l-.61.13c-.19.11-.35.3-.62.23l-2,.5c-.17.21-.41.06-.62.12-.78.13-1.58.24-2.36.41-.32.07-.64,0-1,.09s-.44-.19-.62-.34a8,8,0,0,0-4.48-1.92,7.39,7.39,0,0,0-5,1.6c-.34.24-.6.61-1.07.65a17.87,17.87,0,0,1-3.17-.49c-.2-.06-.45.09-.62-.12l-2-.5c-.26.07-.43-.12-.62-.23l-.61-.13a2.62,2.62,0,0,1-1.47-.49l-.24-.12c-.28-.13-.68,0-.86-.36a.91.91,0,0,1-.48-.13c-.26-.09-.56-.11-.74-.37l-.61-.25a.57.57,0,0,1-.49-.23,4,4,0,0,1-1.23-.62c-.21-.1-.51-.07-.61-.36a18.28,18.28,0,0,1-2.93-1.72c-.22-.14-.53-.17-.62-.48a3.78,3.78,0,0,1-1-.74.71.71,0,0,1-.49-.37l-.25-.24c-.21-.06-.41-.13-.48-.37l-.85-.74a3.3,3.3,0,0,1-1.23-1.23l-.73-.85c-.25-.06-.32-.27-.37-.48-.31-.16-.41-.49-.61-.74-.23-.09-.29-.29-.37-.49l-.25-.37c-.31-.08-.34-.39-.48-.61h0a1.25,1.25,0,0,1-.37-.61l-.37-.61c-.25-.18-.27-.47-.37-.73a4.16,4.16,0,0,1-.61-1.23c-.26-.18-.27-.48-.36-.74a.83.83,0,0,1-.13-.48c-.38-.18-.23-.58-.36-.86a.84.84,0,0,1-.13-.49c-.12-.19-.3-.35-.24-.61A18.21,18.21,0,0,1,94.68,89c-.29-.26.07-.6-.12-.86V84.76c.19-.27-.17-.61.12-.86a18,18,0,0,1,.61-3.18c-.06-.26.12-.43.24-.61a.84.84,0,0,1,.13-.49c.13-.28,0-.68.36-.86a.84.84,0,0,1,.13-.49c.09-.26.1-.56.36-.73a4.16,4.16,0,0,1,.61-1.23c.1-.26.12-.56.37-.73l.37-.61a1.2,1.2,0,0,1,.37-.61h0c.14-.22.17-.53.48-.62l.25-.37c.08-.19.14-.4.36-.49a7.5,7.5,0,0,1,1.23-1.47l.13.13A21.07,21.07,0,0,0,98,78.42a19.21,19.21,0,0,0-.36,4.72,20.19,20.19,0,0,0,1.79,7.28,23.55,23.55,0,0,0,4.25,6.35A26,26,0,0,0,109,101.16Z" transform="translate(-2.6 -10.9)"/><path class="cls-21" d="M122.57,112.41a17.26,17.26,0,0,1,1.45-1.1,7.2,7.2,0,0,1,4.72-1.29,8,8,0,0,1,4.59,2.08l.37.32a7.46,7.46,0,0,1,1.91,3.88,9.34,9.34,0,0,1-.18,3.57,3.41,3.41,0,0,1-.67,1.79c-.12.21-.28.4-.41.6l-.1.14a4.8,4.8,0,0,0-.59.68.77.77,0,0,1-.18.18,4.93,4.93,0,0,0-.65.56,7.59,7.59,0,0,1-5.12,1.59,7.33,7.33,0,0,1-4.63-2,4.92,4.92,0,0,1-1.6-1.79c-.12-.41-.36-.77-.5-1.17-.07-.2-.23-.39-.11-.63a8.29,8.29,0,0,1,.47-5.59C121.67,113.6,122.18,113.05,122.57,112.41Z" transform="translate(-2.6 -10.9)"/><path class="cls-13" d="M161.38,81.81a26.6,26.6,0,0,0-2.23-5.73c.16-.22.27,0,.4,0a36.8,36.8,0,0,1,8.56,7,33.17,33.17,0,0,1,8.15,16.17,28.7,28.7,0,0,1,.51,7.34,31.69,31.69,0,0,1-2.91,11.62c-.1.2-.17.41-.26.62-.23,0-.19-.11-.12-.24a30.86,30.86,0,0,0,1.62-12.53,31.79,31.79,0,0,0-1.74-8.31,33,33,0,0,0-5.57-9.88,39.46,39.46,0,0,0-6.09-6A2.39,2.39,0,0,0,161.38,81.81Z" transform="translate(-2.6 -10.9)"/><path class="cls-15" d="M137.15,61.88a7.65,7.65,0,0,1-1.23,4.51c-.95,1.38-2.35,1.34-3-.18a7.79,7.79,0,0,1,.64-7.73c.84-1.31,2.2-1.16,2.93.22A6.1,6.1,0,0,1,137.15,61.88Z" transform="translate(-2.6 -10.9)"/><path class="cls-15" d="M119.4,61.77a5.61,5.61,0,0,1,.65-3c.75-1.44,2.06-1.52,3-.18A6.82,6.82,0,0,1,124.27,62a7.35,7.35,0,0,1-.63,4.22c-.77,1.43-2.06,1.52-3,.18A7.76,7.76,0,0,1,119.4,61.77Z" transform="translate(-2.6 -10.9)"/><path class="cls-22" d="M133.45,123.13l.09-.09a2.82,2.82,0,0,0,.65-.73h0c.11-.09.16-.28.35-.23s.11.15.1.25a6.87,6.87,0,0,1-4.81,3.42.93.93,0,0,0-.4.12h-2.57a8.13,8.13,0,0,1-5.4-3.6.89.89,0,0,1-.22-.56c.06-.23.14-.38.36-.12a7.67,7.67,0,0,0,10.63,2.46l.61-.39A2.2,2.2,0,0,0,133.45,123.13Z" transform="translate(-2.6 -10.9)"/><path class="cls-12" d="M121.35,121.71a7.84,7.84,0,0,0,4.92,3.89c.21.07.44.08.59.27-.62.43-1.22.09-1.74-.16a9.56,9.56,0,0,1-3-2,7.33,7.33,0,0,1-1.43-2.4,2.78,2.78,0,0,0-.24-.49c-.17-.27-.17-.49.13-.66C121.16,120.51,121.13,121.17,121.35,121.71Z" transform="translate(-2.6 -10.9)"/><path class="cls-12" d="M129.43,125.87c.19-.26.5-.24.76-.31a7.78,7.78,0,0,0,4.38-3.24c.26-.7.64-1.35.87-2.06,0-.1.1-.18.23-.14s.25.23.15.43a9.11,9.11,0,0,1-1,2.08,8.69,8.69,0,0,1-1.84,2c-.67.41-1.37.78-2.05,1.17C130.46,126.12,129.94,125.9,129.43,125.87Z" transform="translate(-2.6 -10.9)"/><path class="cls-23" d="M135.67,120.12a8.25,8.25,0,0,1-1.1,2.2c-.13-.38-.26.06-.38,0a11.67,11.67,0,0,0,1.24-2.44A.23.23,0,0,1,135.67,120.12Z" transform="translate(-2.6 -10.9)"/><path class="cls-24" d="M121.35,121.71c-.42-.45-.41-1.1-.73-1.59V120c-.08-.14-.09-.25.12-.24l.13.11.73,1.72C121.47,121.53,121.35,121.49,121.35,121.71Z" transform="translate(-2.6 -10.9)"/><path class="cls-12" d="M101,102.12a8,8,0,0,1,1.23,1.23A1.1,1.1,0,0,1,101,102.12Z" transform="translate(-2.6 -10.9)"/><path class="cls-12" d="M154.14,103.35a8,8,0,0,1,1.23-1.23A1.1,1.1,0,0,1,154.14,103.35Z" transform="translate(-2.6 -10.9)"/><path class="cls-12" d="M140.81,110.94a4.52,4.52,0,0,1,1.46-.5C142,111,141.12,111.28,140.81,110.94Z" transform="translate(-2.6 -10.9)"/><path class="cls-12" d="M114.13,110.45a4.47,4.47,0,0,1,1.47.49c0,.06,0,.18-.1.19A1.73,1.73,0,0,1,114.13,110.45Z" transform="translate(-2.6 -10.9)"/><path class="cls-25" d="M173.48,118.65c0,.1,0,.19.12.24l-.51,1-.11,0Z" transform="translate(-2.6 -10.9)"/><path class="cls-12" d="M142.52,110.33c.25-.22.59-.21.86-.36C143.38,110.76,142.84,110.28,142.52,110.33Z" transform="translate(-2.6 -10.9)"/><path class="cls-12" d="M96.51,77.54a1.33,1.33,0,0,1-.36.73C96.06,77.93,95.86,77.52,96.51,77.54Z" transform="translate(-2.6 -10.9)"/><path class="cls-12" d="M95.66,93.32c.21.24.21.58.36.86C95.23,94.17,95.71,93.63,95.66,93.32Z" transform="translate(-2.6 -10.9)"/><path class="cls-12" d="M160.39,94.18c.16-.28.15-.62.36-.86C160.7,93.63,161.18,94.17,160.39,94.18Z" transform="translate(-2.6 -10.9)"/><path class="cls-12" d="M96.15,94.66a1.39,1.39,0,0,1,.36.74C95.86,95.42,96.06,95,96.15,94.66Z" transform="translate(-2.6 -10.9)"/><path class="cls-12" d="M159.9,95.4a1.47,1.47,0,0,1,.36-.74C160.35,95,160.55,95.42,159.9,95.4Z" transform="translate(-2.6 -10.9)"/><path class="cls-12" d="M96,78.76c-.15.27-.15.61-.36.86C95.71,79.3,95.23,78.76,96,78.76Z" transform="translate(-2.6 -10.9)"/><path class="cls-12" d="M113,110c.27.15.61.14.86.36C113.57,110.28,113,110.76,113,110Z" transform="translate(-2.6 -10.9)"/><path class="cls-12" d="M143.86,109.84a1.41,1.41,0,0,1,.74-.37C144.62,110.13,144.21,109.92,143.86,109.84Z" transform="translate(-2.6 -10.9)"/><path class="cls-12" d="M111.81,109.47a1.41,1.41,0,0,1,.74.37C112.2,109.92,111.79,110.13,111.81,109.47Z" transform="translate(-2.6 -10.9)"/><path class="cls-12" d="M98.71,73.74c-.15.21-.24.48-.48.62C98.32,74.1,98,73.5,98.71,73.74Z" transform="translate(-2.6 -10.9)"/><path class="cls-12" d="M158.18,74.36c-.24-.14-.32-.41-.49-.62C158.43,73.49,158.09,74.09,158.18,74.36Z" transform="translate(-2.6 -10.9)"/><path class="cls-12" d="M97.12,96.63a1.28,1.28,0,0,1,.37.73C97,97.32,97,97,97.12,96.63Z" transform="translate(-2.6 -10.9)"/><path class="cls-12" d="M158.91,97.36a1.5,1.5,0,0,1,.38-.74C159.42,97,159.46,97.33,158.91,97.36Z" transform="translate(-2.6 -10.9)"/><path class="cls-12" d="M97.49,75.58a1.28,1.28,0,0,1-.37.73C97,75.93,97,75.62,97.49,75.58Z" transform="translate(-2.6 -10.9)"/><path class="cls-12" d="M98.23,98.58c.24.14.33.41.48.61C98,99.44,98.32,98.84,98.23,98.58Z" transform="translate(-2.6 -10.9)"/><path class="cls-12" d="M157.69,99.19c.17-.2.24-.47.49-.61C158.09,98.84,158.43,99.45,157.69,99.19Z" transform="translate(-2.6 -10.9)"/><path class="cls-12" d="M150.47,106.29c.14-.25.41-.33.62-.49C151.34,106.54,150.73,106.2,150.47,106.29Z" transform="translate(-2.6 -10.9)"/><path class="cls-12" d="M105.32,105.81c.21.15.48.24.62.48C105.68,106.19,105.08,106.55,105.32,105.81Z" transform="translate(-2.6 -10.9)"/><path class="cls-12" d="M95.53,80.11a1.28,1.28,0,0,1-.24.61C94.94,80.45,95,80.42,95.53,80.11Z" transform="translate(-2.6 -10.9)"/><path class="cls-12" d="M95.29,92.22a1.21,1.21,0,0,1,.24.61C95,92.52,94.94,92.49,95.29,92.22Z" transform="translate(-2.6 -10.9)"/><path class="cls-12" d="M160.88,92.83a1.21,1.21,0,0,1,.24-.61C161.47,92.49,161.46,92.52,160.88,92.83Z" transform="translate(-2.6 -10.9)"/><path class="cls-12" d="M139.58,111.3a1.18,1.18,0,0,1,.62-.23C139.88,111.65,139.85,111.66,139.58,111.3Z" transform="translate(-2.6 -10.9)"/><path class="cls-12" d="M116.21,111.07a1.18,1.18,0,0,1,.62.23C116.56,111.66,116.53,111.65,116.21,111.07Z" transform="translate(-2.6 -10.9)"/><path class="cls-12" d="M145.21,109.22a.72.72,0,0,1,.49-.24.36.36,0,0,1-.28.44C145.26,109.47,145.23,109.34,145.21,109.22Z" transform="translate(-2.6 -10.9)"/><path class="cls-12" d="M152.8,104.46l.49-.38c.06.14.17.28,0,.42S153,104.52,152.8,104.46Z" transform="translate(-2.6 -10.9)"/><path class="cls-12" d="M103.12,104.09l.48.37c-.16.07-.32.19-.5,0S103.07,104.22,103.12,104.09Z" transform="translate(-2.6 -10.9)"/><path class="cls-12" d="M156.1,101.27l.37-.49c.07.16.19.31.05.49S156.24,101.33,156.1,101.27Z" transform="translate(-2.6 -10.9)"/><path class="cls-12" d="M99.32,72.88c-.09.19-.14.4-.36.49C98.76,73,98.82,72.76,99.32,72.88Z" transform="translate(-2.6 -10.9)"/><path class="cls-12" d="M99.94,100.79l.37.48c-.14.06-.28.17-.42,0S99.87,100.94,99.94,100.79Z" transform="translate(-2.6 -10.9)"/><path class="cls-12" d="M157.08,100.05c.11-.18.16-.4.37-.49C157.65,100,157.6,100.18,157.08,100.05Z" transform="translate(-2.6 -10.9)"/><path class="cls-12" d="M110.71,109a.67.67,0,0,1,.49.23c0,.12,0,.25-.21.2A.35.35,0,0,1,110.71,109Z" transform="translate(-2.6 -10.9)"/><path class="cls-12" d="M146.93,108.37a1.79,1.79,0,0,1,.61-.36C147.66,108.67,147.22,108.4,146.93,108.37Z" transform="translate(-2.6 -10.9)"/><path class="cls-12" d="M118.78,111.8c.21,0,.44-.08.62.12C119.13,112.2,118.89,112.31,118.78,111.8Z" transform="translate(-2.6 -10.9)"/><path class="cls-12" d="M137,111.92c.18-.2.41-.1.62-.12C137.52,112.31,137.28,112.2,137,111.92Z" transform="translate(-2.6 -10.9)"/><path class="cls-12" d="M158.18,98.58a.8.8,0,0,1,.37-.61C158.76,98.37,158.52,98.5,158.18,98.58Z" transform="translate(-2.6 -10.9)"/><path class="cls-12" d="M97.86,98a.8.8,0,0,1,.37.61C97.89,98.5,97.65,98.37,97.86,98Z" transform="translate(-2.6 -10.9)"/><path class="cls-12" d="M158.55,75a.81.81,0,0,1-.37-.61C158.52,74.43,158.76,74.56,158.55,75Z" transform="translate(-2.6 -10.9)"/><path class="cls-12" d="M98.23,74.36a.81.81,0,0,1-.37.61C97.65,74.56,97.89,74.43,98.23,74.36Z" transform="translate(-2.6 -10.9)"/><path class="cls-12" d="M108.87,108a1.64,1.64,0,0,1,.61.36C109.18,108.4,108.76,108.66,108.87,108Z" transform="translate(-2.6 -10.9)"/><path class="cls-12" d="M157.45,73.38c-.21-.1-.26-.32-.37-.49C157.6,72.75,157.65,73,157.45,73.38Z" transform="translate(-2.6 -10.9)"/><path class="cls-12" d="M94.56,88.18c.22.26.08.57.12.86C94,88.84,94.71,88.45,94.56,88.18Z" transform="translate(-2.6 -10.9)"/><path class="cls-12" d="M161.73,89c.05-.29-.1-.6.13-.86C161.7,88.45,162.41,88.84,161.73,89Z" transform="translate(-2.6 -10.9)"/><path class="cls-12" d="M99,99.56c.22.09.27.31.37.49C98.82,100.18,98.76,100,99,99.56Z" transform="translate(-2.6 -10.9)"/><path class="cls-12" d="M94.68,83.9c0,.28.1.6-.12.86C94.71,84.49,94,84.1,94.68,83.9Z" transform="translate(-2.6 -10.9)"/><path class="cls-12" d="M161.86,84.76c-.23-.26-.08-.58-.13-.86C162.41,84.1,161.7,84.49,161.86,84.76Z" transform="translate(-2.6 -10.9)"/><path class="cls-12" d="M120.74,119.76a.24.24,0,0,0-.12.24c-.2-.11-.36-.3-.16-.47S120.65,119.67,120.74,119.76Z" transform="translate(-2.6 -10.9)"/><path class="cls-12" d="M152.07,105.07l.48-.37C152.6,105.09,152.41,105.18,152.07,105.07Z" transform="translate(-2.6 -10.9)"/><path class="cls-12" d="M103.85,104.7l.49.37C104,105.18,103.82,105.09,103.85,104.7Z" transform="translate(-2.6 -10.9)"/><path class="cls-26" d="M98.23,135.78c.12.12.3.28.14.43s-.29-.06-.39-.19A.22.22,0,0,0,98.23,135.78Z" transform="translate(-2.6 -10.9)"/><path class="cls-26" d="M158.43,136c-.1.13-.29.28-.38.19s0-.31.14-.43A.21.21,0,0,0,158.43,136Z" transform="translate(-2.6 -10.9)"/><path class="cls-27" d="M96.9,132.59H97c.17.13.1.33.14.49C97,133,97,132.76,96.9,132.59Z" transform="translate(-2.6 -10.9)"/><path class="cls-27" d="M159.4,132.6h.11c-.06.17,0,.39-.25.5C159.3,132.93,159.23,132.73,159.4,132.6Z" transform="translate(-2.6 -10.9)"/><path class="cls-28" d="M116.44,147.27l0,.19-.14.31C116.15,147.55,116.34,147.42,116.44,147.27Z" transform="translate(-2.6 -10.9)"/><path class="cls-21" d="M146.56,34.46a27.53,27.53,0,0,1,4.06,1.43,23.94,23.94,0,0,1,4.71,3,13.06,13.06,0,0,1,2.18,3.75,4.87,4.87,0,0,1,.33,2.72,4,4,0,0,1-.76,1,11.13,11.13,0,0,1-5.5,3.12c-1.19.3-2.39.55-3.6.74l-.18,0c-.18,0-.42,0-.48-.16s.2-.28.36-.34a15.78,15.78,0,0,0,2.59-1.24,9,9,0,0,0,2.15-1.89,3.92,3.92,0,0,0,.56-4.35,10.81,10.81,0,0,0-.61-1.11c0,.07,0,0,0,0,.64,2.4-.27,4.25-2,5.81a8.85,8.85,0,0,1-1.74,1.14c-.14.07-.32.17-.44,0s0-.31.13-.42a5,5,0,0,0,1.49-3.2c0-.39-.06-.76,0-1.14v-.22a5.88,5.88,0,0,0-.12-1.1,13.36,13.36,0,0,0-4.11-6.86c-.17-.15-.35-.28-.53-.42s-.31-.23-.56-.41A13.37,13.37,0,0,1,146.56,34.46Z" transform="translate(-2.6 -10.9)"/><path class="cls-29" d="M149.73,43.37a3.62,3.62,0,0,1-.36,3.14,3.58,3.58,0,0,1-1.28,1.54,7,7,0,0,0,3.6-2.91,5.06,5.06,0,0,0,.29-4.59c1.87,2,2.13,4.57.34,6.46a10.83,10.83,0,0,1-4.26,2.76,3.19,3.19,0,0,0-.64.32,23.29,23.29,0,0,0,3.44-.57A11.46,11.46,0,0,0,157,46.23a4.32,4.32,0,0,1,.84-.87,4.87,4.87,0,0,1-1.7,3.27,15.07,15.07,0,0,1-6.35,3.27,25.2,25.2,0,0,1-4.73.92,1.8,1.8,0,0,1-1.74-.8,5.05,5.05,0,0,1-1-2.87,1,1,0,0,1,.4-.14,11.75,11.75,0,0,0,3.73-1,3,3,0,0,0,.79-.17,5.59,5.59,0,0,0,2.45-4.16A1.82,1.82,0,0,1,149.73,43.37Z" transform="translate(-2.6 -10.9)"/><path class="cls-30" d="M146.56,48.05a9.14,9.14,0,0,1-4.28,1.1c-.1-.38.16-.51.43-.63.51-.21,1-.41,1.52-.63a6.11,6.11,0,0,0,3.35-2.81,2.88,2.88,0,0,1-.55,2.57A.48.48,0,0,1,146.56,48.05Z" transform="translate(-2.6 -10.9)"/><path class="cls-31" d="M146.56,48.05l.47-.4.17.17C147,48,146.88,48.29,146.56,48.05Z" transform="translate(-2.6 -10.9)"/><path class="cls-29" d="M149.61,42.05a1.41,1.41,0,0,1,.12,1.1Z" transform="translate(-2.6 -10.9)"/><path class="cls-21" d="M100.11,38.89a21.21,21.21,0,0,1,6.22-3.62c.84-.29,1.69-.54,2.54-.81a18,18,0,0,1,2.18-.12,13.14,13.14,0,0,0-5.23,7.71,5.88,5.88,0,0,0-.12,1.1v.22a5,5,0,0,0,1.41,4.3c.13.12.32.27.17.46s-.34,0-.5-.05c-2-1.11-3.58-2.61-3.89-5.06a5.11,5.11,0,0,1,.18-1.84,5.43,5.43,0,0,0-1,2.63,4,4,0,0,0,1.15,3.06,10.17,10.17,0,0,0,3.86,2.61,6.37,6.37,0,0,1,.85.36c.1,0,.25.1.2.26s-.19.14-.31.16a2,2,0,0,1-.48,0,26.3,26.3,0,0,1-5-1.23,10.2,10.2,0,0,1-4.42-3.16c-.13-.15-.15-.34-.27-.47a4.78,4.78,0,0,1,.32-2.72A12.86,12.86,0,0,1,100.11,38.89Z" transform="translate(-2.6 -10.9)"/><path class="cls-29" d="M97.6,45.36A22.06,22.06,0,0,0,100,47.6a14.48,14.48,0,0,0,5.65,2.15,18.55,18.55,0,0,0,2.37.36,29.74,29.74,0,0,1-2.83-1.4,8,8,0,0,1-2.75-2.64,4.28,4.28,0,0,1,.26-4.61,6.13,6.13,0,0,1,.61-.81c-1,3.71.89,5.86,3.9,7.42A5.24,5.24,0,0,1,105.82,46a3.1,3.1,0,0,1-.12-2.58,6.07,6.07,0,0,0,1.53,3.57,6,6,0,0,0,1,.88A3,3,0,0,0,109,48a11.75,11.75,0,0,0,3.73,1,1,1,0,0,1,.4.14,5,5,0,0,1-1.24,3.11,1.5,1.5,0,0,1-1.29.57,21.39,21.39,0,0,1-10.53-3.52,5.7,5.7,0,0,1-2.48-3.65A1.51,1.51,0,0,1,97.6,45.36Z" transform="translate(-2.6 -10.9)"/><path class="cls-30" d="M113.15,49.15a9.22,9.22,0,0,1-3.66-.79l-.66-.3a.49.49,0,0,1-.43-.41,2.92,2.92,0,0,1-.59-2.44c.27.14.32.39.45.57a6.82,6.82,0,0,0,3,2.16l1.47.61C113,48.66,113.25,48.81,113.15,49.15Z" transform="translate(-2.6 -10.9)"/><path class="cls-29" d="M105.7,43.15a1.41,1.41,0,0,1,.12-1.1Z" transform="translate(-2.6 -10.9)"/><path class="cls-31" d="M108.4,47.65l.43.41c-.3.17-.43-.07-.6-.24Z" transform="translate(-2.6 -10.9)"/><path class="cls-32" d="M100,131.32c.32-.06.41.1.54.18,1.89,1.23,3.76,2.47,5.66,3.69a.61.61,0,0,1,.32.79c-.21.73-.38,1.48-.6,2.33C103.93,136,102,133.67,100,131.32Z" transform="translate(-2.6 -10.9)"/><path class="cls-33" d="M156.5,145.64c-.42-.59-.8-1.14-1.21-1.66-.19-.25,0-.38.11-.52,1.74-2.34,3.5-4.68,5.28-7.06.2.37,0,.68,0,1a7.24,7.24,0,0,1-1.16,3.22C158.46,142.24,157.52,143.92,156.5,145.64Z" transform="translate(-2.6 -10.9)"/><path class="cls-34" d="M144.38,148.79a1.13,1.13,0,0,1,.51.64l2.38,4.65c.46.89.46.9-.19,1.82C146.19,153.55,145.31,151.25,144.38,148.79Z" transform="translate(-2.6 -10.9)"/><path class="cls-35" d="M118.55,148.94a10.57,10.57,0,0,1,.35,2.44c.1.86.12,1.74.23,2.61a1.18,1.18,0,0,1-.54,1.34,6.88,6.88,0,0,0-.74.62C118.1,153.53,118.33,151.23,118.55,148.94Z" transform="translate(-2.6 -10.9)"/><path class="cls-15" d="M120.75,92a5.63,5.63,0,0,1-.6,2.84c-1.18,2-3.2,2.39-5.29,1a7.93,7.93,0,0,1-3.3-5.36,5.77,5.77,0,0,1,.28-3.29A3.35,3.35,0,0,1,117,85.48,8,8,0,0,1,120.75,92Z" transform="translate(-2.6 -10.9)"/><path class="cls-15" d="M135.91,92.2a8.09,8.09,0,0,1,3.66-6.66,3.41,3.41,0,0,1,5.44,2.2,7.9,7.9,0,0,1-3.92,8.45c-2.25,1.11-4.51,0-5-2.65A4,4,0,0,1,135.91,92.2Z" transform="translate(-2.6 -10.9)"/><path class="cls-17" d="M125.07,121.5c-.51.07-.62,0-.4-.56,1-2.39,2-4.8,3-7.2.12-.29.23-.59.61-.59s.48.31.6.59c1,2.31,1.91,4.62,2.88,6.92a.58.58,0,0,1-.17.8c-.3.23-.54.08-.77-.1q-1.74-1.39-3.47-2.8c-.3-.26-.45-.34-.61.14-.25.76-.6,1.5-.88,2.27C125.71,121.36,125.52,121.61,125.07,121.5Z" transform="translate(-2.6 -10.9)"/><path class="cls-23" d="M134.19,122.31a1,1,0,0,1-.65.73Z" transform="translate(-2.6 -10.9)"/><path class="cls-23" d="M133.45,123.13a.69.69,0,0,1-.61.53A2.2,2.2,0,0,1,133.45,123.13Z" transform="translate(-2.6 -10.9)"/><path class="cls-32" d="M136.52,60.89a1.71,1.71,0,1,1-1.72-1.7A1.76,1.76,0,0,1,136.52,60.89Z" transform="translate(-2.6 -10.9)"/><path class="cls-32" d="M123.43,60.89a1.71,1.71,0,1,1-1.73-1.7A1.76,1.76,0,0,1,123.43,60.89Z" transform="translate(-2.6 -10.9)"/><path class="cls-36" d="M128.29,114.88l1.81,4.47-.1.07-2.54-2a.26.26,0,0,1-.1-.32C127.65,116.42,128,115.71,128.29,114.88Z" transform="translate(-2.6 -10.9)"/><rect class="cls-9" x="88.06" y="86.33" width="5.67" height="14.99"/><circle class="cls-37" cx="90.81" cy="86.5" r="5.67"/></g><path class="cls-38" d="M136.92,18.38c-1.31-.62,53.84,6.15,66.68,82a68.44,68.44,0,0,1-28.41,10.37S189.74,43,136.92,18.38Z" transform="translate(-2.6 -10.9)"/><path class="cls-39" d="M149.27,168.08A21.06,21.06,0,1,1,128.22,147a21.05,21.05,0,0,1,21.05,21.06" transform="translate(-2.6 -10.9)"/><path class="cls-21" d="M128.57,160.18,134,173.63l-8.23-6.48Zm9.68,16.55-8.38-20.17a1.36,1.36,0,0,0-1.3-.89,1.4,1.4,0,0,0-1.33.89L118,178.68h3.14l3.65-9.12,10.86,8.78a1.8,1.8,0,0,0,1.17.51,1.49,1.49,0,0,0,1.53-1.5,2.08,2.08,0,0,0-.14-.62" transform="translate(-2.6 -10.9)"/><path class="cls-40" d="M79.22,166.39c-3.5,5.88-14,6.09-23.38.48S41.62,152,45.11,146.09s14-6.09,23.39-.48S82.71,160.53,79.22,166.39Z" transform="translate(-2.6 -10.9)"/><path class="cls-41" d="M79.14,166.84c-3.5,5.87-14,6.09-23.38.48S41.54,152.41,45,146.54s14-6.09,23.39-.48S82.63,161,79.14,166.84Z" transform="translate(-2.6 -10.9)"/><path class="cls-4" d="M77.85,166.44a8.54,8.54,0,0,0,.93-5.34,6.74,6.74,0,0,1-1,3.09c-2.71,4.73-11,4.78-18.6.12s-11.61-12.12-8.9-16.84c2.36-4.11,8.89-4.58,15.55-1.6-8.45-4.58-17.11-4-20.11,1.19-3.17,5.53,1.42,13.94,10.26,19.38S74.67,172,77.85,166.44Z" transform="translate(-2.6 -10.9)"/><path class="cls-40" d="M211.54,146c3.43,5.91-1.48,15.15-11,20.65s-19.94,5.16-23.37-.75,1.48-15.16,11-20.66S208.12,140.1,211.54,146Z" transform="translate(-2.6 -10.9)"/><path class="cls-41" d="M212.85,146.3c3.44,5.92-1.47,15.16-10.95,20.66s-20,5.16-23.38-.75,1.48-15.16,11-20.66S209.44,140.4,212.85,146.3Z" transform="translate(-2.6 -10.9)"/><path class="cls-4" d="M212.27,146.86c-.92-1.55-2.66-2.46-4.48-3.2a7.58,7.58,0,0,1,2.74,2.2c2.84,4.77-1.21,12.13-9.06,16.56s-16.52,4.16-19.36-.61c-2.47-4.15.56-9.82,6.49-14.29-8.24,5.26-12.3,13.3-9.44,18.18,3.46,5.91,13.43,5.83,22.61.64S215.59,152.43,212.27,146.86Z" transform="translate(-2.6 -10.9)"/><ellipse class="cls-38" cx="91.91" cy="84.62" rx="2.03" ry="1.56"/><path class="cls-42" d="M72.58,221.07H63.39l-1.53,3.31h-5l7.82-15.64a1.49,1.49,0,0,1,1.34-.83h4a1.51,1.51,0,0,1,1.34.83l7.8,15.64h-5Zm-1.39-3-2.11-4.52c-.26-.58-.79-2-1.07-2.83H68c-.27.86-.81,2.25-1.06,2.83l-2.11,4.52Z" transform="translate(-2.6 -10.9)"/><path class="cls-42" d="M84,207.91h3.49l8.61,9.35a9,9,0,0,1,1.3,1.88h.09V207.91h4.25v15a1.5,1.5,0,0,1-1.5,1.49H97.07l-8.93-9.46a9.08,9.08,0,0,1-1.3-1.88h-.09v11.34H82.51v-15A1.5,1.5,0,0,1,84,207.91Z" transform="translate(-2.6 -10.9)"/><path class="cls-42" d="M104.84,220.74l3.34-2.34c1.37,1.92,3.9,3.22,7.29,3.22,3,0,4.38-.6,4.38-1.9,0-1-.7-1.44-2.67-1.65l-5.05-.55c-4-.44-6-1.93-6-5,0-3.27,3.18-5.19,8.82-5.19,4.17,0,7.42,1.09,9.46,3.38l-2.94,2.49c-1.23-1.63-3.6-2.62-6.75-2.62-2.55,0-4,.6-4,1.71s.7,1.42,2.81,1.65l4.55.44c4.54.46,6.42,1.81,6.42,4.87,0,3.64-3.41,5.66-9.35,5.66C110.36,224.94,106.53,223.34,104.84,220.74Z" transform="translate(-2.6 -10.9)"/><path class="cls-42" d="M128.45,224.38V207.91h4.69v16.47Z" transform="translate(-2.6 -10.9)"/><path class="cls-42" d="M157.29,219.7c0,2.41-1.65,4.68-6.2,4.68H139.88a1.5,1.5,0,0,1-1.5-1.49V209.41a1.5,1.5,0,0,1,1.5-1.5H151c4.08,0,5.87,1.81,5.87,4.18a3.66,3.66,0,0,1-3.25,3.64C156.13,216.1,157.29,217.54,157.29,219.7ZM143.07,211v3.59h6.63c1.93,0,2.32-1,2.32-1.9s-.46-1.69-2.32-1.69Zm9.37,8.35c0-1.14-.77-1.93-2.51-1.93h-6.86v3.92h6.84C151.7,221.32,152.44,220.46,152.44,219.33Z" transform="translate(-2.6 -10.9)"/><path class="cls-42" d="M161.41,207.91h4.69v12.81h11.16v3.66H162.91a1.5,1.5,0,0,1-1.5-1.49Z" transform="translate(-2.6 -10.9)"/><path class="cls-42" d="M197.83,221.11v1.77a1.5,1.5,0,0,1-1.5,1.5H182.54a1.5,1.5,0,0,1-1.5-1.5V209.41a1.5,1.5,0,0,1,1.5-1.5h13.63a1.5,1.5,0,0,1,1.5,1.5v1.78H185.72v3.31h8.56v3.06h-8.56v3.55Z" transform="translate(-2.6 -10.9)"/><path class="cls-42" d="M70.55,241.75h-4.8v5.83H61.06v-15a1.5,1.5,0,0,1,1.5-1.49h9.73c5.29,0,6.82,2.71,6.82,5.22a5,5,0,0,1-3.71,4.87l4.31,6.38H74.45Zm-4.8-3h5.47c2.28,0,3-1.14,3-2.3s-.67-2.22-2.92-2.22h-5.5Z" transform="translate(-2.6 -10.9)"/><path class="cls-42" d="M87,231.11v8.6c0,2.79,1.76,4.76,5,4.76s5-2,5-4.76v-8.6h4.69v9.09c0,4.73-3.46,7.93-9.67,7.93s-9.7-3.22-9.7-8v-9Z" transform="translate(-2.6 -10.9)"/><path class="cls-42" d="M107.79,231.11h3.49l8.61,9.34a9,9,0,0,1,1.29,1.88h.1V231.11h4.24v15a1.51,1.51,0,0,1-1.5,1.51h-3.16l-8.93-9.47a8.15,8.15,0,0,1-1.3-1.88h-.09v11.35h-4.25v-15A1.5,1.5,0,0,1,107.79,231.11Z" transform="translate(-2.6 -10.9)"/><path class="cls-42" d="M132.26,231.11h3.49l8.6,9.34a8.64,8.64,0,0,1,1.3,1.88h.1V231.11H150v15a1.5,1.5,0,0,1-1.5,1.5h-3.16l-8.93-9.47a8.15,8.15,0,0,1-1.3-1.88H135v11.35h-4.25v-15A1.5,1.5,0,0,1,132.26,231.11Z" transform="translate(-2.6 -10.9)"/><path class="cls-42" d="M172,244.3v1.78a1.5,1.5,0,0,1-1.5,1.5H156.72a1.5,1.5,0,0,1-1.49-1.5V232.6a1.49,1.49,0,0,1,1.49-1.49h13.65a1.49,1.49,0,0,1,1.49,1.49v1.78H159.92v3.31h8.56v3.07h-8.56v3.54Z" transform="translate(-2.6 -10.9)"/><path class="cls-42" d="M186.13,241.75h-4.8v5.83h-4.69v-15a1.5,1.5,0,0,1,1.5-1.49h9.73c5.29,0,6.82,2.71,6.82,5.22A5,5,0,0,1,191,241.2l4.31,6.38H190Zm-4.8-3h5.47c2.27,0,2.95-1.14,2.95-2.3s-.68-2.22-2.93-2.22h-5.49Z" transform="translate(-2.6 -10.9)"/></svg>