<?xml version="1.0" encoding="UTF-8" standalone="no"?>
<svg
   width="320.0007"
   height="302"
   viewBox="0 0 320.0007 302.00001"
   version="1.1"
   id="svg50"
   sodipodi:docname="mascot-picket-one.svg"
   inkscape:version="1.3 (0e150ed6c4, 2023-07-21)"
   xmlns:inkscape="http://www.inkscape.org/namespaces/inkscape"
   xmlns:sodipodi="http://sodipodi.sourceforge.net/DTD/sodipodi-0.dtd"
   xmlns="http://www.w3.org/2000/svg"
   xmlns:svg="http://www.w3.org/2000/svg">
  <defs
     id="defs50" />
  <sodipodi:namedview
     id="namedview50"
     pagecolor="#ffffff"
     bordercolor="#111111"
     borderopacity="1"
     inkscape:showpageshadow="0"
     inkscape:pageopacity="0"
     inkscape:pagecheckerboard="1"
     inkscape:deskcolor="#d1d1d1"
     inkscape:zoom="2.3545455"
     inkscape:cx="153.95753"
     inkscape:cy="150.98456"
     inkscape:window-width="1920"
     inkscape:window-height="979"
     inkscape:window-x="0"
     inkscape:window-y="0"
     inkscape:window-maximized="1"
     inkscape:current-layer="svg50" />
  <title
     id="title1">Group 8</title>
  <g
     id="Page-1"
     stroke="none"
     stroke-width="1"
     fill="none"
     fill-rule="evenodd"
     transform="matrix(1.0059327,0,0,0.99806198,-11.108405,-1.5666376)">
    <g
       id="Mission-Page"
       transform="translate(-350,-789)">
      <g
         id="Group-9"
         transform="translate(350,783)">
        <g
           id="Group-8"
           transform="translate(0,6.1558)">
          <g
             id="Group-36"
             transform="translate(143.1563,41.0003)">
            <ellipse
               id="Oval"
               fill="#616161"
               opacity="0.749562"
               cx="93"
               cy="248.5"
               rx="93"
               ry="14.5" />
            <g
               id="Ansibull-community"
               fill-rule="nonzero">
              <g
                 id="Group"
                 transform="translate(82.0308)">
                <ellipse
                   id="ellipse1"
                   fill="#006bb6"
                   cx="5.7230768"
                   cy="4.2944384"
                   rx="4.5784616"
                   ry="3.2210076" />
                <path
                   d="M 5.7230769,8.5893536 C 2.5674995,8.5893536 0,6.6627139 0,4.2946768 0,1.9266397 2.5674995,0 5.7230769,0 c 3.1555775,0 5.7230771,1.9266397 5.7230771,4.2946768 0,2.3680371 -2.5674996,4.2946768 -5.7230771,4.2946768 z m 0,-6.4420152 c -1.8611446,0 -3.4338461,0.9832424 -3.4338461,2.1473384 0,1.164096 1.5727015,2.1473384 3.4338461,2.1473384 1.8611446,0 3.4338462,-0.9832424 3.4338462,-2.1473384 0,-1.164096 -1.5727016,-2.1473384 -3.4338462,-2.1473384 z"
                   id="Shape"
                   fill="#000000" />
              </g>
              <g
                 id="g1"
                 transform="translate(7.6308,126.9316)">
                <path
                   d="m 163.90354,49.994754 c 0,-21.402219 -36.4422,-48.8849271 -81.395971,-48.8849271 -44.95377,0 -81.3959675,27.4827081 -81.3959675,48.8849271 0,10.90117 9.4583725,20.749249 24.6763685,27.790569 l 4.621584,43.062967 c 0,0 32.333052,-12.95382 51.145037,-13.43412 36.367329,-0.92876 53.368729,13.43412 53.368729,13.43412 l 2.8708,-42.41567 c 16.05534,-7.078323 26.10942,-17.198494 26.10942,-28.437866 z"
                   id="Path"
                   fill="#565656" />
                <path
                   d="m 135.88446,123.11407 -1.67939,-1.41843 c -0.0408,-0.0345 -4.28729,-3.55964 -12.85569,-6.92735 -7.91265,-3.10969 -21.23779,-6.72236 -39.766128,-6.24429 -18.394671,0.46944 -50.437901,13.22566 -50.759349,13.35468 l -1.363126,0.54591 -4.711274,-43.898724 C 8.7826158,70.99784 0,60.881616 0,49.995001 0,38.961116 9.1015929,26.475502 24.346767,16.595354 32.030629,11.615563 41.076136,7.4937368 50.505847,4.6751366 60.883842,1.5730976 71.650985,0 82.507569,0 c 10.856584,0 21.623971,1.5730976 32.001721,4.6751366 9.42971,2.8188469 18.47546,6.9406734 26.15933,11.9202174 15.24517,9.880148 24.34676,22.365762 24.34676,33.399647 0,5.784964 -2.46756,11.349393 -7.33424,16.538123 -4.49657,4.794531 -10.82644,9.045126 -18.82311,12.641272 z M 82.507569,2.2199005 c -10.640392,0 -21.192823,1.5415222 -31.364015,4.5818904 C 41.913975,9.5609405 33.066131,13.591001 25.557447,18.457564 18.40999,23.089284 12.478401,28.458833 8.403599,33.985273 4.3606703,39.46879 2.2234502,45.004604 2.2234502,49.994508 c 0,5.044914 2.1345023,9.956126 6.3437141,14.597714 4.1489247,4.574983 10.1002797,8.674855 17.6885237,12.185648 l 0.570996,0.264198 4.533624,42.242252 c 2.746019,-1.05926 9.353859,-3.54139 17.231924,-6.03165 13.947277,-4.40897 25.028207,-6.74703 32.934192,-6.94882 18.976536,-0.48078 32.637946,3.23797 40.759626,6.44633 5.79446,2.28872 9.64393,4.61889 11.66527,6.00031 l 2.77913,-41.062606 0.61498,-0.271105 c 8.01148,-3.532008 14.30726,-7.704651 18.71265,-12.401742 4.4684,-4.763943 6.73385,-9.817738 6.73385,-15.020776 0,-4.990151 -2.13697,-10.525965 -6.18014,-16.009235 C 152.53698,28.458587 146.60515,23.089037 139.45794,18.457317 131.94901,13.590754 123.10166,9.5606938 113.87158,6.8015442 103.70039,3.7614227 93.14796,2.2199005 82.507569,2.2199005 Z"
                   id="path1"
                   fill="#000000" />
              </g>
              <g
                 id="g3"
                 transform="translate(156.4308,140.2928)">
                <path
                   d="m 18.951422,7.3008217 c 0,0 -2.158695,6.8291073 -4.31739,9.1054763 -2.158695,2.276369 -8.6347792,6.829108 -8.6347792,6.829108 L 1.6818631,16.406298 c 0,0 6.4760845,-2.276369 8.6347799,-4.552738 2.158694,-2.2763692 8.634779,-9.1054766 8.634779,-9.1054766 z"
                   id="path2"
                   fill="#333233" />
                <path
                   d="M 5.6999138,24.813688 0,15.798002 1.3403096,15.326541 c 1.7348711,-0.61032 6.5921743,-2.568757 8.2131143,-4.277804 L 20.030769,0 v 7.4854605 l -0.05517,0.1750275 c -0.09163,0.2893518 -2.26591,7.112136 -4.578352,9.55038 -2.208825,2.329485 -8.5311623,6.782821 -8.7993202,6.971254 z M 3.3464567,16.987784 6.2942744,21.650547 C 8.129165,20.329241 12.280335,17.278653 13.870814,15.601728 15.443063,13.94352 17.237418,9.0741132 17.872074,7.1139065 V 5.4961668 l -6.792213,7.1622162 c -1.7015312,1.794032 -5.6543413,3.509655 -7.7334043,4.329401 z"
                   id="path3"
                   fill="#000000" />
              </g>
              <path
                 d="m 140.03487,207.09886 c 18.70691,-7.08629 30.70359,-18.02239 30.70359,-30.2948 0,-15.44657 -19.00259,-34.06312 -46.47378,-43.19189 L 62,143.37203 c 0,0 44.35368,17.72864 66.53052,22.1608 22.17683,4.43216 19.95915,13.29648 19.95915,22.1608 0,7.7058 -6.70258,17.08475 -8.4548,19.40523 z"
                 id="path4"
                 fill="#333233" />
              <path
                 d="m 90.138585,216.64259 c -21.903665,0 -42.513879,-4.06267 -58.034051,-11.43954 C 16.322461,197.70131 7.6307692,187.63037 7.6307692,176.8452 c 0,-11.01593 9.1015928,-23.48122 24.3467668,-33.34529 7.683863,-4.97169 16.729616,-9.08681 26.159081,-11.90082 10.378242,-3.09699 21.145137,-4.66753 32.001721,-4.66753 10.856582,0 21.623972,1.57054 32.001722,4.66753 9.42971,2.81426 18.47546,6.92938 26.15933,11.90082 15.24517,9.86407 24.34676,22.32936 24.34676,33.34529 0,10.78517 -8.69169,20.85611 -24.47376,28.35785 -15.51968,7.37687 -36.12989,11.43954 -58.033805,11.43954 z m 0,-87.4945 c -10.640391,0 -21.192823,1.53902 -31.364014,4.57444 -9.229579,2.75466 -18.077176,6.77816 -25.586108,11.6368 -7.14721,4.62419 -13.079046,9.985 -17.153848,15.50244 -4.042928,5.4746 -6.1801485,11.0014 -6.1801485,15.98319 0,9.88328 8.2415165,19.2437 23.2069985,26.35705 15.227385,7.23797 35.497621,11.22379 57.07712,11.22379 21.579495,0 41.849985,-3.98606 57.077125,-11.22379 14.96523,-7.11335 23.20724,-16.47377 23.20724,-26.35705 0,-4.98203 -2.13697,-10.50884 -6.18015,-15.98319 -4.0748,-5.51744 -10.00664,-10.87825 -17.15385,-15.50244 -7.50893,-4.85864 -16.35628,-8.88214 -25.58635,-11.6368 -10.17119,-3.03542 -20.72362,-4.57444 -31.364015,-4.57444 z"
                 id="path5"
                 fill="#000000" />
              <g
                 id="g8"
                 transform="translate(11.463,72.511)">
                <g
                   transform="translate(132.7232,0.0718)"
                   id="g6">
                  <ellipse
                     id="ellipse5"
                     fill="#333233"
                     transform="rotate(-13.062,12.7907,9.529)"
                     cx="12.790688"
                     cy="9.5289621"
                     rx="11.47878"
                     ry="7.1188836" />
                  <path
                     d="m 10.338806,18.064627 c -1.6644227,0 -3.2504214,-0.240324 -4.6647741,-0.71848 C 2.8828124,16.402302 1.0612937,14.644246 0.54512283,12.396568 v 0 C 0.02919852,10.148639 0.89877266,7.7596082 2.9937903,5.6697356 4.9477427,3.7204676 7.7764481,2.2356435 10.95831,1.4889933 c 6.873976,-1.61246517 13.067041,0.6529138 14.101109,5.1572461 0.515924,2.247928 -0.35365,4.6369596 -2.448667,6.7268316 -1.953953,1.949268 -4.782658,3.434092 -7.96452,4.180742 -1.453565,0.340792 -2.908117,0.510814 -4.307426,0.510814 z M 15.233675,3.2295981 c -1.207687,0 -2.483687,0.142599 -3.773498,0.4452479 C 8.6719171,4.3287569 6.2188105,5.6044193 4.5529077,7.2667443 3.027577,8.7884647 2.3723136,10.429849 2.7074671,11.889244 v 0 c 0.3349069,1.459396 1.6387749,2.64182 3.6706584,3.329138 2.2202995,0.750638 4.9777325,0.804238 7.7662395,0.149828 2.78826,-0.653911 5.241366,-1.929573 6.907269,-3.591898 1.525331,-1.521721 2.180594,-3.1631044 1.845441,-4.6225001 -0.555877,-2.4226866 -3.747603,-3.9242138 -7.6634,-3.9242138 z"
                     id="path6"
                     fill="#000000" />
                </g>
                <g
                   id="g7">
                  <ellipse
                     id="ellipse6"
                     fill="#333233"
                     transform="rotate(-76.938,12.7908,9.5292)"
                     cx="12.790776"
                     cy="9.5292149"
                     rx="7.1191349"
                     ry="11.478813" />
                  <path
                     d="m 15.304428,18.086574 c -1.386978,0 -2.852381,-0.167279 -4.350584,-0.518541 C 7.7717355,16.821632 4.94303,15.336808 2.9890777,13.387291 0.89430663,11.297169 0.02473249,8.9081375 0.54065679,6.6604587 1.0568277,4.41278 2.8783463,2.6552228 5.6695659,1.7111279 8.2728627,0.83085358 11.459164,0.75681182 14.641766,1.503462 21.514509,3.1156779 26.088528,7.9069531 25.054707,12.411036 v 0 c -0.80866,3.522095 -4.773287,5.675538 -9.750279,5.675538 z M 10.329901,3.2343441 c -1.4215044,0 -2.7660643,0.2021814 -3.9562415,0.6045498 C 4.341776,4.5259617 3.0381546,5.708137 2.7030011,7.1677819 2.3680942,8.6271776 3.0233576,10.268811 4.548195,11.790531 c 1.6661495,1.662076 4.1190095,2.937738 6.907516,3.591649 5.471461,1.284388 10.708636,-0.30938 11.436651,-3.478467 v 0 C 23.619885,8.7346254 19.611606,4.9727053 14.139899,3.6893146 12.846635,3.3856686 11.559537,3.2343441 10.329901,3.2343441 Z"
                     id="path7"
                     fill="#000000" />
                </g>
              </g>
              <g
                 id="g10"
                 transform="translate(15.2615,30.5399)">
                <g
                   transform="translate(1.1049,1.1103)"
                   id="g9">
                  <path
                     d="m 145.69886,60.676176 c 2.79997,13.394598 5.07989,32.687023 -1.46656,43.022904 -12.68805,20.03218 -44.67128,25.7838 -71.113035,25.7838 -27.224165,0 -56.484068,0.23849 -68.9041119,-20.78439 C -1.6520581,98.767525 -0.63308337,72.008188 2.6635995,60.676176 13.127743,24.708115 21.701083,-0.88532758 72.236628,0.02345404 125.44391,0.98059875 137.98359,23.766515 145.69886,60.676176 Z"
                     fill="#565656"
                     id="path8" />
                  <path
                     d="M 145.69886,60.676176 C 137.98359,23.766515 125.44391,0.98059875 72.236628,0.02370079 60.729436,-0.18332277 51.398743,0.9843 43.725234,3.3353376 92.833772,5.8827884 105.02216,26.596249 112.65072,59.251687 c 2.897,12.40118 5.25602,30.262452 -1.51741,39.831679 -13.127529,18.546494 -46.21915,23.871124 -73.577196,23.871124 -5.763545,0 -11.615035,0.009 -17.387669,-0.14312 14.512038,6.78367 34.213526,6.67126 52.95082,6.67126 26.441755,0 58.424985,-5.75162 71.113035,-25.7838 6.54645,-10.335631 4.26653,-29.628056 1.46656,-43.022654 z"
                     fill="#333233"
                     id="path9" />
                </g>
                <path
                   d="m 72.411512,131.70342 c -13.250847,0 -26.894004,-0.056 -38.829618,-2.61975 C 19.586223,126.07727 10.031001,119.9581 4.3696481,110.37555 0.67451373,104.12093 0.04735788,92.626305 0.00289443,86.33121 -0.06294097,77.105954 0.99902327,67.349444 2.7080414,61.475304 8.3571114,42.058024 13.098734,27.49309 22.711439,16.884304 33.520972,4.9541703 49.612322,-0.40771532 73.362195,0.02409783 98.98199,0.48478078 116.31193,5.9362368 127.90093,17.179664 139.7061,28.63283 144.48309,45.278857 147.88614,61.558706 v 0 c 5.36461,25.662039 2.08242,38.008441 -1.61567,43.847044 -5.93452,9.36961 -16.36771,16.39138 -31.00945,20.8699 -14.66655,4.48617 -30.410794,5.42777 -41.036086,5.42777 h -0.906957 c -0.302155,0 -0.604555,0 -0.906465,0 z M 70.770295,2.2209164 c -21.668198,0 -36.460527,5.1612776 -46.424272,16.1577076 -9.293354,10.256673 -13.950962,24.589909 -19.5160184,43.719479 -3.362027,11.55532 -4.06705527,37.82091 1.4410091,47.143877 5.3292283,9.0207 14.4140213,14.80034 27.7732023,17.67004 11.97934,2.57312 25.852676,2.5704 39.273024,2.5704 h 0.907202 c 10.475198,0 25.985818,-0.92507 40.392228,-5.33153 14.12243,-4.31986 24.14464,-11.02752 29.78806,-19.93768 6.63267,-10.471593 3.67229,-30.933368 1.3172,-42.198509 v 0 C 142.39134,46.080795 137.74111,29.81427 126.36436,18.776879 115.20256,7.9477458 98.348202,2.6941836 73.321908,2.244111 72.461872,2.2285657 71.609451,2.2209164 70.770295,2.2209164 Z"
                   id="path10"
                   fill="#000000" />
              </g>
              <ellipse
                 id="ellipse10"
                 fill="#707070"
                 cx="91.092308"
                 cy="198.03232"
                 rx="31"
                 ry="31.971483" />
              <g
                 id="g13"
                 transform="translate(22.8923,108.7985)">
                <g
                   transform="translate(110.9709)"
                   id="g11">
                  <ellipse
                     id="ellipse11"
                     fill="#f6bdc0"
                     cx="11.760706"
                     cy="9.543726"
                     rx="11.760706"
                     ry="9.543726" />
                  <path
                     d="m 3.2638933,7.7819601 c -0.1640444,0 -0.3303057,-0.041392 -0.4827734,-0.1283899 C 2.3096768,7.3848935 2.1407061,6.7863193 2.4047537,6.3104342 2.4710119,6.1917108 3.0929521,5.1117987 4.6058065,3.839054 6.0996947,2.5819243 7.8027027,2.2768126 7.8743798,2.2644198 8.4086326,2.1727127 8.9197321,2.5345837 9.0118531,3.0741679 9.1034815,3.6127608 8.7453425,4.1238415 8.2110896,4.2180271 8.1812857,4.2234799 6.9354347,4.4634053 5.8696384,5.3599034 4.6336398,6.3999105 4.127713,7.27311 4.1225404,7.281785 3.9397762,7.6017682 3.6065147,7.7817122 3.2638933,7.7819601 Z"
                     id="path11"
                     fill="#ffffff" />
                </g>
                <g
                   id="g12">
                  <ellipse
                     id="ellipse12"
                     fill="#f6bdc0"
                     cx="11.760706"
                     cy="9.543726"
                     rx="11.760706"
                     ry="9.543726" />
                  <path
                     d="m 3.2638933,7.7819601 c -0.1640444,0 -0.3303057,-0.041392 -0.4827734,-0.1283899 C 2.3096768,7.3848935 2.1407061,6.7863193 2.4047537,6.3104342 2.4710119,6.1917108 3.0929521,5.1117987 4.6058065,3.839054 6.0996947,2.5819243 7.8027027,2.2768126 7.8743798,2.2644198 8.4101105,2.1727127 8.9199784,2.5345837 9.0118531,3.0741679 9.1034815,3.6127608 8.7453425,4.1238415 8.2110896,4.2180271 8.1812857,4.2234799 6.9354347,4.4634053 5.8696384,5.3599034 4.6336398,6.3999105 4.127713,7.27311 4.1225404,7.281785 3.9397762,7.6017682 3.6062684,7.7817122 3.2638933,7.7819601 Z"
                     id="path12"
                     fill="#ffffff" />
                </g>
              </g>
              <g
                 id="g17"
                 transform="translate(37.2,88.7567)">
                <g
                   id="g14">
                  <ellipse
                     id="ellipse13"
                     fill="#000000"
                     cx="13.854362"
                     cy="11.929658"
                     rx="11.791126"
                     ry="11.929658" />
                  <ellipse
                     id="ellipse14"
                     fill="#ffffff"
                     cx="17.856585"
                     cy="7.2227178"
                     rx="3.3900533"
                     ry="3.4298825" />
                  <path
                     d="m 5.4601791,4.9583683 c -0.052654,0 -0.1058007,-0.00448 -0.1591932,-0.013194 C 5.209702,4.9299892 4.3682168,4.779879 2.9111189,4.1483205 1.3499426,3.4712063 0.30842019,2.3539678 0.26486964,2.3069183 -0.10617117,1.9048817 -0.08476497,1.2748169 0.31260301,0.89966577 0.70997098,0.52401673 1.3327192,0.54592337 1.703514,0.94795995 1.7094191,0.95418343 2.5186719,1.8117785 3.6864171,2.3178716 4.919611,2.8523438 5.6164198,2.9793027 5.6230631,2.9805474 6.1564958,3.0748953 6.5172025,3.5877098 6.4269028,4.1276586 6.3454608,4.6135877 5.9316076,4.9583683 5.4601791,4.9583683 Z"
                     id="path14"
                     fill="#000000" />
                </g>
                <g
                   transform="translate(80.2323)"
                   id="g16">
                  <ellipse
                     id="ellipse15"
                     fill="#000000"
                     cx="11.791126"
                     cy="11.929658"
                     rx="11.791126"
                     ry="11.929658" />
                  <ellipse
                     id="ellipse16"
                     fill="#ffffff"
                     cx="14.678256"
                     cy="7.2227178"
                     rx="3.3900533"
                     ry="3.4298825" />
                  <path
                     d="m 20.185063,4.9583683 c -0.473889,0 -0.891433,-0.34727 -0.970169,-0.8356885 -0.0871,-0.5409446 0.274344,-1.0512696 0.808023,-1.1421324 0.02264,-0.00423 0.717477,-0.1344271 1.9364,-0.6626758 1.167253,-0.5060931 1.976506,-1.36368817 1.984625,-1.3721521 0.372272,-0.39880038 0.994774,-0.4187155 1.389927,-0.0428175 0.395154,0.375649 0.41656,1.0027265 0.0465,1.4040163 -0.04355,0.047049 -1.085073,1.1645369 -2.646003,1.8414022 -1.457344,0.6315585 -2.298829,0.7819176 -2.390113,0.796854 -0.05315,0.00871 -0.106539,0.013194 -0.159193,0.013194 z"
                     id="path16"
                     fill="#000000" />
                </g>
              </g>
              <g
                 id="g21"
                 transform="translate(48.6462,104.981)">
                <ellipse
                   id="ellipse17"
                   fill="#f6bdc0"
                   cx="41.969231"
                   cy="27.676929"
                   rx="40.861679"
                   ry="26.563639" />
                <g
                   transform="translate(19.5698,13.6622)"
                   fill="#000000"
                   id="g19">
                  <ellipse
                     transform="rotate(-13.8514,6.5535,4.7511)"
                     cx="6.5534897"
                     cy="4.7510967"
                     rx="5.9052858"
                     ry="3.424871"
                     id="ellipse18" />
                  <ellipse
                     transform="rotate(-76.1486,38.2245,4.739)"
                     cx="38.224514"
                     cy="4.739007"
                     rx="3.4248488"
                     ry="5.905282"
                     id="ellipse19" />
                </g>
                <path
                   d="m 64.45011,5.4934861 c 4.737921,4.9552679 7.554432,11.1462609 7.554432,17.8635999 0,18.493829 -23.885319,27.146379 -44.24686,27.146379 -3.077212,0 -5.896184,-0.250064 -8.467503,-0.72793 6.488732,2.819956 14.287864,4.465034 22.678806,4.465034 22.567287,0 40.86168,-11.892989 40.86168,-26.563639 0,-9.271155 -7.307516,-17.431245 -18.380555,-22.1834439 z"
                   id="path19"
                   fill="#dd9099" />
                <path
                   d="M 46.070539,1.2458662 C 44.721735,1.1585542 43.35373,1.1130431 41.969231,1.1130431 19.783026,1.1130431 1.7274236,12.608058 1.1242901,26.936385 6.7383554,13.8282 26.074816,2.2194079 46.070539,1.2458662 Z"
                   id="path20"
                   fill="#ffffff" />
                <path
                   d="m 41.969231,55.353612 c -11.125475,0 -21.600304,-2.826635 -29.495199,-7.959 C 4.4299542,42.165288 0,35.162763 0,27.676682 0,20.190849 4.4299542,13.188324 12.474032,7.9590002 20.368927,2.8266348 30.843756,0 41.969231,0 53.094706,0 63.569535,2.8266348 71.464429,7.9590002 79.508507,13.188324 83.938462,20.190849 83.938462,27.676682 c 0,7.486081 -4.429955,14.488606 -12.474033,19.71793 -7.894894,5.132365 -18.369723,7.959 -29.495198,7.959 z m 0,-53.1272784 c -21.920334,0 -39.7536385,11.4171014 -39.7536385,25.4505964 0,14.033495 17.8333045,25.450596 39.7536385,25.450596 21.920334,0 39.753638,-11.417101 39.753638,-25.450596 0,-14.033495 -17.83355,-25.4505964 -39.753638,-25.4505964 z"
                   id="path21"
                   fill="#000000" />
              </g>
              <path
                 d="m 126.08007,213.77947 -3.03392,-4.05738 0.76575,-0.6968 c 0.0678,-0.0618 6.8188,-6.24098 9.59369,-11.90353 2.74778,-5.60726 2.42196,-19.40944 2.41826,-19.54815 l 2.21715,-0.0603 c 0.0155,0.5895 0.34406,14.50702 -2.65141,20.6196 -2.42294,4.94439 -7.43248,10.02774 -9.3455,11.86885 l 0.96538,1.29106 c 2.64279,-0.55155 12.5761,-2.76631 19.8888,-6.28948 l 0.94788,2.04465 c -8.72467,4.20362 -20.59318,6.50709 -21.09423,6.60307 z"
                 id="path22"
                 fill="#000000" />
              <path
                 d="m 55.150728,213.77947 -0.672089,-0.12891 c -0.501048,-0.096 -12.369193,-2.39941 -21.094024,-6.60298 l 0.947875,-2.04462 c 7.312631,3.52312 17.246087,5.73785 19.888601,6.28939 l 0.965619,-1.29104 c -1.913,-1.84109 -6.922489,-6.92462 -9.345409,-11.86869 -2.995195,-6.11225 -2.666914,-20.02982 -2.651387,-20.61931 l 2.217129,0.0603 c -0.0037,0.13871 -0.329513,13.94045 2.418238,19.54788 2.774861,5.66247 9.52557,11.84155 9.593592,11.90337 l 0.765742,0.69678 z"
                 id="path23"
                 fill="#000000" />
              <g
                 id="g25"
                 transform="translate(104.9231,204.2357)">
                <path
                   d="M 21.367711,4.7536046 C 18.473371,0.51913268 11.899973,-0.13298633 6.6855508,3.2974595 2.7747344,5.8700481 0.74153084,10.007673 1.1892616,13.702359 c 0.053617,0.443431 0.428689,0.781903 0.8836856,0.781903 h 4.2410397 c 0.3693089,0 0.6178533,0.371411 0.4707812,0.703984 L 5.216082,18.732991 c -0.1894149,0.428191 -2.505e-4,0.924962 0.4264341,1.131683 3.2854465,1.592075 7.7589959,1.244508 11.5242429,-1.232463 5.214422,-3.430446 7.095292,-9.6441344 4.200952,-13.8786064 z"
                   id="path24"
                   fill="#333233" />
                <path
                   d="m 10.071718,21.95057 c -1.7315429,0 -3.4144792,-0.360595 -4.9287962,-1.094321 C 4.1755528,20.387746 3.7531275,19.261716 4.181566,18.292755 L 5.3771849,15.590382 H 2.0729472 c -1.0209864,0 -1.88237318,-0.755602 -2.00338826,-1.757501 C -0.44281337,9.6047998 1.907585,5.108792 6.0576755,2.3788886 11.77996,-1.3853596 19.068174,-0.59657338 22.304012,4.1376189 v 0 c 3.235838,4.734438 1.212907,11.6486691 -4.509628,15.4131631 -2.41028,1.585684 -5.121218,2.399788 -7.722666,2.399788 z M 6.3417978,18.966259 c 2.998067,1.349221 6.9730242,0.867444 10.1968352,-1.252865 4.689522,-3.08509 6.435346,-8.6225711 3.892526,-12.3440494 v 0 C 17.887838,1.6481122 12.003199,1.1309398 7.3134261,4.2160305 3.9252546,6.4447387 1.9702222,10.02193 2.2876675,13.377897 h 4.0260688 c 0.5547151,0 1.0678391,0.271614 1.3720053,0.726844 0.3041663,0.455475 0.3537749,1.025004 0.1325403,1.524232 z"
                   id="path25"
                   fill="#000000" />
              </g>
              <g
                 id="g27"
                 transform="translate(51.5077,204.2357)">
                <path
                   d="m 2.4784429,4.7537738 c 2.8943398,-4.23436983 9.4677381,-4.88647311 14.6821601,-1.45611 3.910816,2.5725265 5.94402,6.7100522 5.496289,10.4046482 -0.05362,0.44342 -0.428689,0.781885 -0.883686,0.781885 h -4.240789 c -0.369309,0 -0.617853,0.371401 -0.470781,0.703967 l 1.568686,3.544659 c 0.189415,0.428181 2.51e-4,0.924939 -0.426434,1.131656 C 14.918442,21.456515 10.444893,21.108957 6.6796453,18.632045 1.4652235,15.201683 -0.41564636,8.9881436 2.4784429,4.7537738 Z"
                   id="path26"
                   fill="#333233" />
                <path
                   d="M 13.774436,21.95057 C 11.172737,21.95057 8.4623,21.136486 6.05177,19.550594 0.32923524,15.786191 -1.6936958,8.8718809 1.542142,4.1378029 v 0 C 4.7779798,-0.59652097 12.066445,-1.385534 17.788729,2.379115 c 4.14984,2.7295917 6.500238,7.2254911 5.987866,11.453962 -0.121015,1.001628 -0.982402,1.757213 -2.003389,1.757213 h -3.304237 l 1.195619,2.702062 c 0.428438,0.968692 0.0063,2.094694 -0.961106,2.563678 -1.514066,0.733708 -3.197503,1.09454 -4.929046,1.09454 z M 3.4149943,5.3697447 C 0.87192395,9.0908873 2.617748,14.628235 7.3075206,17.713497 10.530831,19.834 14.505036,20.316257 17.504607,18.966331 L 16.027371,15.62888 c -0.220984,-0.498725 -0.171376,-1.068486 0.132791,-1.523459 0.304416,-0.455464 0.81729,-0.727071 1.372005,-0.727071 h 4.026069 C 21.875931,10.022218 19.920899,6.4453587 16.532728,4.2167042 11.842955,1.1311963 5.9583153,1.6488478 3.4149943,5.3697447 Z"
                   id="path27"
                   fill="#000000" />
              </g>
              <path
                 d="m 172.9248,204.09523 -4.47888,1.20542 c -1.7548,0.47235 -3.56238,-0.55918 -4.03753,-2.30366 l -1.23204,-4.52465 c -0.27828,-1.02221 -1.17504,-1.77292 -2.23833,-1.83546 -9.17757,-0.54177 -19.25759,5.03772 -25.32942,14.96797 -8.10788,13.26028 -5.99882,29.2561 4.71102,35.72781 10.70985,6.4717 25.96444,0.9685 34.07257,-12.29179 6.24231,-10.20934 6.42709,-22.03882 1.29444,-29.89596 -0.59381,-0.90866 -1.70989,-1.3327 -2.76183,-1.04968 z"
                 id="path28"
                 fill="#333233" />
              <path
                 d="m 177.64654,211.87072 c -1.45973,5.72392 -5.45903,17.60124 -14.9101,26.08405 -6.15365,5.52319 -16.60557,8.28036 -22.52106,9.46239 10.50983,6.34209 25.38844,0.82062 33.31387,-12.40187 4.54613,-7.58431 5.81761,-16.05975 4.11729,-23.14457 z"
                 id="path29"
                 fill="#1e1f1e" />
              <path
                 d="m 7.352123,204.09523 4.478882,1.20542 c 1.754794,0.47235 3.562383,-0.55918 4.037531,-2.30366 l 1.232032,-4.52465 c 0.27828,-1.02221 1.175044,-1.77292 2.238331,-1.83546 9.177576,-0.54177 19.257589,5.03772 25.329428,14.96797 8.107874,13.26028 5.998816,29.2561 -4.711029,35.72781 -10.709844,6.4717 -25.96444,0.9685 -34.0725608,-12.29179 -6.24231076,-10.20934 -6.42709085,-22.03882 -1.2944475,-29.89596 0.5938126,-0.90866 1.7098943,-1.3327 2.7618333,-1.04968 z"
                 id="path30"
                 fill="#333233" />
              <path
                 d="m 47.879463,215.68821 c 2.5e-4,0.003 0.998553,19.45465 -13.104487,25.79691 -6.471219,2.9104 -13.644152,3.46706 -19.513437,3.21833 8.051699,5.82475 17.91445,7.18061 25.518013,2.60196 9.670193,-5.82326 12.42278,-19.27974 7.099911,-31.6172 z"
                 id="path31"
                 fill="#1e1f1e" />
              <path
                 d="m 149.36304,251 c -3.75407,0 -7.32671,-0.9775 -10.4779,-2.91613 -5.43937,-3.34559 -8.94606,-9.13617 -9.87453,-16.30493 -0.91669,-7.07746 0.79608,-14.66749 4.82302,-21.37156 6.07511,-10.11367 16.35123,-16.26573 26.1804,-15.6765 1.52423,0.0915 2.81996,1.16853 3.22401,2.67969 l 1.22438,4.57714 c 0.31211,1.16755 1.50487,1.86147 2.65938,1.54465 l 4.45109,-1.21939 0.28832,1.07773 -0.28832,-1.07773 c 1.51222,-0.41433 3.10362,0.20095 3.9578,1.53125 2.66306,4.14967 3.96786,9.29396 3.77344,14.87664 -0.19736,5.66727 -1.94078,11.39136 -5.04195,16.55451 -4.02719,6.70383 -9.8966,11.73722 -16.52751,14.17204 C 154.90956,250.4847 152.08837,251 149.36304,251 Z m 9.33785,-54.0752 c -8.66068,0 -17.57243,5.63726 -22.98165,14.64268 -3.76706,6.27114 -5.37269,13.34612 -4.52096,19.92143 0.83996,6.48427 3.97693,11.70001 8.8328,14.68685 4.85635,2.98708 10.87581,3.40364 16.95091,1.173 6.16018,-2.26215 11.62751,-6.96185 15.39433,-13.233 2.90577,-4.83689 4.53861,-10.18735 4.72274,-15.47306 0.17848,-5.1222 -1.00374,-9.81893 -3.41868,-13.58181 -0.33024,-0.51431 -0.94538,-0.75298 -1.5306,-0.59221 l -4.45109,1.2194 c -2.32962,0.63885 -4.73525,-0.76067 -5.36583,-3.1166 l -1.22438,-4.57714 c -0.15618,-0.58402 -0.64848,-0.99933 -1.22488,-1.03406 -0.39375,-0.0238 -0.78823,-0.0355 -1.18271,-0.0355 z"
                 id="path32"
                 fill="#000000" />
              <path
                 d="m 29.995524,251 c -9.171866,0 -18.964493,-5.77273 -24.9327293,-15.70842 -3.10209,-5.1649 -4.84664777,-10.89147 -5.04383945,-16.56071 -0.19449378,-5.58509 1.11079745,-10.73114 3.77484715,-14.88242 0.8540068,-1.33106 2.445275,-1.94758 3.9595305,-1.53185 l 4.4527551,1.21987 c 1.153718,0.31694 2.347415,-0.37701 2.660125,-1.54525 l 1.224845,-4.57893 c 0.404685,-1.51199 1.700901,-2.58915 3.225458,-2.68073 9.829907,-0.59492 20.11257,5.56474 26.190194,15.68235 8.363969,13.9244 6.096755,30.83258 -5.053405,37.69116 C 37.259242,250.06977 33.677417,251 29.995524,251 Z M 6.809805,204.42351 c -0.4628118,0 -0.9033046,0.2338 -1.1647553,0.64183 -2.4160886,3.76435 -3.5985029,8.4629 -3.4201965,13.5871 0.1841928,5.28777 1.8178915,10.64031 4.7245066,15.47909 7.7314342,12.87156 22.2475872,18.28417 32.3575852,12.06468 10.110243,-6.21898 12.045125,-21.75018 4.313445,-34.622 -5.657733,-9.41919 -15.148196,-15.15692 -24.173149,-14.61264 -0.576859,0.0348 -1.069103,0.45023 -1.225581,1.03472 l -1.224845,4.57868 c -0.630571,2.35709 -3.03783,3.75591 -5.367586,3.1178 L 7.1764736,204.4729 c -0.1218958,-0.0335 -0.245018,-0.0494 -0.3666686,-0.0494 z"
                 id="path33"
                 fill="#000000" />
              <g
                 id="g35"
                 transform="translate(166.9231,123.1141)">
                <path
                   d="m 13.147234,1.7330098 c 0,0 6.574019,9.1064592 4.38268,18.2129182 -2.19134,9.106459 -8.7653591,6.829844 -13.1480385,4.55323 -4.38267934777,-2.276615 -4.38267934777,-9.106459 0,-13.659689 C 8.7645549,6.2862394 13.147234,1.7330098 13.147234,1.7330098 Z"
                   id="path34"
                   fill="#333233" />
                <path
                   d="m 10.981704,27.676806 c -2.5526676,0 -5.1474572,-1.150702 -7.0897146,-2.159496 C 1.8433302,24.453119 0.50125642,22.497254 0.11265885,20.009673 -0.41301919,16.64256 0.92588936,12.820377 3.6076022,10.034559 L 13.266297,0 14.024014,1.0497724 c 0.281222,0.3895541 6.860841,9.6493056 4.569186,19.1721316 -0.832709,3.460961 -2.369325,5.7482 -4.567482,6.798225 -0.976607,0.466706 -2.007024,0.656677 -3.044014,0.656677 z M 12.978745,3.5178758 5.1566358,11.644126 c -2.1920701,2.277626 -3.2960183,5.343215 -2.8808812,8.000783 0.2724566,1.745405 1.1945236,3.107832 2.5962506,3.835843 3.6480936,1.895408 6.3431978,2.37628 8.2377328,1.471199 1.56413,-0.747488 2.693643,-2.524513 3.357376,-5.282505 1.610148,-6.69173 -1.914257,-13.5395342 -3.488369,-16.1515702 z"
                   id="path35"
                   fill="#000000" />
              </g>
              <g
                 id="g37"
                 transform="translate(22.8923,4.7719)">
                <path
                   d="m 135.27483,52.642488 c 0,0 -0.61891,-53.8457052 -75.754254,-51.453221 C -8.0383528,3.3405773 1.5908542,65.617494 1.5908542,65.617494 L 86.25737,58.952505 Z"
                   id="path36"
                   fill="#1569b5" />
                <path
                   d="M 0.64763954,66.806084 0.48994196,65.786834 C 0.44711358,65.511101 -0.54313807,58.931029 0.41889141,49.903918 1.3091276,41.552194 4.1246606,29.489551 12.483375,19.45109 22.629246,7.2669964 38.442822,0.74913085 59.484926,0.07892918 86.282622,-0.77739848 106.73157,5.3378524 120.25147,18.246455 c 8.22107,7.849382 12.1692,16.759979 14.03385,22.852766 2.02432,6.615619 2.10082,11.333197 2.10329,11.530678 L 136.4,53.617798 86.345007,60.060127 Z M 64.345824,2.2223403 c -1.573757,0 -3.16732,0.025673 -4.789599,0.077265 C 39.187739,2.9480835 23.930931,9.1914503 14.209631,20.855921 6.2145867,30.449062 3.5062485,42.036763 2.6420064,50.068075 1.9163995,56.811562 2.3320576,62.251921 2.5660045,64.426436 L 86.142006,57.847351 134.10707,51.672856 C 133.97883,49.987848 133.5503,46.278905 132.12632,41.656118 130.33248,35.832399 126.54328,27.317011 118.67994,19.821614 106.41865,8.1344324 88.152217,2.2223403 64.345824,2.2223403 Z"
                   id="path37"
                   fill="#000000" />
              </g>
              <g
                 id="g39"
                 transform="translate(23.8462,53.4449)">
                <path
                   d="m 1.464318,17.267296 c 0,0 15.491525,-13.0355717 66.392252,-15.2081671 50.90073,-2.17259526 66.39225,0 66.39225,0 0,0 33.19613,17.3807621 24.34383,23.8985481 -8.8523,6.517786 -55.32688,-13.035571 -77.457629,-6.517786 C 59.00427,25.957677 45.810408,37.347388 30.276588,37.084021 14.742769,36.820654 1.464318,17.267296 1.464318,17.267296 Z"
                   id="path38"
                   fill="#4a8bc9" />
                <path
                   d="m 30.806251,38.174905 c -0.182702,0 -0.365157,-0.0017 -0.548597,-0.0048 C 23.623839,38.057585 16.370608,34.493804 9.2821287,27.863526 3.9926333,22.915803 0.68211892,18.07357 0.54392467,17.870071 L 0,17.069348 0.74433092,16.442675 C 0.90883617,16.304354 4.8933549,13.010216 15.206039,9.4534364 32.253602,3.5734279 53.221259,1.5968489 67.808866,0.97403829 118.23304,-1.1782795 133.76908,0.89485927 134.4057,0.98393567 l 0.19254,0.0270367 0.17139,0.089801 c 0.0637,0.033313 6.43366,3.3791099 12.79231,7.6287063 8.88624,5.9386683 13.34263,10.5711243 13.62394,14.1621833 0.12172,1.555336 -0.5454,2.916347 -1.92931,3.935294 -4.51148,3.321898 -16.34233,0.812792 -31.32165,-2.362818 -16.35438,-3.46698 -34.891096,-7.397205 -46.481954,-3.983333 -9.090821,2.677362 -16.775355,6.237038 -23.554988,9.377887 -9.619499,4.455751 -17.952956,8.316212 -27.091727,8.316212 z M 2.9923234,17.508454 c 2.7370821,3.696309 14.3449066,18.270078 27.3034446,18.489752 8.832137,0.145564 17.096251,-3.675307 26.657719,-8.104505 6.849959,-3.173437 14.614164,-6.769807 23.863589,-9.494 12.137241,-3.574885 30.969524,0.418104 47.585294,3.940846 13.28017,2.815201 25.82363,5.474458 29.52636,2.748575 0.78023,-0.574531 1.11391,-1.219792 1.05047,-2.030652 -0.12566,-1.603134 -1.9357,-5.361724 -12.64846,-12.523323 C 140.65715,6.7422788 134.96906,3.6779539 133.90457,3.1116307 131.98952,2.8847152 115.14236,1.1282926 67.90452,3.1449438 53.546827,3.7576157 32.913344,5.6926739 16.15176,11.430257 8.6720576,13.990298 4.5933603,16.42626 2.9923234,17.508454 Z"
                   id="path39"
                   fill="#000000" />
              </g>
              <g
                 id="g44"
                 transform="translate(31.4769,14.3156)">
                <g
                   transform="translate(99.2545,1e-4)"
                   id="g41">
                  <path
                     d="m 1.4249277,14.830646 c 0,0 2.2817099,4.424171 5.4021931,6.862836 3.1207298,2.438666 8.1324002,3.392992 8.9931292,2.995543 0.860729,-0.397449 4.632495,-10.261051 5.942708,-13.777903 1.310214,-3.517101 1.765125,-10.54483618 -0.89576,-9.8708143 -2.660885,0.6740219 -2.361393,5.7289373 -9.574843,9.3569663 -7.2129567,3.627779 -9.8674273,4.433372 -9.8674273,4.433372 z"
                     id="path40"
                     fill="#ffffff" />
                  <path
                     d="m 15.18821,25.757014 c -2.155401,0 -6.3576547,-1.239106 -8.9654994,-3.27709 C 2.9685172,19.936797 0.64659549,15.478304 0.54964317,15.289528 L 0,14.224275 1.1397448,13.878311 c 0.060934,-0.0189 2.7524097,-0.870757 9.7125012,-4.371194 4.065336,-2.0446989 5.601525,-4.5811104 6.723507,-6.4333027 0.854315,-1.4104716 1.592189,-2.62868533 3.051161,-2.99852686 0.827919,-0.20892191 1.591449,0.02014604 2.14726,0.64765793 C 24.548179,2.7263573 23.660313,8.64805 22.686842,11.260818 17.57896,24.971318 16.668644,25.3914 16.231496,25.593607 15.993185,25.703788 15.63424,25.757014 15.18821,25.757014 Z M 2.8651507,15.365884 c 0.8370464,1.397539 2.5284079,3.948624 4.5666269,5.541405 2.6194394,2.046689 6.7960364,2.960971 7.8911294,2.877154 0.739847,-1.060528 3.004782,-6.481305 5.516661,-13.223265 1.084978,-2.9124712 1.33587,-7.5271583 0.462559,-8.5133195 -0.05403,-0.060687 -0.06661,-0.075361 -0.194152,-0.043028 -0.646102,0.1634068 -1.077823,0.8344441 -1.847768,2.1056345 -1.176256,1.9419789 -2.953962,4.8765857 -7.527003,7.176468 -4.6801079,2.354351 -7.4621213,3.53277 -8.8680533,4.078951 z"
                     id="path41"
                     fill="#000000" />
                </g>
                <g
                   id="g43">
                  <path
                     d="m 22.366623,14.83075 c 0,0 -2.28171,4.42417 -5.402193,6.862836 C 13.8437,24.132252 8.8320297,25.086577 7.9713004,24.689128 7.110571,24.291679 3.3388051,14.428078 2.028592,10.911226 0.71837882,7.3941247 0.26346769,0.36638944 2.9243524,1.0404113 c 2.6608848,0.6740219 2.3613934,5.7289374 9.5748436,9.3569657 7.213203,3.62778 9.867427,4.433373 9.867427,4.433373 z"
                     id="path42"
                     fill="#ffffff" />
                  <path
                     d="m 8.6181426,25.768061 c -0.4144527,0 -0.7859799,-0.04875 -1.0575944,-0.174351 C 7.1229059,25.391753 6.2125902,24.971173 1.1047079,11.260921 0.13123756,8.6479049 -0.75638189,2.7262122 1.0173768,0.72304899 1.572694,0.0955371 2.3347442,-0.13377957 3.1643896,0.07539106 4.6236083,0.44498387 5.3612354,1.6634463 6.2157973,3.0741667 c 1.1217359,1.8519435 2.6579244,4.3886037 6.7232607,6.4330539 7.005977,3.5235674 9.687338,4.3634834 9.713488,4.3714424 l 1.135551,0.3487 -0.545943,1.062269 c -0.0972,0.188776 -2.419121,4.647518 -5.673314,7.190396 -1.969144,1.539058 -4.405533,2.373005 -5.682689,2.733146 -0.555317,0.156443 -2.0858316,0.554887 -3.2680084,0.554887 z M 8.4688902,23.784795 C 9.5622558,23.86911 13.740333,22.95433 16.359773,20.907642 18.397992,19.314861 20.0896,16.763775 20.9264,15.366237 19.520714,14.820304 16.738208,13.641387 12.058346,11.287783 7.4853053,8.9879004 5.7078461,6.0532937 4.53159,4.1113147 3.7616455,2.8403731 3.3296773,2.1690871 2.6835752,2.0056803 2.5560323,1.9733472 2.5434507,1.9877727 2.4896706,2.0484596 1.6163596,3.0346207 1.8672515,7.6493079 2.9522293,10.561779 c 2.5118792,6.741462 4.7765669,12.16224 5.5166609,13.223016 z"
                     id="path43"
                     fill="#000000" />
                </g>
              </g>
              <g
                 id="g46"
                 transform="translate(71.5385,13.3612)">
                <g
                   transform="translate(0.9032,0.9992)"
                   id="g45">
                  <path
                     d="m 39.971888,19.996975 c 0,11.044491 -8.947545,19.996484 -19.985944,19.996484 C 8.9487727,39.993459 0,31.041466 0,19.996975 0,8.9537119 8.9487727,0 19.985944,0 31.024343,0 39.971888,8.9537119 39.971888,19.996975"
                     id="path44"
                     fill="#f15b52" />
                  <path
                     d="M 29.51075,28.216434 21.555004,9.0605346 C 21.328223,8.507512 20.87417,8.2152842 20.32268,8.2152842 c -0.551982,0 -1.038923,0.2922278 -1.266195,0.8452504 L 10.324922,30.072203 H 13.3121 l 3.456203,-8.663694 10.315104,8.338315 c 0.415275,0.335693 0.714213,0.487701 1.103472,0.487701 0.778762,0 1.460333,-0.584947 1.460333,-1.428478 -2.46e-4,-0.137519 -0.04884,-0.35534 -0.136462,-0.589613 M 20.32268,12.501947 25.495203,25.27402 17.68279,19.117099 Z"
                     id="path45"
                     fill="#ffffff" />
                </g>
                <path
                   d="M 20.984615,41.992395 C 9.4136248,41.992395 0,32.573575 0,20.996198 0,9.4188206 9.4136248,0 20.984615,0 c 11.570991,0 20.984616,9.4188206 20.984616,20.996198 0,11.577377 -9.413625,20.996197 -20.984616,20.996197 z m 0,-39.7822689 c -10.353146,0 -18.7757081,8.4272109 -18.7757081,18.7860719 0,10.358861 8.4225621,18.786071 18.7757081,18.786071 10.353147,0 18.775709,-8.42721 18.775709,-18.786071 0,-10.358861 -8.422562,-18.7860719 -18.775709,-18.7860719 z"
                   id="path46"
                   fill="#000000" />
              </g>
              <path
                 d="m 33.384615,71.617177 c 0,0 8.647962,13.099388 19.946607,13.317052 11.081448,0.213539 22.162896,-6.551756 31.028054,-10.919594 8.865158,-4.367838 24.379184,-6.765295 24.379184,-6.765295 0,0 -8.865157,-1.970381 -24.379184,2.397457 -15.514027,4.367838 -22.162896,8.735676 -31.028054,8.735676 -8.865159,0 -19.946607,-6.765296 -19.946607,-6.765296 z"
                 id="path47"
                 fill="#abd9f3" />
            </g>
          </g>
          <g
             id="Group-2">
            <path
               d="m 184.56142,141.70873 c 40.25206,0.0145 72.83724,0.3369 97.75554,0.96743 l 0.1646,7.35212 c -0.50546,0.0958 -1.37655,0.18329 -2.61275,0.26576 -2.56972,0.17143 -6.68461,0.31447 -12.34464,0.42952 -11.3391,0.23048 -28.86921,0.34797 -52.59028,0.35253 h -2.90333 C 163.6799,151.067 91.496901,150.60751 -4.5184321,149.69765 l 8.92e-5,-7.00867 C 76.148122,142.04824 137.37958,141.72145 179.17586,141.70861 Z"
               id="Rectangle"
               stroke="#000000"
               fill="#925d32"
               transform="rotate(-123,139.0475,146.3922)" />
            <g
               id="Group-4">
              <path
                 d="m 58.364,29.412 0.832612,9.11e-4 c 23.540974,0.01177 57.490638,0.115498 101.847508,0.311887 1.29813,4.779382 2.00644,14.539788 2.14317,29.277155 0.0607,6.544306 0.0851,12.367578 0.088,17.525251 l -2.3e-4,2.425253 c -0.006,8.179502 -0.0647,14.564372 -0.10918,19.406709 -0.0179,1.952764 -0.0335,3.654794 -0.0425,5.122624 -0.0635,10.41549 -0.98874,21.12714 -2.77517,32.13497 L 29.681161,130.64337 C 28.283852,117.06629 27.544204,107.30124 27.46375,101.34818 27.41564,97.787982 27.3925,94.389556 27.38943,91.155077 l 2.88e-4,-1.74887 c 0.02305,-17.991588 0.661627,-30.728831 1.022002,-37.917334 0.143383,-2.860099 0.242548,-4.846091 0.242548,-5.939605 0,-5.465668 0.336987,-10.740183 1.011238,-15.823527 l 31.940832,-5.4e-4 z"
                 id="path48"
                 stroke="#925d32"
                 fill="#e1c4a7"
                 transform="rotate(-29,90.2755,82.5225)" />
              <text
                 id="Produce!-Maintain!-P"
                 transform="rotate(-29,96.1715,75.5766)"
                 font-family="RedHatDisplay-Medium, 'Red Hat Display'"
                 font-size="18px"
                 font-weight="400"
                 line-spacing="30"
                 fill="#151515"><tspan
                   x="50.671539"
                   y="48.576649"
                   id="tspan48">Produce!</tspan><tspan
                   x="50.671539"
                   y="78.576645"
                   id="tspan49">Maintain!</tspan><tspan
                   x="50.671539"
                   y="108.57664"
                   id="tspan50">Popularize!</tspan></text>
              <circle
                 id="circle50"
                 fill="#000000"
                 cx="69.156319"
                 cy="39.000275"
                 r="2" />
              <circle
                 id="Oval-Copy"
                 fill="#000000"
                 cx="119.15632"
                 cy="117.00027"
                 r="2" />
            </g>
          </g>
        </g>
      </g>
    </g>
  </g>
</svg>
