<?xml version="1.0" encoding="UTF-8" standalone="no"?>
<svg
   width="311.16592"
   height="302.00873"
   viewBox="0 0 311.16592 302.00872"
   version="1.1"
   id="svg49"
   sodipodi:docname="mascot-picket-three.svg"
   inkscape:version="1.3 (0e150ed6c4, 2023-07-21)"
   xmlns:inkscape="http://www.inkscape.org/namespaces/inkscape"
   xmlns:sodipodi="http://sodipodi.sourceforge.net/DTD/sodipodi-0.dtd"
   xmlns="http://www.w3.org/2000/svg"
   xmlns:svg="http://www.w3.org/2000/svg">
  <defs
     id="defs49" />
  <sodipodi:namedview
     id="namedview49"
     pagecolor="#ffffff"
     bordercolor="#111111"
     borderopacity="1"
     inkscape:showpageshadow="0"
     inkscape:pageopacity="0"
     inkscape:pagecheckerboard="1"
     inkscape:deskcolor="#d1d1d1"
     inkscape:zoom="2.4745223"
     inkscape:cx="157"
     inkscape:cy="144.06821"
     inkscape:window-width="1920"
     inkscape:window-height="979"
     inkscape:window-x="0"
     inkscape:window-y="0"
     inkscape:window-maximized="1"
     inkscape:current-layer="svg49" />
  <title
     id="title1">Group 5 Copy</title>
  <g
     id="Page-1"
     stroke="none"
     stroke-width="1"
     fill="none"
     fill-rule="evenodd"
     transform="matrix(0.99997542,0,0,1.0266466,-0.15629616,-7.1721452)">
    <g
       id="Mission-Page"
       transform="translate(-937,-792)">
      <g
         id="Group-9"
         transform="translate(350,783)">
        <g
           id="Group-5-Copy"
           transform="translate(587.1563,9.844)">
          <g
             id="Group-6">
            <ellipse
               id="Oval"
               fill="#616161"
               opacity="0.749562"
               cx="93"
               cy="285.81207"
               rx="93"
               ry="14.5" />
            <g
               id="galaxy-logo-ansibull"
               transform="translate(0.1607,59.156)"
               fill-rule="nonzero">
              <g
                 id="Group"
                 transform="translate(17.4666,111.9313)">
                <path
                   d="m 150.99456,46.158094 c 0,-19.698572 -33.55435,-45.0730032 -74.954735,-45.0730032 -41.400388,0 -74.9547342,25.3744312 -74.9547342,45.0730032 0,10.016222 8.6807265,19.114291 22.7034382,25.624836 l 4.256895,39.73102 c 0,0 29.798263,-11.936001 47.076247,-12.353344 33.470879,-0.834685 49.162959,12.353344 49.162959,12.353344 l 2.67099,-39.14674 c 14.77393,-6.510545 24.03894,-15.85902 24.03894,-26.209116 z"
                   id="Path"
                   fill="#565656" />
                <path
                   d="m 125.20279,113.60066 -1.58591,-1.3355 c 0,0 -3.92302,-3.25527 -11.85253,-6.42707 -7.26176,-2.83793 -19.531631,-6.176673 -36.642679,-5.75933 -16.94411,0.41734 -46.408499,12.1864 -46.742373,12.35334 L 27.12727,112.93291 22.786907,72.450678 C 8.0964468,65.522791 0,56.174316 0,46.158094 0,35.974934 8.3468524,24.456277 22.453033,15.358208 29.547857,10.76744 37.89471,6.9278875 46.575436,4.3403632 56.090848,1.5024334 66.023602,0 76.039825,0 c 10.016223,0 19.948977,1.4189649 29.464385,4.3403632 8.68073,2.5875243 17.02758,6.4270768 24.12241,11.0178448 14.02271,9.098069 22.45303,20.616726 22.45303,30.799886 0,5.341985 -2.25365,10.433565 -6.76095,15.274739 -4.17343,4.423832 -9.93276,8.346853 -17.36145,11.685594 z M 76.039825,2.0867131 c -9.765817,0 -19.531635,1.4189649 -28.880109,4.2568947 -8.51379,2.5040557 -16.610236,6.2601392 -23.538124,10.7674392 -6.594013,4.256895 -12.019467,9.181538 -15.7755508,14.356586 -3.7560835,5.09158 -5.6758596,10.18316 -5.6758596,14.773929 0,4.674237 2.0032446,9.181538 5.8427967,13.438432 3.8395517,4.256895 9.2650057,8.012979 16.2763617,11.268251 l 0.500811,0.250406 4.173427,38.979799 c 2.504055,-1.00162 8.597258,-3.25527 15.859019,-5.59239 12.854153,-4.08996 23.037313,-6.260139 30.299074,-6.427076 17.444922,-0.417343 30.048669,3.004866 37.560839,5.926266 5.34198,2.08671 8.84766,4.25689 10.76744,5.50892 l 2.58752,-37.894708 0.58428,-0.250406 c 7.34523,-3.255272 13.18803,-7.094824 17.19452,-11.435188 4.08995,-4.423831 6.17667,-9.0146 6.17667,-13.855774 0,-4.590769 -2.00325,-9.682349 -5.67586,-14.773929 -3.75609,-5.09158 -9.18154,-10.016223 -15.77555,-14.356586 C 121.61364,12.520279 113.51719,8.8476635 105.0034,6.2601393 95.57146,3.505678 85.805642,2.0867131 76.039825,2.0867131 Z"
                   id="Shape"
                   fill="#000000" />
              </g>
              <g
                 id="g2"
                 transform="translate(154.4385,133.1323)">
                <path
                   d="m 18.029201,6.5105448 c 0,0 -2.086713,6.1766712 -4.089958,8.1799152 -2.086713,2.086713 -8.1799149,6.176671 -8.1799149,6.176671 L 1.6693705,14.69046 c 0,0 6.1766707,-2.086713 8.1799153,-4.089958 C 11.935999,8.5137894 18.029201,2.4205872 18.029201,2.4205872 Z"
                   id="path1"
                   fill="#333233" />
                <path
                   d="M 5.425454,22.286096 0,14.189649 1.2520278,13.772306 C 2.9213983,13.188027 7.5121671,11.435188 9.0146006,9.9327543 L 18.947355,0 v 6.7609504 l -0.08347,0.1669371 c -0.08347,0.2504055 -2.170181,6.4270765 -4.340363,8.5972575 -2.086713,2.086713 -8.0964467,6.093203 -8.3468522,6.26014 z M 3.2552724,15.191271 6.0097337,19.364697 C 7.7625727,18.196138 11.685593,15.441677 13.188027,13.939243 14.69046,12.43681 16.359831,8.0964468 16.94411,6.3436078 V 4.9246429 l -6.427076,6.4270761 c -1.585902,1.585902 -5.3419855,3.171804 -7.2617616,3.839552 z"
                   id="path2"
                   fill="#000000" />
              </g>
              <path
                 d="m 140.08188,186.05134 c 17.27799,-6.51055 28.3793,-16.61024 28.3793,-27.96196 0,-14.27311 -17.52839,-31.46763 -42.90282,-39.89795 l -57.509811,9.0146 c 0,0 40.983041,16.35983 61.432831,20.44979 20.44979,4.08996 18.44655,12.26987 18.44655,20.44979 0,7.17829 -6.26014,15.85902 -7.84605,17.94573 z"
                 id="path3"
                 fill="#333233" />
              <path
                 d="m 93.506448,194.81553 c -20.199382,0 -39.146737,-3.75608 -53.419855,-10.6005 -14.523523,-6.92789 -22.536501,-16.19289 -22.536501,-26.20912 0,-10.18316 8.346852,-21.70181 22.453033,-30.79988 7.094824,-4.59077 15.441676,-8.43032 24.122403,-11.01784 9.515412,-2.83793 19.448166,-4.34037 29.464389,-4.34037 10.016223,0 19.948973,1.41897 29.464393,4.34037 8.68072,2.58752 17.02757,6.42707 24.1224,11.01784 14.02271,9.09807 22.45303,20.61672 22.45303,30.79988 0,9.93276 -8.01298,19.28123 -22.5365,26.20912 -14.44005,6.84442 -33.47088,10.6005 -53.586792,10.6005 z m 0,-80.79753 c -9.765817,0 -19.531634,1.41897 -28.880109,4.2569 -8.513789,2.50405 -16.610236,6.26014 -23.538124,10.76744 -6.594013,4.25689 -12.019467,9.18153 -15.775551,14.35658 -3.756083,5.09158 -5.675859,10.18316 -5.675859,14.77393 0,9.09807 7.595636,17.7788 21.367942,24.37281 14.022712,6.67748 32.719661,10.3501 52.58517,10.3501 19.865513,0 38.562453,-3.67262 52.585173,-10.3501 13.7723,-6.59401 21.36794,-15.19127 21.36794,-24.37281 0,-4.59077 -2.00325,-9.68235 -5.67586,-14.77393 -3.75608,-5.09158 -9.18154,-10.01622 -15.77555,-14.35658 -6.92789,-4.5073 -15.02434,-8.17992 -23.53813,-10.76744 -9.51541,-2.83793 -19.28122,-4.2569 -29.047042,-4.2569 z"
                 id="path4"
                 fill="#000000" />
              <g
                 id="g7"
                 transform="translate(20.5025,61.8036)">
                <g
                   transform="translate(122.3782,1e-4)"
                   id="g5">
                  <ellipse
                     id="ellipse4"
                     fill="#333233"
                     transform="rotate(-13.062,11.7973,8.7376)"
                     cx="11.797333"
                     cy="8.7376356"
                     rx="10.600221"
                     ry="6.5103717" />
                  <path
                     d="m 9.5545417,16.57321 c -1.5024334,0 -3.0048668,-0.250406 -4.3403632,-0.667749 -2.5875242,-0.834685 -4.2568947,-2.504055 -4.75770584,-4.5073 v 0 C -0.04433848,9.311448 0.79034676,7.1412664 2.7101228,5.2214903 4.5464303,3.4686514 7.1339546,2.0496864 10.055353,1.3819383 c 6.343608,-1.50243346 12.019467,0.5842796 13.02109,4.6742373 0.500811,2.0867131 -0.333875,4.2568944 -2.253651,6.1766704 -1.836307,1.752839 -4.423831,3.171804 -7.34523,3.839552 -1.335496,0.333874 -2.670992,0.500812 -3.9230203,0.500812 z M 14.061842,2.9678402 c -1.085091,0 -2.25365,0.1669371 -3.505678,0.4173426 C 7.9686398,3.9694625 5.7149896,5.1380218 4.2125562,6.6404552 2.7935913,8.0594201 2.2093117,9.5618536 2.5431858,10.89735 v 0 c 0.3338741,1.335496 1.5024334,2.420587 3.4222094,3.004867 2.0867131,0.667748 4.5907688,0.751217 7.1782928,0.166937 2.587525,-0.58428 4.841175,-1.752839 6.343608,-3.255273 1.418965,-1.4189645 2.003245,-2.9213979 1.66937,-4.2568943 C 20.655855,4.3868051 17.650988,2.9678402 14.061842,2.9678402 Z"
                     id="path5"
                     fill="#000000" />
                </g>
                <g
                   id="g6">
                  <ellipse
                     id="ellipse5"
                     fill="#333233"
                     transform="rotate(-76.938,11.7973,8.7376)"
                     cx="11.797333"
                     cy="8.7376356"
                     rx="6.5103717"
                     ry="10.600221" />
                  <path
                     d="m 14.075155,16.489875 c -1.252028,0 -2.670992,-0.166938 -4.006489,-0.500812 C 7.1472678,15.321315 4.5597436,13.985819 2.723436,12.149511 0.80365999,10.229735 -0.03102525,8.0595537 0.46978589,5.9728406 0.97059703,3.8861275 2.6399675,2.3002256 5.2274917,1.4655403 7.6480789,0.6308551 10.569477,0.6308551 13.490876,1.2986033 c 6.343607,1.5024334 10.517033,5.8427966 9.59888,9.9327547 v 0 c -0.751217,3.338741 -4.423832,5.258517 -9.014601,5.258517 z M 9.4843864,2.9679738 c -1.3354963,0 -2.5875242,0.166937 -3.672615,0.5842796 C 3.9754639,4.2200016 2.723436,5.2216239 2.3895619,6.5571203 2.0556878,7.8926166 2.723436,9.3950501 4.0589324,10.814015 c 1.5024334,1.502433 3.8395521,2.670993 6.3436076,3.255272 5.008112,1.16856 9.849286,-0.250405 10.517034,-3.171803 v 0 C 21.587322,7.9760852 17.914707,4.5538757 12.823127,3.3853164 11.821505,3.0514423 10.652946,2.9679738 9.4843864,2.9679738 Z"
                     id="path6"
                     fill="#000000" />
                </g>
              </g>
              <path
                 d="m 159.69699,80.463657 c 2.58752,12.353341 4.67423,30.132133 -1.3355,39.647543 -11.76906,18.44655 -41.40039,23.78869 -65.856664,23.78869 -25.207494,0 -52.334764,0.25025 -63.769952,-19.19792 -5.425454,-9.18153 -4.5073,-33.804748 -1.418965,-44.238313 9.682349,-33.137004 17.611859,-56.758596 64.4377,-55.923911 49.162961,0.918154 60.765081,21.868753 67.943381,55.923911 z"
                 id="path7"
                 fill="#455367" />
              <path
                 d="M 159.69699,80.463657 C 152.51869,46.408499 140.91657,25.4579 91.670141,24.539746 80.98617,24.372809 72.388912,25.4579 65.294087,27.628081 110.78443,29.9652 122.05268,49.079492 129.14751,79.211629 c 2.67099,11.435188 4.84117,27.878491 -1.41897,36.726151 -12.1864,17.11105 -42.81935,22.03569 -68.110312,22.03569 -5.341986,0 -10.76744,0 -16.109425,-0.16694 13.438432,6.26014 31.718039,6.1767 48.996023,6.1767 24.456274,0 54.087604,-5.34201 65.856664,-23.78856 6.00973,-9.59888 3.92302,-27.377672 1.3355,-39.731013 z"
                 id="path8"
                 fill="#2c3a4e" />
              <path
                 d="m 90.751987,144.90136 c -12.269873,0 -24.87362,-0.0835 -35.974934,-2.42059 -12.937621,-2.75446 -21.785284,-8.43032 -27.043801,-17.27798 -3.42221,-5.75933 -4.006489,-16.35983 -4.006489,-22.20263 -0.08347,-8.513791 0.918153,-17.528392 2.504055,-22.953846 C 31.489335,62.18405 35.829698,48.745618 44.76083,38.979801 54.777053,27.961955 69.634451,23.037312 91.670141,23.454655 c 23.705059,0.417343 39.731019,5.425454 50.498459,15.775551 10.93437,10.517034 15.35821,25.875242 18.53001,40.899577 v 0 c 5.00811,23.621587 1.91978,35.056777 -1.50243,40.398767 -5.50893,8.59726 -15.19128,15.1078 -28.71318,19.19776 -13.60537,4.17342 -28.12889,5.00811 -37.978174,5.00811 h -0.834685 c -0.333874,0.16694 -0.58428,0.16694 -0.918154,0.16694 z M 89.249554,25.541368 c -20.032446,0 -33.721284,4.757706 -42.98629,14.857397 -8.597258,9.431944 -12.937621,22.703439 -18.11267,40.315297 -3.088335,10.683971 -3.756083,34.889838 1.335497,43.487098 4.924643,8.34685 13.354963,13.60537 25.708305,16.27637 11.101314,2.33711 23.955466,2.33711 36.392276,2.33711 h 0.834685 c 9.682353,0 24.038933,-0.83468 37.393903,-4.92464 13.10455,-4.00649 22.36956,-10.18316 27.54461,-18.36307 6.17667,-9.68235 3.42221,-28.546239 1.25203,-38.896336 v 0 C 155.52356,65.940134 151.1832,50.915799 140.66616,40.732639 130.31607,30.716417 114.70745,25.875242 91.586672,25.4579 c -0.751216,0.08347 -1.585902,0.08347 -2.337118,0.08347 z"
                 id="path9"
                 fill="#000000" />
              <ellipse
                 id="ellipse9"
                 fill="#707070"
                 cx="94.174194"
                 cy="177.03674"
                 rx="28.629704"
                 ry="29.714794" />
              <ellipse
                 id="ellipse10"
                 fill="#bb98b0"
                 cx="144.75612"
                 cy="104.25219"
                 rx="10.850908"
                 ry="8.7641954" />
              <path
                 d="m 136.91008,102.66628 c -0.16694,0 -0.33387,0 -0.41734,-0.0835 -0.41735,-0.25041 -0.58428,-0.83469 -0.33388,-1.25203 0.0835,-0.0835 0.66775,-1.08509 2.00325,-2.253652 1.41896,-1.16856 2.9214,-1.418965 3.00486,-1.418965 0.50082,-0.08347 1.00163,0.250405 1.0851,0.751216 0.0835,0.500812 -0.25041,1.001623 -0.75122,1.085091 0,0 -1.16856,0.250406 -2.17018,1.08509 -1.16856,0.91816 -1.5859,1.75284 -1.5859,1.75284 -0.25041,0.16694 -0.58428,0.33387 -0.83469,0.33387 z"
                 id="path10"
                 fill="#bbc9dd" />
              <ellipse
                 id="ellipse11"
                 fill="#bb98b0"
                 cx="42.256775"
                 cy="104.25219"
                 rx="10.850908"
                 ry="8.7641954" />
              <path
                 d="m 34.410734,102.66628 c -0.166937,0 -0.333875,0 -0.417343,-0.0835 -0.417343,-0.25041 -0.58428,-0.83469 -0.333874,-1.25203 0.08347,-0.0835 0.667748,-1.08509 2.003245,-2.253652 1.418964,-1.16856 2.921398,-1.418965 3.004866,-1.418965 0.500811,-0.08347 1.001623,0.250405 1.085091,0.751216 0.08347,0.500812 -0.250406,1.001623 -0.751217,1.085091 0,0 -1.168559,0.250406 -2.170181,1.08509 -1.168559,0.91816 -1.585902,1.75284 -1.585902,1.75284 -0.250406,0.16694 -0.500811,0.33387 -0.834685,0.33387 z"
                 id="path11"
                 fill="#bbc9dd" />
              <circle
                 id="circle11"
                 fill="#08162b"
                 cx="57.364578"
                 cy="87.558479"
                 r="10.934377" />
              <circle
                 id="circle12"
                 fill="#bbc9dd"
                 cx="61.037193"
                 cy="83.30159"
                 r="3.171804" />
              <path
                 d="m 49.602005,81.214873 c -0.08347,0 -0.08347,0 -0.166937,0 -0.08347,0 -0.834685,-0.166937 -2.170182,-0.751216 -1.418965,-0.58428 -2.420587,-1.669371 -2.420587,-1.669371 -0.333874,-0.333874 -0.333874,-0.918154 0.08347,-1.252028 0.333874,-0.333874 0.918153,-0.333874 1.252027,0.08347 0,0 0.751217,0.751217 1.836308,1.252028 1.168559,0.500811 1.752839,0.58428 1.752839,0.58428 0.500811,0.08347 0.834685,0.584279 0.751217,1.08509 -0.08347,0.333874 -0.500811,0.667748 -0.918154,0.667748 z"
                 id="path12"
                 fill="#08162b" />
              <circle
                 id="circle13"
                 fill="#08162b"
                 cx="129.64832"
                 cy="87.558479"
                 r="10.934377" />
              <circle
                 id="circle14"
                 fill="#bbc9dd"
                 cx="132.31931"
                 cy="83.30159"
                 r="3.171804" />
              <path
                 d="m 137.41089,81.214873 c -0.41734,0 -0.83468,-0.333874 -0.91815,-0.751216 -0.0835,-0.500811 0.2504,-1.001622 0.75121,-1.085091 0,0 0.66775,-0.08347 1.75284,-0.58428 1.08509,-0.500811 1.83631,-1.252028 1.83631,-1.252028 0.33387,-0.333874 0.91815,-0.417342 1.25203,0 0.33387,0.333874 0.41734,0.918154 0.0835,1.252028 0,0.08347 -1.00163,1.085091 -2.42059,1.669371 -1.3355,0.584279 -2.08671,0.751216 -2.17018,0.751216 -0.0835,0 -0.16694,0 -0.16694,0 z"
                 id="path14"
                 fill="#08162b" />
              <ellipse
                 id="ellipse14"
                 fill="#bb98b0"
                 cx="93.506447"
                 cy="117.44022"
                 rx="37.727772"
                 ry="24.456278" />
              <ellipse
                 id="ellipse15"
                 fill="#08162b"
                 transform="rotate(-13.8514,78.8886,108.9208)"
                 cx="78.888565"
                 cy="108.92076"
                 rx="5.425343"
                 ry="3.1717391" />
              <ellipse
                 id="ellipse16"
                 fill="#08162b"
                 transform="rotate(-76.1486,108.1006,108.9421)"
                 cx="108.10059"
                 cy="108.94209"
                 rx="3.1717391"
                 ry="5.425343" />
              <path
                 d="m 114.29011,97.073893 c 4.34036,4.590767 7.01136,10.266627 7.01136,16.443297 0,17.02758 -22.035694,24.95709 -40.89958,24.95709 -2.83793,0 -5.425454,-0.25041 -7.846041,-0.66775 6.009734,2.58753 13.188027,4.08996 20.950599,4.08996 20.867132,0 37.727772,-10.93438 37.727772,-24.45628 0,-8.51379 -6.76095,-16.02595 -16.94411,-20.366317 z"
                 id="path16"
                 fill="#ac7794" />
              <path
                 d="m 97.262532,93.150872 c -1.252028,-0.08347 -2.504056,-0.08347 -3.756084,-0.08347 -20.533257,0 -37.143493,10.600508 -37.727772,23.788528 C 60.953724,104.753 78.815988,94.069026 97.262532,93.150872 Z"
                 id="path17"
                 fill="#bbc9dd" />
              <path
                 d="m 93.506448,142.89811 c -10.266628,0 -19.948977,-2.58752 -27.294207,-7.34523 -7.428698,-4.84117 -11.518656,-11.26825 -11.518656,-18.11267 0,-6.84442 4.089958,-13.35496 11.518656,-18.112667 7.261762,-4.757706 16.94411,-7.34523 27.294207,-7.34523 10.350092,0 19.948982,2.587524 27.294212,7.34523 7.42869,4.841177 11.51865,11.268247 11.51865,18.112667 0,6.84442 -4.08996,13.35497 -11.51865,18.11267 -7.34523,4.75771 -17.02758,7.34523 -27.294212,7.34523 z m 0,-48.829084 c -20.282851,0 -36.72615,10.517034 -36.72615,23.371184 0,12.93762 16.443299,23.37119 36.72615,23.37119 20.282852,0 36.726152,-10.51704 36.726152,-23.37119 0,-12.85415 -16.52677,-23.371184 -36.726152,-23.371184 z"
                 id="path18"
                 fill="#08162b" />
              <path
                 d="m 126.22611,191.14292 -2.83793,-3.67262 0.66775,-0.66774 c 0.0835,-0.0835 6.26014,-5.67586 8.84766,-10.76744 2.50406,-5.09158 2.25365,-17.61186 2.25365,-17.69533 l 2.08671,-0.0835 c 0,0.50081 0.33388,13.10456 -2.42058,18.69695 -2.25365,4.5073 -6.84442,9.09807 -8.59726,10.76744 l 0.91815,1.16856 c 2.42059,-0.50081 11.60213,-2.50406 18.36308,-5.67586 l 0.83468,1.83631 c -8.01298,3.83955 -19.03082,5.92626 -19.44816,6.00973 z"
                 id="path19"
                 fill="#000000" />
              <path
                 d="m 60.786787,191.14292 -0.58428,-0.0835 c -0.500811,-0.0835 -11.435187,-2.17018 -19.448166,-6.00973 l 0.834686,-1.83631 c 6.76095,3.1718 15.942488,5.17505 18.363075,5.67586 l 0.918154,-1.16856 c -1.752839,-1.66937 -6.427077,-6.26014 -8.597258,-10.76744 -2.754462,-5.50892 -2.420588,-18.11267 -2.420588,-18.69695 l 2.086714,0.0835 c 0,0.16694 -0.333875,12.60375 2.25365,17.69533 2.587524,5.09158 8.764195,10.68397 8.847663,10.76744 l 0.667748,0.66774 z"
                 id="path20"
                 fill="#000000" />
              <g
                 id="g22"
                 transform="translate(107.8752,183.1693)">
                <path
                   d="M 19.436045,4.3844882 C 16.84852,0.4614676 10.838787,-0.12281206 6.0810809,3.0489918 2.4919344,5.469579 0.65562688,9.2256626 1.0729695,12.647872 c 0.083469,0.417343 0.4173426,0.751217 0.8346852,0.751217 h 3.8395521 c 0.3338741,0 0.5842797,0.333874 0.4173426,0.667748 l -1.4189649,3.255272 c -0.166937,0.417343 0,0.834686 0.4173426,1.085091 3.0048669,1.502434 7.0113559,1.168559 10.4335659,-1.168559 4.757705,-3.255273 6.510544,-9.0146007 3.839552,-12.8541528 z"
                   id="path21"
                   fill="#333233" />
                <path
                   d="m 9.1694163,20.243508 c -1.585902,0 -3.0883354,-0.333874 -4.5073003,-1.001623 C 3.7439623,18.824543 3.4100882,17.739452 3.8274308,16.904767 L 4.9125216,14.400711 H 1.9076547 c -0.91815373,0 -1.66937044,-0.667748 -1.83630749,-1.585902 C -0.42946393,8.8917885 1.7407177,4.7183623 5.4968012,2.2143066 10.67185,-1.2913714 17.349332,-0.54015468 20.27073,3.8002085 v 0 c 2.921398,4.3403633 1.085091,10.7674395 -4.089958,14.2731175 -2.170181,1.418965 -4.590768,2.170182 -7.0113557,2.170182 z m -3.338741,-2.754462 c 2.7544613,1.252028 6.3436077,0.834686 9.2650067,-1.168559 4.256894,-2.83793 5.842796,-8.0129782 3.505677,-11.4351876 v 0 C 16.264241,1.4630899 10.922255,0.96227874 6.6653606,3.8002085 3.5770252,5.8869216 1.8241862,9.1421941 2.0745918,12.313998 h 3.672615 c 0.5008112,0 1.0016223,0.250405 1.2520279,0.667748 0.2504055,0.417343 0.3338741,0.918154 0.083469,1.418965 z"
                   id="path22"
                   fill="#000000" />
              </g>
              <g
                 id="g24"
                 transform="translate(58.2287,183.0858)">
                <path
                   d="M 2.2242396,4.4679567 C 4.8117639,0.54493613 10.821498,-0.03934354 15.579203,3.1324604 c 3.589147,2.4205871 5.425454,6.1766707 5.008112,9.5988806 -0.08347,0.417342 -0.417343,0.751216 -0.834685,0.751216 h -3.839552 c -0.333875,0 -0.58428,0.333874 -0.417343,0.667749 l 1.418965,3.255272 c 0.166937,0.417342 0,0.834685 -0.417343,1.085091 C 13.49249,19.993102 9.4860012,19.659228 6.0637917,17.322109 1.3060859,14.066837 -0.36328459,8.3075088 2.2242396,4.4679567 Z"
                   id="path23"
                   fill="#333233" />
                <path
                   d="m 12.490868,20.326976 c -2.337119,0 -4.8411743,-0.751217 -7.0113559,-2.25365 C 0.3044636,14.567648 -1.5318439,8.2240403 1.3895544,3.8002085 v 0 c 2.9213983,-4.34036318 9.5154116,-5.0915799 14.7739286,-1.5859019 3.756084,2.5040557 5.926265,6.6774819 5.425454,10.6005024 -0.08347,0.918154 -0.918154,1.585902 -1.836307,1.585902 h -3.004867 l 1.085091,2.504056 c 0.417342,0.918153 0,1.919776 -0.834686,2.337118 -1.418965,0.751217 -2.921398,1.085091 -4.5073,1.085091 z M 3.1423934,4.9687679 C 0.80527474,8.3909774 2.3911767,13.566026 6.6480714,16.403956 9.5694697,18.4072 13.158616,18.824543 15.913078,17.572515 L 14.577581,14.48418 c -0.166937,-0.500812 -0.166937,-1.001623 0.08347,-1.418965 0.250405,-0.417343 0.751216,-0.667748 1.252028,-0.667748 h 3.672614 C 19.836098,9.3091311 18.083259,5.9703902 14.994924,3.8836771 10.738029,1.0457473 5.3960435,1.5465584 3.1423934,4.9687679 Z"
                   id="path24"
                   fill="#000000" />
              </g>
              <path
                 d="m 169.71321,182.7126 -4.08996,1.08509 c -1.5859,0.41734 -3.25527,-0.50081 -3.75608,-2.17018 l -1.16856,-4.17343 c -0.25041,-0.91815 -1.08509,-1.66937 -2.08671,-1.66937 -8.43032,-0.50081 -17.7788,4.67424 -23.37119,13.85578 -7.51217,12.26987 -5.50892,27.12727 4.34036,33.137 9.84929,6.00973 23.95547,0.91815 31.38417,-11.43519 5.75933,-9.43194 5.92626,-20.44979 1.16856,-27.71155 -0.41735,-0.75122 -1.41897,-1.16856 -2.42059,-0.91815 z"
                 id="path25"
                 fill="#333233" />
              <path
                 d="m 174.97173,190.05783 c -1.3355,5.25851 -5.09158,16.27636 -14.02272,24.1224 -5.75932,5.09158 -15.60861,7.67911 -21.11753,8.7642 9.84928,5.84279 23.872,0.75121 31.30069,-11.51866 4.17343,-7.01136 5.42546,-14.8574 3.83956,-21.36794 z"
                 id="path26"
                 fill="#1e1f1e" />
              <path
                 d="m 17.299686,182.7126 4.089958,1.08509 c 1.585902,0.41734 3.255272,-0.50081 3.756083,-2.17018 l 1.16856,-4.17343 c 0.250405,-0.91815 1.085091,-1.66937 2.086713,-1.66937 8.430321,-0.50081 17.778795,4.67424 23.371186,13.85578 7.512168,12.26987 5.508923,27.12727 -4.340363,33.137 -9.849286,6.00973 -23.955466,0.91815 -31.384165,-11.43519 -5.759328,-9.43194 -5.926265,-20.44979 -1.168559,-27.71155 0.417343,-0.75122 1.418965,-1.16856 2.420587,-0.91815 z"
                 id="path27"
                 fill="#333233" />
              <path
                 d="m 53.775431,193.81391 c 0,0 0.918154,17.86227 -11.935999,23.70506 -5.926265,2.67099 -12.43681,3.17181 -17.778795,2.9214 7.34523,5.34199 16.276362,6.59401 23.204249,2.42059 8.847664,-5.34199 11.351719,-17.69533 6.510545,-29.04705 z"
                 id="path28"
                 fill="#1e1f1e" />
              <path
                 d="m 148.84608,226.36664 c -3.50568,0 -6.76095,-0.91816 -9.68235,-2.671 -5.00811,-3.08833 -8.26338,-8.34685 -9.18154,-14.94086 -0.83468,-6.51055 0.75122,-13.43844 4.5073,-19.61511 5.67586,-9.265 15.19127,-14.94086 24.28934,-14.35658 1.41897,0.0835 2.58753,1.08509 3.00487,2.42059 l 1.16856,4.17342 c 0.25041,1.08509 1.41896,1.66937 2.50406,1.41897 l 4.08995,-1.08509 0.25041,1.00162 -0.25041,-1.00162 c 1.41897,-0.41735 2.83793,0.16693 3.67262,1.41896 2.50405,3.83955 3.67261,8.51379 3.50568,13.60537 -0.16694,5.17505 -1.83631,10.43357 -4.67424,15.19127 -3.75609,6.17667 -9.18154,10.76744 -15.35821,13.02109 -2.67099,1.00162 -5.34199,1.41897 -7.84604,1.41897 z m 8.68073,-49.58031 c -8.01298,0 -16.27637,5.17505 -21.28448,13.43843 -3.50568,5.75933 -5.00811,12.26988 -4.17342,18.27961 0.75121,5.92627 3.67261,10.76744 8.17991,13.43843 4.5073,2.75447 10.09969,3.08834 15.69208,1.08509 5.67586,-2.08671 10.76744,-6.3436 14.27312,-12.10293 2.67099,-4.42383 4.17343,-9.34848 4.34036,-14.18965 0.16694,-4.67424 -0.91815,-9.0146 -3.1718,-12.43681 -0.33387,-0.50081 -0.91815,-0.66775 -1.41896,-0.58428 l -4.08996,1.08509 c -2.17018,0.58428 -4.42383,-0.66775 -5.00811,-2.83793 l -1.16856,-4.17343 c -0.16694,-0.50081 -0.58428,-0.91815 -1.16856,-0.91815 -0.33388,0 -0.66775,-0.0835 -1.00162,-0.0835 z"
                 id="path29"
                 fill="#000000" />
              <path
                 d="m 38.166817,226.36664 c -8.513789,0 -17.611858,-5.25852 -23.120781,-14.35659 -2.83793,-4.75771 -4.5073,-10.01622 -4.674237,-15.19127 -0.166937,-5.09158 1.001622,-9.84929 3.505678,-13.60537 0.751217,-1.25203 2.25365,-1.75284 3.672615,-1.41897 l 4.089957,1.08509 c 1.085091,0.25041 2.170182,-0.33387 2.504056,-1.41896 l 1.168559,-4.17343 c 0.333875,-1.41896 1.585902,-2.33712 3.004867,-2.42058 9.098069,-0.58428 18.613481,5.09158 24.289341,14.35658 7.762572,12.77069 5.675859,28.29583 -4.674238,34.55597 -3.004866,1.75284 -6.343607,2.58753 -9.765817,2.58753 z M 16.631938,183.71422 c -0.417342,0 -0.834685,0.25041 -1.085091,0.58428 -2.25365,3.42221 -3.338741,7.76257 -3.171804,12.43681 0.166937,4.84117 1.669371,9.76582 4.340364,14.18965 7.178293,11.76906 20.616725,16.77717 30.048668,11.01784 9.348475,-5.67586 11.184782,-19.94897 4.006489,-31.71804 -5.258517,-8.59725 -14.022712,-13.85577 -22.453033,-13.35496 -0.500811,0 -1.001622,0.41734 -1.168559,0.91815 l -1.168559,4.17343 c -0.58428,2.17018 -2.83793,3.42221 -5.008112,2.83793 l -4.089957,-1.08509 c 0,0 -0.08347,0 -0.250406,0 z"
                 id="path30"
                 fill="#000000" />
              <g
                 id="g32"
                 transform="translate(164.3459,117.6906)">
                <path
                   d="m 12.211759,1.5024334 c 0,0 6.176671,8.1799153 4.089958,16.3598306 -2.086713,8.179915 -8.1799154,6.176671 -12.269873,4.089958 -4.08995767,-2.086713 -4.08995767,-8.179916 0,-12.2698733 4.0899576,-4.0899576 8.179915,-8.1799153 8.179915,-8.1799153 z"
                   id="path31"
                   fill="#333233" />
                <path
                   d="m 10.208515,24.790151 c -2.4205875,0 -4.8411746,-1.001622 -6.5940136,-1.919775 C 1.6947253,21.952222 0.44269747,20.115914 0.10882338,17.945733 -0.39198777,14.940866 0.86004009,11.518656 3.3640958,9.0146006 L 12.378696,0 13.046445,0.91815376 c 0.250405,0.33387404 6.427076,8.68072644 4.256894,17.27798424 -0.751217,3.088335 -2.25365,5.175049 -4.256894,6.093202 -0.918154,0.333874 -1.919777,0.500811 -2.83793,0.500811 z M 12.044822,3.0883354 4.6995922,10.433566 c -2.0867131,2.086713 -3.0883354,4.841174 -2.6709928,7.178292 0.2504056,1.585902 1.0850908,2.754462 2.4205872,3.42221 3.4222095,1.66937 5.9262654,2.170182 7.6791044,1.335496 1.502433,-0.667748 2.504056,-2.25365 3.171804,-4.757706 C 16.802528,11.602125 13.547256,5.425454 12.044822,3.0883354 Z"
                   id="path32"
                   fill="#000000" />
              </g>
              <g
                 id="g34"
                 transform="translate(6.8661)">
                <path
                   d="m 86.807265,1.2520278 c -47.243185,0 -85.5552372,38.5624582 -85.5552372,86.2229852 0,34.639437 38.3120522,63.686487 85.5552372,63.686487 47.243185,0 85.555235,-31.80151 85.555235,-63.686487 0,-47.577059 -38.31205,-86.2229852 -85.555235,-86.2229852 z M 151.32843,108.00827 c -7.01135,38.39552 -31.71804,16.27636 -67.192158,16.27636 -35.557591,0 -53.670261,26.04218 -61.432834,-16.27636 -6.76095,-36.809619 28.796641,-63.769953 64.270764,-63.769953 35.557588,0 70.697838,28.963578 64.354228,63.769953 z"
                   id="path33"
                   fill="#ffffff" />
                <path
                   d="m 86.807265,152.41352 c -23.037313,0 -44.822598,-6.76095 -61.265897,-19.11429 C 9.0146006,120.94589 0,104.66953 0,87.475013 0,39.230206 38.979801,0 86.807265,0 c 47.827465,0 86.807265,39.230206 86.807265,87.475013 0,15.942487 -9.34848,32.302317 -25.54137,44.822597 -16.86064,13.02109 -38.64593,20.11591 -61.265895,20.11591 z m 0,-149.9094643 c -46.491968,0 -84.3032093,38.1451153 -84.3032093,84.9709573 0,16.443297 8.7641953,31.968447 24.5397463,43.820977 16.025956,12.01946 37.226961,18.61348 59.763463,18.61348 22.119155,0 43.320165,-7.01136 59.763465,-19.61511 15.60861,-12.01946 24.53974,-27.62808 24.53974,-42.819347 0,-46.825842 -37.81124,-84.9709573 -84.303205,-84.9709573 z M 39.981423,133.46617 c -2.83793,0 -5.341986,-0.58428 -7.679104,-2.00324 -5.175049,-3.25528 -8.51379,-10.3501 -10.850908,-23.20426 C 18.696949,93.401278 22.536501,79.295097 32.385787,67.359099 44.906066,52.334764 65.856665,42.98629 86.974202,42.98629 c 20.616728,0 41.316918,9.515411 54.087598,24.87362 9.93276,11.935999 14.02272,26.292585 11.43519,40.39876 l -1.25203,-0.2504 1.25203,0.2504 c -1.91977,10.60051 -5.25851,17.11105 -10.35009,20.61673 -7.34523,4.92464 -17.11105,2.9214 -29.46439,0.41734 -8.43032,-1.75284 -18.029204,-3.67261 -28.546238,-3.67261 -11.184782,0 -20.533257,2.58752 -28.713172,4.84117 -5.842797,1.5859 -10.934377,3.00487 -15.441677,3.00487 z M 87.05767,45.490345 c -20.36632,0 -40.565702,9.014601 -52.668638,23.538124 -9.431943,11.268251 -13.02109,24.706683 -10.433566,38.812861 2.170182,11.936 5.258517,18.78042 9.765817,21.53488 5.008112,3.1718 12.102936,1.16856 21.117537,-1.3355 7.92951,-2.25365 17.778795,-4.92464 29.38092,-4.92464 10.76744,0 20.53326,2.00325 29.04705,3.75609 11.76906,2.42058 21.11753,4.34036 27.54461,0 4.5073,-3.00487 7.51217,-9.26501 9.34847,-18.94736 2.42059,-13.354963 -1.41896,-27.043801 -10.8509,-38.39552 C 126.87216,54.671883 106.83971,45.490345 87.05767,45.490345 Z"
                   id="path34"
                   fill="#000000" />
              </g>
              <g
                 id="g36"
                 transform="translate(6.6992,0.5008)">
                <path
                   d="m 142.1469,46.992779 c 13.43843,17.444921 25.79177,50.081114 25.79177,50.081114 l 4.34036,-13.939244 C 168.27254,38.228584 139.39243,6.1766708 95.237419,2.1701816 c -0.0833,0 31.300861,24.5397464 46.909481,44.8225974 z"
                   id="path35"
                   fill="#f2f2f2" />
                <path
                   d="m 86.807265,152.41352 c -23.037313,0 -44.822598,-6.76095 -61.265897,-19.11429 C 9.0146006,120.94589 0,104.66953 0,87.475013 0,39.230206 38.979801,0 86.807265,0 c 47.827465,0 86.807265,39.230206 86.807265,87.475013 0,15.942487 -9.34848,32.302317 -25.54137,44.822597 -16.86064,12.93762 -38.64593,20.11591 -61.265895,20.11591 z m 0,-149.9094643 c -46.491968,0 -84.3032093,38.1451153 -84.3032093,84.9709573 0,16.443297 8.7641953,31.968447 24.5397463,43.820977 16.025956,12.01946 37.226961,18.61348 59.763463,18.61348 22.119155,0 43.320165,-7.01136 59.763465,-19.61511 15.60861,-12.01946 24.53974,-27.62808 24.53974,-42.819347 0,-46.909311 -37.81124,-84.9709573 -84.303205,-84.9709573 z"
                   id="path36"
                   fill="#000000" />
              </g>
              <g
                 id="g38"
                 transform="translate(0,62.1006)">
                <path
                   d="m 11.45689,1.2520257 c 0,0 6.594013,8.263386 6.427076,23.6215943 -0.166937,15.358208 -4.173426,22.119163 -4.173426,22.119163 0,0 -11.9359991,0.08346 -12.4368103,-22.87038 C 0.85638711,1.1685593 11.45689,1.2520257 11.45689,1.2520257 Z"
                   id="path37"
                   fill="#707070" />
                <path
                   d="m 13.71054,48.244807 c -0.751217,0 -13.18802698,-0.417343 -13.68883812,-24.122404 C -0.2287037,13.939243 1.6910723,6.7609504 5.614093,2.8379298 8.4520228,0 11.373421,0 11.45689,0 h 0.584279 l 0.333874,0.50081114 c 0.250406,0.3338741 6.927888,8.76419496 6.760951,24.37280886 -0.166937,15.525145 -4.173426,22.453033 -4.340363,22.786907 l -0.333874,0.58428 z M 10.87261,2.5875242 C 10.121393,2.7544613 8.7024283,3.2552724 7.2834634,4.6742373 4.9463448,7.0948245 2.275352,12.353342 2.5257576,24.038935 2.9431002,42.318542 10.538736,45.156471 12.959323,45.573814 13.877477,43.487101 16.465001,36.809619 16.631938,24.790151 16.798875,12.353342 12.291575,4.6742373 10.87261,2.5875242 Z"
                   id="path38"
                   fill="#000000" />
              </g>
              <g
                 id="g40"
                 transform="translate(166.8722,62.1006)">
                <path
                   d="m 7.6822205,1.2520257 c 0,0 -6.5940133,8.263386 -6.4270763,23.6215943 0.1669371,15.358208 4.1734262,22.119163 4.1734262,22.119163 0,0 11.9359986,0.08346 12.4368096,-22.87038 C 18.366192,1.1685593 7.6822205,1.2520257 7.6822205,1.2520257 Z"
                   id="path39"
                   fill="#707070" />
                <path
                   d="m 5.4285704,48.244807 c 0,0 0,0 0,0 H 4.6773537 L 4.3434796,47.660527 C 4.1765426,47.410121 0.17005342,40.398765 0.00311638,24.87362 -0.16382067,9.2650061 6.4301927,0.83468524 6.7640668,0.50081114 L 7.0979409,0 H 7.6822205 C 7.7656891,0 10.687087,0 13.525017,2.8379298 17.448038,6.7609504 19.284345,13.939243 19.117408,24.122403 18.616597,47.827464 6.1797871,48.244807 5.4285704,48.244807 Z M 8.2665002,2.5875242 C 6.8475353,4.6742373 2.340235,12.353342 2.5071721,24.790151 2.5906406,36.893087 5.1781648,43.570569 6.1797871,45.573814 8.6003743,45.156471 16.279478,42.318542 16.613353,24.038935 16.863758,12.353342 14.192765,7.011356 11.855647,4.6742373 10.353213,3.2552724 9.0177169,2.7544613 8.2665002,2.5875242 Z"
                   id="path40"
                   fill="#000000" />
              </g>
              <g
                 id="g45"
                 transform="translate(36.291,11.4573)">
                <g
                   transform="translate(91.521)"
                   id="g42">
                  <path
                     d="m 1.3354964,13.583256 c 0,0 2.0867131,4.006489 5.0081114,6.260139 2.9213983,2.25365 7.5121672,3.088335 8.2633842,2.754461 0.834685,-0.333874 4.256894,-9.348474 5.508922,-12.6037469 C 21.284473,6.7388367 21.701816,0.31176034 19.281229,0.97950853 16.860642,1.5637882 17.111047,6.2380255 10.433566,9.5767665 3.7560836,12.832039 1.3354964,13.583256 1.3354964,13.583256 Z"
                     id="path41"
                     fill="#ffffff" />
                  <path
                     d="m 14.022712,23.599478 c -2.003245,0 -5.8427967,-1.168559 -8.2633839,-3.004866 C 2.7544613,18.257493 0.58427966,14.167535 0.50081114,14.000598 L 0,12.998976 1.0850908,12.665102 c 0.083469,0 2.5040557,-0.834685 8.9311322,-4.0064893 3.756083,-1.8363075 5.175048,-4.1734262 6.176671,-5.8427966 0.751216,-1.2520279 1.502433,-2.42058724 2.837929,-2.75446133 0.751217,-0.16693705 1.502434,0 2.003245,0.58427966 1.66937,1.83630757 0.834685,7.26176157 -0.08347,9.59888057 -4.674237,12.520278 -5.508922,12.937621 -5.926265,13.104558 -0.333874,0.166937 -0.584279,0.250405 -1.001622,0.250405 z M 2.5875242,14.084067 c 0.7512167,1.252028 2.3371187,3.589146 4.1734262,5.09158 2.4205872,1.836307 6.2601396,2.670992 7.2617616,2.670992 0.667748,-1.001622 2.754461,-5.926265 5.09158,-12.1029355 1.001622,-2.6709928 1.252028,-6.8444189 0.417342,-7.7625727 -0.08347,-0.083469 -0.08347,-0.083469 -0.166937,0 -0.584279,0.1669371 -1.001622,0.7512167 -1.66937,1.9197761 -1.085091,1.7528389 -2.754461,4.4238317 -6.927887,6.5940131 -4.2568952,2.003245 -6.8444194,3.088336 -8.1799158,3.589147 z"
                     id="path42"
                     fill="#000000" />
                </g>
                <g
                   transform="translate(0,0.0835)"
                   id="g44">
                  <path
                     d="m 20.572725,13.499787 c 0,0 -2.086713,4.006489 -5.008111,6.260139 -2.921399,2.25365 -7.5121675,3.088336 -8.2633842,2.754462 C 6.4665445,22.180513 3.0443351,13.165913 1.7923072,9.9106406 0.62374787,6.6553681 0.20640526,0.22829182 2.6269924,0.89604 c 2.4205872,0.5842797 2.1701817,5.258517 8.8476636,8.5972579 6.677482,3.3387411 9.098069,4.0064891 9.098069,4.0064891 z"
                     id="path43"
                     fill="#ffffff" />
                  <path
                     d="m 7.9689779,23.51601 c -0.4173426,0 -0.7512167,-0.08347 -1.0016222,-0.166937 C 6.550013,23.182136 5.7153278,22.764793 1.0410905,10.244515 0.12293673,7.8239275 -0.7117485,2.3984734 0.95762197,0.64563443 1.4584331,0.06135477 2.2096498,-0.10558228 2.9608665,0.06135477 4.2963629,0.39522886 4.9641111,1.4803197 5.7987963,2.8158161 c 1.0016223,1.6693704 2.4205872,4.0064891 6.1766707,5.8427966 6.427076,3.2552723 8.931132,4.0064893 8.931132,4.0064893 l 1.085091,0.333874 -0.500811,1.001622 c -0.08347,0.166937 -2.25365,4.256895 -5.258517,6.594014 -1.836308,1.418964 -4.089958,2.170181 -5.258517,2.504055 -0.500811,0.08347 -1.9197762,0.417343 -3.0048671,0.417343 z m -0.166937,-1.836308 c 1.0016223,0.08347 4.8411741,-0.751216 7.2617621,-2.670992 1.919775,-1.418965 3.422209,-3.756084 4.173426,-5.09158 C 17.901732,13.416318 15.397677,12.331228 11.057313,10.161046 6.8004186,8.074333 5.2145167,5.4033403 4.1294259,3.5670328 3.3782092,2.3984734 3.0443351,1.8141938 2.4600554,1.6472567 c -0.083468,0 -0.166937,0 -0.166937,0 C 1.4584331,2.5654105 1.7088387,6.7388367 2.710461,9.4098294 5.0475796,15.753437 7.1342927,20.761549 7.8020409,21.679702 Z"
                     id="path44"
                     fill="#000000" />
                </g>
              </g>
              <g
                 id="g47"
                 transform="translate(75.1434,4.8412)">
                <g
                   transform="translate(0.7512,0.834)"
                   id="g46">
                  <path
                     d="m 34.055158,17.028253 c 0,9.431943 -7.595636,17.027579 -17.027579,17.027579 C 7.5956356,34.055832 0,26.460196 0,17.028253 0,7.5963097 7.5956356,6.7407012e-4 17.027579,6.7407012e-4 26.459522,-0.08279445 34.055158,7.5963097 34.055158,17.028253"
                     id="path45"
                     fill="#f15b52" />
                  <path
                     d="M 25.124026,24.039609 18.363075,7.6797782 c -0.166937,-0.5008111 -0.58428,-0.7512167 -1.085091,-0.7512167 -0.500811,0 -0.918153,0.2504056 -1.08509,0.7512167 L 8.764195,25.542042 h 2.587524 l 2.921399,-7.34523 8.764194,7.094825 c 0.333875,0.250405 0.58428,0.417342 0.918154,0.417342 0.667748,0 1.252028,-0.500811 1.252028,-1.252028 0.08347,-0.08347 0,-0.250405 -0.08347,-0.417342 m -7.846042,-13.438432 4.423832,10.850908 -6.677482,-5.258517 z"
                     id="path46"
                     fill="#ffffff" />
                </g>
                <path
                   d="M 17.862264,35.724528 C 8.0129783,35.724528 0,27.71155 0,17.862264 0,8.0129783 8.0129783,0 17.862264,0 c 9.849286,0 17.862264,8.0129783 17.862264,17.862264 0,9.849286 -8.012978,17.862264 -17.862264,17.862264 z m 0,-33.8882205 c -8.8476634,0 -16.0259565,7.1782931 -16.0259565,16.0259565 0,8.847664 7.1782931,16.025957 16.0259565,16.025957 8.847664,0 16.025957,-7.178293 16.025957,-16.025957 0,-8.8476634 -7.178293,-16.0259565 -16.025957,-16.0259565 z"
                   id="path47"
                   fill="#000000" />
              </g>
            </g>
            <g
               id="Group-2"
               transform="translate(99.2403)">
              <path
                 d="m 125.47987,146.86398 c 41.5933,0 75.14466,0.32307 100.65409,0.96928 l 0.11173,7.1889 c -0.72432,0.28529 -1.49268,0.35179 -2.53573,0.42246 -2.5127,0.17026 -6.53941,0.31268 -12.0801,0.42769 -11.10068,0.23041 -28.2679,0.35009 -51.50145,0.35913 h -5.8111 c -48.33884,-0.018 -120.029392,-0.47739 -215.07164,-1.37803 l -2.75e-4,-7.00867 C 19.08726,147.21056 79.88946,146.88393 121.65192,146.86486 l 3.19759,-8.6e-4 z"
                 id="Rectangle"
                 stroke="#000000"
                 fill="#925d32"
                 transform="rotate(123,82.8116,151.548)" />
              <g
                 id="Group-4"
                 transform="translate(37.9982)">
                <path
                   d="m 57.192,28.568 0.616239,6.51e-4 c 0.228989,1.15e-4 0.458992,2.4e-4 0.690006,3.74e-4 l 1.398237,9.09e-4 c 22.801242,0.01646 55.128228,0.117833 96.976658,0.30487 1.26138,4.69286 1.94958,14.268074 2.08251,28.721684 0.0598,6.496896 0.0833,12.269656 0.0857,17.374689 l -7e-5,1.809374 c -0.004,8.216329 -0.0625,14.609404 -0.10645,19.438929 -0.0174,1.916342 -0.0326,3.586634 -0.0413,5.02709 -0.0618,10.21812 -0.96132,20.7267 -2.69815,31.52578 L 29.108667,127.89269 C 27.749952,114.5734 27.030717,104.99343 26.95247,99.152719 26.631973,75.229297 27.450951,58.749634 27.874644,50.223753 c 0.139487,-2.806869 0.235954,-4.755901 0.235954,-5.829063 0,-5.360383 0.327422,-10.533404 0.98254,-15.519044 l 31.251699,-5.33e-4 z"
                   id="path48"
                   stroke="#925d32"
                   fill="#e1c4a7"
                   transform="rotate(29,88.0415,80.6782)" />
                <text
                   id="Effortless!-Efficien"
                   transform="rotate(29,93.0415,81.0675)"
                   font-family="RedHatDisplay-Medium, 'Red Hat Display'"
                   font-size="18px"
                   font-weight="400"
                   line-spacing="30"
                   fill="#151515"><tspan
                     x="50.541485"
                     y="69.067543"
                     id="tspan48">Effortless!</tspan><tspan
                     x="50.541485"
                     y="99.067543"
                     id="tspan49">Efficient!</tspan></text>
                <circle
                   id="circle49"
                   fill="#000000"
                   cx="114.92226"
                   cy="43.156036"
                   r="2" />
                <circle
                   id="Oval-Copy"
                   fill="#000000"
                   cx="66.922264"
                   cy="118.15604"
                   r="2" />
              </g>
            </g>
          </g>
        </g>
      </g>
    </g>
  </g>
</svg>
