<?xml version="1.0" encoding="UTF-8" standalone="no"?>
<svg
   width="289.01276"
   height="304.01404"
   viewBox="0 0 289.01276 304.01404"
   version="1.1"
   id="svg53"
   sodipodi:docname="mascot-picket-two.svg"
   inkscape:version="1.3 (0e150ed6c4, 2023-07-21)"
   xmlns:inkscape="http://www.inkscape.org/namespaces/inkscape"
   xmlns:sodipodi="http://sodipodi.sourceforge.net/DTD/sodipodi-0.dtd"
   xmlns="http://www.w3.org/2000/svg"
   xmlns:svg="http://www.w3.org/2000/svg">
  <defs
     id="defs53" />
  <sodipodi:namedview
     id="namedview53"
     pagecolor="#ffffff"
     bordercolor="#111111"
     borderopacity="1"
     inkscape:showpageshadow="0"
     inkscape:pageopacity="0"
     inkscape:pagecheckerboard="1"
     inkscape:deskcolor="#d1d1d1"
     inkscape:zoom="2.4855305"
     inkscape:cx="144.03364"
     inkscape:cy="146.24644"
     inkscape:window-width="1920"
     inkscape:window-height="979"
     inkscape:window-x="0"
     inkscape:window-y="0"
     inkscape:window-maximized="1"
     inkscape:current-layer="svg53" />
  <title
     id="title1">Group 7</title>
  <g
     id="Page-1"
     stroke="none"
     stroke-width="1"
     fill="none"
     fill-rule="evenodd"
     transform="translate(-0.1563,-6.1419923)">
    <g
       id="Mission-Page"
       transform="translate(-712,-783)">
      <g
         id="Group-9"
         transform="translate(350,783)">
        <g
           id="Group-7"
           transform="translate(362.1563)">
          <ellipse
             id="Oval"
             fill="#616161"
             opacity="0.749562"
             cx="93"
             cy="295.65604"
             rx="93"
             ry="14.5" />
          <g
             id="Group-12"
             transform="translate(0,49)">
            <g
               id="Ansibull-community"
               transform="translate(2.0777,120)"
               fill-rule="nonzero">
              <g
                 id="Group"
                 transform="translate(7.6308,3.8175)">
                <path
                   d="m 163.90354,49.994754 c 0,-21.402219 -36.4422,-48.8849271 -81.395971,-48.8849271 -44.95377,0 -81.3959675,27.4827081 -81.3959675,48.8849271 0,10.90117 9.4583725,20.749249 24.6763685,27.790569 l 4.621584,43.062967 c 0,0 32.333052,-12.95382 51.145037,-13.43412 36.367329,-0.92876 53.368729,13.43412 53.368729,13.43412 l 2.8708,-42.41567 c 16.05534,-7.078323 26.10942,-17.198494 26.10942,-28.437866 z"
                   id="Path"
                   fill="#565656" />
                <path
                   d="m 135.88446,123.11407 -1.67939,-1.41843 c -0.0408,-0.0345 -4.28729,-3.55964 -12.85569,-6.92735 -7.91265,-3.10969 -21.23779,-6.72236 -39.766128,-6.24429 -18.394671,0.46944 -50.437901,13.22566 -50.759349,13.35468 l -1.363126,0.54591 -4.711274,-43.898724 C 8.7826158,70.99784 0,60.881616 0,49.995001 0,38.961116 9.1015929,26.475502 24.346767,16.595354 32.030629,11.615563 41.076136,7.4937368 50.505847,4.6751366 60.883842,1.5730976 71.650985,0 82.507569,0 c 10.856584,0 21.623971,1.5730976 32.001721,4.6751366 9.42971,2.8188469 18.47546,6.9406734 26.15933,11.9202174 15.24517,9.880148 24.34676,22.365762 24.34676,33.399647 0,5.784964 -2.46756,11.349393 -7.33424,16.538123 -4.49657,4.794531 -10.82644,9.045126 -18.82311,12.641272 z M 82.507569,2.2199005 c -10.640392,0 -21.192823,1.5415222 -31.364015,4.5818904 C 41.913975,9.5609405 33.066131,13.591001 25.557447,18.457564 18.40999,23.089284 12.478401,28.458833 8.403599,33.985273 4.3606703,39.46879 2.2234502,45.004604 2.2234502,49.994508 c 0,5.044914 2.1345023,9.956126 6.3437141,14.597714 4.1489247,4.574983 10.1002797,8.674855 17.6885237,12.185648 l 0.570996,0.264198 4.533624,42.242252 c 2.746019,-1.05926 9.353859,-3.54139 17.231924,-6.03165 13.947277,-4.40897 25.028207,-6.74703 32.934192,-6.94882 18.976536,-0.48078 32.637946,3.23797 40.759626,6.44633 5.79446,2.28872 9.64393,4.61889 11.66527,6.00031 l 2.77913,-41.062606 0.61498,-0.271105 c 8.01148,-3.532008 14.30726,-7.704651 18.71265,-12.401742 4.4684,-4.763943 6.73385,-9.817738 6.73385,-15.020776 0,-4.990151 -2.13697,-10.525965 -6.18014,-16.009235 C 152.53698,28.458587 146.60515,23.089037 139.45794,18.457317 131.94901,13.590754 123.10166,9.5606938 113.87158,6.8015442 103.70039,3.7614227 93.14796,2.2199005 82.507569,2.2199005 Z"
                   id="Shape"
                   fill="#000000" />
              </g>
              <g
                 id="g2"
                 transform="translate(156.4308,17.1787)">
                <path
                   d="m 18.951422,7.3008217 c 0,0 -2.158695,6.8291073 -4.31739,9.1054763 -2.158695,2.276369 -8.6347792,6.829108 -8.6347792,6.829108 L 1.6818631,16.406298 c 0,0 6.4760845,-2.276369 8.6347799,-4.552738 2.158694,-2.2763692 8.634779,-9.1054766 8.634779,-9.1054766 z"
                   id="path1"
                   fill="#333233" />
                <path
                   d="M 5.6999138,24.813688 0,15.798002 1.3403096,15.326541 c 1.7348711,-0.61032 6.5921743,-2.568757 8.2131143,-4.277804 L 20.030769,0 v 7.4854605 l -0.05517,0.1750275 c -0.09163,0.2893518 -2.26591,7.112136 -4.578352,9.55038 -2.208825,2.329485 -8.5311623,6.782821 -8.7993202,6.971254 z M 3.3464567,16.987784 6.2942744,21.650547 C 8.129165,20.329241 12.280335,17.278653 13.870814,15.601728 15.443063,13.94352 17.237418,9.0741132 17.872074,7.1139065 V 5.4961668 l -6.792213,7.1622162 c -1.7015312,1.794032 -5.6543413,3.509655 -7.7334043,4.329401 z"
                   id="path2"
                   fill="#000000" />
              </g>
              <path
                 d="m 140.03487,83.984759 c 18.70691,-7.086285 30.70359,-18.022394 30.70359,-30.294799 0,-15.44657 -19.00259,-34.06312 -46.47378,-43.191893 L 62,20.25793 c 0,0 44.35368,17.728641 66.53052,22.160801 22.17683,4.43216 19.95915,13.29648 19.95915,22.1608 0,7.705803 -6.70258,17.084746 -8.4548,19.405228 z"
                 id="path3"
                 fill="#333233" />
              <path
                 d="m 90.138585,93.528486 c -21.903665,0 -42.513879,-4.062662 -58.034051,-11.439534 C 16.322461,74.587214 7.6307692,64.516267 7.6307692,53.731104 c 0,-11.01593 9.1015928,-23.481227 24.3467668,-33.345297 C 39.661399,15.41412 48.707152,11.299001 58.136617,8.484988 68.514859,5.387997 79.281754,3.817459 90.138338,3.817459 c 10.856582,0 21.623972,1.570538 32.001722,4.667529 9.42971,2.81426 18.47546,6.929379 26.15933,11.900819 15.24517,9.86407 24.34676,22.329367 24.34676,33.345297 0,10.785163 -8.69169,20.85611 -24.47376,28.357848 -15.51968,7.376872 -36.12989,11.439534 -58.033805,11.439534 z m 0,-87.494493 c -10.640391,0 -21.192823,1.539014 -31.364014,4.574435 -9.229579,2.754659 -18.077176,6.778162 -25.586108,11.636805 -7.14721,4.624183 -13.079046,9.984995 -17.153848,15.502441 -4.042928,5.474594 -6.1801485,11.001399 -6.1801485,15.983183 0,9.883281 8.2415165,19.243705 23.2069985,26.357057 15.227385,7.23797 35.497621,11.223791 57.07712,11.223791 21.579495,0 41.849985,-3.986068 57.077125,-11.223791 14.96523,-7.113352 23.20724,-16.473776 23.20724,-26.357057 0,-4.98203 -2.13697,-10.508835 -6.18015,-15.983183 C 160.168,32.230228 154.23616,26.869416 147.08895,22.245233 139.58002,17.38659 130.73267,13.363087 121.5026,10.608428 111.33141,7.573007 100.77898,6.033993 90.138585,6.033993 Z"
                 id="path4"
                 fill="#000000" />
              <ellipse
                 id="ellipse4"
                 fill="#707070"
                 cx="91.092308"
                 cy="74.918221"
                 rx="31"
                 ry="31.971483" />
              <path
                 d="m 126.08007,90.665368 -3.03392,-4.057382 0.76575,-0.696793 c 0.0678,-0.06181 6.8188,-6.240985 9.59369,-11.903528 2.74778,-5.607262 2.42196,-19.409445 2.41826,-19.54815 l 2.21715,-0.06031 c 0.0155,0.589498 0.34406,14.507017 -2.65141,20.619599 -2.42294,4.944391 -7.43248,10.02774 -9.3455,11.868851 l 0.96538,1.291065 c 2.64279,-0.551554 12.5761,-2.766316 19.8888,-6.289481 l 0.94788,2.044647 c -8.72467,4.203625 -20.59318,6.507088 -21.09423,6.603076 z"
                 id="path5"
                 fill="#000000" />
              <path
                 d="M 55.150728,90.665368 54.478639,90.536464 C 53.977591,90.440477 42.109446,88.137046 33.384615,83.93348 l 0.947875,-2.044619 c 7.312631,3.523116 17.246087,5.737847 19.888601,6.289394 L 55.18671,86.887208 C 53.27371,85.046122 48.264221,79.962593 45.841301,75.018521 42.846106,68.906275 43.174387,54.988697 43.189914,54.399208 l 2.217129,0.06031 c -0.0037,0.138703 -0.329513,13.940443 2.418238,19.547879 2.774861,5.662465 9.52557,11.84155 9.593592,11.903364 l 0.765742,0.696783 z"
                 id="path6"
                 fill="#000000" />
              <g
                 id="g8"
                 transform="translate(104.9231,81.1216)">
                <path
                   d="M 21.367711,4.7536046 C 18.473371,0.51913268 11.899973,-0.13298633 6.6855508,3.2974595 2.7747344,5.8700481 0.74153084,10.007673 1.1892616,13.702359 c 0.053617,0.443431 0.428689,0.781903 0.8836856,0.781903 h 4.2410397 c 0.3693089,0 0.6178533,0.371411 0.4707812,0.703984 L 5.216082,18.732991 c -0.1894149,0.428191 -2.505e-4,0.924962 0.4264341,1.131683 3.2854465,1.592075 7.7589959,1.244508 11.5242429,-1.232463 5.214422,-3.430446 7.095292,-9.6441344 4.200952,-13.8786064 z"
                   id="path7"
                   fill="#333233" />
                <path
                   d="m 10.071718,21.95057 c -1.7315429,0 -3.4144792,-0.360595 -4.9287962,-1.094321 C 4.1755528,20.387746 3.7531275,19.261716 4.181566,18.292755 L 5.3771849,15.590382 H 2.0729472 c -1.0209864,0 -1.88237318,-0.755602 -2.00338826,-1.757501 C -0.44281337,9.6047998 1.907585,5.108792 6.0576755,2.3788886 11.77996,-1.3853596 19.068174,-0.59657338 22.304012,4.1376189 v 0 c 3.235838,4.734438 1.212907,11.6486691 -4.509628,15.4131631 -2.41028,1.585684 -5.121218,2.399788 -7.722666,2.399788 z M 6.3417978,18.966259 c 2.998067,1.349221 6.9730242,0.867444 10.1968352,-1.252865 4.689522,-3.08509 6.435346,-8.6225711 3.892526,-12.3440494 v 0 C 17.887838,1.6481122 12.003199,1.1309398 7.3134261,4.2160305 3.9252546,6.4447387 1.9702222,10.02193 2.2876675,13.377897 h 4.0260688 c 0.5547151,0 1.0678391,0.271614 1.3720053,0.726844 0.3041663,0.455475 0.3537749,1.025004 0.1325403,1.524232 z"
                   id="path8"
                   fill="#000000" />
              </g>
              <g
                 id="g10"
                 transform="translate(51.5077,81.1216)">
                <path
                   d="m 2.4784429,4.7537738 c 2.8943398,-4.23436983 9.4677381,-4.88647311 14.6821601,-1.45611 3.910816,2.5725265 5.94402,6.7100522 5.496289,10.4046482 -0.05362,0.44342 -0.428689,0.781885 -0.883686,0.781885 h -4.240789 c -0.369309,0 -0.617853,0.371401 -0.470781,0.703967 l 1.568686,3.544659 c 0.189415,0.428181 2.51e-4,0.924939 -0.426434,1.131656 C 14.918442,21.456515 10.444893,21.108957 6.6796453,18.632045 1.4652235,15.201683 -0.41564637,8.9881436 2.4784429,4.7537738 Z"
                   id="path9"
                   fill="#333233" />
                <path
                   d="M 13.774436,21.95057 C 11.172737,21.95057 8.4623,21.136486 6.05177,19.550594 0.32923524,15.786191 -1.6936958,8.8718809 1.542142,4.1378029 v 0 C 4.7779798,-0.59652097 12.066445,-1.385534 17.788729,2.379115 c 4.14984,2.7295917 6.500238,7.2254911 5.987866,11.453962 -0.121015,1.001628 -0.982402,1.757213 -2.003389,1.757213 h -3.304237 l 1.195619,2.702062 c 0.428438,0.968692 0.0063,2.094694 -0.961106,2.563678 -1.514066,0.733708 -3.197503,1.09454 -4.929046,1.09454 z M 3.4149943,5.3697447 C 0.87192395,9.0908873 2.617748,14.628235 7.3075206,17.713497 10.530831,19.834 14.505036,20.316257 17.504607,18.966331 L 16.027371,15.62888 c -0.220984,-0.498725 -0.171376,-1.068486 0.132791,-1.523459 0.304416,-0.455464 0.81729,-0.727071 1.372005,-0.727071 h 4.026069 C 21.875931,10.022218 19.920899,6.4453587 16.532728,4.2167042 11.842955,1.1311963 5.9583153,1.6488478 3.4149943,5.3697447 Z"
                   id="path10"
                   fill="#000000" />
              </g>
              <path
                 d="m 172.9248,80.981133 -4.47888,1.205413 c -1.7548,0.472355 -3.56238,-0.559174 -4.03753,-2.303651 l -1.23204,-4.524653 c -0.27828,-1.02221 -1.17504,-1.772926 -2.23833,-1.835465 -9.17757,-0.541762 -19.25759,5.03772 -25.32942,14.96797 -8.10788,13.260283 -5.99882,29.256103 4.71102,35.727813 10.70985,6.4717 25.96444,0.9685 34.07257,-12.29178 6.24231,-10.20935 6.42709,-22.038833 1.29444,-29.895969 -0.59381,-0.908658 -1.70989,-1.332699 -2.76183,-1.049678 z"
                 id="path11"
                 fill="#333233" />
              <path
                 d="m 177.64654,88.756622 c -1.45973,5.723922 -5.45903,17.601238 -14.9101,26.084048 -6.15365,5.52319 -16.60557,8.28036 -22.52106,9.46239 10.50983,6.34209 25.38844,0.82062 33.31387,-12.40187 4.54613,-7.58431 5.81761,-16.05975 4.11729,-23.144568 z"
                 id="path12"
                 fill="#1e1f1e" />
              <path
                 d="m 7.352123,80.981133 4.478882,1.205413 c 1.754794,0.472355 3.562383,-0.559174 4.037531,-2.303651 l 1.232032,-4.524653 c 0.27828,-1.02221 1.175044,-1.772926 2.238331,-1.835465 9.177576,-0.541762 19.257589,5.03772 25.329428,14.96797 8.107874,13.260283 5.998816,29.256103 -4.711029,35.727813 -10.709844,6.4717 -25.96444,0.9685 -34.0725608,-12.29178 C -0.35757356,101.71743 -0.54235365,89.887947 4.5902897,82.030811 5.1841023,81.122153 6.300184,80.698112 7.352123,80.981133 Z"
                 id="path13"
                 fill="#333233" />
              <path
                 d="m 47.879463,92.574113 c 2.5e-4,0.0032 0.998553,19.454647 -13.104487,25.796907 -6.471219,2.9104 -13.644152,3.46706 -19.513437,3.21833 8.051699,5.82475 17.91445,7.18061 25.518013,2.60197 9.670193,-5.82327 12.42278,-19.27975 7.099911,-31.617207 z"
                 id="path14"
                 fill="#1e1f1e" />
              <path
                 d="m 149.36304,127.8859 c -3.75407,0 -7.32671,-0.9775 -10.4779,-2.91613 -5.43937,-3.34559 -8.94606,-9.13617 -9.87453,-16.30493 -0.91669,-7.07746 0.79608,-14.667489 4.82302,-21.371564 6.07511,-10.11367 16.35123,-16.265729 26.1804,-15.676499 1.52423,0.09155 2.81996,1.168537 3.22401,2.679695 l 1.22438,4.57714 c 0.31211,1.167544 1.50487,1.861471 2.65938,1.544651 l 4.45109,-1.219396 0.28832,1.077733 -0.28832,-1.077733 c 1.51222,-0.414322 3.10362,0.200958 3.9578,1.531254 2.66306,4.149669 3.96786,9.293958 3.77344,14.876635 -0.19736,5.667274 -1.94078,11.391374 -5.04195,16.554514 -4.02719,6.70383 -9.8966,11.73722 -16.52751,14.17204 -2.82511,1.03729 -5.6463,1.55259 -8.37163,1.55259 z m 9.33785,-54.075202 c -8.66068,0 -17.57243,5.637258 -22.98165,14.64268 -3.76706,6.271145 -5.37269,13.346122 -4.52096,19.921432 0.83996,6.48427 3.97693,11.70001 8.8328,14.68685 4.85635,2.98708 10.87581,3.40364 16.95091,1.173 6.16018,-2.26215 11.62751,-6.96185 15.39433,-13.23299 2.90577,-4.8369 4.53861,-10.18736 4.72274,-15.473065 0.17848,-5.122209 -1.00374,-9.818931 -3.41868,-13.581817 -0.33024,-0.514305 -0.94538,-0.752974 -1.5306,-0.592207 l -4.45109,1.219396 c -2.32962,0.63885 -4.73525,-0.760665 -5.36583,-3.116593 l -1.22438,-4.57714 c -0.15618,-0.58402 -0.64848,-0.999334 -1.22488,-1.034068 -0.39375,-0.02382 -0.78823,-0.03548 -1.18271,-0.03548 z"
                 id="path15"
                 fill="#000000" />
              <path
                 d="m 29.995524,127.8859 c -9.171866,0 -18.964493,-5.77273 -24.9327293,-15.70841 C 1.9607047,107.01258 0.21614693,101.28601 0.01895525,95.616774 -0.17553853,90.031676 1.1297527,84.885632 3.7938024,80.734348 c 0.8540068,-1.331062 2.445275,-1.947574 3.9595305,-1.53185 l 4.4527551,1.219871 c 1.153718,0.316943 2.347415,-0.377006 2.660125,-1.545253 l 1.224845,-4.578922 c 0.404685,-1.511995 1.700901,-2.589154 3.225458,-2.680738 9.829907,-0.59492 20.11257,5.564747 26.190194,15.682354 8.363969,13.9244 6.096755,30.83258 -5.053405,37.69116 -3.194063,1.9647 -6.775888,2.89493 -10.457781,2.89493 z M 6.809805,81.309412 c -0.4628118,0 -0.9033046,0.233798 -1.1647553,0.641829 -2.4160886,3.76435 -3.5985029,8.462901 -3.4201965,13.587104 0.1841928,5.287765 1.8178915,10.640305 4.7245066,15.479085 7.7314342,12.87156 22.2475872,18.28417 32.3575852,12.06469 10.110243,-6.21899 12.045125,-21.75019 4.313445,-34.622005 -5.657733,-9.419191 -15.148196,-15.156929 -24.173149,-14.61264 -0.576859,0.03475 -1.069103,0.450223 -1.225581,1.034718 l -1.224845,4.578674 c -0.630571,2.357094 -3.03783,3.755912 -5.367586,3.117807 L 7.1764736,81.358803 c -0.1218958,-0.03351 -0.245018,-0.04939 -0.3666686,-0.04939 z"
                 id="path16"
                 fill="#000000" />
              <g
                 id="g18"
                 transform="translate(166.9231)">
                <path
                   d="m 13.147234,1.7330098 c 0,0 6.574019,9.1064592 4.38268,18.2129182 -2.19134,9.106459 -8.7653591,6.829844 -13.1480385,4.55323 -4.38267934759,-2.276615 -4.38267934759,-9.106459 0,-13.659689 C 8.7645549,6.2862394 13.147234,1.7330098 13.147234,1.7330098 Z"
                   id="path17"
                   fill="#333233" />
                <path
                   d="m 10.981704,27.676806 c -2.5526676,0 -5.1474572,-1.150702 -7.0897146,-2.159496 C 1.8433302,24.453119 0.50125642,22.497254 0.11265885,20.009673 -0.41301919,16.64256 0.92588936,12.820377 3.6076022,10.034559 L 13.266297,0 14.024014,1.0497724 c 0.281222,0.3895541 6.860841,9.6493056 4.569186,19.1721316 -0.832709,3.460961 -2.369325,5.7482 -4.567482,6.798225 -0.976607,0.466706 -2.007024,0.656677 -3.044014,0.656677 z M 12.978745,3.5178758 5.1566358,11.644126 c -2.1920701,2.277626 -3.2960183,5.343215 -2.8808812,8.000783 0.2724566,1.745405 1.1945236,3.107832 2.5962506,3.835843 3.6480936,1.895408 6.3431978,2.37628 8.2377328,1.471199 1.56413,-0.747488 2.693643,-2.524513 3.357376,-5.282505 1.610148,-6.69173 -1.914257,-13.5395342 -3.488369,-16.1515702 z"
                   id="path18"
                   fill="#000000" />
              </g>
            </g>
            <g
               id="ansible-builder">
              <path
                 d="m 92.172406,0.02064301 c 0.818169,-0.07637138 1.641496,0.0598662 2.399618,0.39706992 1.21194,0.85633837 2.053999,2.19323897 2.339627,3.71452507 0.904894,2.9609519 1.590888,5.993102 2.051673,9.068565 0.527916,3.432733 0.731883,7.121641 -0.779876,10.246965 -0.329558,0.728583 -0.809505,1.367954 -1.403776,1.870071 -0.743588,0.509702 -1.58347,0.837736 -2.459608,0.960653 -2.119991,0.390582 -4.286989,0.390582 -6.406979,0 -0.977329,-0.109891 -1.905256,-0.514135 -2.675574,-1.165592 -0.612595,-0.680307 -1.057785,-1.512027 -1.295793,-2.420846 -1.218621,-4.169828 -1.817791,-8.517729 -1.775717,-12.8855588 0,-1.703558 -0.587906,-4.7776477 0.635899,-6.0200923 0.926423,-0.9686274 1.948194,-1.8275284 3.047514,-2.5617414 1.787715,-1.06312271 4.319311,-1.15278366 6.322992,-1.20401849 z"
                 id="path19"
                 fill="#fdbb49"
                 fill-rule="nonzero" />
              <path
                 d="m 170.967,81.100103 c 0.27088,3.529695 -3.32119,6.768412 -8.14988,7.476882 l -0.7773,0.07591 -0.71842,0.30363 c -1.53045,-4.209813 -3.32065,-8.305257 -5.35867,-12.25905 1.57077,-0.897828 3.30072,-1.428162 5.07602,-1.556102 5.20556,-0.442794 9.65738,2.213966 9.92825,5.958733 z"
                 id="path20"
                 fill="#323133"
                 fill-rule="nonzero" />
              <path
                 d="m 155.8702,75.766579 c 2.31613,4.140294 4.352,8.430039 6.094,12.840588 4.82919,12.306063 7.09276,25.462293 6.65285,38.667533 0.0138,3.26695 -0.49833,6.51498 -1.51685,9.6205 -1.61714,3.94786 -4.18531,7.43851 -7.4778,10.16381 -15.20839,13.50316 -37.25591,15.35835 -57.62691,15.72939 -18.042512,0.33128 -36.151549,0 -54.007777,-2.65028 -6.493174,-0.96735 -13.106099,-2.30574 -18.627958,-5.8041 -22.2337979,-13.98021 -14.183859,-45.43899 -5.295662,-66.879723 1.064455,-2.584019 2.155521,-5.022274 3.193364,-7.261757 0.811647,-1.722679 1.663211,-3.471862 2.554692,-5.207793 0.172974,-0.357787 0.359253,-0.702323 0.545533,-1.046859 v 0 l 0.67859,0.901094 3.712285,5.035525 c 1.480855,1.997505 3.840758,3.157829 6.333506,3.114074 H 144.79987 c 2.49425,0.05046 4.85708,-1.111301 6.33351,-3.114074 l 3.9917,-5.406564 c 0.25281,0.437296 0.50562,0.874592 0.74512,1.298636 z"
                 id="path21"
                 fill="#565656"
                 fill-rule="nonzero" />
              <path
                 d="m 156.62639,59.941403 c 1.32463,0.682062 2.28722,1.877246 2.64754,3.287267 0.36032,1.410021 0.0844,2.901864 -0.75895,4.103207 l -4.95259,6.469862 -3.96208,5.216805 c -1.46546,1.93248 -3.81075,3.053467 -6.28649,3.004777 H 40.365928 c -2.474244,0.04222 -4.816629,-1.07738 -6.286491,-3.004777 L 30.394708,74.185327 29.721156,73.31586 25.177977,67.331877 c -0.844336,-1.199716 -1.122278,-2.690297 -0.764528,-4.10011 0.357749,-1.409813 1.317479,-2.606014 2.63991,-3.290364 l 7.752458,-4.487987 h 0.462242 l -0.198103,4.551918 c 0.04843,1.710314 1.469117,3.085757 3.235694,3.132641 l 31.855076,2.697906 1.545209,0.127863 17.327471,1.444851 c 1.942033,0.166191 3.895423,0.166191 5.837456,0 l 16.614298,-1.368133 2.17914,-0.179008 31.78904,-2.697907 c 1.79808,-0.04661 3.24638,-1.443171 3.30173,-3.183785 l -0.1981,-4.51356 h 0.29055 z"
                 id="path22"
                 fill="#fdbb49"
                 fill-rule="nonzero" />
              <path
                 d="m 149.03106,60.955349 c -0.0563,1.790678 -1.52945,3.22741 -3.35838,3.275358 l -32.33439,2.775504 v -0.591932 l -2.8882,-27.360418 -6.47493,-32.0037976 0.6448,-0.1183864 c 24.69074,2.6308095 42.0065,18.178893 43.79316,40.119844 l 0.41643,9.207833 z"
                 id="path23"
                 fill="#fdbb49"
                 fill-rule="nonzero" />
              <path
                 d="m 115.52795,67.071561 v 0.57517 l -2.25964,0.178942 -17.228064,1.367627 c -2.004698,0.164627 -4.021014,0.164627 -6.025713,0 L 72.074342,67.72342 70.47205,67.595605 v -0.575171 l 2.944382,-26.585651 h 39.139748 z"
                 id="path24"
                 fill="#fdbb49"
                 fill-rule="nonzero" />
              <polygon
                 id="polygon24"
                 fill="#fdbb49"
                 fill-rule="nonzero"
                 points="97.043478,2.3492208 97.552225,2.310559 104.03875,2.671402 104.84002,6.7695471 110.90683,38.124224 99.587213,38.124224 " />
              <polygon
                 id="polygon25"
                 fill="#fdbb49"
                 fill-rule="nonzero"
                 points="81.274443,6.8726451 81.325318,6.5762384 81.961251,2.671402 88.58768,2.310559 88.956522,2.3363335 86.412787,38.124224 75.093168,38.124224 " />
              <path
                 d="m 33.503106,155.85748 c 0,0 85.042014,7.29258 92.356744,-9.09947 7.31473,-16.39205 18.58551,-35.73493 -11.05838,-63.423321 l 31.60865,-0.441974 7.68644,-7.799547 c 0,0 27.17468,52.204972 4.18174,71.664842 0,0 -18.35984,15.59909 -53.61922,14.96213 -35.259376,-0.63696 -63.150927,-0.85795 -71.155974,-5.86266 z"
                 id="path25"
                 fill="#323133"
                 fill-rule="nonzero" />
              <polygon
                 id="polygon26"
                 fill="#323133"
                 fill-rule="nonzero"
                 points="42.745342,82.024845 127.08074,93.57764 122.37105,82.024845 " />
              <path
                 d="M 80.869565,7.1290742 74.367896,39.041614 71.485712,66.41402 v 0.592191 l -32.387699,-2.77672 c -1.79314,-0.04825 -3.235194,-1.463877 -3.284348,-3.224153 l 0.201082,-4.684893 0.415571,-9.277666 C 38.454549,25.987082 55.372296,9.6820774 79.890963,6.931677 Z"
                 id="path26"
                 fill="#fdbb49"
                 fill-rule="nonzero" />
              <path
                 d="m 28.592463,74.283834 0.289525,0.181225 c -0.787508,1.695748 -1.517111,3.352661 -2.223552,5.087243 -0.903317,2.187643 -1.852959,4.569456 -2.779439,7.093661 h -1.158099 c -5.118801,-0.388339 -9.079501,-3.805724 -8.847881,-7.624392 0.231619,-3.818667 4.632398,-6.601764 9.716455,-6.200481 1.738598,0.107286 3.440072,0.604753 5.002991,1.462744 z"
                 id="path27"
                 fill="#323133"
                 fill-rule="nonzero" />
              <path
                 d="m 155.12508,74.441441 c 0.25281,0.437295 0.50562,0.874591 0.74512,1.325138 2.31613,4.140294 4.352,8.430039 6.094,12.840588 4.82919,12.306063 7.09276,25.462293 6.65285,38.667533 0.0138,3.26695 -0.49833,6.51498 -1.51685,9.6205 -1.61714,3.94786 -4.18531,7.43851 -7.4778,10.16381 -15.20839,13.50316 -37.25591,15.35835 -57.62691,15.72939 -18.042512,0.33128 -36.151549,0 -54.007777,-2.65028 -6.493174,-0.96735 -13.106099,-2.30574 -18.627958,-5.8041 -22.2337979,-13.98021 -14.183859,-45.43899 -5.295662,-66.879723 1.064455,-2.584019 2.155521,-5.022274 3.193364,-7.261757 0.811647,-1.722679 1.663211,-3.471862 2.554692,-5.207793 0.172974,-0.357787 0.359253,-0.702323 0.545533,-1.046859"
                 id="path28"
                 stroke="#010101"
                 stroke-width="1.67" />
              <path
                 d="m 153.65217,77.216212 c 0.26955,-0.17761 0.55029,-0.337588 0.84046,-0.478932 1.72452,-0.918612 3.62381,-1.461224 5.57288,-1.592125 5.71511,-0.465989 10.6027,2.252275 10.90009,6.083732 0.29739,3.611407 -3.64629,6.9251 -8.94764,7.64997 l -0.85339,0.07767"
                 id="path29"
                 stroke="#010101"
                 stroke-width="1.67" />
              <path
                 d="m 22.895007,86.645963 c -5.219419,-0.388339 -9.257973,-3.805724 -9.021801,-7.624392 0.236173,-3.818667 4.723456,-6.601764 9.907449,-6.200481 1.77608,0.123464 3.511162,0.638588 5.101333,1.514523"
                 id="path30"
                 stroke="#010101"
                 stroke-width="1.67" />
              <path
                 d="m 107.86929,6.931677 c 24.16882,2.6560072 41.11856,18.353009 42.86745,40.504109 l 0.40763,9.296025 0.19724,4.687853 c -0.0551,1.807828 -1.49711,3.258321 -3.28738,3.306729 l -31.6509,2.802087 -2.16967,0.185921 -16.594696,1.474084 c -1.924879,0.171047 -3.860912,0.171047 -5.78579,0 L 74.627299,67.661281 73.088805,67.52848 41.345857,64.779513 c -1.7589,-0.04869 -3.173417,-1.477251 -3.221633,-3.253609 l 0.197242,-4.727693 0.407636,-9.362425 C 40.71468,26.187729 58.190395,9.7337646 82.240873,6.9582371"
                 id="path31"
                 stroke="#010101"
                 stroke-width="1.67" />
              <g
                 id="g31"
                 transform="translate(-77.4037,-4.6211)" />
              <g
                 id="g32"
                 transform="translate(-77.4037,-4.6211)" />
              <g
                 id="g33"
                 transform="translate(-77.4037,-4.6211)" />
              <g
                 id="g34"
                 transform="translate(-77.4037,-4.6211)" />
              <polyline
                 id="polyline34"
                 stroke="#010101"
                 stroke-width="1.67"
                 points="86.2457784 38.1242236 75.0931677 38.1242236 81.183245 6.38675631 81.2333691 6.08574115 81.8599203 2.12019369 88.3885834 0.87687023 92.9248139 0 97.7492578 0.87687023 104.14008 2.12019369 104.929534 6.28205538 110.906832 38.1242236 99.7542216 38.1242236" />
              <path
                 d="m 93.57764,82.023323 h 50.86475 c 2.47984,0.04864 4.82902,-1.071266 6.29691,-3.001889 l 3.96864,-5.211789 4.9608,-6.489189 c 0.84474,-1.200187 1.12113,-2.690596 0.76021,-4.099262 -0.36092,-1.408665 -1.3251,-2.6027 -2.65192,-3.284106 l -7.76531,-4.483672"
                 id="path34"
                 stroke="#010101"
                 stroke-width="1.67" />
              <path
                 d="M 93.57764,82.023693 H 40.612296 c -2.512094,0.04218 -4.890312,-1.076359 -6.382659,-3.00193 l -3.741096,-4.854186 -0.683856,-0.868643 -4.612678,-5.978312 c -0.857253,-1.19858 -1.139446,-2.687748 -0.776224,-4.096226 0.363222,-1.408477 1.337634,-2.603544 2.680294,-3.287246 l 7.871053,-4.483734"
                 id="path35"
                 stroke="#010101"
                 stroke-width="1.67" />
              <path
                 d="m 159.40158,24.344346 c 0.5317,3.631135 -6.93682,17.260858 -9.55822,19.556275 0,0 -8.27225,0.09076 -12.3651,-11.671525 0,0 12.72368,-2.048998 19.26482,-9.946716 -0.0124,0.01297 2.11443,-1.569169 2.6585,2.061966 z"
                 id="path36"
                 fill="#faf4ed"
                 fill-rule="nonzero" />
              <path
                 d="m 137.47826,32.234239 c 0,0 12.71581,-2.048094 19.25289,-9.942332 0,0 2.12548,-1.58144 2.66921,2.061057 0.54372,3.642497 -6.92017,17.253252 -9.56466,19.547657 0,0 -8.24241,0.09072 -12.35744,-11.666382 z"
                 id="path37"
                 stroke="#010101"
                 stroke-width="1.67" />
              <ellipse
                 id="ellipse37"
                 fill="#f6bdc0"
                 fill-rule="nonzero"
                 cx="34.080746"
                 cy="118.41615"
                 rx="12.130435"
                 ry="8.6645966" />
              <ellipse
                 id="ellipse38"
                 fill="#f6bdc0"
                 fill-rule="nonzero"
                 cx="148.45341"
                 cy="118.41615"
                 rx="12.130435"
                 ry="8.6645966" />
              <circle
                 id="circle38"
                 fill="#010101"
                 fill-rule="nonzero"
                 cx="53.720497"
                 cy="99.931679"
                 r="10.975155" />
              <circle
                 id="circle39"
                 fill="#faf4ed"
                 fill-rule="nonzero"
                 cx="56.608696"
                 cy="94.732918"
                 r="3.4658384" />
              <circle
                 id="circle40"
                 fill="#010101"
                 fill-rule="nonzero"
                 cx="131.12422"
                 cy="99.931679"
                 r="10.975155" />
              <circle
                 id="circle41"
                 fill="#faf4ed"
                 fill-rule="nonzero"
                 cx="136.32298"
                 cy="94.732918"
                 r="3.4658384" />
              <path
                 d="m 137.47826,93.57764 c 2.45684,-0.4165 4.8046,-1.199084 6.93168,-2.310559"
                 id="path41"
                 stroke="#010101"
                 stroke-width="1.67"
                 stroke-linecap="round" />
              <ellipse
                 id="ellipse41"
                 stroke="#010101"
                 stroke-width="1.67"
                 fill="#f6bdc0"
                 fill-rule="nonzero"
                 cx="93"
                 cy="134.01242"
                 rx="42.167702"
                 ry="27.726707" />
              <path
                 d="M 47.36646,93.57764 C 44.909067,93.166456 42.560544,92.383615 40.434783,91.267081"
                 id="path42"
                 stroke="#010101"
                 stroke-width="1.67"
                 stroke-linecap="round" />
              <ellipse
                 id="ellipse42"
                 fill="#010101"
                 fill-rule="nonzero"
                 transform="rotate(-15.66,76.6235,124.139)"
                 cx="76.623497"
                 cy="124.13901"
                 rx="6.1153884"
                 ry="3.7298596" />
              <ellipse
                 id="ellipse43"
                 fill="#010101"
                 fill-rule="nonzero"
                 transform="rotate(-74.34,109.26,124.1281)"
                 cx="109.25995"
                 cy="124.12814"
                 rx="3.7298596"
                 ry="6.1153884" />
              <path
                 d="m 122.45963,40.434784 c 0,15.951081 -12.93091,28.881986 -28.881992,28.881986 -15.95108,0 -28.881986,-12.930905 -28.881986,-28.881986 0,-15.95108 12.930906,-28.881989 28.881986,-28.881989 7.661072,-0.0036 15.009402,3.038194 20.426592,8.455392 5.4172,5.417199 8.45897,12.765523 8.4554,20.426597"
                 id="path43"
                 stroke="#010101"
                 stroke-width="1.67"
                 fill="#f15b52"
                 fill-rule="nonzero" />
              <path
                 d="M 93.441365,28.017639 100.4904,46.110998 89.769723,37.374906 Z M 106.04264,50.287406 95.130064,23.140758 c -0.260928,-0.727022 -0.938281,-1.204135 -1.688699,-1.189483 -0.765597,-0.02536 -1.463206,0.451569 -1.739873,1.189483 L 79.714286,52.917485 h 4.144989 l 4.746269,-12.278109 14.162046,11.815532 c 0.40165,0.417035 0.94065,0.66242 1.5096,0.687257 0.52793,0.01426 1.03904,-0.192467 1.41726,-0.573245 0.37821,-0.380778 0.59126,-0.90329 0.59126,-1.448876 -0.0163,-0.287004 -0.0813,-0.56882 -0.19189,-0.832638"
                 id="path44"
                 fill="#ffffff"
                 fill-rule="nonzero" />
              <path
                 d="m 67.006211,11.552795 c 0,0 -28.918106,13.342132 -26.418207,47.310042 l 6.132566,1.211697 c 0,0 -2.656143,-28.569126 20.285641,-48.521739 z"
                 id="path45"
                 fill="#fdf6ef"
                 fill-rule="nonzero" />
              <path
                 d="m 26.782477,19.936036 c 6.769498,7.719443 19.428703,9.23694 19.428703,9.23694 C 42.643141,41.312954 34.456203,41.590062 34.456203,41.590062 31.780175,39.373197 23.849842,25.860873 24.277518,22.152902 c 0.427676,-3.707972 2.504959,-2.216866 2.504959,-2.216866 z"
                 id="path46"
                 fill="#faf4ed"
                 fill-rule="nonzero" />
              <path
                 d="m 46.21118,29.1835 c 0,0 -12.633108,-1.504581 -19.38865,-9.238657 0,0 -2.170553,-1.51778 -2.548571,2.217277 -0.378017,3.735058 7.535966,17.223498 10.206478,19.427578 -0.06097,0.0132 8.072507,-0.263962 11.730743,-12.406198 z"
                 id="path47"
                 stroke="#010101"
                 stroke-width="1.67" />
              <path
                 d="m 71.627329,156.26988 c 0,0 72.898821,-0.82646 44.649861,-45.36305 0,0 16.41421,7.34624 17.61233,18.7198 1.19812,11.37356 -6.2169,22.68152 -28.71489,28.38798 0,-0.0656 -21.526185,4.18473 -33.547301,-1.74473 z"
                 id="path48"
                 fill="#de9098"
                 fill-rule="nonzero" />
              <path
                 d="m 88.956522,107.4417 c 0,0 -32.036835,-0.45887 -38.124224,21.9496 0,0 10.236699,-17.06766 38.124224,-21.9496 z"
                 id="path49"
                 fill="#fdf6ef"
                 fill-rule="nonzero" />
              <ellipse
                 id="ellipse49"
                 stroke="#010101"
                 stroke-width="1.67"
                 cx="93"
                 cy="134.01242"
                 rx="42.167702"
                 ry="27.726707" />
              <path
                 d="m 25.743846,115.00532 c 0.07623,-0.15935 0.163124,-0.31212 0.25994,-0.45703 l 0.12997,-0.20445 c 0.06498,-0.0842 -0.12997,0.1804 0,0 0.02272,-0.0451 0.05199,-0.0858 0.08665,-0.12028 0.200782,-0.26522 0.421831,-0.51068 0.660681,-0.73364 l 0.173293,-0.16837 c 0.07581,-0.0722 -0.162463,0.14432 0,0 l 0.08665,-0.0722 0.400741,-0.30067 0.368248,-0.1804 h 0.216616 v 0 h 0.12997 c 0.211379,-0.0709 0.392308,-0.22483 0.509049,-0.43297 0.174839,-0.33321 0.150956,-0.75073 -0.06045,-1.05669 -0.211403,-0.30597 -0.568386,-0.43969 -0.903496,-0.33844 -1.442416,0.60019 -2.657361,1.72869 -3.444201,3.19917 -0.210004,0.44846 -0.06704,1.001 0.325313,1.25728 0.392352,0.25628 0.89672,0.12658 1.147679,-0.29513 z"
                 id="path50"
                 fill="#fdf6ef"
                 fill-rule="nonzero" />
              <path
                 d="m 141.93416,115.15854 0.20641,-0.24495 c 0.0885,-0.098 0,0 0,0 l 0.10321,-0.12248 c 0.14744,-0.14697 0.29488,-0.28169 0.45706,-0.41641 l 0.51604,-0.40417 0.25065,-0.17146 c 0.11795,-0.0735 -0.20642,0.13472 0,0 l 0.14744,-0.098 c 0.3692,-0.21376 0.75874,-0.40218 1.16478,-0.56339 l 0.28013,-0.11022 c -0.30962,0.13472 0,0 0.11795,0 l 0.67823,-0.18372 c 0.30696,-0.068 0.56714,-0.2373 0.72025,-0.46855 0.15311,-0.23124 0.18587,-0.50441 0.0907,-0.75619 -0.18527,-0.52286 -0.84362,-0.82364 -1.4744,-0.67362 -2.14117,0.4962 -4.00105,1.60719 -5.24886,3.13536 -0.31628,0.46103 -0.13327,1.04742 0.41283,1.32273 0.55606,0.25597 1.25605,0.10522 1.59235,-0.34293 z"
                 id="path51"
                 fill="#fdf6ef"
                 fill-rule="nonzero" />
            </g>
          </g>
          <g
             id="Group-2"
             transform="translate(100.8676)">
            <path
               d="m 112.69182,150.86398 c 41.5115,0 75.01267,0.3218 100.5035,0.96547 l 0.26232,7.19271 c -0.72432,0.28529 -1.49268,0.35179 -2.53573,0.42246 -2.5127,0.17026 -6.53941,0.31268 -12.0801,0.42769 -11.10068,0.23041 -28.2679,0.35009 -51.50146,0.35913 h -5.81109 c -48.338853,-0.018 -120.029413,-0.47739 -215.071679,-1.37803 l -7.97e-4,-7.00867 C 6.2989238,151.21056 67.10131,150.88393 108.86387,150.86486 l 3.19759,-8.6e-4 z"
               id="Rectangle"
               stroke="#000000"
               fill="#925d32"
               transform="rotate(117,70.0235,155.548)" />
            <g
               id="Group-4"
               transform="translate(14.2101)">
              <path
                 d="m 57.192,28.568 0.616239,6.51e-4 c 0.228989,1.15e-4 0.458992,2.4e-4 0.690006,3.74e-4 l 1.398237,9.09e-4 c 22.801242,0.01646 55.128228,0.117833 96.976658,0.30487 1.26138,4.69286 1.94958,14.268074 2.08251,28.721684 0.0598,6.496896 0.0833,12.269656 0.0857,17.374689 l -7e-5,1.809374 c -0.004,8.216329 -0.0625,14.609404 -0.10645,19.438929 -0.0174,1.916342 -0.0326,3.586634 -0.0413,5.02709 -0.0618,10.21812 -0.96132,20.7267 -2.69815,31.52578 L 29.108667,127.89269 C 27.749952,114.5734 27.030717,104.99343 26.95247,99.152719 26.631973,75.229297 27.450951,58.749634 27.874644,50.223753 c 0.139487,-2.806869 0.235954,-4.755901 0.235954,-5.829063 0,-5.360383 0.327422,-10.533404 0.98254,-15.519044 l 31.251699,-5.33e-4 z"
                 id="path52"
                 stroke="#925d32"
                 fill="#e1c4a7"
                 transform="rotate(29,88.0415,80.6782)" />
              <text
                 id="Simple!-Flexible!"
                 transform="rotate(29,94.6072,80.9467)"
                 font-family="RedHatDisplay-Medium, 'Red Hat Display'"
                 font-size="18px"
                 font-weight="400"
                 line-spacing="30"
                 fill="#151515"><tspan
                   x="60.60722"
                   y="68.946663"
                   id="tspan52">Simple!</tspan><tspan
                   x="60.60722"
                   y="98.946663"
                   id="tspan53">Flexible!</tspan></text>
              <circle
                 id="circle53"
                 fill="#000000"
                 cx="114.92226"
                 cy="43.156036"
                 r="2" />
              <circle
                 id="Oval-Copy"
                 fill="#000000"
                 cx="66.922264"
                 cy="118.15604"
                 r="2" />
            </g>
          </g>
        </g>
      </g>
    </g>
  </g>
</svg>
