<?xml version="1.0" encoding="UTF-8" standalone="no"?>
<!-- Generator: Adobe Illustrator 21.0.0, SVG Export Plug-In . SVG Version: 6.00 Build 0)  -->

<svg
   version="1.1"
   width="213.60001"
   height="213.60001"
   id="community-logo-black"
   x="0px"
   y="0px"
   viewBox="0 0 213.60001 213.60001"
   xml:space="preserve"
   sodipodi:docname="ansible-core.svg"
   inkscape:version="1.3 (0e150ed6c4, 2023-07-21)"
   xmlns:inkscape="http://www.inkscape.org/namespaces/inkscape"
   xmlns:sodipodi="http://sodipodi.sourceforge.net/DTD/sodipodi-0.dtd"
   xmlns="http://www.w3.org/2000/svg"
   xmlns:svg="http://www.w3.org/2000/svg"><defs
   id="defs2" /><sodipodi:namedview
   id="namedview2"
   pagecolor="#ffffff"
   bordercolor="#111111"
   borderopacity="1"
   inkscape:showpageshadow="0"
   inkscape:pageopacity="0"
   inkscape:pagecheckerboard="1"
   inkscape:deskcolor="#d1d1d1"
   inkscape:zoom="2.5766667"
   inkscape:cx="103.62225"
   inkscape:cy="103.8163"
   inkscape:window-width="1920"
   inkscape:window-height="979"
   inkscape:window-x="0"
   inkscape:window-y="0"
   inkscape:window-maximized="1"
   inkscape:current-layer="community-logo-black" />&#10;<style
   type="text/css"
   id="style1">&#10;	.st0{fill:#FFFFFF;}&#10;</style>&#10;<title
   id="title1">Ansible-Mark-RGB</title>&#10;<path
   d="m 213.6,106.8 c 0,59 -47.8,106.8 -106.8,106.8 C 47.8,213.6 0,165.8 0,106.8 0,47.8 47.8,0 106.8,0 c 0,0 0,0 0,0 59,0 106.8,47.8 106.8,106.8 0,0 0,0 0,0"
   id="path1" />&#10;<path
   class="st0"
   d="M 108.6,66.8 136.2,135 94.5,102.1 Z m 49.1,83.9 -42.5,-102.3 c -1,-2.8 -3.7,-4.6 -6.6,-4.5 -3,-0.1 -5.7,1.7 -6.8,4.5 L 55.1,160.6 h 16 l 18.5,-46.3 55.1,44.5 c 2.2,1.8 3.8,2.6 5.9,2.6 4.2,0.1 7.7,-3.2 7.8,-7.4 0,-0.1 0,-0.1 0,-0.2 0,-1 -0.3,-2.1 -0.7,-3.1"
   id="path2" />&#10;</svg>
