<?xml version="1.0" encoding="UTF-8" standalone="no"?>
<!-- Generator: Adobe Illustrator 25.1.0, SVG Export Plug-In . SVG Version: 6.00 Build 0)  -->

<svg
   version="1.1"
   width="533.15582"
   height="377.04443"
   id="awx-logo"
   x="0px"
   y="0px"
   viewBox="0 0 533.36051 377.49999"
   xml:space="preserve"
   sodipodi:docname="awx.svg"
   inkscape:version="1.3 (0e150ed6c4, 2023-07-21)"
   xmlns:inkscape="http://www.inkscape.org/namespaces/inkscape"
   xmlns:sodipodi="http://sodipodi.sourceforge.net/DTD/sodipodi-0.dtd"
   xmlns="http://www.w3.org/2000/svg"
   xmlns:svg="http://www.w3.org/2000/svg"><defs
   id="defs18" /><sodipodi:namedview
   id="namedview18"
   pagecolor="#ffffff"
   bordercolor="#111111"
   borderopacity="1"
   inkscape:showpageshadow="0"
   inkscape:pageopacity="0"
   inkscape:pagecheckerboard="1"
   inkscape:deskcolor="#d1d1d1"
   inkscape:zoom="1.4204753"
   inkscape:cx="266.4601"
   inkscape:cy="188.31725"
   inkscape:window-width="1920"
   inkscape:window-height="979"
   inkscape:window-x="0"
   inkscape:window-y="0"
   inkscape:window-maximized="1"
   inkscape:current-layer="awx-logo" />&#10;<style
   type="text/css"
   id="style1">&#10;	.st0{display:none;}&#10;	.st1{display:inline;fill:#FAEDA1;}&#10;	.st2{display:inline;fill:#5D2815;}&#10;	.st3{fill:#FAEDA1;}&#10;	.st4{fill:#5D2815;}&#10;	.st5{fill:#2D8CCE;}&#10;	.st6{fill:#794532;}&#10;	.st7{fill:#026DAE;}&#10;	.st8{fill:#FF4B4B;}&#10;	.st9{fill:#ABDBF7;}&#10;	.st10{fill:#CB2D2F;}&#10;	.st11{fill:#FCA2A3;}&#10;	.st12{fill:none;stroke:#5D2815;stroke-width:5;stroke-miterlimit:10;}&#10;	.st13{fill:#FFFFFF;}&#10;	.st14{fill:#A4CE39;}&#10;</style>&#10;<g
   class="st0"
   id="g1"
   transform="translate(-7.2854499,-6.5)">&#10;	<polygon
   class="st1"
   points="176.12,230 249.79,230 295.72,303.5 249.79,377 176.12,377 130.18,303.5 "
   id="polygon1" />&#10;	<path
   class="st2"
   d="m 248.95,231.5 45,72 -45,72 h -72 l -45,-72 45,-72 h 72 m 1.67,-3 h -1.66 -72 -1.66 l -0.88,1.41 -45,72 -0.99,1.59 0.99,1.59 45,72 0.88,1.41 h 1.66 72 1.66 l 0.88,-1.41 45,-72 0.99,-1.59 -0.99,-1.59 -45,-72 z"
   id="path1" />&#10;</g>&#10;&#10;&#10;<g
   class="st0"
   id="g4"
   transform="translate(-7.2854499,-6.5)">&#10;	<polygon
   class="st1"
   points="57.12,304 130.79,304 176.72,377.5 130.79,451 57.12,451 11.18,377.5 "
   id="polygon4" />&#10;	<path
   class="st2"
   d="m 129.95,305.5 45,72 -45,72 h -72 l -45,-72 45,-72 h 72 m 1.67,-3 h -1.66 -72 -1.66 l -0.88,1.41 -45,72 -0.99,1.59 0.99,1.59 45,72 0.88,1.41 h 1.66 72 1.66 l 0.88,-1.41 45,-72 0.99,-1.59 -0.99,-1.59 -45,-72 z"
   id="path4" />&#10;</g>&#10;&#10;&#10;&#10;&#10;&#10;&#10;&#10;&#10;&#10;&#10;&#10;&#10;&#10;&#10;&#10;&#10;<g
   id="g19"
   transform="translate(-7.2854499,-6.5)"><g
     id="g2">&#10;	<polygon
   class="st3"
   points="416.57,229 491.34,229 537.9,303.5 491.34,378 416.57,378 370.01,303.5 "
   id="polygon2" />&#10;	<path
   class="st4"
   d="m 489.95,231.5 45,72 -45,72 h -72 l -45,-72 45,-72 h 72 m 2.78,-5 h -2.77 -72 -2.77 l -1.47,2.35 -45,72 -1.66,2.65 1.66,2.65 45,72 1.47,2.35 h 2.77 72 2.77 l 1.47,-2.35 45,-72 1.66,-2.65 -1.66,-2.65 -45,-72 z"
   id="path2" />&#10;</g><g
     id="g3">&#10;	<polygon
   class="st3"
   points="416.57,82 491.34,82 537.9,156.5 491.34,231 416.57,231 370.01,156.5 "
   id="polygon3" />&#10;	<path
   class="st4"
   d="m 489.95,84.5 45,72 -45,72 h -72 l -45,-72 45,-72 h 72 m 2.78,-5 h -2.77 -72 -2.77 l -1.47,2.35 -45,72 -1.66,2.65 1.66,2.65 45,72 1.47,2.35 h 2.77 72 2.77 l 1.47,-2.35 45,-72 1.66,-2.65 -1.66,-2.65 -45,-72 z"
   id="path3" />&#10;</g><g
     id="g5">&#10;	<polygon
   class="st3"
   points="176.57,82 251.34,82 297.9,156.5 251.34,231 176.57,231 130.01,156.5 "
   id="polygon5" />&#10;	<path
   class="st4"
   d="m 249.95,84.5 45,72 -45,72 h -72 l -45,-72 45,-72 h 72 m 2.78,-5 h -2.77 -72 -2.77 l -1.47,2.35 -45,72 -1.66,2.65 1.66,2.65 45,72 1.47,2.35 h 2.77 72 2.77 l 1.47,-2.35 45,-72 1.66,-2.65 -1.66,-2.65 -45,-72 z"
   id="path5" />&#10;</g><g
     id="g6">&#10;	<polygon
   class="st3"
   points="56.57,9 131.34,9 177.9,83.5 131.34,158 56.57,158 10.01,83.5 "
   id="polygon6" />&#10;	<path
   class="st4"
   d="m 129.95,11.5 45,72 -45,72 h -72 l -45,-72 45,-72 h 72 m 2.78,-5 h -2.77 -72 -2.77 l -1.47,2.35 -45,72 -1.66,2.65 1.66,2.65 45,72 1.47,2.35 h 2.77 72 2.77 l 1.47,-2.35 45,-72 1.66,-2.65 -1.66,-2.65 -45,-72 z"
   id="path6" />&#10;</g><rect
     x="250.95"
     y="320.5"
     class="st4"
     width="40"
     height="55"
     id="rect6" /><path
     class="st5"
     d="m 430.45,341 h -320 c -8.25,0 -15,-6.75 -15,-15 V 136 c 0,-8.25 6.75,-15 15,-15 h 320 c 8.25,0 15,6.75 15,15 v 190 c 0,8.25 -6.75,15 -15,15 z"
     id="path7" /><path
     class="st4"
     d="m 318.45,384 h -95 c -4.12,0 -7.5,-3.38 -7.5,-7.5 v 0 c 0,-4.12 3.38,-7.5 7.5,-7.5 h 95 c 4.12,0 7.5,3.38 7.5,7.5 v 0 c 0,4.12 -3.37,7.5 -7.5,7.5 z"
     id="path8" /><rect
     x="280.95001"
     y="320.01999"
     class="st6"
     width="10"
     height="49"
     id="rect8" /><path
     class="st7"
     d="m 95.95,272.5 v 54 l 349,1 v -6 c 0,0 -132,-4 -242,-13 -110,-9 -107,-36 -107,-36 z"
     id="path9" /><path
     class="st8"
     d="m 445.45,326 c 0,8.25 -6.75,15 -15,15 h -320 c -8.25,0 -15,-6.75 -15,-15"
     id="path10" /><path
     class="st9"
     d="m 444.95,185.5 v -54 c -5.99,-10 -13.99,-9 -29.99,-9 -46.86,0 -97.14,-0.87 -144,-1 -45.41,-0.13 -90.59,0.13 -136,0 -13,-0.04 -34,0 -39.01,9 0,2 0,4 0,6 0,0 132,4 242,13 110,9 107,36 107,36 z"
     id="path11" /><polygon
     class="st10"
     points="154.83,339.66 107.77,339.95 98.77,334.95 95.77,325.95 146.66,325.95 "
     id="polygon11" /><polygon
     class="st11"
     points="394.58,340.84 433.54,341.11 441.98,335.66 445.53,326.13 385.32,326.13 "
     id="polygon12" /><path
     class="st12"
     d="m 430.45,341 h -320 c -8.25,0 -15,-6.75 -15,-15 V 136 c 0,-8.25 6.75,-15 15,-15 h 320 c 8.25,0 15,6.75 15,15 v 190 c 0,8.25 -6.75,15 -15,15 z"
     id="path12" /><g
     id="g14">&#10;	<path
   class="st13"
   d="m 207.93,188.72 h 24.16 l 8.7,46.08 12.73,-46.08 h 24.07 l 12.76,46.02 8.71,-46.02 h 24.04 l -18.15,82.32 h -24.94 l -14.44,-51.83 -14.38,51.83 h -24.95 z"
   id="path13" />&#10;	<path
   class="st13"
   d="m 325.79,188.72 h 28.02 l 14.57,25.32 14.18,-25.32 h 27.74 l -25.62,39.87 28.04,42.45 h -28.58 l -16.26,-26.45 -16.26,26.45 h -28.41 l 28.4,-42.9 z"
   id="path14" />&#10;</g><g
     id="g15">&#10;	<path
   class="st13"
   d="m 187.02,257.45 h -28.88 l -4.01,13.59 h -25.97 l 30.94,-82.32 h 27.75 l 30.93,82.32 h -26.64 z m -5.28,-17.8 -9.09,-29.59 -8.99,29.59 z"
   id="path15" />&#10;</g><g
     id="g16">&#10;	<circle
   class="st14"
   cx="490.45001"
   cy="83"
   r="11"
   id="circle15" />&#10;	<path
   class="st4"
   d="m 490.45,74.5 c 4.69,0 8.5,3.81 8.5,8.5 0,4.69 -3.81,8.5 -8.5,8.5 -4.69,0 -8.5,-3.81 -8.5,-8.5 0,-4.69 3.82,-8.5 8.5,-8.5 m 0,-5 c -7.46,0 -13.5,6.04 -13.5,13.5 0,7.46 6.04,13.5 13.5,13.5 7.46,0 13.5,-6.04 13.5,-13.5 0,-7.46 -6.04,-13.5 -13.5,-13.5 z"
   id="path16" />&#10;</g><g
     id="g17">&#10;	<circle
   class="st14"
   cx="57.450001"
   cy="157"
   r="11"
   id="circle16" />&#10;	<path
   class="st4"
   d="m 57.45,148.5 c 4.69,0 8.5,3.81 8.5,8.5 0,4.69 -3.81,8.5 -8.5,8.5 -4.69,0 -8.5,-3.81 -8.5,-8.5 0,-4.69 3.82,-8.5 8.5,-8.5 m 0,-5 c -7.46,0 -13.5,6.04 -13.5,13.5 0,7.46 6.04,13.5 13.5,13.5 7.46,0 13.5,-6.04 13.5,-13.5 0,-7.46 -6.04,-13.5 -13.5,-13.5 z"
   id="path17" />&#10;</g><g
     id="g18">&#10;	<circle
   class="st8"
   cx="491.45001"
   cy="231"
   r="11"
   id="circle17" />&#10;	<path
   class="st4"
   d="m 491.45,222.5 c 4.69,0 8.5,3.81 8.5,8.5 0,4.69 -3.81,8.5 -8.5,8.5 -4.69,0 -8.5,-3.81 -8.5,-8.5 0,-4.69 3.82,-8.5 8.5,-8.5 m 0,-5 c -7.46,0 -13.5,6.04 -13.5,13.5 0,7.46 6.04,13.5 13.5,13.5 7.46,0 13.5,-6.04 13.5,-13.5 0,-7.46 -6.04,-13.5 -13.5,-13.5 z"
   id="path18" />&#10;</g></g>&#10;</svg>
