<?xml version="1.0" encoding="UTF-8" standalone="no"?>
<svg
   width="143.92928"
   height="198.79938"
   id="builder-logo"
   data-name="Layer 1"
   viewBox="0 0 143.80933 198.71954"
   version="1.1"
   sodipodi:docname="builder.svg"
   inkscape:version="1.3 (0e150ed6c4, 2023-07-21)"
   xmlns:inkscape="http://www.inkscape.org/namespaces/inkscape"
   xmlns:sodipodi="http://sodipodi.sourceforge.net/DTD/sodipodi-0.dtd"
   xmlns="http://www.w3.org/2000/svg"
   xmlns:svg="http://www.w3.org/2000/svg">
  <sodipodi:namedview
     id="namedview69"
     pagecolor="#ffffff"
     bordercolor="#111111"
     borderopacity="1"
     inkscape:showpageshadow="0"
     inkscape:pageopacity="0"
     inkscape:pagecheckerboard="1"
     inkscape:deskcolor="#d1d1d1"
     inkscape:zoom="3.3614458"
     inkscape:cx="72.141577"
     inkscape:cy="124.5"
     inkscape:window-width="1920"
     inkscape:window-height="1043"
     inkscape:window-x="0"
     inkscape:window-y="0"
     inkscape:window-maximized="1"
     inkscape:current-layer="builder-logo" />
  <defs
     id="defs1">
    <style
       id="style1">.cls-1{fill:#fdbb49;}.cls-2,.cls-7{fill:#565656;}.cls-3{fill:#1169b3;}.cls-4{fill:#abd7f1;}.cls-5{fill:#4d8bc8;}.cls-13,.cls-6,.cls-9{fill:none;}.cls-13,.cls-14,.cls-15,.cls-16,.cls-6,.cls-7,.cls-9{stroke:#010101;stroke-miterlimit:10;}.cls-6{stroke-width:1.71px;}.cls-13,.cls-7{stroke-linecap:round;}.cls-13,.cls-14,.cls-15,.cls-16,.cls-7,.cls-9{stroke-width:1.67px;}.cls-15,.cls-8{fill:#323133;}.cls-10{fill:#faf4ed;}.cls-11,.cls-14{fill:#f6bdc0;}.cls-12{fill:#010101;}.cls-16{fill:#f15b52;}.cls-17{fill:#fff;}.cls-18{fill:#fdf6ef;}.cls-19{fill:#de9098;}.cls-20{fill:#787878;}.cls-21{fill:#1e1e1e;}</style>
  </defs>
  <g
     id="g69"
     transform="translate(-0.03566554,-0.00165963)">
    <path
       class="cls-1"
       d="m 130.78,3.41 a 4.24,4.24 0 0 1 2,0.31 4.55,4.55 0 0 1 1.95,2.9 46.51,46.51 0 0 1 1.71,7.08 c 0.44,2.68 0.61,5.56 -0.65,8 a 4.18,4.18 0 0 1 -1.17,1.46 5,5 0 0 1 -2.05,0.75 15.7,15.7 0 0 1 -5.34,0 A 4.32,4.32 0 0 1 125,23 4.46,4.46 0 0 1 123.92,21.11 32.65,32.65 0 0 1 122.44,11.05 c 0,-1.33 -0.49,-3.73 0.53,-4.7 a 15,15 0 0 1 2.54,-2 c 1.49,-0.83 3.6,-0.9 5.27,-0.94 z"
       transform="translate(-58.93,-2.56)"
       id="path1" />
    <path
       class="cls-2"
       d="m 169.17,114.4 a 39,39 0 0 0 -9.65,-0.93 l -60.8,-0.85 a 17.8,17.8 0 0 0 -7.09,0.85 c -2.68,1.1 -4.68,3.45 -7.3,4.68 -1.21,0.58 -2.7,1.08 -3.08,2.36 a 3.78,3.78 0 0 0 -0.09,1.26 42.55,42.55 0 0 0 4.51,17.51 29.77,29.77 0 0 0 12.55,12.8 c 8.19,4.18 17.87,3.69 27,3.09 l 28.6,-1.85 a 104.68,104.68 0 0 0 13.23,-1.41 c 2.18,-0.42 4.56,-1.12 5.74,-3 a 8.88,8.88 0 0 0 1,-3.41 l 3.06,-19.9 c 0.43,-2.75 1.1,-5 -0.75,-7.19 a 13.85,13.85 0 0 0 -6.93,-4.01 z"
       transform="translate(-58.93,-2.56)"
       id="path2" />
    <polygon
       class="cls-3"
       points="69.32,197.73 69.32,145.84 106.19,140.38 106.19,192.26 "
       id="polygon2" />
    <polygon
       class="cls-4"
       points="34.5,139.01 72.06,132.87 106.19,140.38 69.32,145.84 "
       id="polygon3" />
    <polygon
       class="cls-5"
       points="34.5,192.26 34.5,139.01 69.32,145.84 69.32,197.73 "
       id="polygon4" />
    <polyline
       class="cls-6"
       points="69.32 197.73 34.5 192.26 34.5 139.01"
       id="polyline4" />
    <polyline
       class="cls-6"
       points="106.19 140.38 106.19 192.26 69.32 197.73 69.32 145.84"
       id="polyline5" />
    <polygon
       class="cls-6"
       points="106.19,140.38 69.32,145.84 34.5,139.01 72.06,132.87 "
       id="polygon5" />
    <path
       class="cls-7"
       d="m 93.46,139.41 c -2.67,18.08 14.06,30.12 14.06,30.12 C 35.9,154.14 82.08,117.32 82.08,117.32"
       transform="translate(-58.93,-2.56)"
       id="path5" />
    <path
       class="cls-7"
       d="m 176.54,115.31 c 0,0 46.19,36.82 -25.44,52.22 0,0 16.74,-9.38 14.06,-27.45"
       transform="translate(-58.93,-2.56)"
       id="path6" />
    <path
       class="cls-8"
       d="m 162.2,123.92 c 0,0 26.53,19.64 3.31,39.73 0,0 48.37,-13.7 12.57,-46.81 z"
       transform="translate(-58.93,-2.56)"
       id="path7" />
    <path
       class="cls-8"
       d="m 190.16,64.48 c 0.23,2.79 -2.82,5.35 -6.92,5.91 l -0.66,0.06 -0.61,0.24 a 80.32,80.32 0 0 0 -4.55,-9.69 10.7,10.7 0 0 1 4.31,-1.23 c 4.42,-0.35 8.2,1.75 8.43,4.71 z"
       transform="translate(-58.93,-2.56)"
       id="path8" />
    <path
       class="cls-8"
       d="m 93.46,125.47 c 0,0 73.24,-2.36 79,10.57 l 3.54,-3.64 -8.52,-10.27 z"
       transform="translate(-58.93,-2.56)"
       id="path9" />
    <path
       class="cls-2"
       d="m 177.42,61 a 80.32,80.32 0 0 1 4.58,9.69 73.47,73.47 0 0 1 5,29.18 23.07,23.07 0 0 1 -1.14,7.26 19.6,19.6 0 0 1 -5.62,7.67 c -11.43,10.19 -28,11.59 -43.31,11.87 -13.56,0.25 -27.17,0 -40.59,-2 -4.88,-0.73 -9.85,-1.74 -14,-4.38 C 65.63,109.74 71.68,86 78.36,69.82 c 0.8,-1.95 1.62,-3.79 2.4,-5.48 0.61,-1.3 1.25,-2.62 1.92,-3.93 0.13,-0.27 0.27,-0.53 0.41,-0.79 v 0 l 0.51,0.68 2.79,3.8 a 5.79,5.79 0 0 0 4.76,2.35 h 77.95 a 5.76,5.76 0 0 0 4.76,-2.35 l 3,-4.08 c 0.19,0.33 0.38,0.66 0.56,0.98 z"
       transform="translate(-58.93,-2.56)"
       id="path10" />
    <path
       class="cls-1"
       d="m 179.18,49.16 a 4,4 0 0 1 1.43,5.78 l -3.75,5.06 -3,4.08 a 5.76,5.76 0 0 1 -4.76,2.35 H 91.15 A 5.79,5.79 0 0 1 86.39,64.08 L 83.6,60.3 83.09,59.62 79.65,54.94 a 4,4 0 0 1 1.42,-5.78 l 5.87,-3.51 h 0.35 l -0.15,3.56 a 2.52,2.52 0 0 0 2.45,2.45 l 24.12,2.11 1.17,0.1 L 128,55 a 25.1,25.1 0 0 0 4.42,0 l 12.58,-1.07 1.65,-0.14 24.07,-2.11 a 2.57,2.57 0 0 0 2.5,-2.49 l -0.15,-3.53 h 0.22 z"
       transform="translate(-58.93,-2.56)"
       id="path11" />
    <path
       class="cls-1"
       d="m 173.24,49.19 a 2.57,2.57 0 0 1 -2.5,2.49 l -24.07,2.11 v -0.45 l -2.15,-20.8 -4.82,-24.33 0.48,-0.09 c 18.38,2 31.27,13.82 32.6,30.5 l 0.31,7 z"
       transform="translate(-58.93,-2.56)"
       id="path12" />
    <path
       class="cls-1"
       d="m 146.63,53.34 v 0.45 L 144.98,53.93 132.4,55 a 25.1,25.1 0 0 1 -4.4,0 l -13.1,-1.15 -1.17,-0.1 V 53.3 l 2.15,-20.8 h 28.58 z"
       transform="translate(-58.93,-2.56)"
       id="path13" />
    <polygon
       class="cls-1"
       points="76.65,29.98 74.65,2.22 75.05,2.19 80.15,2.47 80.78,5.65 85.55,29.98 "
       id="polygon13" />
    <polygon
       class="cls-1"
       points="56.97,29.98 61.83,5.73 61.87,5.5 62.37,2.47 67.58,2.19 67.87,2.21 65.87,29.98 "
       id="polygon14" />
    <path
       class="cls-8"
       d="m 86.1,122.23 c 0,0 64.06,5.61 69.57,-7 5.51,-12.61 14,-27.49 -8.33,-48.79 l 23.81,-0.34 5.79,-6 c 0,0 20.47,40.16 3.15,55.13 0,0 -13.83,12 -40.39,11.51 -26.56,-0.49 -47.57,-0.66 -53.6,-4.51 z"
       transform="translate(-58.93,-2.56)"
       id="path14" />
    <polygon
       class="cls-8"
       points="92.02,63.85 32.17,63.85 95.56,72.72 "
       id="polygon15" />
    <path
       class="cls-1"
       d="m 120.75,8.29 -4.85,24.25 -2.15,20.8 v 0.45 L 89.59,51.68 a 2.52,2.52 0 0 1 -2.45,-2.45 l 0.15,-3.56 0.31,-7.05 c 1.51,-16 14.13,-28.39 32.42,-30.48 z"
       transform="translate(-58.93,-2.56)"
       id="path15" />
    <path
       class="cls-8"
       d="m 82.43,60.27 0.25,0.14 C 82,61.72 81.37,63 80.76,64.34 c -0.78,1.69 -1.6,3.53 -2.4,5.48 h -1 c -4.42,-0.3 -7.84,-2.94 -7.64,-5.89 0.2,-2.95 4,-5.1 8.39,-4.79 a 11.2,11.2 0 0 1 4.32,1.13 z"
       transform="translate(-58.93,-2.56)"
       id="path16" />
    <path
       class="cls-9"
       d="m 176.86,60 c 0.19,0.33 0.38,0.66 0.56,1 a 80.32,80.32 0 0 1 4.58,9.69 73.47,73.47 0 0 1 5,29.18 23.07,23.07 0 0 1 -1.14,7.26 19.6,19.6 0 0 1 -5.62,7.67 c -11.43,10.19 -28,11.59 -43.31,11.87 -13.56,0.25 -27.17,0 -40.59,-2 -4.88,-0.73 -9.85,-1.74 -14,-4.38 C 65.63,109.74 71.68,86 78.36,69.82 c 0.8,-1.95 1.62,-3.79 2.4,-5.48 0.61,-1.3 1.25,-2.62 1.92,-3.93 0.13,-0.27 0.27,-0.53 0.41,-0.79"
       transform="translate(-58.93,-2.56)"
       id="path17" />
    <path
       class="cls-9"
       d="m 176.77,61.38 a 5.79,5.79 0 0 1 0.65,-0.37 10.7,10.7 0 0 1 4.31,-1.23 c 4.42,-0.36 8.2,1.74 8.43,4.7 0.23,2.79 -2.82,5.35 -6.92,5.91 l -0.66,0.06"
       transform="translate(-58.93,-2.56)"
       id="path18" />
    <path
       class="cls-9"
       d="m 77.36,69.78 c -4.42,-0.3 -7.84,-2.94 -7.64,-5.89 0.2,-2.95 4,-5.1 8.39,-4.79 a 11.2,11.2 0 0 1 4.32,1.17"
       transform="translate(-58.93,-2.56)"
       id="path19" />
    <path
       class="cls-9"
       d="m 140.18,8.12 c 18.38,2 31.27,13.82 32.6,30.5 l 0.31,7 0.15,3.53 a 2.57,2.57 0 0 1 -2.5,2.49 l -24.07,2.11 -1.65,0.14 L 132.4,55 a 25.1,25.1 0 0 1 -4.4,0 l -13.1,-1.15 -1.17,-0.1 -24.14,-2.07 a 2.52,2.52 0 0 1 -2.45,-2.45 l 0.15,-3.56 0.31,-7.05 c 1.51,-16 14.8,-28.39 33.09,-30.48"
       transform="translate(-58.93,-2.56)"
       id="path20" />
    <path
       class="cls-9"
       d="M 113.75,53.34"
       transform="translate(-58.93,-2.56)"
       id="path21" />
    <path
       class="cls-9"
       d="M 115.9,32.54"
       transform="translate(-58.93,-2.56)"
       id="path22" />
    <path
       class="cls-9"
       d="M 144.48,32.54"
       transform="translate(-58.93,-2.56)"
       id="path23" />
    <path
       class="cls-9"
       d="M 146.63,53.34"
       transform="translate(-58.93,-2.56)"
       id="path24" />
    <polyline
       class="cls-9"
       points="65.87 29.98 56.97 29.98 61.83 5.73 61.87 5.5 62.37 2.47 67.58 1.52 71.2 0.85 75.05 1.52 80.15 2.47 80.78 5.65 85.55 29.98 76.65 29.98"
       id="polyline24" />
    <path
       class="cls-9"
       d="m 130.65,66.45 h 38.45 a 5.76,5.76 0 0 0 4.76,-2.35 l 3,-4.08 3.75,-5.08 a 4,4 0 0 0 -1.43,-5.78 l -5.87,-3.51"
       transform="translate(-58.93,-2.56)"
       id="path25" />
    <path
       class="cls-9"
       d="M 130.65,66.45 H 91.15 A 5.79,5.79 0 0 1 86.39,64.1 L 83.6,60.3 83.09,59.62 79.65,54.94 a 4,4 0 0 1 1.42,-5.78 l 5.87,-3.51"
       transform="translate(-58.93,-2.56)"
       id="path26" />
    <path
       class="cls-10"
       d="m 180.75,22 c 0.43,2.8 -5.61,13.31 -7.73,15.08 0,0 -6.69,0.07 -10,-9 0,0 10.29,-1.58 15.58,-7.67 -0.01,0.01 1.71,-1.21 2.15,1.59 z"
       transform="translate(-58.93,-2.56)"
       id="path27" />
    <path
       class="cls-9"
       d="m 163,28.09 c 0,0 10.29,-1.58 15.58,-7.67 0,0 1.72,-1.22 2.16,1.59 0.44,2.81 -5.6,13.31 -7.74,15.08 0,0 -6.67,0.07 -10,-9 z"
       transform="translate(-58.93,-2.56)"
       id="path28" />
    <ellipse
       class="cls-11"
       cx="27.17"
       cy="91.330002"
       rx="9.3699999"
       ry="7.3600001"
       id="ellipse28" />
    <ellipse
       class="cls-11"
       cx="113.52"
       cy="91.330002"
       rx="9.3699999"
       ry="7.3600001"
       id="ellipse29" />
    <circle
       class="cls-12"
       cx="40.23"
       cy="77.279999"
       r="9.04"
       id="circle29" />
    <circle
       class="cls-10"
       cx="43.240002"
       cy="73.599998"
       r="2.6800001"
       id="circle30" />
    <circle
       class="cls-12"
       cx="100.47"
       cy="77.279999"
       r="9.04"
       id="circle31" />
    <circle
       class="cls-10"
       cx="103.48"
       cy="73.599998"
       r="2.6800001"
       id="circle32" />
    <path
       class="cls-13"
       d="M 165.09,73.73 A 13.15,13.15 0 0 0 169.44,72"
       transform="translate(-58.93,-2.56)"
       id="path32" />
    <ellipse
       class="cls-14"
       cx="70.349998"
       cy="102.38"
       rx="31.799999"
       ry="20.42"
       id="ellipse32" />
    <path
       class="cls-13"
       d="M 93.37,73.73 A 13.07,13.07 0 0 1 89,72"
       transform="translate(-58.93,-2.56)"
       id="path33" />
    <ellipse
       class="cls-12"
       cx="117.9"
       cy="97.580002"
       rx="4.6399999"
       ry="2.8299999"
       transform="rotate(-15.66,79.140717,310.55533)"
       id="ellipse33" />
    <ellipse
       class="cls-12"
       cx="142.66"
       cy="97.580002"
       rx="2.8299999"
       ry="4.6399999"
       transform="rotate(-74.34,111.50651,135.15463)"
       id="ellipse34" />
    <path
       class="cls-15"
       d="m 184.26,122.29 c 0,0 6.38,-2.29 7.72,-7 h 4 c 0,0 -3,11.67 -8.21,11.86 z"
       transform="translate(-58.93,-2.56)"
       id="path34" />
    <path
       class="cls-15"
       d="m 198.37,99.74 c -1.29,4.75 -6.82,6.92 -7.77,11.7 -0.42,2.12 0.49,5.1 2.67,5.83 1.58,0.53 3.63,1 5.22,0.22 3.22,-1.5 3.41,-6.42 3.48,-9.43 0.03,-2.6 -0.6,-7.3 -3.6,-8.32 z"
       transform="translate(-58.93,-2.56)"
       id="path35" />
    <path
       class="cls-16"
       d="M 151.56,33.35 A 21.44,21.44 0 1 1 130.12,11.91 21.43,21.43 0 0 1 151.56,33.35"
       transform="translate(-58.93,-2.56)"
       id="path36" />
    <path
       class="cls-17"
       d="M 130.49,25.31 136,39 127.62,32.39 Z m 9.85,16.85 -8.53,-20.54 a 1.38,1.38 0 0 0 -1.32,-0.9 1.41,1.41 0 0 0 -1.36,0.9 l -9.37,22.53 H 123 l 3.71,-9.29 11.07,8.94 a 1.77,1.77 0 0 0 1.18,0.52 1.53,1.53 0 0 0 1.57,-1.53 1.86,1.86 0 0 0 -0.15,-0.63"
       transform="translate(-58.93,-2.56)"
       id="path37" />
    <path
       class="cls-18"
       d="m 110.29,13 c 0,0 -22.21,9.91 -20.29,35.14 l 4.71,0.9 c 0,0 -2.04,-21.22 15.58,-36.04 z"
       transform="translate(-58.93,-2.56)"
       id="path38" />
    <path
       class="cls-10"
       d="m 81.05,20.16 c 5.54,5.85 15.9,7 15.9,7 -2.92,9.2 -9.62,9.41 -9.62,9.41 C 85.14,34.89 78.65,24.65 79,21.84 c 0.35,-2.81 2.05,-1.68 2.05,-1.68 z"
       transform="translate(-58.93,-2.56)"
       id="path39" />
    <path
       class="cls-9"
       d="m 97,27.15 c 0,0 -10.36,-1.14 -15.9,-7 0,0 -1.78,-1.15 -2.09,1.68 -0.31,2.83 6.18,13.05 8.37,14.72 -0.05,0.01 6.62,-0.2 9.62,-9.4 z"
       transform="translate(-58.93,-2.56)"
       id="path40" />
    <path
       class="cls-19"
       d="m 114.3,123 c 0,0 54.76,-0.63 33.54,-34.58 0,0 12.33,5.6 13.23,14.27 0.9,8.67 -4.67,17.29 -21.57,21.64 0,-0.05 -16.17,3.19 -25.2,-1.33 z"
       transform="translate(-58.93,-2.56)"
       id="path41" />
    <path
       class="cls-18"
       d="m 127.5,85.42 c 0,0 -24.63,-0.36 -29.31,17.22 0,0 7.87,-13.39 29.31,-17.22 z"
       transform="translate(-58.93,-2.56)"
       id="path42" />
    <ellipse
       class="cls-9"
       cx="70.349998"
       cy="102.38"
       rx="31.799999"
       ry="20.42"
       id="ellipse42" />
    <path
       class="cls-18"
       d="m 80,91.86 a 3,3 0 0 1 0.24,-0.38 l 0.12,-0.17 c 0.06,-0.07 -0.12,0.15 0,0 a 0.39,0.39 0 0 1 0.08,-0.1 5,5 0 0 1 0.61,-0.61 l 0.16,-0.14 c 0.07,-0.06 -0.15,0.12 0,0 L 81.29,90.4 81.66,90.15 82,90 h 0.2 v 0 h 0.12 a 0.84,0.84 0 0 0 0.47,-0.36 0.79,0.79 0 0 0 -0.89,-1.16 6.25,6.25 0 0 0 -3.18,2.66 0.79,0.79 0 0 0 1.36,0.8 z"
       transform="translate(-58.93,-2.56)"
       id="path43" />
    <path
       class="cls-18"
       d="m 166.65,91.88 0.14,-0.2 c 0.06,-0.08 0,0 0,0 l 0.07,-0.1 c 0.1,-0.12 0.2,-0.23 0.31,-0.34 l 0.35,-0.33 0.17,-0.14 c 0.08,-0.06 -0.14,0.11 0,0 l 0.1,-0.08 a 5.62,5.62 0 0 1 0.79,-0.46 l 0.19,-0.09 c -0.21,0.11 0,0 0.08,0 l 0.46,-0.15 a 0.79,0.79 0 0 0 0.55,-1 0.81,0.81 0 0 0 -1,-0.55 6.37,6.37 0 0 0 -3.56,2.56 0.8,0.8 0 0 0 0.28,1.08 0.81,0.81 0 0 0 1.08,-0.28 z"
       transform="translate(-58.93,-2.56)"
       id="path44" />
    <path
       class="cls-20"
       d="m 79.73,119.41 c 0,0 -25.54,21.25 -2.56,39.06 0,0 -17.07,-14.81 2.56,-39.06 z"
       transform="translate(-58.93,-2.56)"
       id="path45" />
    <path
       class="cls-13"
       d="m 93.46,139.41 c -2.67,18.08 14.06,30.12 14.06,30.12 -71.62,-15.39 -27,-50.63 -27,-50.63"
       transform="translate(-58.93,-2.56)"
       id="path46" />
    <path
       class="cls-13"
       d="m 178.11,116.89 c 0,0 44.62,35.24 -27,50.64 0,0 16.74,-9.38 14.06,-27.45"
       transform="translate(-58.93,-2.56)"
       id="path47" />
    <path
       class="cls-15"
       d="m 154.72,174.64 c 3.87,-3 5.26,-7.31 2.75,-10.58 -2.51,-3.27 -7.69,-3.53 -11.55,-0.56 -3,2.32 -4.54,5.49 -3.84,8.33 0.19,0.78 4.71,-0.76 5.25,-0.05 0.54,0.71 -2.75,3.74 -1.86,4.18 a 8.94,8.94 0 0 0 9.25,-1.32 z"
       transform="translate(-58.93,-2.56)"
       id="path48" />
    <path
       class="cls-15"
       d="m 103.94,175.94 c -3.87,-3 -5.26,-7.31 -2.75,-10.59 2.51,-3.28 7.68,-3.52 11.55,-0.56 3,2.32 4.53,5.49 3.84,8.33 -0.19,0.79 -4.71,-0.75 -5.25,0 -0.54,0.75 2.74,3.73 1.86,4.17 a 9,9 0 0 1 -9.25,-1.35 z"
       transform="translate(-58.93,-2.56)"
       id="path49" />
    <path
       class="cls-15"
       d="m 94.62,168.64 c 4.51,11.09 1.89,21.85 -7.51,25.67 -9.4,3.82 -20.68,-2.07 -25.19,-13.17 -3.63,-8.92 -2.65,-17.62 2.77,-22.68 1.32,-1.23 5,2.57 6.88,1.83 1.88,-0.74 1.36,-5.89 3.15,-6 8.01,-0.29 16.21,5.28 19.9,14.35 z"
       transform="translate(-58.93,-2.56)"
       id="path50" />
    <path
       class="cls-21"
       d="m 69.59,191.34 c 0,0 24.34,5.15 26.07,-19.72 0,0 6.76,35.19 -26.07,19.72 z"
       transform="translate(-58.93,-2.56)"
       id="path51" />
    <path
       class="cls-9"
       d="m 94.62,168.64 c 4.51,11.09 1.89,21.85 -7.51,25.67 -9.4,3.82 -20.68,-2.07 -25.19,-13.17 -3.63,-8.92 -2.65,-17.62 2.77,-22.68 1.32,-1.23 5,2.57 6.88,1.83 1.88,-0.74 1.36,-5.89 3.15,-6 8.01,-0.29 16.21,5.28 19.9,14.35 z"
       transform="translate(-58.93,-2.56)"
       id="path52" />
    <path
       class="cls-15"
       d="m 163.7,166.37 c -6,10.37 -5.06,21.56 3.73,26.63 8.79,5.07 20.77,0.78 26.76,-9.59 4.68,-8.13 5.13,-16.74 0.89,-22.54 -1.18,-1.6 -5.8,1.19 -7.7,0.09 -2.18,-1.26 -1.47,-6.12 -3.9,-6.28 -7.38,-0.48 -15.28,3.89 -19.78,11.69 z"
       transform="translate(-58.93,-2.56)"
       id="path53" />
    <path
       class="cls-21"
       d="m 167.49,193.2 c 0,0 24.92,0.14 29.78,-27.89 0,0 3.29,35.76 -29.78,27.89 z"
       transform="translate(-58.93,-2.56)"
       id="path54" />
    <path
       class="cls-9"
       d="m 163.7,166.37 c -6,10.37 -5.06,21.56 3.73,26.63 8.79,5.07 20.77,0.78 26.76,-9.59 4.68,-8.13 5.13,-16.74 0.89,-22.54 -1.18,-1.6 -5.8,1.19 -7.7,0.09 -2.18,-1.26 -1.47,-6.12 -3.9,-6.28 -7.38,-0.48 -15.28,3.89 -19.78,11.69 z"
       transform="translate(-58.93,-2.56)"
       id="path55" />
  </g>
</svg>
