<?xml version="1.0" encoding="UTF-8" standalone="no"?>
<!-- Generator: Adobe Illustrator 27.3.1, SVG Export Plug-In . SVG Version: 6.00 Build 0)  -->

<svg
   width="106.56033"
   height="106.42825"
   id="eda-logo"
   version="1.1"
   x="0px"
   y="0px"
   viewBox="0 0 959.043 544.28637"
   enable-background="new 0 0 1296 1273.415"
   xml:space="preserve"
   sodipodi:docname="eda.svg"
   inkscape:version="1.3 (0e150ed6c4, 2023-07-21)"
   xmlns:inkscape="http://www.inkscape.org/namespaces/inkscape"
   xmlns:sodipodi="http://sodipodi.sourceforge.net/DTD/sodipodi-0.dtd"
   xmlns:xlink="http://www.w3.org/1999/xlink"
   xmlns="http://www.w3.org/2000/svg"
   xmlns:svg="http://www.w3.org/2000/svg"><defs
   id="defs60">&#10;	&#10;	&#10;	&#10;	&#10;	&#10;	&#10;	&#10;	&#10;	&#10;	&#10;	&#10;	&#10;	&#10;	&#10;	&#10;	&#10;	&#10;	&#10;	&#10;	&#10;	&#10;	&#10;	&#10;	&#10;		&#10;	&#10;		&#10;	&#10;	&#10;		&#10;	&#10;	&#10;	&#10;	&#10;	&#10;	&#10;	&#10;	&#10;	&#10;		&#10;	&#10;	&#10;	&#10;	&#10;	&#10;	&#10;	&#10;	&#10;	&#10;	&#10;	&#10;	&#10;	&#10;	&#10;	&#10;	&#10;	&#10;	&#10;	&#10;	&#10;	&#10;	&#10;	&#10;	&#10;	&#10;	&#10;	&#10;	&#10;	&#10;	&#10;	&#10;	&#10;	&#10;	&#10;	&#10;	&#10;</defs><sodipodi:namedview
   id="namedview60"
   pagecolor="#ffffff"
   bordercolor="#111111"
   borderopacity="1"
   inkscape:showpageshadow="0"
   inkscape:pageopacity="0"
   inkscape:pagecheckerboard="1"
   inkscape:deskcolor="#d1d1d1"
   inkscape:zoom="3.1044177"
   inkscape:cx="53.311125"
   inkscape:cy="64.907503"
   inkscape:window-width="1499"
   inkscape:window-height="991"
   inkscape:window-x="26"
   inkscape:window-y="23"
   inkscape:window-maximized="0"
   inkscape:current-layer="eda-logo" />&#10;<g
   id="Layer_2"
   display="none"
   transform="translate(-172.88629,-536.16471)">&#10;</g>&#10;<g
   id="g1"
   transform="translate(0,28.310383)"><polygon
     fill="#abd9f3"
     points="226.807,528.326 206.8,565.743 246.815,565.743 "
     id="polygon1"
     transform="matrix(1,0,0,0.99778251,-171.969,-309.72024)" /><g
     id="g6"
     transform="matrix(1,0,0,0.99778251,-171.969,-309.72024)">&#10;		<defs
   id="defs1">&#10;			<circle
   id="XMLID_00000037656443494696575020000010024879349725300901_"
   cx="651.97803"
   cy="554.20502"
   r="384.45099" />&#10;		</defs>&#10;		<use
   xlink:href="#XMLID_00000037656443494696575020000010024879349725300901_"
   overflow="visible"
   fill="#abd9f2"
   id="use1" />&#10;		<clipPath
   id="XMLID_00000106128232911417592990000014720964279045140404_">&#10;			<use
   xlink:href="#XMLID_00000037656443494696575020000010024879349725300901_"
   overflow="visible"
   id="use2" />&#10;		</clipPath>&#10;		<g
   clip-path="url(#XMLID_00000106128232911417592990000014720964279045140404_)"
   id="g3">&#10;			<path
   fill="#ffffff"
   d="m 420.718,672.852 c -8.053,0 -14.766,-5.78 -15.961,-13.743 l -7.366,-49.042 -0.929,-0.265 c -13.506,-3.85 -26.54,-9.368 -38.739,-16.401 l -0.851,-0.491 -40.21,29.708 c -2.826,2.089 -6.148,3.193 -9.606,3.193 -4.279,0 -8.326,-1.69 -11.397,-4.761 l -30.252,-30.253 c -5.694,-5.694 -6.354,-14.527 -1.568,-21.003 l 29.927,-40.505 -0.479,-0.847 c -6.825,-12.074 -12.179,-24.971 -15.913,-38.333 l -0.262,-0.935 -49.763,-7.474 c -7.963,-1.195 -13.743,-7.908 -13.743,-15.961 v -42.783 c 0,-8.052 5.779,-14.765 13.742,-15.961 l 49.241,-7.396 0.254,-0.95 c 3.644,-13.636 8.982,-26.824 15.865,-39.196 l 0.469,-0.844 -29.338,-39.708 c -4.786,-6.477 -4.126,-15.31 1.569,-21.004 l 30.251,-30.252 c 3.07,-3.07 7.118,-4.761 11.397,-4.761 3.458,0 6.78,1.104 9.607,3.192 l 38.816,28.68 0.855,-0.503 c 12.683,-7.47 26.28,-13.286 40.416,-17.288 l 0.931,-0.264 7.076,-47.114 c 1.195,-7.963 7.908,-13.743 15.961,-13.743 h 42.783 c 8.053,0 14.766,5.78 15.961,13.743 l 6.921,46.082 0.961,0.248 c 14.755,3.806 28.956,9.569 42.209,17.127 l 0.849,0.484 37.155,-27.451 c 2.827,-2.089 6.148,-3.193 9.607,-3.193 4.279,0 8.327,1.691 11.397,4.762 l 30.252,30.251 c 5.694,5.694 6.354,14.527 1.569,21.003 l -27.235,36.862 0.496,0.853 c 7.779,13.375 13.714,27.714 17.639,42.617 l 0.251,0.955 45.338,6.809 c 7.963,1.196 13.743,7.909 13.743,15.961 v 42.783 c 0,8.053 -5.78,14.766 -13.744,15.961 l -45.856,6.888 -0.259,0.94 c -4.029,14.617 -9.987,28.657 -17.709,41.73 l -0.505,0.855 27.841,37.682 c 4.785,6.477 4.126,15.31 -1.568,21.004 l -30.252,30.252 c -3.07,3.07 -7.118,4.761 -11.397,4.761 -3.458,0 -6.78,-1.104 -9.607,-3.192 l -38.569,-28.497 -0.845,0.471 c -12.764,7.123 -26.394,12.595 -40.512,16.265 l -0.959,0.249 -7.209,48.002 c -1.195,7.963 -7.908,13.743 -15.961,13.743 h -42.785 z m -3.106,-15.674 c 0.229,1.524 1.564,2.674 3.105,2.674 H 463.5 c 1.542,0 2.876,-1.149 3.105,-2.674 l 8.52,-56.73 4.333,-0.981 c 16.432,-3.719 32.114,-10.008 46.61,-18.69 l 3.718,-2.227 45.495,33.614 c 0.548,0.404 1.193,0.616 1.867,0.616 0.835,0 1.623,-0.327 2.218,-0.92 l 30.253,-30.253 c 1.107,-1.107 1.236,-2.826 0.305,-4.087 l -33.099,-44.798 2.385,-3.761 c 9.337,-14.729 16.152,-30.775 20.255,-47.693 l 1.03,-4.247 54.442,-8.177 c 1.55,-0.233 2.675,-1.539 2.675,-3.105 v -42.783 c 0,-1.565 -1.124,-2.872 -2.674,-3.105 l -54.035,-8.115 -0.992,-4.314 c -3.952,-17.191 -10.715,-33.533 -20.101,-48.573 l -2.34,-3.749 32.453,-43.924 c 0.931,-1.261 0.802,-2.979 -0.306,-4.087 l -30.252,-30.252 c -0.596,-0.595 -1.383,-0.923 -2.219,-0.923 -0.675,0 -1.32,0.213 -1.868,0.618 l -44.152,32.621 -3.734,-2.286 c -14.935,-9.143 -31.156,-15.72 -48.211,-19.548 l -4.343,-0.975 -8.234,-54.827 c -0.233,-1.549 -1.539,-2.673 -3.105,-2.673 h -42.783 c -1.566,0 -2.873,1.124 -3.105,2.673 l -8.356,55.637 -4.207,1.052 c -16.443,4.11 -32.064,10.799 -46.43,19.881 l -3.759,2.376 -45.923,-33.931 c -0.548,-0.404 -1.193,-0.617 -1.867,-0.617 -0.836,0 -1.625,0.328 -2.22,0.923 l -30.251,30.252 c -1.107,1.108 -1.236,2.826 -0.306,4.085 l 34.449,46.625 -2.218,3.715 c -8.438,14.129 -14.607,29.386 -18.338,45.346 l -1.004,4.294 -57.903,8.696 c -1.549,0.233 -2.673,1.539 -2.673,3.105 v 42.783 c 0,1.567 1.124,2.873 2.673,3.105 l 58.316,8.758 1.041,4.227 c 3.868,15.701 10.083,30.669 18.471,44.489 l 2.262,3.728 -35.075,47.475 c -0.916,1.239 -0.785,2.996 0.305,4.085 l 30.252,30.253 c 0.593,0.595 1.382,0.923 2.218,0.923 0,0 0,0 0,0 0.675,0 1.321,-0.214 1.868,-0.618 l 47.243,-34.905 3.743,2.316 c 13.933,8.621 29.022,15.013 44.849,19 l 4.197,1.057 z m 26.371,-99.495 c -63.004,0 -114.261,-51.257 -114.261,-114.261 0,-63.004 51.257,-114.261 114.261,-114.261 63.003,0 114.261,51.257 114.261,114.261 0,63.004 -51.258,114.261 -114.261,114.261 z m 0,-215.521 c -55.835,0 -101.261,45.425 -101.261,101.261 0,55.836 45.426,101.261 101.261,101.261 55.835,0 101.261,-45.425 101.261,-101.261 0,-55.836 -45.426,-101.261 -101.261,-101.261 z"
   id="path2" />&#10;			<path
   fill="#abd8f3"
   d="m 463.501,217.343 c 7.304,0 13.393,5.242 14.478,12.466 l 6.773,45.1 0.295,1.963 1.923,0.496 c 14.626,3.773 28.703,9.485 41.841,16.978 l 1.697,0.968 1.572,-1.161 36.369,-26.871 c 2.567,-1.897 5.581,-2.899 8.715,-2.899 3.879,0 7.549,1.535 10.336,4.323 l 30.252,30.252 c 5.165,5.165 5.763,13.177 1.423,19.051 l -26.649,36.068 -1.172,1.586 0.992,1.705 c 7.711,13.259 13.594,27.473 17.485,42.245 l 0.503,1.909 1.953,0.293 44.362,6.663 c 7.223,1.085 12.466,7.174 12.466,14.478 v 42.783 c 0,7.304 -5.243,13.393 -12.467,14.478 l -44.892,6.743 -1.928,0.29 -0.518,1.88 c -3.994,14.489 -9.901,28.407 -17.555,41.366 l -1.01,1.711 1.181,1.598 27.251,36.883 c 4.341,5.875 3.742,13.887 -1.423,19.052 L 587.5,619.99 c -2.787,2.787 -6.457,4.322 -10.336,4.322 -3.135,0 -6.149,-1.002 -8.715,-2.898 l -37.792,-27.922 -1.556,-1.149 -1.689,0.943 c -12.653,7.061 -26.164,12.485 -40.159,16.122 l -1.918,0.498 -0.294,1.959 -7.063,47.022 c -1.084,7.223 -7.173,12.466 -14.478,12.466 h -42.783 c -7.304,0 -13.393,-5.243 -14.478,-12.466 l -7.222,-48.087 -0.287,-1.91 -1.857,-0.529 c -13.388,-3.816 -26.308,-9.286 -38.401,-16.258 l -1.701,-0.981 -1.58,1.167 -39.421,29.125 c -2.566,1.897 -5.58,2.899 -8.715,2.899 -3.878,0 -7.549,-1.535 -10.336,-4.321 l -30.253,-30.253 c -5.165,-5.164 -5.764,-13.177 -1.423,-19.051 l 29.349,-39.723 1.156,-1.565 -0.958,-1.694 c -6.766,-11.969 -12.073,-24.754 -15.775,-37.999 l -0.523,-1.871 -1.921,-0.289 -48.803,-7.33 c -7.223,-1.084 -12.465,-7.173 -12.465,-14.478 v -42.783 c 0,-7.304 5.242,-13.392 12.465,-14.478 l 48.269,-7.25 1.945,-0.292 0.508,-1.9 c 3.612,-13.517 8.903,-26.59 15.727,-38.854 l 0.939,-1.688 -1.148,-1.553 -28.765,-38.932 c -4.341,-5.875 -3.742,-13.887 1.423,-19.052 l 30.251,-30.252 c 2.787,-2.787 6.458,-4.322 10.336,-4.322 3.135,0 6.148,1.002 8.715,2.899 l 38.019,28.09 1.596,1.179 1.71,-1.007 c 12.572,-7.404 26.051,-13.17 40.063,-17.137 l 1.862,-0.527 0.287,-1.914 6.933,-46.157 c 1.084,-7.223 7.173,-12.465 14.478,-12.465 h 42.785 m -55.579,68.596 -3.236,0.809 c -16.598,4.149 -32.367,10.901 -46.868,20.068 l -2.892,1.828 -45.1,-33.323 c -0.806,-0.594 -1.759,-0.909 -2.756,-0.909 -1.237,0 -2.402,0.484 -3.28,1.362 l -30.252,30.253 c -1.635,1.637 -1.825,4.176 -0.45,6.037 l 33.855,45.822 -1.707,2.858 c -8.517,14.262 -14.745,29.663 -18.511,45.774 l -0.772,3.303 -56.898,8.545 c -2.289,0.344 -3.95,2.274 -3.95,4.589 v 42.783 c 0,2.315 1.661,4.245 3.95,4.589 l 57.323,8.609 0.801,3.251 c 3.904,15.849 10.177,30.958 18.645,44.908 l 1.74,2.867 -34.477,46.664 c -1.354,1.832 -1.16,4.428 0.45,6.038 l 30.251,30.251 c 0.878,0.88 2.043,1.364 3.281,1.364 0.999,0 1.954,-0.316 2.759,-0.911 l 46.427,-34.302 2.879,1.782 c 14.063,8.702 29.295,15.154 45.272,19.178 l 3.229,0.813 8.494,56.56 c 0.338,2.252 2.311,3.951 4.589,3.951 h 42.783 c 2.278,0 4.251,-1.698 4.589,-3.951 l 8.368,-55.716 3.333,-0.755 c 16.587,-3.755 32.417,-10.102 47.05,-18.867 l 2.859,-1.713 44.694,33.022 c 0.806,0.594 1.759,0.907 2.755,0.907 1.235,0 2.399,-0.483 3.28,-1.361 l 30.252,-30.252 c 1.637,-1.637 1.826,-4.176 0.451,-6.039 l -32.488,-43.971 1.834,-2.893 c 9.425,-14.868 16.304,-31.065 20.447,-48.142 l 0.792,-3.266 53.445,-8.027 c 2.29,-0.344 3.952,-2.274 3.952,-4.589 v -42.783 c 0,-2.314 -1.661,-4.243 -3.952,-4.589 l -53.024,-7.964 -0.763,-3.319 c -3.99,-17.353 -10.816,-33.849 -20.29,-49.031 l -1.8,-2.884 31.848,-43.105 c 1.375,-1.862 1.184,-4.401 -0.452,-6.038 l -30.254,-30.253 c -0.878,-0.878 -2.043,-1.361 -3.278,-1.361 -0.998,0 -1.952,0.315 -2.76,0.911 l -43.339,32.021 -2.873,-1.759 c -15.076,-9.229 -31.449,-15.868 -48.666,-19.733 l -3.341,-0.75 -8.082,-53.811 c -0.344,-2.289 -2.274,-3.95 -4.589,-3.95 h -42.783 c -2.315,0 -4.245,1.661 -4.589,3.95 l -8.205,54.65 m 36.061,44.722 c 62.176,0 112.761,50.584 112.761,112.761 0,62.177 -50.584,112.761 -112.761,112.761 -62.177,0 -112.761,-50.584 -112.761,-112.761 0,-62.177 50.584,-112.761 112.761,-112.761 m 0,215.522 c 56.662,0 102.761,-46.098 102.761,-102.761 0,-56.663 -46.098,-102.761 -102.761,-102.761 -56.663,0 -102.761,46.098 -102.761,102.761 0,56.663 46.098,102.761 102.761,102.761 m 19.518,-331.841 h -42.783 c -8.801,0 -16.138,6.317 -17.444,15.02 l -6.933,46.157 c -14.282,4.043 -27.953,9.891 -40.769,17.439 l -38.019,-28.09 c -3.164,-2.337 -6.842,-3.486 -10.498,-3.486 -4.524,0 -9.016,1.759 -12.457,5.201 l -30.251,30.252 c -6.224,6.223 -6.945,15.877 -1.715,22.956 l 28.765,38.932 c -6.955,12.501 -12.321,25.759 -16.003,39.538 l -48.269,7.25 c -8.703,1.308 -15.019,8.644 -15.019,17.444 v 42.783 c 0,8.801 6.317,16.138 15.02,17.444 l 48.803,7.33 c 3.773,13.501 9.155,26.467 16.052,38.668 l -29.349,39.723 c -5.23,7.079 -4.509,16.733 1.714,22.956 l 30.252,30.253 c 3.442,3.442 7.933,5.2 12.458,5.2 3.656,0 7.335,-1.149 10.498,-3.487 l 39.42,-29.125 c 12.327,7.106 25.43,12.654 39.077,16.544 l 7.222,48.087 c 1.307,8.704 8.643,15.021 17.444,15.021 H 463.5 c 8.801,0 16.138,-6.317 17.444,-15.021 l 7.063,-47.022 c 14.264,-3.708 27.968,-9.209 40.866,-16.406 l 37.792,27.922 c 3.163,2.337 6.841,3.486 10.498,3.486 4.524,0 9.016,-1.759 12.458,-5.201 l 30.252,-30.252 c 6.223,-6.223 6.944,-15.878 1.714,-22.956 l -27.25,-36.883 c 7.802,-13.209 13.792,-27.326 17.864,-42.094 l 44.892,-6.743 c 8.704,-1.307 15.021,-8.643 15.021,-17.444 v -42.783 c 0,-8.8 -6.317,-16.137 -15.021,-17.444 l -44.362,-6.663 c -3.966,-15.059 -9.934,-29.477 -17.793,-42.989 l 26.649,-36.068 c 5.229,-7.078 4.508,-16.733 -1.715,-22.956 L 589.62,266.585 c -3.442,-3.443 -7.933,-5.202 -12.458,-5.202 -3.656,0 -7.335,1.149 -10.498,3.487 l -36.369,26.871 c -13.392,-7.638 -27.669,-13.432 -42.578,-17.277 l -6.773,-45.1 c -1.305,-8.704 -8.642,-15.021 -17.443,-15.021 z m -108.706,97.935 4.626,-2.925 c 14.23,-8.996 29.705,-15.622 45.992,-19.694 l 5.178,-1.294 8.504,-56.626 c 0.122,-0.809 0.804,-1.396 1.622,-1.396 H 463.5 c 0.818,0 1.501,0.587 1.622,1.396 l 8.387,55.843 5.345,1.2 c 16.896,3.793 32.963,10.308 47.757,19.364 l 4.596,2.814 44.964,-33.222 c 0.294,-0.217 0.636,-0.324 0.976,-0.324 0.421,0 0.838,0.164 1.158,0.483 l 30.252,30.252 c 0.579,0.579 0.646,1.477 0.16,2.135 l -33.059,44.744 2.88,4.614 c 9.297,14.898 15.997,31.086 19.912,48.115 l 1.221,5.31 55.044,8.267 c 0.81,0.122 1.397,0.804 1.397,1.622 v 42.783 c 0,0.818 -0.588,1.5 -1.397,1.622 l -55.44,8.327 -1.268,5.227 c -4.064,16.757 -10.815,32.652 -20.065,47.243 l -2.935,4.629 33.709,45.624 c 0.486,0.659 0.419,1.557 -0.159,2.135 l -30.252,30.252 c -0.32,0.32 -0.738,0.483 -1.159,0.483 -0.34,0 -0.682,-0.107 -0.976,-0.323 l -46.299,-34.208 -4.575,2.741 c -14.358,8.6 -29.893,14.83 -46.17,18.514 l -5.333,1.208 -8.672,57.744 c -0.12,0.796 -0.817,1.396 -1.622,1.396 h -42.783 c -0.805,0 -1.502,-0.6 -1.622,-1.396 l -8.791,-58.536 -5.166,-1.301 c -15.679,-3.949 -30.626,-10.282 -44.426,-18.82 l -4.606,-2.851 -48.061,35.509 c -0.294,0.217 -0.636,0.324 -0.976,0.324 -0.421,0 -0.838,-0.163 -1.158,-0.483 l -30.252,-30.253 c -0.569,-0.569 -0.637,-1.486 -0.159,-2.134 l 35.673,-48.284 -2.785,-4.588 c -8.309,-13.689 -14.465,-28.516 -18.296,-44.069 l -1.281,-5.202 -59.31,-8.907 c -0.809,-0.122 -1.396,-0.804 -1.396,-1.622 v -42.783 c 0,-0.818 0.587,-1.5 1.396,-1.622 l 58.91,-8.847 1.235,-5.285 c 3.695,-15.81 9.807,-30.923 18.165,-44.918 l 2.73,-4.572 -35.04,-47.429 c -0.486,-0.658 -0.419,-1.555 0.16,-2.134 l 30.251,-30.252 c 0.32,-0.32 0.738,-0.484 1.159,-0.484 0.34,0 0.682,0.107 0.976,0.323 z m 89.188,15.384 c -63.831,0 -115.761,51.93 -115.761,115.761 0,63.831 51.93,115.761 115.761,115.761 63.831,0 115.761,-51.93 115.761,-115.761 0,-63.831 -51.93,-115.761 -115.761,-115.761 z m 0,215.522 c -55.008,0 -99.761,-44.752 -99.761,-99.761 0,-55.009 44.753,-99.761 99.761,-99.761 55.008,0 99.761,44.752 99.761,99.761 0,55.009 -44.753,99.761 -99.761,99.761 z"
   id="path3" />&#10;		</g>&#10;		<g
   clip-path="url(#XMLID_00000106128232911417592990000014720964279045140404_)"
   id="g5">&#10;			<path
   fill="#ffffff"
   d="m 829.317,899.203 c -8.054,0 -14.767,-5.78 -15.961,-13.744 l -7.366,-49.042 -0.929,-0.265 c -13.504,-3.849 -26.537,-9.367 -38.739,-16.401 l -0.851,-0.49 -40.21,29.71 c -2.827,2.088 -6.15,3.191 -9.608,3.191 -4.278,0 -8.325,-1.69 -11.396,-4.76 l -30.253,-30.253 c -5.693,-5.692 -6.353,-14.525 -1.568,-21.003 l 29.927,-40.507 -0.479,-0.847 c -6.825,-12.075 -12.18,-24.972 -15.914,-38.333 l -0.261,-0.936 -49.763,-7.474 c -7.963,-1.196 -13.743,-7.909 -13.743,-15.961 v -42.783 c 0,-8.053 5.78,-14.766 13.743,-15.961 l 49.24,-7.396 0.254,-0.95 c 3.646,-13.641 8.984,-26.828 15.866,-39.196 l 0.47,-0.844 -29.34,-39.709 c -4.785,-6.476 -4.126,-15.309 1.568,-21.004 l 30.252,-30.252 c 3.07,-3.071 7.118,-4.762 11.396,-4.762 3.457,0 6.78,1.104 9.607,3.194 l 38.817,28.679 0.855,-0.503 c 12.684,-7.47 26.281,-13.287 40.415,-17.289 l 0.932,-0.264 7.076,-47.114 c 1.194,-7.963 7.907,-13.743 15.961,-13.743 h 42.783 c 8.052,0 14.765,5.779 15.961,13.742 l 6.921,46.082 0.961,0.248 c 14.756,3.807 28.957,9.569 42.209,17.128 l 0.849,0.484 37.155,-27.451 c 2.826,-2.089 6.148,-3.193 9.607,-3.193 4.278,0 8.326,1.691 11.396,4.761 l 30.253,30.253 c 5.694,5.693 6.354,14.527 1.569,21.004 l -27.235,36.861 0.495,0.853 c 7.78,13.376 13.715,27.715 17.64,42.617 l 0.251,0.955 45.338,6.809 c 7.963,1.195 13.743,7.908 13.743,15.961 v 42.783 c 0,8.052 -5.779,14.765 -13.742,15.961 l -45.857,6.888 -0.26,0.94 c -4.028,14.614 -9.986,28.654 -17.709,41.73 l -0.505,0.855 27.842,37.682 c 4.708,6.373 4.033,15.402 -1.57,21.004 L 997.159,847.4 c -3.07,3.07 -7.118,4.761 -11.396,4.761 -3.458,0 -6.78,-1.104 -9.607,-3.192 l -38.57,-28.497 -0.845,0.472 c -12.764,7.123 -26.394,12.595 -40.511,16.264 l -0.959,0.25 -7.21,48.002 c -1.196,7.963 -7.909,13.743 -15.961,13.743 z m -3.105,-15.674 c 0.233,1.55 1.539,2.675 3.105,2.675 H 872.1 c 1.54,0 2.876,-1.149 3.105,-2.674 l 8.52,-56.731 4.334,-0.98 c 16.432,-3.719 32.113,-10.007 46.608,-18.69 l 3.719,-2.227 45.494,33.613 c 0.539,0.4 1.185,0.612 1.863,0.612 0.831,0 1.643,-0.334 2.225,-0.918 l 30.25,-30.252 c 1.091,-1.089 1.223,-2.846 0.306,-4.086 l -33.098,-44.797 2.384,-3.762 c 9.339,-14.733 16.153,-30.779 20.256,-47.692 l 1.029,-4.247 54.443,-8.177 c 1.55,-0.233 2.674,-1.539 2.674,-3.105 v -42.783 c 0,-1.566 -1.124,-2.873 -2.673,-3.105 l -54.035,-8.115 -0.992,-4.314 c -3.953,-17.191 -10.716,-33.534 -20.102,-48.573 l -2.34,-3.75 32.453,-43.923 c 0.916,-1.24 0.785,-2.996 -0.305,-4.086 l -30.253,-30.253 c -0.594,-0.595 -1.382,-0.923 -2.218,-0.923 -0.675,0 -1.32,0.214 -1.867,0.618 l -44.153,32.621 -3.734,-2.286 C 921.058,524.077 904.838,517.5 887.782,513.67 l -4.343,-0.976 -8.234,-54.825 c -0.23,-1.525 -1.565,-2.674 -3.105,-2.674 h -42.783 c -1.565,0 -2.871,1.124 -3.105,2.671 l -8.356,55.638 -4.207,1.052 c -16.439,4.109 -32.062,10.799 -46.431,19.881 l -3.758,2.376 -45.924,-33.929 c -0.547,-0.404 -1.192,-0.618 -1.867,-0.618 -0.837,0 -1.625,0.328 -2.22,0.924 l -30.251,30.251 c -1.108,1.107 -1.237,2.826 -0.306,4.086 l 34.449,46.625 -2.22,3.715 c -8.438,14.128 -14.607,29.384 -18.338,45.346 l -1.003,4.294 -57.904,8.696 c -1.524,0.229 -2.673,1.564 -2.673,3.105 v 42.783 c 0,1.542 1.149,2.876 2.674,3.105 l 58.316,8.758 1.041,4.227 c 3.869,15.703 10.083,30.671 18.471,44.488 l 2.263,3.729 -35.075,47.474 c -0.932,1.261 -0.804,2.979 0.304,4.086 l 30.253,30.254 c 0.595,0.595 1.383,0.923 2.219,0.923 v 0 c 0.676,0 1.322,-0.214 1.869,-0.619 l 47.241,-34.905 3.743,2.316 c 13.932,8.62 29.021,15.013 44.85,18.999 l 4.197,1.059 z m 26.37,-99.495 c -63.004,0 -114.261,-51.257 -114.261,-114.261 0,-63.004 51.257,-114.261 114.261,-114.261 63.004,0 114.261,51.257 114.261,114.261 0,63.004 -51.257,114.261 -114.261,114.261 z m 0,-215.522 c -55.835,0 -101.261,45.426 -101.261,101.261 0,55.835 45.426,101.261 101.261,101.261 55.835,0 101.261,-45.425 101.261,-101.261 0,-55.836 -45.426,-101.261 -101.261,-101.261 z"
   id="path4" />&#10;			<path
   fill="#abd8f3"
   d="m 872.101,443.694 c 7.304,0 13.392,5.242 14.478,12.465 l 6.773,45.1 0.295,1.963 1.922,0.496 c 14.626,3.773 28.703,9.486 41.84,16.979 l 1.697,0.968 1.572,-1.161 36.369,-26.871 c 2.566,-1.897 5.58,-2.899 8.716,-2.899 3.879,0 7.549,1.535 10.335,4.321 l 30.253,30.253 c 5.165,5.164 5.763,13.176 1.423,19.051 l -26.649,36.068 -1.172,1.586 0.992,1.705 c 7.712,13.26 13.595,27.474 17.485,42.245 l 0.503,1.909 1.953,0.293 44.362,6.663 c 7.223,1.084 12.466,7.173 12.466,14.478 v 42.783 c 0,7.304 -5.242,13.392 -12.465,14.478 l -44.894,6.743 -1.928,0.29 -0.518,1.88 c -3.993,14.487 -9.899,28.404 -17.554,41.366 l -1.01,1.711 1.181,1.598 27.251,36.883 c 4.271,5.781 3.658,13.971 -1.424,19.052 L 996.1,846.341 c -2.787,2.787 -6.458,4.322 -10.336,4.322 -3.135,0 -6.149,-1.002 -8.716,-2.898 l -37.792,-27.923 -1.556,-1.149 -1.689,0.943 c -12.652,7.061 -26.164,12.485 -40.158,16.122 l -1.918,0.498 -0.294,1.96 -7.062,47.022 c -1.085,7.223 -7.174,12.466 -14.478,12.466 h -42.783 c -7.305,0 -13.394,-5.243 -14.478,-12.467 l -7.223,-48.087 -0.287,-1.91 -1.857,-0.529 c -13.386,-3.815 -26.306,-9.285 -38.401,-16.258 l -1.701,-0.981 -1.58,1.167 -39.419,29.126 c -2.568,1.896 -5.583,2.899 -8.718,2.899 -3.878,0 -7.548,-1.535 -10.335,-4.321 L 675.066,816.09 c -5.164,-5.164 -5.762,-13.176 -1.422,-19.051 l 29.349,-39.724 1.156,-1.565 -0.958,-1.694 c -6.766,-11.97 -12.073,-24.755 -15.775,-37.999 l -0.523,-1.871 -1.921,-0.288 -48.802,-7.33 c -7.223,-1.085 -12.466,-7.174 -12.466,-14.478 v -42.783 c 0,-7.305 5.242,-13.393 12.466,-14.478 l 48.267,-7.25 1.945,-0.292 0.508,-1.9 c 3.614,-13.521 8.906,-26.594 15.728,-38.854 l 0.939,-1.688 -1.148,-1.554 -28.766,-38.932 c -4.341,-5.874 -3.743,-13.886 1.422,-19.052 l 30.252,-30.252 c 2.787,-2.787 6.457,-4.323 10.335,-4.323 3.135,0 6.149,1.003 8.717,2.9 l 38.02,28.09 1.596,1.179 1.709,-1.007 c 12.573,-7.405 26.053,-13.171 40.063,-17.138 l 1.862,-0.527 0.287,-1.914 6.933,-46.157 c 1.084,-7.223 7.172,-12.465 14.478,-12.465 h 42.784 m -55.58,68.598 -3.236,0.809 c -16.595,4.149 -32.364,10.901 -46.869,20.069 l -2.891,1.828 -45.097,-33.318 c -0.807,-0.597 -1.761,-0.912 -2.76,-0.913 -1.238,0 -2.403,0.484 -3.279,1.362 l -30.251,30.251 c -1.639,1.637 -1.829,4.177 -0.453,6.039 l 33.856,45.822 -1.707,2.858 c -8.517,14.261 -14.745,29.661 -18.511,45.773 l -0.772,3.303 -56.898,8.545 c -2.252,0.339 -3.95,2.311 -3.95,4.589 v 42.783 c 0,2.278 1.699,4.25 3.951,4.589 l 57.322,8.609 0.801,3.251 c 3.906,15.852 10.179,30.96 18.645,44.907 l 1.741,2.868 -34.478,46.665 c -1.376,1.862 -1.187,4.401 0.45,6.038 l 30.253,30.254 c 0.878,0.878 2.043,1.362 3.28,1.362 0.999,0 1.954,-0.316 2.76,-0.912 l 46.425,-34.302 2.879,1.782 c 14.063,8.701 29.295,15.154 45.272,19.178 l 3.229,0.814 8.495,56.56 c 0.345,2.289 2.275,3.951 4.589,3.951 H 872.1 c 2.277,0 4.249,-1.698 4.589,-3.952 l 8.367,-55.716 3.334,-0.755 c 16.587,-3.754 32.417,-10.102 47.048,-18.867 l 2.861,-1.713 44.686,33.016 c 0.802,0.595 1.756,0.91 2.76,0.91 1.244,0 2.411,-0.482 3.284,-1.357 l 30.249,-30.251 c 1.613,-1.61 1.808,-4.207 0.453,-6.04 l -32.488,-43.971 1.834,-2.893 c 9.426,-14.872 16.305,-31.069 20.446,-48.142 l 0.792,-3.267 53.446,-8.027 c 2.289,-0.344 3.951,-2.274 3.951,-4.589 v -42.783 c 0,-2.315 -1.661,-4.245 -3.951,-4.589 l -53.025,-7.964 -0.763,-3.319 c -3.99,-17.353 -10.817,-33.85 -20.291,-49.031 l -1.8,-2.884 31.847,-43.103 c 1.354,-1.832 1.16,-4.428 -0.45,-6.038 l -30.252,-30.252 c -0.878,-0.879 -2.043,-1.363 -3.28,-1.363 -0.998,0 -1.952,0.315 -2.758,0.911 l -43.341,32.021 -2.872,-1.759 C 921.701,522.71 905.327,516.071 888.11,512.205 l -3.34,-0.75 -8.082,-53.812 c -0.34,-2.251 -2.312,-3.949 -4.589,-3.949 h -42.783 c -2.313,0 -4.243,1.66 -4.589,3.949 l -8.206,54.648 m 36.061,44.722 c 62.176,0 112.761,50.584 112.761,112.761 0,62.176 -50.584,112.761 -112.761,112.761 -62.177,0 -112.761,-50.585 -112.761,-112.761 0,-62.177 50.585,-112.761 112.761,-112.761 m 0,215.522 c 56.662,0 102.761,-46.098 102.761,-102.761 0,-56.663 -46.098,-102.761 -102.761,-102.761 -56.663,0 -102.761,46.098 -102.761,102.761 0,56.662 46.099,102.761 102.761,102.761 m 19.519,-331.841 h -42.783 c -8.802,0 -16.139,6.317 -17.444,15.02 l -6.933,46.157 c -14.28,4.043 -27.952,9.891 -40.769,17.439 l -38.02,-28.09 c -3.165,-2.338 -6.843,-3.487 -10.5,-3.487 -4.524,0 -9.015,1.759 -12.456,5.201 l -30.252,30.252 c -6.224,6.224 -6.944,15.878 -1.714,22.956 l 28.766,38.932 c -6.956,12.5 -12.322,25.759 -16.005,39.538 l -48.267,7.25 c -8.703,1.307 -15.02,8.644 -15.02,17.444 v 42.783 c 0,8.8 6.316,16.137 15.02,17.444 l 48.802,7.33 c 3.773,13.5 9.156,26.466 16.053,38.667 l -29.349,39.724 c -5.229,7.079 -4.509,16.733 1.714,22.955 l 30.253,30.253 c 3.441,3.441 7.932,5.2 12.456,5.2 3.657,0 7.336,-1.149 10.5,-3.486 l 39.42,-29.126 c 12.327,7.106 25.43,12.654 39.077,16.544 l 7.223,48.087 c 1.306,8.704 8.643,15.021 17.444,15.021 H 872.1 c 8.801,0 16.137,-6.317 17.444,-15.021 l 7.062,-47.022 c 14.264,-3.707 27.967,-9.208 40.865,-16.406 l 37.792,27.923 c 3.164,2.337 6.842,3.486 10.499,3.486 4.524,0 9.014,-1.758 12.457,-5.2 l 30.251,-30.252 c 6.124,-6.122 6.861,-15.991 1.716,-22.956 l -27.251,-36.883 c 7.802,-13.21 13.793,-27.327 17.863,-42.094 l 44.894,-6.743 c 8.703,-1.308 15.02,-8.644 15.02,-17.444 v -42.783 c 0,-8.801 -6.317,-16.138 -15.021,-17.444 L 1021.33,625.2 c -3.966,-15.059 -9.934,-29.477 -17.793,-42.99 l 26.649,-36.068 c 5.229,-7.079 4.509,-16.733 -1.715,-22.956 l -30.253,-30.253 c -3.441,-3.441 -7.932,-5.2 -12.457,-5.2 -3.657,0 -7.335,1.149 -10.499,3.487 l -36.369,26.871 c -13.391,-7.638 -27.669,-13.432 -42.577,-17.278 l -6.773,-45.1 c -1.306,-8.702 -8.642,-15.019 -17.442,-15.019 z m -108.707,97.934 4.626,-2.924 c 14.233,-8.997 29.707,-15.622 45.993,-19.694 l 5.178,-1.294 8.505,-56.626 c 0.122,-0.808 0.804,-1.395 1.622,-1.395 h 42.783 c 0.805,0 1.502,0.601 1.622,1.396 l 8.387,55.841 5.345,1.2 c 16.896,3.793 32.963,10.309 47.757,19.365 l 4.596,2.814 44.967,-33.222 c 0.294,-0.218 0.636,-0.324 0.975,-0.324 0.421,0 0.839,0.164 1.158,0.483 l 30.253,30.253 c 0.569,0.569 0.638,1.486 0.159,2.134 l -33.06,44.744 2.88,4.615 c 9.298,14.899 15.997,31.087 19.912,48.115 l 1.221,5.31 55.045,8.267 h 10e-4 c 0.809,0.122 1.396,0.804 1.396,1.622 v 42.783 c 0,0.818 -0.587,1.5 -1.396,1.622 l -55.44,8.327 -1.268,5.227 c -4.064,16.755 -10.815,32.649 -20.065,47.243 l -2.935,4.629 33.709,45.624 c 0.479,0.648 0.41,1.565 -0.16,2.134 l -30.251,30.253 c -0.315,0.316 -0.738,0.478 -1.163,0.478 -0.341,0 -0.684,-0.105 -0.972,-0.319 l -46.3,-34.209 -4.576,2.74 c -14.358,8.602 -29.893,14.831 -46.169,18.515 l -5.334,1.207 -8.672,57.744 c -0.12,0.797 -0.817,1.397 -1.622,1.397 h -42.783 c -0.818,0 -1.5,-0.587 -1.622,-1.397 l -8.791,-58.534 -5.166,-1.302 c -15.679,-3.949 -30.626,-10.281 -44.427,-18.82 l -4.606,-2.851 -48.059,35.509 c -0.295,0.218 -0.637,0.325 -0.978,0.325 -0.421,0 -0.839,-0.164 -1.158,-0.483 l -30.253,-30.254 c -0.578,-0.578 -0.645,-1.476 -0.158,-2.134 l 35.674,-48.283 -2.785,-4.589 c -8.31,-13.688 -14.465,-28.516 -18.297,-44.068 l -1.281,-5.202 -59.309,-8.907 c -0.796,-0.12 -1.397,-0.817 -1.397,-1.622 v -42.783 c 0,-0.805 0.6,-1.502 1.396,-1.622 l 58.91,-8.847 1.235,-5.285 c 3.695,-15.81 9.807,-30.922 18.165,-44.918 l 2.731,-4.573 -35.043,-47.428 c -0.486,-0.658 -0.419,-1.555 0.16,-2.134 l 30.252,-30.252 c 0.319,-0.32 0.737,-0.484 1.158,-0.483 0.34,0 0.682,0.107 0.976,0.324 z m 89.188,15.385 c -63.831,0 -115.761,51.93 -115.761,115.761 0,63.831 51.93,115.761 115.761,115.761 63.831,0 115.761,-51.93 115.761,-115.761 0,-63.831 -51.93,-115.761 -115.761,-115.761 z m 0,215.522 c -55.008,0 -99.761,-44.752 -99.761,-99.761 0,-55.009 44.753,-99.761 99.761,-99.761 55.008,0 99.761,44.753 99.761,99.761 0,55.008 -44.753,99.761 -99.761,99.761 z"
   id="path5" />&#10;		</g>&#10;	</g><path
     fill="#ffffff"
     d="m 664.938,374.7436 c -5.226,13.00709 -9.836,25.43447 -15.208,37.52859 -3.921,8.82638 -11.694,2.52339 -18.672,4.66563 13.141,-31.44212 25.675,-61.49533 38.276,-91.5196 1.95,-4.64568 3.797,-9.42306 6.49,-13.6367 1.494,-2.3378 4.627,-4.98691 7.046,-5.01086 2.297,-0.0229 5.74,2.71097 6.769,5.05876 9.152,20.88358 17.877,41.95176 26.734,62.96307 3.811,9.0419 8.191,17.90021 11.194,27.19855 1.267,3.92428 1.279,10.11153 -1.036,12.88337 -3.641,4.35931 -8.805,1.31707 -12.783,-1.89579 -14.569,-11.76685 -29.134,-23.53669 -43.748,-35.24766 -1.432,-1.14945 -3.19,-1.89878 -5.062,-2.98736 z m 5.626,-14.10466 c 11.328,8.85632 22.577,17.65077 35.342,27.63059 -7.962,-19.68126 -15.242,-37.67626 -23.216,-57.38746 -4.509,11.0694 -8.261,20.27594 -12.126,29.75687 z"
     id="path6"
     style="stroke-width:0.998891" /><path
     fill="#ffffff"
     d="m 252.178,142.55162 c -5.226,13.0071 -9.836,25.43448 -15.208,37.5286 -3.921,8.82638 -11.694,2.52339 -18.672,4.66563 13.141,-31.44212 25.675,-61.49533 38.276,-91.519603 1.95,-4.645675 3.797,-9.423058 6.49,-13.636693 1.494,-2.337805 4.627,-4.986917 7.046,-5.010864 2.297,-0.02295 5.74,2.710975 6.769,5.058757 9.152,20.883583 17.877,41.951763 26.734,62.963063 3.811,9.04191 8.191,17.90022 11.194,27.19856 1.267,3.92428 1.279,10.11153 -1.036,12.88337 -3.641,4.35931 -8.805,1.31707 -12.783,-1.89579 -14.569,-11.76685 -29.134,-23.53669 -43.748,-35.24767 -1.432,-1.14944 -3.189,-1.89878 -5.062,-2.98736 z m 5.627,-14.10465 c 11.328,8.85632 22.577,17.65077 35.342,27.63059 -7.962,-19.68126 -15.242,-37.67726 -23.215,-57.387456 -4.511,11.069396 -8.263,20.275936 -12.127,29.756866 z"
     id="path7"
     style="stroke-width:0.998891" /><path
     fill="#323133"
     d="m 404.694,191.16858 c 0,0 -37.948,-16.72384 -73.309,-9.34424 -35.361,7.3796 -37.742,50.43591 -38.649,61.19999 -0.907,10.76408 10.225,56.21207 10.225,56.21207 0,0 6.791,-38.98535 19.705,-44.60886 12.915,-5.6235 40.484,10.47073 40.484,10.47073 z"
     id="path8"
     style="stroke-width:0.998891" /><path
     fill="#555555"
     d="m 379.998,205.39296 c -5.756,-2.98436 -11.78,-5.69135 -17.829,-8.02516 -8.202,-3.10011 -16.786,-5.91585 -25.651,-5.35211 -11.002,0.53082 -20.654,5.99368 -23.945,17.0092 1.527,-10.99556 10.233,-18.47394 20.707,-21.13603 2.407,-0.63558 5.386,-1.17039 7.85,-1.40687 7.903,-0.66752 15.91,0.73736 23.592,2.41563 5.904,1.32107 11.744,2.9694 17.494,4.83625 0.836,0.27739 1.633,0.53881 2.526,0.8581 z"
     id="path9"
     style="stroke-width:0.998891" /><g
     id="g10"
     transform="matrix(1,0,0,0.99778251,-171.969,-309.72024)">&#10;		<defs
   id="defs9">&#10;			<path
   id="XMLID_00000101061625524675409150000000851003283074885507_"
   d="m 587.462,777.597 c 0,0 -42.595,33.334 -49.484,39.163 -6.889,5.829 -19.61,12.72 -39.749,2.65 -20.14,-10.07 -55.119,-51.939 -55.119,-51.939 0,0 40.809,15.9 57.769,7.42 16.96,-8.48 32.293,-20.419 33.901,-40.154 1.608,-19.734 52.682,42.86 52.682,42.86 z" />&#10;		</defs>&#10;		<use
   xlink:href="#XMLID_00000101061625524675409150000000851003283074885507_"
   overflow="visible"
   fill="#323133"
   id="use9" />&#10;		<clipPath
   id="XMLID_00000155853900517295493870000004275224776993167017_">&#10;			<use
   xlink:href="#XMLID_00000101061625524675409150000000851003283074885507_"
   overflow="visible"
   id="use10" />&#10;		</clipPath>&#10;		<path
   clip-path="url(#XMLID_00000155853900517295493870000004275224776993167017_)"
   fill="#555555"
   d="m 579.728,782.59 c 0,0 -49.182,15.628 -63.004,13.907 -13.822,-1.721 -80.785,-38.083 -80.785,-38.083 v 23.761 l 58.695,61.203 79.658,-32.761 z"
   id="path10" />&#10;	</g><path
     d="m 291.759,478.88315 c -1.444,3.90532 -9.392,6.29102 -17.385,6.11841 -7.671,-0.16564 -25.574,-1.9816 -26.329,-2.37074 -0.755,-0.38913 -3.683,-3.51518 -3.695,-6.6572 -0.012,-3.14202 9.074,-12.7796 9.074,-12.7796 0,0 -4.012,-4.38825 1.449,-14.66141 5.461,-10.27317 10.514,-10.5296 13.462,-11.73592 2.948,-1.20632 4.733,-0.69446 5.38,-0.3602 0.647,0.33425 18.014,9.88104 19.739,10.77206 1.725,0.89002 12.197,8.29756 8.852,14.75321 -3.346,6.45565 -15.988,1.84191 -17.988,1.21829 -2,-0.62261 -7.992,-3.30565 -8.657,-2.28492 -0.665,1.02073 3.979,2.87162 7.958,5.74224 3.978,2.87162 9.846,7.63104 8.14,12.24578 z"
     id="path11"
     style="stroke-width:0.998891" /><polygon
     fill="#ffffff"
     points="457.823,791.907 422.08,792.328 418.833,787.296 "
     id="polygon11"
     transform="matrix(1,0,0,0.99778251,-171.969,-309.72024)" /><g
     id="g12"
     transform="matrix(1,0,0,0.99778251,-171.969,-309.72024)">&#10;		<defs
   id="defs11">&#10;			<path
   id="XMLID_00000150802187466778419500000011954658432789255325_"
   d="m 632.839,725.971 c 0,0 41.629,34.531 48.791,40.024 7.162,5.492 16.599,16.456 11.043,38.277 -5.556,21.82 -39.029,64.904 -39.029,64.904 0,0 6.857,-43.257 -5.035,-58.026 -11.893,-14.768 -26.712,-26.218 -46.445,-24.586 -18.825,1.555 30.675,-60.593 30.675,-60.593 z" />&#10;		</defs>&#10;		<use
   xlink:href="#XMLID_00000150802187466778419500000011954658432789255325_"
   overflow="visible"
   fill="#323133"
   id="use11" />&#10;		<clipPath
   id="XMLID_00000020371939813006075650000008939572297506801836_">&#10;			<use
   xlink:href="#XMLID_00000150802187466778419500000011954658432789255325_"
   overflow="visible"
   id="use12" />&#10;		</clipPath>&#10;		<path
   clip-path="url(#XMLID_00000020371939813006075650000008939572297506801836_)"
   fill="#555555"
   d="m 655.909,876.14 c 0,0 11.881,-41.762 14.041,-61.203 2.16,-19.441 -5.642,-54.222 -14.041,-65.523 -8.399,-11.301 -18.721,-29.521 -18.721,-29.521 l 104.405,57.82 -29.521,59.546 z"
   id="path12" />&#10;	</g><path
     d="m 499.65,532.56984 c 4.132,0.57672 8.159,7.81862 9.689,15.64922 1.469,7.5143 3.498,25.35465 3.277,26.17383 -0.221,0.81918 -2.659,4.33836 -5.734,5.01785 -3.075,0.67949 -14.445,-6.12938 -14.445,-6.12938 0,0 -3.444,4.84523 -14.666,1.70521 -11.222,-3.13902 -12.547,-8.01119 -14.355,-10.62938 -1.808,-2.61818 -1.686,-4.46707 -1.497,-5.16851 0.189,-0.70144 5.846,-19.6643 6.351,-21.53514 0.505,-1.87184 5.532,-13.65665 12.565,-11.76785 7.033,1.88881 5.204,15.19523 5.019,17.2786 -0.185,2.08238 -1.537,8.49512 -0.397,8.92617 1.14,0.43104 1.966,-4.49003 3.931,-8.98005 1.965,-4.49002 5.38,-11.22305 10.262,-10.54057 z"
     id="path13"
     style="stroke-width:0.998891" /><polygon
     fill="#ffffff"
     points="674.391,849.601 682.403,884.437 678.177,888.68 "
     id="polygon13"
     transform="matrix(1,0,0,0.99778251,-171.969,-309.72024)" /><g
     id="g14"
     transform="matrix(1,0,0,0.99778251,-171.969,-309.72024)">&#10;		<defs
   id="defs13">&#10;			<path
   id="XMLID_00000029749325266602392830000006237049499751652018_"
   d="m 666.342,477.157 c -58.409,-10.539 -112.537,9.149 -132.713,45.187 l -0.009,-0.003 c 0,0 -0.018,0.038 -0.046,0.1 -3.064,5.494 -5.343,11.365 -6.725,17.569 -5.658,16.914 -12.45,43.512 -10.082,68.707 3.883,41.301 10.59,76.601 18.012,126.02 v 0 c 1.294,16.156 11.689,37.7 32.868,45.003 26.807,9.244 47.875,4.95 58.943,-14.221 4.041,-6.999 4.61,-6.05 13.154,-15.722 12.467,-11.812 38.128,-35.416 73.995,-64.833 51.56,-42.287 59.304,-90.762 59.304,-90.762 l -0.002,-10e-4 c 0.66,-2.229 1.203,-4.503 1.622,-6.821 8.753,-48.5 -39.745,-97.849 -108.321,-110.223 z" />&#10;		</defs>&#10;		<use
   xlink:href="#XMLID_00000029749325266602392830000006237049499751652018_"
   overflow="visible"
   fill="#323133"
   id="use13" />&#10;		<clipPath
   id="XMLID_00000183224083895661748830000010327054206657905853_">&#10;			<use
   xlink:href="#XMLID_00000029749325266602392830000006237049499751652018_"
   overflow="visible"
   id="use14" />&#10;		</clipPath>&#10;		<path
   clip-path="url(#XMLID_00000183224083895661748830000010327054206657905853_)"
   fill="#555555"
   d="m 792.61,566.873 c 0,0 -40.952,3.424 -73.384,30.899 -32.432,27.475 -52.656,74.411 -58.762,100.359 -6.106,25.948 -1.613,44.647 -1.613,44.647 l 169.897,17.553 z"
   id="path14" />&#10;	</g><path
     d="m 524.654,91.935117 c -43.141,-10.703213 -83.77,-10.94767 -111.543,-2.61419 l -4.01,83.853643 c 20.884,14.45288 53.359,29.76884 85.879,37.83691 73.193,18.15964 107.392,8.05011 115.586,-24.83182 8.195,-32.88092 -12.718,-76.0849 -85.912,-94.244543 z"
     id="path15"
     style="stroke-width:0.998891" /><path
     fill="#323133"
     d="m 313.484,412.71521 c 0,0 5.735,4.42117 10.89,6.42272 5.156,2.00155 6.47,2.42561 9.357,0.58969 2.887,-1.83592 4.6,-11.47749 8.431,-14.67039 3.83,-3.19291 7.583,-4.68659 12.673,-2.32683 5.09,2.35975 7.947,5.00886 7.947,5.00886 l -0.462,-13.23059 c 0,0 -4.666,-2.6531 -9.931,-4.8133 -5.266,-2.1602 -9.871,-1.33105 -12.44,2.32283 -2.569,3.65388 -4.184,10.72018 -6.573,14.40599 -2.389,3.68581 -3.794,5.28226 -7.244,5.62749 -3.45,0.34523 -11.206,-2.91552 -11.206,-2.91552 z"
     id="path16"
     style="stroke-width:0.998891" /><path
     d="m 316.375,410.62685 c -0.85,3.57805 -3.189,4.52893 -8.71,3.13204 -5.521,-1.3959 -10.88,-3.72073 -11.629,-6.44867 -0.749,-2.72794 -0.598,-3.27073 -0.598,-3.27073 0,0 1.768,3.69079 3.803,3.07616 2.035,-0.61563 -0.104,-3.69978 -0.598,-4.41219 -0.494,-0.71142 -3.398,-2.99934 -7.796,-3.25577 -4.398,-0.25643 -7.443,1.05665 -11.197,0.84113 -3.754,-0.21552 -5.5,-2.6062 -5.5,-2.6062 0,0 3.228,0.35022 5.2,0.0519 1.972,-0.29834 2.928,-0.47395 2.926,-1.24523 -0.002,-0.77129 -5.053,-0.69546 -8.188,-1.86486 -3.134,-1.1694 -6.411,-2.62317 -9.366,-6.18625 -2.955,-3.56308 -3.563,-8.07106 -3.563,-8.07106 0,0 3.327,4.9919 7.873,7.35964 4.547,2.36774 8.095,3.45033 9.817,2.16419 1.722,-1.28614 -3.401,-1.71519 -6.243,-5.04179 -2.867,-3.35654 -2.71,-6.14734 -2.71,-6.14734 0,0 2.151,3.93226 7.871,5.22738 4.82,1.09157 10.687,0.0559 13.568,-0.0489 2.881,-0.10477 3.5,-0.38614 3.541,-1.23526 0.041,-0.84911 -1.411,-1.66929 -2.783,-1.83292 -1.372,-0.16364 -1.795,-0.0319 -1.795,-0.0319 0,0 2.106,-2.75787 6.492,-1.38991 4.386,1.36796 7.283,4.70355 9.269,7.14911 1.986,2.44556 3.352,6.1653 4.009,5.85599 0.657,-0.30932 1.433,-1.42384 1.144,-2.81874 -0.289,-1.3949 -1.387,-2.90754 -1.387,-2.90754 0,0 3.033,0.32528 4.942,5.38304 1.91,5.05776 2.731,7.2888 2.606,11.57727 -0.121,4.28947 -0.998,6.99745 -0.998,6.99745 z"
     id="path17"
     style="stroke-width:0.998891" /><ellipse
     fill="#252426"
     cx="587.89301"
     cy="258.25449"
     id="circle17"
     rx="38.019001"
     ry="37.934692"
     style="stroke-width:0.998891" /><ellipse
     fill="#ef5956"
     cx="591.40198"
     cy="254.75427"
     id="circle18"
     rx="38.019001"
     ry="37.934692"
     style="stroke-width:0.998891" /><path
     fill="#ffffff"
     d="m 585.808,259.58652 c -1.975,4.91608 -3.717,9.61264 -5.748,14.18348 -1.482,3.33559 -4.419,0.95388 -7.057,1.76308 4.966,-11.88359 9.703,-23.24135 14.466,-34.58813 0.737,-1.7561 1.435,-3.56108 2.453,-5.15355 0.565,-0.88403 1.749,-1.88481 2.663,-1.89379 0.868,-0.009 2.169,1.02473 2.558,1.91176 3.459,7.89245 6.756,15.85476 10.104,23.79611 1.44,3.41741 3.096,6.76497 4.231,10.27916 0.479,1.4827 0.484,3.8215 -0.392,4.86917 -1.376,1.64734 -3.328,0.4979 -4.831,-0.7164 -5.506,-4.44712 -11.011,-8.89523 -16.534,-13.3214 -0.542,-0.43503 -1.206,-0.7184 -1.913,-1.12949 z m 2.126,-5.33115 c 4.281,3.34656 8.533,6.67117 13.357,10.44279 -3.009,-7.43847 -5.76,-14.23935 -8.774,-21.6888 -1.705,4.18371 -3.123,7.66297 -4.583,11.24601 z"
     id="path18"
     style="stroke-width:0.998891" /><path
     fill="#323133"
     d="m 385.126,68.012283 c 0,58.240567 57.833,118.038667 104.869,118.038667 47.036,0 74.955,-42.09645 74.955,-100.336009 0,-58.239568 -38.13,-105.453638 -85.167,-105.453638 -31.588,0 -72.199,25.3077551 -80.778,40.305424 -8.656,15.130374 -13.879,28.317068 -13.879,47.445556 z"
     id="path19"
     style="stroke-width:0.998891" /><path
     d="m 565.432,27.757746 c -8.852,-1.26918 -17.262,-4.67062 -24.471,-9.950885 -4.276,-3.131042 -9.035,-7.235919 -13.686,-12.5022152 -13.907,-15.7489988 -15.295,-26.6747178 -6.834,-38.1761568 8.461,-11.500441 16.363,-21.177933 38.163,-25.934363 21.537,-4.698557 54.519,2.100333 54.519,2.100333 0,0 -16.349,6.324943 -25.054,14.275274 -8.563,7.820619 -16.865,16.464409 -6.431,31.549883 3.652,5.2802647 5.053,12.578046 8.507,15.4187328 6.077,4.999888 10.262,10.1594222 6.471,17.0491102 v 0 c -3.264,5.932815 -9.873,9.224499 -16.587,8.262637 z"
     id="path20"
     style="stroke-width:0.998891" /><g
     id="g21"
     transform="matrix(1,0,0,0.99778251,-171.969,-309.72024)">&#10;		<defs
   id="defs20">&#10;			<path
   id="XMLID_00000075861026389284210600000002950286930496676030_"
   d="m 743.89,308.817 c 0,0 -13.215,-10.027 -5.912,-26.516 10.022,-22.628 31.863,-27.69 31.863,-27.69 0,0 -19.482,-5.824 -36.805,-0.115 -17.324,5.709 -22.693,11.109 -28.415,21.219 -5.722,10.11 -1.345,22.666 6.622,30.991 7.967,8.325 28.939,21.074 28.939,21.074 l 5.54,1.219 c 9.028,1.986 16.226,-7.534 11.856,-15.679 v 0 z" />&#10;		</defs>&#10;		<use
   xlink:href="#XMLID_00000075861026389284210600000002950286930496676030_"
   overflow="visible"
   fill="#ffffff"
   id="use20" />&#10;		<clipPath
   id="XMLID_00000026162984592492559180000002164665403455695003_">&#10;			<use
   xlink:href="#XMLID_00000075861026389284210600000002950286930496676030_"
   overflow="visible"
   id="use21" />&#10;		</clipPath>&#10;		<path
   clip-path="url(#XMLID_00000026162984592492559180000002164665403455695003_)"
   fill="#dadada"
   d="m 739.97,334.73 -33.797,-28.962 -8.662,-24.057 4.66,-3.147 c 0,0 -0.803,7.487 11.235,20.369 12.038,12.882 26.448,17.33 26.448,17.33 0,0 -14.88,-11.477 -18.879,-24.785 -3.999,-13.308 10.583,-21.967 10.583,-21.967 0,0 -8.981,12.841 -3.642,22.788 5.339,9.947 10.692,15.364 10.692,15.364 0,0 -5.684,-10.645 -4.33,-18.536 1.354,-7.891 13.781,-14.187 13.781,-14.187 l -8.7,23.61 2.525,7.296 2.008,2.971 c 0,0 12.671,8.785 18.328,11.572 5.657,2.787 -22.25,14.341 -22.25,14.341 z"
   id="path21" />&#10;	</g><ellipse
     fill="#323133"
     cx="519.979"
     cy="52.07172"
     rx="94.067001"
     ry="76.124817"
     id="ellipse21"
     style="stroke-width:0.998891" /><ellipse
     transform="matrix(0.27246615,-0.96216537,0.96248126,0.27134816,0,0)"
     fill="#323133"
     cx="125.21592"
     cy="594.78674"
     rx="10.576977"
     ry="8.4794025"
     id="ellipse22"
     style="stroke-width:0.998866" /><ellipse
     transform="matrix(0.30291396,-0.95301791,0.95340468,0.30169442,0,0)"
     fill="#323133"
     cx="40.579357"
     cy="544.64307"
     rx="74.582527"
     ry="113.48163"
     id="ellipse23"
     style="stroke-width:0.998879" /><ellipse
     transform="matrix(0.99959275,-0.02853637,0.02866325,0.99958912,0,0)"
     cx="603.98517"
     cy="71.145607"
     rx="9.9730721"
     ry="20.621395"
     id="ellipse24"
     style="stroke-width:0.9989" /><ellipse
     transform="matrix(0.99554433,-0.09429465,0.09471048,0.99550486,0,0)"
     fill="#ffffff"
     cx="600.90302"
     cy="101.41745"
     rx="4.8147855"
     ry="6.4226947"
     id="ellipse25"
     style="stroke-width:0.998866" /><path
     d="m 605.51,31.619164 c 2.867,-0.0469 5.587,0.902993 7.967,2.593237 -2.446,-4.067959 -5.84,-6.591351 -9.512,-6.536473 -5.309,0.07882 -9.659,5.521728 -11.245,13.152769 2.668,-5.476829 7.347,-9.119732 12.79,-9.209533 z"
     id="path25"
     style="stroke-width:0.998891" /><path
     d="m 568.748,28.714619 c 2.867,-0.0469 5.587,0.902993 7.967,2.593237 -2.446,-4.067959 -5.84,-6.591351 -9.512,-6.536473 -5.309,0.07882 -9.659,5.521728 -11.245,13.152769 2.668,-5.476828 7.347,-9.12073 12.79,-9.209533 z"
     id="path26"
     style="stroke-width:0.998891" /><g
     id="g27"
     transform="matrix(1,0,0,0.99778251,-171.969,-309.72024)">&#10;		<defs
   id="defs26">&#10;			<path
   id="XMLID_00000020374234821692461620000008781778165350130577_"
   d="m 850.077,458.875 c -2.894,17.366 -9.761,34.637 -17.057,43.503 -7.415,9.011 -21.181,23.541 -47.005,23.541 -43.502,0 -119.303,-4.821 -119.302,-72.273 0.002,-72.276 69.429,-72.273 112.931,-72.273 26.292,0 49.574,12.728 63.882,32.288 9.366,12.805 9.346,28.441 6.551,45.214 z" />&#10;		</defs>&#10;		<use
   xlink:href="#XMLID_00000020374234821692461620000008781778165350130577_"
   overflow="visible"
   fill="#555555"
   id="use26" />&#10;		<clipPath
   id="XMLID_00000123441115682613429120000017488236101053849260_">&#10;			<use
   xlink:href="#XMLID_00000020374234821692461620000008781778165350130577_"
   overflow="visible"
   id="use27" />&#10;		</clipPath>&#10;		<path
   clip-path="url(#XMLID_00000123441115682613429120000017488236101053849260_)"
   d="m 882.717,452.529 c 0.818,3.497 1.191,7.157 1.036,10.92 -0.924,22.367 -19.805,39.75 -42.172,38.826 -16.045,-0.663 -34.077,-7.152 -40.075,-20.954 4.042,17.287 23.74,27.069 42.344,27.837 22.367,0.924 41.248,-16.459 42.172,-38.826 0.262,-6.322 -0.942,-12.365 -3.305,-17.803 z"
   id="path27" />&#10;	</g><ellipse
     transform="matrix(0.91870166,-0.39495222,0.39643399,0.91806323,0,0)"
     cx="536.73499"
     cy="345.48816"
     rx="10.488555"
     ry="21.064926"
     id="ellipse27"
     style="stroke-width:0.99891" /><path
     fill="#323133"
     d="m 538.144,-23.932377 c -0.254,-4.004101 3.651,-7.510309 8.721,-7.829599 2.514,-0.158648 4.841,0.496895 6.581,1.685254 -1.182,-3.330598 -6.068,-5.609533 -11.761,-5.250331 -6.392,0.403104 -20.124,7.313745 -19.87,11.317847 0.207,3.267737 12.588,2.473502 17.388,3.080154 -0.609,-0.895011 -0.99,-1.908758 -1.059,-3.003325 z"
     id="path28"
     style="stroke-width:0.998891" /><path
     d="m 515.049,20.158634 c -8.939,-0.243459 -17.686,-2.657095 -25.457,-7.07328 -4.608,-2.619179 -9.81,-6.1503316 -15.037,-10.8468939 -15.632,-14.0467821 -18.271,-24.7410151 -11.193,-37.1364671 7.078,-12.39645 13.811,-22.917069 34.917,-30.145005 20.852,-7.14113 54.399,-4.17572 54.399,-4.17572 0,0 -15.51,8.159865 -23.241,17.05809 -7.604,8.752548 -14.853,18.292347 -2.748,32.078708 4.237,4.825276 8.506,8.260641 12.265,10.68625 6.614,4.2685136 9.33,12.566073 6.359,19.844897 v 0 c -2.558,6.268069 -8.743,10.297115 -15.524,10.112525 z"
     id="path29"
     style="stroke-width:0.998891" /><g
     id="g30"
     transform="matrix(1,0,0,0.99778251,-171.969,-309.72024)">&#10;		<defs
   id="defs29">&#10;			<path
   id="XMLID_00000117640680714711886550000003462698671579824575_"
   d="m 704.192,303.546 c 0,0 -6.994,-3.563 -10.877,-7.622 -3.883,-4.059 -5.421,-9.622 -5.421,-9.622 0,0 -2.369,3.059 -1.282,6.686 1.087,3.627 3.466,7.661 3.466,7.661 0,0 -14.282,-8.439 -8.926,-25.659 7.35,-23.632 28.464,-31.174 28.464,-31.174 0,0 -20.023,-3.542 -36.574,4.123 -16.551,7.665 -21.263,13.648 -25.784,24.35 -4.52,10.702 1.273,22.67 10.145,30.022 8.872,7.352 31.173,17.603 31.173,17.603 l 5.643,0.573 c 9.197,0.932 15.252,-9.353 9.973,-16.941 z" />&#10;		</defs>&#10;		<use
   xlink:href="#XMLID_00000117640680714711886550000003462698671579824575_"
   overflow="visible"
   fill="#ffffff"
   id="use29" />&#10;		<clipPath
   id="XMLID_00000004548519711865428760000017582340400125096835_">&#10;			<use
   xlink:href="#XMLID_00000117640680714711886550000003462698671579824575_"
   overflow="visible"
   id="use30" />&#10;		</clipPath>&#10;		<path
   clip-path="url(#XMLID_00000004548519711865428760000017582340400125096835_)"
   fill="#dadada"
   d="m 689.167,326.842 -36.907,-24.878 -11.374,-22.9 4.267,-3.663 c 0,0 0.064,7.53 13.505,18.94 13.441,11.41 28.267,14.17 28.267,14.17 0,0 -16.102,-9.687 -21.607,-22.447 -5.504,-12.76 7.984,-23.039 7.984,-23.039 0,0 -7.443,13.79 -0.995,23.055 6.448,9.265 12.39,14.031 12.39,14.031 0,0 -6.872,-9.92 -6.435,-17.915 0.437,-7.995 12.056,-15.679 12.056,-15.679 l -5.924,24.455 3.348,6.957 2.336,2.72 c 0,0 13.599,7.268 19.538,9.385 5.939,2.118 -20.449,16.808 -20.449,16.808 z"
   id="path30" />&#10;	</g><ellipse
     transform="matrix(0.99959275,-0.02853637,0.02866325,0.99958912,0,0)"
     cx="569.22498"
     cy="69.498512"
     rx="9.9730721"
     ry="20.621395"
     id="ellipse30"
     style="stroke-width:0.9989" /><ellipse
     transform="matrix(0.99554433,-0.09429465,0.09471048,0.99550486,0,0)"
     fill="#ffffff"
     cx="566.32941"
     cy="97.484619"
     rx="4.8147855"
     ry="6.4226947"
     id="ellipse31"
     style="stroke-width:0.998866" /><ellipse
     fill="#555555"
     cx="573.05298"
     cy="85.421577"
     rx="22.837"
     ry="14.613523"
     id="ellipse32"
     style="stroke-width:0.998891" /><path
     d="m 300.23,285.58574 c 0,0 16.439,-14.45188 22.619,-11.0694 6.181,3.38149 6.155,15.54745 4.218,28.8898 -1.943,13.37627 -3.884,21.17593 -7.895,24.09545 -10.212,7.43447 -33.192,2.62716 -33.192,2.62716 l -4.042,-8.22273 -5.694,2.83969 c 0,0 -5.339,-0.15964 -9.534,-0.95388 -4.195,-0.79423 -8.869,-1.56352 -9.426,-3.66386 -0.557,-2.10033 7.198,-17.28458 13.192,-26.8623 l 4.896,-7.82361 c 0.757,-1.21031 1.712,-2.28193 2.829,-3.17395 3.851,-3.07416 13.159,-10.01773 17.926,-9.38614 6.104,0.8102 4.103,12.70377 4.103,12.70377 z"
     id="path32"
     style="stroke-width:0.998891" /><polygon
     fill="#ffffff"
     points="494.634,595.992 489.939,634.237 476.443,637.273 "
     id="polygon32"
     transform="matrix(1,0,0,0.99778251,-171.969,-309.72024)" /><path
     d="m 644.715,318.54948 c 0,0 -21.596,-3.68281 -22.842,-10.60543 -1.246,-6.92261 8.257,-14.54567 19.878,-21.42438 11.651,-6.89568 18.952,-10.28814 23.749,-9.00898 12.212,3.25776 22.901,24.1164 22.901,24.1164 l -3.873,8.30355 5.791,2.63614 c 0,0 3.23,4.24556 5.246,8.00122 2.016,3.75565 4.353,7.86751 3.065,9.61962 -1.288,1.7521 -18,5.27128 -29.233,6.63425 l -9.177,1.11453 c -1.42,0.17261 -2.855,0.10476 -4.252,-0.20255 -4.816,-1.05865 -16.078,-3.92129 -18.58,-8.01918 -3.204,-5.24634 7.327,-11.16519 7.327,-11.16519 z"
     id="path33"
     style="stroke-width:0.998891" /><polygon
     fill="#ffffff"
     points="802.094,612.611 834.8,592.238 845.641,600.831 "
     id="polygon33"
     transform="matrix(1,0,0,0.99778251,-171.969,-309.72024)" /><path
     fill="#323133"
     d="m 580.95,311.8354 c -36.066,-5.59157 -53.803,-43.33269 -60.222,-61.05032 -0.724,-3.09412 -1.7,-6.15632 -2.917,-9.15565 v 0 0 c -5.447,-13.42417 -15.724,-25.60011 -29.942,-33.82682 -31.121,-18.00698 -69.324,-10.27916 -85.329,17.25864 -15.723,27.05388 -4.171,63.16063 25.747,81.49588 l -0.002,0.001 c 0,0 37.456,38.88059 100.624,42.81186 63.168,3.93126 116.324,-33.05055 116.324,-33.05055 0,0 -16.895,2.86264 -64.283,-4.48404 z"
     id="path34"
     style="stroke-width:0.998891" /><path
     d="m 397.726,267.16668 c 5.052,16.67095 17.075,30.70376 32.077,39.31462 -0.002,0.001 -1.02,0.75832 -1.022,0.75931 l 0.113,-1.26618 c 3.438,3.3276 7.255,6.3888 11.134,9.27439 34.967,25.93536 80.372,37.5266 123.442,30.38247 26.233,-4.26851 51.566,-13.83425 74.419,-27.32826 2.055,-1.23226 4.137,-2.52639 6.059,-3.82251 l 1.662,4.05 c -0.389,0.0748 -0.953,0.11475 -1.338,0.16464 -6.138,0.57073 -12.299,0.43204 -18.442,0.18459 -12.944,-0.59268 -25.862,-2.09435 -38.67,-3.94823 -3.212,-0.4949 -6.352,-0.89401 -9.675,-1.58048 -9.797,-2.09734 -18.921,-6.80688 -26.605,-13.16974 -15.216,-12.71973 -25.091,-30.5501 -31.719,-48.94522 -0.69,-3.07117 -1.628,-6.09046 -2.793,-9.02494 l -0.11,-0.69047 0.11,0.69047 c -3.44,-8.62483 -8.739,-16.49933 -15.395,-23.00288 -20.211,-19.87782 -52.423,-27.09778 -78.172,-13.78836 16.669,-9.55376 37.739,-10.1245 55.524,-3.22383 19.346,7.20898 34.153,22.39323 40.927,38.84966 1.257,3.03425 2.286,6.16829 3.06,9.36818 6.276,16.68192 16.525,34.84456 31.1,46.68524 7.248,5.88892 15.78,10.2163 24.95,12.09612 6.146,1.11452 12.697,1.91375 18.954,2.75189 9.49,1.14944 19.17,2.12028 28.701,2.50942 6.107,0.22051 12.259,0.36219 18.337,-0.28038 0,0 0.501,-0.0678 0.501,-0.0678 l 9.452,-1.27018 -7.791,5.32018 c -16.552,10.82195 -34.741,18.95687 -53.579,24.90765 -48.114,15.44367 -99.509,9.78026 -142.131,-17.66275 -8.284,-5.34612 -16.151,-11.25199 -23.133,-18.26042 0,0 -0.689,-0.70244 -0.689,-0.70244 l 0.802,-0.56374 c 0.002,-0.006 0.055,1.39989 0.055,1.39889 -14.477,-9.0888 -25.805,-23.53071 -30.115,-40.10886 z"
     id="path35"
     style="stroke-width:0.998891" /><path
     fill="#555555"
     d="m 421.994,216.42345 c 14.408,-7.04235 31.984,-9.79823 47.237,-3.28071 10.373,4.68858 17.539,13.9939 23.655,23.1735 9.217,13.90609 16.025,29.27494 25.98,42.53646 9.234,11.42062 19.197,22.94102 31.902,30.49822 2.973,1.83393 6.483,3.49324 9.713,4.85322 0,0 3.427,1.24623 3.427,1.24623 l 0.858,0.31829 c 1.278,0.38814 3.125,0.91796 4.404,1.3041 2.856,0.69845 6.176,1.41685 9.1,1.85987 3.78,0.59967 7.653,1.06563 11.45,1.54257 10.253,1.16142 20.577,2.32783 30.923,1.99058 -10.103,2.88758 -20.746,3.4623 -31.204,3.79856 -7.851,0.10277 -16.124,0.18957 -24.001,-1.38493 -1.194,-0.24545 -2.888,-0.51286 -4.034,-0.84711 -18.999,-4.39124 -34.386,-17.41729 -46.704,-31.80432 -1.537,-1.85488 -3.698,-4.27251 -5.175,-6.20421 -4.14,-5.3551 -7.634,-11.16918 -10.918,-17.02417 -5.023,-9.06685 -9.509,-18.35321 -14.57,-27.25443 -7.961,-13.75543 -15.186,-23.67538 -31.742,-26.4991 -9.881,-1.77506 -20.448,-1.01774 -30.301,1.17738 z"
     id="path36"
     style="stroke-width:0.998891" /><path
     d="m 412.405,174.58443 c -8.798,3.39945 -17.726,7.0663 -25.881,11.87162 -10.195,6.7031 -17.33,17.11696 -23.02,27.75631 -9.918,19.40887 -16.428,40.83026 -18.749,62.52604 1.757,-21.89334 7.698,-43.48236 17.169,-63.33025 4.95,-9.91496 11.056,-19.48769 19.68,-26.69667 4.268,-3.4653 9.31,-6.3868 14.055,-9.13071 4.842,-2.73093 9.734,-5.27028 14.8,-7.66496 z"
     id="path37"
     style="stroke-width:0.998891" /><path
     d="m 443.594,475.64934 c -9.862,-0.10477 -19.712,-0.90299 -29.484,-2.23603 -7.383,-1.07262 -14.748,-2.36973 -21.805,-4.9041 -2.5,-0.93492 -5.121,-2.04645 -7.302,-3.98714 -1.375,-1.37395 -3.456,-3.67483 -4.823,-5.08969 -12.33,-12.67383 -16.533,-30.6429 -19.128,-47.56928 3.158,11.73791 6.319,23.67239 12.386,34.2868 2.921,5.25831 7.063,9.79623 11.268,14.08071 0.717,0.70244 1.719,1.8878 2.477,2.50842 3.747,2.79579 8.505,4.06397 12.995,5.32317 14.23,3.6479 28.844,5.49579 43.416,7.58714 z"
     id="path38"
     style="stroke-width:0.998891" /><path
     fill="#323133"
     d="m 457.92,177.92501 c 0,0 47.281,18.1327 56.658,20.48048 9.377,2.34778 -36.536,-29.0225 -36.536,-29.0225 z"
     id="path39"
     style="stroke-width:0.998891" /><g
     id="g40"
     transform="matrix(1,0,0,0.99778251,-171.969,-309.72024)">&#10;		<defs
   id="defs39">&#10;			<path
   id="XMLID_00000030463290801566103650000011928064321059415210_"
   d="m 1088.448,482.447 -32.838,-5.366 c -10.65,-56.616 -32.918,-109.13 -64.232,-154.976 l 18.572,-25.828 c 11.552,-14.732 10.284,-35.77 -2.954,-49.008 L 959.41,199.683 c -13.238,-13.238 -34.276,-14.506 -49.008,-2.954 L 884.85,215.104 C 837.228,182.268 782.334,159.227 723.074,148.886 l -5.47,-33.475 C 715.355,96.825 699.582,82.846 680.861,82.846 h -67.296 c -18.721,0 -34.494,13.98 -36.743,32.565 l -5.771,35.315 c -55.299,11.05 -106.589,33.202 -151.448,64.037 l -25.078,-18.034 c -14.732,-11.552 -35.77,-10.284 -49.008,2.954 l -47.586,47.586 c -13.238,13.238 -14.506,34.276 -2.954,49.008 l 18.074,25.135 c -31.534,45.965 -53.96,98.666 -64.676,155.505 l -33.842,5.53 c -18.586,2.249 -32.565,18.022 -32.565,36.743 v 67.296 c 0,18.721 13.98,34.494 32.565,36.743 l 33.597,5.49 c 10.946,59.126 34.555,113.807 67.91,161.127 l -21.064,29.292 c -11.552,14.732 -10.284,35.77 2.954,49.008 l 47.586,47.586 c 13.238,13.238 34.276,14.506 49.008,2.954 l 30.508,-21.938 -2.656,-2.656 c 44.254,29.889 94.648,51.374 148.891,62.183 l 5.554,33.991 c 2.249,18.585 18.022,32.565 36.743,32.565 h 67.296 c 18.721,0 34.494,-13.98 36.743,-32.565 l 5.255,-32.157 C 782.12,947.8 837.021,924.791 884.656,891.986 l -4.762,4.762 30.508,21.938 c 14.732,11.552 35.77,10.284 49.008,-2.954 l 47.586,-47.586 c 13.238,-13.238 14.506,-34.276 2.954,-49.008 l -21.556,-29.977 c 33.133,-47.206 56.58,-101.702 67.46,-160.606 l 32.593,-5.326 c 18.585,-2.249 32.565,-18.022 32.565,-36.743 V 519.19 c 0,-18.721 -13.978,-34.494 -32.564,-36.743 z m -436.47,417.561 c -191.383,0 -346.53,-155.147 -346.53,-346.53 0,-191.383 155.147,-346.53 346.53,-346.53 191.383,0 346.53,155.147 346.53,346.53 0,191.383 -155.147,346.53 -346.53,346.53 z" />&#10;		</defs>&#10;		<use
   xlink:href="#XMLID_00000030463290801566103650000011928064321059415210_"
   overflow="visible"
   fill="#146cb3"
   id="use39" />&#10;		<clipPath
   id="XMLID_00000070079273445975057880000018236557639247051426_">&#10;			<use
   xlink:href="#XMLID_00000030463290801566103650000011928064321059415210_"
   overflow="visible"
   id="use40" />&#10;		</clipPath>&#10;		&#10;			<circle
   clip-path="url(#XMLID_00000070079273445975057880000018236557639247051426_)"
   fill="#4a8dc7"
   cx="719.22498"
   cy="531.05103"
   r="413.776"
   id="circle40" />&#10;	</g><polygon
     fill="#abd9f3"
     points="665.859,125.986 628.442,105.979 628.442,145.994 "
     id="polygon40"
     transform="matrix(1,0,0,0.99778251,-171.969,-309.72024)" /><polygon
     fill="#abd9f3"
     points="367.02,230.696 326.415,243.006 354.71,271.301 "
     id="polygon41"
     transform="matrix(1,0,0,0.99778251,-171.969,-309.72024)" /><polygon
     fill="#abd9f3"
     points="973.112,271.301 960.802,230.696 932.507,258.991 "
     id="polygon42"
     transform="matrix(1,0,0,0.99778251,-171.969,-309.72024)" /><polygon
     fill="#abd9f3"
     points="937.184,873.402 949.494,832.797 977.789,861.093 "
     id="polygon43"
     transform="matrix(1,0,0,0.99778251,-171.969,-309.72024)" /><polygon
     fill="#abd9f3"
     points="332.633,832.797 373.238,845.107 344.943,873.402 "
     id="polygon44"
     transform="matrix(1,0,0,0.99778251,-171.969,-309.72024)" /><polygon
     fill="#abd9f3"
     points="1073.504,565.743 1053.496,528.326 1093.511,528.326 "
     id="polygon45"
     transform="matrix(1,0,0,0.99778251,-171.969,-309.72024)" /><polygon
     fill="#abd9f3"
     points="628.442,982.423 665.859,962.415 665.859,1002.431 "
     id="polygon46"
     transform="matrix(1,0,0,0.99778251,-171.969,-309.72024)" /><path
     id="XMLID_00000026877166308006083900000008366253091249331853_"
     fill="#441e0d"
     d="m 508.893,-227.05895 c 18.721,0 34.494,13.949 36.743,32.49279 l 5.47,33.40077 c 59.26,10.31907 114.154,33.30797 161.776,66.071164 l 25.552,-18.334254 c 6.74,-5.27328 14.798,-7.86852 22.828,-7.86852 9.52,0 18.999,3.65089 26.18,10.81597 l 47.586,47.480479 c 13.238,13.208645 14.506,34.199993 2.954,48.899325 L 819.41,11.669501 c 31.314,45.744337 53.582,98.141889 64.232,154.632339 l 32.838,5.3541 c 18.585,2.24401 32.565,17.98204 32.565,36.66152 v 67.14678 c 0,18.67948 -13.98,34.41751 -32.565,36.66152 l -32.593,5.31419 c -10.88,58.77338 -34.328,113.14853 -67.46,160.24986 l 21.556,29.91052 c 11.552,14.69933 10.284,35.69068 -2.954,48.89933 l -47.586,47.48048 c -7.182,7.16607 -16.659,10.81596 -26.18,10.81596 -8.028,0 -16.089,-2.59623 -22.828,-7.86851 l -30.508,-21.88936 4.762,-4.75144 c -47.635,32.73226 -102.536,55.69024 -161.798,65.97638 l -5.255,32.08569 c -2.249,18.54478 -18.022,32.49278 -36.743,32.49278 h -67.296 c -18.721,0 -34.494,-13.94899 -36.743,-32.49278 L 399.3,644.43323 C 345.057,633.6482 294.663,612.21084 250.409,582.38812 l 2.656,2.65011 -30.508,21.88936 c -6.74,5.27328 -14.798,7.86851 -22.828,7.86851 -9.52,0 -18.999,-3.65089 -26.18,-10.81596 l -47.586,-47.48048 c -13.238,-13.20865 -14.506,-34.2 -2.954,-48.89933 l 21.064,-29.22704 C 110.717,431.15822 87.109,376.59847 76.163,317.60358 L 42.566,312.12576 C 23.98,309.88175 10.001,294.14372 10.001,275.46424 v -67.14578 c 0,-18.67949 13.98,-34.41751 32.565,-36.66152 L 76.408,166.1392 C 87.124,109.42624 109.55,56.842108 141.084,10.979035 L 123.01,-14.100228 c -11.552,-14.699332 -10.284,-35.690681 2.954,-48.899326 l 47.586,-47.480486 c 7.182,-7.16607 16.659,-10.81696 26.18,-10.81596 8.028,0 16.088,2.59623 22.828,7.86852 l 25.078,17.99301 c 44.86,-30.76663 96.149,-52.8695 151.448,-63.895 l 5.771,-35.23669 c 2.249,-18.54479 18.022,-32.49279 36.743,-32.49279 h 67.295 M 480.009,588.292 c 191.383,0 346.53,-154.80296 346.53,-345.76157 0,-190.958609 -155.147,-345.76158 -346.53,-345.76158 -191.383,0 -346.53,154.802971 -346.53,345.76158 0,190.95861 155.147,345.76157 346.53,345.76157 m 28.884,-825.32877 h -67.296 c -23.679,0 -43.692,17.63281 -46.643,41.05176 l -4.632,28.28514 c -51.011,11.03847 -98.889,31.23259 -142.507,60.10442 l -19.261,-13.82028 c -8.208,-6.35887 -18.435,-9.85909 -28.824,-9.85909 -12.563,0 -24.372,4.87916 -33.252,13.73847 l -47.586,47.480479 c -16.744,16.70687 -18.398,43.295778 -3.888,61.9383464 L 128.899,11.162627 C 99.221,55.882241 78.738,105.01904 67.939,157.4086 l -26.795,4.3683 C 17.672,164.72135 0,184.68997 0,208.31647 v 67.14677 c 0,23.62749 17.672,43.59511 41.144,46.53957 l 26.528,4.32538 c 5.565,27.39213 13.908,54.26141 24.835,79.97127 10.683,25.13415 23.898,49.31241 39.327,71.96207 l -16.831,23.3541 c -14.51,18.64257 -12.856,45.23248 3.888,61.93835 l 47.586,47.48048 c 8.879,8.85931 20.688,13.73847 33.251,13.73847 10.389,0 20.617,-3.50023 28.826,-9.86109 l 25.429,-18.24445 c 42.022,26.77749 87.879,45.63258 136.555,56.13824 l 4.415,26.96008 c 2.951,23.41995 22.964,41.05176 46.643,41.05176 h 67.296 c 23.68,0 43.692,-17.63281 46.643,-41.05176 l 4.087,-24.95454 c 27.488,-5.25732 54.476,-13.28248 80.331,-23.8929 23.122,-9.48891 45.462,-21.09512 66.588,-34.58514 l 25.896,18.57971 c 8.209,6.35986 18.436,9.85909 28.824,9.85909 12.563,0 24.372,-4.87916 33.251,-13.73847 l 47.586,-47.48048 c 16.744,-16.70687 18.398,-43.29578 3.888,-61.93835 l -17.332,-24.04855 c 15.323,-22.59079 28.447,-46.69423 39.057,-71.74156 10.85,-25.61607 19.136,-52.38059 24.667,-79.66096 l 25.522,-4.16075 c 23.472,-2.94446 41.143,-22.91308 41.143,-46.53957 v -67.14478 c 0,-23.62649 -17.672,-43.59511 -41.143,-46.53957 l -25.789,-4.20465 C 881.379,105.40618 861.043,56.451975 831.584,11.868059 l 14.402,-19.983588 c 14.51,-18.642568 12.856,-45.232474 -3.888,-61.938347 l -47.586,-47.480484 c -8.879,-8.85931 -20.688,-13.73846 -33.251,-13.73846 -10.389,0 -20.617,3.50022 -28.826,9.86108 l -19.726,14.15354 c -22.863,-15.16829 -47.234,-28.10952 -72.542,-38.5124 -25.851,-10.62539 -52.841,-18.66752 -80.328,-23.9398 l -4.303,-26.27361 c -2.951,-23.41995 -22.963,-41.05276 -46.643,-41.05276 z m -28.884,815.35095 c -45.436,0 -89.507,-8.87628 -130.99,-26.38337 -40.072,-16.91141 -76.063,-41.1246 -106.973,-71.96506 -30.91,-30.84046 -55.176,-66.75165 -72.125,-106.73579 -17.546,-41.39101 -26.442,-85.36429 -26.442,-130.69853 0,-45.33525 8.896,-89.30852 26.442,-130.69954 16.949,-39.983133 41.216,-75.894323 72.125,-106.7357808 30.909,-30.8414572 66.9,-55.0536472 106.973,-71.9650632 41.483,-17.507092 85.554,-26.383365 130.99,-26.383365 45.436,0 89.507,8.876273 130.99,26.383365 40.072,16.911416 76.063,41.124604 106.973,71.9650632 30.91,30.8404598 55.176,66.7516498 72.125,106.7357808 17.546,41.39102 26.442,85.36429 26.442,130.69954 0,45.33524 -8.896,89.30851 -26.442,130.69853 -16.949,39.98414 -41.216,75.89433 -72.125,106.73579 -30.909,30.84145 -66.9,55.05365 -106.973,71.96506 -41.483,17.50709 -85.554,26.38337 -130.99,26.38337 z"
     style="stroke-width:0.998891" /><polygon
     fill="#146cb3"
     points="422.67,887.293 425.335,885.258 420.459,881.488 418.548,886.088 "
     id="polygon47"
     transform="matrix(1,0,0,0.99778251,-171.969,-309.72024)" /><polygon
     fill="#4a8dc7"
     points="881.938,898.216 873.705,892.317 885.337,890.003 887.414,895.819 "
     id="polygon48"
     transform="matrix(1,0,0,0.99778251,-171.969,-309.72024)" /><polygon
     fill="#146cb3"
     points="426.062,896.099 424.021,897.476 420.739,893.128 427.796,891.601 "
     id="polygon49"
     transform="matrix(1,0,0,0.99778251,-171.969,-309.72024)" /><polygon
     fill="#abd9f3"
     points="222.504,528.326 242.512,565.743 202.496,565.743 "
     id="polygon58"
     transform="matrix(1,0,0,0.99778251,-171.969,-309.72024)" /><path
     fill="#555555"
     d="m 429.415,31.679031 c 0,0 10.8,-8.452216 27.6,-0.42306 4.518,1.784035 18.635,14.88492 18.635,14.88492 0,0 -15.343,-5.868957 -21.412,-8.921174 -6.069,-3.052216 -24.823,-5.540686 -24.823,-5.540686 z"
     id="path59"
     style="stroke-width:0.998891" /><path
     d="m 484.626,55.883239 c 0,0 -14.965,-19.391903 -21.459,-23.62749 -6.494,-4.235586 -32.556,-12.815518 -38.725,-2.904545 -6.169,9.909976 12.886,25.232922 18.96,26.532035 6.074,1.299113 31.606,6.760974 31.606,6.760974 0,0 -27.465,-9.014965 -30.853,-10.23625 -3.388,-1.221286 -18.965,-9.906983 -13.035,-19.345008 5.929,-9.438024 27.718,0.375167 30.447,1.784036 2.73,1.409866 23.059,21.036248 23.059,21.036248 z"
     id="path60"
     style="stroke-width:0.998891" /></g>&#10;</svg>
