<?xml version="1.0" encoding="UTF-8" standalone="no"?>
<!-- Generator: Adobe Illustrator 26.5.0, SVG Export Plug-In . SVG Version: 6.00 Build 0)  -->

<svg
   version="1.1"
   id="Layer_1"
   x="0px"
   y="0px"
   viewBox="0 0 222.83849 273.70001"
   xml:space="preserve"
   sodipodi:docname="galaxy.svg"
   width="222.83849"
   height="273.70001"
   inkscape:version="1.3 (0e150ed6c4, 2023-07-21)"
   xmlns:inkscape="http://www.inkscape.org/namespaces/inkscape"
   xmlns:sodipodi="http://sodipodi.sourceforge.net/DTD/sodipodi-0.dtd"
   xmlns="http://www.w3.org/2000/svg"
   xmlns:svg="http://www.w3.org/2000/svg"><defs
   id="defs54" /><sodipodi:namedview
   id="namedview54"
   pagecolor="#ffffff"
   bordercolor="#111111"
   borderopacity="1"
   inkscape:showpageshadow="0"
   inkscape:pageopacity="0"
   inkscape:pagecheckerboard="1"
   inkscape:deskcolor="#d1d1d1"
   inkscape:zoom="2.6026936"
   inkscape:cx="111.61514"
   inkscape:cy="133.51552"
   inkscape:window-width="1920"
   inkscape:window-height="979"
   inkscape:window-x="0"
   inkscape:window-y="0"
   inkscape:window-maximized="1"
   inkscape:current-layer="Layer_1" />&#10;<style
   type="text/css"
   id="style1">&#10;	.st0{fill:#565656;}&#10;	.st1{fill:#333233;}&#10;	.st2{fill:#455367;}&#10;	.st3{fill:#2C3A4E;}&#10;	.st4{fill:#707070;}&#10;	.st5{fill:#BB98B0;}&#10;	.st6{fill:#BBC9DD;}&#10;	.st7{fill:#08162B;}&#10;	.st8{fill:#E98A97;}&#10;	.st9{fill:#AC7794;}&#10;	.st10{fill:#74BABE;}&#10;	.st11{fill:#4B9696;}&#10;	.st12{fill:#1E1F1E;}&#10;	.st13{fill:#FFFFFF;}&#10;	.st14{fill:#F2F2F2;}&#10;	.st15{fill:#F15B52;}&#10;	.st16{fill:#B4DBDA;}&#10;	.st17{fill:#FFB9BE;}&#10;	.st18{opacity:0.3;fill:#1C4B8E;}&#10;</style>&#10;&#10;&#10;&#10;&#10;&#10;&#10;&#10;&#10;&#10;&#10;&#10;&#10;&#10;&#10;&#10;&#10;&#10;&#10;&#10;&#10;&#10;&#10;&#10;&#10;&#10;&#10;&#10;&#10;&#10;&#10;&#10;&#10;&#10;&#10;&#10;&#10;&#10;&#10;&#10;&#10;&#10;&#10;&#10;&#10;&#10;<g
   id="g55"
   transform="translate(-28.574,-14.9)"><g
     id="g2">&#10;	<path
   class="st0"
   d="m 230.4,204.3 c 0,-23.6 -40.2,-54 -89.8,-54 -49.6,0 -89.8,30.4 -89.8,54 0,12 10.4,22.9 27.2,30.7 l 5.1,47.6 c 0,0 35.7,-14.3 56.4,-14.8 40.1,-1 58.9,14.8 58.9,14.8 l 3.2,-46.9 c 17.7,-7.8 28.8,-19 28.8,-31.4 z"
   id="path1" />&#10;	<path
   d="m 199.5,285.1 -1.9,-1.6 c 0,0 -4.7,-3.9 -14.2,-7.7 -8.7,-3.4 -23.4,-7.4 -43.9,-6.9 -20.3,0.5 -55.6,14.6 -56,14.8 l -1.5,0.6 -5.2,-48.5 c -17.6,-8.3 -27.3,-19.5 -27.3,-31.5 0,-12.2 10,-26 26.9,-36.9 8.5,-5.5 18.5,-10.1 28.9,-13.2 11.4,-3.4 23.3,-5.2 35.3,-5.2 12,0 23.9,1.7 35.3,5.2 10.4,3.1 20.4,7.7 28.9,13.2 16.8,10.9 26.9,24.7 26.9,36.9 0,6.4 -2.7,12.5 -8.1,18.3 -5,5.3 -11.9,10 -20.8,14 z M 140.6,151.5 c -11.7,0 -23.4,1.7 -34.6,5.1 -10.2,3 -19.9,7.5 -28.2,12.9 -7.9,5.1 -14.4,11 -18.9,17.2 -4.5,6.1 -6.8,12.2 -6.8,17.7 0,5.6 2.4,11 7,16.1 4.6,5.1 11.1,9.6 19.5,13.5 l 0.6,0.3 5,46.7 c 3,-1.2 10.3,-3.9 19,-6.7 15.4,-4.9 27.6,-7.5 36.3,-7.7 20.9,-0.5 36,3.6 45,7.1 6.4,2.5 10.6,5.1 12.9,6.6 l 3.1,-45.4 0.7,-0.3 c 8.8,-3.9 15.8,-8.5 20.6,-13.7 4.9,-5.3 7.4,-10.8 7.4,-16.6 0,-5.5 -2.4,-11.6 -6.8,-17.7 -4.5,-6.1 -11,-12 -18.9,-17.2 -8.3,-5.4 -18,-9.8 -28.2,-12.9 -11.3,-3.3 -23,-5 -34.7,-5 z"
   id="path2" />&#10;</g><g
     id="g4">&#10;	<path
   class="st1"
   d="m 235.2,182.2 c 0,0 -2.5,7.4 -4.9,9.8 -2.5,2.5 -9.8,7.4 -9.8,7.4 l -4.9,-7.4 c 0,0 7.4,-2.5 9.8,-4.9 2.5,-2.5 9.8,-9.8 9.8,-9.8 z"
   id="path3" />&#10;	<path
   d="m 220.1,201.1 -6.5,-9.7 1.5,-0.5 c 2,-0.7 7.5,-2.8 9.3,-4.6 l 11.9,-11.9 v 8.1 l -0.1,0.2 c -0.1,0.3 -2.6,7.7 -5.2,10.3 -2.5,2.5 -9.7,7.3 -10,7.5 z m -2.6,-8.5 3.3,5 c 2.1,-1.4 6.8,-4.7 8.6,-6.5 1.8,-1.8 3.8,-7 4.5,-9.1 v -1.7 l -7.7,7.7 c -1.9,1.9 -6.4,3.8 -8.7,4.6 z"
   id="path4" />&#10;</g><path
     class="st1"
     d="m 196.4,237.8 c 20.7,-7.8 34,-19.9 34,-33.5 0,-17.1 -21,-37.7 -51.4,-47.8 l -68.9,10.8 c 0,0 49.1,19.6 73.6,24.5 24.5,4.9 22.1,14.7 22.1,24.5 0,8.6 -7.5,19 -9.4,21.5 z"
     id="path5" /><path
     d="m 140.6,248.3 c -24.2,0 -46.9,-4.5 -64,-12.7 -17.4,-8.3 -27,-19.4 -27,-31.4 0,-12.2 10,-26 26.9,-36.9 8.5,-5.5 18.5,-10.1 28.9,-13.2 11.4,-3.4 23.3,-5.2 35.3,-5.2 12,0 23.9,1.7 35.3,5.2 10.4,3.1 20.4,7.7 28.9,13.2 16.8,10.9 26.9,24.7 26.9,36.9 0,11.9 -9.6,23.1 -27,31.4 -17.3,8.2 -40.1,12.7 -64.2,12.7 z m 0,-96.8 c -11.7,0 -23.4,1.7 -34.6,5.1 -10.2,3 -19.9,7.5 -28.2,12.9 -7.9,5.1 -14.4,11 -18.9,17.2 -4.5,6.1 -6.8,12.2 -6.8,17.7 0,10.9 9.1,21.3 25.6,29.2 16.8,8 39.2,12.4 63,12.4 23.8,0 46.2,-4.4 63,-12.4 16.5,-7.9 25.6,-18.2 25.6,-29.2 0,-5.5 -2.4,-11.6 -6.8,-17.7 -4.5,-6.1 -11,-12 -18.9,-17.2 -8.3,-5.4 -18,-9.8 -28.2,-12.9 -11.4,-3.4 -23.1,-5.1 -34.8,-5.1 z"
     id="path6" /><g
     id="g9">&#10;	<g
   id="g7">&#10;		<ellipse
   transform="matrix(0.9741,-0.226,0.226,0.9741,-16.9374,50.9284)"
   class="st1"
   cx="213.89999"
   cy="99.400002"
   rx="12.7"
   ry="7.8000002"
   id="ellipse6" />&#10;		<path
   d="m 211.2,108.8 c -1.8,0 -3.6,-0.3 -5.2,-0.8 -3.1,-1 -5.1,-3 -5.7,-5.4 v 0 c -0.6,-2.5 0.4,-5.1 2.7,-7.4 2.2,-2.1 5.3,-3.8 8.8,-4.6 7.6,-1.8 14.4,0.7 15.6,5.6 0.6,2.5 -0.4,5.1 -2.7,7.4 -2.2,2.1 -5.3,3.8 -8.8,4.6 -1.6,0.4 -3.2,0.6 -4.7,0.6 z m 5.4,-16.3 c -1.3,0 -2.7,0.2 -4.2,0.5 -3.1,0.7 -5.8,2.1 -7.6,3.9 -1.7,1.7 -2.4,3.5 -2,5.1 v 0 c 0.4,1.6 1.8,2.9 4.1,3.6 2.5,0.8 5.5,0.9 8.6,0.2 3.1,-0.7 5.8,-2.1 7.6,-3.9 1.7,-1.7 2.4,-3.5 2,-5.1 -0.6,-2.6 -4.2,-4.3 -8.5,-4.3 z"
   id="path7" />&#10;	</g>&#10;	<g
   id="g8">&#10;		<ellipse
   transform="matrix(0.226,-0.9741,0.9741,0.226,-44.7417,142.4075)"
   class="st1"
   cx="67.199997"
   cy="99.400002"
   rx="7.8000002"
   ry="12.7"
   id="ellipse7" />&#10;		<path
   d="m 70,108.7 c -1.5,0 -3.2,-0.2 -4.8,-0.6 -3.5,-0.8 -6.6,-2.4 -8.8,-4.6 -2.3,-2.3 -3.3,-4.9 -2.7,-7.4 0.6,-2.5 2.6,-4.4 5.7,-5.4 2.9,-1 6.4,-1 9.9,-0.2 7.6,1.8 12.6,7 11.5,11.9 v 0 c -0.9,4 -5.3,6.3 -10.8,6.3 z M 64.5,92.5 c -1.6,0 -3.1,0.2 -4.4,0.7 -2.2,0.8 -3.7,2 -4.1,3.6 -0.4,1.6 0.4,3.4 2,5.1 1.8,1.8 4.6,3.2 7.6,3.9 6,1.4 11.8,-0.3 12.6,-3.8 v 0 c 0.8,-3.5 -3.6,-7.6 -9.7,-9 -1.2,-0.4 -2.6,-0.5 -4,-0.5 z"
   id="path8" />&#10;	</g>&#10;</g><path
     class="st2"
     d="m 219.9,111.3 c 3.1,14.8 5.6,36.1 -1.6,47.5 -14.1,22.1 -49.6,28.5 -78.9,28.5 -30.2,0 -62.7,0.3 -76.4,-23 -6.5,-11 -5.4,-40.5 -1.7,-53 11.6,-39.7 21.1,-68 77.2,-67 58.9,1.1 72.8,26.2 81.4,67 z"
     id="path9" /><g
     id="g10">&#10;	<path
   class="st3"
   d="m 219.9,111.3 c -8.6,-40.8 -22.5,-65.9 -81.5,-67 -12.8,-0.2 -23.1,1.1 -31.6,3.7 54.5,2.8 68,25.7 76.5,61.8 3.2,13.7 5.8,33.4 -1.7,44 -14.6,20.5 -51.3,26.4 -81.6,26.4 -6.4,0 -12.9,0 -19.3,-0.2 16.1,7.5 38,7.4 58.7,7.4 29.3,0 64.8,-6.4 78.9,-28.5 7.2,-11.5 4.7,-32.8 1.6,-47.6 z"
   id="path10" />&#10;</g><path
     d="m 137.3,188.5 c -14.7,0 -29.8,-0.1 -43.1,-2.9 C 78.7,182.3 68.1,175.5 61.8,164.9 57.7,158 57,145.3 57,138.3 56.9,128.1 58.1,117.3 60,110.8 66.3,89.4 71.5,73.3 82.2,61.6 94.2,48.4 112,42.5 138.4,43 c 28.4,0.5 47.6,6.5 60.5,18.9 13.1,12.6 18.4,31 22.2,49 v 0 c 6,28.3 2.3,42 -1.8,48.4 -6.6,10.3 -18.2,18.1 -34.4,23 -16.3,5 -33.7,6 -45.5,6 h -1 c -0.4,0.2 -0.7,0.2 -1.1,0.2 z m -1.8,-143 c -24,0 -40.4,5.7 -51.5,17.8 -10.3,11.3 -15.5,27.2 -21.7,48.3 -3.7,12.8 -4.5,41.8 1.6,52.1 5.9,10 16,16.3 30.8,19.5 13.3,2.8 28.7,2.8 43.6,2.8 h 1 c 11.6,0 28.8,-1 44.8,-5.9 15.7,-4.8 26.8,-12.2 33,-22 7.4,-11.6 4.1,-34.2 1.5,-46.6 v 0 C 214.9,93.9 209.7,75.9 197.1,63.7 184.7,51.7 166,45.9 138.3,45.4 c -0.9,0.1 -1.9,0.1 -2.8,0.1 z"
     id="path11" /><ellipse
     class="st4"
     cx="141.39999"
     cy="227"
     rx="34.299999"
     ry="35.599998"
     id="ellipse11" /><ellipse
     class="st5"
     cx="202"
     cy="139.8"
     rx="13"
     ry="10.5"
     id="ellipse12" /><path
     class="st6"
     d="m 192.6,137.9 c -0.2,0 -0.4,0 -0.5,-0.1 -0.5,-0.3 -0.7,-1 -0.4,-1.5 0.1,-0.1 0.8,-1.3 2.4,-2.7 1.7,-1.4 3.5,-1.7 3.6,-1.7 0.6,-0.1 1.2,0.3 1.3,0.9 0.1,0.6 -0.3,1.2 -0.9,1.3 0,0 -1.4,0.3 -2.6,1.3 -1.4,1.1 -1.9,2.1 -1.9,2.1 -0.3,0.2 -0.7,0.4 -1,0.4 z"
     id="path12" /><ellipse
     class="st5"
     cx="79.199997"
     cy="139.8"
     rx="13"
     ry="10.5"
     id="ellipse13" /><path
     class="st6"
     d="m 69.8,137.9 c -0.2,0 -0.4,0 -0.5,-0.1 -0.5,-0.3 -0.7,-1 -0.4,-1.5 0.1,-0.1 0.8,-1.3 2.4,-2.7 1.7,-1.4 3.5,-1.7 3.6,-1.7 0.6,-0.1 1.2,0.3 1.3,0.9 0.1,0.6 -0.3,1.2 -0.9,1.3 0,0 -1.4,0.3 -2.6,1.3 -1.4,1.1 -1.9,2.1 -1.9,2.1 -0.3,0.2 -0.6,0.4 -1,0.4 z"
     id="path13" /><circle
     class="st7"
     cx="97.300003"
     cy="119.8"
     r="13.1"
     id="circle13" /><circle
     class="st6"
     cx="101.7"
     cy="114.7"
     r="3.8"
     id="circle14" /><path
     class="st7"
     d="m 88,112.2 c -0.1,0 -0.1,0 -0.2,0 -0.1,0 -1,-0.2 -2.6,-0.9 -1.7,-0.7 -2.9,-2 -2.9,-2 -0.4,-0.4 -0.4,-1.1 0.1,-1.5 0.4,-0.4 1.1,-0.4 1.5,0.1 0,0 0.9,0.9 2.2,1.5 1.4,0.6 2.1,0.7 2.1,0.7 0.6,0.1 1,0.7 0.9,1.3 -0.1,0.4 -0.6,0.8 -1.1,0.8 z"
     id="path14" /><circle
     class="st7"
     cx="183.89999"
     cy="119.8"
     r="13.1"
     id="circle15" /><circle
     class="st6"
     cx="187.10001"
     cy="114.7"
     r="3.8"
     id="circle16" /><path
     class="st7"
     d="m 193.2,112.2 c -0.5,0 -1,-0.4 -1.1,-0.9 -0.1,-0.6 0.3,-1.2 0.9,-1.3 0,0 0.8,-0.1 2.1,-0.7 1.3,-0.6 2.2,-1.5 2.2,-1.5 0.4,-0.4 1.1,-0.5 1.5,0 0.4,0.4 0.5,1.1 0.1,1.5 0,0.1 -1.2,1.3 -2.9,2 -1.6,0.7 -2.5,0.9 -2.6,0.9 -0.1,0 -0.2,0 -0.2,0 z"
     id="path16" /><ellipse
     class="st5"
     cx="140.60001"
     cy="155.60001"
     rx="45.200001"
     ry="29.299999"
     id="ellipse16" /><ellipse
     transform="matrix(0.9709,-0.2394,0.2394,0.9709,-31.2396,33.6945)"
     class="st7"
     cx="123.1"
     cy="145.39999"
     rx="6.5"
     ry="3.8"
     id="ellipse17" /><ellipse
     transform="matrix(0.2394,-0.9709,0.9709,0.2394,-20.9334,264.1093)"
     class="st7"
     cx="158.10001"
     cy="145.39999"
     rx="3.8"
     ry="6.5"
     id="ellipse18" /><path
     class="st9"
     d="m 165.5,131.2 c 5.2,5.5 8.4,12.3 8.4,19.7 0,20.4 -26.4,29.9 -49,29.9 -3.4,0 -6.5,-0.3 -9.4,-0.8 7.2,3.1 15.8,4.9 25.1,4.9 25,0 45.2,-13.1 45.2,-29.3 0,-10.2 -8.1,-19.2 -20.3,-24.4 z"
     id="path18" /><path
     class="st6"
     d="m 145.1,126.5 c -1.5,-0.1 -3,-0.1 -4.5,-0.1 -24.6,0 -44.5,12.7 -45.2,28.5 6.2,-14.5 27.6,-27.3 49.7,-28.4 z"
     id="path19" /><path
     class="st7"
     d="m 140.6,186.1 c -12.3,0 -23.9,-3.1 -32.7,-8.8 -8.9,-5.8 -13.8,-13.5 -13.8,-21.7 0,-8.2 4.9,-16 13.8,-21.7 8.7,-5.7 20.3,-8.8 32.7,-8.8 12.4,0 23.9,3.1 32.7,8.8 8.9,5.8 13.8,13.5 13.8,21.7 0,8.2 -4.9,16 -13.8,21.7 -8.8,5.7 -20.4,8.8 -32.7,8.8 z m 0,-58.5 c -24.3,0 -44,12.6 -44,28 0,15.5 19.7,28 44,28 24.3,0 44,-12.6 44,-28 0,-15.4 -19.8,-28 -44,-28 z"
     id="path20" /><path
     d="m 179.8,243.9 -3.4,-4.4 0.8,-0.8 c 0.1,-0.1 7.5,-6.8 10.6,-12.9 3,-6.1 2.7,-21.1 2.7,-21.2 l 2.5,-0.1 c 0,0.6 0.4,15.7 -2.9,22.4 -2.7,5.4 -8.2,10.9 -10.3,12.9 l 1.1,1.4 c 2.9,-0.6 13.9,-3 22,-6.8 l 1,2.2 c -9.6,4.6 -22.8,7.1 -23.3,7.2 z"
     id="path21" /><path
     d="m 101.4,243.9 -0.7,-0.1 c -0.6,-0.1 -13.7,-2.6 -23.3,-7.2 l 1,-2.2 c 8.1,3.8 19.1,6.2 22,6.8 l 1.1,-1.4 c -2.1,-2 -7.7,-7.5 -10.3,-12.9 -3.3,-6.6 -2.9,-21.7 -2.9,-22.4 l 2.5,0.1 c 0,0.2 -0.4,15.1 2.7,21.2 3.1,6.1 10.5,12.8 10.6,12.9 l 0.8,0.8 z"
     id="path22" /><g
     id="g23">&#10;	<circle
   class="st10"
   cx="141.39999"
   cy="246.89999"
   r="30.4"
   id="circle22" />&#10;	<path
   d="m 141.4,216.5 c 5.8,0 11.6,1.6 16.7,5 14,9.3 17.9,28.1 8.6,42.2 -5.9,8.9 -15.5,13.7 -25.4,13.7 -5.8,0 -11.6,-1.6 -16.7,-5 -14,-9.3 -17.9,-28.1 -8.6,-42.2 5.8,-8.9 15.5,-13.7 25.4,-13.7 m 0,-2 v 0 c -10.9,0 -21.1,5.4 -27.1,14.6 -4.8,7.2 -6.4,15.9 -4.7,24.4 1.7,8.5 6.7,15.8 13.9,20.6 5.3,3.5 11.5,5.4 17.8,5.4 10.9,0 21.1,-5.4 27.1,-14.6 4.8,-7.2 6.4,-15.9 4.7,-24.4 -1.7,-8.5 -6.7,-15.8 -13.9,-20.6 -5.3,-3.5 -11.5,-5.4 -17.8,-5.4 z"
   id="path23" />&#10;</g><path
     class="st11"
     d="m 163.1,225.6 c -1.5,-1.5 -3.1,-2.9 -4.9,-4.1 -0.5,-0.3 -1,-0.6 -1.5,-0.9 -0.6,7.1 -4.5,17.1 -11.1,27 -7.8,11.9 -17.2,20.3 -24.1,22.3 1,0.8 2,1.6 3.1,2.4 1.4,0.9 2.8,1.7 4.3,2.4 7.1,-4.5 15.2,-12.8 22.2,-23.3 5.9,-9.1 10,-18.1 12,-25.8 z"
     id="path24" /><path
     class="st11"
     d="m 131.8,275.8 c 12.7,4.2 27.2,-0.4 35,-12.1 7.3,-11.1 6.4,-25.2 -1.2,-35.2 z"
     id="path25" /><g
     id="g27">&#10;	<path
   class="st1"
   d="m 181.1,239.6 c -3.1,-4.7 -10.3,-5.4 -16,-1.6 -4.3,2.9 -6.5,7.4 -6,11.5 0.1,0.5 0.5,0.9 1,0.9 h 4.6 c 0.4,0 0.7,0.4 0.5,0.8 l -1.7,3.9 c -0.2,0.5 0,1 0.5,1.3 3.6,1.8 8.4,1.4 12.5,-1.4 5.7,-3.9 7.8,-10.8 4.6,-15.4 z"
   id="path26" />&#10;	<path
   d="m 168.8,258.6 c -1.9,0 -3.7,-0.4 -5.4,-1.2 -1.1,-0.5 -1.5,-1.8 -1,-2.8 l 1.3,-3 h -3.6 c -1.1,0 -2,-0.8 -2.2,-1.9 -0.6,-4.7 2,-9.7 6.5,-12.7 6.2,-4.2 14.2,-3.3 17.7,1.9 v 0 c 3.5,5.2 1.3,12.9 -4.9,17.1 -2.6,1.7 -5.5,2.6 -8.4,2.6 z m -4,-3.3 c 3.3,1.5 7.6,1 11.1,-1.4 5.1,-3.4 7,-9.6 4.2,-13.7 v 0 c -2.8,-4.1 -9.2,-4.7 -14.3,-1.3 -3.7,2.5 -5.8,6.4 -5.5,10.2 h 4.4 c 0.6,0 1.2,0.3 1.5,0.8 0.3,0.5 0.4,1.1 0.1,1.7 z"
   id="path27" />&#10;</g><g
     id="g29">&#10;	<path
   class="st1"
   d="m 101,239.6 c 3.1,-4.7 10.3,-5.4 16,-1.6 4.3,2.9 6.5,7.4 6,11.5 -0.1,0.5 -0.5,0.9 -1,0.9 h -4.6 c -0.4,0 -0.7,0.4 -0.5,0.8 l 1.7,3.9 c 0.2,0.5 0,1 -0.5,1.3 -3.6,1.8 -8.4,1.4 -12.5,-1.4 -5.7,-3.9 -7.7,-10.8 -4.6,-15.4 z"
   id="path28" />&#10;	<path
   d="m 113.3,258.6 c -2.8,0 -5.8,-0.9 -8.4,-2.7 -6.2,-4.2 -8.4,-11.8 -4.9,-17.1 v 0 c 3.5,-5.2 11.4,-6.1 17.7,-1.9 4.5,3 7.1,8 6.5,12.7 -0.1,1.1 -1.1,1.9 -2.2,1.9 h -3.6 l 1.3,3 c 0.5,1.1 0,2.3 -1,2.8 -1.7,0.9 -3.5,1.3 -5.4,1.3 z m -11.2,-18.4 c -2.8,4.1 -0.9,10.3 4.2,13.7 3.5,2.4 7.8,2.9 11.1,1.4 l -1.6,-3.7 c -0.2,-0.6 -0.2,-1.2 0.1,-1.7 0.3,-0.5 0.9,-0.8 1.5,-0.8 h 4.4 c 0.3,-3.7 -1.8,-7.7 -5.5,-10.2 -5.1,-3.4 -11.5,-2.8 -14.2,1.3 z"
   id="path29" />&#10;</g><path
     class="st1"
     d="m 231.9,233.8 -4.9,1.3 c -1.9,0.5 -3.9,-0.6 -4.5,-2.6 l -1.4,-5 c -0.3,-1.1 -1.3,-2 -2.5,-2 -10.1,-0.6 -21.3,5.6 -28,16.6 -9,14.7 -6.6,32.5 5.2,39.7 11.8,7.2 28.7,1.1 37.6,-13.7 6.9,-11.3 7.1,-24.5 1.4,-33.2 -0.5,-0.9 -1.7,-1.4 -2.9,-1.1 z"
     id="path30" /><path
     class="st12"
     d="m 238.2,242.6 c -1.6,6.3 -6.1,19.5 -16.8,28.9 -6.9,6.1 -18.7,9.2 -25.3,10.5 11.8,7 28.6,0.9 37.5,-13.8 5,-8.4 6.5,-17.8 4.6,-25.6 z"
     id="path31" /><path
     class="st1"
     d="m 49.3,233.8 4.9,1.3 c 1.9,0.5 3.9,-0.6 4.5,-2.6 l 1.4,-5 c 0.3,-1.1 1.3,-2 2.5,-2 10.1,-0.6 21.3,5.6 28,16.6 9,14.7 6.6,32.5 -5.2,39.7 -11.8,7.2 -28.7,1.1 -37.6,-13.7 -6.9,-11.3 -7.1,-24.5 -1.4,-33.2 0.5,-0.9 1.7,-1.4 2.9,-1.1 z"
     id="path32" /><path
     class="st12"
     d="m 93,247.1 c 0,0 1.1,21.4 -14.3,28.4 -7.1,3.2 -14.9,3.8 -21.3,3.5 8.8,6.4 19.5,7.9 27.8,2.9 10.6,-6.4 13.6,-21.2 7.8,-34.8 z"
     id="path33" /><path
     d="m 206.9,286.1 c -4.2,0 -8.1,-1.1 -11.6,-3.2 -6,-3.7 -9.9,-10 -11,-17.9 -1,-7.8 0.9,-16.1 5.4,-23.5 6.8,-11.1 18.2,-17.9 29.1,-17.2 1.7,0.1 3.1,1.3 3.6,2.9 l 1.4,5 c 0.3,1.3 1.7,2 3,1.7 l 4.9,-1.3 0.3,1.2 -0.3,-1.2 c 1.7,-0.5 3.4,0.2 4.4,1.7 3,4.6 4.4,10.2 4.2,16.3 -0.2,6.2 -2.2,12.5 -5.6,18.2 -4.5,7.4 -11,12.9 -18.4,15.6 -3.2,1.2 -6.4,1.7 -9.4,1.7 z m 10.4,-59.4 c -9.6,0 -19.5,6.2 -25.5,16.1 -4.2,6.9 -6,14.7 -5,21.9 0.9,7.1 4.4,12.9 9.8,16.1 5.4,3.3 12.1,3.7 18.8,1.3 6.8,-2.5 12.9,-7.6 17.1,-14.5 3.2,-5.3 5,-11.2 5.2,-17 0.2,-5.6 -1.1,-10.8 -3.8,-14.9 -0.4,-0.6 -1.1,-0.8 -1.7,-0.7 l -4.9,1.3 c -2.6,0.7 -5.3,-0.8 -6,-3.4 l -1.4,-5 c -0.2,-0.6 -0.7,-1.1 -1.4,-1.1 -0.4,0 -0.8,-0.1 -1.2,-0.1 z"
     id="path34" /><path
     d="m 74.3,286.1 c -10.2,0 -21.1,-6.3 -27.7,-17.2 -3.4,-5.7 -5.4,-12 -5.6,-18.2 -0.2,-6.1 1.2,-11.8 4.2,-16.3 0.9,-1.5 2.7,-2.1 4.4,-1.7 l 4.9,1.3 c 1.3,0.3 2.6,-0.4 3,-1.7 l 1.4,-5 c 0.4,-1.7 1.9,-2.8 3.6,-2.9 10.9,-0.7 22.3,6.1 29.1,17.2 9.3,15.3 6.8,33.9 -5.6,41.4 -3.6,2.1 -7.6,3.1 -11.7,3.1 z M 48.5,235 c -0.5,0 -1,0.3 -1.3,0.7 -2.7,4.1 -4,9.3 -3.8,14.9 0.2,5.8 2,11.7 5.2,17 8.6,14.1 24.7,20.1 36,13.2 11.2,-6.8 13.4,-23.9 4.8,-38 -6.3,-10.3 -16.8,-16.6 -26.9,-16 -0.6,0 -1.2,0.5 -1.4,1.1 l -1.4,5 c -0.7,2.6 -3.4,4.1 -6,3.4 L 48.8,235 c 0,0 -0.1,0 -0.3,0 z"
     id="path35" /><g
     id="g37">&#10;	<path
   class="st1"
   d="m 240.1,157.7 c 0,0 7.4,9.8 4.9,19.6 -2.5,9.8 -9.8,7.4 -14.7,4.9 -4.9,-2.5 -4.9,-9.8 0,-14.7 4.9,-4.9 9.8,-9.8 9.8,-9.8 z"
   id="path36" />&#10;	<path
   d="m 237.7,185.6 c -2.9,0 -5.8,-1.2 -7.9,-2.3 -2.3,-1.1 -3.8,-3.3 -4.2,-5.9 -0.6,-3.6 0.9,-7.7 3.9,-10.7 l 10.8,-10.8 0.8,1.1 c 0.3,0.4 7.7,10.4 5.1,20.7 -0.9,3.7 -2.7,6.2 -5.1,7.3 -1.1,0.4 -2.3,0.6 -3.4,0.6 z m 2.2,-26 -8.8,8.8 c -2.5,2.5 -3.7,5.8 -3.2,8.6 0.3,1.9 1.3,3.3 2.9,4.1 4.1,2 7.1,2.6 9.2,1.6 1.8,-0.8 3,-2.7 3.8,-5.7 1.8,-7.2 -2.1,-14.6 -3.9,-17.4 z"
   id="path37" />&#10;</g><g
     id="g39">&#10;	<path
   class="st13"
   d="m 140.8,16.4 c -56.6,0 -102.5,46.2 -102.5,103.3 0,41.5 45.9,76.3 102.5,76.3 56.6,0 102.5,-38.1 102.5,-76.3 0,-57 -45.9,-103.3 -102.5,-103.3 z m 77.3,127.9 c -8.4,46 -38,19.5 -80.5,19.5 C 95,163.8 73.3,195 64,144.3 55.9,100.2 98.5,67.9 141,67.9 c 42.6,0 84.7,34.7 77.1,76.4 z"
   id="path38" />&#10;	<path
   d="m 140.8,197.5 c -27.6,0 -53.7,-8.1 -73.4,-22.9 -19.8,-14.8 -30.6,-34.3 -30.6,-54.9 0,-57.8 46.7,-104.8 104,-104.8 57.3,0 104,47 104,104.8 0,19.1 -11.2,38.7 -30.6,53.7 -20.2,15.6 -46.3,24.1 -73.4,24.1 z m 0,-179.6 c -55.7,0 -101,45.7 -101,101.8 0,19.7 10.5,38.3 29.4,52.5 19.2,14.4 44.6,22.3 71.6,22.3 26.5,0 51.9,-8.4 71.6,-23.5 18.7,-14.4 29.4,-33.1 29.4,-51.3 0,-56.1 -45.3,-101.8 -101,-101.8 z M 84.7,174.8 c -3.4,0 -6.4,-0.7 -9.2,-2.4 -6.2,-3.9 -10.2,-12.4 -13,-27.8 -3.3,-17.8 1.3,-34.7 13.1,-49 15,-18 40.1,-29.2 65.4,-29.2 24.7,0 49.5,11.4 64.8,29.8 11.9,14.3 16.8,31.5 13.7,48.4 l -1.5,-0.3 1.5,0.3 c -2.3,12.7 -6.3,20.5 -12.4,24.7 -8.8,5.9 -20.5,3.5 -35.3,0.5 -10.1,-2.1 -21.6,-4.4 -34.2,-4.4 -13.4,0 -24.6,3.1 -34.4,5.8 -7,1.9 -13.1,3.6 -18.5,3.6 z M 141.1,69.4 c -24.4,0 -48.6,10.8 -63.1,28.2 -11.3,13.5 -15.6,29.6 -12.5,46.5 2.6,14.3 6.3,22.5 11.7,25.8 6,3.8 14.5,1.4 25.3,-1.6 9.5,-2.7 21.3,-5.9 35.2,-5.9 12.9,0 24.6,2.4 34.8,4.5 14.1,2.9 25.3,5.2 33,0 5.4,-3.6 9,-11.1 11.2,-22.7 2.9,-16 -1.7,-32.4 -13,-46 C 188.8,80.4 164.8,69.4 141.1,69.4 Z"
   id="path39" />&#10;</g><g
     id="g41">&#10;	<path
   class="st14"
   d="m 206.9,71.8 c 16.1,20.9 30.9,60 30.9,60 l 5.2,-16.7 c -4.8,-53.8 -39.4,-92.2 -92.3,-97 -0.1,0 37.5,29.4 56.2,53.7 z"
   id="path40" />&#10;	<path
   d="M 140.6,198.1 C 113,198.1 86.9,190 67.2,175.2 47.4,160.4 36.6,140.9 36.6,120.3 c 0,-57.8 46.7,-104.8 104,-104.8 57.3,0 104,47 104,104.8 0,19.1 -11.2,38.7 -30.6,53.7 -20.2,15.5 -46.3,24.1 -73.4,24.1 z m 0,-179.6 c -55.7,0 -101,45.7 -101,101.8 0,19.7 10.5,38.3 29.4,52.5 19.2,14.4 44.6,22.3 71.6,22.3 26.5,0 51.9,-8.4 71.6,-23.5 18.7,-14.4 29.4,-33.1 29.4,-51.3 0,-56.2 -45.3,-101.8 -101,-101.8 z"
   id="path41" />&#10;</g><g
     id="g43">&#10;	<path
   class="st4"
   d="m 42.3,90.8 c 0,0 7.9,9.9 7.7,28.3 -0.2,18.4 -5,26.5 -5,26.5 0,0 -14.3,0.1 -14.9,-27.4 C 29.6,90.7 42.3,90.8 42.3,90.8 Z"
   id="path42" />&#10;	<path
   d="m 45,147.1 c -0.9,0 -15.8,-0.5 -16.4,-28.9 -0.3,-12.2 2,-20.8 6.7,-25.5 3.4,-3.4 6.9,-3.4 7,-3.4 H 43 l 0.4,0.6 c 0.3,0.4 8.3,10.5 8.1,29.2 -0.2,18.6 -5,26.9 -5.2,27.3 l -0.4,0.7 z M 41.6,92.4 c -0.9,0.2 -2.6,0.8 -4.3,2.5 -2.8,2.9 -6,9.2 -5.7,23.2 0.5,21.9 9.6,25.3 12.5,25.8 1.1,-2.5 4.2,-10.5 4.4,-24.9 0.2,-14.9 -5.2,-24.1 -6.9,-26.6 z"
   id="path43" />&#10;</g><g
     id="g45">&#10;	<path
   class="st4"
   d="m 237.7,90.8 c 0,0 -7.9,9.9 -7.7,28.3 0.2,18.4 5,26.5 5,26.5 0,0 14.3,0.1 14.9,-27.4 0.6,-27.5 -12.2,-27.4 -12.2,-27.4 z"
   id="path44" />&#10;	<path
   d="m 235,147.1 c 0,0 0,0 0,0 h -0.9 l -0.4,-0.7 c -0.2,-0.3 -5,-8.7 -5.2,-27.3 -0.2,-18.7 7.7,-28.8 8.1,-29.2 l 0.4,-0.6 h 0.7 c 0.1,0 3.6,0 7,3.4 4.7,4.7 6.9,13.3 6.7,25.5 -0.6,28.4 -15.5,28.9 -16.4,28.9 z m 3.4,-54.7 c -1.7,2.5 -7.1,11.7 -6.9,26.6 0.1,14.5 3.2,22.5 4.4,24.9 2.9,-0.5 12.1,-3.9 12.5,-25.8 0.3,-14 -2.9,-20.4 -5.7,-23.2 -1.8,-1.7 -3.4,-2.3 -4.3,-2.5 z"
   id="path45" />&#10;</g><g
     id="g50">&#10;	<g
   id="g47">&#10;		<path
   class="st13"
   d="m 183.3,44.9 c 0,0 2.5,4.8 6,7.5 3.5,2.7 9,3.7 9.9,3.3 1,-0.4 5.1,-11.2 6.6,-15.1 1.4,-3.9 1.9,-11.6 -1,-10.8 -2.9,0.7 -2.6,6.3 -10.6,10.3 -8,3.9 -10.9,4.8 -10.9,4.8 z"
   id="path46" />&#10;		<path
   d="m 198.5,56.9 c -2.4,0 -7,-1.4 -9.9,-3.6 -3.6,-2.8 -6.2,-7.7 -6.3,-7.9 l -0.6,-1.2 1.3,-0.4 c 0.1,0 3,-1 10.7,-4.8 4.5,-2.2 6.2,-5 7.4,-7 0.9,-1.5 1.8,-2.9 3.4,-3.3 0.9,-0.2 1.8,0 2.4,0.7 2,2.2 1,8.7 -0.1,11.5 -5.6,15 -6.6,15.5 -7.1,15.7 -0.4,0.2 -0.7,0.3 -1.2,0.3 z m 0,-2 z m -13.7,-9.4 c 0.9,1.5 2.8,4.3 5,6.1 2.9,2.2 7.5,3.2 8.7,3.2 0.8,-1.2 3.3,-7.1 6.1,-14.5 1.2,-3.2 1.5,-8.2 0.5,-9.3 -0.1,-0.1 -0.1,-0.1 -0.2,0 -0.7,0.2 -1.2,0.9 -2,2.3 -1.3,2.1 -3.3,5.3 -8.3,7.9 -5.1,2.4 -8.2,3.7 -9.8,4.3 z"
   id="path47" />&#10;	</g>&#10;	<g
   id="g49">&#10;		<path
   class="st13"
   d="m 96.7,44.9 c 0,0 -2.5,4.8 -6,7.5 -3.5,2.7 -9,3.7 -9.9,3.3 -1,-0.4 -5.1,-11.2 -6.6,-15.1 -1.4,-3.9 -1.9,-11.6 1,-10.8 2.9,0.7 2.6,6.3 10.6,10.3 8,4 10.9,4.8 10.9,4.8 z"
   id="path48" />&#10;		<path
   d="m 81.6,56.9 c -0.5,0 -0.9,-0.1 -1.2,-0.2 C 79.9,56.5 78.9,56 73.3,41 72.2,38.1 71.2,31.6 73.2,29.5 c 0.6,-0.7 1.5,-0.9 2.4,-0.7 1.6,0.4 2.4,1.7 3.4,3.3 1.2,2 2.9,4.8 7.4,7 7.7,3.9 10.7,4.8 10.7,4.8 l 1.3,0.4 -0.6,1.2 c -0.1,0.2 -2.7,5.1 -6.3,7.9 -2.2,1.7 -4.9,2.6 -6.3,3 -0.6,0.1 -2.3,0.5 -3.6,0.5 z m -0.1,-2 z m -0.1,-0.2 c 1.2,0.1 5.8,-0.9 8.7,-3.2 2.3,-1.7 4.1,-4.5 5,-6.1 -1.6,-0.6 -4.6,-1.9 -9.8,-4.5 -5.1,-2.5 -7,-5.7 -8.3,-7.9 -0.9,-1.4 -1.3,-2.1 -2,-2.3 -0.1,0 -0.2,0 -0.2,0 -1,1.1 -0.7,6.1 0.5,9.3 2.8,7.6 5.3,13.6 6.1,14.7 z"
   id="path49" />&#10;	</g>&#10;</g><g
     id="g52">&#10;	<g
   id="g51">&#10;		<path
   class="st15"
   d="m 160.3,42.1 c 0,11.3 -9.1,20.4 -20.4,20.4 -11.3,0 -20.4,-9.1 -20.4,-20.4 0,-11.3 9.1,-20.4 20.4,-20.4 11.3,-0.1 20.4,9.1 20.4,20.4"
   id="path50" />&#10;		<path
   class="st13"
   d="m 149.6,50.5 -8.1,-19.6 c -0.2,-0.6 -0.7,-0.9 -1.3,-0.9 -0.6,0 -1.1,0.3 -1.3,0.9 L 130,52.3 h 3.1 l 3.5,-8.8 10.5,8.5 c 0.4,0.3 0.7,0.5 1.1,0.5 0.8,0 1.5,-0.6 1.5,-1.5 0.1,-0.1 0,-0.3 -0.1,-0.5 m -9.4,-16.1 5.3,13 -8,-6.3 z"
   id="path51" />&#10;	</g>&#10;	<path
   d="m 140,63.5 c -11.8,0 -21.4,-9.6 -21.4,-21.4 0,-11.8 9.6,-21.4 21.4,-21.4 11.8,0 21.4,9.6 21.4,21.4 0,11.8 -9.6,21.4 -21.4,21.4 z m 0,-40.6 c -10.6,0 -19.2,8.6 -19.2,19.2 0,10.6 8.6,19.2 19.2,19.2 10.6,0 19.2,-8.6 19.2,-19.2 0,-10.6 -8.6,-19.2 -19.2,-19.2 z"
   id="path52" />&#10;</g><g
     id="g54">&#10;	<path
   class="st16"
   d="m 147.4,215 c 0.5,0.1 1,0.2 1.5,0.3 4.7,-2.8 8.8,-3.5 11.6,-1.7 6.6,4.4 2.6,22 -9,39.5 -11.5,17.5 -26.2,28.1 -32.8,23.7 -2.4,-1.6 -3.4,-5.1 -3.1,-9.6 -0.4,-0.5 -0.7,-1 -1,-1.5 -2.3,9.4 -1.5,16.8 2.8,19.7 8.3,5.5 26.2,-7.2 40.2,-28.3 13.9,-21.1 18.5,-42.6 10.3,-48 -4.7,-3.2 -12.3,-0.6 -20.5,5.9 z"
   id="path53" />&#10;	<path
   d="m 163.2,207.7 c 1.7,0 3.3,0.4 4.6,1.3 8.3,5.5 3.7,27 -10.3,48 -11.7,17.8 -26.3,29.5 -35.6,29.5 -1.7,0 -3.3,-0.4 -4.6,-1.3 -4.4,-2.9 -5.1,-10.2 -2.8,-19.7 0.3,0.5 0.7,1 1,1.5 -0.3,4.6 0.7,8 3.1,9.6 1,0.7 2.2,1 3.5,1 7.5,0 19.5,-9.9 29.3,-24.7 11.5,-17.5 15.5,-35.1 9,-39.5 -1,-0.7 -2.2,-1 -3.5,-1 -2.3,0 -5.1,1 -8.1,2.7 -0.5,-0.1 -1,-0.2 -1.5,-0.3 6,-4.5 11.5,-7.1 15.9,-7.1 m 0,-2 c -4.8,0 -10.7,2.7 -17.1,7.7 l -3.6,2.8 4.5,0.7 c 0.4,0.1 0.9,0.2 1.4,0.3 l 0.8,0.2 0.7,-0.4 c 2.7,-1.6 5.2,-2.4 7,-2.4 1,0 1.8,0.2 2.4,0.6 4.9,3.2 2.1,19.1 -9.5,36.7 -10.3,15.6 -21.7,23.8 -27.6,23.8 -1,0 -1.8,-0.2 -2.4,-0.6 -1.7,-1.1 -2.5,-3.9 -2.2,-7.8 v -0.7 l -0.4,-0.6 c -0.3,-0.4 -0.7,-0.9 -1,-1.4 l -2.5,-3.9 -1.1,4.5 c -2.6,10.8 -1.3,18.5 3.7,21.8 1.6,1.1 3.5,1.6 5.7,1.6 10.3,0 25.2,-12.2 37.3,-30.4 6.9,-10.4 11.7,-21.2 13.7,-30.6 2.1,-9.9 0.7,-17.1 -4,-20.2 -1.8,-1.2 -3.7,-1.7 -5.8,-1.7 z"
   id="path54" />&#10;</g></g>&#10;</svg>
