<?xml version="1.0" encoding="UTF-8" standalone="no"?>
<svg
   width="213"
   height="157.81401"
   id="runner-logo"
   data-name="Layer 1"
   viewBox="0 0 368.99292 150.35429"
   version="1.1"
   sodipodi:docname="runner.svg"
   inkscape:version="1.3 (0e150ed6c4, 2023-07-21)"
   xmlns:inkscape="http://www.inkscape.org/namespaces/inkscape"
   xmlns:sodipodi="http://sodipodi.sourceforge.net/DTD/sodipodi-0.dtd"
   xmlns="http://www.w3.org/2000/svg"
   xmlns:svg="http://www.w3.org/2000/svg">
  <sodipodi:namedview
     id="namedview146"
     pagecolor="#ffffff"
     bordercolor="#111111"
     borderopacity="1"
     inkscape:showpageshadow="0"
     inkscape:pageopacity="0"
     inkscape:pagecheckerboard="1"
     inkscape:deskcolor="#d1d1d1"
     inkscape:zoom="6.2088354"
     inkscape:cx="119.66817"
     inkscape:cy="24.400711"
     inkscape:window-width="1920"
     inkscape:window-height="1043"
     inkscape:window-x="0"
     inkscape:window-y="0"
     inkscape:window-maximized="1"
     inkscape:current-layer="runner-logo" />
  <defs
     id="defs1">
    <style
       id="style1">.cls-1,.cls-6{fill:none;}.cls-2,.cls-8{fill:#4d8dcb;}.cls-2,.cls-3,.cls-40,.cls-41,.cls-6,.cls-7{stroke:#401f0f;}.cls-10,.cls-2,.cls-3,.cls-37,.cls-40,.cls-41,.cls-6,.cls-7,.cls-9{stroke-miterlimit:10;}.cls-2,.cls-3,.cls-40{stroke-width:1.56px;}.cls-3,.cls-41{fill:#f7eaa7;}.cls-4{fill:#fdbb49;}.cls-5{fill:#1969b3;}.cls-10,.cls-37,.cls-41,.cls-6,.cls-7,.cls-9{stroke-width:2.5px;}.cls-10,.cls-7{fill:#b6d8f1;}.cls-38,.cls-9{fill:#fdf6ef;}.cls-37,.cls-9{stroke:#3b1f13;}.cls-10{stroke:#4d8dcb;opacity:0.6;}.cls-11{clip-path:url(#clip-path);}.cls-12{fill:#323233;}.cls-13{fill:#565656;}.cls-14{fill:#080909;}.cls-15{fill:#010101;}.cls-16{fill:#010201;}.cls-17{fill:#030303;}.cls-18{fill:#bbb9b9;}.cls-19{fill:#b8b5b5;}.cls-20{fill:#c3c0c0;}.cls-21{fill:#fff;}.cls-22{fill:#080808;}.cls-23{fill:#232222;}.cls-24{fill:#282828;}.cls-25{fill:#484848;}.cls-26{fill:#393a3a;}.cls-27{fill:#969292;}.cls-28{fill:#928e8e;}.cls-29{fill:#dddedd;}.cls-30{fill:#fdfdfc;}.cls-31{fill:#4a4949;}.cls-32{fill:#fefefe;}.cls-33{fill:#fffffe;}.cls-34{fill:#fbfbfa;}.cls-35{fill:#fcfbfb;}.cls-36{fill:#faf9f9;}.cls-37{fill:#ef5d54;}.cls-39{fill:#f15b52;}.cls-40{fill:#401f0f;}.cls-42{fill:#441e0d;}</style>
    <clipPath
       id="clip-path"
       transform="translate(-2.6 -10.9)">
      <path
         class="cls-1"
         d="M 125.89,6.53 C 80.32,6.61 44.72,41.2 44.81,94.88 c 0,10 37,18 82.54,18 45.54,0 82.49,-8.23 82.48,-18.22 C 209.74,40.92 171.46,6.45 125.89,6.53 Z"
         id="path1" />
    </clipPath>
  </defs>
  <g
     id="g1"
     transform="matrix(1.4791666,0,0,1.4791666,0.17588336,17.076682)">
    <path
       class="cls-2"
       d="m 124.27963,63.736652 -104.859999,0.17 c 0,0 35.33,48.949998 104.999999,65.999998 69.61,-17.31 104.77,-66.369998 104.77,-66.369998 z"
       id="path2" />
    <path
       class="cls-3"
       d="m 145.56963,106.21665 c 0.06,6.84 -8.77,12.46 -19.73,12.56 -10.96,0.1 -19.89,-5.36 -20,-12.19 -0.11,-6.829998 8.77,-12.449998 19.74,-12.559998 10.97,-0.11 19.93,5.37 19.99,12.189998 z"
       id="path3" />
    <path
       class="cls-4"
       d="m 144.64963,106.17665 a 8.29,8.29 0 0 0 -1.89,-5 6.93,6.93 0 0 1 0.87,3.18 c 0,5.57 -7.14,10.15 -16.07,10.23 -8.93,0.08 -16.21,-4.37 -16.27,-9.94 -0.05,-4.849998 5.39,-8.939998 12.69,-9.999998 -9.66,0.61 -17.2,5.739998 -17.14,11.899998 0.07,6.51 8.58,11.7 19,11.61 10.42,-0.09 18.87,-5.47 18.81,-11.98 z"
       id="path4" />
    <path
       class="cls-5"
       d="m 124.58963,129.09665 c 0,0 32.73,-22.57 3.39,-48.789998 l 101.59,-16.07 c 0,0 -40.47,49.779998 -104.98,64.859998 z"
       id="path5" />
    <path
       class="cls-6"
       d="m 19.909631,63.536652 c 0,0 35.33,49.939998 104.999999,66.999998 69.61,-17.31 105.7,-67.999998 105.7,-67.999998"
       id="path6" />
    <path
       class="cls-7"
       d="m 248.22963,44.286652 c 0,19.42 -55.22,35.26 -123.41,35.37 -68.189999,0.11 -123.5199994,-15.56 -123.5499994,-34.95 -0.03,-19.39 55.2300004,-35.25 123.4299994,-35.37 68.2,-0.12 123.5,15.54 123.53,34.95 z"
       id="path7" />
    <path
       class="cls-1"
       d="m 245.33963,43.146652 c 0,18.52 -53.93,33.63 -120.53,33.74 -66.599999,0.11 -120.6099994,-14.79 -120.6499994,-33.34 -0.04,-18.55 53.9400004,-33.63 120.5399994,-33.74 66.6,-0.11 120.6,14.81 120.64,33.34 z"
       id="path8" />
    <path
       class="cls-8"
       d="m 124.92963,10.166652 c -34.469999,0.06 -65.769999,4.12 -87.999999,10.54 18.71,-3.61 41.49,-5.54 65.759999,-5.61 64.39,-0.1 116.63,14.55 116.66,32.74 0,12.71 -25.75,24.2 -63.07,29.76 52.18,-4 91,-17.27 91.18,-33.31 0.27,-18.74 -55.04,-34.19 -122.53,-34.12 z"
       id="path9" />
    <path
       class="cls-9"
       d="m 207.24963,36.316652 c 0,10 -36.92,18.15 -82.48,18.23 -45.559999,0.08 -82.519999,-8 -82.539999,-18 -0.02,-10 36.91,-18.15 82.479999,-18.22 45.57,-0.07 82.52,8.01 82.54,17.99 z"
       id="path10" />
    <path
       class="cls-8"
       d="m 196.65963,36.336652 c 0,7.72 -32.18,14 -71.9,14.1 -39.719999,0.1 -71.929999,-6.14 -71.939999,-13.86 -0.01,-7.72 32.18,-14 71.889999,-14.09 39.71,-0.09 71.94,6.14 71.95,13.85 z"
       id="path11" />
    <path
       class="cls-10"
       d="m 123.30963,-51.753348 c -45.569999,0.07 -81.169999,34.67 -81.079999,88.35 0,10 37,18 82.539999,18 45.54,0 82.49,-8.23 82.48,-18.23 -0.09,-53.73 -38.37,-88.2 -83.94,-88.12 z"
       id="path12" />
    <g
       class="cls-11"
       clip-path="url(#clip-path)"
       id="g124"
       transform="translate(0.01963065,-53.003348)">
      <path
         class="cls-12"
         d="m 100.87,71 a 4.31,4.31 0 0 0 0.39,-0.46 24.86,24.86 0 0 1 5.56,-5.88 0.79,0.79 0 0 0 0.33,-1 c -0.13,-0.46 -0.16,-1 -0.25,-1.44 -0.05,-0.22 0,-0.5 -0.23,-0.64 0,-0.26 0.18,-0.35 0.3,-0.49 0.4,-0.49 0.34,-0.89 -0.22,-1.19 a 5.09,5.09 0 0 0 -2.62,-0.46 14.7,14.7 0 0 0 -5.69,1.2 3.7,3.7 0 0 0 -1.36,0.91 c -0.4,0.46 -0.35,0.81 0.14,1.17 0.16,0.12 0.45,0.15 0.39,0.46 H 97.55 C 96.8,63.08 96,62.88 95.8,62 c -0.2,-0.88 0.4,-1.37 1,-1.81 a 12.5,12.5 0 0 1 6.88,-2.14 7.16,7.16 0 0 1 3.17,0.46 c 0.16,-0.76 0.26,-1.48 0.47,-2.18 0.15,-0.49 0.05,-0.66 -0.45,-0.63 a 1.05,1.05 0 0 1 -0.35,-0.08 c 0.29,-0.29 0.65,-0.17 1,-0.13 a 14.8,14.8 0 0 0 3.82,0.08 5.8,5.8 0 0 0 4.6,-4.61 6.91,6.91 0 0 0 0.08,-2.9 0.82,0.82 0 0 0 -0.78,-0.71 c -0.32,0 -0.64,-0.11 -1,-0.15 a 0.75,0.75 0 0 1 -0.64,-0.3 23.31,23.31 0 0 1 11.56,-4.71 c 0.28,0 0.51,0 0.49,-0.42 a 0.54,0.54 0 0 1 0.14,-0.27 3,3 0 0 1 4.35,-0.22 8.83,8.83 0 0 0 -1.28,0.07 1.68,1.68 0 0 0 -1.15,0.63 c 1,0.09 1.87,0.05 2.77,0.13 a 23.36,23.36 0 0 1 11.52,4.27 0.78,0.78 0 0 0 0.72,0.19 c 0,0.29 -0.24,0.28 -0.41,0.35 a 7.09,7.09 0 0 1 -2.08,0.44 0.91,0.91 0 0 0 -0.85,0.79 6.26,6.26 0 0 0 4,7.28 7,7 0 0 0 2.9,0.25 c 0.67,-0.07 1.35,-0.06 2,-0.18 a 0.68,0.68 0 0 1 0.69,0.14 c 0,1 0.47,1.83 0.47,2.75 a 13,13 0 0 1 9.24,1.39 4.21,4.21 0 0 1 1.27,1 1.26,1.26 0 0 1 -0.46,2.14 1.78,1.78 0 0 1 -0.87,0.27 c 0,-0.3 0.26,-0.34 0.42,-0.46 a 0.67,0.67 0 0 0 0.14,-1.13 3.45,3.45 0 0 0 -1.24,-0.87 14.81,14.81 0 0 0 -4.76,-1.19 11.82,11.82 0 0 0 -2.79,0.09 3,3 0 0 0 -0.59,0.15 c -0.91,0.35 -1,0.82 -0.33,1.52 0.11,0.11 0.26,0.2 0.22,0.4 -0.37,0.25 -0.14,0.68 -0.28,1 -0.53,1.22 0,1.94 1,2.69 a 21.34,21.34 0 0 1 4.67,5.13 1.46,1.46 0 0 0 0.57,0.53 50,50 0 0 1 12.95,8.83 c 0,0 0.07,0 0.14,0.07 a 12.19,12.19 0 0 1 1.39,-2.18 c 0.94,-1.13 1.64,-1.28 2.92,-0.56 0.68,0.39 1.33,0.86 2,1.27 1.54,0.92 2.19,0.79 3.31,-0.62 0.1,-0.13 0.22,-0.24 0.33,-0.36 a 1.36,1.36 0 0 0 0.6,0 h 0.16 a 0.69,0.69 0 0 1 0.33,0.19 15.55,15.55 0 0 1 -1.33,2.6 c -0.73,1.05 -1.31,1.19 -2.43,0.57 -0.55,-0.31 -1.06,-0.67 -1.62,-1 a 2.69,2.69 0 0 0 -3.82,1.74 c -0.08,0.31 0.15,0.4 0.28,0.55 a 36.33,36.33 0 0 1 6.76,11 30,30 0 0 1 2,13.09 32.18,32.18 0 0 1 -6.62,17.29 41.82,41.82 0 0 1 -10.23,9.72 c -0.23,0.13 -0.3,0 -0.3,-0.2 a 1.81,1.81 0 0 1 0.17,-0.59 24.72,24.72 0 0 0 1.55,-9 15.27,15.27 0 0 0 -1.78,-7.18 7.55,7.55 0 0 0 -5.68,-4.19 9.1,9.1 0 0 0 -6.18,1.49 19.65,19.65 0 0 0 -6.62,7.23 27.87,27.87 0 0 0 -2.22,5 7.37,7.37 0 0 1 -3,3.8 16.51,16.51 0 0 1 -6.82,2.56 22.1,22.1 0 0 1 -9.8,-0.59 14.08,14.08 0 0 1 -5.09,-2.58 6.77,6.77 0 0 1 -1.68,-2.15 c -0.69,-1.34 -1.28,-2.73 -1.91,-4.1 a 20.56,20.56 0 0 0 -7.57,-9.08 9,9 0 0 0 -6.35,-1.46 7.44,7.44 0 0 0 -5.36,3.9 14.62,14.62 0 0 0 -1.83,6.1 24.54,24.54 0 0 0 1.49,10.5 1.1,1.1 0 0 1 0.13,0.47 c 0,0.18 -0.07,0.33 -0.3,0.2 -8.07,-5.62 -14,-12.82 -16.2,-22.6 a 29.86,29.86 0 0 1 3,-21.15 c 3.65,-6.88 9.13,-12 15.71,-16 a 38,38 0 0 1 4.67,-2.49 c 0.06,0.21 -0.1,0.31 -0.21,0.44 -0.43,0.44 -0.73,1 -1.2,1.41 -0.25,0 -0.41,0.18 -0.36,0.47 a 0.62,0.62 0 0 1 -0.29,0.4 c -0.34,0 -0.35,0.26 -0.41,0.5 a 0.57,0.57 0 0 1 -0.08,0.13 0.59,0.59 0 0 0 -0.3,0.6 1.38,1.38 0 0 1 -0.41,0.62 c -0.35,0.12 -0.33,0.42 -0.34,0.71 a 6.41,6.41 0 0 1 -0.63,1.22 c -0.39,0.12 -0.34,0.43 -0.31,0.73 a 1.12,1.12 0 0 1 -0.18,0.48 c -0.43,0.16 -0.29,0.53 -0.3,0.84 a 1.76,1.76 0 0 1 -0.16,0.49 c -0.15,0.22 -0.51,0.38 -0.23,0.74 -0.18,1 -0.39,2 -0.6,3 -0.35,0.35 0,0.73 0,1.1 q 0,1.53 0,3.06 c 0,0.37 -0.31,0.75 0,1.11 0.21,1 0.43,2 0.61,3 -0.27,0.35 0.06,0.52 0.23,0.74 a 1.6,1.6 0 0 1 0.16,0.48 c 0,0.31 -0.15,0.68 0.29,0.84 a 1.1,1.1 0 0 1 0.19,0.48 c 0,0.3 -0.1,0.62 0.31,0.74 a 7,7 0 0 1 0.63,1.22 c 0,0.28 0,0.59 0.34,0.71 a 1.36,1.36 0 0 1 0.4,0.62 0.56,0.56 0 0 0 0.29,0.58 0.38,0.38 0 0 1 0.09,0.13 c 0.07,0.23 0.06,0.54 0.43,0.53 a 0.65,0.65 0 0 1 0.28,0.4 0.35,0.35 0 0 0 0.33,0.44 2.46,2.46 0 0 1 0.63,0.77 c 0,0.25 0,0.48 0.37,0.47 a 2.15,2.15 0 0 1 0.8,0.89 c 0.15,0.77 0.34,1 1.1,1.11 a 2.09,2.09 0 0 1 0.9,0.79 c 0,0.31 0.19,0.4 0.46,0.38 a 0.63,0.63 0 0 1 0.31,0.27 c 0.06,0.23 0.25,0.3 0.46,0.33 a 4.27,4.27 0 0 1 1,0.77 c 0,0.43 0.37,0.33 0.61,0.41 1,0.56 1.91,1.18 2.88,1.74 0.09,0.36 0.39,0.36 0.67,0.38 a 8.12,8.12 0 0 1 1.21,0.62 c 0.12,0.16 0.23,0.37 0.5,0.25 a 1,1 0 0 1 0.61,0.25 c 0.12,0.4 0.44,0.32 0.73,0.31 a 1,1 0 0 1 0.47,0.17 c 0.16,0.45 0.54,0.29 0.86,0.32 a 0.58,0.58 0 0 1 0.29,0.17 1.31,1.31 0 0 0 1.43,0.48 0.84,0.84 0 0 1 0.58,0.1 c 0.21,0.14 0.36,0.5 0.72,0.25 a 5.8,5.8 0 0 1 1.83,0.46 c 0.21,0.39 0.51,0.15 0.79,0.12 1,0.19 2,0.28 3,0.55 0.15,0.28 0,0.48 -0.19,0.65 a 7.42,7.42 0 0 0 -1.43,6.29 1,1 0 0 1 0,0.48 0.15,0.15 0 0 1 -0.21,0.1 l -0.13,-0.1 c 0,0.1 0.07,0.15 0.07,0.24 a 0.5,0.5 0 0 1 0,0.17 c -0.19,0.62 0.23,1.08 0.45,1.57 a 7.92,7.92 0 0 0 4,3.8 2.14,2.14 0 0 0 1.88,0.14 c 0.75,0 1.5,0 2.25,0 2.25,0.33 3.66,-1 5,-2.51 a 5.91,5.91 0 0 0 1.21,-2.07 c 0.09,-0.3 0.3,-0.59 0.1,-0.92 -0.06,-0.15 -0.18,-0.26 -0.21,-0.41 0.07,-0.75 0.16,-1.49 0.18,-2.24 a 7,7 0 0 0 -1.45,-4.38 c -0.16,-0.23 -0.46,-0.42 -0.35,-0.79 1,-0.29 2.09,-0.4 3.14,-0.59 0.27,0 0.57,0.34 0.78,-0.1 a 4.91,4.91 0 0 1 1.85,-0.47 c 0.36,0.29 0.5,-0.08 0.71,-0.24 a 0.67,0.67 0 0 1 0.58,-0.1 1.27,1.27 0 0 0 1.41,-0.49 0.44,0.44 0 0 1 0.29,-0.17 c 0.31,0 0.71,0.18 0.87,-0.3 a 0.84,0.84 0 0 1 0.47,-0.19 c 0.29,0 0.63,0.14 0.74,-0.3 a 0.7,0.7 0 0 1 0.61,-0.26 c 0.26,0.14 0.38,0 0.49,-0.23 a 3.42,3.42 0 0 1 1.2,-0.65 c 0.28,0 0.6,0 0.67,-0.36 a 31.35,31.35 0 0 1 2.89,-1.76 c 0.26,0 0.63,0.07 0.6,-0.4 a 2.17,2.17 0 0 1 1,-0.78 c 0.23,0 0.42,0 0.45,-0.32 a 0.44,0.44 0 0 1 0.3,-0.28 c 0.27,0 0.5,0 0.46,-0.36 a 1.37,1.37 0 0 1 0.91,-0.8 c 0.78,-0.1 1,-0.32 1.1,-1.1 a 1.41,1.41 0 0 1 0.8,-0.92 c 0.35,0 0.41,-0.16 0.36,-0.44 A 1.44,1.44 0 0 1 157,100 c 0.31,0 0.4,-0.17 0.35,-0.45 a 0.49,0.49 0 0 1 0.28,-0.4 c 0.34,0 0.4,-0.21 0.44,-0.47 a 0.42,0.42 0 0 1 0.09,-0.14 0.53,0.53 0 0 0 0.27,-0.61 1,1 0 0 1 0.4,-0.64 c 0.4,-0.09 0.35,-0.39 0.34,-0.68 a 3.33,3.33 0 0 1 0.66,-1.23 c 0.43,-0.11 0.32,-0.44 0.28,-0.74 a 0.6,0.6 0 0 1 0.19,-0.47 c 0.49,-0.15 0.31,-0.53 0.29,-0.86 a 0.78,0.78 0 0 1 0.17,-0.48 c 0.19,-0.2 0.54,-0.35 0.23,-0.71 a 18.16,18.16 0 0 1 0.61,-3 c 0.4,-0.33 0,-0.72 0.06,-1.08 q 0,-1.53 0,-3.06 c 0,-0.36 0.33,-0.74 -0.06,-1.09 a 4.11,4.11 0 0 1 -0.3,-2 c 0.31,-0.21 0.5,0 0.69,0.2 a 36.32,36.32 0 0 1 8.27,9.08 32.33,32.33 0 0 1 4.74,12.61 30.46,30.46 0 0 1 0.25,6.88 34.8,34.8 0 0 1 -1.09,6.25 c -0.15,0.57 -0.38,1.12 -0.58,1.67 a 7.44,7.44 0 0 1 -0.55,1.18 4.29,4.29 0 0 0 0.47,-1 35.56,35.56 0 0 0 2.68,-8.61 30.24,30.24 0 0 0 0.41,-6.51 32.56,32.56 0 0 0 -2.79,-11.51 35.06,35.06 0 0 0 -8.26,-11.33 36,36 0 0 0 -6,-4.49 1,1 0 0 0 -0.39,-0.17 c -0.46,-0.22 -0.53,-0.69 -0.71,-1.09 a 0.53,0.53 0 0 0 -0.26,-0.62 0.42,0.42 0 0 1 -0.09,-0.14 c -0.07,-0.24 -0.06,-0.54 -0.45,-0.49 a 0.49,0.49 0 0 1 -0.28,-0.39 c 0.08,-0.35 -0.14,-0.45 -0.42,-0.49 a 6.25,6.25 0 0 1 -0.87,-1 17,17 0 0 1 1.93,4.08 19.38,19.38 0 0 1 1,6.92 20.56,20.56 0 0 1 -1.85,7.66 24,24 0 0 1 -4.73,6.86 A 28.56,28.56 0 0 1 148,101 c -0.18,0.12 -0.36,0.28 -0.61,0.17 0,-0.48 0.35,-0.66 0.61,-0.92 a 15.18,15.18 0 0 0 4,-6.84 14.11,14.11 0 0 0 -2.83,-12.81 17.94,17.94 0 0 0 -4.5,-4.19 22.92,22.92 0 0 1 -4,-3.43 10.72,10.72 0 0 0 -6.46,-3.3 12.11,12.11 0 0 0 -5.31,0.54 2.08,2.08 0 0 1 -1.35,0 c -3.82,-1.15 -7.42,-0.81 -10.64,1.72 -0.94,0.74 -1.74,1.66 -2.63,2.47 a 19.23,19.23 0 0 1 -2.28,1.79 19.83,19.83 0 0 0 -6.11,6.32 13.87,13.87 0 0 0 -2,8 15,15 0 0 0 4.25,9.52 c 0.32,0.33 0.83,0.55 0.84,1.12 -0.28,0.13 -0.48,-0.06 -0.67,-0.19 -4.93,-3.39 -8.56,-7.77 -10.18,-13.61 a 19.38,19.38 0 0 1 1.18,-13.6 9.79,9.79 0 0 1 1.2,-2.2 c 0.15,-0.16 0.38,-0.27 0.36,-0.56 z"
         transform="translate(-2.6,-10.9)"
         id="path13" />
      <path
         class="cls-13"
         d="m 93.58,133.33 c 0.28,0 0.19,-0.18 0.13,-0.35 a 24.22,24.22 0 0 1 -1.57,-6.42 17.27,17.27 0 0 1 1.6,-10.2 7.74,7.74 0 0 1 5.8,-4.39 8.67,8.67 0 0 1 5.21,0.89 18.32,18.32 0 0 1 7,6.59 36.25,36.25 0 0 1 2.58,5 12.47,12.47 0 0 0 2.23,3.89 13.12,13.12 0 0 0 5.59,3.11 20.93,20.93 0 0 0 7.29,0.85 17.66,17.66 0 0 0 9.31,-2.88 7.42,7.42 0 0 0 2.92,-3.86 24.56,24.56 0 0 1 4.59,-8.41 14.44,14.44 0 0 1 6.91,-4.92 7.47,7.47 0 0 1 8,2 11.81,11.81 0 0 1 2.81,5.94 17.82,17.82 0 0 1 0.36,4.72 27.09,27.09 0 0 1 -1.65,7.9 c 0,0.14 -0.34,0.36 0.07,0.45 -0.52,0.46 -1.22,0.66 -1.68,1.2 a 11.86,11.86 0 0 1 -2.76,1.59 0.3,0.3 0 0 1 -0.3,-0.31 c 0.28,-0.94 0.68,-1.84 1,-2.75 a 1.56,1.56 0 0 0 0.25,-0.54 1.17,1.17 0 0 1 0.27,-0.53 24.91,24.91 0 0 0 1.48,-11.05 8.54,8.54 0 0 0 -1,-3.19 3.87,3.87 0 0 0 -4.72,-2 10.13,10.13 0 0 0 -4.31,2.69 29.7,29.7 0 0 0 -6.62,10.24 32.8,32.8 0 0 0 -2.37,12.7 c 0,2.24 -0.23,4.47 -0.36,6.71 -0.16,0.44 0.1,0.85 0.1,1.28 0,0.67 -0.18,1.33 -0.17,2 0,0.2 0,0.43 -0.3,0.46 -0.3,0.03 -0.37,-0.22 -0.41,-0.44 a 17.37,17.37 0 0 0 -0.77,-3.26 c -0.13,-0.36 -0.4,-0.67 -0.38,-1.08 a 8.35,8.35 0 0 0 -2,-3.05 12.79,12.79 0 0 0 -21,2.87 c -0.11,0.16 0,0.37 -0.16,0.53 a 1.69,1.69 0 0 0 -0.16,0.66 13,13 0 0 0 -0.75,3 c 0,0.08 0,0 0,0.06 0,0.06 -0.08,0.58 -0.44,0.54 -0.36,-0.04 -0.33,-0.32 -0.34,-0.57 0,-0.41 -0.11,-0.81 -0.11,-1.21 a 15.56,15.56 0 0 1 -0.09,-1.81 c 0.14,0 0.14,-0.13 0.13,-0.23 -0.41,-4.17 -0.11,-8.41 -0.91,-12.54 a 32.66,32.66 0 0 0 -7.89,-16.1 12.65,12.65 0 0 0 -3.76,-2.89 5.57,5.57 0 0 0 -2.53,-0.63 3.75,3.75 0 0 0 -3.3,2 9.34,9.34 0 0 0 -1.2,4.44 26.22,26.22 0 0 0 1.59,10 1.17,1.17 0 0 1 0.27,0.53 1.62,1.62 0 0 0 0.25,0.53 c 0.36,0.92 0.76,1.81 1,2.75 a 0.31,0.31 0 0 1 -0.3,0.32 11.25,11.25 0 0 1 -2.77,-1.59 C 94.8,134 94.1,133.79 93.58,133.33 Z"
         transform="translate(-2.6,-10.9)"
         id="path14" />
      <path
         class="cls-14"
         d="m 149,55.64 c -1.34,0 -2.66,0.25 -4,0.25 -2.36,0 -5.34,-2.19 -5.61,-4.43 A 7.94,7.94 0 0 1 139.3,47.8 c 0.1,-0.32 0.21,-0.46 0.53,-0.52 a 15.27,15.27 0 0 0 2.67,-0.56 c 0.09,0 0.19,0 0.24,-0.15 a 13.31,13.31 0 0 0 2.46,-1.34 4.11,4.11 0 0 0 1.52,-5.08 A 14.24,14.24 0 0 0 143,35 l -0.52,-0.51 c 0.06,-0.09 0.15,-0.18 0.24,-0.18 1.11,0 2.2,-0.45 3.32,-0.16 a 0.83,0.83 0 0 1 0.49,0.21 c 0.05,0.23 -0.13,0.25 -0.25,0.24 a 8.53,8.53 0 0 1 -1.53,-0.16 13,13 0 0 1 5,7.65 7.05,7.05 0 0 0 0.11,1 1.38,1.38 0 0 1 0,0.29 6,6 0 0 1 -1.93,4.07 1.11,1.11 0 0 1 -0.73,0.41 0.25,0.25 0 0 1 -0.2,-0.16 1.55,1.55 0 0 1 0.3,-0.84 1.9,1.9 0 0 0 0.18,-1.24 7.83,7.83 0 0 1 -4.2,2.8 c -0.38,0.14 -0.8,0.25 -0.83,0.77 a 5,5 0 0 0 1,2.76 1.85,1.85 0 0 0 1.91,0.68 27.38,27.38 0 0 0 6.11,-1.48 14,14 0 0 0 4.28,-2.42 5.52,5.52 0 0 0 1.93,-3.37 4.91,4.91 0 0 0 -0.34,-2.63 10.53,10.53 0 0 0 -1.76,-3.2 c -0.14,-0.17 -0.32,-0.33 -0.3,-0.58 a 0.38,0.38 0 0 1 0.51,-0.18 c 0.45,0.17 0.36,-0.16 0.41,-0.38 a 13.85,13.85 0 0 1 4.6,8.18 4.56,4.56 0 0 1 -1.24,3.94 13.56,13.56 0 0 1 -5.7,3.76 27.27,27.27 0 0 1 -4.86,1.37 z"
         transform="translate(-2.6,-10.9)"
         id="path15" />
      <path
         class="cls-14"
         d="m 113.62,46.93 2,0.37 c 0.22,0 0.39,0.09 0.44,0.34 a 6.93,6.93 0 0 1 -0.86,5.59 6,6 0 0 1 -4.83,2.65 32.78,32.78 0 0 1 -3.58,-0.26 h -0.3 C 103,55 99.68,54 96.91,51.6 l -0.5,-0.45 a 5.23,5.23 0 0 1 -1.6,-5.65 14.3,14.3 0 0 1 4.4,-7.1 c 0.15,0.19 0,0.31 -0.09,0.47 0.35,0 0.7,-0.27 1,0.08 0,0.3 -0.22,0.47 -0.38,0.68 a 10,10 0 0 0 -2,4.64 2.67,2.67 0 0 0 0,1.09 6.09,6.09 0 0 0 3.18,4.33 20.71,20.71 0 0 0 7.74,2.72 13.82,13.82 0 0 0 1.81,0.25 1.72,1.72 0 0 0 1.53,-0.74 5,5 0 0 0 1,-2.71 c 0,-0.4 -0.29,-0.55 -0.59,-0.69 -0.48,-0.21 -1,-0.36 -1.47,-0.57 a 6.44,6.44 0 0 1 -3,-2.32 1.78,1.78 0 0 0 0.17,1.22 1.94,1.94 0 0 1 0.31,0.85 0.25,0.25 0 0 1 -0.2,0.17 1.13,1.13 0 0 1 -0.77,-0.44 5.92,5.92 0 0 1 -1.89,-4 0.94,0.94 0 0 1 0,-0.29 7.18,7.18 0 0 0 0.1,-1 13,13 0 0 1 4.88,-7.58 6.18,6.18 0 0 0 -1,0.07 c -0.23,0 -0.53,0.16 -0.65,-0.21 a 3,3 0 0 1 2.11,-0.32 5.25,5.25 0 0 0 1.31,0.13 0.61,0.61 0 0 1 0.59,0.24 21.88,21.88 0 0 0 -3.31,3.81 8.14,8.14 0 0 0 -1.13,2.62 4,4 0 0 0 1.54,4.1 13.42,13.42 0 0 0 3.62,1.93 z"
         transform="translate(-2.6,-10.9)"
         id="path16" />
      <path
         class="cls-15"
         d="m 98.23,135.78 -1.08,-2.69 c -0.15,-0.14 0,-0.37 -0.19,-0.51 a 3.61,3.61 0 0 1 -0.07,-0.73 1.15,1.15 0 0 0 0,-0.19 c 0,-1.86 0.77,-2.51 2.61,-2.08 a 8.17,8.17 0 0 1 2.36,0.95 35.5,35.5 0 0 1 4.69,3.28 3,3 0 0 1 1,3.59 24.58,24.58 0 0 1 -2.28,4.7 0.55,0.55 0 0 1 -0.54,0.31 5.43,5.43 0 0 0 -0.55,0.06 c -0.38,0 -0.86,-0.07 -1.11,0.12 -0.25,0.19 0,0.69 -0.09,1 a 0.76,0.76 0 0 1 -0.09,0.28 12.34,12.34 0 0 1 -1.72,2.58 c -0.8,0.88 -1.13,0.87 -1.9,0 a 24.9,24.9 0 0 1 -2.21,-3.07 c -0.64,-1 -1.27,-2 -1.86,-3 a 9,9 0 0 1 -0.84,-5 0.89,0.89 0 0 1 0.89,-0.91 c 1,0.37 1.79,1 2.72,1.49 0.3,0.19 0.39,0.11 0.26,-0.18 z"
         transform="translate(-2.6,-10.9)"
         id="path17" />
      <path
         class="cls-15"
         d="m 158.43,136 c 0.93,-0.45 1.74,-1.12 2.72,-1.49 a 0.93,0.93 0 0 1 0.91,1 9.21,9.21 0 0 1 -1,5.17 53,53 0 0 1 -3.77,5.62 c -0.05,0.06 -0.1,0.13 -0.16,0.19 -0.72,0.81 -1,0.82 -1.78,0.05 a 12,12 0 0 1 -1.8,-2.67 2,2 0 0 1 -0.09,-1 c 0,-0.33 -0.1,-0.39 -0.41,-0.4 -1.75,-0.09 -1.75,-0.09 -2.58,-1.61 a 15.25,15.25 0 0 1 -1.72,-4.08 2.23,2.23 0 0 1 0.43,-2.23 19.21,19.21 0 0 1 7.65,-5 4,4 0 0 1 0.84,-0.15 1.53,1.53 0 0 1 1.83,1.6 c 0,0.29 0,0.57 0,0.86 a 3,3 0 0 1 -0.07,0.73 c -0.14,0.14 0,0.37 -0.19,0.51 l -1.07,2.69 q -0.17,0.42 0.26,0.21 z"
         transform="translate(-2.6,-10.9)"
         id="path18" />
      <path
         class="cls-15"
         d="m 139.72,147 a 9.48,9.48 0 0 1 1.21,3.66 c 0,0.23 0.08,0.48 0.11,0.72 0.03,0.24 0,0.32 0.2,0.31 0.2,-0.01 0.18,-0.2 0.17,-0.34 a 11.55,11.55 0 0 1 0.23,-2.11 0.49,0.49 0 0 1 0.13,-0.59 7.68,7.68 0 0 1 0.32,-0.79 1.27,1.27 0 0 1 2.17,-0.53 5.85,5.85 0 0 1 1.93,2.47 c 0.68,1.6 1.34,3.22 2,4.83 a 1.51,1.51 0 0 1 -1.33,2 7.56,7.56 0 0 1 -2.22,-0.34 1.14,1.14 0 0 0 -1.1,0.18 4.89,4.89 0 0 1 -6.33,-0.68 2.24,2.24 0 0 1 -0.57,-1.56 c 0.07,-1.64 0.06,-3.3 0.14,-4.94 a 3.54,3.54 0 0 1 1,-2.29 c 0.58,-0.6 1.15,-0.58 1.94,0 z"
         transform="translate(-2.6,-10.9)"
         id="path19" />
      <path
         class="cls-15"
         d="m 114.63,148 a 11.64,11.64 0 0 1 0.35,2.75 3.85,3.85 0 0 1 0,0.48 c 0,0.13 0.06,0.26 0.2,0.27 0.14,0.01 0.17,-0.14 0.19,-0.25 0.13,-0.63 0.2,-1.28 0.36,-1.9 0.16,-0.62 0.38,-1.06 0.58,-1.58 -0.06,-0.15 0.08,-0.24 0.09,-0.37 0.01,-0.13 0.21,-0.31 0.41,-0.36 1,-0.76 1.78,-0.63 2.42,0.46 a 4.07,4.07 0 0 1 0.65,2.12 c 0,1.47 0,2.94 0.12,4.4 a 2.56,2.56 0 0 1 -1,2.22 5,5 0 0 1 -5.9,0.18 1,1 0 0 0 -1,-0.17 8.35,8.35 0 0 1 -2.16,0.36 1.5,1.5 0 0 1 -1.43,-2.07 l 2,-4.77 a 6.13,6.13 0 0 1 1.79,-2.36 c 0.99,-0.85 1.78,-0.64 2.33,0.59 z"
         transform="translate(-2.6,-10.9)"
         id="path20" />
      <path
         class="cls-16"
         d="m 178.86,77.29 a 5.66,5.66 0 0 1 -1.78,-4.87 c 0.25,0.23 0.35,0.55 0.67,0.73 a 1.67,1.67 0 0 0 0.1,-0.91 5,5 0 0 1 0.85,-3 1.31,1.31 0 0 1 1.23,-0.62 c -0.12,0.35 -0.43,0.6 -0.36,1.07 a 16.43,16.43 0 0 0 3.16,-2 2.45,2.45 0 0 0 0.69,-1.33 c 0,-0.13 0,-0.34 0.16,-0.34 0.16,0 0.2,0.2 0.23,0.37 a 3.26,3.26 0 0 1 -0.36,2 c -0.07,0.13 -0.29,0.26 -0.11,0.41 0.18,0.15 0.3,0 0.42,-0.14 a 4.11,4.11 0 0 0 1.37,-2.57 c 0,-0.2 0,-0.41 0.06,-0.61 0.06,-0.2 0,-0.32 0.15,-0.35 0.15,-0.03 0.22,0.19 0.26,0.34 a 4.31,4.31 0 0 1 -0.71,3.48 9.41,9.41 0 0 1 -1.46,1.64 3.67,3.67 0 0 0 1.67,-0.88 1.18,1.18 0 0 1 -0.46,1.09 4.85,4.85 0 0 1 -1.6,1 3.3,3.3 0 0 0 -1.66,1.86 0.63,0.63 0 0 0 0,0.41 c 0,0.2 0.16,0.44 0.38,0.42 0.22,-0.02 0.31,-0.24 0.29,-0.47 v -0.4 a 1,1 0 0 1 0.35,1 5.56,5.56 0 0 1 -1.82,2.94 0.56,0.56 0 0 1 -0.45,0.12 0.86,0.86 0 0 1 -0.63,0 v 0 c -0.24,-0.12 -0.5,-0.09 -0.64,-0.39 z"
         transform="translate(-2.6,-10.9)"
         id="path21" />
      <path
         class="cls-15"
         d="m 97.61,63.24 c -0.12,-0.22 -0.36,-0.25 -0.55,-0.36 a 0.79,0.79 0 0 1 -0.21,-1.28 5.05,5.05 0 0 1 2.22,-1.33 17.24,17.24 0 0 1 4.21,-0.88 11.11,11.11 0 0 1 2.89,0.17 c 0.88,0.13 1.33,0.62 1.23,1.22 -0.07,0.43 -0.49,0.57 -0.73,0.86 a 9.94,9.94 0 0 1 -4,1.51 12.82,12.82 0 0 1 -4.78,0.18 1.31,1.31 0 0 1 -0.28,-0.09 z"
         transform="translate(-2.6,-10.9)"
         id="path22" />
      <path
         class="cls-15"
         d="m 149.74,61.73 a 0.38,0.38 0 0 0 -0.11,-0.14 c -0.45,-0.27 -0.87,-0.58 -0.73,-1.19 0.14,-0.61 0.71,-0.71 1.17,-0.83 a 11.29,11.29 0 0 1 4.63,0 11.8,11.8 0 0 1 4,1.37 3,3 0 0 1 0.82,0.73 0.8,0.8 0 0 1 -0.23,1.16 c -0.2,0.13 -0.46,0.16 -0.62,0.37 a 9.18,9.18 0 0 1 -3.87,0.12 13.6,13.6 0 0 1 -4.38,-1.21 C 150.19,62 150,61.86 149.74,61.73 Z"
         transform="translate(-2.6,-10.9)"
         id="path23" />
      <path
         class="cls-17"
         d="m 112.92,34.47 c -1.27,0.07 -2.51,-0.5 -3.78,-0.13 a 2.21,2.21 0 0 0 -0.27,0.12 c -0.08,0.24 -0.3,0.24 -0.49,0.3 a 21,21 0 0 0 -7.63,3.83 c -0.19,0.15 -0.36,0.34 -0.64,0.3 a 3.73,3.73 0 0 0 -1.32,0.24 c 0,-0.34 0.43,-0.43 0.42,-0.73 a 24.49,24.49 0 0 1 9,-4.31 58.94,58.94 0 0 1 5.84,-1.09 c 0.11,0 0.24,-0.07 0.37,0.07 -0.52,0.46 -0.87,1.07 -1.5,1.4 z"
         transform="translate(-2.6,-10.9)"
         id="path24" />
      <path
         class="cls-17"
         d="m 156.23,38.4 c 0,0.27 0.31,0.36 0.34,0.67 a 5.54,5.54 0 0 0 -1.24,-0.18 c -0.26,0 -0.42,-0.12 -0.6,-0.26 A 20.82,20.82 0 0 0 147,34.74 c -0.18,0 -0.37,-0.07 -0.44,-0.28 a 3.45,3.45 0 0 0 -2.51,-0.05 c -0.49,0.2 -1,-0.16 -1.54,0.06 -0.64,-0.32 -0.95,-1 -1.46,-1.48 1,0.13 1.92,0.22 2.86,0.39 a 33.06,33.06 0 0 1 6.77,1.83 23.94,23.94 0 0 1 5.55,3.19 z"
         transform="translate(-2.6,-10.9)"
         id="path25" />
      <path
         class="cls-12"
         d="m 178.86,77.29 a 1.86,1.86 0 0 1 0.62,0.37 c -0.26,0 -0.57,0.28 -0.74,-0.14 z"
         transform="translate(-2.6,-10.9)"
         id="path26" />
      <path
         class="cls-18"
         d="m 141.77,148.62 -0.13,0.59 a 1.59,1.59 0 0 1 0,-1.21 c 0.1,0.19 -0.06,0.44 0.13,0.62 z"
         transform="translate(-2.6,-10.9)"
         id="path27" />
      <path
         class="cls-19"
         d="m 96.89,131.85 a 1.29,1.29 0 0 1 0.12,0.75 c 0,0.05 -0.08,0.05 -0.11,0 -0.03,-0.05 -0.19,-0.38 -0.14,-0.6 z"
         transform="translate(-2.6,-10.9)"
         id="path28" />
      <path
         class="cls-19"
         d="m 159.4,132.6 a 1.29,1.29 0 0 1 0.12,-0.75 l 0.13,0.14 c 0,0.22 -0.09,0.4 -0.14,0.6 -0.03,0.05 -0.07,0.06 -0.11,0.01 z"
         transform="translate(-2.6,-10.9)"
         id="path29" />
      <path
         class="cls-12"
         d="m 100.87,71 c 0.22,0.27 0,0.38 -0.19,0.51 a 0.15,0.15 0 0 1 -0.13,-0.13 l 0.24,-0.35 A 0.06,0.06 0 0 1 100.87,71 Z"
         transform="translate(-2.6,-10.9)"
         id="path30" />
      <path
         class="cls-20"
         d="m 116.83,147 -0.36,0.42 a 0.14,0.14 0 0 1 0,-0.19 l 0.26,-0.48 c -0.01,0.14 -0.01,0.25 0.1,0.25 z"
         transform="translate(-2.6,-10.9)"
         id="path31" />
      <path
         class="cls-12"
         d="m 179.48,77.66 h 0.63 c -0.05,0.14 -0.18,0.09 -0.28,0.11 -0.1,0.02 -0.27,0.03 -0.35,-0.11 z"
         transform="translate(-2.6,-10.9)"
         id="path32" />
      <path
         class="cls-13"
         d="m 109,101.16 a 34,34 0 0 1 -2.53,-3 14.39,14.39 0 0 1 0.26,-17.2 20.18,20.18 0 0 1 5.41,-5 24.49,24.49 0 0 0 3.75,-3.29 10.88,10.88 0 0 1 4.11,-2.62 11.3,11.3 0 0 1 6.31,-0.3 5.74,5.74 0 0 1 1.57,0.44 0.88,0.88 0 0 0 0.71,0 11.73,11.73 0 0 1 8,0 9.34,9.34 0 0 1 3.54,2.21 49.9,49.9 0 0 0 5.63,4.74 16.47,16.47 0 0 1 6.52,9.66 14.11,14.11 0 0 1 -1.72,10.44 16.45,16.45 0 0 1 -2.88,3.62 3.72,3.72 0 0 0 -0.3,0.37 c 0,0.3 -0.23,0.41 -0.41,0.57 a 26.53,26.53 0 0 1 -12,5.82 30.41,30.41 0 0 1 -8,0.73 c -6.4,-0.3 -12.27,-2.08 -17.3,-6.2 -0.18,-0.33 -0.61,-0.5 -0.67,-0.99 z"
         transform="translate(-2.6,-10.9)"
         id="path33" />
      <path
         class="cls-15"
         d="m 109,101.16 a 26.88,26.88 0 0 0 13.83,6.5 31.35,31.35 0 0 0 6.56,0.45 28.66,28.66 0 0 0 16.52,-5.66 c 0.53,-0.4 1,-0.86 1.54,-1.29 a 18.65,18.65 0 0 0 3.37,-2.48 23.48,23.48 0 0 0 5,-6 21,21 0 0 0 2.73,-7.38 18.82,18.82 0 0 0 0.24,-3.82 20.5,20.5 0 0 0 -2.58,-9.11 5.58,5.58 0 0 1 -0.49,-0.77 c 0,-0.07 0,-0.14 -0.11,-0.34 a 20.55,20.55 0 0 1 1.47,1.62 c 0.23,0.08 0.29,0.29 0.37,0.49 l 0.24,0.36 c 0.32,0.08 0.35,0.39 0.49,0.62 v 0 a 1.14,1.14 0 0 1 0.37,0.61 4.77,4.77 0 0 0 0.6,1.11 c 0.26,0 0.33,0.27 0.43,0.47 a 24.74,24.74 0 0 1 1.82,4.79 0.52,0.52 0 0 1 0,0.47 l 0.35,2.09 c 0.29,0.25 -0.06,0.59 0.13,0.86 v 3.42 c -0.19,0.26 0.16,0.6 -0.13,0.86 l -0.61,3.18 c 0.07,0.26 -0.12,0.42 -0.24,0.61 a 0.84,0.84 0 0 0 -0.13,0.49 c -0.13,0.28 0,0.68 -0.36,0.86 a 0.81,0.81 0 0 0 -0.13,0.48 c -0.09,0.26 -0.1,0.56 -0.36,0.74 l -0.61,1.22 c -0.1,0.26 -0.11,0.56 -0.38,0.74 a 1.19,1.19 0 0 0 -0.36,0.61 1.18,1.18 0 0 1 -0.37,0.61 v 0 c -0.14,0.22 -0.17,0.53 -0.49,0.61 l -0.24,0.37 c -0.08,0.2 -0.14,0.4 -0.37,0.49 a 3.88,3.88 0 0 0 -0.61,0.73 c -0.05,0.22 -0.12,0.43 -0.37,0.49 -0.29,0.25 -0.63,0.44 -0.73,0.85 a 3.3,3.3 0 0 1 -1.23,1.23 c -0.41,0.1 -0.61,0.44 -0.85,0.73 -0.07,0.26 -0.27,0.32 -0.49,0.38 a 0.4,0.4 0 0 0 -0.25,0.24 c -0.08,0.23 -0.28,0.3 -0.48,0.37 l -1,0.73 c -0.08,0.32 -0.4,0.35 -0.62,0.49 l -2.93,1.72 c -0.1,0.3 -0.4,0.25 -0.61,0.36 l -1.23,0.61 a 0.55,0.55 0 0 1 -0.49,0.24 l -0.61,0.25 c -0.18,0.26 -0.47,0.28 -0.74,0.37 l -0.48,0.13 c -0.18,0.38 -0.58,0.23 -0.86,0.36 a 0.27,0.27 0 0 0 -0.25,0.11 2.54,2.54 0 0 1 -1.46,0.5 l -0.61,0.13 c -0.19,0.11 -0.35,0.3 -0.62,0.23 l -2,0.5 c -0.17,0.21 -0.41,0.06 -0.62,0.12 -0.78,0.13 -1.58,0.24 -2.36,0.41 -0.32,0.07 -0.64,0 -1,0.09 -0.36,0.09 -0.44,-0.19 -0.62,-0.34 a 8,8 0 0 0 -4.48,-1.92 7.39,7.39 0 0 0 -5,1.6 c -0.34,0.24 -0.6,0.61 -1.07,0.65 a 17.87,17.87 0 0 1 -3.17,-0.49 c -0.2,-0.06 -0.45,0.09 -0.62,-0.12 l -2,-0.5 c -0.26,0.07 -0.43,-0.12 -0.62,-0.23 l -0.61,-0.13 a 2.62,2.62 0 0 1 -1.47,-0.49 l -0.24,-0.12 c -0.28,-0.13 -0.68,0 -0.86,-0.36 a 0.91,0.91 0 0 1 -0.48,-0.13 c -0.26,-0.09 -0.56,-0.11 -0.74,-0.37 l -0.61,-0.25 a 0.57,0.57 0 0 1 -0.49,-0.23 4,4 0 0 1 -1.23,-0.62 c -0.21,-0.1 -0.51,-0.07 -0.61,-0.36 a 18.28,18.28 0 0 1 -2.93,-1.72 c -0.22,-0.14 -0.53,-0.17 -0.62,-0.48 a 3.78,3.78 0 0 1 -1,-0.74 0.71,0.71 0 0 1 -0.49,-0.37 l -0.25,-0.24 c -0.21,-0.06 -0.41,-0.13 -0.48,-0.37 l -0.85,-0.74 a 3.3,3.3 0 0 1 -1.23,-1.23 l -0.73,-0.85 c -0.25,-0.06 -0.32,-0.27 -0.37,-0.48 -0.31,-0.16 -0.41,-0.49 -0.61,-0.74 -0.23,-0.09 -0.29,-0.29 -0.37,-0.49 L 98.5,99.18 C 98.19,99.1 98.16,98.79 98.02,98.57 v 0 A 1.25,1.25 0 0 1 97.65,97.96 L 97.28,97.35 C 97.03,97.17 97.01,96.88 96.91,96.62 A 4.16,4.16 0 0 1 96.3,95.39 C 96.04,95.21 96.03,94.91 95.94,94.65 A 0.83,0.83 0 0 1 95.81,94.17 C 95.43,93.99 95.58,93.59 95.45,93.31 A 0.84,0.84 0 0 1 95.32,92.82 C 95.2,92.63 95.02,92.47 95.08,92.21 A 18.21,18.21 0 0 1 94.68,89 c -0.29,-0.26 0.07,-0.6 -0.12,-0.86 v -3.38 c 0.19,-0.27 -0.17,-0.61 0.12,-0.86 a 18,18 0 0 1 0.61,-3.18 c -0.06,-0.26 0.12,-0.43 0.24,-0.61 a 0.84,0.84 0 0 1 0.13,-0.49 c 0.13,-0.28 0,-0.68 0.36,-0.86 a 0.84,0.84 0 0 1 0.13,-0.49 c 0.09,-0.26 0.1,-0.56 0.36,-0.73 a 4.16,4.16 0 0 1 0.61,-1.23 c 0.1,-0.26 0.12,-0.56 0.37,-0.73 l 0.37,-0.61 a 1.2,1.2 0 0 1 0.37,-0.61 v 0 c 0.14,-0.22 0.17,-0.53 0.48,-0.62 l 0.25,-0.37 c 0.08,-0.19 0.14,-0.4 0.36,-0.49 a 7.5,7.5 0 0 1 1.23,-1.47 l 0.13,0.13 a 21.07,21.07 0 0 0 -2.68,6.88 19.21,19.21 0 0 0 -0.36,4.72 20.19,20.19 0 0 0 1.79,7.28 23.55,23.55 0 0 0 4.25,6.35 26,26 0 0 0 5.32,4.39 z"
         transform="translate(-2.6,-10.9)"
         id="path34" />
      <path
         class="cls-21"
         d="m 122.57,112.41 a 17.26,17.26 0 0 1 1.45,-1.1 7.2,7.2 0 0 1 4.72,-1.29 8,8 0 0 1 4.59,2.08 l 0.37,0.32 a 7.46,7.46 0 0 1 1.91,3.88 9.34,9.34 0 0 1 -0.18,3.57 3.41,3.41 0 0 1 -0.67,1.79 c -0.12,0.21 -0.28,0.4 -0.41,0.6 l -0.1,0.14 a 4.8,4.8 0 0 0 -0.59,0.68 0.77,0.77 0 0 1 -0.18,0.18 4.93,4.93 0 0 0 -0.65,0.56 7.59,7.59 0 0 1 -5.12,1.59 7.33,7.33 0 0 1 -4.63,-2 4.92,4.92 0 0 1 -1.6,-1.79 c -0.12,-0.41 -0.36,-0.77 -0.5,-1.17 -0.07,-0.2 -0.23,-0.39 -0.11,-0.63 a 8.29,8.29 0 0 1 0.47,-5.59 c 0.33,-0.63 0.84,-1.18 1.23,-1.82 z"
         transform="translate(-2.6,-10.9)"
         id="path35" />
      <path
         class="cls-13"
         d="m 161.38,81.81 a 26.6,26.6 0 0 0 -2.23,-5.73 c 0.16,-0.22 0.27,0 0.4,0 a 36.8,36.8 0 0 1 8.56,7 33.17,33.17 0 0 1 8.15,16.17 28.7,28.7 0 0 1 0.51,7.34 31.69,31.69 0 0 1 -2.91,11.62 c -0.1,0.2 -0.17,0.41 -0.26,0.62 -0.23,0 -0.19,-0.11 -0.12,-0.24 a 30.86,30.86 0 0 0 1.62,-12.53 31.79,31.79 0 0 0 -1.74,-8.31 33,33 0 0 0 -5.57,-9.88 39.46,39.46 0 0 0 -6.09,-6 2.39,2.39 0 0 0 -0.32,-0.06 z"
         transform="translate(-2.6,-10.9)"
         id="path36" />
      <path
         class="cls-15"
         d="m 137.15,61.88 a 7.65,7.65 0 0 1 -1.23,4.51 c -0.95,1.38 -2.35,1.34 -3,-0.18 a 7.79,7.79 0 0 1 0.64,-7.73 c 0.84,-1.31 2.2,-1.16 2.93,0.22 a 6.1,6.1 0 0 1 0.66,3.18 z"
         transform="translate(-2.6,-10.9)"
         id="path37" />
      <path
         class="cls-15"
         d="m 119.4,61.77 a 5.61,5.61 0 0 1 0.65,-3 c 0.75,-1.44 2.06,-1.52 3,-0.18 a 6.82,6.82 0 0 1 1.22,3.41 7.35,7.35 0 0 1 -0.63,4.22 c -0.77,1.43 -2.06,1.52 -3,0.18 a 7.76,7.76 0 0 1 -1.24,-4.63 z"
         transform="translate(-2.6,-10.9)"
         id="path38" />
      <path
         class="cls-22"
         d="m 133.45,123.13 0.09,-0.09 a 2.82,2.82 0 0 0 0.65,-0.73 v 0 c 0.11,-0.09 0.16,-0.28 0.35,-0.23 0.19,0.05 0.11,0.15 0.1,0.25 a 6.87,6.87 0 0 1 -4.81,3.42 0.93,0.93 0 0 0 -0.4,0.12 h -2.57 a 8.13,8.13 0 0 1 -5.4,-3.6 0.89,0.89 0 0 1 -0.22,-0.56 c 0.06,-0.23 0.14,-0.38 0.36,-0.12 a 7.67,7.67 0 0 0 10.63,2.46 l 0.61,-0.39 a 2.2,2.2 0 0 0 0.61,-0.53 z"
         transform="translate(-2.6,-10.9)"
         id="path39" />
      <path
         class="cls-12"
         d="m 121.35,121.71 a 7.84,7.84 0 0 0 4.92,3.89 c 0.21,0.07 0.44,0.08 0.59,0.27 -0.62,0.43 -1.22,0.09 -1.74,-0.16 a 9.56,9.56 0 0 1 -3,-2 7.33,7.33 0 0 1 -1.43,-2.4 2.78,2.78 0 0 0 -0.24,-0.49 c -0.17,-0.27 -0.17,-0.49 0.13,-0.66 0.58,0.35 0.55,1.01 0.77,1.55 z"
         transform="translate(-2.6,-10.9)"
         id="path40" />
      <path
         class="cls-12"
         d="m 129.43,125.87 c 0.19,-0.26 0.5,-0.24 0.76,-0.31 a 7.78,7.78 0 0 0 4.38,-3.24 c 0.26,-0.7 0.64,-1.35 0.87,-2.06 0,-0.1 0.1,-0.18 0.23,-0.14 0.13,0.04 0.25,0.23 0.15,0.43 a 9.11,9.11 0 0 1 -1,2.08 8.69,8.69 0 0 1 -1.84,2 c -0.67,0.41 -1.37,0.78 -2.05,1.17 -0.47,0.32 -0.99,0.1 -1.5,0.07 z"
         transform="translate(-2.6,-10.9)"
         id="path41" />
      <path
         class="cls-23"
         d="m 135.67,120.12 a 8.25,8.25 0 0 1 -1.1,2.2 c -0.13,-0.38 -0.26,0.06 -0.38,0 a 11.67,11.67 0 0 0 1.24,-2.44 0.23,0.23 0 0 1 0.24,0.24 z"
         transform="translate(-2.6,-10.9)"
         id="path42" />
      <path
         class="cls-24"
         d="m 121.35,121.71 c -0.42,-0.45 -0.41,-1.1 -0.73,-1.59 V 120 c -0.08,-0.14 -0.09,-0.25 0.12,-0.24 l 0.13,0.11 0.73,1.72 c -0.13,-0.06 -0.25,-0.1 -0.25,0.12 z"
         transform="translate(-2.6,-10.9)"
         id="path43" />
      <path
         class="cls-12"
         d="m 101,102.12 a 8,8 0 0 1 1.23,1.23 1.1,1.1 0 0 1 -1.23,-1.23 z"
         transform="translate(-2.6,-10.9)"
         id="path44" />
      <path
         class="cls-12"
         d="m 154.14,103.35 a 8,8 0 0 1 1.23,-1.23 1.1,1.1 0 0 1 -1.23,1.23 z"
         transform="translate(-2.6,-10.9)"
         id="path45" />
      <path
         class="cls-12"
         d="m 140.81,110.94 a 4.52,4.52 0 0 1 1.46,-0.5 c -0.27,0.56 -1.15,0.84 -1.46,0.5 z"
         transform="translate(-2.6,-10.9)"
         id="path46" />
      <path
         class="cls-12"
         d="m 114.13,110.45 a 4.47,4.47 0 0 1 1.47,0.49 c 0,0.06 0,0.18 -0.1,0.19 a 1.73,1.73 0 0 1 -1.37,-0.68 z"
         transform="translate(-2.6,-10.9)"
         id="path47" />
      <path
         class="cls-25"
         d="m 173.48,118.65 c 0,0.1 0,0.19 0.12,0.24 l -0.51,1 h -0.11 z"
         transform="translate(-2.6,-10.9)"
         id="path48" />
      <path
         class="cls-12"
         d="m 142.52,110.33 c 0.25,-0.22 0.59,-0.21 0.86,-0.36 0,0.79 -0.54,0.31 -0.86,0.36 z"
         transform="translate(-2.6,-10.9)"
         id="path49" />
      <path
         class="cls-12"
         d="m 96.51,77.54 a 1.33,1.33 0 0 1 -0.36,0.73 c -0.09,-0.34 -0.29,-0.75 0.36,-0.73 z"
         transform="translate(-2.6,-10.9)"
         id="path50" />
      <path
         class="cls-12"
         d="m 95.66,93.32 c 0.21,0.24 0.21,0.58 0.36,0.86 -0.79,-0.01 -0.31,-0.55 -0.36,-0.86 z"
         transform="translate(-2.6,-10.9)"
         id="path51" />
      <path
         class="cls-12"
         d="m 160.39,94.18 c 0.16,-0.28 0.15,-0.62 0.36,-0.86 -0.05,0.31 0.43,0.85 -0.36,0.86 z"
         transform="translate(-2.6,-10.9)"
         id="path52" />
      <path
         class="cls-12"
         d="m 96.15,94.66 a 1.39,1.39 0 0 1 0.36,0.74 C 95.86,95.42 96.06,95 96.15,94.66 Z"
         transform="translate(-2.6,-10.9)"
         id="path53" />
      <path
         class="cls-12"
         d="m 159.9,95.4 a 1.47,1.47 0 0 1 0.36,-0.74 c 0.09,0.34 0.29,0.76 -0.36,0.74 z"
         transform="translate(-2.6,-10.9)"
         id="path54" />
      <path
         class="cls-12"
         d="m 96,78.76 c -0.15,0.27 -0.15,0.61 -0.36,0.86 0.07,-0.32 -0.41,-0.86 0.36,-0.86 z"
         transform="translate(-2.6,-10.9)"
         id="path55" />
      <path
         class="cls-12"
         d="m 113,110 c 0.27,0.15 0.61,0.14 0.86,0.36 -0.29,-0.08 -0.86,0.4 -0.86,-0.36 z"
         transform="translate(-2.6,-10.9)"
         id="path56" />
      <path
         class="cls-12"
         d="m 143.86,109.84 a 1.41,1.41 0 0 1 0.74,-0.37 c 0.02,0.66 -0.39,0.45 -0.74,0.37 z"
         transform="translate(-2.6,-10.9)"
         id="path57" />
      <path
         class="cls-12"
         d="m 111.81,109.47 a 1.41,1.41 0 0 1 0.74,0.37 c -0.35,0.08 -0.76,0.29 -0.74,-0.37 z"
         transform="translate(-2.6,-10.9)"
         id="path58" />
      <path
         class="cls-12"
         d="m 98.71,73.74 c -0.15,0.21 -0.24,0.48 -0.48,0.62 C 98.32,74.1 98,73.5 98.71,73.74 Z"
         transform="translate(-2.6,-10.9)"
         id="path59" />
      <path
         class="cls-12"
         d="m 158.18,74.36 c -0.24,-0.14 -0.32,-0.41 -0.49,-0.62 0.74,-0.25 0.4,0.35 0.49,0.62 z"
         transform="translate(-2.6,-10.9)"
         id="path60" />
      <path
         class="cls-12"
         d="m 97.12,96.63 a 1.28,1.28 0 0 1 0.37,0.73 C 97,97.32 97,97 97.12,96.63 Z"
         transform="translate(-2.6,-10.9)"
         id="path61" />
      <path
         class="cls-12"
         d="m 158.91,97.36 a 1.5,1.5 0 0 1 0.38,-0.74 c 0.13,0.38 0.17,0.71 -0.38,0.74 z"
         transform="translate(-2.6,-10.9)"
         id="path62" />
      <path
         class="cls-12"
         d="m 97.49,75.58 a 1.28,1.28 0 0 1 -0.37,0.73 C 97,75.93 97,75.62 97.49,75.58 Z"
         transform="translate(-2.6,-10.9)"
         id="path63" />
      <path
         class="cls-12"
         d="m 98.23,98.58 c 0.24,0.14 0.33,0.41 0.48,0.61 -0.71,0.25 -0.39,-0.35 -0.48,-0.61 z"
         transform="translate(-2.6,-10.9)"
         id="path64" />
      <path
         class="cls-12"
         d="m 157.69,99.19 c 0.17,-0.2 0.24,-0.47 0.49,-0.61 -0.09,0.26 0.25,0.87 -0.49,0.61 z"
         transform="translate(-2.6,-10.9)"
         id="path65" />
      <path
         class="cls-12"
         d="m 150.47,106.29 c 0.14,-0.25 0.41,-0.33 0.62,-0.49 0.25,0.74 -0.36,0.4 -0.62,0.49 z"
         transform="translate(-2.6,-10.9)"
         id="path66" />
      <path
         class="cls-12"
         d="m 105.32,105.81 c 0.21,0.15 0.48,0.24 0.62,0.48 -0.26,-0.1 -0.86,0.26 -0.62,-0.48 z"
         transform="translate(-2.6,-10.9)"
         id="path67" />
      <path
         class="cls-12"
         d="m 95.53,80.11 a 1.28,1.28 0 0 1 -0.24,0.61 C 94.94,80.45 95,80.42 95.53,80.11 Z"
         transform="translate(-2.6,-10.9)"
         id="path68" />
      <path
         class="cls-12"
         d="m 95.29,92.22 a 1.21,1.21 0 0 1 0.24,0.61 C 95,92.52 94.94,92.49 95.29,92.22 Z"
         transform="translate(-2.6,-10.9)"
         id="path69" />
      <path
         class="cls-12"
         d="m 160.88,92.83 a 1.21,1.21 0 0 1 0.24,-0.61 c 0.35,0.27 0.34,0.3 -0.24,0.61 z"
         transform="translate(-2.6,-10.9)"
         id="path70" />
      <path
         class="cls-12"
         d="m 139.58,111.3 a 1.18,1.18 0 0 1 0.62,-0.23 c -0.32,0.58 -0.35,0.59 -0.62,0.23 z"
         transform="translate(-2.6,-10.9)"
         id="path71" />
      <path
         class="cls-12"
         d="m 116.21,111.07 a 1.18,1.18 0 0 1 0.62,0.23 c -0.27,0.36 -0.3,0.35 -0.62,-0.23 z"
         transform="translate(-2.6,-10.9)"
         id="path72" />
      <path
         class="cls-12"
         d="m 145.21,109.22 a 0.72,0.72 0 0 1 0.49,-0.24 0.36,0.36 0 0 1 -0.28,0.44 c -0.16,0.05 -0.19,-0.08 -0.21,-0.2 z"
         transform="translate(-2.6,-10.9)"
         id="path73" />
      <path
         class="cls-12"
         d="m 152.8,104.46 0.49,-0.38 c 0.06,0.14 0.17,0.28 0,0.42 -0.17,0.14 -0.29,0.02 -0.49,-0.04 z"
         transform="translate(-2.6,-10.9)"
         id="path74" />
      <path
         class="cls-12"
         d="m 103.12,104.09 0.48,0.37 c -0.16,0.07 -0.32,0.19 -0.5,0 -0.18,-0.19 -0.03,-0.24 0.02,-0.37 z"
         transform="translate(-2.6,-10.9)"
         id="path75" />
      <path
         class="cls-12"
         d="m 156.1,101.27 0.37,-0.49 c 0.07,0.16 0.19,0.31 0.05,0.49 -0.14,0.18 -0.28,0.06 -0.42,0 z"
         transform="translate(-2.6,-10.9)"
         id="path76" />
      <path
         class="cls-12"
         d="m 99.32,72.88 c -0.09,0.19 -0.14,0.4 -0.36,0.49 -0.2,-0.37 -0.14,-0.61 0.36,-0.49 z"
         transform="translate(-2.6,-10.9)"
         id="path77" />
      <path
         class="cls-12"
         d="m 99.94,100.79 0.37,0.48 c -0.14,0.06 -0.28,0.17 -0.42,0 -0.14,-0.17 -0.02,-0.33 0.05,-0.48 z"
         transform="translate(-2.6,-10.9)"
         id="path78" />
      <path
         class="cls-12"
         d="m 157.08,100.05 c 0.11,-0.18 0.16,-0.4 0.37,-0.49 0.2,0.44 0.15,0.62 -0.37,0.49 z"
         transform="translate(-2.6,-10.9)"
         id="path79" />
      <path
         class="cls-12"
         d="m 110.71,109 a 0.67,0.67 0 0 1 0.49,0.23 c 0,0.12 0,0.25 -0.21,0.2 A 0.35,0.35 0 0 1 110.71,109 Z"
         transform="translate(-2.6,-10.9)"
         id="path80" />
      <path
         class="cls-12"
         d="m 146.93,108.37 a 1.79,1.79 0 0 1 0.61,-0.36 c 0.12,0.66 -0.32,0.39 -0.61,0.36 z"
         transform="translate(-2.6,-10.9)"
         id="path81" />
      <path
         class="cls-12"
         d="m 118.78,111.8 c 0.21,0 0.44,-0.08 0.62,0.12 -0.27,0.28 -0.51,0.39 -0.62,-0.12 z"
         transform="translate(-2.6,-10.9)"
         id="path82" />
      <path
         class="cls-12"
         d="m 137,111.92 c 0.18,-0.2 0.41,-0.1 0.62,-0.12 -0.1,0.51 -0.34,0.4 -0.62,0.12 z"
         transform="translate(-2.6,-10.9)"
         id="path83" />
      <path
         class="cls-12"
         d="m 158.18,98.58 a 0.8,0.8 0 0 1 0.37,-0.61 c 0.21,0.4 -0.03,0.53 -0.37,0.61 z"
         transform="translate(-2.6,-10.9)"
         id="path84" />
      <path
         class="cls-12"
         d="m 97.86,98 a 0.8,0.8 0 0 1 0.37,0.61 C 97.89,98.5 97.65,98.37 97.86,98 Z"
         transform="translate(-2.6,-10.9)"
         id="path85" />
      <path
         class="cls-12"
         d="m 158.55,75 a 0.81,0.81 0 0 1 -0.37,-0.61 c 0.34,0.04 0.58,0.17 0.37,0.61 z"
         transform="translate(-2.6,-10.9)"
         id="path86" />
      <path
         class="cls-12"
         d="m 98.23,74.36 a 0.81,0.81 0 0 1 -0.37,0.61 c -0.21,-0.41 0.03,-0.54 0.37,-0.61 z"
         transform="translate(-2.6,-10.9)"
         id="path87" />
      <path
         class="cls-12"
         d="m 108.87,108 a 1.64,1.64 0 0 1 0.61,0.36 c -0.3,0.04 -0.72,0.3 -0.61,-0.36 z"
         transform="translate(-2.6,-10.9)"
         id="path88" />
      <path
         class="cls-12"
         d="m 157.45,73.38 c -0.21,-0.1 -0.26,-0.32 -0.37,-0.49 0.52,-0.14 0.57,0.11 0.37,0.49 z"
         transform="translate(-2.6,-10.9)"
         id="path89" />
      <path
         class="cls-12"
         d="m 94.56,88.18 c 0.22,0.26 0.08,0.57 0.12,0.86 -0.68,-0.2 0.03,-0.59 -0.12,-0.86 z"
         transform="translate(-2.6,-10.9)"
         id="path90" />
      <path
         class="cls-12"
         d="m 161.73,89 c 0.05,-0.29 -0.1,-0.6 0.13,-0.86 -0.16,0.31 0.55,0.7 -0.13,0.86 z"
         transform="translate(-2.6,-10.9)"
         id="path91" />
      <path
         class="cls-12"
         d="m 99,99.56 c 0.22,0.09 0.27,0.31 0.37,0.49 C 98.82,100.18 98.76,100 99,99.56 Z"
         transform="translate(-2.6,-10.9)"
         id="path92" />
      <path
         class="cls-12"
         d="m 94.68,83.9 c 0,0.28 0.1,0.6 -0.12,0.86 C 94.71,84.49 94,84.1 94.68,83.9 Z"
         transform="translate(-2.6,-10.9)"
         id="path93" />
      <path
         class="cls-12"
         d="m 161.86,84.76 c -0.23,-0.26 -0.08,-0.58 -0.13,-0.86 0.68,0.2 -0.03,0.59 0.13,0.86 z"
         transform="translate(-2.6,-10.9)"
         id="path94" />
      <path
         class="cls-12"
         d="m 120.74,119.76 a 0.24,0.24 0 0 0 -0.12,0.24 c -0.2,-0.11 -0.36,-0.3 -0.16,-0.47 0.2,-0.17 0.19,0.14 0.28,0.23 z"
         transform="translate(-2.6,-10.9)"
         id="path95" />
      <path
         class="cls-12"
         d="m 152.07,105.07 0.48,-0.37 c 0.05,0.39 -0.14,0.48 -0.48,0.37 z"
         transform="translate(-2.6,-10.9)"
         id="path96" />
      <path
         class="cls-12"
         d="m 103.85,104.7 0.49,0.37 c -0.34,0.11 -0.52,0.02 -0.49,-0.37 z"
         transform="translate(-2.6,-10.9)"
         id="path97" />
      <path
         class="cls-26"
         d="m 98.23,135.78 c 0.12,0.12 0.3,0.28 0.14,0.43 -0.16,0.15 -0.29,-0.06 -0.39,-0.19 a 0.22,0.22 0 0 0 0.25,-0.24 z"
         transform="translate(-2.6,-10.9)"
         id="path98" />
      <path
         class="cls-26"
         d="m 158.43,136 c -0.1,0.13 -0.29,0.28 -0.38,0.19 -0.09,-0.09 0,-0.31 0.14,-0.43 a 0.21,0.21 0 0 0 0.24,0.24 z"
         transform="translate(-2.6,-10.9)"
         id="path99" />
      <path
         class="cls-27"
         d="M 96.9,132.59 H 97 c 0.17,0.13 0.1,0.33 0.14,0.49 C 97,133 97,132.76 96.9,132.59 Z"
         transform="translate(-2.6,-10.9)"
         id="path100" />
      <path
         class="cls-27"
         d="m 159.4,132.6 h 0.11 c -0.06,0.17 0,0.39 -0.25,0.5 0.04,-0.17 -0.03,-0.37 0.14,-0.5 z"
         transform="translate(-2.6,-10.9)"
         id="path101" />
      <path
         class="cls-28"
         d="m 116.44,147.27 v 0.19 l -0.14,0.31 c -0.15,-0.22 0.04,-0.35 0.14,-0.5 z"
         transform="translate(-2.6,-10.9)"
         id="path102" />
      <path
         class="cls-21"
         d="m 146.56,34.46 a 27.53,27.53 0 0 1 4.06,1.43 23.94,23.94 0 0 1 4.71,3 13.06,13.06 0 0 1 2.18,3.75 4.87,4.87 0 0 1 0.33,2.72 4,4 0 0 1 -0.76,1 11.13,11.13 0 0 1 -5.5,3.12 c -1.19,0.3 -2.39,0.55 -3.6,0.74 h -0.18 c -0.18,0 -0.42,0 -0.48,-0.16 -0.06,-0.16 0.2,-0.28 0.36,-0.34 a 15.78,15.78 0 0 0 2.59,-1.24 9,9 0 0 0 2.15,-1.89 3.92,3.92 0 0 0 0.56,-4.35 10.81,10.81 0 0 0 -0.61,-1.11 c 0,0.07 0,0 0,0 0.64,2.4 -0.27,4.25 -2,5.81 a 8.85,8.85 0 0 1 -1.74,1.14 c -0.14,0.07 -0.32,0.17 -0.44,0 -0.12,-0.17 0,-0.31 0.13,-0.42 a 5,5 0 0 0 1.49,-3.2 c 0,-0.39 -0.06,-0.76 0,-1.14 V 43.1 a 5.88,5.88 0 0 0 -0.12,-1.1 13.36,13.36 0 0 0 -4.11,-6.86 c -0.17,-0.15 -0.35,-0.28 -0.53,-0.42 -0.18,-0.14 -0.31,-0.23 -0.56,-0.41 a 13.37,13.37 0 0 1 2.07,0.15 z"
         transform="translate(-2.6,-10.9)"
         id="path103" />
      <path
         class="cls-29"
         d="m 149.73,43.37 a 3.62,3.62 0 0 1 -0.36,3.14 3.58,3.58 0 0 1 -1.28,1.54 7,7 0 0 0 3.6,-2.91 5.06,5.06 0 0 0 0.29,-4.59 c 1.87,2 2.13,4.57 0.34,6.46 a 10.83,10.83 0 0 1 -4.26,2.76 3.19,3.19 0 0 0 -0.64,0.32 23.29,23.29 0 0 0 3.44,-0.57 11.46,11.46 0 0 0 6.14,-3.29 4.32,4.32 0 0 1 0.84,-0.87 4.87,4.87 0 0 1 -1.7,3.27 15.07,15.07 0 0 1 -6.35,3.27 25.2,25.2 0 0 1 -4.73,0.92 1.8,1.8 0 0 1 -1.74,-0.8 5.05,5.05 0 0 1 -1,-2.87 1,1 0 0 1 0.4,-0.14 11.75,11.75 0 0 0 3.73,-1 3,3 0 0 0 0.79,-0.17 5.59,5.59 0 0 0 2.45,-4.16 1.82,1.82 0 0 1 0.04,-0.31 z"
         transform="translate(-2.6,-10.9)"
         id="path104" />
      <path
         class="cls-30"
         d="m 146.56,48.05 a 9.14,9.14 0 0 1 -4.28,1.1 c -0.1,-0.38 0.16,-0.51 0.43,-0.63 0.51,-0.21 1,-0.41 1.52,-0.63 a 6.11,6.11 0 0 0 3.35,-2.81 2.88,2.88 0 0 1 -0.55,2.57 0.48,0.48 0 0 1 -0.47,0.4 z"
         transform="translate(-2.6,-10.9)"
         id="path105" />
      <path
         class="cls-31"
         d="m 146.56,48.05 0.47,-0.4 0.17,0.17 c -0.2,0.18 -0.32,0.47 -0.64,0.23 z"
         transform="translate(-2.6,-10.9)"
         id="path106" />
      <path
         class="cls-29"
         d="m 149.61,42.05 a 1.41,1.41 0 0 1 0.12,1.1 z"
         transform="translate(-2.6,-10.9)"
         id="path107" />
      <path
         class="cls-21"
         d="m 100.11,38.89 a 21.21,21.21 0 0 1 6.22,-3.62 c 0.84,-0.29 1.69,-0.54 2.54,-0.81 a 18,18 0 0 1 2.18,-0.12 13.14,13.14 0 0 0 -5.23,7.71 5.88,5.88 0 0 0 -0.12,1.1 v 0.22 a 5,5 0 0 0 1.41,4.3 c 0.13,0.12 0.32,0.27 0.17,0.46 -0.15,0.19 -0.34,0 -0.5,-0.05 -2,-1.11 -3.58,-2.61 -3.89,-5.06 a 5.11,5.11 0 0 1 0.18,-1.84 5.43,5.43 0 0 0 -1,2.63 4,4 0 0 0 1.15,3.06 10.17,10.17 0 0 0 3.86,2.61 6.37,6.37 0 0 1 0.85,0.36 c 0.1,0 0.25,0.1 0.2,0.26 -0.05,0.16 -0.19,0.14 -0.31,0.16 a 2,2 0 0 1 -0.48,0 26.3,26.3 0 0 1 -5,-1.23 10.2,10.2 0 0 1 -4.42,-3.16 C 97.79,45.72 97.77,45.53 97.65,45.4 a 4.78,4.78 0 0 1 0.32,-2.72 12.86,12.86 0 0 1 2.14,-3.79 z"
         transform="translate(-2.6,-10.9)"
         id="path108" />
      <path
         class="cls-29"
         d="m 97.6,45.36 a 22.06,22.06 0 0 0 2.4,2.24 14.48,14.48 0 0 0 5.65,2.15 18.55,18.55 0 0 0 2.37,0.36 29.74,29.74 0 0 1 -2.83,-1.4 8,8 0 0 1 -2.75,-2.64 4.28,4.28 0 0 1 0.26,-4.61 6.13,6.13 0 0 1 0.61,-0.81 c -1,3.71 0.89,5.86 3.9,7.42 a 5.24,5.24 0 0 1 -1.39,-2.07 3.1,3.1 0 0 1 -0.12,-2.58 6.07,6.07 0 0 0 1.53,3.57 6,6 0 0 0 1,0.88 3,3 0 0 0 0.77,0.13 11.75,11.75 0 0 0 3.73,1 1,1 0 0 1 0.4,0.14 5,5 0 0 1 -1.24,3.11 1.5,1.5 0 0 1 -1.29,0.57 21.39,21.39 0 0 1 -10.53,-3.52 5.7,5.7 0 0 1 -2.48,-3.65 1.51,1.51 0 0 1 0.01,-0.29 z"
         transform="translate(-2.6,-10.9)"
         id="path109" />
      <path
         class="cls-30"
         d="m 113.15,49.15 a 9.22,9.22 0 0 1 -3.66,-0.79 l -0.66,-0.3 a 0.49,0.49 0 0 1 -0.43,-0.41 2.92,2.92 0 0 1 -0.59,-2.44 c 0.27,0.14 0.32,0.39 0.45,0.57 a 6.82,6.82 0 0 0 3,2.16 l 1.47,0.61 c 0.27,0.11 0.52,0.26 0.42,0.6 z"
         transform="translate(-2.6,-10.9)"
         id="path110" />
      <path
         class="cls-29"
         d="m 105.7,43.15 a 1.41,1.41 0 0 1 0.12,-1.1 z"
         transform="translate(-2.6,-10.9)"
         id="path111" />
      <path
         class="cls-31"
         d="m 108.4,47.65 0.43,0.41 c -0.3,0.17 -0.43,-0.07 -0.6,-0.24 z"
         transform="translate(-2.6,-10.9)"
         id="path112" />
      <path
         class="cls-32"
         d="m 100,131.32 c 0.32,-0.06 0.41,0.1 0.54,0.18 1.89,1.23 3.76,2.47 5.66,3.69 a 0.61,0.61 0 0 1 0.32,0.79 c -0.21,0.73 -0.38,1.48 -0.6,2.33 C 103.93,136 102,133.67 100,131.32 Z"
         transform="translate(-2.6,-10.9)"
         id="path113" />
      <path
         class="cls-33"
         d="m 156.5,145.64 c -0.42,-0.59 -0.8,-1.14 -1.21,-1.66 -0.19,-0.25 0,-0.38 0.11,-0.52 1.74,-2.34 3.5,-4.68 5.28,-7.06 0.2,0.37 0,0.68 0,1 a 7.24,7.24 0 0 1 -1.16,3.22 c -1.06,1.62 -2,3.3 -3.02,5.02 z"
         transform="translate(-2.6,-10.9)"
         id="path114" />
      <path
         class="cls-34"
         d="m 144.38,148.79 a 1.13,1.13 0 0 1 0.51,0.64 l 2.38,4.65 c 0.46,0.89 0.46,0.9 -0.19,1.82 -0.89,-2.35 -1.77,-4.65 -2.7,-7.11 z"
         transform="translate(-2.6,-10.9)"
         id="path115" />
      <path
         class="cls-35"
         d="m 118.55,148.94 a 10.57,10.57 0 0 1 0.35,2.44 c 0.1,0.86 0.12,1.74 0.23,2.61 a 1.18,1.18 0 0 1 -0.54,1.34 6.88,6.88 0 0 0 -0.74,0.62 c 0.25,-2.42 0.48,-4.72 0.7,-7.01 z"
         transform="translate(-2.6,-10.9)"
         id="path116" />
      <path
         class="cls-15"
         d="m 120.75,92 a 5.63,5.63 0 0 1 -0.6,2.84 c -1.18,2 -3.2,2.39 -5.29,1 a 7.93,7.93 0 0 1 -3.3,-5.36 5.77,5.77 0 0 1 0.28,-3.29 3.35,3.35 0 0 1 5.16,-1.71 8,8 0 0 1 3.75,6.52 z"
         transform="translate(-2.6,-10.9)"
         id="path117" />
      <path
         class="cls-15"
         d="m 135.91,92.2 a 8.09,8.09 0 0 1 3.66,-6.66 3.41,3.41 0 0 1 5.44,2.2 7.9,7.9 0 0 1 -3.92,8.45 c -2.25,1.11 -4.51,0 -5,-2.65 a 4,4 0 0 1 -0.18,-1.34 z"
         transform="translate(-2.6,-10.9)"
         id="path118" />
      <path
         class="cls-17"
         d="m 125.07,121.5 c -0.51,0.07 -0.62,0 -0.4,-0.56 1,-2.39 2,-4.8 3,-7.2 0.12,-0.29 0.23,-0.59 0.61,-0.59 0.38,0 0.48,0.31 0.6,0.59 1,2.31 1.91,4.62 2.88,6.92 a 0.58,0.58 0 0 1 -0.17,0.8 c -0.3,0.23 -0.54,0.08 -0.77,-0.1 q -1.74,-1.39 -3.47,-2.8 c -0.3,-0.26 -0.45,-0.34 -0.61,0.14 -0.25,0.76 -0.6,1.5 -0.88,2.27 -0.15,0.39 -0.34,0.64 -0.79,0.53 z"
         transform="translate(-2.6,-10.9)"
         id="path119" />
      <path
         class="cls-23"
         d="m 134.19,122.31 a 1,1 0 0 1 -0.65,0.73 z"
         transform="translate(-2.6,-10.9)"
         id="path120" />
      <path
         class="cls-23"
         d="m 133.45,123.13 a 0.69,0.69 0 0 1 -0.61,0.53 2.2,2.2 0 0 1 0.61,-0.53 z"
         transform="translate(-2.6,-10.9)"
         id="path121" />
      <path
         class="cls-32"
         d="m 136.52,60.89 a 1.71,1.71 0 1 1 -1.72,-1.7 1.76,1.76 0 0 1 1.72,1.7 z"
         transform="translate(-2.6,-10.9)"
         id="path122" />
      <path
         class="cls-32"
         d="m 123.43,60.89 a 1.71,1.71 0 1 1 -1.73,-1.7 1.76,1.76 0 0 1 1.73,1.7 z"
         transform="translate(-2.6,-10.9)"
         id="path123" />
      <path
         class="cls-36"
         d="m 128.29,114.88 1.81,4.47 -0.1,0.07 -2.54,-2 a 0.26,0.26 0 0 1 -0.1,-0.32 c 0.29,-0.68 0.64,-1.39 0.93,-2.22 z"
         transform="translate(-2.6,-10.9)"
         id="path124" />
      <rect
         class="cls-9"
         x="88.059998"
         y="86.330002"
         width="5.6700001"
         height="14.99"
         id="rect124" />
      <circle
         class="cls-37"
         cx="90.809998"
         cy="86.5"
         r="5.6700001"
         id="circle124" />
    </g>
    <path
       class="cls-38"
       d="m 134.33963,-45.523348 c -1.31,-0.62 53.84,6.15 66.68,82 a 68.44,68.44 0 0 1 -28.41,10.37 c 0,0 14.55,-67.75 -38.27,-92.37 z"
       id="path125" />
    <path
       class="cls-39"
       d="m 146.68963,104.17665 a 21.06,21.06 0 1 1 -21.05,-21.079998 21.05,21.05 0 0 1 21.05,21.059998"
       id="path126" />
    <path
       class="cls-21"
       d="m 125.98963,96.276652 5.43,13.449998 -8.23,-6.48 z m 9.68,16.549998 -8.38,-20.169998 a 1.36,1.36 0 0 0 -1.3,-0.89 1.4,1.4 0 0 0 -1.33,0.89 l -9.24,22.119998 h 3.14 l 3.65,-9.12 10.86,8.78 a 1.8,1.8 0 0 0 1.17,0.51 1.49,1.49 0 0 0 1.53,-1.5 2.08,2.08 0 0 0 -0.14,-0.62"
       id="path127" />
    <path
       class="cls-40"
       d="m 76.639631,102.48665 c -3.5,5.88 -14,6.09 -23.38,0.48 -9.38,-5.609998 -14.22,-14.869998 -10.73,-20.779998 3.49,-5.91 14,-6.09 23.39,-0.48 9.39,5.61 14.21,14.92 10.72,20.779998 z"
       id="path128" />
    <path
       class="cls-41"
       d="m 76.559631,102.93665 c -3.5,5.87 -14,6.09 -23.38,0.48 -9.38,-5.609998 -14.22,-14.909998 -10.76,-20.779998 3.46,-5.87 14,-6.09 23.39,-0.48 9.39,5.61 14.24,14.94 10.75,20.779998 z"
       id="path129" />
    <path
       class="cls-4"
       d="m 75.269631,102.53665 a 8.54,8.54 0 0 0 0.93,-5.339998 6.74,6.74 0 0 1 -1,3.089998 c -2.71,4.73 -11,4.78 -18.6,0.12 -7.6,-4.659998 -11.61,-12.119998 -8.9,-16.839998 2.36,-4.11 8.89,-4.58 15.55,-1.6 -8.45,-4.58 -17.11,-4 -20.11,1.19 -3.17,5.53 1.42,13.94 10.26,19.379998 8.84,5.44 18.69,5.56 21.87,0 z"
       id="path130" />
    <path
       class="cls-40"
       d="m 208.95963,82.096652 c 3.43,5.91 -1.48,15.15 -11,20.649998 -9.52,5.5 -19.94,5.16 -23.37,-0.75 -3.43,-5.909998 1.48,-15.159998 11,-20.659998 9.52,-5.5 19.95,-5.14 23.37,0.76 z"
       id="path131" />
    <path
       class="cls-41"
       d="m 210.26963,82.396652 c 3.44,5.92 -1.47,15.16 -10.95,20.659998 -9.48,5.5 -20,5.16 -23.38,-0.75 -3.38,-5.909998 1.48,-15.159998 11,-20.659998 9.52,-5.5 19.92,-5.15 23.33,0.75 z"
       id="path132" />
    <path
       class="cls-4"
       d="m 209.68963,82.956652 c -0.92,-1.55 -2.66,-2.46 -4.48,-3.2 a 7.58,7.58 0 0 1 2.74,2.2 c 2.84,4.77 -1.21,12.13 -9.06,16.56 -7.85,4.429998 -16.52,4.159998 -19.36,-0.61 -2.47,-4.15 0.56,-9.82 6.49,-14.29 -8.24,5.26 -12.3,13.3 -9.44,18.179998 3.46,5.91 13.43,5.83 22.61,0.64 9.18,-5.189998 13.82,-13.909998 10.5,-19.479998 z"
       id="path133" />
    <ellipse
       class="cls-38"
       cx="91.929634"
       cy="31.616655"
       rx="2.03"
       ry="1.5599999"
       id="ellipse133" />
  </g>
</svg>
